<?xml version="1.0" encoding="utf-8"?>
<!-- Generator: Adobe Illustrator 19.1.0, SVG Export Plug-In . SVG Version: 6.00 Build 0)  -->
<svg version="1.1" id="Capa_1" xmlns="http://www.w3.org/2000/svg" xmlns:xlink="http://www.w3.org/1999/xlink" x="0px" y="0px"
	 viewBox="0 0 109.1 144.2" style="enable-background:new 0 0 109.1 144.2;" xml:space="preserve">
<style type="text/css">
	.st0{fill:#0E3B7C;}
	.st1{fill:#FFFFFF;}
</style>
<g>
	<polygon class="st0" points="0,144.2 0,0 109.1,0 109.1,144.2 57.4,110.5 	"/>
</g>
<g>
	<path class="st1" d="M16.8,47.9h6.3c0.4,0,0.7,0.1,0.9,0.2c0.3,0.2,0.5,0.3,0.7,0.6c0.2,0.2,0.3,0.5,0.4,0.8c0.1,0.3,0.1,0.6,0.1,1
		c0,0.4-0.1,0.7-0.2,1.1c-0.1,0.4-0.3,0.7-0.5,1c-0.2,0.3-0.5,0.6-0.8,0.9s-0.6,0.5-1,0.6c0.5,0.2,1,0.5,1.2,0.9
		c0.3,0.4,0.4,1,0.4,1.6c0,0.6-0.1,1.2-0.4,1.7c-0.3,0.5-0.6,0.9-1,1.3c-0.4,0.3-0.9,0.6-1.4,0.8c-0.5,0.2-1.1,0.3-1.7,0.3h-5.8
		L16.8,47.9z M20.2,58.9c0.3,0,0.5-0.1,0.8-0.2c0.3-0.1,0.5-0.3,0.7-0.5c0.2-0.2,0.4-0.5,0.5-0.7c0.1-0.3,0.2-0.6,0.2-0.9
		c0-0.4-0.1-0.8-0.3-1.1c-0.2-0.3-0.5-0.5-0.9-0.5h-3.9l-0.8,3.9H20.2z M21.1,53.4c0.3,0,0.5-0.1,0.8-0.2c0.3-0.1,0.5-0.3,0.7-0.5
		s0.3-0.4,0.5-0.7c0.1-0.3,0.2-0.6,0.2-0.9c0-0.4-0.1-0.8-0.3-1c-0.2-0.3-0.5-0.4-0.8-0.4h-3.5l-0.8,3.8H21.1z"/>
	<path class="st1" d="M28.2,60.8c-1.5,0-2.2-0.8-2.2-2.3c0-0.4,0.1-0.9,0.2-1.5l1.2-5.8h2l-1.2,5.4c-0.1,0.4-0.1,0.7-0.1,1.1
		c0,1,0.4,1.5,1.2,1.5c0.5,0,1.1-0.2,1.6-0.5c0.5-0.3,1-0.9,1.4-1.5l1.2-5.9h2l-1.5,7.1c0,0.1-0.1,0.2-0.1,0.3
		c0,0.2,0.1,0.4,0.4,0.4l-0.3,1.7c-0.2,0-0.3,0-0.5,0.1c-0.1,0-0.3,0-0.4,0c-0.4,0-0.6-0.1-0.8-0.2c-0.2-0.1-0.3-0.4-0.3-0.7
		c0-0.1,0-0.2,0-0.4c0-0.2,0.1-0.4,0.1-0.7c-0.5,0.7-1.2,1.2-1.9,1.6C29.7,60.7,29,60.8,28.2,60.8z"/>
	<path class="st1" d="M39.3,60.8c-0.7,0-1.4-0.1-2.1-0.4c-0.7-0.2-1.2-0.6-1.6-1.1l1.1-1.3c0.9,0.8,1.9,1.2,2.9,1.2
		c0.6,0,1.1-0.1,1.5-0.4s0.6-0.6,0.6-1.1c0-0.3-0.2-0.6-0.5-0.7s-0.8-0.3-1.4-0.5c-0.5-0.1-0.9-0.3-1.2-0.4s-0.6-0.3-0.8-0.4
		c-0.2-0.2-0.4-0.3-0.5-0.5S37,54.8,37,54.5c0-0.5,0.1-1,0.3-1.4c0.2-0.4,0.5-0.8,0.9-1.1c0.4-0.3,0.8-0.5,1.3-0.7s1-0.2,1.6-0.2
		c0.7,0,1.3,0.1,1.8,0.3s1,0.5,1.4,0.9l-1.1,1.2c-0.3-0.3-0.7-0.6-1.1-0.8c-0.4-0.2-0.8-0.3-1.3-0.3c-0.5,0-1,0.1-1.3,0.4
		C39.2,53.1,39,53.5,39,54c0,0.3,0.1,0.5,0.4,0.7s0.7,0.3,1.3,0.5c0.5,0.1,0.9,0.3,1.3,0.4c0.4,0.1,0.7,0.3,0.9,0.5
		c0.2,0.2,0.4,0.4,0.5,0.6c0.1,0.2,0.2,0.5,0.2,0.8c0,0.5-0.1,1-0.3,1.4c-0.2,0.4-0.5,0.8-0.9,1.1c-0.4,0.3-0.8,0.5-1.4,0.7
		C40.5,60.8,39.9,60.8,39.3,60.8z"/>
	<path class="st1" d="M48.7,60.8c-0.6,0-1.1-0.1-1.6-0.3c-0.5-0.2-0.9-0.5-1.2-0.9c-0.3-0.4-0.6-0.8-0.7-1.3s-0.2-1-0.2-1.5
		c0-0.8,0.1-1.5,0.4-2.2c0.3-0.7,0.7-1.3,1.2-1.8c0.5-0.5,1.1-1,1.8-1.3c0.7-0.3,1.5-0.5,2.3-0.5c0.9,0,1.7,0.2,2.3,0.6
		c0.6,0.4,1,1,1.2,1.7L52.1,54c-0.1-0.4-0.4-0.7-0.7-0.9c-0.3-0.2-0.7-0.3-1.1-0.3c-0.4,0-0.8,0.1-1.3,0.3c-0.4,0.2-0.8,0.5-1.1,0.8
		s-0.6,0.8-0.7,1.2c-0.2,0.5-0.3,1-0.3,1.5c0,0.4,0,0.7,0.1,1c0.1,0.3,0.2,0.6,0.4,0.8c0.2,0.2,0.4,0.4,0.6,0.5s0.5,0.2,0.8,0.2
		c0.2,0,0.5,0,0.7-0.1c0.2-0.1,0.4-0.2,0.7-0.3c0.2-0.1,0.4-0.3,0.6-0.4c0.2-0.2,0.3-0.3,0.4-0.5l1.8,0.6c-0.2,0.3-0.5,0.7-0.8,1
		c-0.3,0.3-0.7,0.5-1.1,0.8c-0.4,0.2-0.8,0.4-1.2,0.5C49.6,60.8,49.2,60.8,48.7,60.8z"/>
	<path class="st1" d="M57.9,60.8c-0.5,0-1-0.1-1.4-0.3s-0.8-0.5-1.1-0.8c-0.3-0.3-0.5-0.8-0.7-1.2c-0.1-0.5-0.2-1-0.2-1.5
		c0-0.8,0.1-1.5,0.4-2.2c0.3-0.7,0.7-1.3,1.1-1.9c0.5-0.5,1-1,1.7-1.3c0.6-0.3,1.3-0.5,2-0.5c0.7,0,1.3,0.2,1.7,0.5s0.8,0.8,1,1.4
		l0.4-1.8h2l-1.5,7.1c0,0.1,0,0.1,0,0.2c0,0,0,0.1,0,0.1c0,0.2,0.1,0.4,0.4,0.4l-0.4,1.7c-0.2,0-0.3,0-0.5,0.1c-0.1,0-0.3,0-0.4,0
		c-0.8,0-1.2-0.3-1.2-0.9c0-0.2,0-0.5,0.1-0.9c-0.5,0.6-1,1.1-1.7,1.4C59.1,60.7,58.5,60.8,57.9,60.8z M58.7,59.2
		c0.2,0,0.5,0,0.8-0.1c0.3-0.1,0.5-0.2,0.8-0.4s0.5-0.4,0.7-0.6s0.4-0.5,0.5-0.7l0.5-2.5c0-0.3-0.1-0.6-0.2-0.8s-0.3-0.5-0.5-0.6
		c-0.2-0.2-0.4-0.3-0.6-0.4s-0.5-0.2-0.7-0.2c-0.5,0-0.9,0.1-1.3,0.3s-0.8,0.5-1.1,0.9c-0.3,0.4-0.5,0.8-0.7,1.2s-0.3,0.9-0.3,1.4
		c0,0.4,0,0.7,0.1,1c0.1,0.3,0.2,0.6,0.4,0.8c0.2,0.2,0.4,0.4,0.7,0.5C58.1,59.1,58.4,59.2,58.7,59.2z"/>
	<path class="st1" d="M67.3,51.3h1.8l-0.5,2.1c0.5-0.6,1-1.2,1.5-1.6s1.1-0.6,1.7-0.6c0.1,0,0.2,0,0.3,0c0.1,0,0.1,0,0.2,0L72,53
		c-0.7,0-1.4,0.2-2,0.5s-1.1,0.8-1.5,1.4l-1.2,5.8h-2L67.3,51.3z"/>
	<path class="st1" d="M77.9,51.3h1.8l-0.4,1.9c0.5-0.6,1-1.2,1.7-1.5c0.7-0.4,1.3-0.5,2-0.5c0.7,0,1.3,0.2,1.6,0.6
		c0.4,0.4,0.5,0.9,0.6,1.6c0.5-0.7,1.1-1.2,1.7-1.6s1.3-0.5,2-0.5c0.8,0,1.3,0.2,1.6,0.6c0.3,0.4,0.5,1,0.5,1.6c0,0.2,0,0.5-0.1,0.7
		c0,0.3-0.1,0.6-0.1,0.9l-1.2,5.7h-2l1.1-5.3c0.1-0.5,0.1-0.8,0.1-1.1c0-0.9-0.4-1.4-1.2-1.4c-0.5,0-1,0.2-1.6,0.6
		c-0.5,0.4-1,1-1.3,1.6l-1.2,5.6h-2l1.1-5.3c0.1-0.2,0.1-0.5,0.1-0.6c0-0.2,0-0.4,0-0.5c0-0.5-0.1-0.8-0.3-1.1
		c-0.2-0.2-0.5-0.3-0.8-0.3c-0.5,0-1,0.2-1.6,0.6c-0.5,0.4-0.9,0.9-1.3,1.6l-1.2,5.6h-2L77.9,51.3z"/>
	<path class="st1" d="M93.9,51.3h2l-2,9.4h-2L93.9,51.3z M94.6,47.5h2l-0.5,2.2h-2L94.6,47.5z"/>
	<path class="st1" d="M14.7,72.9h1.7l-0.4,1.7c0.5-0.6,1-1,1.6-1.3c0.6-0.3,1.3-0.5,1.9-0.5c0.5,0,1,0.1,1.4,0.3
		c0.4,0.2,0.8,0.5,1,0.8c0.3,0.4,0.5,0.8,0.6,1.2c0.1,0.5,0.2,1,0.2,1.5c0,0.8-0.1,1.5-0.4,2.2c-0.3,0.7-0.7,1.3-1.1,1.9
		c-0.5,0.5-1,1-1.6,1.3c-0.6,0.3-1.3,0.5-2,0.5c-0.7,0-1.3-0.2-1.8-0.5c-0.5-0.4-0.8-0.8-1-1.4l-1.2,5.6h-2L14.7,72.9z M17.5,80.8
		c0.4,0,0.9-0.1,1.3-0.3c0.4-0.2,0.8-0.5,1.1-0.9c0.3-0.4,0.5-0.8,0.7-1.2c0.2-0.5,0.3-0.9,0.3-1.4c0-0.3,0-0.7-0.1-1
		c-0.1-0.3-0.2-0.6-0.4-0.8c-0.2-0.2-0.4-0.4-0.7-0.5c-0.3-0.1-0.6-0.2-0.9-0.2c-0.2,0-0.5,0-0.8,0.1s-0.5,0.2-0.8,0.4
		c-0.3,0.2-0.5,0.4-0.7,0.6c-0.2,0.2-0.4,0.5-0.5,0.7l-0.5,2.5c0.1,0.6,0.3,1.1,0.7,1.5C16.5,80.6,17,80.8,17.5,80.8z"/>
	<path class="st1" d="M25.6,72.9h1.8L27,75c0.5-0.6,1-1.2,1.5-1.6c0.6-0.4,1.1-0.6,1.7-0.6c0.1,0,0.2,0,0.3,0c0.1,0,0.1,0,0.2,0
		l-0.4,1.7c-0.7,0-1.4,0.2-2,0.5s-1.1,0.8-1.5,1.4l-1.2,5.8h-2L25.6,72.9z"/>
	<path class="st1" d="M33.7,82.4c-0.6,0-1.1-0.1-1.6-0.3c-0.5-0.2-0.8-0.5-1.2-0.8c-0.3-0.4-0.5-0.8-0.7-1.2c-0.2-0.5-0.2-1-0.2-1.5
		c0-0.8,0.1-1.5,0.5-2.2c0.3-0.7,0.7-1.3,1.2-1.9c0.5-0.5,1.1-1,1.8-1.3c0.7-0.3,1.5-0.5,2.3-0.5c0.6,0,1.1,0.1,1.6,0.3
		c0.5,0.2,0.9,0.5,1.2,0.8c0.3,0.4,0.6,0.8,0.7,1.3c0.2,0.5,0.2,1,0.2,1.5c0,0.7-0.2,1.5-0.5,2.2c-0.3,0.7-0.7,1.3-1.2,1.9
		s-1.1,1-1.8,1.3S34.6,82.4,33.7,82.4z M34.1,80.8c0.4,0,0.8-0.1,1.2-0.3c0.4-0.2,0.8-0.5,1.1-0.8c0.3-0.4,0.6-0.8,0.8-1.2
		c0.2-0.5,0.3-1,0.3-1.5c0-0.7-0.2-1.3-0.5-1.8c-0.4-0.5-0.9-0.7-1.5-0.7c-0.4,0-0.8,0.1-1.2,0.3s-0.8,0.5-1.1,0.8
		c-0.3,0.4-0.6,0.8-0.8,1.2c-0.2,0.5-0.3,1-0.3,1.5c0,0.7,0.2,1.3,0.5,1.8C33,80.5,33.5,80.8,34.1,80.8z"/>
	<path class="st1" d="M42.2,72.9h1.7l-0.4,1.7c0.5-0.6,1-1,1.6-1.3c0.6-0.3,1.3-0.5,1.9-0.5c0.5,0,1,0.1,1.4,0.3
		c0.4,0.2,0.8,0.5,1,0.8c0.3,0.4,0.5,0.8,0.6,1.2c0.1,0.5,0.2,1,0.2,1.5c0,0.8-0.1,1.5-0.4,2.2c-0.3,0.7-0.7,1.3-1.1,1.9
		c-0.5,0.5-1,1-1.6,1.3c-0.6,0.3-1.3,0.5-2,0.5c-0.7,0-1.3-0.2-1.8-0.5s-0.8-0.8-1-1.4l-1.2,5.6h-2L42.2,72.9z M45,80.8
		c0.4,0,0.9-0.1,1.3-0.3c0.4-0.2,0.8-0.5,1.1-0.9c0.3-0.4,0.5-0.8,0.7-1.2c0.2-0.5,0.3-0.9,0.3-1.4c0-0.3,0-0.7-0.1-1
		c-0.1-0.3-0.2-0.6-0.4-0.8c-0.2-0.2-0.4-0.4-0.7-0.5c-0.3-0.1-0.6-0.2-0.9-0.2c-0.2,0-0.5,0-0.8,0.1s-0.5,0.2-0.8,0.4
		c-0.3,0.2-0.5,0.4-0.7,0.6c-0.2,0.2-0.4,0.5-0.5,0.7l-0.5,2.5c0.1,0.6,0.3,1.1,0.7,1.5C44,80.6,44.5,80.8,45,80.8z"/>
	<path class="st1" d="M53.8,82.4c-1.5,0-2.2-0.8-2.2-2.3c0-0.4,0.1-0.9,0.2-1.5l1.2-5.8h2l-1.2,5.4c-0.1,0.4-0.1,0.7-0.1,1.1
		c0,1,0.4,1.5,1.2,1.5c0.5,0,1.1-0.2,1.6-0.5c0.5-0.3,1-0.9,1.4-1.5l1.2-5.9h2l-1.5,7.1c0,0.1-0.1,0.2-0.1,0.3
		c0,0.2,0.1,0.4,0.4,0.4l-0.3,1.7c-0.2,0-0.3,0-0.5,0.1c-0.1,0-0.3,0-0.4,0c-0.4,0-0.6-0.1-0.8-0.2c-0.2-0.2-0.3-0.4-0.3-0.7
		c0-0.1,0-0.2,0-0.4c0-0.2,0.1-0.4,0.1-0.7c-0.5,0.7-1.2,1.2-1.9,1.6C55.3,82.3,54.6,82.4,53.8,82.4z"/>
	<path class="st1" d="M65.8,82.4c-0.6,0-1.1-0.1-1.6-0.3s-0.9-0.5-1.2-0.8c-0.3-0.4-0.6-0.8-0.7-1.3c-0.2-0.5-0.3-1-0.3-1.6
		c0-0.8,0.1-1.5,0.4-2.2s0.7-1.3,1.2-1.8c0.5-0.5,1.1-1,1.9-1.3c0.7-0.3,1.5-0.5,2.3-0.5c1,0,1.7,0.2,2.3,0.7
		c0.6,0.4,0.9,1.1,0.9,1.9c0,2-1.8,3-5.3,3c-0.5,0-1.1,0-1.7-0.1v0.3c0,0.3,0,0.7,0.1,1s0.2,0.6,0.4,0.8s0.4,0.4,0.6,0.5
		c0.3,0.1,0.6,0.2,0.9,0.2c0.5,0,1-0.1,1.5-0.4c0.5-0.3,0.9-0.6,1.1-1.1l1.6,0.5c-0.2,0.4-0.5,0.7-0.8,1s-0.7,0.5-1.1,0.8
		c-0.4,0.2-0.8,0.4-1.3,0.5C66.7,82.4,66.2,82.4,65.8,82.4z M67.6,74.1c-0.4,0-0.8,0.1-1.2,0.2c-0.4,0.2-0.7,0.4-1,0.6
		c-0.3,0.3-0.5,0.5-0.7,0.9c-0.2,0.3-0.3,0.7-0.5,1c0.6,0,1.1,0.1,1.5,0.1c0.6,0,1.2,0,1.6-0.1s0.8-0.2,1.1-0.3
		c0.3-0.1,0.5-0.3,0.6-0.5s0.2-0.4,0.2-0.7c0-0.4-0.1-0.7-0.4-0.9S68.1,74.1,67.6,74.1z"/>
	<path class="st1" d="M74.7,82.4c-0.7,0-1.4-0.1-2.1-0.4C72,81.8,71.4,81.5,71,81l1.1-1.3C73,80.6,73.9,81,75,81
		c0.6,0,1.1-0.1,1.5-0.4c0.4-0.3,0.6-0.6,0.6-1.1c0-0.3-0.2-0.6-0.5-0.7c-0.3-0.2-0.8-0.3-1.4-0.5c-0.5-0.1-0.9-0.3-1.2-0.4
		s-0.6-0.3-0.8-0.4c-0.2-0.2-0.4-0.3-0.5-0.5c-0.1-0.2-0.2-0.4-0.2-0.7c0-0.5,0.1-1,0.3-1.4c0.2-0.4,0.5-0.8,0.9-1.1
		c0.4-0.3,0.8-0.5,1.3-0.7s1-0.2,1.6-0.2c0.7,0,1.3,0.1,1.8,0.3c0.5,0.2,1,0.5,1.4,0.9l-1.1,1.2c-0.3-0.3-0.7-0.6-1.1-0.8
		s-0.8-0.3-1.3-0.3c-0.5,0-1,0.1-1.3,0.4s-0.6,0.6-0.6,1.2c0,0.3,0.1,0.5,0.4,0.7c0.3,0.1,0.7,0.3,1.3,0.5c0.5,0.1,0.9,0.3,1.3,0.4
		c0.4,0.1,0.7,0.3,0.9,0.5c0.2,0.2,0.4,0.4,0.5,0.6c0.1,0.2,0.2,0.5,0.2,0.8c0,0.5-0.1,1-0.3,1.4c-0.2,0.4-0.5,0.8-0.9,1.1
		c-0.4,0.3-0.8,0.5-1.4,0.7C75.9,82.4,75.3,82.4,74.7,82.4z"/>
	<path class="st1" d="M82.7,82.4c-0.5,0-0.9-0.1-1.3-0.4c-0.3-0.2-0.5-0.6-0.5-1.2c0-0.2,0-0.4,0.1-0.6l1.3-5.9H81l0.3-1.5h1.2
		l0.7-3.1h2l-0.7,3.1h1.9l-0.3,1.5h-1.9l-1.1,5.3c0,0.1,0,0.2,0,0.3c0,0.2,0.1,0.4,0.2,0.5c0.1,0.1,0.3,0.2,0.5,0.2
		c0.3,0,0.5,0,0.8-0.1c0.3-0.1,0.4-0.2,0.6-0.2l0.1,1.6c-0.3,0.2-0.6,0.3-1.1,0.4S83.2,82.4,82.7,82.4z"/>
	<path class="st1" d="M89.9,82.4c-0.5,0-1-0.1-1.4-0.3s-0.8-0.5-1.1-0.8s-0.5-0.8-0.7-1.2c-0.1-0.5-0.2-1-0.2-1.5
		c0-0.8,0.1-1.5,0.4-2.2s0.7-1.3,1.1-1.9c0.5-0.5,1-1,1.7-1.3c0.6-0.3,1.3-0.5,2-0.5c0.7,0,1.3,0.2,1.7,0.5c0.5,0.4,0.8,0.8,1,1.4
		l0.4-1.8h2l-1.5,7.1c0,0.1,0,0.1,0,0.2s0,0.1,0,0.1c0,0.2,0.1,0.4,0.4,0.4l-0.4,1.7c-0.2,0-0.3,0-0.5,0.1c-0.1,0-0.3,0-0.4,0
		c-0.8,0-1.2-0.3-1.2-0.9c0-0.2,0-0.5,0.1-0.9c-0.5,0.6-1,1.1-1.7,1.4C91.1,82.3,90.5,82.4,89.9,82.4z M90.7,80.8
		c0.2,0,0.5,0,0.8-0.1c0.3-0.1,0.5-0.2,0.8-0.4c0.3-0.2,0.5-0.4,0.7-0.6c0.2-0.2,0.4-0.5,0.5-0.7l0.5-2.5c0-0.3-0.1-0.6-0.2-0.8
		s-0.3-0.5-0.5-0.6c-0.2-0.2-0.4-0.3-0.6-0.4c-0.2-0.1-0.5-0.2-0.7-0.2c-0.5,0-0.9,0.1-1.3,0.3c-0.4,0.2-0.8,0.5-1.1,0.9
		s-0.5,0.8-0.7,1.2c-0.2,0.5-0.3,0.9-0.3,1.4c0,0.4,0,0.7,0.1,1c0.1,0.3,0.2,0.6,0.4,0.8c0.2,0.2,0.4,0.4,0.7,0.5
		C90.1,80.7,90.4,80.8,90.7,80.8z"/>
</g>
</svg>
