<?xml version="1.0" encoding="UTF-8" standalone="no"?>
<!-- Generator: Adobe Illustrator 19.1.0, SVG Export Plug-In . SVG Version: 6.00 Build 0)  -->

<svg
   xmlns:dc="http://purl.org/dc/elements/1.1/"
   xmlns:cc="http://creativecommons.org/ns#"
   xmlns:rdf="http://www.w3.org/1999/02/22-rdf-syntax-ns#"
   xmlns:svg="http://www.w3.org/2000/svg"
   xmlns="http://www.w3.org/2000/svg"
   xmlns:sodipodi="http://sodipodi.sourceforge.net/DTD/sodipodi-0.dtd"
   xmlns:inkscape="http://www.inkscape.org/namespaces/inkscape"
   version="1.1"
   id="Capa_1"
   x="0px"
   y="0px"
   viewBox="0 0 1364.3 767"
   style="enable-background:new 0 0 1364.3 767;"
   xml:space="preserve"
   inkscape:version="0.48.4 r9939"
   width="100%"
   height="100%"
   sodipodi:docname="fondo_manos.svg"
   enable-background="new"><metadata
     id="metadata85"><rdf:RDF><cc:Work
         rdf:about=""><dc:format>image/svg+xml</dc:format><dc:type
           rdf:resource="http://purl.org/dc/dcmitype/StillImage" /><dc:title></dc:title></cc:Work></rdf:RDF></metadata><defs
     id="defs83" /><sodipodi:namedview
     pagecolor="#ffffff"
     bordercolor="#666666"
     borderopacity="1"
     objecttolerance="10"
     gridtolerance="10"
     guidetolerance="10"
     inkscape:pageopacity="0"
     inkscape:pageshadow="2"
     inkscape:window-width="1301"
     inkscape:window-height="744"
     id="namedview81"
     showgrid="false"
     inkscape:zoom="0.21109727"
     inkscape:cx="28.422917"
     inkscape:cy="383.5"
     inkscape:window-x="65"
     inkscape:window-y="24"
     inkscape:window-maximized="1"
     inkscape:current-layer="layer4" /><style
     type="text/css"
     id="style3">
	.st0{fill:none;stroke:#666666;stroke-miterlimit:10;stroke-dasharray:2,4;}
	.st1{fill:none;stroke:#666666;stroke-miterlimit:10;}
	.st2{fill:none;stroke:#666666;stroke-miterlimit:10;stroke-dasharray:1.9888,3.9775;}
	.st3{fill:#FF961C;}
	.st4{fill:#F07A1A;}
	.st5{fill:#1C75F7;}
	.st6{fill:#FF961C;stroke:#F07A1A;stroke-width:2;stroke-miterlimit:10;}
	.st7{fill:#F07A1A;stroke:#F07A1A;stroke-miterlimit:10;}
</style><path
     class="st0"
     d="M543.2,0L543.2,0c0,51.2,41.5,92.8,92.8,92.8h271.3c51.2,0,92.8,41.5,92.8,92.8v133.1  c0,51.2,41.5,92.8,92.8,92.8h272.3"
     id="path5" /><g
     id="g7"><g
       id="g9"><line
         class="st1"
         x1="223.6"
         y1="768"
         x2="223.6"
         y2="767"
         id="line11" /><path
         class="st2"
         d="M223.6,763V509.7c0-41.7-33.8-75.5-75.5-75.5H3"
         id="path13" /><line
         class="st1"
         x1="1"
         y1="434.2"
         x2="0"
         y2="434.2"
         id="line15" /></g></g><path
     class="st3"
     d="M166.8,768c0,0,2.3-11.2,8.7-23.2s7-2.7,23.3-13.4s14.6-14.2,26.5-25.7s29.2-23.2,16.9-27.6  c-12.8-4.5-28.5,27.1-41.5,22c0,0,15.2-29.2,21.8-40.9c6.6-11.6,19.8-26.9,19.3-38.7c-0.1-2.5-5.1-5.1-9.2,0.5  c-12.3,16.8-32.6,46.1-35.9,44.5c-4.9-2.4,14.4-42.9,19.7-59.7c1.9-6-5-10.3-9.1-3.7c-13.9,21.8-24.9,53.7-28.6,52.1  c-2-0.9,6.8-38.5,7.1-55.1c0.1-3-7.3-4.8-9.1-0.6c-5.9,13.2-11.6,49.4-20.7,60.2c-10.3,12.3,5.8-44.5-4-43.5  c-9.8,1-9.5,30.3-15.6,52c-6,21.8-7.2,28.1-4,42.3c3.2,14.2,5.7,9.3,1.7,24.8c-3.9,15.5-15.9,33.6-15.9,33.6H166.8z"
     id="path17" /><g
     id="g19"><path
       class="st4"
       d="M133.7,205.1c0,0,5.5-4.2,15.5-3.4c9.7,0.7,29.8,2.2,35.2,2.2c4.5,0,21,12.7,23,16c3,5,9.7,20.1,8.4,26   c-1.2,5.3-9,1.3-11.5-3.2c-2.8-4.9-4.8-12.9-4.8-12.9l-18.2-12.9l-22.5,1.2L133.7,205.1"
       id="path21" /><path
       class="st4"
       d="M159.7,201.6c3.2-3.1,36.2-3.9,39.9-2.9c5.6,1.5,21,4.6,24.1,9.7c2.8,4.6-5.5,7.2-10.5,5.7   c-5.4-1.6-12.4-2.8-12.4-2.8l-22,0.1l-42.5,24.5L159.7,201.6z"
       id="path23" /><path
       class="st5"
       d="M126.2,228.9l76.4,62.4l15.5,2.1l-5.4-14.5l-76.4-62.4C136.3,216.5,126.4,217.5,126.2,228.9z"
       id="path25" /><path
       class="st3"
       d="M0,274.9c0,0,70.4-10.3,85.8-25.7s31-34.9,36.5-41c6.2-6.9,14.6-3.8,21-2.4s29.5,5.2,36.7,7.8   s12.2,19.7,12.7,26.2c0,0-9.6,33-13.6,25.9s-2.7-25.9-2.7-25.9l-6-9.5c0,0-20.4-7.2-26.1,4.7c-5.8,11.9-12.5,17.8-4,27.7   c8.4,9.9,18.2,10.6,34.2,11c9.3,0.2,19.1,6.3,23.8,15.2c5.1,9.6-15.9,4.4-28.8,1s-29.8,4.6-47.1-2.9c-17.2-7.4-61.6,17.9-88.5,36.1   C7,341.1,0,342.8,0,342.8V274.9z"
       id="path27" /><path
       class="st5"
       d="M126.2,228.9l31.8,24.8l10.1-11.4l-31.8-25.8C136.3,216.5,126.4,217.5,126.2,228.9z"
       id="path29" /></g><g
     id="g31"><path
       class="st3"
       d="M1366,476.2c0,0-74-31.9-85-39.9s-1.7-7.3-10-24.9c-8.2-17.7-12-16.5-21.8-29.9c-9.8-13.4-18.9-32.2-24.9-20.6   c-6.2,12,22.8,32,16,44.2c0,0-26.8-19.1-37.4-27.4c-10.6-8.2-23.9-23.4-35.6-24.6c-2.5-0.3-5.7,4.3-0.7,9.2   c14.9,14.6,41,38.8,39,41.7c-3.1,4.5-40.4-20.3-56.3-27.9c-5.7-2.7-10.9,3.5-5,8.5c19.6,16.9,49.7,32.2,47.5,35.6   c-1.2,1.9-37.1-12.1-53.5-14.8c-3-0.5-5.8,6.5-1.9,8.9c12.3,7.7,47.3,18.4,56.7,28.9c10.7,11.9-43.2-12-43.6-2.1   s28.6,13.7,49.3,22.7c20.7,9,26.8,11.1,41.3,9.9c14.5-1.1,10-4.3,24.8,1.8c14.8,6.1,101.1,65.3,101.1,65.3V476.2z"
       id="path33" /><path
       class="st5"
       d="M1275.6,481.5l11.4,7c0,0,10-3.4,17.8-17s1.7-22.1,1.7-22.1l-8.9-4.2c0,0,3.2,10.2-5.4,23.8   C1283.5,482.6,1275.6,481.5,1275.6,481.5z"
       id="path35" /></g><g
     id="g37"><path
       class="st3"
       d="M1220.1,767c0,0-25.1-99.1-28.2-115.8c-4.1-21.6,13.4-38.1,15-53.1c1.6-15,2-30.2-8-40.1s-17.5-1.5-17.5-1.5   s-10.2-16.2-21.1-4.7c0,0-17.9-19-23.8-0.5c0,0-18.1-15.3-25,0.4c-3.6,8.1-9.2,40.3-5.3,58.5c3.8,17.6,5.6,25,23.3,36.6   c13.2,8.6,28.2,108.7,27.7,120.3H1220.1z"
       id="path39" /><path
       class="st3"
       d="M1163.2,556.5c0,0-8.5,37.7,0.5,39s12.2-15,14-33.6L1163.2,556.5z"
       id="path41" /><path
       class="st4"
       d="M1115.2,568.2c0,0-6.5,20.9-2.3,31.9c0,0,12.5-6.8,30.9,4.7c13.1,8.1,15.7,20.9,15.7,20.9s-1.8-7.5,16.3-17.2   c12.4-6.6,26.7-12.6,18.6-31.3C1184.4,553.7,1122.9,556.6,1115.2,568.2z"
       id="path43" /><path
       class="st3"
       d="M1180.4,558.5c0.3-2.7-6.6,17.8-4.8,28.4c0.6,3.6,9.7,6,11.1,3.6c4.4-7.2,4.3-10,6.2-28.6L1180.4,558.5z"
       id="path45" /><path
       class="st3"
       d="M1159,554.8c-0.8-2.3-2.2,27.3,0.5,34c1.3,3.3,8.8,3.6,10.5,1c3.7-5.8,3.4-17.3,7.5-31.3L1159,554.8z"
       id="path47" /><path
       class="st3"
       d="M1137.8,553.8c0,0,0,36.5,9,36.6c11.3,0.1,8.5-16,10.4-34.6L1137.8,553.8z"
       id="path49" /><path
       class="st3"
       d="M1117.1,553.8c0,0,0,39.5,9,39.6c11.3,0.1,8.5-19,10.4-37.6L1117.1,553.8z"
       id="path51" /><path
       class="st6"
       d="M1112.9,600.1l21.6-27.5c0,0,15.3-7.4,28-7.4c9.8,0,9.5,8.1,1.5,13c-9.5,5.8-17.5,7.6-17.5,7.6l-2.6,18.9"
       id="path53" /></g><g
     id="g55"><path
       class="st3"
       d="M1366.2,255.4c0,0-53.8-3.3-69-12.3c-15.2-9-10.5-8.1-22.1-18.3c-16.2-14.3-51.7-20.5-51.7-20.5   c-11.8,2.9-19.3,14.1-14.7,20.1c0,0-18.6,7.1-12.3,17.9c0,0-15.2,16.9-4.2,21.9c5.3,2.5-64.7-7.8-69.9-0.7c-5.2,7.1-0.1,8.7,5.8,11   c9,3.4,55.4,8.8,62.3,9.3s26.9,9.5,41.3,10.6c14.4,1.1,32.8,2.7,44.5-2.8c11.7-5.5,89.9,18.1,89.9,18.1V255.4z"
       id="path57" /><path
       class="st7"
       d="M1207.1,277.2c5.4,3.3,19.9,4.5,19.9,4.5l15.2-15.9c0,0,12.9-10.3,28.6-8.1c0,0-7.8-28.5-22.5-37.4   c-14.7-8.8-23.7-5.3-23.7-5.3s-15.1,16-16.5,26.6C1207.2,249.2,1193.9,269.2,1207.1,277.2z"
       id="path59" /><path
       class="st3"
       d="M1213.7,226.9c-2.5-1,15.5,10.8,26.3,11.8c3.6,0.3,8.2-7.9,6.2-9.9c-5.8-6-8.6-6.7-26.1-13.2L1213.7,226.9z"
       id="path61" /><path
       class="st3"
       d="M1201.8,245.9c-0.8,1.7,27.6,10.5,34.7,9.6c3.5-0.4,5.7-7.6,3.6-9.9c-4.7-5-16.1-6.6-30.4-15.6L1201.8,245.9z"
       id="path63" /><path
       class="st3"
       d="M1194,263.5c-2.4,0.1,26,8.7,33,8.1c3.4-0.3,5.4-6.6,3.2-8.6c-4.8-4.6-16-7.2-28.7-14.2L1194,263.5z"
       id="path65" /><path
       class="st6"
       d="M1227.5,283l-14-18.4c0,0-3.3-16.7-0.1-28.9c2.5-9.5,10.2-7.2,12.9,1.8c3.2,10.7,3,18.8,3,18.8l17.7,7.3"
       id="path67" /></g><g
     id="g69"><path
       class="st3"
       d="M0,577.9c0,0,50.7-39.4,68-42.8c17.3-3.4,13.5,1.4,28.7-1.1s44.8-9.9,51.6-19.9c6.9-10,5.6-22.6-1.8-24   c0,0,10.5-17.4-1.3-21.2c0,0,53.1-22.4,58.9-28.6s2.9-12.2-4.6-12.9c-7.6-0.7-62.2,25.4-67.1,22.1c-4.9-3.3,40.3-47.2,39.4-56   c-0.9-8.8-6.6-8.1-11.7-4.3c-5.1,3.8-38.5,39.7-44,43.9c-5.5,4.2-21.9,11.4-33.4,20.2s-26.3,19.8-31.4,31.7S0,518.2,0,518.2   L0,577.9z"
       id="path71" /><path
       class="st7"
       d="M109.4,448c-6.2,1.2-19.5,14.3-19.5,14.3l1.4,23.1c0,0,1.2,15.5-13.3,21.4c0,0,24.8,16.1,41.7,12.9   s16.7-11.8,16.7-11.8s0.2-25.2-2.3-33.5C131.8,467,124.5,445.2,109.4,448z"
       id="path73" /><path
       class="st3"
       d="M142.2,491.8c0,0-27.6,2.3-27.7,12.6c-0.2,10.2,35.7,1.2,35.7,1.2L142.2,491.8z"
       id="path75" /><path
       class="st3"
       d="M137.1,471.7c0,0-32.6,6.4-33.6,17.1c-1,10.7,40.3-1.4,40.3-1.4L137.1,471.7z"
       id="path77" /><path
       class="st6"
       d="M89,463l20.5,1.8c0,0,13.7,10,19.8,21.1c4.7,8.7-2.6,12.2-10.7,7.5c-9.6-5.6-15-11.8-15-11.8l-13,5.2"
       id="path79" /></g><g
     inkscape:groupmode="layer"
     id="layer1"
     inkscape:label="Manos" /><g
     inkscape:groupmode="layer"
     id="layer2"
     inkscape:label="Uchile" /><g
     inkscape:groupmode="layer"
     id="layer3"
     inkscape:label="Logo"><g
       id="g3068"
       transform="translate(430.85,242.40168)"><path
         d="m 221.6,95.9 c -1.4,-43.8 -41,-77.3 -88.5,-76.4 -11.3,0.2 -25,2 -37.5,8.2 -13.1,6.5 -26.2,17.7 -35.6,33.8 -3.4,5.8 -6,12.1 -7.8,18.7 -0.7,1.2 -1.5,2.5 -2.5,3.8 -8.9,11.8 -24.5,9.5 -24.5,9.5 0,25.4 28.6,29.5 28.6,29.5 11.3,32.9 45.2,56.2 84.5,54.9 47.4,-1.5 84.8,-38.3 83.3,-82 z"
         class="st0"
         id="XMLID_181_"
         inkscape:connector-curvature="0"
         style="fill:#ff4a0f" /><path
         d="M 72.7,119.9 C 77.8,88.2 108,67 142.4,72.5 c 8.6,1.4 16.5,4.3 23.4,8.4 6.5,3.9 17.4,14.3 21.4,20.5 2.3,3.3 3.6,6 4.5,8.5 1.9,4.6 3.3,9.4 3.9,14.3 0.4,1 0.9,1.9 1.5,3 8,14.8 19,5 19,5 -4.3,23 -25.5,30.1 -25.5,30.1 -11.3,22.9 -38.1,29.6 -66.6,25 -34.5,-5.6 -56.4,-35.7 -51.3,-67.4 z"
         class="st1"
         id="XMLID_180_"
         inkscape:connector-curvature="0"
         style="fill:#ffffff" /><path
         d="m 130.9,192 c 0,0 11.5,24.8 19.1,20.1 7.6,-4.7 -10.1,-24.6 -10.1,-24.6 l -9,4.5 z"
         class="st2"
         id="XMLID_179_"
         inkscape:connector-curvature="0"
         style="fill:#f07a1a" /><path
         d="m 139.2,185.1 c 0,0 14.3,21.3 19.6,17.2 7.1,-5.5 -9,-21 -9,-21 l -10.6,3.8 z"
         class="st2"
         id="XMLID_178_"
         inkscape:connector-curvature="0"
         style="fill:#f07a1a" /><path
         d="m 121.9,199.9 c 0,0 11.2,19 17.3,15.4 5.9,-3.4 -10.5,-23.3 -10.5,-23.3 l -6.8,7.9 z"
         class="st2"
         id="XMLID_177_"
         inkscape:connector-curvature="0"
         style="fill:#f07a1a" /><path
         d="m 80.7,124.8 c 4.5,-28.1 32.9,-46.9 63.4,-42 7.6,1.2 14.5,3.9 20.8,7.4 6.3,3.6 15.5,12.6 19,18.2 2.1,2.9 3.2,5.4 4,7.6 1.7,4 2.9,8.3 3.5,12.7 0.4,0.8 0.8,1.7 1.3,2.7 7.1,13.1 16.8,9.2 16.8,9.2 -6.7,12.5 -22.6,15.6 -22.6,15.6 -10,20.3 -33.8,32.5 -59,28.4 -30.7,-4.9 -51.7,-31.7 -47.2,-59.8 z"
         class="st3"
         id="XMLID_176_"
         inkscape:connector-curvature="0"
         style="fill:#1c75f7" /><path
         d="m 78,252.1 c 0,0 3.5,3.7 12.4,7.2 12.4,4.9 19,4.4 19,4.4 0,0 1.9,-12.8 5,-17.9 3.1,-5.1 8.6,-6.6 11.6,-14.6 5.2,-13.6 1,-18.1 6.2,-30.7 3.8,-9.3 11.6,-14.9 13.8,-23.9 1.9,-7.8 -5.5,-11.6 -10.6,-7.8 -6.6,4.9 -11,15.1 -11,15.1 -17.7,-3.8 -27.9,-14.4 -27.9,-14.4 0,0 -13.3,13.5 -15.6,18.1 -2.3,4.6 3.9,29.2 4.2,39.2 0.3,9 -4.6,19.3 -7.1,25.3 z"
         class="st4"
         id="XMLID_175_"
         inkscape:connector-curvature="0"
         style="fill:#ff961c" /><path
         d="m 124.4,183.8 c 0,0 -3,5.9 -8.5,12.7 0,0 -6.9,-4.1 -4.3,-11 0.7,-2 1.8,-5.3 1.8,-5.3 6.1,2.8 10.5,3.4 11,3.6 z"
         class="st2"
         id="XMLID_174_"
         inkscape:connector-curvature="0"
         style="fill:#f07a1a" /><g
         id="XMLID_54_"><g
           id="g3079"><path
             d="m 230.4,153.3 v 25.3 h 11 c 10.3,0 17,-7.7 17,-17.6 0,-9.9 -6.6,-17.7 -16.9,-17.7 h -11 v 0 h -3 v -2.8 h 14.1 c 12.2,0 19.8,9.2 19.8,20.4 0,11.4 -7.6,20.4 -19.8,20.4 h -14.1 v -28 h 2.9 z"
             class="st5"
             id="XMLID_378_"
             inkscape:connector-curvature="0"
             style="fill:#404040" /><path
             d="m 270.3,141.3 c 0.9,0 1.9,0.7 1.9,2 0,1.2 -0.9,1.9 -1.9,2 -1,0.1 -2,-0.6 -2,-2 0.1,-1.4 1.1,-2 2,-2 z m 1.4,40 H 269 v -28 h 2.7 v 28 z"
             class="st5"
             id="XMLID_375_"
             inkscape:connector-curvature="0"
             style="fill:#404040" /><path
             d="m 281.2,173.6 c 0.5,4.1 5.1,6 9.6,6 4.6,0 9.3,-1.9 9.3,-5.9 0,-4.8 -5.5,-5.2 -9.3,-5.7 -5.6,-0.6 -11.6,-1.6 -11.6,-7.4 0,-5.8 5.6,-8 11.4,-8 5.8,0 11.4,2.4 11.4,7.4 h -2.6 c 0,-3.5 -4.4,-5.1 -8.8,-5.1 -4.3,0 -9.2,1.6 -8.9,5.6 0,4.3 6.1,4.7 9.4,5 5.8,0.8 11.8,1.8 11.6,8.1 0,5.6 -5.7,8.2 -12.1,8.2 -6,0 -11.7,-2.3 -12.3,-8.3 h 2.9 z"
             class="st5"
             id="XMLID_373_"
             inkscape:connector-curvature="0"
             style="fill:#404040" /><path
             d="m 332.7,160.9 c -1.8,-4 -5.7,-5.9 -9.8,-5.9 -6,0 -12.2,4.1 -12.2,12.1 0,8 6.1,12.1 12,12.1 4.3,0 8.5,-2.2 10.3,-6.7 h 2.8 c -1.9,6.2 -7.6,9.2 -13.2,9.2 -7.2,0 -14.6,-5 -14.6,-14.6 0,-9.7 7.6,-14.6 14.9,-14.6 5.4,0.1 10.7,2.8 12.6,8.4 h -2.8 z"
             class="st5"
             id="XMLID_371_"
             inkscape:connector-curvature="0"
             style="fill:#404040" /><path
             d="m 344.5,153.2 v 17.1 c 0,5.6 3.7,9 9.2,9 5.6,0.1 8.9,-3.7 8.9,-9.5 v -16.6 h 2.8 v 21 c 0,4.5 0.5,5.4 3.6,5 l 0.1,2.3 c -4.3,0.6 -6.1,-0.1 -6.1,-4.6 -2.6,3.9 -5.4,5.1 -9.9,5.1 -7.1,0 -11.3,-4.9 -11.3,-11.7 v -17.1 h 2.7 z"
             class="st5"
             id="XMLID_369_"
             inkscape:connector-curvature="0"
             style="fill:#404040" /><path
             d="m 375.5,173.6 c 0.5,4.1 5.1,6 9.6,6 4.6,0 9.3,-1.9 9.3,-5.9 0,-4.8 -5.5,-5.2 -9.3,-5.7 -5.6,-0.6 -11.6,-1.6 -11.6,-7.4 0,-5.8 5.6,-8 11.4,-8 5.8,0 11.4,2.4 11.4,7.4 h -2.6 c 0,-3.5 -4.4,-5.1 -8.8,-5.1 -4.3,0 -9.2,1.6 -8.9,5.6 0,4.3 6.1,4.7 9.4,5 5.8,0.8 11.8,1.8 11.6,8.1 0,5.6 -5.7,8.2 -12.1,8.2 -6,0 -11.7,-2.3 -12.3,-8.3 h 2.9 z"
             class="st5"
             id="XMLID_367_"
             inkscape:connector-curvature="0"
             style="fill:#404040" /><path
             d="m 405.6,141.3 c 0.9,0 1.9,0.7 1.9,2 0,1.2 -0.9,1.9 -1.9,2 -1,0.1 -2,-0.6 -2,-2 0,-1.4 1,-2 2,-2 z m 1.3,40 h -2.7 v -28 h 2.7 v 28 z"
             class="st5"
             id="XMLID_364_"
             inkscape:connector-curvature="0"
             style="fill:#404040" /><path
             d="m 413.8,167.2 c 0,-19.4 29.5,-19.4 29.5,0 0,19.3 -29.5,19.3 -29.5,0 z m 26.7,0 c 0,-16.1 -23.9,-16.1 -23.9,0 0,15.9 23.9,16 23.9,0 z m -13.5,-20.6 4.6,-7.1 2.3,1.1 v 0.3 l -4.6,5.9 H 427 v -0.2 z"
             class="st5"
             id="XMLID_360_"
             inkscape:connector-curvature="0"
             style="fill:#404040" /><path
             d="m 446.8,153 c 4.2,-1 6.4,1.1 6.4,4 v 1.3 c 2,-4.2 5.9,-5.7 10.4,-5.7 7.1,0 11.4,5.1 11.4,11.8 v 10.8 c 0,3 0.5,4.6 3.8,4 v 2.2 c -5,0.9 -6.6,-0.9 -6.6,-5.9 v -11.1 c 0,-5.6 -3.9,-9.4 -9.2,-9.4 -5.5,0 -9.5,3.9 -9.5,9.6 v 16.7 h -2.8 V 161 c 0,-4.7 0.2,-6.4 -3.7,-5.9 l -0.2,-2.1 z"
             class="st5"
             id="XMLID_358_"
             inkscape:connector-curvature="0"
             style="fill:#404040" /><path
             d="m 231.2,224.6 -5.5,11.8 h -3.1 V 236 l 19.1,-40.6 h 1.3 l 19,40.6 v 0.4 h -3 l -5.5,-11.8 h -22.3 z m 1,-2.6 h 20.3 L 242.4,200.2 232.2,222 z"
             class="st5"
             id="XMLID_355_"
             inkscape:connector-curvature="0"
             style="fill:#404040" /><path
             d="m 267.2,194.1 h 2.6 v 20.4 c 1.6,-3.6 5.3,-6.7 10.7,-6.7 6.8,0 13.1,4.8 12.8,14.9 -0.3,9.6 -6.7,14.5 -15.4,14.5 -3.9,0 -7.4,-1.1 -10.9,-2.6 v -40.5 z m 2.7,38.6 c 2.8,1.2 5.6,1.9 8.3,1.9 7.2,0 12.1,-4.4 12.3,-12 0.2,-8.4 -4.3,-12.4 -10.4,-12.4 -6.9,0 -10.2,6.6 -10.2,12.4 v 10.1 z"
             class="st5"
             id="XMLID_352_"
             inkscape:connector-curvature="0"
             style="fill:#404040" /><path
             d="m 301.9,196.4 c 0.9,0 1.9,0.7 1.9,2 0,1.2 -0.9,1.9 -1.9,2 -1,0.1 -2,-0.6 -2,-2 0.1,-1.3 1,-2 2,-2 z m 1.4,40 h -2.7 v -28 h 2.7 v 28 z"
             class="st5"
             id="XMLID_349_"
             inkscape:connector-curvature="0"
             style="fill:#404040" /><path
             d="m 335,234.9 c -3.1,1.3 -6.4,1.9 -9.6,1.9 -10.3,0 -16.2,-6.4 -15.1,-16.6 0.9,-7.9 6.5,-12.5 14.4,-12.6 5.5,0 12.2,2.8 11.6,9.2 -0.5,5.8 -6.4,7.8 -11.3,7.8 -4,0 -9,-0.9 -12.1,-3.4 -0.8,8.1 4.3,13 12.7,13 3.1,0 6.5,-0.6 9.5,-2 v 2.7 z m -10.4,-12.8 c 3.7,0 8.5,-1.1 8.8,-5.4 0.5,-4.7 -4.7,-6.5 -8.8,-6.5 -5.9,-0.1 -10.3,2.8 -11.4,8.6 2.6,2.4 7.7,3.3 11.4,3.3 z"
             class="st5"
             id="XMLID_346_"
             inkscape:connector-curvature="0"
             style="fill:#404040" /><path
             d="m 355.2,207.7 c 2.7,0.1 5.3,0.9 7.2,2.2 l -1,2.5 c -1.8,-1.3 -4.1,-1.9 -6.4,-1.9 -4.2,0 -8.2,3 -8.2,7.8 v 18.2 H 344 v -21.7 c 0,-2.7 -0.1,-4.5 -3.6,-4 l -0.1,-2.4 c 4.5,-0.8 6.4,0.4 6.4,3.7 1.7,-3.4 5.2,-4.6 8.5,-4.4 z"
             class="st5"
             id="XMLID_344_"
             inkscape:connector-curvature="0"
             style="fill:#404040" /><path
             d="M 375.1,208.3 H 386 v 2.3 h -10.9 v 15.2 c 0,8.6 4.1,10.2 11.9,7.4 l 0.4,2.5 c -9.6,3.3 -15.1,0.5 -15.1,-9.7 v -15.2 l -6.4,-0.2 v -2.2 h 6.4 l 0.2,-8.6 h 2.6 v 8.5 z"
             class="st5"
             id="XMLID_342_"
             inkscape:connector-curvature="0"
             style="fill:#404040" /><path
             d="m 416.1,229.6 c 0,3 -0.1,4.8 3.6,4.3 l 0.1,2.5 c -4.6,0.7 -6.1,-1.1 -6.1,-5.2 v -1.4 c -2.1,4.7 -6.2,6.9 -11.1,6.9 -8.5,0 -12.8,-6.8 -12.8,-14.7 0.2,-9 6.4,-14.3 15.4,-14.3 3.8,0 7.4,1 10.9,2.6 v 19.3 z m -2.6,-17.5 c -2.7,-1.3 -5.7,-2 -8.3,-2 -7.2,0 -12.3,4.4 -12.5,12 0,6.5 3.6,12.1 10.4,12.1 6.5,0 10.3,-4.9 10.3,-11.9 v -10.2 z"
             class="st5"
             id="XMLID_339_"
             inkscape:connector-curvature="0"
             style="fill:#404040" /></g></g></g><g
       id="g3353"
       transform="translate(340.02532,-201.64013)"><g
         id="g3134"><polygon
           id="polygon3136"
           points="-196.3,355.9 -202.2,363 -220,358 -216.9,356.1 -198.5,355.4 "
           class="st0"
           style="fill:none;stroke:#999999;stroke-width:0.65060002;stroke-linejoin:round;stroke-miterlimit:10" /><polygon
           id="polygon3138"
           points="-196.3,358.5 -202.2,366.3 -202.2,363 -196.3,355.9 "
           class="st1"
           style="fill:none;stroke:#999999;stroke-width:0.65060002;stroke-linecap:round;stroke-linejoin:round;stroke-miterlimit:10" /><polygon
           id="polygon3140"
           points="-219.3,360.7 -202.2,366.3 -202.2,363 -219.3,358.3 "
           class="st1"
           style="fill:none;stroke:#999999;stroke-width:0.65060002;stroke-linecap:round;stroke-linejoin:round;stroke-miterlimit:10" /><polygon
           id="polygon3142"
           points="-217.7,355.2 -212.8,352.1 -198.8,353.8 -203.5,358.3 "
           class="st2"
           style="fill:#ffffff;stroke:#999999;stroke-width:0.65060002;stroke-linejoin:round;stroke-miterlimit:10" /><polygon
           id="polygon3144"
           points="-198.5,355.9 -203.5,361 -203.5,358.3 -198.5,353.8 "
           class="st3"
           style="fill:#ffffff;stroke:#999999;stroke-width:0.65060002;stroke-linecap:round;stroke-linejoin:round;stroke-miterlimit:10" /><polygon
           id="polygon3146"
           points="-216.9,357.6 -203.5,361 -203.5,358.3 -216.9,355.4 "
           class="st3"
           style="fill:#ffffff;stroke:#999999;stroke-width:0.65060002;stroke-linecap:round;stroke-linejoin:round;stroke-miterlimit:10" /><path
           id="path3148"
           d="m -209.5,343.7 c 0,0 -0.3,-0.9 -0.3,-1.7 0,-0.8 1.1,-2.2 1.1,-2.2 0,0 -0.1,1.1 0.5,1.1 0.7,0 0.7,-0.7 0.5,-1.1 -0.3,-0.4 -1,-1.4 -1,-1.4 0,0 2.5,0.5 2.5,2 0,1.5 -0.9,1.4 -0.7,1.9 0.2,0.5 0.7,-0.4 1,-0.1 0.3,0.3 0,1.5 0,1.5 l -1.9,0.6 -1.7,-0.6 z"
           class="st2"
           inkscape:connector-curvature="0"
           style="fill:#ffffff;stroke:#999999;stroke-width:0.65060002;stroke-linejoin:round;stroke-miterlimit:10" /><path
           id="path3150"
           d="m -198.8,374.3 c 0,0 -17.7,0 -20.1,0 -2.4,0 -4,2 -4,2 0,0 -1.6,-2 -4,-2 -1.9,0 -20.1,0 -20.1,0 -4.4,0 -7.9,-3.5 -7.9,-7.9 v -76.9 h 63.9 v 76.8 c 0.1,4.4 -3.4,8 -7.8,8 z"
           class="st4"
           inkscape:connector-curvature="0"
           style="fill:none;stroke:#999999;stroke-miterlimit:10" /><polygon
           id="polygon3152"
           points="-219.8,260.2 -212.9,261.2 -217.9,266 -216.7,272.8 -222.8,269.6 -228.9,272.8 -227.8,266 -232.7,261.2 -225.9,260.2 -222.8,254 "
           class="st4"
           style="fill:none;stroke:#999999;stroke-miterlimit:10" /><polygon
           id="polygon3154"
           points="-220.8,261.6 -216.4,262.2 -219.6,265.4 -218.8,269.8 -222.8,267.7 -226.8,269.8 -226,265.4 -229.3,262.2 -224.8,261.6 -222.8,257.6 "
           class="st5"
           style="fill:none;stroke:#999999;stroke-width:0.65060002;stroke-miterlimit:10" /><line
           id="line3156"
           y2="287.89999"
           x2="-222.8"
           y1="276.89999"
           x1="-222.8"
           class="st5"
           style="fill:none;stroke:#999999;stroke-width:0.65060002;stroke-miterlimit:10" /><line
           id="line3158"
           y2="252"
           x2="-222.8"
           y1="236.3"
           x1="-222.8"
           class="st5"
           style="fill:none;stroke:#999999;stroke-width:0.65060002;stroke-miterlimit:10" /><line
           id="line3160"
           y2="264.20001"
           x2="-205.5"
           y1="264.20001"
           x1="-210.60001"
           class="st5"
           style="fill:none;stroke:#999999;stroke-width:0.65060002;stroke-miterlimit:10" /><line
           id="line3162"
           y2="264.20001"
           x2="-235.10001"
           y1="264.20001"
           x1="-240.2"
           class="st5"
           style="fill:none;stroke:#999999;stroke-width:0.65060002;stroke-miterlimit:10" /><line
           id="line3164"
           y2="253.8"
           x2="-208.89999"
           y1="256.89999"
           x1="-213"
           class="st5"
           style="fill:none;stroke:#999999;stroke-width:0.65060002;stroke-miterlimit:10" /><line
           id="line3166"
           y2="271.5"
           x2="-232.7"
           y1="274.60001"
           x1="-236.8"
           class="st5"
           style="fill:none;stroke:#999999;stroke-width:0.65060002;stroke-miterlimit:10" /><line
           id="line3168"
           y2="247.7"
           x2="-217.3"
           y1="252.60001"
           x1="-219"
           class="st5"
           style="fill:none;stroke:#999999;stroke-width:0.65060002;stroke-miterlimit:10" /><line
           id="line3170"
           y2="275.79999"
           x2="-226.8"
           y1="280.70001"
           x1="-228.39999"
           class="st5"
           style="fill:none;stroke:#999999;stroke-width:0.65060002;stroke-miterlimit:10" /><line
           id="line3172"
           y2="247.7"
           x2="-228.2"
           y1="252.5"
           x1="-226.60001"
           class="st5"
           style="fill:none;stroke:#999999;stroke-width:0.65060002;stroke-miterlimit:10" /><line
           id="line3174"
           y2="275.79999"
           x2="-219.10001"
           y1="280.70001"
           x1="-217.5"
           class="st5"
           style="fill:none;stroke:#999999;stroke-width:0.65060002;stroke-miterlimit:10" /><line
           id="line3176"
           y2="253.8"
           x2="-236.8"
           y1="256.79999"
           x1="-232.7"
           class="st5"
           style="fill:none;stroke:#999999;stroke-width:0.65060002;stroke-miterlimit:10" /><line
           id="line3178"
           y2="271.60001"
           x2="-213.10001"
           y1="274.60001"
           x1="-209"
           class="st5"
           style="fill:none;stroke:#999999;stroke-width:0.65060002;stroke-miterlimit:10" /><line
           id="line3180"
           y2="254.7"
           x2="-230.5"
           y1="241.89999"
           x1="-240.2"
           class="st5"
           style="fill:none;stroke:#999999;stroke-width:0.65060002;stroke-miterlimit:10" /><line
           id="line3182"
           y2="287.39999"
           x2="-205.8"
           y1="274.60001"
           x1="-215.5"
           class="st5"
           style="fill:none;stroke:#999999;stroke-width:0.65060002;stroke-miterlimit:10" /><line
           id="line3184"
           y2="260.60001"
           x2="-234.8"
           y1="255.39999"
           x1="-250"
           class="st5"
           style="fill:none;stroke:#999999;stroke-width:0.65060002;stroke-miterlimit:10" /><line
           id="line3186"
           y2="274"
           x2="-196"
           y1="268.79999"
           x1="-211.2"
           class="st5"
           style="fill:none;stroke:#999999;stroke-width:0.65060002;stroke-miterlimit:10" /><line
           id="line3188"
           y2="268.79999"
           x2="-234.8"
           y1="274.10001"
           x1="-249.89999"
           class="st5"
           style="fill:none;stroke:#999999;stroke-width:0.65060002;stroke-miterlimit:10" /><line
           id="line3190"
           y2="255.2"
           x2="-196.10001"
           y1="260.60001"
           x1="-211.2"
           class="st5"
           style="fill:none;stroke:#999999;stroke-width:0.65060002;stroke-miterlimit:10" /><line
           id="line3192"
           y2="274.70001"
           x2="-230.39999"
           y1="287.70001"
           x1="-239.89999"
           class="st5"
           style="fill:none;stroke:#999999;stroke-width:0.65060002;stroke-miterlimit:10" /><line
           id="line3194"
           y2="241.7"
           x2="-206.10001"
           y1="254.60001"
           x1="-215.60001"
           class="st5"
           style="fill:none;stroke:#999999;stroke-width:0.65060002;stroke-miterlimit:10" /><rect
           id="rect3196"
           height="38.299999"
           width="27.700001"
           class="st5"
           y="292.10001"
           x="-251.89999"
           style="fill:none;stroke:#999999;stroke-width:0.65060002;stroke-miterlimit:10" /><rect
           id="rect3198"
           height="38.299999"
           width="27.700001"
           class="st5"
           y="292.10001"
           x="-221.60001"
           style="fill:none;stroke:#999999;stroke-width:0.65060002;stroke-miterlimit:10" /><path
           id="path3200"
           d="m -224.2,372.2 c 0,0 -0.8,-1 -4,-1 -2.4,0 -18.8,0 -18.8,0 -2.7,0 -5,-2.2 -5,-5 v -33.3 h 27.7 l 0.1,39.3 0,0 z"
           class="st5"
           inkscape:connector-curvature="0"
           style="fill:none;stroke:#999999;stroke-width:0.65060002;stroke-miterlimit:10" /><path
           id="path3202"
           d="m -198.9,371.2 c 0,0 -15.6,0 -18.8,0 -3.1,0 -4,1 -4,1 v -39.3 h 27.7 v 33.3 c 0.1,2.7 -2.1,5 -4.9,5 z"
           class="st5"
           inkscape:connector-curvature="0"
           style="fill:none;stroke:#999999;stroke-width:0.65060002;stroke-miterlimit:10" /><polygon
           id="polygon3204"
           points="-245.6,337.1 -243.7,337.1 -245.2,338.2 -244.6,340.1 -246.2,338.9 -247.7,340.1 -247.1,338.2 -248.6,337.1 -246.7,337.1 -246.2,335.3 "
           class="st6"
           style="fill:none;stroke:#999999;stroke-width:0.5;stroke-miterlimit:10" /><line
           id="line3206"
           y2="350.89999"
           x2="-241.60001"
           y1="342.20001"
           x1="-244.8"
           class="st6"
           style="fill:none;stroke:#999999;stroke-width:0.5;stroke-miterlimit:10" /><line
           id="line3208"
           y2="346.5"
           x2="-241.8"
           y1="341.89999"
           x1="-244.2"
           class="st6"
           style="fill:none;stroke:#999999;stroke-width:0.5;stroke-miterlimit:10" /><line
           id="line3210"
           y2="347"
           x2="-238.89999"
           y1="341.39999"
           x1="-243.5"
           class="st6"
           style="fill:none;stroke:#999999;stroke-width:0.5;stroke-miterlimit:10" /><line
           id="line3212"
           y2="344.20001"
           x2="-238.7"
           y1="340.79999"
           x1="-243"
           class="st6"
           style="fill:none;stroke:#999999;stroke-width:0.5;stroke-miterlimit:10" /><line
           id="line3214"
           y2="345.20001"
           x2="-234.3"
           y1="340.10001"
           x1="-242.5"
           class="st6"
           style="fill:none;stroke:#999999;stroke-width:0.5;stroke-miterlimit:10" /><circle
           id="circle3216"
           r="5.4000001"
           cy="352.39999"
           cx="-234.3"
           class="st6"
           sodipodi:cx="-234.3"
           sodipodi:cy="352.39999"
           sodipodi:rx="5.4000001"
           sodipodi:ry="5.4000001"
           style="fill:none;stroke:#999999;stroke-width:0.5;stroke-miterlimit:10"
           d="m -228.9,352.39999 c 0,2.98234 -2.41767,5.4 -5.4,5.4 -2.98234,0 -5.4,-2.41766 -5.4,-5.4 0,-2.98233 2.41766,-5.4 5.4,-5.4 2.98233,0 5.4,2.41767 5.4,5.4 z" /><path
           id="path3218"
           d="m -235.9,347.2 c 0,0 1.4,2.1 2.8,3.5 1.4,1.4 4.1,2.7 4.1,2.7"
           class="st6"
           inkscape:connector-curvature="0"
           style="fill:none;stroke:#999999;stroke-width:0.5;stroke-miterlimit:10" /><path
           id="path3220"
           d="m -232.7,357.6 c 0,0 -1.4,-2.1 -2.8,-3.5 -1.4,-1.4 -4.1,-2.7 -4.1,-2.7"
           class="st6"
           inkscape:connector-curvature="0"
           style="fill:none;stroke:#999999;stroke-width:0.5;stroke-miterlimit:10" /><line
           id="line3222"
           y2="348.39999"
           x2="-230.60001"
           y1="356.5"
           x1="-238.10001"
           class="st6"
           style="fill:none;stroke:#999999;stroke-width:0.5;stroke-miterlimit:10" /><path
           id="path3224"
           d="m -238.3,356 c 0,0 -0.5,-3.4 1.8,-5.7 2.3,-2.3 5.6,-2.2 5.6,-2.2"
           class="st6"
           inkscape:connector-curvature="0"
           style="fill:none;stroke:#999999;stroke-width:0.5;stroke-miterlimit:10" /><path
           id="path3226"
           d="m -230.3,348.9 c 0,0 0.5,3.4 -1.8,5.7 -2.3,2.3 -5.6,2.2 -5.6,2.2"
           class="st6"
           inkscape:connector-curvature="0"
           style="fill:none;stroke:#999999;stroke-width:0.5;stroke-miterlimit:10" /><path
           id="path3228"
           d="m -247.6,357.9 1.6,-7.2 c 0.1,-0.4 0.5,-0.8 1,-0.8 l 0,0 c 0.5,0 0.9,0.3 1,0.8 l 1.6,7.4"
           class="st6"
           inkscape:connector-curvature="0"
           style="fill:none;stroke:#999999;stroke-width:0.5;stroke-miterlimit:10" /><polyline
           id="polyline3230"
           points="-247.3,356.5 -246.5,355.5 -245.1,352.3 -244,355.4 -242.9,356.5  "
           class="st6"
           style="fill:none;stroke:#999999;stroke-width:0.5;stroke-miterlimit:10" /><path
           id="path3232"
           d="m -247.6,358.1 h 18.7 v 8.2 c -0.7,0 -1.3,-0.5 -1.3,-1.1 0,-1.5 -1.5,-1.4 -1.5,-1.4 0,-0.5 0,-3.5 0,-3.5 h -13.9 c 0,0 -0.1,-0.8 -1.2,-0.8 -0.8,-0.1 -0.8,-1.1 -0.8,-1.4 z"
           class="st6"
           inkscape:connector-curvature="0"
           style="fill:none;stroke:#999999;stroke-width:0.5;stroke-miterlimit:10" /><polygon
           id="polygon3234"
           points="-234.8,320.5 -237.4,322.5 -240,322.5 -242.8,320.5 "
           class="st1"
           style="fill:none;stroke:#999999;stroke-width:0.65060002;stroke-linecap:round;stroke-linejoin:round;stroke-miterlimit:10" /><path
           id="path3236"
           d="m -237.2,328.6 h -3.1 c -0.4,0 -0.7,-0.3 -0.7,-0.7 l 0,0 c 0,-0.4 0.3,-0.7 0.7,-0.7 h 3.1 c 0.4,0 0.7,0.3 0.7,0.7 l 0,0 c -0.1,0.4 -0.4,0.7 -0.7,0.7 z"
           class="st5"
           inkscape:connector-curvature="0"
           style="fill:none;stroke:#999999;stroke-width:0.65060002;stroke-miterlimit:10" /><polygon
           id="polygon3238"
           points="-240,322.5 -237.4,322.5 -237.2,327.3 -240.3,327.3 "
           class="st5"
           style="fill:none;stroke:#999999;stroke-width:0.65060002;stroke-miterlimit:10" /><path
           id="path3240"
           d="m -226.9,313.2 c -0.8,1.5 -2.3,2.5 -4.1,2.5 -1.8,0 -3.3,-1 -4.1,-2.4 l 8.2,-0.1 z"
           class="st5"
           inkscape:connector-curvature="0"
           style="fill:none;stroke:#999999;stroke-width:0.65060002;stroke-miterlimit:10" /><path
           id="path3242"
           d="m -242.3,313.2 c -0.8,1.5 -2.3,2.5 -4.1,2.5 -1.8,0 -3.3,-1 -4.1,-2.4 l 8.2,-0.1 z"
           class="st5"
           inkscape:connector-curvature="0"
           style="fill:none;stroke:#999999;stroke-width:0.65060002;stroke-miterlimit:10" /><polygon
           id="polygon3244"
           points="-240.3,306.7 -238.8,293.6 -237.4,306.5 -237.4,320.5 -240.3,320.5 "
           class="st1"
           style="fill:none;stroke:#999999;stroke-width:0.65060002;stroke-linecap:round;stroke-linejoin:round;stroke-miterlimit:10" /><line
           id="line3246"
           y2="295.79999"
           x2="-238.8"
           y1="320.5"
           x1="-238.8"
           class="st1"
           style="fill:none;stroke:#999999;stroke-width:0.65060002;stroke-linecap:round;stroke-linejoin:round;stroke-miterlimit:10" /><polygon
           id="polygon3248"
           points="-243,313.2 -250,313.2 -246.3,303.3 "
           class="st5"
           style="fill:none;stroke:#999999;stroke-width:0.65060002;stroke-miterlimit:10" /><polygon
           id="polygon3250"
           points="-227.7,313.2 -234.8,313.2 -231.1,303.3 "
           class="st5"
           style="fill:none;stroke:#999999;stroke-width:0.65060002;stroke-miterlimit:10" /><line
           id="line3252"
           y2="313.20001"
           x2="-246.3"
           y1="301.39999"
           x1="-246.3"
           class="st5"
           style="fill:none;stroke:#999999;stroke-width:0.65060002;stroke-miterlimit:10" /><line
           id="line3254"
           y2="313.20001"
           x2="-231"
           y1="301.39999"
           x1="-231"
           class="st5"
           style="fill:none;stroke:#999999;stroke-width:0.65060002;stroke-miterlimit:10" /><path
           id="path3256"
           d="m -237.9,301.7 h 9.2 c 0,0 0,-1.4 -0.4,-1.4 -0.4,0 -1.3,1.1 -1.3,1.1 l -8.3,-1.4"
           class="st5"
           inkscape:connector-curvature="0"
           style="fill:none;stroke:#999999;stroke-width:0.65060002;stroke-miterlimit:10" /><path
           id="path3258"
           d="m -239.6,301.7 h -9.2 c 0,0 0,-1.4 0.4,-1.4 0.4,0 1.3,1.1 1.3,1.1 l 8.3,-1.4"
           class="st5"
           inkscape:connector-curvature="0"
           style="fill:none;stroke:#999999;stroke-width:0.65060002;stroke-miterlimit:10" /><path
           id="path3260"
           d="m -224.8,322.9 c -5.6,1.3 -7.6,5.1 -7.6,9.1 0,4.2 2.5,8 6.4,9.2 6.7,2.1 12.8,-2.8 12.8,-9.1 0,-5.3 -4.2,-10.2 -9.6,-10.2 -1,0 -2,0.2 -2,1 0,0 1.3,-0.1 1.3,0.8 0,0.6 -0.7,0.9 -1,1 -0.1,0 0,0.1 0,0.1 0.1,0.4 1.3,0.4 3.2,0 0.4,-0.1 1.3,0.2 1.6,0.3"
           class="st7"
           inkscape:connector-curvature="0"
           style="fill:#ffffff;stroke:#999999;stroke-width:0.65060002;stroke-miterlimit:10" /><path
           id="path3262"
           d="m -219.8,325 c 2.7,1.2 4.6,3.9 4.6,7 0,4.2 -3.4,7.7 -7.7,7.7 -4.3,0 -7.7,-3.4 -7.7,-7.7 0,-3.6 2.5,-6.7 5.9,-7.5"
           class="st5"
           inkscape:connector-curvature="0"
           style="fill:none;stroke:#999999;stroke-width:0.65060002;stroke-miterlimit:10" /><polygon
           id="polygon3264"
           points="-216.2,335.9 -229.4,335.9 -222.8,325 "
           class="st1"
           style="fill:none;stroke:#999999;stroke-width:0.65060002;stroke-linecap:round;stroke-linejoin:round;stroke-miterlimit:10" /><path
           id="path3266"
           d="m -227.5,332.6 c 0,0 1.9,-1.8 4.7,-1.8 2.8,0 4.6,1.8 4.6,1.8 0,0 -2.1,1.9 -4.7,1.9 -2.5,0 -4.6,-1.9 -4.6,-1.9 z"
           class="st8"
           inkscape:connector-curvature="0"
           style="fill:none;stroke:#999999;stroke-width:0.65060002;stroke-linecap:round;stroke-linejoin:bevel;stroke-miterlimit:10" /><circle
           id="circle3268"
           r="1.8"
           cy="332.70001"
           cx="-222.8"
           class="st1"
           sodipodi:cx="-222.8"
           sodipodi:cy="332.70001"
           sodipodi:rx="1.8"
           sodipodi:ry="1.8"
           style="fill:none;stroke:#999999;stroke-width:0.65060002;stroke-linecap:round;stroke-linejoin:round;stroke-miterlimit:10"
           d="m -221,332.70001 c 0,0.99411 -0.80589,1.8 -1.8,1.8 -0.99412,0 -1.8,-0.80589 -1.8,-1.8 0,-0.99411 0.80588,-1.8 1.8,-1.8 0.99411,0 1.8,0.80589 1.8,1.8 z" /><circle
           id="circle3270"
           r="0.60000002"
           cy="332.70001"
           cx="-222.89999"
           class="st1"
           sodipodi:cx="-222.89999"
           sodipodi:cy="332.70001"
           sodipodi:rx="0.60000002"
           sodipodi:ry="0.60000002"
           style="fill:none;stroke:#999999;stroke-width:0.65060002;stroke-linecap:round;stroke-linejoin:round;stroke-miterlimit:10"
           d="m -222.29999,332.70001 c 0,0.33137 -0.26863,0.6 -0.6,0.6 -0.33137,0 -0.6,-0.26863 -0.6,-0.6 0,-0.33137 0.26863,-0.6 0.6,-0.6 0.33137,0 0.6,0.26863 0.6,0.6 z" /><circle
           id="circle3272"
           r="0.30000001"
           cy="322.89999"
           cx="-222.5"
           class="st9"
           sodipodi:cx="-222.5"
           sodipodi:cy="322.89999"
           sodipodi:rx="0.30000001"
           sodipodi:ry="0.30000001"
           style="fill:#ff4a0f;stroke:#999999;stroke-miterlimit:10"
           d="m -222.2,322.89999 c 0,0.16569 -0.13431,0.3 -0.3,0.3 -0.16569,0 -0.3,-0.13431 -0.3,-0.3 0,-0.16568 0.13431,-0.3 0.3,-0.3 0.16569,0 0.3,0.13432 0.3,0.3 z" /><path
           id="path3274"
           d="m -211.8,309.5 c 0,2 1.9,1.7 1.9,1.7 0,0 2.9,0 3.8,0 0.8,0 1.5,0.2 2.3,0.9 0.8,0.7 0.5,1.9 0.4,2.5 -0.1,0.6 -1.8,3.7 -1.2,4.4 0.5,0.7 3.5,-0.3 4.8,1 1.4,1.4 -0.4,3.4 -0.2,4.5 0.2,1.1 1.4,2.7 1.4,2.7 0,0 -0.9,0.5 -2.1,-1.4 -1.2,-1.9 0.7,-3.3 0.3,-4.3 -0.4,-0.9 -1.9,-0.6 -3.5,-0.4 -1.6,0.2 -3.3,-0.7 -2.8,-2.5 0.5,-1.8 1.8,-3.1 1.6,-4.1 -0.2,-1 -0.6,-1.7 -2,-1.7 -1.5,0 -4.2,0.8 -6,-1 -0.7,-0.7 -0.7,-1.8 -0.4,-3.1"
           class="st5"
           inkscape:connector-curvature="0"
           style="fill:none;stroke:#999999;stroke-width:0.65060002;stroke-miterlimit:10" /><path
           id="path3276"
           d="m -199.8,323.2 c 0,0 1.9,2.8 1.9,2.9 0.2,0.3 1.1,1.4 0.4,1.8 -0.3,0.3 -0.9,0 -1.2,-0.4 -0.1,-0.1 0.8,1 -0.8,-1.4 0,-0.1 -0.9,-1.8 -0.3,-2.9 z"
           class="st10"
           inkscape:connector-curvature="0"
           style="fill:#ffffff;stroke:#999999;stroke-width:0.65060002;stroke-linejoin:bevel;stroke-miterlimit:10" /><path
           id="path3278"
           d="m -200.7,321.9 c -1,-1.4 -2.1,-3.2 -3.5,-5.2 l -0.5,1.6 c -0.1,0.2 0,0.5 0.1,0.7 1.2,1.8 2.6,3.6 3.5,4.8 l 0.4,-1.9 z"
           class="st10"
           inkscape:connector-curvature="0"
           style="fill:#ffffff;stroke:#999999;stroke-width:0.65060002;stroke-linejoin:bevel;stroke-miterlimit:10" /><path
           id="path3280"
           d="m -205.6,315.7 c 0.2,-0.5 0.1,-1.2 -0.2,-1.6 -4,-6 -7.9,-11.7 -7.9,-11.7 -0.3,-0.5 -1,-0.5 -1.4,0 l -0.9,1.2 c -0.2,0.3 -0.1,0.7 0.3,0.8 l 0.5,0.2 c 0.4,0.1 0.8,0.4 1,0.8 0,0 3.9,5.7 7.8,11.3 0.1,0.2 0.4,0.1 0.4,-0.1 l 0.4,-0.9 z"
           class="st7"
           inkscape:connector-curvature="0"
           style="fill:#ffffff;stroke:#999999;stroke-width:0.65060002;stroke-miterlimit:10" /><path
           id="path3282"
           d="m -213.7,309.2 c 0.5,-1.8 1.6,-4.1 1.8,-5.6 0.4,-2.5 0.4,-3.8 -0.5,-4.6 -0.9,-0.8 -2.1,-0.6 -2.1,-0.6 l -0.5,0.2 -2,-1.8 c -0.3,-0.2 -0.2,-0.6 0.1,-0.8 0.7,-0.3 2.1,-0.7 4.3,0.4 3.4,1.6 3.3,3.7 3.3,5 0,1.3 -2.5,6.2 -2.5,8.2"
           class="st7"
           inkscape:connector-curvature="0"
           style="fill:#ffffff;stroke:#999999;stroke-width:0.65060002;stroke-miterlimit:10" /><path
           id="path3284"
           d="m -219.2,295.3 c 0,0 0.4,1 2,1.1"
           class="st7"
           inkscape:connector-curvature="0"
           style="fill:#ffffff;stroke:#999999;stroke-width:0.65060002;stroke-miterlimit:10" /><circle
           id="circle3286"
           r="0.30000001"
           cy="296.5"
           cx="-215.3"
           class="st9"
           sodipodi:cx="-215.3"
           sodipodi:cy="296.5"
           sodipodi:rx="0.30000001"
           sodipodi:ry="0.30000001"
           style="fill:#ff4a0f;stroke:#999999;stroke-miterlimit:10"
           d="m -215,296.5 c 0,0.16569 -0.13432,0.3 -0.3,0.3 -0.16569,0 -0.3,-0.13431 -0.3,-0.3 0,-0.16569 0.13431,-0.3 0.3,-0.3 0.16568,0 0.3,0.13431 0.3,0.3 z" /><path
           id="path3288"
           d="m -200.5,354.4 c 0,0 -4.2,-0.4 -7.2,-0.4 -3.1,0 -7.4,0.4 -7.4,0.4 v -8.5 h 14.6 v 8.5 z"
           class="st7"
           inkscape:connector-curvature="0"
           style="fill:#ffffff;stroke:#999999;stroke-width:0.65060002;stroke-miterlimit:10" /><path
           id="path3290"
           d="m -207.8,344.1 c 0,0 0.5,-0.4 1.7,-0.4 1.2,0 2.1,1.3 2.9,1.3 0.8,0 1.3,-0.1 1.3,-0.1 v 9.1 c 0,0 -1.1,-0.6 -2.5,-0.6 -1.4,0 -3.4,0.4 -3.4,0.4 v -9.7 z"
           class="st7"
           inkscape:connector-curvature="0"
           style="fill:#ffffff;stroke:#999999;stroke-width:0.65060002;stroke-miterlimit:10" /><path
           id="path3292"
           d="m -208,344.1 c 0,0 -0.5,-0.4 -1.7,-0.4 -1.1,0 -2.1,1.3 -2.9,1.3 -0.8,0 -1.3,-0.1 -1.3,-0.1 v 9.1 c 0,0 1.1,-0.6 2.5,-0.6 1.4,0 3.4,0.4 3.4,0.4 0,0 0,-9.7 0,-9.7 z"
           class="st7"
           inkscape:connector-curvature="0"
           style="fill:#ffffff;stroke:#999999;stroke-width:0.65060002;stroke-miterlimit:10" /><path
           id="path3294"
           d="m -207,348.7 c 2.2,0 1.8,0.8 4,0.8"
           class="st5"
           inkscape:connector-curvature="0"
           style="fill:none;stroke:#999999;stroke-width:0.65060002;stroke-miterlimit:10" /><path
           id="path3296"
           d="m -207,346.1 c 2.2,0 1.8,0.8 4,0.8"
           class="st5"
           inkscape:connector-curvature="0"
           style="fill:none;stroke:#999999;stroke-width:0.65060002;stroke-miterlimit:10" /><path
           id="path3298"
           d="m -207,350.8 c 2.2,0 1.8,0.8 4,0.8"
           class="st5"
           inkscape:connector-curvature="0"
           style="fill:none;stroke:#999999;stroke-width:0.65060002;stroke-miterlimit:10" /><path
           id="path3300"
           d="m -208.8,348.7 c -2.2,0 -1.8,0.8 -4,0.8"
           class="st5"
           inkscape:connector-curvature="0"
           style="fill:none;stroke:#999999;stroke-width:0.65060002;stroke-miterlimit:10" /><path
           id="path3302"
           d="m -208.8,346.1 c -2.2,0 -1.8,0.8 -4,0.8"
           class="st5"
           inkscape:connector-curvature="0"
           style="fill:none;stroke:#999999;stroke-width:0.65060002;stroke-miterlimit:10" /><path
           id="path3304"
           d="m -208.8,350.8 c -2.2,0 -1.8,0.8 -4,0.8"
           class="st5"
           inkscape:connector-curvature="0"
           style="fill:none;stroke:#999999;stroke-width:0.65060002;stroke-miterlimit:10" /><polygon
           id="polygon3306"
           points="-219.3,359.4 -219.3,360.7 -220.5,360.3 "
           class="st1"
           style="fill:none;stroke:#999999;stroke-width:0.65060002;stroke-linecap:round;stroke-linejoin:round;stroke-miterlimit:10" /></g><g
         id="g3308"><path
           id="path3310"
           d="m -180.1,319.3 c 0,-2.7 0,-3.2 0,-3.7 0,-0.6 -0.2,-0.9 -0.7,-1 -0.1,0 -0.4,-0.1 -0.6,-0.1 -0.1,0 -0.1,0 -0.1,-0.1 0,-0.1 0.1,-0.1 0.3,-0.1 0.8,0 1.8,0.1 2,0.1 0.2,0 1.2,-0.1 1.7,-0.1 0.2,0 0.3,0 0.3,0.1 0,0.1 -0.1,0.1 -0.1,0.1 -0.1,0 -0.2,0 -0.4,0.1 -0.5,0.1 -0.6,0.4 -0.6,1 0,0.6 0,1 0,3.7 v 2.4 c 0,2.5 0.6,3.6 1.3,4.3 0.8,0.8 1.6,0.9 2.6,0.9 1.1,0 2.1,-0.5 2.7,-1.2 0.8,-1 1,-2.5 1,-4.2 v -2.2 c 0,-2.7 0,-3.2 0,-3.7 0,-0.6 -0.2,-0.9 -0.7,-1 -0.1,0 -0.4,-0.1 -0.6,-0.1 -0.1,0 -0.1,0 -0.1,-0.1 0,-0.1 0.1,-0.1 0.3,-0.1 0.8,0 1.7,0.1 1.8,0.1 0.1,0 0.9,-0.1 1.5,-0.1 0.2,0 0.3,0 0.3,0.1 0,0.1 -0.1,0.1 -0.1,0.1 -0.1,0 -0.2,0 -0.4,0.1 -0.5,0.1 -0.6,0.4 -0.6,1 0,0.6 0,1 0,3.7 v 1.8 c 0,1.9 -0.2,3.9 -1.6,5.2 -1.2,1.1 -2.5,1.3 -3.6,1.3 -0.6,0 -2.3,-0.1 -3.6,-1.2 -0.8,-0.8 -1.5,-2 -1.5,-4.5 v -2.6 h -0.5 z"
           class="st11"
           inkscape:connector-curvature="0"
           style="fill:#999999" /><path
           id="path3312"
           d="m -164.4,325.3 c 0,1.2 0.2,1.6 0.6,1.7 0.3,0.1 0.6,0.1 0.8,0.1 0.1,0 0.1,0.1 0.1,0.1 0,0.1 -0.1,0.1 -0.3,0.1 -0.9,0 -1.5,-0.1 -1.6,-0.1 -0.1,0 -0.8,0.1 -1.5,0.1 -0.2,0 -0.2,0 -0.2,-0.1 0,-0.1 0.1,-0.1 0.1,-0.1 0.1,0 0.4,0 0.6,-0.1 0.4,-0.1 0.4,-0.5 0.4,-1.8 v -8.4 c 0,-0.6 0.1,-0.7 0.2,-0.7 0.2,0 0.4,0.3 0.6,0.4 0.2,0.2 2.5,2.6 4.8,5 1.5,1.6 3.1,3.3 3.6,3.8 l -0.2,-7.4 c 0,-0.9 -0.1,-1.3 -0.6,-1.4 -0.3,-0.1 -0.6,-0.1 -0.7,-0.1 -0.1,0 -0.1,-0.1 -0.1,-0.1 0,-0.1 0.1,-0.1 0.3,-0.1 0.7,0 1.4,0 1.6,0 0.2,0 0.7,0 1.3,0 0.2,0 0.3,0 0.3,0.1 0,0.1 -0.1,0.1 -0.2,0.1 -0.1,0 -0.2,0 -0.4,0 -0.5,0.1 -0.5,0.4 -0.5,1.3 v 8.6 c 0,1 0,1.1 -0.1,1.1 -0.2,0 -0.3,-0.1 -1.2,-0.9 -0.2,-0.1 -2.3,-2.3 -4,-4 -1.8,-1.8 -3.5,-3.6 -3.9,-4.2 l 0.2,7 z"
           class="st11"
           inkscape:connector-curvature="0"
           style="fill:#999999" /><path
           id="path3314"
           d="m -148.9,323.1 c 0,1.4 0,2.6 0.1,3.2 0.1,0.4 0.1,0.7 0.6,0.8 0.2,0 0.6,0.1 0.7,0.1 0.1,0 0.1,0.1 0.1,0.1 0,0.1 -0.1,0.1 -0.2,0.1 -0.8,0 -1.8,-0.1 -1.9,-0.1 -0.1,0 -1,0.1 -1.5,0.1 -0.2,0 -0.2,0 -0.2,-0.1 0,-0.1 0,-0.1 0.1,-0.1 0.1,0 0.3,0 0.5,-0.1 0.3,-0.1 0.3,-0.3 0.4,-0.8 0.1,-0.6 0.1,-1.8 0.1,-3.2 v -2.6 c 0,-2.3 0,-2.7 0,-3.2 0,-0.5 -0.2,-0.7 -0.5,-0.8 -0.2,0 -0.4,-0.1 -0.5,-0.1 -0.1,0 -0.1,-0.1 -0.1,-0.1 0,-0.1 0.1,-0.1 0.2,-0.1 0.5,0 1.5,0 1.5,0 0.1,0 1.1,0 1.5,0 0.2,0 0.2,0 0.2,0.1 0,0.1 -0.1,0.1 -0.1,0.1 -0.1,0 -0.2,0 -0.4,0 -0.4,0.1 -0.5,0.3 -0.5,0.8 0,0.5 0,0.9 0,3.2 v 2.7 h -0.1 z"
           class="st11"
           inkscape:connector-curvature="0"
           style="fill:#999999" /><path
           id="path3316"
           d="m -139.2,325.4 c 0.9,-2 2.9,-7 3.2,-8 0.1,-0.2 0.1,-0.4 0.1,-0.6 0,-0.2 -0.1,-0.3 -0.2,-0.3 -0.2,-0.1 -0.3,-0.1 -0.5,-0.1 -0.1,0 -0.2,-0.1 -0.2,-0.1 0,-0.1 0.1,-0.1 0.3,-0.1 0.6,0 1.3,0 1.5,0 0.1,0 0.7,0 1.2,0 0.2,0 0.2,0 0.2,0.1 0,0.1 -0.1,0.1 -0.2,0.1 -0.1,0 -0.4,0 -0.7,0.2 -0.2,0.1 -0.4,0.3 -0.8,1.3 -0.2,0.4 -0.9,2.2 -1.7,4 -0.9,2.1 -1.6,3.7 -2,4.5 -0.4,0.9 -0.5,1.1 -0.7,1.1 -0.2,0 -0.3,-0.2 -0.6,-0.9 l -3.7,-9 c -0.3,-0.8 -0.6,-1 -1.1,-1.1 -0.2,-0.1 -0.5,-0.1 -0.6,-0.1 -0.1,0 -0.1,-0.1 -0.1,-0.1 0,-0.1 0.2,-0.1 0.4,-0.1 0.7,0 1.6,0 1.8,0 0.2,0 0.8,0 1.4,0 0.3,0 0.4,0 0.4,0.1 0,0.1 -0.1,0.1 -0.2,0.1 -0.2,0 -0.4,0 -0.6,0.1 -0.2,0.1 -0.2,0.2 -0.2,0.3 0,0.2 0.2,0.6 0.4,1.2 l 3.2,7.4 z"
           class="st11"
           inkscape:connector-curvature="0"
           style="fill:#999999" /><path
           id="path3318"
           d="m -130.1,320.5 c 0,-2.3 0,-2.7 0,-3.2 0,-0.5 -0.1,-0.7 -0.6,-0.8 -0.1,0 -0.4,0 -0.5,0 -0.1,0 -0.1,-0.1 -0.1,-0.1 0,-0.1 0.1,-0.1 0.2,-0.1 0.7,0 1.7,0 1.8,0 0.1,0 3.3,0 3.6,0 0.3,0 0.6,-0.1 0.7,-0.1 0.1,0 0.1,-0.1 0.2,-0.1 0.1,0 0.1,0.1 0.1,0.1 0,0.1 -0.1,0.3 -0.1,0.7 0,0.1 -0.1,0.8 -0.1,1 0,0.1 -0.1,0.2 -0.1,0.2 -0.1,0 -0.1,-0.1 -0.1,-0.2 0,-0.1 0,-0.3 -0.1,-0.5 -0.1,-0.2 -0.3,-0.3 -1.1,-0.4 -0.3,0 -2,-0.1 -2.2,-0.1 -0.1,0 -0.1,0.1 -0.1,0.2 v 4 c 0,0.1 0,0.2 0.1,0.2 0.2,0 2.2,0 2.5,0 0.4,0 0.6,-0.1 0.7,-0.2 0.1,-0.1 0.2,-0.2 0.2,-0.2 0,0 0.1,0 0.1,0.1 0,0.1 -0.1,0.3 -0.1,0.8 0,0.3 -0.1,0.8 -0.1,0.9 0,0.1 0,0.3 -0.1,0.3 -0.1,0 -0.1,-0.1 -0.1,-0.1 0,-0.1 0,-0.3 -0.1,-0.5 -0.1,-0.2 -0.2,-0.4 -0.8,-0.4 -0.4,-0.1 -2,-0.1 -2.3,-0.1 -0.1,0 -0.1,0.1 -0.1,0.1 v 1.2 c 0,0.5 0,2.2 0,2.5 0,1 0.3,1.2 1.8,1.2 0.4,0 1.1,0 1.5,-0.2 0.4,-0.2 0.6,-0.4 0.7,-1 0,-0.2 0.1,-0.2 0.2,-0.2 0.1,0 0.1,0.1 0.1,0.2 0,0.1 -0.1,1.1 -0.2,1.4 -0.1,0.4 -0.3,0.4 -0.8,0.4 -1.1,0 -2,0 -2.6,-0.1 -0.6,0 -1,0 -1.3,0 0,0 -0.3,0 -0.7,0 -0.3,0 -0.6,0 -0.9,0 -0.2,0 -0.2,0 -0.2,-0.1 0,-0.1 0,-0.1 0.1,-0.1 0.1,0 0.3,-0.1 0.5,-0.1 0.3,-0.1 0.3,-0.3 0.4,-0.8 0.1,-0.6 0.1,-1.8 0.1,-3.2 l -0.1,-2.6 0,0 z"
           class="st11"
           inkscape:connector-curvature="0"
           style="fill:#999999" /><path
           id="path3320"
           d="m -120.4,320.5 c 0,-2.3 0,-2.7 0,-3.2 0,-0.5 -0.1,-0.7 -0.6,-0.8 -0.1,0 -0.4,0 -0.5,0 -0.1,0 -0.1,-0.1 -0.1,-0.1 0,-0.1 0.1,-0.1 0.2,-0.1 0.7,0 1.7,0 1.8,0 0.2,0 1.4,0 1.9,0 1,0 2,0.1 2.8,0.6 0.4,0.3 1.1,1 1.1,2 0,1.1 -0.4,2.1 -1.9,3.4 1.2,1.6 2.3,2.9 3.2,3.8 0.8,0.8 1.3,1 1.7,1 0.3,0.1 0.4,0.1 0.5,0.1 0.1,0 0.1,0.1 0.1,0.1 0,0.1 -0.1,0.1 -0.4,0.1 h -1 c -0.9,0 -1.2,-0.1 -1.6,-0.3 -0.7,-0.3 -1.2,-1.1 -2.1,-2.2 -0.6,-0.8 -1.3,-1.7 -1.6,-2.1 -0.1,-0.1 -0.1,-0.1 -0.2,-0.1 h -1.9 c -0.1,0 -0.1,0 -0.1,0.1 v 0.3 c 0,1.4 0,2.6 0.1,3.2 0.1,0.4 0.1,0.7 0.6,0.8 0.2,0 0.5,0.1 0.7,0.1 0.1,0 0.1,0.1 0.1,0.1 0,0.1 -0.1,0.1 -0.2,0.1 -0.8,0 -1.8,-0.1 -1.9,-0.1 0,0 -1,0.1 -1.5,0.1 -0.2,0 -0.2,0 -0.2,-0.1 0,-0.1 0,-0.1 0.1,-0.1 0.1,0 0.3,0 0.5,-0.1 0.3,-0.1 0.3,-0.3 0.4,-0.8 0.1,-0.6 0.1,-1.8 0.1,-3.2 v -2.6 h -0.1 z m 1.3,1.2 c 0,0.1 0,0.1 0.1,0.2 0.2,0.1 1,0.2 1.7,0.2 0.4,0 0.8,0 1.1,-0.3 0.5,-0.3 0.9,-1.1 0.9,-2.2 0,-1.8 -1,-2.9 -2.6,-2.9 -0.4,0 -0.9,0.1 -1.1,0.1 -0.1,0 -0.1,0.1 -0.1,0.2 l 0,4.7 0,0 z"
           class="st11"
           inkscape:connector-curvature="0"
           style="fill:#999999" /><path
           id="path3322"
           d="m -108.4,327.1 c -0.2,-0.1 -0.2,-0.2 -0.2,-0.6 0,-0.7 0.1,-1.3 0.1,-1.6 0,-0.2 0,-0.2 0.1,-0.2 0.1,0 0.1,0.1 0.1,0.2 0,0.1 0,0.3 0.1,0.5 0.2,1.1 1.4,1.5 2.4,1.5 1.5,0 2.3,-0.8 2.3,-2 0,-1.1 -0.6,-1.6 -1.9,-2.6 l -0.7,-0.5 c -1.6,-1.2 -2.2,-2.1 -2.2,-3.1 0,-1.7 1.4,-2.8 3.4,-2.8 0.6,0 1.2,0.1 1.6,0.2 0.3,0.1 0.4,0.1 0.5,0.1 0.1,0 0.2,0 0.2,0.1 0,0.1 -0.1,0.6 -0.1,1.6 0,0.2 0,0.3 -0.1,0.3 -0.1,0 -0.1,-0.1 -0.1,-0.2 0,-0.2 -0.1,-0.6 -0.2,-0.7 -0.1,-0.2 -0.6,-0.7 -2,-0.7 -1.1,0 -2,0.6 -2,1.6 0,0.9 0.5,1.5 2,2.5 l 0.4,0.3 c 1.8,1.3 2.5,2.3 2.5,3.5 0,0.9 -0.3,1.8 -1.4,2.5 -0.6,0.4 -1.6,0.5 -2.4,0.5 -0.9,0 -1.8,-0.1 -2.4,-0.4 z"
           class="st11"
           inkscape:connector-curvature="0"
           style="fill:#999999" /><path
           id="path3324"
           d="m -96.8,323.1 c 0,1.4 0,2.6 0.1,3.2 0.1,0.4 0.1,0.7 0.6,0.8 0.2,0 0.6,0.1 0.7,0.1 0.1,0 0.1,0.1 0.1,0.1 0,0.1 -0.1,0.1 -0.2,0.1 -0.8,0 -1.8,-0.1 -1.9,-0.1 -0.1,0 -1,0.1 -1.5,0.1 -0.2,0 -0.2,0 -0.2,-0.1 0,-0.1 0,-0.1 0.1,-0.1 0.1,0 0.3,0 0.5,-0.1 0.3,-0.1 0.3,-0.3 0.4,-0.8 0.1,-0.6 0.1,-1.8 0.1,-3.2 v -2.6 c 0,-2.3 0,-2.7 0,-3.2 0,-0.5 -0.2,-0.7 -0.5,-0.8 -0.2,0 -0.4,-0.1 -0.5,-0.1 -0.1,0 -0.1,-0.1 -0.1,-0.1 0,-0.1 0.1,-0.1 0.2,-0.1 0.5,0 1.5,0 1.5,0 0.1,0 1.1,0 1.5,0 0.2,0 0.2,0 0.2,0.1 0,0.1 -0.1,0.1 -0.1,0.1 -0.1,0 -0.2,0 -0.4,0 -0.4,0.1 -0.5,0.3 -0.5,0.8 0,0.5 0,0.9 0,3.2 v 2.7 h -0.1 z"
           class="st11"
           inkscape:connector-curvature="0"
           style="fill:#999999" /><path
           id="path3326"
           d="m -91.3,320.5 c 0,-2.3 0,-2.7 0,-3.2 0,-0.5 -0.1,-0.7 -0.6,-0.8 -0.1,0 -0.4,0 -0.5,0 -0.1,0 -0.1,-0.1 -0.1,-0.1 0,-0.1 0.1,-0.1 0.2,-0.1 0.7,0 1.7,0 1.8,0 0.2,0 1.1,0 2,0 1.5,0 4.3,-0.1 6.1,1.7 0.8,0.8 1.5,2 1.5,3.7 0,1.8 -0.8,3.3 -1.6,4.1 -0.7,0.7 -2,1.7 -4.6,1.7 -0.7,0 -1.5,-0.1 -2.1,-0.1 -0.7,-0.1 -1.2,-0.1 -1.2,-0.1 0,0 -0.3,0 -0.6,0 -0.3,0 -0.7,0 -0.9,0 -0.2,0 -0.2,0 -0.2,-0.1 0,-0.1 0,-0.1 0.1,-0.1 0.1,0 0.3,0 0.5,-0.1 0.3,-0.1 0.3,-0.3 0.4,-0.8 0.1,-0.6 0.1,-1.8 0.1,-3.2 v -2.5 h -0.3 z m 1.4,1.6 c 0,1.6 0,2.9 0,3.2 0,0.4 0.1,0.9 0.2,1.1 0.2,0.3 0.7,0.6 2.5,0.6 1.4,0 2.6,-0.5 3.6,-1.3 0.8,-0.7 1.2,-2.1 1.2,-3.5 0,-1.9 -0.8,-3.1 -1.4,-3.7 -1.4,-1.5 -3.1,-1.6 -4.9,-1.6 -0.3,0 -0.8,0.1 -0.9,0.1 -0.1,0 -0.2,0.1 -0.2,0.3 v 4.8 h -0.1 z"
           class="st11"
           inkscape:connector-curvature="0"
           style="fill:#999999" /><path
           id="path3328"
           d="m -74.9,316.5 c 0.2,-0.5 0.3,-0.6 0.4,-0.6 0.2,0 0.2,0.2 0.4,0.5 0.3,0.6 2.7,6.7 3.6,8.9 0.6,1.3 1,1.5 1.3,1.6 0.2,0.1 0.4,0.1 0.6,0.1 0.1,0 0.2,0 0.2,0.1 0,0.1 -0.2,0.1 -0.3,0.1 -0.2,0 -1.3,0 -2.4,0 -0.3,0 -0.5,0 -0.5,-0.1 0,-0.1 0,-0.1 0.1,-0.1 0.1,0 0.2,-0.2 0.1,-0.4 l -1.4,-3.4 c 0,-0.1 -0.1,-0.1 -0.1,-0.1 h -3.5 c -0.1,0 -0.1,0 -0.2,0.1 l -0.9,2.3 c -0.1,0.4 -0.2,0.7 -0.2,1 0,0.3 0.3,0.4 0.5,0.4 h 0.1 c 0.1,0 0.2,0.1 0.2,0.1 0,0.1 -0.1,0.1 -0.2,0.1 -0.4,0 -1.2,-0.1 -1.4,-0.1 -0.2,0 -0.9,0.1 -1.5,0.1 -0.2,0 -0.3,0 -0.3,-0.1 0,-0.1 0.1,-0.1 0.1,-0.1 0.1,0 0.3,0 0.4,0 0.7,-0.1 1,-0.6 1.3,-1.3 l 3.6,-9.1 z m 1.7,6.1 c 0.1,0 0.1,0 0.1,-0.1 l -1.5,-4 c -0.1,-0.2 -0.2,-0.2 -0.3,0 l -1.4,4 c 0,0.1 0,0.1 0.1,0.1 h 3 z"
           class="st11"
           inkscape:connector-curvature="0"
           style="fill:#999999" /><path
           id="path3330"
           d="m -65.3,320.5 c 0,-2.3 0,-2.7 0,-3.2 0,-0.5 -0.1,-0.7 -0.6,-0.8 -0.1,0 -0.4,0 -0.5,0 -0.1,0 -0.1,-0.1 -0.1,-0.1 0,-0.1 0.1,-0.1 0.2,-0.1 0.7,0 1.7,0 1.8,0 0.2,0 1.1,0 2,0 1.5,0 4.3,-0.1 6.1,1.7 0.8,0.8 1.5,2 1.5,3.7 0,1.8 -0.8,3.3 -1.6,4.1 -0.7,0.7 -2,1.7 -4.6,1.7 -0.7,0 -1.5,-0.1 -2.1,-0.1 -0.7,-0.1 -1.2,-0.1 -1.2,-0.1 0,0 -0.3,0 -0.6,0 -0.3,0 -0.7,0 -0.9,0 -0.2,0 -0.2,0 -0.2,-0.1 0,-0.1 0,-0.1 0.1,-0.1 0.1,0 0.3,0 0.5,-0.1 0.3,-0.1 0.3,-0.3 0.4,-0.8 0.1,-0.6 0.1,-1.8 0.1,-3.2 v -2.5 h -0.3 z m 1.4,1.6 c 0,1.6 0,2.9 0,3.2 0,0.4 0.1,0.9 0.2,1.1 0.2,0.3 0.7,0.6 2.5,0.6 1.4,0 2.6,-0.5 3.6,-1.3 0.8,-0.7 1.2,-2.1 1.2,-3.5 0,-1.9 -0.8,-3.1 -1.4,-3.7 -1.4,-1.5 -3.1,-1.6 -4.9,-1.6 -0.3,0 -0.8,0.1 -0.9,0.1 -0.1,0 -0.2,0.1 -0.2,0.3 v 4.8 h -0.1 z"
           class="st11"
           inkscape:connector-curvature="0"
           style="fill:#999999" /><path
           id="path3332"
           d="m -178.3,341.4 c 0,-3.3 0,-3.9 0,-4.6 -0.1,-0.7 -0.2,-1.1 -0.9,-1.2 -0.2,0 -0.5,0 -0.8,0 -0.1,0 -0.2,-0.1 -0.2,-0.2 0,-0.1 0.1,-0.2 0.4,-0.2 1,0 2.4,0 2.5,0 0.2,0 1.6,0 2.9,0 2.2,0 6.2,-0.2 8.8,2.4 1.1,1.1 2.1,2.9 2.1,5.4 0,2.7 -1.1,4.7 -2.4,6 -0.9,1 -2.9,2.4 -6.7,2.4 -0.9,0 -2.1,-0.1 -3.1,-0.1 -0.9,-0.1 -1.7,-0.1 -1.8,-0.1 -0.1,0 -0.5,0 -0.9,0 -0.4,0 -1,0.1 -1.3,0.1 -0.2,0 -0.4,-0.1 -0.4,-0.2 0,-0.1 0.1,-0.2 0.2,-0.2 0.2,0 0.5,0 0.7,-0.1 0.4,-0.1 0.5,-0.5 0.6,-1.1 0.1,-0.9 0.1,-2.5 0.1,-4.6 v -3.7 h 0.2 z m 2,2.3 c 0,2.2 0,4.2 0,4.6 0,0.5 0.1,1.3 0.2,1.5 0.3,0.4 1,0.8 3.6,0.8 2,0 3.8,-0.7 5.1,-1.9 1.1,-1.1 1.7,-3.1 1.7,-5 0,-2.7 -1.2,-4.4 -2.1,-5.3 -2.1,-2.1 -4.5,-2.4 -7.1,-2.4 -0.4,0 -1.1,0.1 -1.3,0.1 -0.2,0.1 -0.3,0.2 -0.3,0.4 v 7.2 h 0.2 z"
           class="st11"
           inkscape:connector-curvature="0"
           style="fill:#999999" /><path
           id="path3334"
           d="m -157.3,341.4 c 0,-3.3 0,-3.9 0,-4.6 -0.1,-0.7 -0.2,-1.1 -0.9,-1.2 -0.2,0 -0.5,0 -0.8,0 -0.1,0 -0.2,-0.1 -0.2,-0.2 0,-0.1 0.1,-0.2 0.4,-0.2 1,0 2.4,0 2.5,0 0.1,0 4.7,0 5.2,0 0.4,0 0.8,-0.1 1,-0.1 0.1,0 0.2,-0.1 0.3,-0.1 0.1,0 0.1,0.1 0.1,0.2 0,0.1 -0.1,0.4 -0.2,1 0,0.2 -0.1,1.1 -0.1,1.4 0,0.1 -0.1,0.2 -0.2,0.2 -0.1,0 -0.2,-0.1 -0.2,-0.3 0,-0.1 0,-0.5 -0.1,-0.8 -0.1,-0.3 -0.4,-0.5 -1.6,-0.6 -0.4,0 -2.9,-0.1 -3.2,-0.1 -0.1,0 -0.1,0.1 -0.1,0.2 v 5.8 c 0,0.1 0,0.2 0.1,0.2 0.3,0 3.2,0 3.7,0 0.5,0 0.8,-0.1 1.1,-0.3 0.1,-0.1 0.2,-0.3 0.3,-0.3 0.1,0 0.1,0 0.1,0.2 0,0.2 -0.1,0.5 -0.2,1.2 -0.1,0.4 -0.1,1.2 -0.1,1.4 0,0.2 0,0.4 -0.2,0.4 -0.1,0 -0.1,-0.1 -0.1,-0.2 0,-0.2 0,-0.4 -0.1,-0.7 -0.1,-0.3 -0.3,-0.5 -1.1,-0.6 -0.6,-0.1 -2.9,-0.1 -3.3,-0.1 -0.1,0 -0.1,0.1 -0.1,0.1 v 1.8 c 0,0.7 0,3.2 0,3.6 0,1.4 0.4,1.7 2.6,1.7 0.6,0 1.6,0 2.2,-0.2 0.6,-0.2 0.9,-0.6 1,-1.5 0,-0.2 0.1,-0.3 0.2,-0.3 0.1,0 0.2,0.2 0.2,0.3 0,0.2 -0.2,1.6 -0.3,2 -0.1,0.5 -0.4,0.5 -1.2,0.5 -1.6,0 -2.9,0 -3.8,-0.1 -0.9,0 -1.5,0 -1.8,0 -0.1,0 -0.5,0 -0.9,0 -0.4,0 -0.9,0.1 -1.3,0.1 -0.2,0 -0.4,-0.1 -0.4,-0.2 0,-0.1 0.1,-0.2 0.2,-0.2 0.2,0 0.5,-0.1 0.7,-0.1 0.4,-0.1 0.5,-0.5 0.6,-1.1 0.1,-0.9 0.1,-2.5 0.1,-4.6 l -0.1,-3.6 0,0 z"
           class="st11"
           inkscape:connector-curvature="0"
           style="fill:#999999" /><path
           id="path3336"
           d="m -131.4,349 c -2.4,-2.2 -3,-5 -3,-7.4 0,-1.7 0.6,-4.6 2.8,-6.8 1.5,-1.5 3.8,-2.7 7.6,-2.7 1,0 2.4,0.1 3.6,0.3 0.9,0.2 1.7,0.3 2.5,0.4 0.3,0 0.3,0.1 0.3,0.3 0,0.2 -0.1,0.5 -0.1,1.4 0,0.8 0,2.2 -0.1,2.6 0,0.4 -0.1,0.5 -0.2,0.5 -0.2,0 -0.2,-0.2 -0.2,-0.5 0,-1 -0.4,-2 -1,-2.5 -0.9,-0.8 -2.8,-1.4 -5,-1.4 -3.3,0 -4.9,1 -5.7,1.8 -1.8,1.7 -2.2,4 -2.2,6.5 0,4.8 3.7,9.1 9,9.1 1.9,0 3.3,-0.2 4.3,-1.2 0.5,-0.5 0.9,-1.6 0.9,-2.1 0,-0.3 0.1,-0.4 0.2,-0.4 0.1,0 0.2,0.2 0.2,0.4 0,0.2 -0.3,2.3 -0.5,3.2 -0.1,0.5 -0.2,0.5 -0.6,0.7 -1,0.4 -2.9,0.6 -4.5,0.6 -3.8,-0.1 -6.3,-1 -8.3,-2.8 z"
           class="st11"
           inkscape:connector-curvature="0"
           style="fill:#999999" /><path
           id="path3338"
           d="m -97.5,345.2 c 0,2 0,3.7 0.1,4.6 0.1,0.6 0.1,1 0.8,1.1 0.3,0.1 0.8,0.1 1,0.1 0.1,0 0.2,0.1 0.2,0.2 0,0.1 -0.1,0.2 -0.4,0.2 -1.2,0 -2.6,-0.1 -2.7,-0.1 -0.1,0 -1.5,0.1 -2.2,0.1 -0.2,0 -0.4,-0.1 -0.4,-0.2 0,-0.1 0.1,-0.2 0.2,-0.2 0.2,0 0.4,0 0.6,-0.1 0.4,-0.1 0.5,-0.5 0.6,-1.1 0.1,-0.9 0.1,-2.5 0.1,-4.5 v -2.1 c 0,-0.1 -0.1,-0.1 -0.1,-0.1 h -9.2 c -0.1,0 -0.1,0 -0.1,0.1 v 2.1 c 0,2 0,3.7 0.1,4.5 0.1,0.6 0.1,1 0.8,1.1 0.3,0.1 0.8,0.1 1,0.1 0.1,0 0.2,0.1 0.2,0.2 0,0.1 -0.1,0.2 -0.4,0.2 -1.2,0 -2.6,-0.1 -2.7,-0.1 -0.1,0 -1.5,0.1 -2.2,0.1 -0.2,0 -0.4,-0.1 -0.4,-0.2 0,-0.1 0.1,-0.2 0.2,-0.2 0.2,0 0.5,0 0.7,-0.1 0.4,-0.1 0.5,-0.5 0.6,-1.1 0.1,-0.9 0.1,-2.5 0.1,-4.6 v -3.7 c 0,-3.3 0,-3.9 0,-4.6 -0.1,-0.7 -0.2,-1.1 -0.9,-1.2 -0.2,0 -0.5,0 -0.8,0 -0.1,0 -0.2,-0.1 -0.2,-0.2 0,-0.1 0.1,-0.2 0.4,-0.2 1,0 2.4,0 2.5,0 0.1,0 1.5,0 2.2,0 0.2,0 0.4,0 0.4,0.2 0,0.1 -0.1,0.2 -0.2,0.2 -0.1,0 -0.3,0 -0.5,0 -0.6,0.1 -0.7,0.4 -0.8,1.2 0,0.7 0,1.3 0,4.6 v 0.5 c 0,0.1 0,0.1 0.1,0.1 h 9.2 c 0.1,0 0.1,0 0.1,-0.1 v -0.5 c 0,-3.3 0,-3.9 -0.1,-4.6 0,-0.7 -0.1,-1.1 -0.9,-1.2 -0.2,0 -0.5,0 -0.8,0 -0.1,0 -0.2,-0.1 -0.2,-0.2 0,-0.1 0.1,-0.2 0.4,-0.2 1,0 2.4,0 2.5,0 0.1,0 1.5,0 2.2,0 0.2,0 0.4,0 0.4,0.2 0,0.1 -0.1,0.2 -0.2,0.2 -0.1,0 -0.3,0 -0.5,0 -0.6,0.1 -0.7,0.4 -0.8,1.2 0,0.7 0,1.3 0,4.6 l 0,3.7 0,0 z"
           class="st11"
           inkscape:connector-curvature="0"
           style="fill:#999999" /><path
           id="path3340"
           d="m -86.8,345.2 c 0,2 0,3.7 0.1,4.6 0.1,0.6 0.1,1 0.8,1.1 0.3,0.1 0.8,0.1 1,0.1 0.1,0 0.2,0.1 0.2,0.2 0,0.1 -0.1,0.2 -0.4,0.2 -1.2,0 -2.6,-0.1 -2.7,-0.1 -0.1,0 -1.5,0.1 -2.2,0.1 -0.2,0 -0.4,-0.1 -0.4,-0.2 0,-0.1 0.1,-0.2 0.2,-0.2 0.2,0 0.5,0 0.7,-0.1 0.4,-0.1 0.5,-0.5 0.6,-1.1 0.1,-0.9 0.1,-2.5 0.1,-4.6 v -3.7 c 0,-3.3 0,-3.9 0,-4.6 -0.1,-0.7 -0.2,-1 -0.7,-1.1 -0.2,0 -0.5,-0.1 -0.7,-0.1 -0.1,0 -0.2,-0.1 -0.2,-0.2 0,-0.1 0.1,-0.2 0.4,-0.2 0.7,0 2.1,0 2.2,0 0.1,0 1.5,0 2.2,0 0.2,0 0.4,0 0.4,0.2 0,0.1 -0.1,0.2 -0.2,0.2 -0.1,0 -0.3,0 -0.5,0 -0.6,0.1 -0.7,0.4 -0.8,1.2 0,0.7 0,1.3 0,4.6 v 3.7 h -0.1 z"
           class="st11"
           inkscape:connector-curvature="0"
           style="fill:#999999" /><path
           id="path3342"
           d="m -76.3,345.2 c 0,3.1 0,4.4 0.4,4.8 0.4,0.4 1.2,0.5 2.9,0.5 1.1,0 2.1,0 2.6,-0.6 0.3,-0.3 0.5,-0.8 0.5,-1.2 0,-0.1 0.1,-0.3 0.2,-0.3 0.1,0 0.1,0.1 0.1,0.3 0,0.2 -0.1,1.5 -0.3,2.1 -0.2,0.5 -0.2,0.6 -1.4,0.6 -1.6,0 -2.8,0 -3.8,-0.1 -1,0 -1.7,0 -2.4,0 -0.1,0 -0.5,0 -0.9,0 -0.5,0 -0.9,0.1 -1.3,0.1 -0.2,0 -0.4,-0.1 -0.4,-0.2 0,-0.1 0.1,-0.2 0.2,-0.2 0.2,0 0.5,0 0.7,-0.1 0.4,-0.1 0.5,-0.5 0.6,-1.1 0.1,-0.9 0.1,-2.5 0.1,-4.6 v -3.7 c 0,-3.3 0,-3.9 0,-4.6 -0.1,-0.7 -0.2,-1.1 -0.9,-1.2 -0.2,0 -0.5,0 -0.8,0 -0.1,0 -0.2,-0.1 -0.2,-0.2 0,-0.1 0.1,-0.2 0.4,-0.2 1,0 2.4,0 2.5,0 0.1,0 1.7,0 2.4,0 0.2,0 0.3,0 0.3,0.2 0,0.1 -0.1,0.1 -0.2,0.1 -0.1,0 -0.5,0 -0.7,0.1 -0.6,0.1 -0.8,0.4 -0.8,1.2 0,0.7 0,1.3 0,4.6 v 3.7 h 0.2 z"
           class="st11"
           inkscape:connector-curvature="0"
           style="fill:#999999" /><path
           id="path3344"
           d="m -63.6,341.4 c 0,-3.3 0,-3.9 0,-4.6 -0.1,-0.7 -0.2,-1.1 -0.9,-1.2 -0.2,0 -0.5,0 -0.8,0 -0.1,0 -0.2,-0.1 -0.2,-0.2 0,-0.1 0.1,-0.2 0.4,-0.2 1,0 2.4,0 2.5,0 0.1,0 4.7,0 5.2,0 0.4,0 0.8,-0.1 1,-0.1 0.1,0 0.2,-0.1 0.3,-0.1 0.1,0 0.1,0.1 0.1,0.2 0,0.1 -0.1,0.4 -0.2,1 0,0.2 -0.1,1.1 -0.1,1.4 0,0.1 -0.1,0.2 -0.2,0.2 -0.1,0 -0.2,-0.1 -0.2,-0.3 0,-0.1 0,-0.5 -0.1,-0.8 -0.1,-0.3 -0.4,-0.5 -1.6,-0.6 -0.4,0 -2.9,-0.1 -3.2,-0.1 -0.1,0 -0.1,0.1 -0.1,0.2 v 5.8 c 0,0.1 0,0.2 0.1,0.2 0.3,0 3.2,0 3.7,0 0.5,0 0.8,-0.1 1.1,-0.3 0.1,-0.1 0.2,-0.3 0.3,-0.3 0.1,0 0.1,0 0.1,0.2 0,0.2 -0.1,0.5 -0.2,1.2 -0.1,0.4 -0.1,1.2 -0.1,1.4 0,0.2 0,0.4 -0.2,0.4 -0.1,0 -0.1,-0.1 -0.1,-0.2 0,-0.2 0,-0.4 -0.1,-0.7 -0.1,-0.3 -0.3,-0.5 -1.1,-0.6 -0.6,-0.1 -2.9,-0.1 -3.3,-0.1 -0.1,0 -0.1,0.1 -0.1,0.1 v 1.8 c 0,0.7 0,3.2 0,3.6 0,1.4 0.4,1.7 2.6,1.7 0.6,0 1.6,0 2.2,-0.2 0.6,-0.2 0.9,-0.6 1,-1.5 0,-0.2 0.1,-0.3 0.2,-0.3 0.1,0 0.2,0.2 0.2,0.3 0,0.2 -0.2,1.6 -0.3,2 -0.1,0.5 -0.4,0.5 -1.2,0.5 -1.6,0 -2.9,0 -3.8,-0.1 -0.9,0 -1.5,0 -1.8,0 -0.1,0 -0.5,0 -0.9,0 -0.4,0 -0.9,0.1 -1.3,0.1 -0.2,0 -0.4,-0.1 -0.4,-0.2 0,-0.1 0.1,-0.2 0.2,-0.2 0.2,0 0.5,-0.1 0.7,-0.1 0.4,-0.1 0.5,-0.5 0.6,-1.1 0.1,-0.9 0.1,-2.5 0.1,-4.6 l -0.1,-3.6 0,0 z"
           class="st11"
           inkscape:connector-curvature="0"
           style="fill:#999999" /></g></g></g><g
     inkscape:groupmode="layer"
     id="layer4"
     inkscape:label="cinta"><g
       id="g3465"
       transform="translate(359.85,337.62951)"><polygon
         id="polygon3467"
         points="-24.2,300.9 36.1,300.9 36.1,345.4 -24.2,345.4 -5.2,322 "
         class="st0"
         style="fill:#bfc1c0" /><polygon
         id="polygon3469"
         points="670.2,300.9 651.1,322 670.2,345.4 609.8,345.4 609.8,300.9 "
         class="st0"
         style="fill:#bfc1c0" /><rect
         id="rect3471"
         height="49.5"
         width="635"
         class="st1"
         y="277.10001"
         x="6.5"
         style="fill:#dfe1e0" /><polygon
         id="polygon3473"
         points="609.8,326.5 609.8,345.4 641.5,326.5 "
         class="st2"
         style="fill:#424242" /><polygon
         id="polygon3475"
         points="36.1,345.4 6.5,327.3 36.1,327.3 "
         class="st2"
         style="fill:#424242" /></g></g><g
     inkscape:groupmode="layer"
     id="layer5"
     inkscape:label="colores"><g
       id="g3522"
       transform="translate(571.65,242.89098)"><rect
         id="rect3524"
         height="5.5999999"
         width="122.3"
         class="st0"
         y="303.39999"
         x="-133.39999"
         style="fill:#004b93" /><rect
         id="rect3526"
         height="5.5999999"
         width="122.3"
         class="st1"
         y="303.39999"
         x="-11.1"
         style="fill:#e63329" /><rect
         id="rect3528"
         height="5.5999999"
         width="122.3"
         class="st2"
         y="303.39999"
         x="111.2"
         style="fill:#007e47" /><rect
         id="rect3530"
         height="5.5999999"
         width="122.3"
         class="st3"
         y="303.39999"
         x="233.5"
         style="fill:#ffce44" /></g></g><style
     id="style3066"
     type="text/css">
	.st0{fill:#FF4A0F;}
	.st1{fill:#FFFFFF;}
	.st2{fill:#F07A1A;}
	.st3{fill:#1C75F7;}
	.st4{fill:#FF961C;}
	.st5{fill:#404040;}
</style><style
     id="style3132"
     type="text/css">
	.st0{fill:none;stroke:#999999;stroke-width:0.6506;stroke-linejoin:round;stroke-miterlimit:10;}
	.st1{fill:none;stroke:#999999;stroke-width:0.6506;stroke-linecap:round;stroke-linejoin:round;stroke-miterlimit:10;}
	.st2{fill:#FFFFFF;stroke:#999999;stroke-width:0.6506;stroke-linejoin:round;stroke-miterlimit:10;}
	.st3{fill:#FFFFFF;stroke:#999999;stroke-width:0.6506;stroke-linecap:round;stroke-linejoin:round;stroke-miterlimit:10;}
	.st4{fill:none;stroke:#999999;stroke-miterlimit:10;}
	.st5{fill:none;stroke:#999999;stroke-width:0.6506;stroke-miterlimit:10;}
	.st6{fill:none;stroke:#999999;stroke-width:0.5;stroke-miterlimit:10;}
	.st7{fill:#FFFFFF;stroke:#999999;stroke-width:0.6506;stroke-miterlimit:10;}
	.st8{fill:none;stroke:#999999;stroke-width:0.6506;stroke-linecap:round;stroke-linejoin:bevel;stroke-miterlimit:10;}
	.st9{fill:#FF4A0F;stroke:#999999;stroke-miterlimit:10;}
	.st10{fill:#FFFFFF;stroke:#999999;stroke-width:0.6506;stroke-linejoin:bevel;stroke-miterlimit:10;}
	.st11{fill:#999999;}
</style><style
     id="style3463"
     type="text/css">
	.st0{fill:#BFC1C0;}
	.st1{fill:#DFE1E0;}
	.st2{fill:#424242;}
</style><style
     id="style3520"
     type="text/css">
	.st0{fill:#004B93;}
	.st1{fill:#E63329;}
	.st2{fill:#007E47;}
	.st3{fill:#FFCE44;}
</style></svg>