<?xml version="1.0" encoding="utf-8"?>
<!-- Generator: Adobe Illustrator 19.1.0, SVG Export Plug-In . SVG Version: 6.00 Build 0)  -->
<svg version="1.1" id="Capa_1" xmlns="http://www.w3.org/2000/svg" xmlns:xlink="http://www.w3.org/1999/xlink" x="0px" y="0px"
	 viewBox="-258 327 93.5 139" style="enable-background:new -258 327 93.5 139;" xml:space="preserve">
<style type="text/css">
	.st0{fill:#1C75F7;}
	.st1{enable-background:new    ;}
	.st2{fill:#FFFFFF;}
</style>
<g>
	<polygon class="st0" points="535,144.3 535,-17.1 644.1,-17.1 644.1,144.3 592.3,110.5 	"/>
</g>
<text transform="matrix(1 0 0 1 569.3621 60.4869)" class="st2" style="font-family:'Raleway-SemiBoldItalic'; font-size:18px;">Subir</text>
<text transform="matrix(1 0 0 1 548.2622 82.0869)" class="st2" style="font-family:'Raleway-SemiBoldItalic'; font-size:18px;">Propuesta</text>
<g>
	<polygon class="st0" points="-258,466 -258,327 -164.5,327 -164.5,466 -208.8,432.9 	"/>
</g>
<g class="st1">
	<path class="st2" d="M-232.9,388.8h2.4l-3.2,14.9h-2.4L-232.9,388.8z"/>
	<path class="st2" d="M-228.3,392.7h2.1l-0.5,2.2c0.5-0.7,1.2-1.3,2.1-1.8c0.8-0.4,1.7-0.6,2.6-0.6c0.5,0,0.8,0.1,1.2,0.2
		c0.3,0.1,0.6,0.3,0.7,0.5c0.2,0.2,0.3,0.5,0.4,0.8c0.1,0.3,0.1,0.7,0.1,1c0,0.3,0,0.6-0.1,0.9c0,0.3-0.1,0.7-0.2,1l-1.4,6.7h-2.3
		l1.3-6.2c0.1-0.3,0.1-0.5,0.1-0.7c0-0.2,0-0.4,0-0.6c0-1.1-0.4-1.6-1.3-1.6c-0.3,0-0.6,0.1-1,0.2c-0.3,0.1-0.7,0.3-1,0.5
		c-0.3,0.2-0.6,0.5-0.9,0.8c-0.3,0.3-0.5,0.7-0.7,1l-1.4,6.5h-2.3L-228.3,392.7z"/>
	<path class="st2" d="M-216.2,392.7h2.3l-2.4,11h-2.3L-216.2,392.7z M-215.3,388.3h2.3l-0.5,2.5h-2.3L-215.3,388.3z"/>
	<path class="st2" d="M-208.8,403.9c-0.7,0-1.3-0.1-1.9-0.4s-1-0.6-1.4-1c-0.4-0.4-0.7-0.9-0.8-1.5s-0.3-1.2-0.3-1.8
		c0-0.9,0.2-1.7,0.5-2.5c0.3-0.8,0.8-1.5,1.4-2.2c0.6-0.6,1.3-1.1,2.1-1.5c0.8-0.4,1.7-0.6,2.7-0.6c1.1,0,2,0.2,2.6,0.7
		c0.7,0.5,1.1,1.2,1.3,2l-2.4,0.7c-0.2-0.5-0.4-0.8-0.8-1.1c-0.4-0.3-0.8-0.4-1.3-0.4s-1,0.1-1.5,0.3c-0.5,0.2-0.9,0.6-1.2,1
		c-0.4,0.4-0.7,0.9-0.9,1.4c-0.2,0.5-0.3,1.1-0.3,1.8c0,0.4,0.1,0.8,0.2,1.2c0.1,0.4,0.3,0.7,0.5,0.9c0.2,0.3,0.5,0.5,0.7,0.6
		c0.3,0.1,0.6,0.2,1,0.2c0.3,0,0.5,0,0.8-0.1c0.3-0.1,0.5-0.2,0.8-0.3c0.2-0.1,0.5-0.3,0.7-0.5c0.2-0.2,0.4-0.4,0.5-0.6l2.1,0.7
		c-0.3,0.4-0.6,0.8-0.9,1.1c-0.4,0.3-0.8,0.6-1.2,0.9c-0.4,0.3-0.9,0.4-1.4,0.6C-207.7,403.8-208.3,403.9-208.8,403.9z"/>
	<path class="st2" d="M-200,392.7h2.3l-2.4,11h-2.3L-200,392.7z M-199.1,388.3h2.3l-0.5,2.5h-2.3L-199.1,388.3z"/>
	<path class="st2" d="M-192.6,403.9c-0.7,0-1.3-0.1-1.8-0.4s-1-0.6-1.3-1c-0.4-0.4-0.6-0.9-0.8-1.4c-0.2-0.6-0.3-1.1-0.3-1.8
		c0-0.9,0.2-1.7,0.5-2.6c0.3-0.8,0.8-1.5,1.4-2.2s1.3-1.1,2.1-1.5c0.8-0.4,1.7-0.6,2.6-0.6c0.7,0,1.3,0.1,1.9,0.4
		c0.5,0.2,1,0.6,1.4,1s0.7,0.9,0.8,1.5c0.2,0.6,0.3,1.2,0.3,1.8c0,0.9-0.2,1.7-0.5,2.5c-0.3,0.8-0.8,1.5-1.4,2.2
		c-0.6,0.6-1.3,1.1-2.1,1.5S-191.6,403.9-192.6,403.9z M-192.2,401.9c0.5,0,1-0.1,1.4-0.4s0.9-0.6,1.2-1c0.4-0.4,0.7-0.9,0.9-1.4
		c0.2-0.5,0.3-1.1,0.3-1.7c0-0.8-0.2-1.5-0.6-2.1c-0.4-0.6-1-0.8-1.7-0.8c-0.5,0-1,0.1-1.4,0.4s-0.9,0.6-1.2,1
		c-0.4,0.4-0.7,0.9-0.9,1.4c-0.2,0.5-0.3,1.1-0.3,1.7c0,0.8,0.2,1.5,0.6,2.1C-193.4,401.6-192.9,401.9-192.2,401.9z"/>
</g>
</svg>
