<?xml version="1.0" encoding="utf-8"?>
<!-- Generator: Adobe Illustrator 19.1.0, SVG Export Plug-In . SVG Version: 6.00 Build 0)  -->
<svg version="1.1" id="Capa_1" xmlns="http://www.w3.org/2000/svg" xmlns:xlink="http://www.w3.org/1999/xlink" x="0px" y="0px"
	 viewBox="0 0 243.1 84.3" style="enable-background:new 0 0 243.1 84.3;" xml:space="preserve">
<style type="text/css">
	.st0{opacity:0.7;}
	.st1{fill:#FFFFFF;}
	.st2{fill:#2B2523;stroke:#1D1D1B;stroke-width:0.2732;stroke-miterlimit:10;}
	.st3{fill:#004B93;}
	.st4{fill:#AACCE8;}
	.st5{fill:#336FA9;}
	.st6{fill:#FFFFFF;stroke:#2B2523;stroke-width:0.1478;stroke-miterlimit:3.8637;}
	.st7{fill:none;stroke:#2B2523;stroke-width:0.1478;stroke-miterlimit:3.8637;}
	.st8{fill:#2C2A68;stroke:#2B2523;stroke-width:0.1478;stroke-miterlimit:3.8637;}
	.st9{fill:#AACCE8;stroke:#000000;stroke-width:0.25;stroke-miterlimit:3.8637;}
	.st10{fill:#2B2523;}
	.st11{fill:none;stroke:#1D1D1B;stroke-width:0.3185;stroke-miterlimit:3.8637;}
	.st12{fill:#CCDBE9;stroke:#12110B;stroke-width:0.2123;}
	.st13{clip-path:url(#XMLID_100_);}
	.st14{fill:none;stroke:#1D1D1B;stroke-width:0.2276;stroke-miterlimit:3.8637;}
</style>
<g id="XMLID_1018_" class="st0">
	<g id="XMLID_1019_">
		<polygon id="XMLID_1065_" class="st1" points="186,42.6 187.5,42.6 187.5,49.4 189.9,49.4 189.9,50.9 186,50.9 		"/>
		<path id="XMLID_1062_" class="st1" d="M193.3,42.6h1.6l3.2,8.3h-1.7l-0.7-1.7h-3.4l-0.7,1.7h-1.7L193.3,42.6z M194.1,44.8
			l-1.1,2.9h2.2L194.1,44.8z"/>
		<path id="XMLID_1061_" class="st1" d="M209.7,44l-1.1,1.1c-0.8-0.8-1.6-1.2-2.5-1.2c-0.8,0-1.5,0.3-2,0.8c-0.5,0.5-0.8,1.2-0.8,2
			c0,0.6,0.1,1.1,0.4,1.5c0.2,0.4,0.6,0.8,1,1c0.4,0.2,0.9,0.4,1.5,0.4c0.5,0,0.9-0.1,1.3-0.3c0.4-0.2,0.8-0.5,1.3-0.9l1.1,1.1
			c-0.6,0.6-1.2,1-1.7,1.3c-0.5,0.2-1.2,0.3-1.9,0.3c-1.3,0-2.4-0.4-3.2-1.2c-0.8-0.8-1.2-1.9-1.2-3.2c0-0.8,0.2-1.6,0.6-2.2
			c0.4-0.6,0.9-1.2,1.6-1.6c0.7-0.4,1.5-0.6,2.3-0.6c0.7,0,1.4,0.1,2,0.4C208.7,43.1,209.3,43.5,209.7,44"/>
		<polygon id="XMLID_1060_" class="st1" points="210.8,42.6 212.4,42.6 212.4,45.7 215.2,45.7 215.2,42.6 216.8,42.6 216.8,50.9 
			215.2,50.9 215.2,47.2 212.4,47.2 212.4,50.9 210.8,50.9 		"/>
		<rect id="XMLID_1059_" x="218.3" y="42.6" class="st1" width="1.6" height="8.3"/>
		<polygon id="XMLID_1058_" class="st1" points="221.4,42.6 223,42.6 223,49.4 225.3,49.4 225.3,50.9 221.4,50.9 		"/>
		<polygon id="XMLID_1057_" class="st1" points="226.2,42.6 230.8,42.6 230.8,44.1 227.8,44.1 227.8,45.6 230.8,45.6 230.8,47.1 
			227.8,47.1 227.8,49.3 230.8,49.3 230.8,50.9 226.2,50.9 		"/>
		<path id="XMLID_1054_" class="st1" d="M166.3,53h4.6c2.5,0,4.3,0.2,5.4,0.6c1.1,0.4,2,1.1,2.6,2c0.6,0.9,1,2.1,1,3.4
			c0,1.5-0.4,2.7-1.3,3.6c-0.8,1-2,1.6-3.4,2c-0.8,0.2-2.4,0.3-4.6,0.3v8.8h-4.4L166.3,53L166.3,53z M170.6,61.2h1.4
			c1.1,0,1.8-0.1,2.3-0.2c0.4-0.1,0.8-0.4,1-0.7c0.2-0.3,0.4-0.7,0.4-1.2c0-0.8-0.3-1.4-1-1.8c-0.5-0.3-1.4-0.4-2.8-0.4h-1.2
			L170.6,61.2L170.6,61.2z"/>
		<polygon id="XMLID_1053_" class="st1" points="200,55.9 202.6,55.9 208.6,65.1 208.6,55.9 211.2,55.9 211.2,69.9 208.7,69.9 
			202.7,60.7 202.7,69.9 200,69.9 		"/>
		<path id="XMLID_1050_" class="st1" d="M185.5,73.1h-5.9v-1c0.2-0.1,0.4-0.2,0.5-0.3c0.1-0.1,0.2-0.2,0.3-0.3
			c0.1-0.1,0.1-0.2,0.2-0.4c0-0.1,0.1-0.3,0.1-0.5c0-0.2,0-0.4,0.1-0.7c0-0.3,0-0.8,0-1.3V57.5h1.5l3.4,0.1v1.1
			c-0.3,0.1-0.5,0.2-0.7,0.3c-0.2,0.1-0.3,0.2-0.4,0.4c-0.1,0.2-0.2,0.4-0.2,0.8c0,0.3-0.1,0.7-0.1,1.2v7.3c0,1,0,1.7,0.1,2
			c0.1,0.4,0.2,0.7,0.3,0.9c0.1,0.2,0.4,0.4,0.8,0.5L185.5,73.1L185.5,73.1z M184.2,55.2h-3.3v-3.8h3.3V55.2z"/>
		<path id="XMLID_1049_" class="st1" d="M213.2,68.2c0.2,1.1,0.6,2,1.2,2.6c0.6,0.6,1.4,0.8,2.4,0.8c0.6,0,1.1-0.1,1.5-0.3
			c0.4-0.2,0.8-0.5,1.1-0.9c0.3-0.4,0.4-1,0.4-1.6c0-0.6-0.1-1.1-0.3-1.6c-0.2-0.4-0.6-0.9-1-1.2c-0.5-0.4-1.2-0.8-2-1.3
			c-0.7-0.4-1.4-0.8-2-1.2c-0.6-0.4-1.1-0.8-1.5-1.3c-0.4-0.5-0.7-1-1-1.6c-0.2-0.6-0.3-1.2-0.3-1.9c0-1.2,0.3-2.2,0.9-3
			c0.6-0.8,1.4-1.5,2.5-1.9c1.1-0.4,2.4-0.6,3.8-0.6c0.8,0,1.6,0,2.4,0.1c0.8,0.1,1.6,0.3,2.6,0.5V58h-1.9c-0.2-0.8-0.4-1.4-0.7-1.8
			c-0.3-0.4-0.6-0.8-1-1c-0.4-0.2-0.9-0.3-1.6-0.3c-0.5,0-1,0.1-1.4,0.3c-0.4,0.2-0.8,0.5-1,0.9c-0.2,0.4-0.4,0.8-0.4,1.4
			c0,0.6,0.1,1,0.3,1.5c0.2,0.4,0.6,0.8,1.1,1.2c0.5,0.4,1.2,0.8,2.2,1.3c1.2,0.6,2.1,1.2,2.7,1.8c0.7,0.6,1.2,1.2,1.5,1.9
			c0.3,0.7,0.5,1.5,0.5,2.4c0,1.2-0.3,2.2-0.8,3.1c-0.5,0.9-1.3,1.5-2.4,2c-1,0.5-2.2,0.7-3.6,0.7c-1,0-2-0.1-3-0.2
			c-1-0.1-2-0.3-2.9-0.5v-4.4L213.2,68.2L213.2,68.2z"/>
		<path id="XMLID_1048_" class="st1" d="M199.8,53.9c-0.1,0.4-0.4,2.3-0.6,3.9l-1,0.1c0-1-0.1-1.7-0.4-2.2c-0.3-0.6-0.6-0.9-2.9-0.9
			h-2.7c-1,0-1.1,0.1-1.3,1l-1.3,5.4h3.1c2.6,0,2.7-0.2,3.5-1.8h1l-1.2,4.8h-1c0.1-1.8,0.1-1.9-2.6-1.9h-3l-1,4.2
			c-0.4,1.6-0.3,2.3,0.2,2.5c0.5,0.3,1.5,0.3,3.2,0.3c2.2,0,3.1-0.2,4-0.9c0.7-0.6,1.4-1.5,2.1-2.4l1,0.3c-0.3,0.7-1.6,3.2-2,3.9
			h-14.4l0.2-0.8c2.6-0.2,2.9-0.3,3.3-2.3l2.4-10.3c0.5-2,0.3-2.2-2.2-2.3l0.2-0.7L199.8,53.9L199.8,53.9z"/>
		<path id="XMLID_1045_" class="st1" d="M233.1,70.7v-0.8c2.2-0.2,2.4-0.4,2-1.4l-1.8-3.9h-7c-0.5,1.1-0.9,2.1-1.4,3.2
			c-0.7,1.8-0.4,2,2,2.1v0.8h-7.1v-0.8c2.1-0.2,2.5-0.4,3.6-2.7l6.6-13.6l1-0.3c1.9,4.4,4.2,9.6,6.2,14c0.9,2.2,1.4,2.4,3.5,2.6v0.8
			H233.1z M230,56.5L230,56.5c-1.1,2.3-2.1,4.6-3.1,6.8h6L230,56.5z"/>
		<polygon id="XMLID_1044_" class="st1" points="164.3,74.9 165.3,74.9 165.3,83.2 168.8,83.2 168.8,84 164.3,84 		"/>
		<path id="XMLID_1041_" class="st1" d="M174,74.9l4.2,9.1h-1l-1.4-3H172l-1.4,3h-1l4.3-9.1H174z M173.9,76.9l-1.6,3.3h3.1
			L173.9,76.9z"/>
		<path id="XMLID_1038_" class="st1" d="M183.5,74.9h1.8c1,0,1.7,0,2.1,0.1c0.5,0.1,1,0.4,1.3,0.8c0.3,0.4,0.5,0.9,0.5,1.5
			c0,0.5-0.1,0.9-0.3,1.3c-0.2,0.4-0.6,0.7-1,0.9c-0.4,0.2-1,0.3-1.8,0.3l3.3,4.2h-1.1l-3.3-4.2h-0.5V84h-0.9L183.5,74.9L183.5,74.9
			z M184.4,75.8v3.1l1.6,0c0.6,0,1.1-0.1,1.3-0.2c0.3-0.1,0.5-0.3,0.7-0.6c0.2-0.3,0.2-0.5,0.2-0.9c0-0.3-0.1-0.6-0.2-0.8
			c-0.2-0.2-0.4-0.4-0.7-0.5c-0.3-0.1-0.7-0.2-1.3-0.2H184.4L184.4,75.8z"/>
		<polygon id="XMLID_1037_" class="st1" points="191.3,74.9 196.5,74.9 196.5,75.8 192.2,75.8 192.2,78.7 196.5,78.7 196.5,79.6 
			192.2,79.6 192.2,83.1 196.5,83.1 196.5,84 191.3,84 		"/>
		<polygon id="XMLID_1036_" class="st1" points="198.2,74.9 202.7,74.9 202.7,75.8 199.1,75.8 199.1,78.7 202.7,78.7 202.7,79.6 
			199.1,79.6 199.1,84 198.2,84 		"/>
		<path id="XMLID_1033_" class="st1" d="M208.8,74.7c1.4,0,2.5,0.5,3.5,1.4c0.9,0.9,1.4,2.1,1.4,3.4c0,1.3-0.5,2.5-1.4,3.4
			c-0.9,0.9-2.1,1.4-3.4,1.4c-1.3,0-2.5-0.5-3.4-1.4c-0.9-0.9-1.4-2-1.4-3.4c0-0.9,0.2-1.7,0.6-2.4c0.4-0.7,1-1.3,1.7-1.8
			C207.1,74.9,207.9,74.7,208.8,74.7 M208.8,75.6c-0.7,0-1.3,0.2-1.9,0.5c-0.6,0.3-1.1,0.8-1.4,1.4c-0.3,0.6-0.5,1.3-0.5,2
			c0,1.1,0.4,2,1.1,2.7c0.8,0.7,1.7,1.1,2.7,1.1c0.7,0,1.4-0.2,2-0.5c0.6-0.3,1.1-0.8,1.4-1.4c0.3-0.6,0.5-1.3,0.5-2
			c0-0.7-0.2-1.4-0.5-2c-0.3-0.6-0.8-1.1-1.4-1.4C210.2,75.8,209.5,75.6,208.8,75.6"/>
		<path id="XMLID_1030_" class="st1" d="M215.6,74.9h1.8c1,0,1.7,0,2.1,0.1c0.5,0.1,1,0.4,1.3,0.8c0.3,0.4,0.5,0.9,0.5,1.5
			c0,0.5-0.1,0.9-0.3,1.3c-0.2,0.4-0.6,0.7-1,0.9c-0.4,0.2-1,0.3-1.8,0.3l3.3,4.2h-1.1l-3.3-4.2h-0.5V84h-0.9L215.6,74.9L215.6,74.9
			z M216.5,75.8v3.1l1.6,0c0.6,0,1.1-0.1,1.3-0.2c0.3-0.1,0.5-0.3,0.7-0.6c0.2-0.3,0.2-0.5,0.2-0.9c0-0.3-0.1-0.6-0.2-0.8
			c-0.2-0.2-0.4-0.4-0.7-0.5c-0.3-0.1-0.7-0.2-1.3-0.2H216.5L216.5,75.8z"/>
		<polygon id="XMLID_1029_" class="st1" points="223,84 224.3,74.9 224.4,74.9 228.1,82.4 231.8,74.9 231.9,74.9 233.3,84 232.4,84 
			231.5,77.5 228.2,84 228,84 224.8,77.5 223.9,84 		"/>
		<path id="XMLID_1026_" class="st1" d="M238.9,74.9l4.2,9.1h-1l-1.4-3h-3.9l-1.4,3h-1l4.3-9.1H238.9z M238.8,76.9l-1.6,3.3h3.1
			L238.8,76.9z"/>
		<rect id="XMLID_1025_" x="168.2" y="28.4" class="st1" width="4.2" height="3.7"/>
		<rect id="XMLID_1024_" x="161.5" y="34.9" class="st1" width="2.9" height="2.9"/>
		<rect id="XMLID_1023_" x="177.3" y="34" class="st1" width="7.5" height="7.3"/>
		<rect id="XMLID_1022_" x="167.2" y="39.3" class="st1" width="3.8" height="3.9"/>
		<rect id="XMLID_1021_" x="173" y="44.6" class="st1" width="6.3" height="6.3"/>
		<rect id="XMLID_1020_" x="180.3" y="51" class="st1" width="4.3" height="4.6"/>
	</g>
</g>
<g id="XMLID_1_">
	<path id="XMLID_98_" class="st2" d="M39.5,32v49.1c0,1.2-0.9,2.1-2.1,2.1H21.5c-0.6,0-1.7-0.1-1.7,0.9c0-0.9-1.3-0.9-1.8-0.9H2.2
		c-1.1,0-2.1-1-2.1-2.1V32H39.5L39.5,32z"/>
	<path id="XMLID_97_" class="st3" d="M19.7,32.3v25.1H0.4V32.3C0.5,32.3,19.7,32.3,19.7,32.3L19.7,32.3z"/>
	<polygon id="XMLID_96_" class="st4" points="19.9,32.3 19.9,57.4 39.2,57.4 39.2,32.3 	"/>
	<path id="XMLID_95_" class="st5" d="M2.6,83c-1.4,0-2.2-0.8-2.2-2.2V57.6h19.2v25.6c0,0-0.1-0.2-0.8-0.2L2.6,83L2.6,83z"/>
	<path id="XMLID_94_" class="st3" d="M37,83c1.4,0,2.2-0.7,2.2-2.2V57.6H20c0,0,0,25.4,0,25.6c0-0.1,0.2-0.2,0.8-0.2H37L37,83z"/>
	<polygon id="XMLID_93_" class="st6" points="9.7,34.7 9.1,51.8 10.7,51.8 	"/>
	<polygon id="XMLID_92_" class="st6" points="7.1,48.4 12.4,48.4 12.4,49.2 7.1,49.2 	"/>
	<path id="XMLID_91_" class="st6" d="M8.1,51.9c0,0-0.1,1.7,1.8,1.7c0,0,1.7-0.1,1.7-1.8L8.1,51.9L8.1,51.9z"/>
	<path id="XMLID_88_" class="st7" d="M10.5,49.2l-1.4,1.2 M10.6,50.3l-1.5,1.3"/>
	<path id="XMLID_84_" class="st1" d="M14.9,37.2l-2,4.9H17L14.9,37.2L14.9,37.2z M4.7,37.4l-2.1,4.8h4.1L4.7,37.4L4.7,37.4z
		 M4.8,36.2l-2.8,6c0,0,0.1,2.7,2.7,2.7c0,0,2.6-0.1,2.6-2.6L5,36.9h9.4l-2.1,5.3c0,0-0.1,2.6,2.7,2.6c0,0,2.5-0.4,2.5-2.6l-2.8-6
		H4.8L4.8,36.2z"/>
	<path id="XMLID_69_" class="st7" d="M14.9,37.2l-2,4.9H17L14.9,37.2L14.9,37.2z M4.7,37.4l-2.1,4.8h4.1L4.7,37.4L4.7,37.4z
		 M4.8,36.2l-2.8,6c0,0,0.1,2.7,2.7,2.7c0,0,2.6-0.1,2.6-2.6L5,36.9h9.4l-2.1,5.3c0,0-0.1,2.6,2.7,2.6c0,0,2.5-0.4,2.5-2.6l-2.8-6
		H4.8L4.8,36.2z M12,66.8l-7.7-4.9 M7.5,71.5l-3.3-9.6 M4.3,61.9l6.9,5 M4.3,61.9l6.2,5.2 M4.3,61.9l5.7,5.5 M4.3,61.9l5.2,5.8
		 M4.3,61.9l4.8,6.1 M4.3,61.9l4.5,6.6 M4.3,61.9l4.1,7 M4.2,61.9l3.8,7.5 M4.3,61.9l3.5,8.2"/>
	<path id="XMLID_68_" class="st8" d="M8.4,71.6c0-2.2,1.8-4,3.9-4c2.2,0,3.9,1.8,3.9,4c0,2.2-1.8,4-3.9,4
		C10.2,75.6,8.4,73.8,8.4,71.6L8.4,71.6z"/>
	<path id="XMLID_67_" class="st1" d="M10.9,68.5c0,0.1,0,0.1,0.1,0.2h0.4c0.1-0.2,0.1-0.5,0.4-0.5c0.1,0,0.2,0,0.4,0
		c0,0.2,0,0.3,0,0.6c0,0.1,0,0.2,0.1,0.3c-0.4,0.1-0.8,0.1-1.1,0.4c-0.1,0.1-0.1,0.3-0.3,0.3c-0.1,0-0.2,0-0.3,0c0-0.2,0-0.2,0-0.4
		c0-0.1,0.1-0.1,0.1-0.2c-0.1,0-0.2,0-0.3,0c-0.2,0-0.3,0.2-0.3,0.3c0,1,0.9,1.3,1.6,2.1c0.4,0.4,1.1,0.4,1.1,1
		c0,0.3-0.4,0.2-0.5,0.5c-0.4,0.8-0.3,1.6-1.1,2.1c0-0.1-0.1-0.1-0.1-0.2c0-0.2,0.1-0.2,0.1-0.4c0-0.4,0-0.5,0-0.9
		c0-0.1,0.1-0.2,0.1-0.3c0-0.2,0-0.4,0-0.6c-0.5-0.1-0.9-0.5-0.9-1.1c0-0.2,0.2-0.3,0.2-0.6c0-0.8-1.3-0.8-1.3-1.7
		c0-0.2,0.1-0.3,0.2-0.5c0.4-0.5,0.8-0.7,1.4-0.9l0,0.3C11,68.3,11,68.4,10.9,68.5L10.9,68.5z"/>
	<path id="XMLID_66_" class="st1" d="M12.5,67.7c0,0.2,0,0.3,0,0.5c0,0.3,0.3,0.5,0.6,0.6c0-0.2,0-0.4,0.2-0.6
		C13,68,12.8,67.8,12.5,67.7L12.5,67.7z"/>
	<path id="XMLID_65_" class="st1" d="M14.2,68.6c0.1,0.3,0.4,0.3,0.4,0.6c0,0.3-0.4,0.4-0.4,0.7c0,0.1,0.1,0.2,0.1,0.3
		c0,0.1-0.2,0.2-0.2,0.3c0,0.5,1.2,0.1,1.2,0.6c0,0.2-0.3,0.2-0.3,0.4c0,0.2,0.1,0.4,0.3,0.6c-0.1,0.1-0.1,0.1-0.1,0.2v0.7
		c0.3,0,0.5,0,0.8,0c0.2-0.5,0.1-0.4,0.2-0.5c0,0,0.1-0.8,0.1-0.8c0-0.3,0-0.3-0.1-0.7c0-0.3-0.2-0.7-0.4-1
		c-0.3-0.7-0.7-1.1-1.3-1.5L14.2,68.6L14.2,68.6z"/>
	<polygon id="XMLID_64_" class="st9" points="5.2,72 3.9,75.7 5.7,72.6 	"/>
	<polygon id="XMLID_63_" class="st9" points="6.2,72.1 7.6,75.8 5.8,72.6 	"/>
	<polygon id="XMLID_62_" class="st6" points="3.5,75.7 3.5,77.4 14.3,77.4 14.3,81 15.9,81 15.9,75.8 	"/>
	<polygon id="XMLID_61_" class="st1" points="5.3,63.1 4.5,62.6 3.7,63.1 4,62.2 3.3,61.6 4.2,61.6 4.5,60.7 4.8,61.6 5.8,61.6 
		5,62.2 	"/>
	<path id="XMLID_60_" class="st9" d="M5,71.9c0-0.4,0.3-0.7,0.7-0.7c0.4,0,0.7,0.3,0.7,0.7c0,0.4-0.3,0.7-0.7,0.7
		C5.3,72.7,5,72.3,5,71.9L5,71.9z"/>
	<polygon id="XMLID_59_" class="st9" points="35.6,73.3 37,74.1 33.6,78.2 33.6,80.5 21.9,77.3 22.1,75.7 23.4,74.3 	"/>
	<polygon id="XMLID_58_" class="st6" points="36.3,73.9 35.6,73.7 35.6,72.5 32.8,76 32.9,77.9 	"/>
	<polygon id="XMLID_57_" class="st6" points="36.9,74.2 33.6,78.2 33.6,80.5 37.6,76 37,75.6 	"/>
	<path id="XMLID_52_" class="st7" d="M22.2,75.9l11.3,2.5 M24.4,76.4v1.7 M25.8,76.7v1.7 M30.2,77.7v1.9"/>
	<path id="XMLID_51_" class="st9" d="M29.8,62.4c0,0-0.4,0.6-0.5,1c0,0-0.3,0.6-0.5-0.2c0,0-0.3,0.5,0.1,1c0,0-0.2,0.5-0.6-0.2
		c0,0-0.3,0.6,0.5,1.1c0,0-0.1,0.4-0.6,0c0,0,1.2,2,3.2,0c0,0-0.7,0.2-0.5-0.1c0,0,0.6-0.4,0.4-0.9c0,0-0.7,0.6-0.6,0.1l0.1,0
		c0,0,0.4-0.2,0.2-0.7c0,0-0.5,0.6-0.5,0.1c0,0-0.1-0.6-0.4-0.8L29.8,62.4L29.8,62.4z"/>
	<polygon id="XMLID_50_" class="st9" points="24,72.9 22.9,74 23,75.5 32.9,77.9 32.8,76 35.8,72.4 34.1,71.9 	"/>
	<path id="XMLID_49_" class="st6" d="M24.1,67.9c0,0,0.8-0.2,1.2-0.2l8.2-1c0,0,1.5-0.2,1.5-0.4v7.2c0,0-4.3-0.8-5.6,0
		c0,0-1.1-0.8-5.4,0.4L24.1,67.9L24.1,67.9z"/>
	<path id="XMLID_48_" class="st6" d="M24.8,67c0,0,0.6,0.1,2-0.5c0,0,2.5-1.5,2.8-0.4c0,0,1.3-1.1,2.3-0.3c0,0,1.7,0.5,2.1,0v7.4
		c0,0-3.6-1.1-4.5,0.3c0,0-1.2-1.3-4.7-0.2V67L24.8,67z"/>
	<path id="XMLID_43_" class="st7" d="M29.6,66l-0.1,7.5 M23,74l9.8,2 M24.7,74.4V76 M25.1,74.4v1.7"/>
	<path id="XMLID_42_" class="st6" d="M14,58.1c0-3.2,2.6-5.8,5.8-5.8c0.1,0,0.1,0,0.2,0c0.1-0.2,0.3-0.4,0.6-0.4h0.8
		c0.7,0,0.8,0.7,1.3,1.1c1.8,1,3,2.9,3,5.1c0,3.2-2.6,5.8-5.8,5.8C16.6,63.9,14,61.3,14,58.1L14,58.1z"/>
	<path id="XMLID_41_" class="st6" d="M14.9,58.1c0-2.7,2.2-4.9,4.9-4.9c2.7,0,4.9,2.2,4.9,4.9c0,2.7-2.2,4.9-4.9,4.9
		C17.1,63,14.9,60.8,14.9,58.1L14.9,58.1z"/>
	<path id="XMLID_40_" class="st7" d="M19.8,52.3c0.3,0.2,0.4,0.3,0.7,0.6c-0.2,0.1-0.4,0.2-0.5,0.4"/>
	<path id="XMLID_39_" class="st10" d="M20.8,52.5c0-0.1,0.1-0.2,0.2-0.2c0.1,0,0.2,0.1,0.2,0.2c0,0.1-0.1,0.2-0.2,0.2
		C20.9,52.7,20.8,52.6,20.8,52.5L20.8,52.5z"/>
	<path id="XMLID_36_" class="st7" d="M19.7,53.4l-4.2,6.9h8.5L19.7,53.4L19.7,53.4z M18.2,58.1c0-0.8,0.7-1.5,1.5-1.5
		c0.8,0,1.5,0.7,1.5,1.5c0,0.8-0.7,1.5-1.5,1.5C18.9,59.6,18.2,59,18.2,58.1L18.2,58.1z"/>
	<path id="XMLID_35_" class="st10" d="M19.3,58.1c0-0.3,0.2-0.5,0.5-0.5c0.3,0,0.5,0.2,0.5,0.5c0,0.3-0.2,0.5-0.5,0.5
		C19.5,58.6,19.3,58.4,19.3,58.1L19.3,58.1z"/>
	<path id="XMLID_34_" class="st7" d="M16.8,58.2c0,0,2.6-3.6,5.9,0c0,0-2.2,3.3-5.7,0.2L16.8,58.2L16.8,58.2z"/>
	<path id="XMLID_33_" class="st3" d="M23.4,36.9c0,0-1.7,0.7-1.1-0.9c0,0,0.4-1.5,2.3-1.2c0,0,1.2,0.1,0.2,1.5l11.8,18.2l0.1,0.6
		l-0.6-0.2L23.4,36.9L23.4,36.9z"/>
	<path id="XMLID_32_" class="st6" d="M26.9,36.9c0,0-1.6-0.1-1.5,3.8c0,0-0.1,3.2,2.3,3.1c0,0,0.8,0,1.5-0.2c0,0,0.7-0.4,1.3,1.2
		c0,0,0.5-0.6,0.5-1.2c0,0,0.1-1.5-1.9-1.5c0,0-2.1,0.4-2.1-1.2c0,0,0.1-1.6,0.6-1.6c0,0,0.8,1.1,1.1,0.4c0,0,0.9-2.5-0.9-2.7H26.9
		L26.9,36.9z"/>
	<path id="XMLID_31_" class="st6" d="M28.8,44.6c0,0-0.8,1-0.7,1.6c0,0,0.1,1.2,1.5,1.2c0,0,2.3-0.3,2.5,0.1c0,0,1.7-1.5-0.8-2
		c0,0-1.5,0.5-1.7,0.1L28.8,44.6L28.8,44.6z"/>
	<path id="XMLID_30_" class="st6" d="M30.9,47.6c0,0-1.5,1.5,0.1,2.3c0,0,1.6,0.3,1.5,1.2c0,0,0.1,1.3,0.5,1.3c0,0,0.6,0.4,0.6,0.8
		c0,0,0.1,0.8,0.5,0c0,0,0.4-1.5-0.2-1.8c-0.7-0.3-0.4-0.9-0.4-0.9s-0.1-1.4-1.2-1.7c0,0-0.3,0.1-0.9-0.7L30.9,47.6L30.9,47.6z"/>
	<path id="XMLID_29_" class="st10" d="M27.9,38.1c0-0.2,0.1-0.4,0.3-0.4c0.2,0,0.3,0.2,0.3,0.4c0,0.2-0.1,0.4-0.3,0.4
		C28,38.5,27.9,38.3,27.9,38.1L27.9,38.1z"/>
	<g id="XMLID_21_">
		<line id="XMLID_28_" class="st11" x1="10.5" y1="3" x2="29.2" y2="28.7"/>
		<line id="XMLID_27_" class="st11" x1="4.7" y1="11" x2="34.9" y2="20.8"/>
		<g id="XMLID_22_">
			<line id="XMLID_26_" class="st11" x1="19.8" y1="0" x2="19.8" y2="32.5"/>
			<line id="XMLID_25_" class="st11" x1="4.7" y1="20.8" x2="34.9" y2="11"/>
			<line id="XMLID_24_" class="st11" x1="10.5" y1="28.7" x2="29.2" y2="3"/>
		</g>
	</g>
	<g id="XMLID_15_">
		<line id="XMLID_20_" class="st11" x1="16.6" y1="6.1" x2="23" y2="25.7"/>
		<line id="XMLID_19_" class="st11" x1="11.4" y1="9.8" x2="28.2" y2="22"/>
		<line id="XMLID_18_" class="st11" x1="9.5" y1="15.9" x2="30.1" y2="15.9"/>
		<line id="XMLID_17_" class="st11" x1="11.5" y1="22" x2="28.2" y2="9.8"/>
		<line id="XMLID_16_" class="st11" x1="16.6" y1="25.7" x2="23" y2="6.1"/>
	</g>
	<polygon id="XMLID_14_" class="st12" points="19.8,7.3 21.8,13.2 27.2,13.5 23.3,17.1 24.7,22.6 19.8,19.5 15,22.6 16.4,17.1 
		12.4,13.5 17.8,13.2 	"/>
	<g id="XMLID_2_">
		<g id="XMLID_4_">
			<defs>
				<polygon id="XMLID_5_" points="19.8,7.3 21.8,13.2 27.2,13.5 23.3,17.1 24.7,22.6 19.8,19.5 15,22.6 16.4,17.1 12.4,13.5 
					17.8,13.2 				"/>
			</defs>
			<clipPath id="XMLID_100_">
				<use xlink:href="#XMLID_5_"  style="overflow:visible;"/>
			</clipPath>
			<g id="XMLID_6_" class="st13">
				<line id="XMLID_13_" class="st14" x1="10.5" y1="3" x2="29.2" y2="28.7"/>
				<line id="XMLID_12_" class="st14" x1="4.7" y1="11" x2="34.9" y2="20.8"/>
				<g id="XMLID_8_">
					<line id="XMLID_11_" class="st14" x1="19.8" y1="0" x2="19.8" y2="31.8"/>
					<line id="XMLID_10_" class="st14" x1="4.7" y1="20.8" x2="34.9" y2="11"/>
					<line id="XMLID_9_" class="st14" x1="10.5" y1="28.7" x2="29.2" y2="3"/>
				</g>
			</g>
		</g>
		<g id="XMLID_3_">
			<polygon id="SVGID_1_" class="st11" points="19.8,7.3 21.8,13.2 27.2,13.5 23.3,17.1 24.7,22.6 19.8,19.5 15,22.6 16.4,17.1 
				12.4,13.5 17.8,13.2 			"/>
		</g>
	</g>
</g>
<g id="XMLID_7_">
	<g id="XMLID_23_">
		<path id="XMLID_1140_" class="st1" d="M46.4,58.4c0-2,0-2.4,0-2.8c0-0.4-0.1-0.7-0.6-0.7c-0.1,0-0.3,0-0.4,0c-0.1,0-0.1,0-0.1-0.1
			c0-0.1,0.1-0.1,0.2-0.1c0.6,0,1.4,0,1.5,0c0.1,0,0.9,0,1.3,0c0.1,0,0.2,0,0.2,0.1c0,0.1-0.1,0.1-0.1,0.1c-0.1,0-0.2,0-0.3,0
			c-0.4,0.1-0.5,0.3-0.5,0.7c0,0.4,0,0.8,0,2.8v1.8c0,1.9,0.4,2.7,1,3.2c0.6,0.6,1.2,0.7,2,0.7c0.8,0,1.6-0.4,2.1-0.9
			c0.6-0.7,0.8-1.9,0.8-3.2v-1.6c0-2,0-2.4,0-2.8c0-0.4-0.1-0.7-0.6-0.7c-0.1,0-0.3,0-0.4,0c-0.1,0-0.1,0-0.1-0.1
			c0-0.1,0.1-0.1,0.2-0.1c0.6,0,1.3,0,1.4,0c0.1,0,0.7,0,1.1,0c0.1,0,0.2,0,0.2,0.1c0,0.1-0.1,0.1-0.1,0.1c-0.1,0-0.2,0-0.3,0
			c-0.4,0.1-0.5,0.3-0.5,0.7c0,0.4,0,0.8,0,2.8v1.4c0,1.4-0.2,3-1.2,3.9c-0.9,0.8-1.9,1-2.7,1c-0.4,0-1.8-0.1-2.7-0.9
			c-0.6-0.6-1.1-1.5-1.1-3.4V58.4z"/>
		<path id="XMLID_1117_" class="st1" d="M57.9,63c0,0.9,0.1,1.2,0.4,1.3c0.2,0.1,0.5,0.1,0.6,0.1c0.1,0,0.1,0,0.1,0.1
			c0,0.1-0.1,0.1-0.2,0.1c-0.7,0-1.1,0-1.2,0s-0.6,0-1.1,0c-0.1,0-0.2,0-0.2-0.1c0-0.1,0-0.1,0.1-0.1c0.1,0,0.3,0,0.5-0.1
			c0.3-0.1,0.3-0.4,0.3-1.4v-6.4c0-0.4,0.1-0.6,0.2-0.6c0.1,0,0.3,0.2,0.4,0.3c0.2,0.2,1.9,2,3.6,3.8c1.1,1.2,2.4,2.5,2.7,2.9
			L64,57.4c0-0.7-0.1-1-0.4-1c-0.2,0-0.5-0.1-0.6-0.1c-0.1,0-0.1-0.1-0.1-0.1c0-0.1,0.1-0.1,0.2-0.1c0.5,0,1.1,0,1.2,0
			c0.1,0,0.5,0,1,0c0.1,0,0.2,0,0.2,0.1c0,0-0.1,0.1-0.1,0.1c-0.1,0-0.1,0-0.3,0c-0.4,0.1-0.4,0.3-0.4,1l0,6.5c0,0.7,0,0.8-0.1,0.8
			c-0.1,0-0.2-0.1-0.9-0.7c-0.1-0.1-1.8-1.7-3-3c-1.3-1.4-2.6-2.8-3-3.2L57.9,63z"/>
		<path id="XMLID_1115_" class="st1" d="M69.1,61.3c0,1.1,0,2,0.1,2.4c0,0.3,0.1,0.5,0.4,0.6c0.2,0,0.4,0.1,0.5,0.1
			c0.1,0,0.1,0.1,0.1,0.1c0,0.1-0.1,0.1-0.2,0.1c-0.6,0-1.4,0-1.4,0c-0.1,0-0.8,0-1.1,0c-0.1,0-0.2,0-0.2-0.1c0,0,0-0.1,0.1-0.1
			c0.1,0,0.2,0,0.4-0.1c0.2-0.1,0.3-0.3,0.3-0.6c0.1-0.5,0.1-1.3,0.1-2.4v-2c0-1.7,0-2,0-2.4c0-0.4-0.1-0.6-0.4-0.6
			c-0.1,0-0.3,0-0.4,0c-0.1,0-0.1-0.1-0.1-0.1c0-0.1,0.1-0.1,0.2-0.1c0.4,0,1.1,0,1.2,0c0.1,0,0.8,0,1.2,0c0.1,0,0.2,0,0.2,0.1
			c0,0-0.1,0.1-0.1,0.1c-0.1,0-0.2,0-0.3,0c-0.3,0.1-0.4,0.2-0.4,0.6c0,0.4,0,0.7,0,2.4V61.3z"/>
		<path id="XMLID_1089_" class="st1" d="M75.7,63.1c0.7-1.5,2.2-5.3,2.4-6.1c0.1-0.2,0.1-0.3,0.1-0.4c0-0.1,0-0.2-0.2-0.2
			c-0.1,0-0.3,0-0.4,0c-0.1,0-0.1,0-0.1-0.1c0-0.1,0.1-0.1,0.3-0.1c0.5,0,1,0,1.1,0c0.1,0,0.6,0,0.9,0c0.1,0,0.2,0,0.2,0.1
			c0,0.1,0,0.1-0.1,0.1c-0.1,0-0.3,0-0.6,0.1c-0.2,0.1-0.3,0.3-0.6,1c-0.1,0.3-0.7,1.7-1.3,3c-0.7,1.6-1.2,2.8-1.5,3.4
			c-0.3,0.7-0.4,0.8-0.5,0.8c-0.1,0-0.2-0.1-0.4-0.7l-2.8-6.8c-0.3-0.6-0.4-0.7-0.8-0.8c-0.2,0-0.4,0-0.4,0c-0.1,0-0.1-0.1-0.1-0.1
			c0-0.1,0.1-0.1,0.3-0.1c0.6,0,1.2,0,1.4,0c0.1,0,0.6,0,1.1,0c0.2,0,0.3,0,0.3,0.1c0,0.1,0,0.1-0.1,0.1c-0.1,0-0.3,0-0.4,0.1
			c-0.1,0.1-0.1,0.1-0.1,0.2c0,0.1,0.1,0.5,0.3,0.9L75.7,63.1z"/>
		<path id="XMLID_1082_" class="st1" d="M81.7,59.4c0-1.7,0-2,0-2.4c0-0.4-0.1-0.6-0.5-0.6c-0.1,0-0.3,0-0.4,0c0,0-0.1-0.1-0.1-0.1
			c0-0.1,0.1-0.1,0.2-0.1c0.5,0,1.3,0,1.3,0c0.1,0,2.5,0,2.8,0c0.2,0,0.4-0.1,0.5-0.1c0.1,0,0.1-0.1,0.2-0.1c0,0,0.1,0.1,0.1,0.1
			c0,0.1-0.1,0.2-0.1,0.5c0,0.1,0,0.6-0.1,0.7c0,0.1-0.1,0.1-0.1,0.1c-0.1,0-0.1-0.1-0.1-0.1c0-0.1,0-0.3-0.1-0.4
			c-0.1-0.2-0.2-0.3-0.8-0.3c-0.2,0-1.5,0-1.7,0c-0.1,0-0.1,0-0.1,0.1v3c0,0.1,0,0.1,0.1,0.1c0.1,0,1.7,0,1.9,0c0.3,0,0.4,0,0.6-0.2
			c0.1-0.1,0.1-0.1,0.2-0.1c0,0,0.1,0,0.1,0.1s-0.1,0.2-0.1,0.6c0,0.2-0.1,0.6-0.1,0.7c0,0.1,0,0.2-0.1,0.2c-0.1,0-0.1,0-0.1-0.1
			c0-0.1,0-0.2-0.1-0.4c0-0.2-0.1-0.3-0.6-0.3c-0.3,0-1.5-0.1-1.7-0.1c-0.1,0-0.1,0-0.1,0.1v0.9c0,0.4,0,1.7,0,1.9
			c0,0.7,0.2,0.9,1.4,0.9c0.3,0,0.9,0,1.2-0.1c0.3-0.1,0.5-0.3,0.5-0.8c0-0.1,0.1-0.2,0.1-0.2c0.1,0,0.1,0.1,0.1,0.2
			c0,0.1-0.1,0.8-0.2,1.1c-0.1,0.3-0.2,0.3-0.6,0.3c-0.9,0-1.5,0-2,0c-0.5,0-0.8,0-1,0c0,0-0.2,0-0.5,0c-0.2,0-0.5,0-0.7,0
			c-0.1,0-0.2,0-0.2-0.1c0,0,0-0.1,0.1-0.1c0.1,0,0.2,0,0.4-0.1c0.2,0,0.2-0.3,0.3-0.6c0.1-0.5,0.1-1.3,0.1-2.4V59.4z"/>
		<path id="XMLID_1077_" class="st1" d="M88.9,59.4c0-1.7,0-2,0-2.4c0-0.4-0.1-0.6-0.5-0.6c-0.1,0-0.3,0-0.4,0c0,0-0.1-0.1-0.1-0.1
			c0-0.1,0.1-0.1,0.2-0.1c0.5,0,1.3,0,1.4,0c0.1,0,1.1,0,1.4,0c0.7,0,1.5,0.1,2.1,0.5c0.3,0.2,0.8,0.7,0.8,1.5
			c0,0.8-0.3,1.6-1.4,2.5c0.9,1.2,1.7,2.2,2.4,2.9c0.6,0.6,1,0.7,1.3,0.8c0.2,0,0.3,0,0.4,0c0.1,0,0.1,0.1,0.1,0.1
			c0,0.1-0.1,0.1-0.3,0.1h-0.7c-0.7,0-0.9-0.1-1.2-0.2c-0.5-0.3-0.9-0.8-1.6-1.6c-0.5-0.6-1-1.3-1.2-1.6C91.6,61,91.6,61,91.5,61
			L90,61c-0.1,0-0.1,0-0.1,0.1v0.3c0,1.1,0,1.9,0.1,2.4c0,0.3,0.1,0.5,0.5,0.6c0.2,0,0.4,0.1,0.5,0.1c0.1,0,0.1,0.1,0.1,0.1
			c0,0.1-0.1,0.1-0.2,0.1c-0.6,0-1.4,0-1.4,0c0,0-0.8,0-1.1,0c-0.1,0-0.2,0-0.2-0.1c0,0,0-0.1,0.1-0.1c0.1,0,0.2,0,0.4-0.1
			c0.2-0.1,0.2-0.3,0.3-0.6c0.1-0.5,0.1-1.3,0.1-2.4V59.4z M89.9,60.3c0,0.1,0,0.1,0.1,0.1c0.2,0.1,0.8,0.2,1.3,0.2
			c0.3,0,0.6,0,0.9-0.2c0.4-0.3,0.7-0.9,0.7-1.7c0-1.4-0.8-2.2-2-2.2c-0.3,0-0.7,0-0.8,0.1c-0.1,0-0.1,0.1-0.1,0.1V60.3z"/>
		<path id="XMLID_832_" class="st1" d="M96.7,64.4c-0.2-0.1-0.2-0.1-0.2-0.4c0-0.6,0.1-1,0.1-1.2c0-0.1,0-0.2,0.1-0.2
			c0.1,0,0.1,0,0.1,0.1s0,0.2,0,0.4c0.2,0.8,1,1.1,1.8,1.1c1.1,0,1.7-0.6,1.7-1.5c0-0.8-0.4-1.2-1.5-1.9l-0.5-0.4
			c-1.2-0.9-1.7-1.6-1.7-2.4c0-1.3,1-2.1,2.6-2.1c0.5,0,0.9,0.1,1.2,0.1c0.2,0.1,0.3,0.1,0.4,0.1c0.1,0,0.1,0,0.1,0.1
			c0,0.1-0.1,0.4-0.1,1.2c0,0.2,0,0.2-0.1,0.2c-0.1,0-0.1-0.1-0.1-0.1c0-0.1-0.1-0.4-0.2-0.6c-0.1-0.1-0.5-0.6-1.5-0.6
			c-0.8,0-1.5,0.4-1.5,1.2c0,0.7,0.4,1.1,1.5,1.9l0.3,0.2c1.4,1,1.9,1.7,1.9,2.7c0,0.7-0.2,1.4-1.1,1.9c-0.5,0.3-1.2,0.4-1.8,0.4
			C97.8,64.7,97.1,64.6,96.7,64.4z"/>
		<path id="XMLID_828_" class="st1" d="M105.3,61.3c0,1.1,0,2,0.1,2.4c0,0.3,0.1,0.5,0.4,0.6c0.2,0,0.4,0.1,0.5,0.1
			c0.1,0,0.1,0.1,0.1,0.1c0,0.1-0.1,0.1-0.2,0.1c-0.6,0-1.4,0-1.4,0c-0.1,0-0.8,0-1.1,0c-0.1,0-0.2,0-0.2-0.1c0,0,0-0.1,0.1-0.1
			c0.1,0,0.2,0,0.4-0.1c0.2-0.1,0.3-0.3,0.3-0.6c0.1-0.5,0.1-1.3,0.1-2.4v-2c0-1.7,0-2,0-2.4c0-0.4-0.1-0.6-0.4-0.6
			c-0.1,0-0.3,0-0.4,0c-0.1,0-0.1-0.1-0.1-0.1c0-0.1,0.1-0.1,0.2-0.1c0.4,0,1.1,0,1.2,0c0.1,0,0.8,0,1.2,0c0.1,0,0.2,0,0.2,0.1
			c0,0-0.1,0.1-0.1,0.1c-0.1,0-0.2,0-0.3,0c-0.3,0.1-0.4,0.2-0.4,0.6c0,0.4,0,0.7,0,2.4V61.3z"/>
		<path id="XMLID_820_" class="st1" d="M109.1,59.4c0-1.7,0-2,0-2.4c0-0.4-0.1-0.6-0.5-0.6c-0.1,0-0.3,0-0.4,0c0,0-0.1-0.1-0.1-0.1
			c0-0.1,0.1-0.1,0.2-0.1c0.5,0,1.3,0,1.3,0c0.1,0,0.9,0,1.5,0c1.2,0,3.3-0.1,4.6,1.3c0.6,0.6,1.1,1.5,1.1,2.8
			c0,1.4-0.6,2.5-1.2,3.1c-0.5,0.5-1.5,1.3-3.5,1.3c-0.5,0-1.1,0-1.6-0.1c-0.5,0-0.9-0.1-0.9-0.1c0,0-0.2,0-0.5,0
			c-0.2,0-0.5,0-0.7,0c-0.1,0-0.2,0-0.2-0.1c0,0,0-0.1,0.1-0.1c0.1,0,0.2,0,0.4-0.1c0.2-0.1,0.2-0.3,0.3-0.6
			c0.1-0.5,0.1-1.3,0.1-2.4V59.4z M110.1,60.6c0,1.2,0,2.2,0,2.4c0,0.3,0,0.7,0.1,0.8c0.1,0.2,0.6,0.4,1.9,0.4c1.1,0,2-0.4,2.7-1
			c0.6-0.6,0.9-1.6,0.9-2.6c0-1.4-0.6-2.3-1.1-2.8c-1.1-1.1-2.4-1.2-3.7-1.2c-0.2,0-0.6,0-0.7,0.1c-0.1,0-0.1,0.1-0.1,0.2V60.6z"/>
		<path id="XMLID_808_" class="st1" d="M121.3,56.3c0.1-0.4,0.2-0.4,0.3-0.4c0.1,0,0.2,0.2,0.3,0.4c0.2,0.5,2.1,5.1,2.8,6.8
			c0.4,1,0.7,1.1,1,1.2c0.2,0.1,0.3,0.1,0.5,0.1c0.1,0,0.1,0,0.1,0.1c0,0.1-0.1,0.1-0.3,0.1c-0.2,0-1,0-1.8,0c-0.2,0-0.4,0-0.4-0.1
			c0-0.1,0-0.1,0.1-0.1c0.1,0,0.2-0.1,0.1-0.3l-1-2.6c0-0.1,0-0.1-0.1-0.1h-2.7c-0.1,0-0.1,0-0.1,0.1l-0.7,1.8
			c-0.1,0.3-0.2,0.6-0.2,0.7c0,0.2,0.2,0.3,0.4,0.3h0.1c0.1,0,0.1,0,0.1,0.1c0,0.1-0.1,0.1-0.2,0.1c-0.3,0-0.9,0-1,0
			c-0.1,0-0.7,0-1.2,0c-0.1,0-0.2,0-0.2-0.1c0-0.1,0.1-0.1,0.1-0.1c0.1,0,0.2,0,0.3,0c0.5-0.1,0.7-0.5,1-1L121.3,56.3z M122.6,61
			C122.7,61,122.7,61,122.6,61l-1.1-3.1c-0.1-0.2-0.1-0.2-0.2,0l-1.1,3.1c0,0.1,0,0.1,0,0.1H122.6z"/>
		<path id="XMLID_790_" class="st1" d="M127.7,59.4c0-1.7,0-2,0-2.4c0-0.4-0.1-0.6-0.5-0.6c-0.1,0-0.3,0-0.4,0c0,0-0.1-0.1-0.1-0.1
			c0-0.1,0.1-0.1,0.2-0.1c0.5,0,1.3,0,1.3,0c0.1,0,0.9,0,1.5,0c1.2,0,3.3-0.1,4.6,1.3c0.6,0.6,1.1,1.5,1.1,2.8
			c0,1.4-0.6,2.5-1.2,3.1c-0.5,0.5-1.5,1.3-3.5,1.3c-0.5,0-1.1,0-1.6-0.1c-0.5,0-0.9-0.1-0.9-0.1c0,0-0.2,0-0.5,0
			c-0.2,0-0.5,0-0.7,0c-0.1,0-0.2,0-0.2-0.1c0,0,0-0.1,0.1-0.1c0.1,0,0.2,0,0.4-0.1c0.2-0.1,0.2-0.3,0.3-0.6
			c0.1-0.5,0.1-1.3,0.1-2.4V59.4z M128.8,60.6c0,1.2,0,2.2,0,2.4c0,0.3,0,0.7,0.1,0.8c0.1,0.2,0.6,0.4,1.9,0.4c1.1,0,2-0.4,2.7-1
			c0.6-0.6,0.9-1.6,0.9-2.6c0-1.4-0.6-2.3-1.1-2.8c-1.1-1.1-2.4-1.2-3.7-1.2c-0.2,0-0.6,0-0.7,0.1s-0.1,0.1-0.1,0.2V60.6z"/>
		<path id="XMLID_787_" class="st1" d="M47.8,74.5c0-2.5,0-3,0-3.5c0-0.5-0.1-0.8-0.7-0.9c-0.1,0-0.4,0-0.6,0
			c-0.1,0-0.1-0.1-0.1-0.1c0-0.1,0.1-0.1,0.3-0.1c0.8,0,1.8,0,1.9,0c0.2,0,1.2,0,2.2,0c1.7,0,4.7-0.2,6.7,1.8
			c0.8,0.8,1.6,2.2,1.6,4.1c0,2-0.9,3.6-1.8,4.5c-0.7,0.7-2.2,1.9-5.1,1.9c-0.7,0-1.6-0.1-2.3-0.1C49.2,82,48.7,82,48.6,82
			c0,0-0.3,0-0.7,0c-0.3,0-0.7,0-1,0c-0.2,0-0.3,0-0.3-0.1c0-0.1,0-0.1,0.1-0.1c0.2,0,0.4,0,0.5-0.1c0.3-0.1,0.4-0.4,0.4-0.9
			c0.1-0.7,0.1-1.9,0.1-3.5V74.5z M49.3,76.3c0,1.7,0,3.2,0,3.5c0,0.4,0.1,1,0.2,1.2c0.2,0.3,0.8,0.6,2.8,0.6c1.5,0,2.9-0.5,3.9-1.5
			c0.9-0.8,1.3-2.3,1.3-3.8c0-2-0.9-3.4-1.6-4c-1.6-1.6-3.4-1.8-5.4-1.8c-0.3,0-0.9,0.1-1,0.1c-0.2,0.1-0.2,0.1-0.2,0.3V76.3z"/>
		<path id="XMLID_772_" class="st1" d="M63,74.5c0-2.5,0-3,0-3.5c0-0.5-0.1-0.8-0.7-0.9c-0.1,0-0.4,0-0.6,0c-0.1,0-0.1-0.1-0.1-0.1
			c0-0.1,0.1-0.1,0.3-0.1c0.8,0,1.8,0,1.9,0c0.1,0,3.6,0,4,0c0.3,0,0.6-0.1,0.8-0.1c0.1,0,0.2-0.1,0.2-0.1c0.1,0,0.1,0.1,0.1,0.2
			c0,0.1-0.1,0.3-0.1,0.8c0,0.2-0.1,0.9-0.1,1.1c0,0.1-0.1,0.2-0.2,0.2c-0.1,0-0.1-0.1-0.1-0.2c0-0.1,0-0.4-0.1-0.6
			c-0.1-0.3-0.3-0.4-1.2-0.5c-0.3,0-2.2-0.1-2.4-0.1c-0.1,0-0.1,0.1-0.1,0.2v4.4c0,0.1,0,0.2,0.1,0.2c0.2,0,2.4,0,2.8,0
			c0.4,0,0.6-0.1,0.8-0.2c0.1-0.1,0.2-0.2,0.2-0.2s0.1,0,0.1,0.1c0,0.1-0.1,0.4-0.1,0.9c0,0.3-0.1,0.9-0.1,1c0,0.1,0,0.3-0.2,0.3
			c-0.1,0-0.1-0.1-0.1-0.2c0-0.2,0-0.3-0.1-0.5c-0.1-0.2-0.2-0.4-0.9-0.5c-0.5-0.1-2.2-0.1-2.5-0.1c-0.1,0-0.1,0.1-0.1,0.1v1.3
			c0,0.5,0,2.4,0,2.7c0,1.1,0.3,1.3,2,1.3c0.4,0,1.2,0,1.7-0.2c0.4-0.2,0.7-0.5,0.8-1.1c0-0.2,0.1-0.2,0.2-0.2
			c0.1,0,0.1,0.1,0.1,0.2s-0.1,1.2-0.2,1.6c-0.1,0.4-0.3,0.4-0.9,0.4c-1.2,0-2.2,0-2.9-0.1c-0.7,0-1.1,0-1.4,0c0,0-0.4,0-0.7,0
			c-0.3,0-0.7,0-1,0c-0.2,0-0.3,0-0.3-0.1c0-0.1,0-0.1,0.1-0.1c0.2,0,0.4-0.1,0.5-0.1c0.3-0.1,0.4-0.4,0.4-0.9
			c0.1-0.7,0.1-1.9,0.1-3.5V74.5z"/>
		<path id="XMLID_763_" class="st1" d="M80.1,80.3c-1.8-1.6-2.3-3.8-2.3-5.6c0-1.3,0.4-3.5,2.1-5.2c1.1-1.1,2.9-2,5.8-2
			c0.8,0,1.8,0.1,2.7,0.2c0.7,0.1,1.3,0.2,1.9,0.3c0.2,0,0.2,0.1,0.2,0.2c0,0.2-0.1,0.4-0.1,1.1c0,0.6,0,1.7-0.1,2
			c0,0.3-0.1,0.4-0.2,0.4c-0.1,0-0.2-0.1-0.2-0.4c0-0.7-0.3-1.5-0.8-1.9c-0.7-0.6-2.1-1.1-3.8-1.1c-2.5,0-3.7,0.7-4.4,1.4
			c-1.4,1.3-1.7,3-1.7,4.9c0,3.6,2.8,6.9,6.8,6.9c1.4,0,2.5-0.2,3.3-0.9c0.4-0.4,0.6-1.2,0.7-1.6c0-0.2,0.1-0.3,0.2-0.3
			c0.1,0,0.1,0.1,0.1,0.3c0,0.1-0.2,1.8-0.4,2.4c-0.1,0.4-0.2,0.4-0.5,0.5c-0.8,0.3-2.2,0.4-3.4,0.4C83.5,82.3,81.6,81.6,80.1,80.3z
			"/>
		<path id="XMLID_461_" class="st1" d="M105,77.4c0,1.6,0,2.8,0.1,3.5c0.1,0.5,0.1,0.8,0.6,0.9c0.2,0,0.6,0.1,0.7,0.1
			c0.1,0,0.2,0.1,0.2,0.1c0,0.1-0.1,0.1-0.3,0.1c-0.9,0-2-0.1-2.1-0.1c-0.1,0-1.2,0.1-1.6,0.1c-0.2,0-0.3,0-0.3-0.1
			c0-0.1,0-0.1,0.1-0.1c0.2,0,0.3,0,0.5-0.1c0.3-0.1,0.4-0.4,0.5-0.9c0.1-0.7,0.1-1.9,0.1-3.4v-1.6c0-0.1,0-0.1-0.1-0.1h-7
			c-0.1,0-0.1,0-0.1,0.1v1.6c0,1.6,0,2.8,0.1,3.4c0.1,0.5,0.1,0.8,0.6,0.9c0.2,0,0.6,0.1,0.8,0.1c0.1,0,0.1,0.1,0.1,0.1
			c0,0.1-0.1,0.1-0.3,0.1c-0.9,0-2-0.1-2.1-0.1c-0.1,0-1.2,0.1-1.7,0.1c-0.2,0-0.3,0-0.3-0.1c0-0.1,0-0.1,0.1-0.1
			c0.2,0,0.4,0,0.5-0.1c0.3-0.1,0.4-0.4,0.4-0.9c0.1-0.7,0.1-1.9,0.1-3.5v-2.8c0-2.5,0-3,0-3.5c0-0.5-0.1-0.8-0.7-0.9
			c-0.1,0-0.4,0-0.6,0c-0.1,0-0.1-0.1-0.1-0.1c0-0.1,0.1-0.1,0.3-0.1c0.8,0,1.8,0,1.9,0c0.1,0,1.1,0,1.6,0c0.2,0,0.3,0,0.3,0.1
			c0,0.1-0.1,0.1-0.1,0.1c-0.1,0-0.2,0-0.4,0c-0.5,0.1-0.5,0.3-0.6,0.9c0,0.5,0,1,0,3.5v0.3c0,0.1,0,0.1,0.1,0.1h7
			c0.1,0,0.1,0,0.1-0.1v-0.3c0-2.5,0-3,0-3.5c0-0.5-0.1-0.8-0.7-0.9c-0.1,0-0.4,0-0.6,0c-0.1,0-0.1-0.1-0.1-0.1
			c0-0.1,0.1-0.1,0.3-0.1c0.7,0,1.8,0,1.9,0c0.1,0,1.2,0,1.6,0c0.2,0,0.3,0,0.3,0.1c0,0.1-0.1,0.1-0.2,0.1c-0.1,0-0.2,0-0.4,0
			c-0.4,0.1-0.5,0.3-0.6,0.9c0,0.5,0,1,0,3.5V77.4z"/>
		<path id="XMLID_420_" class="st1" d="M112,77.4c0,1.6,0,2.8,0.1,3.5c0.1,0.5,0.1,0.8,0.6,0.9c0.2,0,0.6,0.1,0.8,0.1
			c0.1,0,0.1,0.1,0.1,0.1c0,0.1-0.1,0.1-0.3,0.1c-0.9,0-2-0.1-2.1-0.1c-0.1,0-1.1,0.1-1.6,0.1c-0.2,0-0.3,0-0.3-0.1
			c0-0.1,0-0.1,0.1-0.1c0.2,0,0.4,0,0.5-0.1c0.3-0.1,0.4-0.4,0.4-0.9c0.1-0.7,0.1-1.9,0.1-3.5v-2.8c0-2.5,0-3,0-3.5
			c0-0.5-0.2-0.8-0.5-0.9c-0.2,0-0.4-0.1-0.5-0.1c-0.1,0-0.1-0.1-0.1-0.1c0-0.1,0.1-0.1,0.3-0.1c0.5,0,1.6,0,1.7,0
			c0.1,0,1.2,0,1.7,0c0.2,0,0.3,0,0.3,0.1c0,0.1-0.1,0.1-0.1,0.1c-0.1,0-0.2,0-0.4,0c-0.5,0.1-0.5,0.3-0.6,0.9c0,0.5,0,1,0,3.5V77.4
			z"/>
		<path id="XMLID_418_" class="st1" d="M119,77.4c0,2.4,0,3.3,0.3,3.6c0.3,0.3,0.9,0.4,2.2,0.4c0.9,0,1.6,0,2-0.5
			c0.2-0.2,0.3-0.6,0.4-0.9c0-0.1,0.1-0.2,0.2-0.2c0.1,0,0.1,0.1,0.1,0.2s-0.1,1.1-0.2,1.6c-0.1,0.4-0.2,0.4-1.1,0.4
			c-1.2,0-2.1,0-2.9-0.1c-0.8,0-1.3,0-1.8,0c-0.1,0-0.4,0-0.7,0c-0.3,0-0.7,0-1,0c-0.2,0-0.3,0-0.3-0.1c0-0.1,0-0.1,0.1-0.1
			c0.2,0,0.4,0,0.5-0.1c0.3-0.1,0.4-0.4,0.4-0.9c0.1-0.7,0.1-1.9,0.1-3.5v-2.8c0-2.5,0-3,0-3.5c0-0.5-0.1-0.8-0.7-0.9
			c-0.1,0-0.4,0-0.6,0c-0.1,0-0.1-0.1-0.1-0.1c0-0.1,0.1-0.1,0.3-0.1c0.8,0,1.8,0,1.9,0c0.1,0,1.3,0,1.8,0c0.2,0,0.3,0,0.3,0.1
			c0,0.1-0.1,0.1-0.1,0.1c-0.1,0-0.4,0-0.5,0c-0.5,0.1-0.6,0.3-0.6,0.9c0,0.5,0,1,0,3.5V77.4z"/>
		<path id="XMLID_254_" class="st1" d="M127.6,74.5c0-2.5,0-3,0-3.5c0-0.5-0.1-0.8-0.7-0.9c-0.1,0-0.4,0-0.6,0
			c-0.1,0-0.1-0.1-0.1-0.1c0-0.1,0.1-0.1,0.3-0.1c0.8,0,1.8,0,1.9,0c0.1,0,3.6,0,4,0c0.3,0,0.6-0.1,0.8-0.1c0.1,0,0.2-0.1,0.2-0.1
			c0.1,0,0.1,0.1,0.1,0.2c0,0.1-0.1,0.3-0.1,0.8c0,0.2-0.1,0.9-0.1,1.1c0,0.1-0.1,0.2-0.2,0.2c-0.1,0-0.1-0.1-0.1-0.2
			c0-0.1,0-0.4-0.1-0.6c-0.1-0.3-0.3-0.4-1.2-0.5c-0.3,0-2.2-0.1-2.4-0.1c-0.1,0-0.1,0.1-0.1,0.2v4.4c0,0.1,0,0.2,0.1,0.2
			c0.2,0,2.4,0,2.8,0c0.4,0,0.6-0.1,0.8-0.2c0.1-0.1,0.2-0.2,0.2-0.2s0.1,0,0.1,0.1c0,0.1-0.1,0.4-0.1,0.9c0,0.3-0.1,0.9-0.1,1
			c0,0.1,0,0.3-0.2,0.3c-0.1,0-0.1-0.1-0.1-0.2c0-0.2,0-0.3-0.1-0.5c-0.1-0.2-0.2-0.4-0.9-0.5c-0.5-0.1-2.2-0.1-2.5-0.1
			c-0.1,0-0.1,0.1-0.1,0.1v1.3c0,0.5,0,2.4,0,2.7c0,1.1,0.3,1.3,2,1.3c0.4,0,1.2,0,1.7-0.2c0.4-0.2,0.7-0.5,0.8-1.1
			c0-0.2,0.1-0.2,0.2-0.2c0.1,0,0.1,0.1,0.1,0.2s-0.1,1.2-0.2,1.6c-0.1,0.4-0.3,0.4-0.9,0.4c-1.3,0-2.2,0-2.9-0.1
			c-0.7,0-1.1,0-1.4,0c0,0-0.4,0-0.7,0c-0.3,0-0.7,0-1,0c-0.2,0-0.3,0-0.3-0.1c0-0.1,0-0.1,0.1-0.1c0.2,0,0.4-0.1,0.5-0.1
			c0.3-0.1,0.4-0.4,0.4-0.9c0.1-0.7,0.1-1.9,0.1-3.5V74.5z"/>
	</g>
</g>
</svg>
