<?xml version="1.0" encoding="utf-8"?>
<!-- Generator: Adobe Illustrator 19.1.0, SVG Export Plug-In . SVG Version: 6.00 Build 0)  -->
<svg version="1.1" id="Capa_1" xmlns="http://www.w3.org/2000/svg" xmlns:xlink="http://www.w3.org/1999/xlink" x="0px" y="0px"
	 viewBox="-248 325.6 109.1 144.2" style="enable-background:new -248 325.6 109.1 144.2;" xml:space="preserve">
<style type="text/css">
	.st0{fill:#1C75F7;}
	.st1{enable-background:new    ;}
	.st2{fill:#FFFFFF;}
	.st3{fill:#0E3B7C;}
</style>
<g>
	<polygon class="st0" points="551.1,144.6 551.1,-16.8 660.2,-16.8 660.2,144.6 608.5,110.9 	"/>
</g>
<text transform="matrix(1 0 0 1 585.4968 60.8319)" class="st2" style="font-family:'Raleway-SemiBoldItalic'; font-size:18px;">Subir</text>
<text transform="matrix(1 0 0 1 564.3969 82.4319)" class="st2" style="font-family:'Raleway-SemiBoldItalic'; font-size:18px;">Propuesta</text>
<g>
	<polygon class="st3" points="-248,469.8 -248,325.6 -138.9,325.6 -138.9,469.8 -190.6,436.1 	"/>
</g>
<g>
	<path class="st2" d="M-236.6,389.5h5.1c0.5,0,0.9,0.1,1.3,0.3c0.4,0.2,0.7,0.5,0.9,0.8c0.3,0.3,0.5,0.7,0.6,1.1
		c0.1,0.4,0.2,0.8,0.2,1.3c0,0.6-0.1,1.2-0.4,1.8s-0.6,1.1-1,1.6c-0.4,0.5-0.9,0.8-1.5,1.1s-1.2,0.4-1.8,0.4h-3.2l-0.9,4.4h-2
		L-236.6,389.5z M-232.9,396c0.3,0,0.6-0.1,0.9-0.2c0.3-0.2,0.5-0.4,0.7-0.6c0.2-0.3,0.4-0.6,0.5-0.9c0.1-0.4,0.2-0.7,0.2-1.1
		c0-0.6-0.1-1-0.4-1.3c-0.3-0.3-0.6-0.5-1-0.5h-2.9l-1,4.8H-232.9z"/>
	<path class="st2" d="M-226.7,392.9h1.8l-0.5,2.1c0.5-0.6,1-1.2,1.5-1.6c0.6-0.4,1.1-0.6,1.7-0.6c0.1,0,0.2,0,0.3,0
		c0.1,0,0.1,0,0.2,0l-0.4,1.7c-0.7,0-1.4,0.2-2,0.5s-1.1,0.8-1.5,1.4l-1.2,5.8h-2L-226.7,392.9z"/>
	<path class="st2" d="M-218.6,402.4c-0.6,0-1.1-0.1-1.6-0.3c-0.5-0.2-0.8-0.5-1.2-0.8c-0.3-0.4-0.5-0.8-0.7-1.2s-0.2-1-0.2-1.5
		c0-0.8,0.1-1.5,0.5-2.2c0.3-0.7,0.7-1.3,1.2-1.9c0.5-0.5,1.1-1,1.8-1.3c0.7-0.3,1.5-0.5,2.3-0.5c0.6,0,1.1,0.1,1.6,0.3
		c0.5,0.2,0.9,0.5,1.2,0.8c0.3,0.4,0.6,0.8,0.7,1.3s0.2,1,0.2,1.5c0,0.7-0.2,1.5-0.5,2.2c-0.3,0.7-0.7,1.3-1.2,1.9s-1.1,1-1.8,1.3
		S-217.8,402.4-218.6,402.4z M-218.2,400.8c0.4,0,0.8-0.1,1.2-0.3c0.4-0.2,0.8-0.5,1.1-0.8c0.3-0.4,0.6-0.8,0.8-1.2
		c0.2-0.5,0.3-1,0.3-1.5c0-0.7-0.2-1.3-0.5-1.8c-0.4-0.5-0.9-0.7-1.5-0.7c-0.4,0-0.8,0.1-1.2,0.3s-0.8,0.5-1.1,0.8
		c-0.3,0.4-0.6,0.8-0.8,1.2c-0.2,0.5-0.3,1-0.3,1.5c0,0.7,0.2,1.3,0.5,1.8S-218.8,400.8-218.2,400.8z"/>
	<path class="st2" d="M-210.2,392.9h1.7l-0.4,1.7c0.5-0.6,1-1,1.6-1.3c0.6-0.3,1.3-0.5,1.9-0.5c0.5,0,1,0.1,1.4,0.3
		c0.4,0.2,0.8,0.5,1,0.8c0.3,0.4,0.5,0.8,0.6,1.2c0.1,0.5,0.2,1,0.2,1.5c0,0.8-0.1,1.5-0.4,2.2c-0.3,0.7-0.7,1.3-1.1,1.9
		c-0.5,0.5-1,1-1.6,1.3s-1.3,0.5-2,0.5c-0.7,0-1.3-0.2-1.8-0.5c-0.5-0.4-0.8-0.8-1-1.4l-1.2,5.6h-2L-210.2,392.9z M-207.3,400.8
		c0.4,0,0.9-0.1,1.3-0.3c0.4-0.2,0.8-0.5,1.1-0.9c0.3-0.4,0.5-0.8,0.7-1.2c0.2-0.5,0.3-0.9,0.3-1.4c0-0.3,0-0.7-0.1-1
		c-0.1-0.3-0.2-0.6-0.4-0.8s-0.4-0.4-0.7-0.5c-0.3-0.1-0.6-0.2-0.9-0.2c-0.2,0-0.5,0-0.8,0.1c-0.3,0.1-0.5,0.2-0.8,0.4
		c-0.3,0.2-0.5,0.4-0.7,0.6c-0.2,0.2-0.4,0.5-0.5,0.7l-0.5,2.5c0.1,0.6,0.3,1.1,0.7,1.5C-208.3,400.6-207.9,400.8-207.3,400.8z"/>
	<path class="st2" d="M-198.5,402.4c-1.5,0-2.2-0.8-2.2-2.3c0-0.4,0.1-0.9,0.2-1.5l1.2-5.8h2l-1.2,5.4c-0.1,0.4-0.1,0.7-0.1,1.1
		c0,1,0.4,1.5,1.2,1.5c0.5,0,1.1-0.2,1.6-0.5c0.5-0.3,1-0.9,1.4-1.5l1.2-5.9h2l-1.5,7.1c0,0.1-0.1,0.2-0.1,0.3
		c0,0.2,0.1,0.4,0.4,0.4l-0.3,1.7c-0.2,0-0.3,0-0.5,0.1c-0.1,0-0.3,0-0.4,0c-0.4,0-0.6-0.1-0.8-0.2c-0.2-0.1-0.3-0.4-0.3-0.7
		c0-0.1,0-0.2,0-0.4c0-0.2,0.1-0.4,0.1-0.7c-0.5,0.7-1.2,1.2-1.9,1.6S-197.8,402.4-198.5,402.4z"/>
	<path class="st2" d="M-186.6,402.4c-0.6,0-1.1-0.1-1.6-0.3s-0.9-0.5-1.2-0.8c-0.3-0.4-0.6-0.8-0.7-1.3s-0.3-1-0.3-1.6
		c0-0.8,0.1-1.5,0.4-2.2c0.3-0.7,0.7-1.3,1.2-1.8c0.5-0.5,1.1-1,1.9-1.3c0.7-0.3,1.5-0.5,2.3-0.5c1,0,1.7,0.2,2.3,0.7
		s0.9,1.1,0.9,1.9c0,2-1.8,3-5.3,3c-0.5,0-1.1,0-1.7-0.1v0.3c0,0.3,0,0.7,0.1,1c0.1,0.3,0.2,0.6,0.4,0.8c0.2,0.2,0.4,0.4,0.6,0.5
		c0.3,0.1,0.6,0.2,0.9,0.2c0.5,0,1-0.1,1.5-0.4c0.5-0.3,0.9-0.6,1.1-1.1l1.6,0.5c-0.2,0.4-0.5,0.7-0.8,1s-0.7,0.5-1.1,0.8
		c-0.4,0.2-0.8,0.4-1.3,0.5C-185.7,402.4-186.1,402.4-186.6,402.4z M-184.8,394.1c-0.4,0-0.8,0.1-1.2,0.2c-0.4,0.2-0.7,0.4-1,0.6
		c-0.3,0.3-0.5,0.5-0.7,0.9c-0.2,0.3-0.3,0.7-0.5,1c0.6,0,1.1,0.1,1.5,0.1c0.6,0,1.2,0,1.6-0.1c0.4-0.1,0.8-0.2,1.1-0.3
		c0.3-0.1,0.5-0.3,0.6-0.5c0.1-0.2,0.2-0.4,0.2-0.7c0-0.4-0.1-0.7-0.4-0.9C-183.9,394.2-184.3,394.1-184.8,394.1z"/>
	<path class="st2" d="M-177.6,402.4c-0.7,0-1.4-0.1-2.1-0.4c-0.7-0.2-1.2-0.6-1.6-1.1l1.1-1.3c0.9,0.8,1.9,1.2,2.9,1.2
		c0.6,0,1.1-0.1,1.5-0.4c0.4-0.3,0.6-0.6,0.6-1.1c0-0.3-0.2-0.6-0.5-0.7c-0.3-0.2-0.8-0.3-1.4-0.5c-0.5-0.1-0.9-0.3-1.2-0.4
		s-0.6-0.3-0.8-0.4s-0.4-0.3-0.5-0.5c-0.1-0.2-0.2-0.4-0.2-0.7c0-0.5,0.1-1,0.3-1.4c0.2-0.4,0.5-0.8,0.9-1.1
		c0.4-0.3,0.8-0.5,1.3-0.7s1-0.2,1.6-0.2c0.7,0,1.3,0.1,1.8,0.3c0.5,0.2,1,0.5,1.4,0.9l-1.1,1.2c-0.3-0.3-0.7-0.6-1.1-0.8
		c-0.4-0.2-0.8-0.3-1.3-0.3c-0.5,0-1,0.1-1.3,0.4c-0.4,0.3-0.6,0.6-0.6,1.2c0,0.3,0.1,0.5,0.4,0.7s0.7,0.3,1.3,0.5
		c0.5,0.1,0.9,0.3,1.3,0.4c0.4,0.1,0.7,0.3,0.9,0.5c0.2,0.2,0.4,0.4,0.5,0.6c0.1,0.2,0.2,0.5,0.2,0.8c0,0.5-0.1,1-0.3,1.4
		s-0.5,0.8-0.9,1.1s-0.8,0.5-1.4,0.7C-176.4,402.4-177,402.4-177.6,402.4z"/>
	<path class="st2" d="M-169.6,402.4c-0.5,0-0.9-0.1-1.3-0.4c-0.3-0.2-0.5-0.6-0.5-1.2c0-0.2,0-0.4,0.1-0.6l1.3-5.9h-1.2l0.3-1.5h1.2
		l0.7-3.1h2l-0.7,3.1h1.9l-0.3,1.5h-1.9l-1.1,5.3c0,0.1,0,0.2,0,0.3c0,0.2,0.1,0.4,0.2,0.5c0.1,0.1,0.3,0.2,0.5,0.2
		c0.3,0,0.5,0,0.8-0.1c0.3-0.1,0.4-0.2,0.6-0.2l0.1,1.6c-0.3,0.2-0.6,0.3-1.1,0.4S-169.2,402.4-169.6,402.4z"/>
	<path class="st2" d="M-162.5,402.4c-0.5,0-1-0.1-1.4-0.3s-0.8-0.5-1.1-0.8c-0.3-0.3-0.5-0.8-0.7-1.2c-0.1-0.5-0.2-1-0.2-1.5
		c0-0.8,0.1-1.5,0.4-2.2s0.7-1.3,1.1-1.9c0.5-0.5,1-1,1.7-1.3c0.6-0.3,1.3-0.5,2-0.5c0.7,0,1.3,0.2,1.7,0.5c0.5,0.4,0.8,0.8,1,1.4
		l0.4-1.8h2l-1.5,7.1c0,0.1,0,0.1,0,0.2s0,0.1,0,0.1c0,0.2,0.1,0.4,0.4,0.4l-0.4,1.7c-0.2,0-0.3,0-0.5,0.1c-0.1,0-0.3,0-0.4,0
		c-0.8,0-1.2-0.3-1.2-0.9c0-0.2,0-0.5,0.1-0.9c-0.5,0.6-1,1.1-1.7,1.4C-161.2,402.3-161.8,402.4-162.5,402.4z M-161.6,400.8
		c0.2,0,0.5,0,0.8-0.1c0.3-0.1,0.5-0.2,0.8-0.4c0.3-0.2,0.5-0.4,0.7-0.6c0.2-0.2,0.4-0.5,0.5-0.7l0.5-2.5c0-0.3-0.1-0.6-0.2-0.8
		s-0.3-0.5-0.5-0.6c-0.2-0.2-0.4-0.3-0.6-0.4c-0.2-0.1-0.5-0.2-0.7-0.2c-0.5,0-0.9,0.1-1.3,0.3c-0.4,0.2-0.8,0.5-1.1,0.9
		c-0.3,0.4-0.5,0.8-0.7,1.2c-0.2,0.5-0.3,0.9-0.3,1.4c0,0.4,0,0.7,0.1,1c0.1,0.3,0.2,0.6,0.4,0.8c0.2,0.2,0.4,0.4,0.7,0.5
		C-162.2,400.7-161.9,400.8-161.6,400.8z"/>
	<path class="st2" d="M-151.8,402.4c-0.7,0-1.4-0.1-2.1-0.4c-0.7-0.2-1.2-0.6-1.6-1.1l1.1-1.3c0.9,0.8,1.9,1.2,2.9,1.2
		c0.6,0,1.1-0.1,1.5-0.4c0.4-0.3,0.6-0.6,0.6-1.1c0-0.3-0.2-0.6-0.5-0.7c-0.3-0.2-0.8-0.3-1.4-0.5c-0.5-0.1-0.9-0.3-1.2-0.4
		s-0.6-0.3-0.8-0.4s-0.4-0.3-0.5-0.5c-0.1-0.2-0.2-0.4-0.2-0.7c0-0.5,0.1-1,0.3-1.4c0.2-0.4,0.5-0.8,0.9-1.1
		c0.4-0.3,0.8-0.5,1.3-0.7s1-0.2,1.6-0.2c0.7,0,1.3,0.1,1.8,0.3c0.5,0.2,1,0.5,1.4,0.9l-1.1,1.2c-0.3-0.3-0.7-0.6-1.1-0.8
		c-0.4-0.2-0.8-0.3-1.3-0.3c-0.5,0-1,0.1-1.3,0.4c-0.4,0.3-0.6,0.6-0.6,1.2c0,0.3,0.1,0.5,0.4,0.7s0.7,0.3,1.3,0.5
		c0.5,0.1,0.9,0.3,1.3,0.4c0.4,0.1,0.7,0.3,0.9,0.5c0.2,0.2,0.4,0.4,0.5,0.6c0.1,0.2,0.2,0.5,0.2,0.8c0,0.5-0.1,1-0.3,1.4
		s-0.5,0.8-0.9,1.1s-0.8,0.5-1.4,0.7C-150.6,402.4-151.2,402.4-151.8,402.4z"/>
</g>
</svg>
