<?xml version="1.0" encoding="utf-8"?>
<!-- Generator: Adobe Illustrator 19.1.0, SVG Export Plug-In . SVG Version: 6.00 Build 0)  -->
<svg version="1.1" id="Capa_1" xmlns="http://www.w3.org/2000/svg" xmlns:xlink="http://www.w3.org/1999/xlink" x="0px" y="0px"
	 viewBox="-247.9 325.6 109.1 144.2" style="enable-background:new -247.9 325.6 109.1 144.2;" xml:space="preserve">
<style type="text/css">
	.st0{fill:#1C75F7;}
	.st1{enable-background:new    ;}
	.st2{fill:#FFFFFF;}
	.st3{fill:#0E3B7C;}
</style>
<g>
	<polygon class="st0" points="660.1,383.4 660.1,222 769.2,222 769.2,383.4 717.5,349.7 	"/>
</g>
<text transform="matrix(1 0 0 1 694.5159 299.5954)" class="st2" style="font-family:'Raleway-SemiBoldItalic'; font-size:18px;">Subir</text>
<text transform="matrix(1 0 0 1 673.4158 321.1954)" class="st2" style="font-family:'Raleway-SemiBoldItalic'; font-size:18px;">Propuesta</text>
<g>
	<polygon class="st3" points="-247.9,469.8 -247.9,325.6 -138.8,325.6 -138.8,469.8 -190.6,436.1 	"/>
</g>
<g>
	<path class="st2" d="M-209,386.1c-0.9,0-1.8-0.1-2.6-0.4s-1.5-0.7-2.1-1.3l1.3-1.7c0.1,0.2,0.3,0.3,0.5,0.5
		c0.2,0.2,0.5,0.4,0.8,0.5c0.3,0.2,0.7,0.3,1.1,0.4c0.4,0.1,0.9,0.2,1.3,0.2c0.9,0,1.5-0.2,2-0.5c0.5-0.3,0.7-0.8,0.7-1.4
		c0-0.3-0.1-0.5-0.2-0.7c-0.1-0.2-0.3-0.4-0.6-0.5s-0.5-0.3-0.9-0.4s-0.7-0.2-1.2-0.4c-1-0.3-1.7-0.6-2.2-1c-0.5-0.4-0.7-1-0.7-1.7
		c0-0.7,0.1-1.4,0.4-1.9c0.3-0.6,0.7-1,1.2-1.4s1-0.7,1.7-0.9s1.3-0.3,2-0.3c0.8,0,1.6,0.1,2.2,0.4c0.6,0.3,1.2,0.6,1.6,1l-1.3,1.7
		c-0.1-0.1-0.2-0.3-0.4-0.4c-0.2-0.1-0.4-0.3-0.7-0.4c-0.3-0.1-0.6-0.2-0.9-0.3s-0.7-0.1-1-0.1c-0.9,0-1.6,0.2-2,0.6
		s-0.7,0.9-0.7,1.5c0,0.2,0.1,0.4,0.2,0.6c0.1,0.2,0.3,0.3,0.5,0.4c0.2,0.1,0.5,0.2,0.8,0.4s0.7,0.2,1.1,0.3c0.5,0.1,1,0.3,1.4,0.4
		c0.4,0.2,0.7,0.4,1,0.6c0.3,0.2,0.5,0.5,0.7,0.8c0.2,0.3,0.2,0.7,0.2,1.1c0,0.8-0.1,1.4-0.4,2c-0.3,0.6-0.7,1-1.2,1.4
		s-1.1,0.6-1.7,0.8S-208.3,386.1-209,386.1z"/>
	<path class="st2" d="M-200.1,386.2c-1.5,0-2.2-0.8-2.2-2.3c0-0.4,0.1-0.9,0.2-1.5l1.2-5.8h2l-1.2,5.4c-0.1,0.4-0.1,0.7-0.1,1.1
		c0,1,0.4,1.5,1.2,1.5c0.5,0,1.1-0.2,1.6-0.5c0.5-0.3,1-0.9,1.4-1.5l1.2-5.9h2l-1.5,7.1c0,0.1-0.1,0.2-0.1,0.3
		c0,0.2,0.1,0.4,0.4,0.4l-0.3,1.7c-0.2,0-0.3,0-0.5,0.1c-0.1,0-0.3,0-0.4,0c-0.4,0-0.6-0.1-0.8-0.2c-0.2-0.1-0.3-0.4-0.3-0.7
		c0-0.1,0-0.2,0-0.4c0-0.2,0.1-0.4,0.1-0.7c-0.5,0.7-1.2,1.2-1.9,1.6C-198.5,386-199.3,386.2-200.1,386.2z"/>
	<path class="st2" d="M-187.3,386.2c-0.7,0-1.3-0.2-1.8-0.5c-0.5-0.3-0.8-0.8-1-1.4l-0.4,1.7h-1.7l2.8-13.1h2l-1.2,5.5
		c0.5-0.6,1-1.1,1.6-1.4c0.6-0.4,1.3-0.5,1.9-0.5c0.5,0,1,0.1,1.3,0.3c0.4,0.2,0.7,0.5,1,0.8c0.3,0.3,0.5,0.8,0.6,1.2
		c0.1,0.5,0.2,1,0.2,1.5c0,0.8-0.2,1.6-0.5,2.3c-0.3,0.7-0.7,1.4-1.2,1.9s-1.1,1-1.7,1.3C-186,386-186.6,386.2-187.3,386.2z
		 M-187.4,384.5c0.4,0,0.8-0.1,1.3-0.3c0.4-0.2,0.8-0.5,1.1-0.9c0.3-0.4,0.6-0.8,0.8-1.2c0.2-0.5,0.3-1,0.3-1.5c0-0.3,0-0.7-0.1-1
		s-0.2-0.6-0.4-0.8s-0.4-0.4-0.6-0.5c-0.2-0.1-0.5-0.2-0.9-0.2c-0.3,0-0.6,0.1-0.8,0.2c-0.3,0.1-0.5,0.3-0.8,0.4s-0.5,0.4-0.7,0.6
		c-0.2,0.2-0.4,0.5-0.6,0.8l-0.5,2.5c0,0.5,0.2,1,0.6,1.3C-188.5,384.3-188,384.5-187.4,384.5z"/>
	<path class="st2" d="M-179.3,376.6h2l-2,9.4h-2L-179.3,376.6z M-178.5,372.9h2l-0.5,2.2h-2L-178.5,372.9z"/>
	<path class="st2" d="M-175,376.6h1.8l-0.5,2.1c0.5-0.6,1-1.2,1.5-1.6c0.6-0.4,1.1-0.6,1.7-0.6c0.1,0,0.2,0,0.3,0c0.1,0,0.1,0,0.2,0
		l-0.4,1.7c-0.7,0-1.4,0.2-2,0.5s-1.1,0.8-1.5,1.4l-1.2,5.8h-2L-175,376.6z"/>
	<path class="st2" d="M-231.3,394.8h5.1c0.5,0,0.9,0.1,1.3,0.3c0.4,0.2,0.7,0.5,0.9,0.8c0.3,0.3,0.5,0.7,0.6,1.1
		c0.1,0.4,0.2,0.8,0.2,1.3c0,0.6-0.1,1.2-0.4,1.8s-0.6,1.1-1,1.6c-0.4,0.5-0.9,0.8-1.5,1.1s-1.2,0.4-1.8,0.4h-3.2l-0.9,4.4h-2
		L-231.3,394.8z M-227.6,401.4c0.3,0,0.6-0.1,0.9-0.2c0.3-0.2,0.5-0.4,0.7-0.6c0.2-0.3,0.4-0.6,0.5-0.9c0.1-0.4,0.2-0.7,0.2-1.1
		c0-0.6-0.1-1-0.4-1.3c-0.3-0.3-0.6-0.5-1-0.5h-2.9l-1,4.8H-227.6z"/>
	<path class="st2" d="M-221.5,398.2h1.8l-0.5,2.1c0.5-0.6,1-1.2,1.5-1.6c0.6-0.4,1.1-0.6,1.7-0.6c0.1,0,0.2,0,0.3,0
		c0.1,0,0.1,0,0.2,0l-0.4,1.7c-0.7,0-1.4,0.2-2,0.5s-1.1,0.8-1.5,1.4l-1.2,5.8h-2L-221.5,398.2z"/>
	<path class="st2" d="M-213.3,407.8c-0.6,0-1.1-0.1-1.6-0.3c-0.5-0.2-0.8-0.5-1.2-0.8c-0.3-0.4-0.5-0.8-0.7-1.2s-0.2-1-0.2-1.5
		c0-0.8,0.1-1.5,0.5-2.2c0.3-0.7,0.7-1.3,1.2-1.9c0.5-0.5,1.1-1,1.8-1.3c0.7-0.3,1.5-0.5,2.3-0.5c0.6,0,1.1,0.1,1.6,0.3
		c0.5,0.2,0.9,0.5,1.2,0.8c0.3,0.4,0.6,0.8,0.7,1.3c0.2,0.5,0.2,1,0.2,1.5c0,0.7-0.2,1.5-0.5,2.2s-0.7,1.3-1.2,1.9s-1.1,1-1.8,1.3
		S-212.5,407.8-213.3,407.8z M-213,406.1c0.4,0,0.8-0.1,1.2-0.3c0.4-0.2,0.8-0.5,1.1-0.8c0.3-0.4,0.6-0.8,0.8-1.2
		c0.2-0.5,0.3-1,0.3-1.5c0-0.7-0.2-1.3-0.5-1.8c-0.4-0.5-0.9-0.7-1.5-0.7c-0.4,0-0.8,0.1-1.2,0.3s-0.8,0.5-1.1,0.8s-0.6,0.8-0.8,1.2
		c-0.2,0.5-0.3,1-0.3,1.5c0,0.7,0.2,1.3,0.5,1.8S-213.6,406.1-213,406.1z"/>
	<path class="st2" d="M-204.9,398.2h1.7l-0.4,1.7c0.5-0.6,1-1,1.6-1.3c0.6-0.3,1.3-0.5,1.9-0.5c0.5,0,1,0.1,1.4,0.3
		c0.4,0.2,0.8,0.5,1,0.8c0.3,0.4,0.5,0.8,0.6,1.2c0.1,0.5,0.2,1,0.2,1.5c0,0.8-0.1,1.5-0.4,2.2c-0.3,0.7-0.7,1.3-1.1,1.9
		c-0.5,0.5-1,1-1.6,1.3s-1.3,0.5-2,0.5c-0.7,0-1.3-0.2-1.8-0.5c-0.5-0.4-0.8-0.8-1-1.4l-1.2,5.6h-2L-204.9,398.2z M-202.1,406.1
		c0.4,0,0.9-0.1,1.3-0.3c0.4-0.2,0.8-0.5,1.1-0.9c0.3-0.4,0.5-0.8,0.7-1.2c0.2-0.5,0.3-0.9,0.3-1.4c0-0.3,0-0.7-0.1-1
		s-0.2-0.6-0.4-0.8c-0.2-0.2-0.4-0.4-0.7-0.5c-0.3-0.1-0.6-0.2-0.9-0.2c-0.2,0-0.5,0-0.8,0.1c-0.3,0.1-0.5,0.2-0.8,0.4
		c-0.3,0.2-0.5,0.4-0.7,0.6c-0.2,0.2-0.4,0.5-0.5,0.7l-0.5,2.5c0.1,0.6,0.3,1.1,0.7,1.5C-203.1,405.9-202.6,406.1-202.1,406.1z"/>
	<path class="st2" d="M-193.3,407.8c-1.5,0-2.2-0.8-2.2-2.3c0-0.4,0.1-0.9,0.2-1.5l1.2-5.8h2l-1.2,5.4c-0.1,0.4-0.1,0.7-0.1,1.1
		c0,1,0.4,1.5,1.2,1.5c0.5,0,1.1-0.2,1.6-0.5c0.5-0.3,1-0.9,1.4-1.5l1.2-5.9h2l-1.5,7.1c0,0.1-0.1,0.2-0.1,0.3
		c0,0.2,0.1,0.4,0.4,0.4l-0.3,1.7c-0.2,0-0.3,0-0.5,0.1c-0.1,0-0.3,0-0.4,0c-0.4,0-0.6-0.1-0.8-0.2c-0.2-0.1-0.3-0.4-0.3-0.7
		c0-0.1,0-0.2,0-0.4s0.1-0.4,0.1-0.7c-0.5,0.7-1.2,1.2-1.9,1.6S-192.5,407.8-193.3,407.8z"/>
	<path class="st2" d="M-181.3,407.8c-0.6,0-1.1-0.1-1.6-0.3s-0.9-0.5-1.2-0.8c-0.3-0.4-0.6-0.8-0.7-1.3s-0.3-1-0.3-1.6
		c0-0.8,0.1-1.5,0.4-2.2c0.3-0.7,0.7-1.3,1.2-1.8c0.5-0.5,1.1-1,1.9-1.3c0.7-0.3,1.5-0.5,2.3-0.5c1,0,1.7,0.2,2.3,0.7
		c0.6,0.4,0.9,1.1,0.9,1.9c0,2-1.8,3-5.3,3c-0.5,0-1.1,0-1.7-0.1v0.3c0,0.3,0,0.7,0.1,1c0.1,0.3,0.2,0.6,0.4,0.8
		c0.2,0.2,0.4,0.4,0.6,0.5c0.3,0.1,0.6,0.2,0.9,0.2c0.5,0,1-0.1,1.5-0.4c0.5-0.3,0.9-0.6,1.1-1.1l1.6,0.5c-0.2,0.4-0.5,0.7-0.8,1
		s-0.7,0.5-1.1,0.8c-0.4,0.2-0.8,0.4-1.3,0.5C-180.4,407.7-180.9,407.8-181.3,407.8z M-179.5,399.5c-0.4,0-0.8,0.1-1.2,0.2
		c-0.4,0.2-0.7,0.4-1,0.6c-0.3,0.3-0.5,0.5-0.7,0.9c-0.2,0.3-0.3,0.7-0.5,1c0.6,0,1.1,0.1,1.5,0.1c0.6,0,1.2,0,1.6-0.1
		c0.4-0.1,0.8-0.2,1.1-0.3c0.3-0.1,0.5-0.3,0.6-0.5c0.1-0.2,0.2-0.4,0.2-0.7c0-0.4-0.1-0.7-0.4-0.9
		C-178.6,399.6-179,399.5-179.5,399.5z"/>
	<path class="st2" d="M-172.4,407.8c-0.7,0-1.4-0.1-2.1-0.4c-0.7-0.2-1.2-0.6-1.6-1.1l1.1-1.3c0.9,0.8,1.9,1.2,2.9,1.2
		c0.6,0,1.1-0.1,1.5-0.4c0.4-0.3,0.6-0.6,0.6-1.1c0-0.3-0.2-0.6-0.5-0.7c-0.3-0.2-0.8-0.3-1.4-0.5c-0.5-0.1-0.9-0.3-1.2-0.4
		s-0.6-0.3-0.8-0.4s-0.4-0.3-0.5-0.5c-0.1-0.2-0.2-0.4-0.2-0.7c0-0.5,0.1-1,0.3-1.4c0.2-0.4,0.5-0.8,0.9-1.1
		c0.4-0.3,0.8-0.5,1.3-0.7s1-0.2,1.6-0.2c0.7,0,1.3,0.1,1.8,0.3c0.5,0.2,1,0.5,1.4,0.9l-1.1,1.2c-0.3-0.3-0.7-0.6-1.1-0.8
		c-0.4-0.2-0.8-0.3-1.3-0.3c-0.5,0-1,0.1-1.3,0.4c-0.4,0.3-0.6,0.6-0.6,1.2c0,0.3,0.1,0.5,0.4,0.7c0.3,0.2,0.7,0.3,1.3,0.5
		c0.5,0.1,0.9,0.3,1.3,0.4s0.7,0.3,0.9,0.5c0.2,0.2,0.4,0.4,0.5,0.6s0.2,0.5,0.2,0.8c0,0.5-0.1,1-0.3,1.4s-0.5,0.8-0.9,1.1
		s-0.8,0.5-1.4,0.7C-171.2,407.7-171.7,407.8-172.4,407.8z"/>
	<path class="st2" d="M-164.4,407.7c-0.5,0-0.9-0.1-1.3-0.4c-0.3-0.2-0.5-0.6-0.5-1.2c0-0.2,0-0.4,0.1-0.6l1.3-5.9h-1.2l0.3-1.5h1.2
		l0.7-3.1h2l-0.7,3.1h1.9l-0.3,1.5h-1.9l-1.1,5.3c0,0.1,0,0.2,0,0.3c0,0.2,0.1,0.4,0.2,0.5c0.1,0.1,0.3,0.2,0.5,0.2
		c0.3,0,0.5,0,0.8-0.1c0.3-0.1,0.4-0.2,0.6-0.2l0.1,1.6c-0.3,0.2-0.6,0.3-1.1,0.4S-163.9,407.7-164.4,407.7z"/>
	<path class="st2" d="M-157.2,407.8c-0.5,0-1-0.1-1.4-0.3s-0.8-0.5-1.1-0.8c-0.3-0.3-0.5-0.8-0.7-1.2c-0.1-0.5-0.2-1-0.2-1.5
		c0-0.8,0.1-1.5,0.4-2.2s0.7-1.3,1.1-1.9c0.5-0.5,1-1,1.7-1.3c0.6-0.3,1.3-0.5,2-0.5c0.7,0,1.3,0.2,1.7,0.5c0.5,0.4,0.8,0.8,1,1.4
		l0.4-1.8h2l-1.5,7.1c0,0.1,0,0.1,0,0.2s0,0.1,0,0.1c0,0.2,0.1,0.4,0.4,0.4l-0.4,1.7c-0.2,0-0.3,0-0.5,0.1c-0.1,0-0.3,0-0.4,0
		c-0.8,0-1.2-0.3-1.2-0.9c0-0.2,0-0.5,0.1-0.9c-0.5,0.6-1,1.1-1.7,1.4C-155.9,407.6-156.6,407.8-157.2,407.8z M-156.3,406.1
		c0.2,0,0.5,0,0.8-0.1c0.3-0.1,0.5-0.2,0.8-0.4c0.3-0.2,0.5-0.4,0.7-0.6c0.2-0.2,0.4-0.5,0.5-0.7l0.5-2.5c0-0.3-0.1-0.6-0.2-0.8
		s-0.3-0.5-0.5-0.6c-0.2-0.2-0.4-0.3-0.6-0.4c-0.2-0.1-0.5-0.2-0.7-0.2c-0.5,0-0.9,0.1-1.3,0.3c-0.4,0.2-0.8,0.5-1.1,0.9
		c-0.3,0.4-0.5,0.8-0.7,1.2c-0.2,0.5-0.3,0.9-0.3,1.4c0,0.4,0,0.7,0.1,1c0.1,0.3,0.2,0.6,0.4,0.8c0.2,0.2,0.4,0.4,0.7,0.5
		C-157,406-156.7,406.1-156.3,406.1z"/>
</g>
</svg>
