<?xml version="1.0" encoding="utf-8"?>
<!-- Generator: Adobe Illustrator 19.1.0, SVG Export Plug-In . SVG Version: 6.00 Build 0)  -->
<svg version="1.1" id="Capa_1" xmlns="http://www.w3.org/2000/svg" xmlns:xlink="http://www.w3.org/1999/xlink" x="0px" y="0px"
	 viewBox="0 0 664.2 102.1" style="enable-background:new 0 0 664.2 102.1;" xml:space="preserve">
<style type="text/css">
	.st0{fill:#1558B9;}
	.st1{fill:#1C75F7;}
	.st2{fill:#071D3E;}
	.st3{fill:#10428B;}
	.st4{fill:#FFFFFF;}
</style>
<g>
	<g>
		<polygon class="st0" points="72.8,98.7 0,98.7 23,68.6 0,38.5 72.8,38.5 		"/>
		<polygon class="st0" points="664.2,98.7 591.4,98.7 591.4,38.5 664.2,38.5 641.2,68.6 		"/>
		<rect x="37.1" y="9.7" class="st1" width="592.6" height="72.6"/>
		<polygon class="st2" points="591.4,98.7 629.7,82.3 591.4,82.3 		"/>
		<polygon class="st2" points="37.1,82.3 72.8,82.3 72.8,98.7 		"/>
	</g>
	<g>
		<path class="st3" d="M56.4,32.9c0.4-1.2,0.9-2.2,1.6-2.8c0.7-0.6,1.5-1,2.3-1c0.9,0,1.7,0.2,2.4,0.6c0.7,0.4,1,1,1,1.9
			c0,1.7-0.2,3.3-0.7,4.7c-0.4,1.4-1,2.6-1.7,3.8c-0.7,1.1-1.5,2.2-2.4,3.1c-0.9,1-1.9,1.9-2.8,2.7c-1,0.9-1.9,1.7-2.8,2.6
			c-0.9,0.9-1.7,1.8-2.4,2.8c-0.7,1-1.3,2-1.7,3.2c-0.4,1.1-0.7,2.4-0.7,3.9c0,1.2,0.1,2.3,0.4,3.1c0.3,0.8,0.6,1.5,1.1,1.9
			s1,0.8,1.6,1c0.6,0.2,1.3,0.3,2,0.3c0.7,0,1.5-0.1,2.2-0.4c0.8-0.3,1.5-0.6,2.3-1.1c0.7-0.4,1.4-0.9,2-1.5
			c0.6-0.6,1.1-1.1,1.6-1.7c0.4-0.5,0.8-0.8,1.2-1s0.9-0.3,1.4-0.3c0.5,0,1,0.1,1.4,0.3s0.9,0.6,1.2,1c0.3,0.4,0.6,0.9,0.8,1.4
			c0.2,0.5,0.3,1.1,0.3,1.7c0,0.3,0,0.6-0.1,0.9c-0.1,0.3-0.2,0.6-0.4,0.9c-0.8,1.2-1.7,2.2-2.7,3.1c-1.1,0.9-2.2,1.7-3.4,2.3
			c-1.2,0.6-2.5,1.1-3.8,1.4c-1.3,0.3-2.6,0.5-3.9,0.5c-1.6,0-3.2-0.3-4.9-0.8C47,70.9,45.4,70.1,44,69c-1.4-1.1-2.6-2.4-3.5-4
			S39,61.4,39,59.1c0-2.7,0.3-5.1,1-7c0.6-1.9,1.5-3.6,2.5-5.1c1-1.4,2.2-2.7,3.5-3.8c1.3-1.1,2.6-2.2,3.9-3.2
			c1.3-1,2.5-2.1,3.6-3.2C54.7,35.7,55.6,34.4,56.4,32.9z M55,17.7c0-0.1,0-0.4,0-0.8c0-0.4,0.1-0.9,0.3-1.4
			c0.1-0.5,0.4-1.1,0.7-1.7c0.3-0.6,0.7-1.2,1.3-1.7c0.5-0.5,1.2-0.9,2-1.3c0.8-0.3,1.8-0.5,3-0.5c1,0,1.8,0.1,2.6,0.4
			c0.8,0.2,1.4,0.6,2,1.1c0.6,0.5,1,1.1,1.3,1.9s0.5,1.7,0.5,2.8c0,0.9-0.1,1.8-0.4,2.7c-0.3,0.9-0.7,1.7-1.3,2.4
			c-0.6,0.7-1.3,1.2-2.2,1.7c-0.9,0.4-2,0.6-3.2,0.6c-2.1,0-3.8-0.5-4.9-1.6C55.6,21.2,55,19.7,55,17.7z"/>
		<path class="st3" d="M141.8,59.1c-1.3,0.5-2.5,1.3-3.7,2.1c-1.2,0.9-2.4,1.9-3.6,2.9c-1.2,1.1-2.5,2.2-3.8,3.3
			c-1.3,1.2-2.7,2.3-4.2,3.5c-1.5,1.1-3.1,2.2-4.9,3.3c-1.8,1-3.7,2-5.9,2.7c-2.1,0.8-4.5,1.4-7.1,1.9c-2.6,0.5-5.4,0.7-8.6,0.7
			c-3.5,0-6.6-0.7-9.4-2.1c-2.8-1.4-5.2-3.3-7.2-5.7c-2-2.4-3.5-5.1-4.6-8.3c-1.1-3.1-1.6-6.5-1.6-9.9c0-2.4,0.3-4.9,0.8-7.6
			c0.5-2.7,1.3-5.5,2.2-8.3c1-2.8,2.1-5.6,3.5-8.4c1.4-2.8,3-5.5,4.7-8.1c1.8-2.6,3.7-5,5.8-7.2c2.1-2.2,4.4-4.1,6.8-5.7
			c2.4-1.6,4.9-2.9,7.6-3.8c2.6-0.9,5.4-1.4,8.3-1.4c1.9,0,3.7,0.3,5.6,1c1.9,0.7,3.6,1.7,5.1,3c1.5,1.4,2.8,3.1,3.7,5.2
			c1,2.1,1.4,4.5,1.4,7.4c0,1.9-0.3,3.8-0.9,5.8c-0.6,1.9-1.4,3.8-2.5,5.6c-1.1,1.8-2.3,3.5-3.7,5c-1.4,1.6-3,2.9-4.6,4.1
			c-1.6,1.1-3.4,2.1-5.1,2.7c-1.8,0.7-3.5,1-5.3,1c-2.3,0-4.1-0.3-5.2-0.9c-1.2-0.6-1.7-1.5-1.7-2.7c0-0.2,0-0.5,0-0.7
			c0-0.3,0-0.6,0-0.9c0-0.5,0-0.9,0.1-1.4c0.1-0.5,0.2-1,0.3-1.4c0.2-0.4,0.4-0.7,0.7-1c0.3-0.3,0.7-0.4,1.2-0.4
			c0.3,0,0.6,0,0.8,0.1c0.2,0.1,0.5,0.2,0.8,0.3c0.3,0.1,0.6,0.2,1,0.3c0.4,0.1,0.9,0.1,1.5,0.1c1.6,0,3.3-0.4,5-1.1
			c1.7-0.7,3.2-1.7,4.6-3c1.3-1.3,2.5-2.9,3.3-4.7c0.9-1.8,1.3-3.8,1.3-6c0-1.2-0.2-2.3-0.5-3.3c-0.3-1-0.8-2-1.5-2.7
			c-0.7-0.8-1.6-1.4-2.7-1.9c-1.1-0.5-2.4-0.7-4-0.7c-1.9,0-3.7,0.4-5.4,1.2c-1.8,0.8-3.5,1.9-5.1,3.3s-3.2,3-4.6,4.9
			c-1.5,1.9-2.8,3.9-4,6.1c-1.2,2.2-2.3,4.4-3.3,6.8c-1,2.4-1.8,4.7-2.5,7c-0.7,2.3-1.2,4.6-1.6,6.8c-0.4,2.2-0.6,4.2-0.6,6.1
			c0,2.6,0.3,5,1,6.9c0.7,2,1.6,3.6,2.8,4.9c1.2,1.3,2.7,2.3,4.4,2.9c1.7,0.6,3.7,1,5.9,1c2.7,0,5.3-0.3,7.6-1
			c2.4-0.7,4.6-1.6,6.7-2.7c2.1-1.1,4.2-2.4,6.2-3.7c2-1.4,4-2.8,6-4.2c2-1.4,4-2.7,6.1-4c2.1-1.3,4.3-2.3,6.6-3.2V59.1z"/>
		<path class="st3" d="M157.8,43.2c0.7,1.5,1.3,3.1,1.7,4.7c0.4,1.7,0.6,3.2,0.6,4.8s-0.2,3-0.5,4.6c-0.3,1.5-0.8,3-1.4,4.5
			c-0.6,1.4-1.4,2.8-2.3,4.1c-0.9,1.3-2,2.4-3.1,3.3c-1.2,0.9-2.4,1.7-3.8,2.2c-1.4,0.5-2.9,0.8-4.4,0.8c-2.3,0-4.2-0.5-5.8-1.5
			c-1.6-1-2.9-2.3-4-3.9c-1-1.6-1.8-3.4-2.3-5.4c-0.5-2-0.7-4-0.7-6.1c0-2.8,0.4-5.5,1.3-7.9c0.8-2.5,2.1-4.6,3.6-6.4
			c1.6-1.8,3.5-3.2,5.8-4.3c2.3-1,4.9-1.6,7.7-1.6c2.4,0,4.7,0.4,6.9,1.1c2.1,0.8,4.1,1.8,6,3c1.9,1.3,3.6,2.7,5.2,4.4
			c1.6,1.6,3.1,3.3,4.5,5.1l-0.7,5.4c-0.7-0.9-1.6-1.9-2.8-3c-1.2-1.1-2.4-2.1-3.8-3.2c-1.3-1-2.6-2-3.9-2.9
			c-1.3-0.9-2.4-1.7-3.3-2.3L157.8,43.2z M145.9,64.7c0.9,0,1.7-0.4,2.5-1.3c0.8-0.9,1.5-2,2.2-3.4c0.6-1.4,1.1-2.8,1.5-4.5
			c0.4-1.6,0.6-3.2,0.6-4.7c0-1.2-0.1-2.3-0.3-3.3c-0.2-1-0.5-1.9-0.8-2.6c-0.4-0.7-0.8-1.3-1.4-1.8c-0.6-0.4-1.2-0.7-2-0.7
			c-1.1,0-2.1,0.5-3,1.3c-1,0.9-1.8,2.1-2.5,3.5c-0.7,1.4-1.3,3-1.7,4.6c-0.4,1.7-0.6,3.3-0.6,4.9c0,1.1,0.1,2.1,0.3,3
			c0.2,1,0.5,1.8,1,2.5c0.4,0.7,1,1.3,1.7,1.7C144.1,64.5,144.9,64.7,145.9,64.7z M147.5,24.3c0.2-0.3,0.4-0.8,0.7-1.5
			c0.3-0.7,0.6-1.5,1-2.3c0.4-0.9,0.8-1.8,1.2-2.8c0.4-1,0.9-2,1.3-3c1-2.3,2.1-4.8,3.3-7.5c0.3-0.9,0.8-1.5,1.5-1.9
			c0.7-0.4,1.4-0.6,2.1-0.6c0.7,0,1.3,0.1,2,0.4c0.7,0.3,1.3,0.6,1.8,1.1c0.5,0.5,1,1,1.3,1.7c0.3,0.6,0.5,1.4,0.5,2.1
			c0,1.2-0.5,2.5-1.4,3.7c-0.5,0.7-1,1.4-1.7,2.2c-0.6,0.8-1.3,1.7-2,2.5c-0.7,0.9-1.4,1.8-2.1,2.6c-0.7,0.9-1.4,1.7-2,2.5
			c-0.6,0.8-1.2,1.5-1.8,2.1c-0.5,0.6-0.9,1.2-1.3,1.5c-0.4,0.5-0.9,0.9-1.3,1.1c-0.4,0.2-0.9,0.3-1.3,0.3c-0.6,0-1.1-0.2-1.6-0.7
			c-0.4-0.5-0.7-1.1-0.7-1.9c0-0.3,0-0.6,0.1-0.9C147.3,24.9,147.4,24.6,147.5,24.3z"/>
		<path class="st3" d="M183.9,64.9c0-0.3,0-0.8,0.1-1.4c0.1-0.6,0.1-1.3,0.2-2.1c0.1-0.8,0.2-1.6,0.3-2.5c0.1-0.9,0.3-1.8,0.4-2.6
			c0.3-2.1,0.6-4.3,1-6.6h-0.6c-0.3,0.4-0.7,1-1.1,1.7c-0.4,0.8-1,1.9-1.7,3.4c-0.7,1.5-1.6,3.4-2.8,5.8c-1.1,2.4-2.6,5.4-4.3,8.9
			c-0.5,1.1-1.1,1.8-1.8,2.1c-0.7,0.4-1.4,0.6-2.3,0.6c-1.1,0-1.9-0.2-2.5-0.7c-0.6-0.5-1.1-1.1-1.5-1.8c-0.3-0.8-0.6-1.6-0.7-2.6
			c-0.1-1-0.2-2-0.2-3c0-1.1,0.1-2.3,0.2-3.7c0.1-1.4,0.3-3,0.5-4.6c0.2-1.6,0.4-3.2,0.7-4.9c0.3-1.7,0.6-3.2,0.8-4.8
			c0.3-1.5,0.6-2.9,0.9-4.2c0.3-1.3,0.6-2.3,0.8-3.1c0.3-0.8,0.5-1.5,0.7-2c0.2-0.5,0.5-0.9,0.8-1.1c0.3-0.3,0.6-0.4,1.1-0.5
			c0.4-0.1,0.9-0.1,1.6-0.1c1,0,1.7,0,2.3,0.1c0.6,0.1,1,0.2,1.2,0.5c0.3,0.2,0.4,0.6,0.5,1.1c0.1,0.5,0.1,1.1,0.1,1.9
			c0,0.4,0,0.9-0.1,1.5c0,0.6-0.1,1.2-0.2,1.8s-0.2,1.3-0.3,2c-0.1,0.7-0.2,1.3-0.3,2c-0.2,1.5-0.5,3.1-0.7,4.7l0.4,0.5
			c0.1-0.1,0.3-0.6,0.8-1.5c0.5-0.9,1.1-2,1.9-3.2c0.7-1.3,1.5-2.6,2.4-4c0.8-1.4,1.7-2.6,2.4-3.6c0.7-1.1,1.5-1.9,2.4-2.6
			c0.8-0.7,1.8-1,3-1c1.1,0,2,0.3,2.8,0.9s1.2,1.5,1.2,2.7c0,1-0.1,2-0.2,2.9c-0.1,0.9-0.3,1.8-0.5,2.6c-0.2,0.8-0.4,1.7-0.6,2.5
			c-0.2,0.8-0.4,1.6-0.6,2.5c-0.1,0.6-0.2,1-0.2,1.1c0,0.2,0,0.3,0,0.3l0.4,0.5c0.1-0.1,0.3-0.6,0.9-1.4c0.5-0.9,1.2-2,2-3.2
			c0.8-1.3,1.6-2.6,2.5-4c0.9-1.4,1.7-2.6,2.5-3.7c0.7-1,1.5-1.9,2.2-2.6c0.7-0.7,1.7-1.1,2.7-1.1c1.2,0,2.2,0.3,3.1,0.9
			c0.8,0.6,1.3,1.5,1.3,2.7c0,1.8-0.1,3.5-0.3,5.1c-0.2,1.6-0.4,3.2-0.6,4.7s-0.4,3.1-0.6,4.7c-0.2,1.6-0.3,3.3-0.3,5
			c0,1.4,0.2,2.5,0.5,3.4c0.4,0.9,0.8,1.3,1.3,1.3c0.5,0,1.1-0.1,1.7-0.3c0.6-0.2,1.2-0.5,1.8-0.9s1.2-0.8,1.8-1.3
			c0.6-0.5,1.2-1,1.7-1.5c1.3-1.2,2.5-2.5,3.7-4l0.7,9.1c-1.1,0.9-2.3,1.8-3.4,2.8c-1.1,1-2.3,1.8-3.5,2.6c-1.2,0.8-2.6,1.4-4.1,1.9
			c-1.5,0.5-3.2,0.8-5.1,0.8c-0.9,0-1.7-0.3-2.3-0.9c-0.6-0.6-1.1-1.4-1.5-2.5s-0.7-2.4-0.8-3.8c-0.2-1.5-0.3-3.1-0.3-4.8
			c0-1.6,0.1-3.3,0.2-5.1c0.1-1.8,0.3-3.6,0.5-5.5h-0.6l-7.8,19.9c-0.7,1.1-1.4,1.8-2.2,2.2c-0.8,0.4-1.8,0.6-2.9,0.6
			c-0.8,0-1.5-0.2-2-0.7c-0.5-0.5-0.9-1-1.1-1.7c-0.3-0.7-0.5-1.5-0.5-2.3C183.9,66.5,183.9,65.7,183.9,64.9z"/>
		<path class="st3" d="M242.1,43.2c0.7,1.5,1.3,3.1,1.7,4.7c0.4,1.7,0.6,3.2,0.6,4.8s-0.2,3-0.5,4.6c-0.3,1.5-0.8,3-1.4,4.5
			c-0.6,1.4-1.4,2.8-2.3,4.1c-0.9,1.3-2,2.4-3.1,3.3c-1.2,0.9-2.4,1.7-3.8,2.2c-1.4,0.5-2.9,0.8-4.4,0.8c-2.3,0-4.2-0.5-5.8-1.5
			c-1.6-1-2.9-2.3-4-3.9c-1-1.6-1.8-3.4-2.3-5.4c-0.5-2-0.7-4-0.7-6.1c0-2.8,0.4-5.5,1.3-7.9c0.8-2.5,2.1-4.6,3.6-6.4
			c1.6-1.8,3.5-3.2,5.8-4.3c2.3-1,4.9-1.6,7.7-1.6c2.4,0,4.7,0.4,6.9,1.1c2.1,0.8,4.1,1.8,6,3c1.9,1.3,3.6,2.7,5.2,4.4
			c1.6,1.6,3.1,3.3,4.5,5.1l-0.7,5.4c-0.7-0.9-1.6-1.9-2.8-3c-1.2-1.1-2.4-2.1-3.8-3.2c-1.3-1-2.6-2-3.9-2.9
			c-1.3-0.9-2.4-1.7-3.3-2.3L242.1,43.2z M230.2,64.7c0.9,0,1.7-0.4,2.5-1.3c0.8-0.9,1.5-2,2.2-3.4c0.6-1.4,1.1-2.8,1.5-4.5
			c0.4-1.6,0.6-3.2,0.6-4.7c0-1.2-0.1-2.3-0.3-3.3c-0.2-1-0.5-1.9-0.8-2.6c-0.4-0.7-0.8-1.3-1.4-1.8c-0.6-0.4-1.2-0.7-2-0.7
			c-1.1,0-2.1,0.5-3,1.3c-1,0.9-1.8,2.1-2.5,3.5c-0.7,1.4-1.3,3-1.7,4.6c-0.4,1.7-0.6,3.3-0.6,4.9c0,1.1,0.1,2.1,0.3,3
			c0.2,1,0.5,1.8,1,2.5c0.4,0.7,1,1.3,1.7,1.7C228.3,64.5,229.2,64.7,230.2,64.7z"/>
		<path class="st3" d="M288.9,65.3c2.6,0,5-0.3,7.1-0.8c2.1-0.5,4.1-1.2,5.8-2.1c1.7-0.9,3.3-1.9,4.7-3.1c1.4-1.2,2.7-2.4,3.8-3.8
			l0.4,8.8c-0.8,1-1.8,2-3,2.9c-1.2,0.9-2.4,1.8-3.8,2.5c-1.4,0.7-2.8,1.3-4.4,1.7c-1.5,0.4-3,0.6-4.5,0.6c-0.2,0-0.4,0-0.7-0.1
			c-0.3-0.1-0.7-0.1-1.4-0.3c-0.7-0.1-1.6-0.3-2.9-0.5c-1.2-0.2-2.9-0.5-5.1-0.8v0.7c0,4.7-0.4,8.9-1.2,12.7
			c-0.8,3.8-1.8,7.1-3.1,9.8c-1.3,2.7-2.8,4.8-4.5,6.2c-1.7,1.5-3.5,2.2-5.3,2.2c-1.5,0-2.7-0.4-3.7-1.1c-1-0.7-1.8-1.7-2.3-2.9
			c-0.6-1.2-1-2.6-1.2-4.3c-0.2-1.6-0.4-3.4-0.4-5.2c0-1.1,0.2-2.2,0.5-3.6c0.3-1.3,0.8-2.7,1.4-4.2c0.6-1.5,1.2-2.9,1.9-4.4
			c0.7-1.5,1.4-3,2.2-4.4c1.7-3.3,3.7-6.7,6-10.2c0.3-2,0.6-4.1,0.9-6.2c0.3-2.1,0.7-4.2,1.1-6.1c0.4-2,1-3.9,1.7-5.6
			c0.7-1.8,1.6-3.3,2.6-4.6c1.1-1.3,2.3-2.4,3.8-3.1c1.5-0.8,3.3-1.2,5.4-1.2c1.6,0,3,0.2,4.4,0.6c1.4,0.4,2.6,1.1,3.6,2.1
			c1,1,1.8,2.2,2.4,3.7c0.6,1.5,0.9,3.4,0.9,5.5c0,1.7-0.3,3.4-0.8,5.1c-0.5,1.6-1.3,3.2-2.4,4.7c-1.1,1.5-2.5,2.9-4.2,4.2
			c-1.7,1.3-3.7,2.5-6,3.5L288.9,65.3z M270.6,89.1c0,0.2,0,0.5,0.1,1c0.1,0.5,0.2,0.9,0.4,1.4c0.2,0.5,0.5,0.9,0.8,1.2
			c0.3,0.4,0.7,0.5,1.2,0.5c0.4,0,0.8-0.2,1.1-0.7c0.3-0.5,0.5-1.1,0.7-1.9c0.2-0.8,0.3-1.7,0.4-2.7c0.1-1,0.1-2,0.2-3.1
			c0.1-1.1,0.1-2.1,0.1-3.1c0-1,0-1.9,0.1-2.7c0.1-1.4,0.1-2.6,0.2-3.5c0-1,0.1-1.8,0.1-2.4c0-0.7,0.1-1.3,0.1-1.8
			c-0.5,0.8-1,1.8-1.4,3c-0.5,1.1-0.9,2.3-1.3,3.5c-0.4,1.2-0.8,2.4-1.1,3.6c-0.3,1.2-0.6,2.3-0.9,3.4c-0.2,1-0.4,1.9-0.6,2.7
			C270.7,88.3,270.6,88.8,270.6,89.1z M284,61.4c1.5-0.8,2.9-1.6,4-2.6c1.1-1,2.1-2,2.9-3c0.8-1.1,1.5-2.2,2-3.4
			c0.5-1.2,0.9-2.3,1.2-3.5c0.1-0.6,0.2-1.2,0.3-2c0-0.8,0-1.5-0.2-2.1c-0.2-0.7-0.5-1.2-1-1.7c-0.5-0.5-1.1-0.7-2-0.7
			c-1,0-1.8,0.3-2.5,0.8c-0.7,0.5-1.3,1.2-1.9,2.1c-0.5,0.9-1,2-1.3,3.2c-0.3,1.2-0.6,2.6-0.8,4c-0.2,1.4-0.4,2.9-0.5,4.4
			C284.1,58.3,284,59.8,284,61.4z"/>
		<path class="st3" d="M346.4,62.7c-0.6,0.8-1.4,1.8-2.4,2.9c-1,1.1-2.1,2.2-3.3,3.2s-2.6,1.9-4,2.5s-2.8,1-4.2,1
			c-1.7,0-3.1-0.5-4.2-1.6c-1.1-1.1-2.1-2.7-2.9-4.8c-0.6,0.7-1.4,1.5-2.3,2.2c-0.9,0.7-1.9,1.4-3,2c-1.1,0.6-2.2,1.1-3.3,1.5
			c-1.2,0.4-2.3,0.6-3.5,0.6c-1.2,0-2.4-0.3-3.6-0.8c-1.2-0.5-2.2-1.2-3.1-2.2c-0.9-0.9-1.6-2.1-2.2-3.4c-0.5-1.3-0.8-2.9-0.8-4.6
			c0-1.9,0.3-3.9,0.8-5.9s1.3-4,2.2-6c1-1.9,2.1-3.8,3.4-5.5c1.3-1.7,2.7-3.2,4.3-4.5c1.5-1.3,3.2-2.3,4.9-3.1
			c1.7-0.8,3.5-1.1,5.2-1.1c0.6,0,1.1,0.1,1.4,0.3c0.3,0.2,0.6,0.5,0.8,0.8c0.2,0.3,0.4,0.6,0.6,0.9c0.2,0.3,0.5,0.5,0.8,0.6
			c0.3,0.1,0.6,0.2,0.9,0.3c0.3,0,0.6,0.1,1,0.1c0.3,0,0.6,0,0.9,0c0.3,0,0.6,0,0.9,0c0.4,0,0.7,0,1.1,0.1c0.3,0.1,0.6,0.2,0.9,0.5
			c0.3,0.3,0.5,0.6,0.6,1.1s0.2,1.1,0.2,1.9c0,1.2-0.1,2.6-0.4,4.1c-0.3,1.5-0.5,3-0.8,4.6c-0.3,1.6-0.6,3.2-0.8,4.7
			c-0.3,1.6-0.4,3.1-0.4,4.5c0,1.2,0.1,2.2,0.3,2.8c0.2,0.7,0.7,1,1.4,1c0.5,0,1.1-0.1,1.7-0.4c0.6-0.3,1.2-0.6,1.8-1.1
			c0.6-0.4,1.2-0.9,1.8-1.5c0.6-0.6,1.2-1.1,1.7-1.7c1.3-1.4,2.5-3,3.8-4.7L346.4,62.7z M313.5,59.6c0,0.6,0,1.3,0.1,1.9
			c0.1,0.6,0.3,1.1,0.5,1.6s0.5,0.9,0.9,1.2s0.9,0.4,1.5,0.4c1,0,1.8-0.4,2.6-1.2c0.8-0.8,1.4-1.8,2-3c0.6-1.2,1-2.4,1.4-3.6
			c0.3-1.2,0.6-2.3,0.7-3.1l2.4-11.3c-1.1,0-2.1,0.3-3.1,0.8s-1.9,1.2-2.8,2.1c-0.9,0.9-1.7,1.9-2.4,3.1c-0.7,1.2-1.4,2.4-1.9,3.6
			c-0.5,1.3-1,2.6-1.3,3.8C313.6,57.3,313.5,58.5,313.5,59.6z"/>
		<path class="st3" d="M341.9,64.1c0-1.1,0.1-2.4,0.2-4c0.1-1.5,0.3-3.1,0.5-4.8c0.2-1.7,0.5-3.4,0.8-5.1c0.3-1.7,0.6-3.4,0.9-5
			c0.3-1.6,0.7-3,1-4.3c0.3-1.3,0.7-2.4,1-3.2c0.2-0.6,0.4-1,0.6-1.3s0.4-0.6,0.7-0.8c0.3-0.2,0.6-0.3,1-0.4s0.9-0.1,1.5-0.1
			c0.7,0,1.2,0,1.6,0.1c0.4,0.1,0.6,0.2,0.8,0.5c0.2,0.2,0.3,0.6,0.3,1.1c0,0.5,0.1,1.1,0.1,1.9c0,1,0,2.1,0,3.5c0,1.3,0,2.7,0.1,4
			h0.4c0.5-1,1.1-2.2,1.7-3.5c0.6-1.3,1.4-2.5,2.2-3.6c0.8-1.1,1.8-2,2.9-2.8c1.1-0.8,2.3-1.1,3.7-1.1c0.5,0,1,0.1,1.4,0.3
			s0.9,0.4,1.2,0.7c0.3,0.3,0.6,0.7,0.8,1.1c0.2,0.5,0.3,1,0.3,1.5c0,0.4-0.1,1-0.2,1.8c-0.1,0.8-0.3,1.6-0.4,2.5
			c-0.2,0.9-0.3,1.7-0.4,2.5c-0.1,0.8-0.2,1.5-0.2,2c0,0.9,0.1,1.7,0.3,2.3s0.4,1.1,0.7,1.5c0.3,0.4,0.6,0.6,1,0.8s0.8,0.2,1.2,0.2
			c1.2,0,2.4-0.3,3.6-0.8c1.2-0.5,2.4-1.1,3.4-1.7c1.2-0.7,2.4-1.6,3.5-2.5l-0.6,9c-0.7,0.4-1.4,0.9-2.3,1.5c-0.8,0.5-1.8,1-2.7,1.5
			c-1,0.5-2,0.9-3,1.2c-1,0.3-2.1,0.5-3.2,0.5c-1.9,0-3.5-0.4-4.7-1.2c-1.2-0.8-2.1-1.8-2.8-3.1c-0.7-1.3-1.2-2.7-1.5-4.3
			c-0.3-1.6-0.6-3.2-0.8-4.8H358l-6.9,19.2c-0.4,1-0.7,1.8-1,2.5c-0.3,0.7-0.6,1.2-1,1.6c-0.3,0.4-0.7,0.7-1.1,0.9
			c-0.4,0.2-0.8,0.3-1.3,0.3c-1.1,0-1.9-0.2-2.5-0.7c-0.6-0.5-1.1-1.1-1.5-1.8c-0.3-0.8-0.6-1.6-0.7-2.6
			C341.9,66.1,341.9,65.1,341.9,64.1z"/>
		<path class="st3" d="M407.3,63.5c-2.5,1.4-4.7,2.7-6.6,3.8c-1.9,1.1-3.6,2-5.2,2.7c-1.5,0.7-2.8,1.3-4,1.6
			c-1.2,0.4-2.2,0.5-3.2,0.5c-2,0-3.7-0.6-5.2-1.8c-1.5-1.2-2.7-2.9-3.7-5.1c-1-2.2-1.8-4.9-2.3-8.1c-0.5-3.2-0.8-6.7-0.8-10.7
			c0-1.5,0.1-3.2,0.2-4.9c0.1-1.7,0.3-3.5,0.5-5.2c-0.8-0.1-1.4-0.2-1.8-0.3c-0.4-0.1-0.9-0.2-1.4-0.3c-0.5-0.1-1.1-0.2-1.8-0.3
			c-0.7-0.1-1.8-0.2-3.2-0.4c-0.6-0.1-1.1-0.2-1.4-0.4c-0.3-0.2-0.6-0.5-0.7-0.8s-0.2-0.6-0.3-0.9s0-0.6,0-0.8
			c0-0.5,0.3-0.9,0.8-1.2c0.5-0.3,1.1-0.5,1.9-0.6c0.8-0.1,1.6-0.2,2.6-0.2c0.9,0,1.8,0,2.7,0c0.9,0,1.6,0,2.3,0.1
			c0.7,0,1.2,0,1.4-0.1c0.7-3.5,1.6-6.8,2.6-10.1s2.3-6.1,3.6-8.7c1.3-2.5,2.8-4.6,4.3-6.1c1.6-1.5,3.2-2.3,4.9-2.3
			c1.1,0,2.1,0.3,3,0.9s1.7,1.4,2.3,2.5c0.6,1,1.1,2.2,1.5,3.6c0.3,1.4,0.5,2.8,0.5,4.3c0,1.3-0.2,2.6-0.5,4
			c-0.4,1.4-0.8,2.8-1.5,4.3c-0.6,1.5-1.3,2.9-2.2,4.4c-0.8,1.5-1.7,3-2.6,4.4c0.2,0,0.6,0,1.2,0.1c0.5,0,1.2,0,1.9,0.1
			c0.7,0,1.5,0.1,2.3,0.1c0.8,0,1.6,0.1,2.4,0.1s1.5,0.1,2.2,0.1c0.7,0,1.2,0.1,1.7,0.1c0.5,0,0.9,0.3,1.1,0.8
			c0.2,0.5,0.3,1.1,0.3,1.9c0,0.9-0.3,1.6-0.8,2.2c-0.5,0.6-1.1,0.8-1.7,0.8H390c-0.7,1-1.5,2-2.3,3s-1.5,1.9-2.1,2.7
			c-0.1,1.6-0.2,3.2-0.3,4.7c0,0.7-0.1,1.4-0.1,2.1c0,0.7-0.1,1.4-0.1,2.1c0,0.7,0,1.4-0.1,2c0,0.6,0,1.2,0,1.8
			c0,1.4,0.1,2.6,0.4,3.5c0.3,1,0.6,1.7,1.1,2.3c0.5,0.6,1.1,1,1.8,1.3c0.7,0.3,1.5,0.4,2.4,0.4c0.5,0,1.2-0.1,2-0.4
			c0.8-0.3,1.7-0.6,2.7-1.1c1-0.5,2-1,3-1.6s2.1-1.3,3.2-2c1-0.7,2-1.5,3-2.3c1-0.8,1.8-1.6,2.6-2.5V63.5z M395,14.6
			c0-0.3,0-0.6-0.1-0.9c0-0.3-0.1-0.7-0.3-1c-0.1-0.3-0.3-0.6-0.6-0.8c-0.3-0.2-0.7-0.3-1.1-0.3c-0.7,0-1.3,0.6-2,1.8
			c-0.7,1.2-1.3,2.7-2,4.5c-0.6,1.8-1.2,3.9-1.8,6.1s-1.1,4.4-1.5,6.4c0.4,0.1,0.8,0.1,1.2,0.1c0.4,0,0.8,0.1,1.2,0.1
			c0.8-1.3,1.6-2.7,2.4-4.3s1.6-3,2.3-4.5c0.7-1.5,1.2-2.9,1.7-4.1C394.7,16.5,395,15.5,395,14.6z"/>
		<path class="st3" d="M429.6,63.9c-0.9,0.8-2.1,1.8-3.5,2.7c-1.4,1-2.9,1.9-4.5,2.7c-1.6,0.8-3.2,1.5-4.9,2
			c-1.7,0.5-3.2,0.8-4.7,0.8c-1.3,0-2.5-0.2-3.4-0.6c-0.9-0.4-1.7-0.9-2.2-1.6c-0.6-0.7-1-1.5-1.2-2.5c-0.2-1-0.4-2-0.4-3.2
			c0-1.6,0.2-3.5,0.6-5.7c0.4-2.1,0.8-4.4,1.4-6.7c0.5-2.3,1.1-4.6,1.7-6.9c0.6-2.3,1.1-4.4,1.6-6.3c0.2-0.7,0.5-1.2,1.1-1.7
			s1.2-0.9,1.8-1.2s1.4-0.5,2.1-0.7c0.7-0.1,1.4-0.2,2-0.2c1.1,0,1.8,0.2,2.2,0.6c0.4,0.4,0.6,0.9,0.6,1.6c0,0.6-0.1,1.4-0.4,2.4
			c-0.3,1.1-0.6,2.3-1,3.6c-0.4,1.3-0.8,2.8-1.2,4.4c-0.4,1.6-0.8,3.1-1.2,4.7c-0.4,1.6-0.7,3.1-1,4.6c-0.3,1.5-0.4,2.8-0.4,4
			c0,1.2,0.1,2.1,0.4,2.8c0.3,0.7,0.8,1,1.6,1c0.9,0,2-0.3,3.1-1c1.1-0.6,2.3-1.4,3.4-2.3s2.3-1.9,3.4-2.8c1.1-1,2.1-1.8,2.9-2.5
			V63.9z M412.3,24.3c0-0.6,0.1-1.3,0.4-2c0.3-0.7,0.7-1.4,1.3-2.1c0.6-0.7,1.4-1.2,2.3-1.7c1-0.4,2.2-0.7,3.6-0.7
			c0.9,0,1.7,0.1,2.5,0.3c0.8,0.2,1.5,0.5,2.1,0.9c0.6,0.4,1.1,1,1.4,1.7c0.3,0.7,0.5,1.5,0.5,2.5c0,0.9-0.1,1.7-0.4,2.5
			c-0.3,0.8-0.7,1.6-1.3,2.2c-0.6,0.6-1.4,1.2-2.3,1.6c-0.9,0.4-2.1,0.6-3.4,0.6c-2.3,0-3.9-0.5-5-1.6
			C412.9,27.5,412.3,26,412.3,24.3z"/>
		<path class="st3" d="M438.7,72.1c-2.4,0-4.4-0.4-6.2-1.3c-1.8-0.9-3.3-2-4.5-3.5c-1.2-1.5-2.1-3.2-2.7-5.1c-0.6-1.9-0.9-3.9-0.9-6
			c0-1.5,0.2-3,0.5-4.7s0.8-3.2,1.4-4.8s1.4-3,2.2-4.5c0.9-1.4,1.9-2.7,3.1-3.7s2.5-1.9,3.9-2.5s3-0.9,4.7-0.9
			c1.5,0,2.8,0.2,4.1,0.7c1.2,0.5,2.3,1.1,3.2,1.9c0.9,0.8,1.6,1.7,2.1,2.8c0.5,1.1,0.8,2.3,0.8,3.5c0,0.9-0.1,1.7-0.3,2.6
			c-0.2,0.8-0.6,1.6-1,2.3c-0.5,0.7-1,1.2-1.6,1.6c-0.6,0.4-1.4,0.6-2.2,0.6c-1.2,0-2-0.3-2.4-1c-0.4-0.6-0.6-1.5-0.6-2.7
			c0-0.5,0-1,0.1-1.5c0-0.5,0.1-1,0.1-1.4c0-0.6-0.1-1.1-0.2-1.5c-0.1-0.4-0.4-0.6-0.8-0.6c-1.1,0-2,0.3-2.7,0.8
			c-0.7,0.5-1.4,1.2-1.9,2c-0.5,0.8-0.9,1.7-1.3,2.7c-0.3,1-0.6,2-0.7,3s-0.3,2-0.3,2.9c-0.1,0.9-0.1,1.7-0.1,2.3
			c0,0.9,0.1,1.9,0.3,2.9c0.2,1,0.5,1.9,0.9,2.8s1.1,1.5,1.9,2.1c0.8,0.6,1.8,0.8,3.1,0.8c1.2,0,2.6-0.4,4.1-1.1
			c1.5-0.8,3-1.7,4.5-2.9c1.5-1.2,2.9-2.4,4.3-3.8c1.4-1.4,2.5-2.7,3.5-3.9l2.7,4.5c-1.9,2.8-4,5.2-6.2,7.4c-1,0.9-2,1.8-3.1,2.7
			c-1.1,0.9-2.3,1.7-3.5,2.3c-1.2,0.7-2.5,1.2-3.8,1.7C441.4,71.9,440.1,72.1,438.7,72.1z"/>
		<path class="st3" d="M478.7,63.9c-0.9,0.8-2.1,1.8-3.5,2.7c-1.4,1-2.9,1.9-4.5,2.7c-1.6,0.8-3.2,1.5-4.9,2
			c-1.7,0.5-3.2,0.8-4.7,0.8c-1.3,0-2.5-0.2-3.4-0.6c-0.9-0.4-1.7-0.9-2.2-1.6c-0.6-0.7-1-1.5-1.2-2.5c-0.2-1-0.4-2-0.4-3.2
			c0-1.6,0.2-3.5,0.6-5.7c0.4-2.1,0.8-4.4,1.4-6.7c0.5-2.3,1.1-4.6,1.7-6.9c0.6-2.3,1.1-4.4,1.6-6.3c0.2-0.7,0.5-1.2,1.1-1.7
			s1.2-0.9,1.8-1.2s1.4-0.5,2.1-0.7c0.7-0.1,1.4-0.2,2-0.2c1.1,0,1.8,0.2,2.2,0.6c0.4,0.4,0.6,0.9,0.6,1.6c0,0.6-0.1,1.4-0.4,2.4
			c-0.3,1.1-0.6,2.3-1,3.6c-0.4,1.3-0.8,2.8-1.2,4.4c-0.4,1.6-0.8,3.1-1.2,4.7c-0.4,1.6-0.7,3.1-1,4.6c-0.3,1.5-0.4,2.8-0.4,4
			c0,1.2,0.1,2.1,0.4,2.8c0.3,0.7,0.8,1,1.6,1c0.9,0,2-0.3,3.1-1c1.1-0.6,2.3-1.4,3.4-2.3s2.3-1.9,3.4-2.8c1.1-1,2.1-1.8,2.9-2.5
			V63.9z M461.4,24.3c0-0.6,0.1-1.3,0.4-2c0.3-0.7,0.7-1.4,1.3-2.1c0.6-0.7,1.4-1.2,2.3-1.7c1-0.4,2.2-0.7,3.6-0.7
			c0.9,0,1.7,0.1,2.5,0.3c0.8,0.2,1.5,0.5,2.1,0.9c0.6,0.4,1.1,1,1.4,1.7c0.3,0.7,0.5,1.5,0.5,2.5c0,0.9-0.1,1.7-0.4,2.5
			c-0.3,0.8-0.7,1.6-1.3,2.2c-0.6,0.6-1.4,1.2-2.3,1.6c-0.9,0.4-2.1,0.6-3.4,0.6c-2.3,0-3.9-0.5-5-1.6C462,27.5,461.4,26,461.4,24.3
			z"/>
		<path class="st3" d="M491.7,65.3c2.6,0,5-0.3,7.1-0.8c2.1-0.5,4.1-1.2,5.8-2.1c1.7-0.9,3.3-1.9,4.7-3.1c1.4-1.2,2.7-2.4,3.8-3.8
			l0.4,8.8c-0.8,1-1.8,2-3,2.9c-1.2,0.9-2.4,1.8-3.8,2.5c-1.4,0.7-2.8,1.3-4.4,1.7c-1.5,0.4-3,0.6-4.5,0.6c-0.2,0-0.4,0-0.7-0.1
			c-0.3-0.1-0.7-0.1-1.4-0.3c-0.7-0.1-1.6-0.3-2.9-0.5c-1.2-0.2-2.9-0.5-5.1-0.8v0.7c0,4.7-0.4,8.9-1.2,12.7
			c-0.8,3.8-1.8,7.1-3.1,9.8c-1.3,2.7-2.8,4.8-4.5,6.2c-1.7,1.5-3.5,2.2-5.3,2.2c-1.5,0-2.7-0.4-3.7-1.1c-1-0.7-1.8-1.7-2.3-2.9
			c-0.6-1.2-1-2.6-1.2-4.3s-0.4-3.4-0.4-5.2c0-1.1,0.2-2.2,0.5-3.6c0.3-1.3,0.8-2.7,1.3-4.2c0.6-1.5,1.2-2.9,1.9-4.4
			c0.7-1.5,1.4-3,2.2-4.4c1.7-3.3,3.7-6.7,6-10.2c0.3-2,0.6-4.1,0.9-6.2c0.3-2.1,0.7-4.2,1.1-6.1s1-3.9,1.7-5.6
			c0.7-1.8,1.6-3.3,2.6-4.6c1.1-1.3,2.3-2.4,3.8-3.1s3.3-1.2,5.4-1.2c1.6,0,3,0.2,4.4,0.6c1.4,0.4,2.6,1.1,3.6,2.1
			c1,1,1.8,2.2,2.4,3.7c0.6,1.5,0.9,3.4,0.9,5.5c0,1.7-0.3,3.4-0.8,5.1c-0.5,1.6-1.3,3.2-2.4,4.7c-1.1,1.5-2.5,2.9-4.2,4.2
			s-3.7,2.5-6,3.5L491.7,65.3z M473.4,89.1c0,0.2,0,0.5,0.1,1s0.2,0.9,0.4,1.4c0.2,0.5,0.5,0.9,0.8,1.2c0.3,0.4,0.7,0.5,1.2,0.5
			c0.4,0,0.8-0.2,1.1-0.7c0.3-0.5,0.5-1.1,0.7-1.9c0.2-0.8,0.3-1.7,0.4-2.7c0.1-1,0.1-2,0.2-3.1s0.1-2.1,0.1-3.1c0-1,0-1.9,0.1-2.7
			c0.1-1.4,0.1-2.6,0.2-3.5c0-1,0.1-1.8,0.1-2.4c0-0.7,0.1-1.3,0.1-1.8c-0.5,0.8-1,1.8-1.4,3c-0.5,1.1-0.9,2.3-1.3,3.5
			c-0.4,1.2-0.8,2.4-1.1,3.6c-0.3,1.2-0.6,2.3-0.9,3.4c-0.2,1-0.4,1.9-0.6,2.7C473.5,88.3,473.4,88.8,473.4,89.1z M486.8,61.4
			c1.5-0.8,2.9-1.6,4-2.6c1.1-1,2.1-2,2.9-3c0.8-1.1,1.5-2.2,2-3.4c0.5-1.2,0.9-2.3,1.2-3.5c0.1-0.6,0.2-1.2,0.3-2
			c0-0.8,0-1.5-0.2-2.1c-0.2-0.7-0.5-1.2-1-1.7c-0.5-0.5-1.1-0.7-2-0.7c-1,0-1.8,0.3-2.5,0.8c-0.7,0.5-1.3,1.2-1.9,2.1
			c-0.5,0.9-1,2-1.3,3.2c-0.3,1.2-0.6,2.6-0.8,4c-0.2,1.4-0.4,2.9-0.5,4.4S486.8,59.8,486.8,61.4z"/>
		<path class="st3" d="M549.2,62.7c-0.6,0.8-1.4,1.8-2.4,2.9c-1,1.1-2.1,2.2-3.3,3.2s-2.6,1.9-4,2.5s-2.8,1-4.2,1
			c-1.7,0-3.1-0.5-4.2-1.6s-2.1-2.7-2.9-4.8c-0.6,0.7-1.4,1.5-2.3,2.2c-0.9,0.7-1.9,1.4-3,2s-2.2,1.1-3.3,1.5
			c-1.2,0.4-2.3,0.6-3.5,0.6c-1.2,0-2.4-0.3-3.6-0.8c-1.2-0.5-2.2-1.2-3.1-2.2c-0.9-0.9-1.6-2.1-2.2-3.4c-0.5-1.3-0.8-2.9-0.8-4.6
			c0-1.9,0.3-3.9,0.8-5.9c0.5-2,1.3-4,2.2-6s2.1-3.8,3.4-5.5c1.3-1.7,2.7-3.2,4.3-4.5c1.5-1.3,3.2-2.3,4.9-3.1
			c1.7-0.8,3.5-1.1,5.2-1.1c0.6,0,1.1,0.1,1.4,0.3c0.3,0.2,0.6,0.5,0.8,0.8c0.2,0.3,0.4,0.6,0.6,0.9c0.2,0.3,0.5,0.5,0.8,0.6
			c0.3,0.1,0.6,0.2,0.9,0.3c0.3,0,0.6,0.1,1,0.1c0.3,0,0.6,0,0.9,0c0.3,0,0.6,0,0.9,0c0.4,0,0.7,0,1.1,0.1c0.3,0.1,0.6,0.2,0.9,0.5
			s0.5,0.6,0.6,1.1c0.1,0.5,0.2,1.1,0.2,1.9c0,1.2-0.1,2.6-0.4,4.1c-0.3,1.5-0.5,3-0.8,4.6c-0.3,1.6-0.6,3.2-0.8,4.7
			c-0.3,1.6-0.4,3.1-0.4,4.5c0,1.2,0.1,2.2,0.3,2.8c0.2,0.7,0.7,1,1.4,1c0.5,0,1.1-0.1,1.7-0.4c0.6-0.3,1.2-0.6,1.8-1.1
			c0.6-0.4,1.2-0.9,1.8-1.5c0.6-0.6,1.2-1.1,1.7-1.7c1.3-1.4,2.5-3,3.8-4.7L549.2,62.7z M516.3,59.6c0,0.6,0,1.3,0.1,1.9
			s0.3,1.1,0.5,1.6s0.5,0.9,0.9,1.2s0.9,0.4,1.5,0.4c1,0,1.8-0.4,2.6-1.2c0.8-0.8,1.4-1.8,2-3c0.6-1.2,1-2.4,1.4-3.6
			c0.3-1.2,0.6-2.3,0.7-3.1l2.4-11.3c-1.1,0-2.1,0.3-3.1,0.8c-1,0.5-1.9,1.2-2.8,2.1c-0.9,0.9-1.7,1.9-2.4,3.1
			c-0.7,1.2-1.4,2.4-1.9,3.6c-0.5,1.3-1,2.6-1.3,3.8C516.4,57.3,516.3,58.5,516.3,59.6z"/>
		<path class="st3" d="M544.7,64.1c0-1.1,0.1-2.4,0.2-4c0.1-1.5,0.3-3.1,0.5-4.8c0.2-1.7,0.5-3.4,0.8-5.1c0.3-1.7,0.6-3.4,0.9-5
			c0.3-1.6,0.7-3,1-4.3c0.3-1.3,0.7-2.4,1-3.2c0.2-0.6,0.4-1,0.6-1.3s0.4-0.6,0.7-0.8c0.3-0.2,0.6-0.3,1-0.4s0.9-0.1,1.5-0.1
			c0.7,0,1.2,0,1.6,0.1c0.4,0.1,0.6,0.2,0.8,0.5c0.2,0.2,0.3,0.6,0.3,1.1c0,0.5,0.1,1.1,0.1,1.9c0,1,0,2.1,0,3.5c0,1.3,0,2.7,0.1,4
			h0.4c0.5-1,1.1-2.2,1.7-3.5c0.6-1.3,1.4-2.5,2.2-3.6c0.8-1.1,1.8-2,2.9-2.8c1.1-0.8,2.3-1.1,3.7-1.1c0.5,0,1,0.1,1.4,0.3
			s0.9,0.4,1.2,0.7c0.3,0.3,0.6,0.7,0.8,1.1c0.2,0.5,0.3,1,0.3,1.5c0,0.4-0.1,1-0.2,1.8c-0.1,0.8-0.3,1.6-0.4,2.5
			c-0.2,0.9-0.3,1.7-0.4,2.5c-0.1,0.8-0.2,1.5-0.2,2c0,0.9,0.1,1.7,0.3,2.3s0.4,1.1,0.7,1.5c0.3,0.4,0.6,0.6,1,0.8s0.8,0.2,1.2,0.2
			c1.2,0,2.4-0.3,3.6-0.8c1.2-0.5,2.4-1.1,3.4-1.7c1.2-0.7,2.4-1.6,3.5-2.5l-0.6,9c-0.7,0.4-1.4,0.9-2.3,1.5c-0.8,0.5-1.8,1-2.7,1.5
			c-1,0.5-2,0.9-3,1.2c-1,0.3-2.1,0.5-3.2,0.5c-1.9,0-3.5-0.4-4.7-1.2c-1.2-0.8-2.1-1.8-2.8-3.1c-0.7-1.3-1.2-2.7-1.5-4.3
			c-0.3-1.6-0.6-3.2-0.8-4.8h-0.6l-6.9,19.2c-0.4,1-0.7,1.8-1,2.5c-0.3,0.7-0.6,1.2-1,1.6c-0.3,0.4-0.7,0.7-1.1,0.9
			c-0.4,0.2-0.8,0.3-1.3,0.3c-1.1,0-1.9-0.2-2.5-0.7c-0.6-0.5-1.1-1.1-1.5-1.8c-0.3-0.8-0.6-1.6-0.7-2.6
			C544.7,66.1,544.7,65.1,544.7,64.1z"/>
		<path class="st3" d="M601.8,64.8c0,0.1,0,0.4,0,0.8c0,0.4-0.1,0.9-0.3,1.4c-0.1,0.5-0.4,1.1-0.7,1.7s-0.7,1.2-1.3,1.7
			c-0.5,0.5-1.2,0.9-2,1.3c-0.8,0.3-1.8,0.5-3,0.5c-1,0-1.8-0.1-2.6-0.4s-1.4-0.6-2-1.1c-0.6-0.5-1-1.1-1.3-1.9
			c-0.3-0.8-0.5-1.7-0.5-2.8c0-0.9,0.1-1.8,0.4-2.7c0.3-0.9,0.7-1.7,1.3-2.4c0.6-0.7,1.3-1.2,2.2-1.7c0.9-0.4,2-0.6,3.2-0.6
			c2.1,0,3.8,0.5,4.9,1.6S601.8,62.8,601.8,64.8z M600.5,49.6c-0.4,1.2-0.9,2.2-1.6,2.8c-0.7,0.6-1.5,1-2.3,1
			c-0.9,0-1.7-0.2-2.4-0.6c-0.7-0.4-1-1-1-1.9c0-2.3,0.4-4.3,1.1-6c0.8-1.7,1.7-3.2,2.8-4.6c1.1-1.4,2.4-2.6,3.7-3.7
			c1.3-1.1,2.6-2.3,3.7-3.5c1.1-1.2,2.1-2.5,2.8-4c0.8-1.4,1.1-3.1,1.1-5c0-1.1-0.2-2-0.6-2.7c-0.4-0.7-0.9-1.4-1.5-1.8
			s-1.3-0.8-2.1-1c-0.8-0.2-1.5-0.3-2.3-0.3c-0.6,0-1.2,0.2-1.9,0.5c-0.6,0.4-1.2,0.8-1.8,1.3c-0.6,0.5-1.1,1-1.5,1.5
			c-0.4,0.5-0.7,0.9-0.8,1.3c-0.4,0.5-0.9,0.9-1.5,1.2s-1.1,0.4-1.7,0.4c-0.5,0-1-0.1-1.4-0.4c-0.5-0.3-0.9-0.6-1.3-1.1
			c-0.4-0.5-0.7-1-0.9-1.6c-0.2-0.6-0.3-1.3-0.3-2c0-0.6,0.2-1.2,0.6-1.8c0.8-1.2,1.7-2.2,2.7-3.1c1.1-0.9,2.2-1.7,3.4-2.3
			c1.2-0.6,2.5-1.1,3.8-1.4s2.6-0.5,3.9-0.5c1.6,0,3.2,0.3,4.9,0.8c1.7,0.5,3.3,1.3,4.7,2.4c1.4,1.1,2.6,2.4,3.5,4.1
			c0.9,1.6,1.4,3.6,1.4,5.9c0,2.7-0.3,5.1-1,7c-0.6,1.9-1.5,3.6-2.5,5.1c-1,1.4-2.2,2.7-3.5,3.8c-1.3,1.1-2.6,2.2-3.9,3.2
			c-1.3,1-2.5,2.1-3.7,3.3C602.2,46.8,601.2,48.1,600.5,49.6z"/>
	</g>
	<g>
		<path class="st4" d="M61.3,29.9c0.4-1.2,0.9-2.2,1.6-2.8c0.7-0.6,1.5-1,2.3-1c0.9,0,1.7,0.2,2.4,0.6c0.7,0.4,1,1,1,1.9
			c0,1.7-0.2,3.3-0.7,4.7c-0.4,1.4-1,2.6-1.7,3.8c-0.7,1.1-1.5,2.2-2.4,3.1c-0.9,1-1.9,1.9-2.8,2.7c-1,0.9-1.9,1.7-2.8,2.6
			c-0.9,0.9-1.7,1.8-2.4,2.8c-0.7,1-1.3,2-1.7,3.2c-0.4,1.1-0.7,2.4-0.7,3.9c0,1.2,0.1,2.3,0.4,3.1c0.3,0.8,0.6,1.5,1.1,1.9
			s1,0.8,1.6,1c0.6,0.2,1.3,0.3,2,0.3c0.7,0,1.5-0.1,2.2-0.4c0.8-0.3,1.5-0.6,2.3-1.1c0.7-0.4,1.4-0.9,2-1.5
			c0.6-0.6,1.1-1.1,1.6-1.7c0.4-0.5,0.8-0.8,1.2-1s0.9-0.3,1.4-0.3c0.5,0,1,0.1,1.4,0.3s0.9,0.6,1.2,1c0.3,0.4,0.6,0.9,0.8,1.4
			c0.2,0.5,0.3,1.1,0.3,1.7c0,0.3,0,0.6-0.1,0.9c-0.1,0.3-0.2,0.6-0.4,0.9c-0.8,1.2-1.7,2.2-2.7,3.1c-1.1,0.9-2.2,1.7-3.4,2.3
			c-1.2,0.6-2.5,1.1-3.8,1.4c-1.3,0.3-2.6,0.5-3.9,0.5c-1.6,0-3.2-0.3-4.9-0.8c-1.7-0.5-3.3-1.3-4.7-2.4c-1.4-1.1-2.6-2.4-3.5-4
			S44,58.4,44,56.1c0-2.7,0.3-5.1,1-7c0.6-1.9,1.5-3.6,2.5-5.1c1-1.4,2.2-2.7,3.5-3.8c1.3-1.1,2.6-2.2,3.9-3.2
			c1.3-1,2.5-2.1,3.6-3.2C59.6,32.7,60.5,31.4,61.3,29.9z M60,14.7c0-0.1,0-0.4,0-0.8c0-0.4,0.1-0.9,0.3-1.4
			c0.1-0.5,0.4-1.1,0.7-1.7c0.3-0.6,0.7-1.2,1.3-1.7c0.5-0.5,1.2-0.9,2-1.3c0.8-0.3,1.8-0.5,3-0.5c1,0,1.8,0.1,2.6,0.4
			c0.8,0.2,1.4,0.6,2,1.1c0.6,0.5,1,1.1,1.3,1.9s0.5,1.7,0.5,2.8c0,0.9-0.1,1.8-0.4,2.7c-0.3,0.9-0.7,1.7-1.3,2.4
			c-0.6,0.7-1.3,1.2-2.2,1.7c-0.9,0.4-2,0.6-3.2,0.6c-2.1,0-3.8-0.5-4.9-1.6C60.5,18.2,60,16.7,60,14.7z"/>
		<path class="st4" d="M146.7,56.1c-1.3,0.5-2.5,1.3-3.7,2.1c-1.2,0.9-2.4,1.9-3.6,2.9c-1.2,1.1-2.5,2.2-3.8,3.3
			c-1.3,1.2-2.7,2.3-4.2,3.5c-1.5,1.1-3.1,2.2-4.9,3.3c-1.8,1-3.7,2-5.9,2.7c-2.1,0.8-4.5,1.4-7.1,1.9c-2.6,0.5-5.4,0.7-8.6,0.7
			c-3.5,0-6.6-0.7-9.4-2.1c-2.8-1.4-5.2-3.3-7.2-5.7c-2-2.4-3.5-5.1-4.6-8.3c-1.1-3.1-1.6-6.5-1.6-9.9c0-2.4,0.3-4.9,0.8-7.6
			c0.5-2.7,1.3-5.5,2.2-8.3c1-2.8,2.1-5.6,3.5-8.4c1.4-2.8,3-5.5,4.7-8.1c1.8-2.6,3.7-5,5.8-7.2c2.1-2.2,4.4-4.1,6.8-5.7
			c2.4-1.6,4.9-2.9,7.6-3.8c2.6-0.9,5.4-1.4,8.3-1.4c1.9,0,3.7,0.3,5.6,1c1.9,0.7,3.6,1.7,5.1,3c1.5,1.4,2.8,3.1,3.7,5.2
			c1,2.1,1.4,4.5,1.4,7.4c0,1.9-0.3,3.8-0.9,5.8c-0.6,1.9-1.4,3.8-2.5,5.6c-1.1,1.8-2.3,3.5-3.7,5c-1.4,1.6-3,2.9-4.6,4.1
			c-1.6,1.1-3.4,2.1-5.1,2.7c-1.8,0.7-3.5,1-5.3,1c-2.3,0-4.1-0.3-5.2-0.9c-1.2-0.6-1.7-1.5-1.7-2.7c0-0.2,0-0.5,0-0.7
			c0-0.3,0-0.6,0-0.9c0-0.5,0-0.9,0.1-1.4c0.1-0.5,0.2-1,0.3-1.4c0.2-0.4,0.4-0.7,0.7-1c0.3-0.3,0.7-0.4,1.2-0.4
			c0.3,0,0.6,0,0.8,0.1c0.2,0.1,0.5,0.2,0.8,0.3c0.3,0.1,0.6,0.2,1,0.3c0.4,0.1,0.9,0.1,1.5,0.1c1.6,0,3.3-0.4,5-1.1
			c1.7-0.7,3.2-1.7,4.6-3c1.3-1.3,2.5-2.9,3.3-4.7c0.9-1.8,1.3-3.8,1.3-6c0-1.2-0.2-2.3-0.5-3.3c-0.3-1-0.8-2-1.5-2.7
			c-0.7-0.8-1.6-1.4-2.7-1.9c-1.1-0.5-2.4-0.7-4-0.7c-1.9,0-3.7,0.4-5.4,1.2c-1.8,0.8-3.5,1.9-5.1,3.3s-3.2,3-4.6,4.9
			c-1.5,1.9-2.8,3.9-4,6.1c-1.2,2.2-2.3,4.4-3.3,6.8c-1,2.4-1.8,4.7-2.5,7c-0.7,2.3-1.2,4.6-1.6,6.8c-0.4,2.2-0.6,4.2-0.6,6.1
			c0,2.6,0.3,5,1,6.9c0.7,2,1.6,3.6,2.8,4.9c1.2,1.3,2.7,2.3,4.4,2.9c1.7,0.6,3.7,1,5.9,1c2.7,0,5.3-0.3,7.6-1
			c2.4-0.7,4.6-1.6,6.7-2.7c2.1-1.1,4.2-2.4,6.2-3.7c2-1.4,4-2.8,6-4.2c2-1.4,4-2.7,6.1-4c2.1-1.3,4.3-2.3,6.6-3.2V56.1z"/>
		<path class="st4" d="M162.8,40.2c0.7,1.5,1.3,3.1,1.7,4.7c0.4,1.7,0.6,3.2,0.6,4.8s-0.2,3-0.5,4.6c-0.3,1.5-0.8,3-1.4,4.5
			c-0.6,1.4-1.4,2.8-2.3,4.1c-0.9,1.3-2,2.4-3.1,3.3c-1.2,0.9-2.4,1.7-3.8,2.2c-1.4,0.5-2.9,0.8-4.4,0.8c-2.3,0-4.2-0.5-5.8-1.5
			c-1.6-1-2.9-2.3-4-3.9c-1-1.6-1.8-3.4-2.3-5.4c-0.5-2-0.7-4-0.7-6.1c0-2.8,0.4-5.5,1.3-7.9c0.8-2.5,2.1-4.6,3.6-6.4
			c1.6-1.8,3.5-3.2,5.8-4.3c2.3-1,4.9-1.6,7.7-1.6c2.4,0,4.7,0.4,6.9,1.1c2.1,0.8,4.1,1.8,6,3c1.9,1.3,3.6,2.7,5.2,4.4
			c1.6,1.6,3.1,3.3,4.5,5.1l-0.7,5.4c-0.7-0.9-1.6-1.9-2.8-3c-1.2-1.1-2.4-2.1-3.8-3.2c-1.3-1-2.6-2-3.9-2.9
			c-1.3-0.9-2.4-1.7-3.3-2.3L162.8,40.2z M150.8,61.7c0.9,0,1.7-0.4,2.5-1.3c0.8-0.9,1.5-2,2.2-3.4c0.6-1.4,1.1-2.8,1.5-4.5
			c0.4-1.6,0.6-3.2,0.6-4.7c0-1.2-0.1-2.3-0.3-3.3c-0.2-1-0.5-1.9-0.8-2.6c-0.4-0.7-0.8-1.3-1.4-1.8c-0.6-0.4-1.2-0.7-2-0.7
			c-1.1,0-2.1,0.5-3,1.3c-1,0.9-1.8,2.1-2.5,3.5c-0.7,1.4-1.3,3-1.7,4.6c-0.4,1.7-0.6,3.3-0.6,4.9c0,1.1,0.1,2.1,0.3,3
			c0.2,1,0.5,1.8,1,2.5c0.4,0.7,1,1.3,1.7,1.7C149,61.5,149.8,61.7,150.8,61.7z M152.5,21.3c0.2-0.3,0.4-0.8,0.7-1.5
			c0.3-0.7,0.6-1.5,1-2.3c0.4-0.9,0.8-1.8,1.2-2.8c0.4-1,0.9-2,1.3-3c1-2.3,2.1-4.8,3.3-7.5c0.3-0.9,0.8-1.5,1.5-1.9
			c0.7-0.4,1.4-0.6,2.1-0.6c0.7,0,1.3,0.1,2,0.4c0.7,0.3,1.3,0.6,1.8,1.1c0.5,0.5,1,1,1.3,1.7c0.3,0.6,0.5,1.4,0.5,2.1
			c0,1.2-0.5,2.5-1.4,3.7c-0.5,0.7-1,1.4-1.7,2.2c-0.6,0.8-1.3,1.7-2,2.5c-0.7,0.9-1.4,1.8-2.1,2.6c-0.7,0.9-1.4,1.7-2,2.5
			c-0.6,0.8-1.2,1.5-1.8,2.1c-0.5,0.6-0.9,1.2-1.3,1.5c-0.4,0.5-0.9,0.9-1.3,1.1c-0.4,0.2-0.9,0.3-1.3,0.3c-0.6,0-1.1-0.2-1.6-0.7
			c-0.4-0.5-0.7-1.1-0.7-1.9c0-0.3,0-0.6,0.1-0.9C152.2,21.9,152.3,21.6,152.5,21.3z"/>
		<path class="st4" d="M188.8,61.9c0-0.3,0-0.8,0.1-1.4c0.1-0.6,0.1-1.3,0.2-2.1c0.1-0.8,0.2-1.6,0.3-2.5c0.1-0.9,0.3-1.8,0.4-2.6
			c0.3-2.1,0.6-4.3,1-6.6h-0.6c-0.3,0.4-0.7,1-1.1,1.7c-0.4,0.8-1,1.9-1.7,3.4c-0.7,1.5-1.6,3.4-2.8,5.8c-1.1,2.4-2.6,5.4-4.3,8.9
			c-0.5,1.1-1.1,1.8-1.8,2.1c-0.7,0.4-1.4,0.6-2.3,0.6c-1.1,0-1.9-0.2-2.5-0.7c-0.6-0.5-1.1-1.1-1.5-1.8c-0.3-0.8-0.6-1.6-0.7-2.6
			c-0.1-1-0.2-2-0.2-3c0-1.1,0.1-2.3,0.2-3.7c0.1-1.4,0.3-3,0.5-4.6c0.2-1.6,0.4-3.2,0.7-4.9c0.3-1.7,0.6-3.2,0.8-4.8
			c0.3-1.5,0.6-2.9,0.9-4.2c0.3-1.3,0.6-2.3,0.8-3.1c0.3-0.8,0.5-1.5,0.7-2c0.2-0.5,0.5-0.9,0.8-1.1c0.3-0.3,0.6-0.4,1.1-0.5
			c0.4-0.1,0.9-0.1,1.6-0.1c1,0,1.7,0,2.3,0.1c0.6,0.1,1,0.2,1.2,0.5c0.3,0.2,0.4,0.6,0.5,1.1c0.1,0.5,0.1,1.1,0.1,1.9
			c0,0.4,0,0.9-0.1,1.5c0,0.6-0.1,1.2-0.2,1.8s-0.2,1.3-0.3,2c-0.1,0.7-0.2,1.3-0.3,2c-0.2,1.5-0.5,3.1-0.7,4.7l0.4,0.5
			c0.1-0.1,0.3-0.6,0.8-1.5c0.5-0.9,1.1-2,1.9-3.2c0.7-1.3,1.5-2.6,2.4-4c0.8-1.4,1.7-2.6,2.4-3.6c0.7-1.1,1.5-1.9,2.4-2.6
			c0.8-0.7,1.8-1,3-1c1.1,0,2,0.3,2.8,0.9s1.2,1.5,1.2,2.7c0,1-0.1,2-0.2,2.9c-0.1,0.9-0.3,1.8-0.5,2.6c-0.2,0.8-0.4,1.7-0.6,2.5
			c-0.2,0.8-0.4,1.6-0.6,2.5c-0.1,0.6-0.2,1-0.2,1.1c0,0.2,0,0.3,0,0.3l0.4,0.5c0.1-0.1,0.3-0.6,0.9-1.4c0.5-0.9,1.2-2,2-3.2
			c0.8-1.3,1.6-2.6,2.5-4c0.9-1.4,1.7-2.6,2.5-3.7c0.7-1,1.5-1.9,2.2-2.6c0.7-0.7,1.7-1.1,2.7-1.1c1.2,0,2.2,0.3,3.1,0.9
			c0.8,0.6,1.3,1.5,1.3,2.7c0,1.8-0.1,3.5-0.3,5.1c-0.2,1.6-0.4,3.2-0.6,4.7s-0.4,3.1-0.6,4.7c-0.2,1.6-0.3,3.3-0.3,5
			c0,1.4,0.2,2.5,0.5,3.4c0.4,0.9,0.8,1.3,1.3,1.3c0.5,0,1.1-0.1,1.7-0.3c0.6-0.2,1.2-0.5,1.8-0.9s1.2-0.8,1.8-1.3
			c0.6-0.5,1.2-1,1.7-1.5c1.3-1.2,2.5-2.5,3.7-4l0.7,9.1c-1.1,0.9-2.3,1.8-3.4,2.8c-1.1,1-2.3,1.8-3.5,2.6c-1.2,0.8-2.6,1.4-4.1,1.9
			c-1.5,0.5-3.2,0.8-5.1,0.8c-0.9,0-1.7-0.3-2.3-0.9c-0.6-0.6-1.1-1.4-1.5-2.5s-0.7-2.4-0.8-3.8c-0.2-1.5-0.3-3.1-0.3-4.8
			c0-1.6,0.1-3.3,0.2-5.1c0.1-1.8,0.3-3.6,0.5-5.5h-0.6l-7.8,19.9c-0.7,1.1-1.4,1.8-2.2,2.2c-0.8,0.4-1.8,0.6-2.9,0.6
			c-0.8,0-1.5-0.2-2-0.7c-0.5-0.5-0.9-1-1.1-1.7c-0.3-0.7-0.5-1.5-0.5-2.3C188.8,63.5,188.8,62.7,188.8,61.9z"/>
		<path class="st4" d="M247.1,40.2c0.7,1.5,1.3,3.1,1.7,4.7c0.4,1.7,0.6,3.2,0.6,4.8s-0.2,3-0.5,4.6c-0.3,1.5-0.8,3-1.4,4.5
			c-0.6,1.4-1.4,2.8-2.3,4.1c-0.9,1.3-2,2.4-3.1,3.3c-1.2,0.9-2.4,1.7-3.8,2.2c-1.4,0.5-2.9,0.8-4.4,0.8c-2.3,0-4.2-0.5-5.8-1.5
			c-1.6-1-2.9-2.3-4-3.9c-1-1.6-1.8-3.4-2.3-5.4c-0.5-2-0.7-4-0.7-6.1c0-2.8,0.4-5.5,1.3-7.9c0.8-2.5,2.1-4.6,3.6-6.4
			c1.6-1.8,3.5-3.2,5.8-4.3c2.3-1,4.9-1.6,7.7-1.6c2.4,0,4.7,0.4,6.9,1.1c2.1,0.8,4.1,1.8,6,3c1.9,1.3,3.6,2.7,5.2,4.4
			c1.6,1.6,3.1,3.3,4.5,5.1l-0.7,5.4c-0.7-0.9-1.6-1.9-2.8-3c-1.2-1.1-2.4-2.1-3.8-3.2c-1.3-1-2.6-2-3.9-2.9
			c-1.3-0.9-2.4-1.7-3.3-2.3L247.1,40.2z M235.1,61.7c0.9,0,1.7-0.4,2.5-1.3c0.8-0.9,1.5-2,2.2-3.4c0.6-1.4,1.1-2.8,1.5-4.5
			c0.4-1.6,0.6-3.2,0.6-4.7c0-1.2-0.1-2.3-0.3-3.3c-0.2-1-0.5-1.9-0.8-2.6c-0.4-0.7-0.8-1.3-1.4-1.8c-0.6-0.4-1.2-0.7-2-0.7
			c-1.1,0-2.1,0.5-3,1.3c-1,0.9-1.8,2.1-2.5,3.5c-0.7,1.4-1.3,3-1.7,4.6c-0.4,1.7-0.6,3.3-0.6,4.9c0,1.1,0.1,2.1,0.3,3
			c0.2,1,0.5,1.8,1,2.5c0.4,0.7,1,1.3,1.7,1.7C233.3,61.5,234.1,61.7,235.1,61.7z"/>
		<path class="st4" d="M293.8,62.3c2.6,0,5-0.3,7.1-0.8c2.1-0.5,4.1-1.2,5.8-2.1c1.7-0.9,3.3-1.9,4.7-3.1c1.4-1.2,2.7-2.4,3.8-3.8
			l0.4,8.8c-0.8,1-1.8,2-3,2.9c-1.2,0.9-2.4,1.8-3.8,2.5c-1.4,0.7-2.8,1.3-4.4,1.7c-1.5,0.4-3,0.6-4.5,0.6c-0.2,0-0.4,0-0.7-0.1
			c-0.3-0.1-0.7-0.1-1.4-0.3c-0.7-0.1-1.6-0.3-2.9-0.5c-1.2-0.2-2.9-0.5-5.1-0.8v0.7c0,4.7-0.4,8.9-1.2,12.7
			c-0.8,3.8-1.8,7.1-3.1,9.8c-1.3,2.7-2.8,4.8-4.5,6.2c-1.7,1.5-3.5,2.2-5.3,2.2c-1.5,0-2.7-0.4-3.7-1.1c-1-0.7-1.8-1.7-2.3-2.9
			c-0.6-1.2-1-2.6-1.2-4.3c-0.2-1.6-0.4-3.4-0.4-5.2c0-1.1,0.2-2.2,0.5-3.6c0.3-1.3,0.8-2.7,1.4-4.2c0.6-1.5,1.2-2.9,1.9-4.4
			c0.7-1.5,1.4-3,2.2-4.4c1.7-3.3,3.7-6.7,6-10.2c0.3-2,0.6-4.1,0.9-6.2c0.3-2.1,0.7-4.2,1.1-6.1c0.4-2,1-3.9,1.7-5.6
			c0.7-1.8,1.6-3.3,2.6-4.6c1.1-1.3,2.3-2.4,3.8-3.1c1.5-0.8,3.3-1.2,5.4-1.2c1.6,0,3,0.2,4.4,0.6c1.4,0.4,2.6,1.1,3.6,2.1
			c1,1,1.8,2.2,2.4,3.7c0.6,1.5,0.9,3.4,0.9,5.5c0,1.7-0.3,3.4-0.8,5.1c-0.5,1.6-1.3,3.2-2.4,4.7c-1.1,1.5-2.5,2.9-4.2,4.2
			c-1.7,1.3-3.7,2.5-6,3.5L293.8,62.3z M275.5,86.1c0,0.2,0,0.5,0.1,1c0.1,0.5,0.2,0.9,0.4,1.4c0.2,0.5,0.5,0.9,0.8,1.2
			c0.3,0.4,0.7,0.5,1.2,0.5c0.4,0,0.8-0.2,1.1-0.7c0.3-0.5,0.5-1.1,0.7-1.9c0.2-0.8,0.3-1.7,0.4-2.7c0.1-1,0.1-2,0.2-3.1
			c0.1-1.1,0.1-2.1,0.1-3.1c0-1,0-1.9,0.1-2.7c0.1-1.4,0.1-2.6,0.2-3.5c0-1,0.1-1.8,0.1-2.4c0-0.7,0.1-1.3,0.1-1.8
			c-0.5,0.8-1,1.8-1.4,3c-0.5,1.1-0.9,2.3-1.3,3.5c-0.4,1.2-0.8,2.4-1.1,3.6c-0.3,1.2-0.6,2.3-0.9,3.4c-0.2,1-0.4,1.9-0.6,2.7
			C275.6,85.3,275.5,85.8,275.5,86.1z M288.9,58.4c1.5-0.8,2.9-1.6,4-2.6c1.1-1,2.1-2,2.9-3c0.8-1.1,1.5-2.2,2-3.4
			c0.5-1.2,0.9-2.3,1.2-3.5c0.1-0.6,0.2-1.2,0.3-2c0-0.8,0-1.5-0.2-2.1c-0.2-0.7-0.5-1.2-1-1.7c-0.5-0.5-1.1-0.7-2-0.7
			c-1,0-1.8,0.3-2.5,0.8c-0.7,0.5-1.3,1.2-1.9,2.1c-0.5,0.9-1,2-1.3,3.2c-0.3,1.2-0.6,2.6-0.8,4c-0.2,1.4-0.4,2.9-0.5,4.4
			C289,55.3,288.9,56.8,288.9,58.4z"/>
		<path class="st4" d="M351.4,59.7c-0.6,0.8-1.4,1.8-2.4,2.9c-1,1.1-2.1,2.2-3.3,3.2s-2.6,1.9-4,2.5s-2.8,1-4.2,1
			c-1.7,0-3.1-0.5-4.2-1.6c-1.1-1.1-2.1-2.7-2.9-4.8c-0.6,0.7-1.4,1.5-2.3,2.2c-0.9,0.7-1.9,1.4-3,2c-1.1,0.6-2.2,1.1-3.3,1.5
			c-1.2,0.4-2.3,0.6-3.5,0.6c-1.2,0-2.4-0.3-3.6-0.8c-1.2-0.5-2.2-1.2-3.1-2.2c-0.9-0.9-1.6-2.1-2.2-3.4c-0.5-1.3-0.8-2.9-0.8-4.6
			c0-1.9,0.3-3.9,0.8-5.9s1.3-4,2.2-6c1-1.9,2.1-3.8,3.4-5.5c1.3-1.7,2.7-3.2,4.3-4.5c1.5-1.3,3.2-2.3,4.9-3.1
			c1.7-0.8,3.5-1.1,5.2-1.1c0.6,0,1.1,0.1,1.4,0.3c0.3,0.2,0.6,0.5,0.8,0.8c0.2,0.3,0.4,0.6,0.6,0.9c0.2,0.3,0.5,0.5,0.8,0.6
			c0.3,0.1,0.6,0.2,0.9,0.3c0.3,0,0.6,0.1,1,0.1c0.3,0,0.6,0,0.9,0c0.3,0,0.6,0,0.9,0c0.4,0,0.7,0,1.1,0.1c0.3,0.1,0.6,0.2,0.9,0.5
			s0.5,0.6,0.6,1.1c0.1,0.5,0.2,1.1,0.2,1.9c0,1.2-0.1,2.6-0.4,4.1c-0.3,1.5-0.5,3-0.8,4.6c-0.3,1.6-0.6,3.2-0.8,4.7
			c-0.3,1.6-0.4,3.1-0.4,4.5c0,1.2,0.1,2.2,0.3,2.8c0.2,0.7,0.7,1,1.4,1c0.5,0,1.1-0.1,1.7-0.4c0.6-0.3,1.2-0.6,1.8-1.1
			c0.6-0.4,1.2-0.9,1.8-1.5c0.6-0.6,1.2-1.1,1.7-1.7c1.3-1.4,2.5-3,3.8-4.7L351.4,59.7z M318.4,56.6c0,0.6,0,1.3,0.1,1.9
			c0.1,0.6,0.3,1.1,0.5,1.6s0.5,0.9,0.9,1.2s0.9,0.4,1.5,0.4c1,0,1.8-0.4,2.6-1.2c0.8-0.8,1.4-1.8,2-3c0.6-1.2,1-2.4,1.4-3.6
			c0.3-1.2,0.6-2.3,0.7-3.1l2.4-11.3c-1.1,0-2.1,0.3-3.1,0.8s-1.9,1.2-2.8,2.1c-0.9,0.9-1.7,1.9-2.4,3.1c-0.7,1.2-1.4,2.4-1.9,3.6
			c-0.5,1.3-1,2.6-1.3,3.8C318.6,54.3,318.4,55.5,318.4,56.6z"/>
		<path class="st4" d="M346.8,61.1c0-1.1,0.1-2.4,0.2-4c0.1-1.5,0.3-3.1,0.5-4.8c0.2-1.7,0.5-3.4,0.8-5.1c0.3-1.7,0.6-3.4,0.9-5
			c0.3-1.6,0.7-3,1-4.3c0.3-1.3,0.7-2.4,1-3.2c0.2-0.6,0.4-1,0.6-1.3s0.4-0.6,0.7-0.8c0.3-0.2,0.6-0.3,1-0.4s0.9-0.1,1.5-0.1
			c0.7,0,1.2,0,1.6,0.1c0.4,0.1,0.6,0.2,0.8,0.5c0.2,0.2,0.3,0.6,0.3,1.1c0,0.5,0.1,1.1,0.1,1.9c0,1,0,2.1,0,3.5c0,1.3,0,2.7,0.1,4
			h0.4c0.5-1,1.1-2.2,1.7-3.5c0.6-1.3,1.4-2.5,2.2-3.6c0.8-1.1,1.8-2,2.9-2.8c1.1-0.8,2.3-1.1,3.7-1.1c0.5,0,1,0.1,1.4,0.3
			s0.9,0.4,1.2,0.7c0.3,0.3,0.6,0.7,0.8,1.1c0.2,0.5,0.3,1,0.3,1.5c0,0.4-0.1,1-0.2,1.8c-0.1,0.8-0.3,1.6-0.4,2.5
			c-0.2,0.9-0.3,1.7-0.4,2.5c-0.1,0.8-0.2,1.5-0.2,2c0,0.9,0.1,1.7,0.3,2.3s0.4,1.1,0.7,1.5c0.3,0.4,0.6,0.6,1,0.8s0.8,0.2,1.2,0.2
			c1.2,0,2.4-0.3,3.6-0.8c1.2-0.5,2.4-1.1,3.4-1.7c1.2-0.7,2.4-1.6,3.5-2.5l-0.6,9c-0.7,0.4-1.4,0.9-2.3,1.5c-0.8,0.5-1.8,1-2.7,1.5
			c-1,0.5-2,0.9-3,1.2c-1,0.3-2.1,0.5-3.2,0.5c-1.9,0-3.5-0.4-4.7-1.2c-1.2-0.8-2.1-1.8-2.8-3.1c-0.7-1.3-1.2-2.7-1.5-4.3
			c-0.3-1.6-0.6-3.2-0.8-4.8H363l-6.9,19.2c-0.4,1-0.7,1.8-1,2.5c-0.3,0.7-0.6,1.2-1,1.6c-0.3,0.4-0.7,0.7-1.1,0.9
			c-0.4,0.2-0.8,0.3-1.3,0.3c-1.1,0-1.9-0.2-2.5-0.7c-0.6-0.5-1.1-1.1-1.5-1.8c-0.3-0.8-0.6-1.6-0.7-2.6
			C346.9,63.1,346.8,62.1,346.8,61.1z"/>
		<path class="st4" d="M412.2,60.5c-2.5,1.4-4.7,2.7-6.6,3.8c-1.9,1.1-3.6,2-5.2,2.7c-1.5,0.7-2.8,1.3-4,1.6
			c-1.2,0.4-2.2,0.5-3.2,0.5c-2,0-3.7-0.6-5.2-1.8c-1.5-1.2-2.7-2.9-3.7-5.1c-1-2.2-1.8-4.9-2.3-8.1c-0.5-3.2-0.8-6.7-0.8-10.7
			c0-1.5,0.1-3.2,0.2-4.9c0.1-1.7,0.3-3.5,0.5-5.2c-0.8-0.1-1.4-0.2-1.8-0.3c-0.4-0.1-0.9-0.2-1.4-0.3c-0.5-0.1-1.1-0.2-1.8-0.3
			c-0.7-0.1-1.8-0.2-3.2-0.4c-0.6-0.1-1.1-0.2-1.4-0.4c-0.3-0.2-0.6-0.5-0.7-0.8s-0.2-0.6-0.3-0.9s0-0.6,0-0.8
			c0-0.5,0.3-0.9,0.8-1.2c0.5-0.3,1.1-0.5,1.9-0.6c0.8-0.1,1.6-0.2,2.6-0.2c0.9,0,1.8,0,2.7,0c0.9,0,1.6,0,2.3,0.1
			c0.7,0,1.2,0,1.4-0.1c0.7-3.5,1.6-6.8,2.6-10.1s2.3-6.1,3.6-8.7c1.3-2.5,2.8-4.6,4.3-6.1c1.6-1.5,3.2-2.3,4.9-2.3
			c1.1,0,2.1,0.3,3,0.9s1.7,1.4,2.3,2.5c0.6,1,1.1,2.2,1.5,3.6c0.3,1.4,0.5,2.8,0.5,4.3c0,1.3-0.2,2.6-0.5,4
			c-0.4,1.4-0.8,2.8-1.5,4.3c-0.6,1.5-1.3,2.9-2.2,4.4c-0.8,1.5-1.7,3-2.6,4.4c0.2,0,0.6,0,1.2,0.1c0.5,0,1.2,0,1.9,0.1
			c0.7,0,1.5,0.1,2.3,0.1c0.8,0,1.6,0.1,2.4,0.1s1.5,0.1,2.2,0.1c0.7,0,1.2,0.1,1.7,0.1c0.5,0,0.9,0.3,1.1,0.8
			c0.2,0.5,0.3,1.1,0.3,1.9c0,0.9-0.3,1.6-0.8,2.2c-0.5,0.6-1.1,0.8-1.7,0.8h-14.8c-0.7,1-1.5,2-2.3,3s-1.5,1.9-2.1,2.7
			c-0.1,1.6-0.2,3.2-0.3,4.7c0,0.7-0.1,1.4-0.1,2.1c0,0.7-0.1,1.4-0.1,2.1c0,0.7,0,1.4-0.1,2c0,0.6,0,1.2,0,1.8
			c0,1.4,0.1,2.6,0.4,3.5c0.3,1,0.6,1.7,1.1,2.3c0.5,0.6,1.1,1,1.8,1.3c0.7,0.3,1.5,0.4,2.4,0.4c0.5,0,1.2-0.1,2-0.4
			c0.8-0.3,1.7-0.6,2.7-1.1c1-0.5,2-1,3-1.6s2.1-1.3,3.2-2c1-0.7,2-1.5,3-2.3c1-0.8,1.8-1.6,2.6-2.5V60.5z M399.9,11.6
			c0-0.3,0-0.6-0.1-0.9c0-0.3-0.1-0.7-0.3-1c-0.1-0.3-0.3-0.6-0.6-0.8c-0.3-0.2-0.7-0.3-1.1-0.3c-0.7,0-1.3,0.6-2,1.8
			c-0.7,1.2-1.3,2.7-2,4.5c-0.6,1.8-1.2,3.9-1.8,6.1s-1.1,4.4-1.5,6.4c0.4,0.1,0.8,0.1,1.2,0.1c0.4,0,0.8,0.1,1.2,0.1
			c0.8-1.3,1.6-2.7,2.4-4.3s1.6-3,2.3-4.5c0.7-1.5,1.2-2.9,1.7-4.1C399.7,13.5,399.9,12.5,399.9,11.6z"/>
		<path class="st4" d="M434.5,60.9c-0.9,0.8-2.1,1.8-3.5,2.7c-1.4,1-2.9,1.9-4.5,2.7c-1.6,0.8-3.2,1.5-4.9,2
			c-1.7,0.5-3.2,0.8-4.7,0.8c-1.3,0-2.5-0.2-3.4-0.6c-0.9-0.4-1.7-0.9-2.2-1.6c-0.6-0.7-1-1.5-1.2-2.5c-0.2-1-0.4-2-0.4-3.2
			c0-1.6,0.2-3.5,0.6-5.7c0.4-2.1,0.8-4.4,1.4-6.7c0.5-2.3,1.1-4.6,1.7-6.9c0.6-2.3,1.1-4.4,1.6-6.3c0.2-0.7,0.5-1.2,1.1-1.7
			s1.2-0.9,1.8-1.2s1.4-0.5,2.1-0.7c0.7-0.1,1.4-0.2,2-0.2c1.1,0,1.8,0.2,2.2,0.6c0.4,0.4,0.6,0.9,0.6,1.6c0,0.6-0.1,1.4-0.4,2.4
			c-0.3,1.1-0.6,2.3-1,3.6c-0.4,1.3-0.8,2.8-1.2,4.4c-0.4,1.6-0.8,3.1-1.2,4.7c-0.4,1.6-0.7,3.1-1,4.6c-0.3,1.5-0.4,2.8-0.4,4
			c0,1.2,0.1,2.1,0.4,2.8c0.3,0.7,0.8,1,1.6,1c0.9,0,2-0.3,3.1-1c1.1-0.6,2.3-1.4,3.4-2.3s2.3-1.9,3.4-2.8c1.1-1,2.1-1.8,2.9-2.5
			V60.9z M417.2,21.3c0-0.6,0.1-1.3,0.4-2c0.3-0.7,0.7-1.4,1.3-2.1c0.6-0.7,1.4-1.2,2.3-1.7c1-0.4,2.2-0.7,3.6-0.7
			c0.9,0,1.7,0.1,2.5,0.3c0.8,0.2,1.5,0.5,2.1,0.9c0.6,0.4,1.1,1,1.4,1.7c0.3,0.7,0.5,1.5,0.5,2.5c0,0.9-0.1,1.7-0.4,2.5
			c-0.3,0.8-0.7,1.6-1.3,2.2c-0.6,0.6-1.4,1.2-2.3,1.6c-0.9,0.4-2.1,0.6-3.4,0.6c-2.3,0-3.9-0.5-5-1.6
			C417.8,24.5,417.2,23,417.2,21.3z"/>
		<path class="st4" d="M443.7,69.1c-2.4,0-4.4-0.4-6.2-1.3c-1.8-0.9-3.3-2-4.5-3.5c-1.2-1.5-2.1-3.2-2.7-5.1c-0.6-1.9-0.9-3.9-0.9-6
			c0-1.5,0.2-3,0.5-4.7s0.8-3.2,1.4-4.8s1.4-3,2.2-4.5c0.9-1.4,1.9-2.7,3.1-3.7s2.5-1.9,3.9-2.5s3-0.9,4.7-0.9
			c1.5,0,2.8,0.2,4.1,0.7c1.2,0.5,2.3,1.1,3.2,1.9c0.9,0.8,1.6,1.7,2.1,2.8c0.5,1.1,0.8,2.3,0.8,3.5c0,0.9-0.1,1.7-0.3,2.6
			c-0.2,0.8-0.6,1.6-1,2.3c-0.5,0.7-1,1.2-1.6,1.6c-0.6,0.4-1.4,0.6-2.2,0.6c-1.2,0-2-0.3-2.4-1c-0.4-0.6-0.6-1.5-0.6-2.7
			c0-0.5,0-1,0.1-1.5c0-0.5,0.1-1,0.1-1.4c0-0.6-0.1-1.1-0.2-1.5c-0.1-0.4-0.4-0.6-0.8-0.6c-1.1,0-2,0.3-2.7,0.8
			c-0.7,0.5-1.4,1.2-1.9,2c-0.5,0.8-0.9,1.7-1.3,2.7c-0.3,1-0.6,2-0.7,3s-0.3,2-0.3,2.9c-0.1,0.9-0.1,1.7-0.1,2.3
			c0,0.9,0.1,1.9,0.3,2.9c0.2,1,0.5,1.9,0.9,2.8s1.1,1.5,1.9,2.1c0.8,0.6,1.8,0.8,3.1,0.8c1.2,0,2.6-0.4,4.1-1.1
			c1.5-0.8,3-1.7,4.5-2.9c1.5-1.2,2.9-2.4,4.3-3.8c1.4-1.4,2.5-2.7,3.5-3.9l2.7,4.5c-1.9,2.8-4,5.2-6.2,7.4c-1,0.9-2,1.8-3.1,2.7
			c-1.1,0.9-2.3,1.7-3.5,2.3c-1.2,0.7-2.5,1.2-3.8,1.7C446.4,68.9,445,69.1,443.7,69.1z"/>
		<path class="st4" d="M483.6,60.9c-0.9,0.8-2.1,1.8-3.5,2.7c-1.4,1-2.9,1.9-4.5,2.7c-1.6,0.8-3.2,1.5-4.9,2
			c-1.7,0.5-3.2,0.8-4.7,0.8c-1.3,0-2.5-0.2-3.4-0.6c-0.9-0.4-1.7-0.9-2.2-1.6c-0.6-0.7-1-1.5-1.2-2.5c-0.2-1-0.4-2-0.4-3.2
			c0-1.6,0.2-3.5,0.6-5.7c0.4-2.1,0.8-4.4,1.4-6.7c0.5-2.3,1.1-4.6,1.7-6.9c0.6-2.3,1.1-4.4,1.6-6.3c0.2-0.7,0.5-1.2,1.1-1.7
			s1.2-0.9,1.8-1.2s1.4-0.5,2.1-0.7c0.7-0.1,1.4-0.2,2-0.2c1.1,0,1.8,0.2,2.2,0.6c0.4,0.4,0.6,0.9,0.6,1.6c0,0.6-0.1,1.4-0.4,2.4
			c-0.3,1.1-0.6,2.3-1,3.6c-0.4,1.3-0.8,2.8-1.2,4.4c-0.4,1.6-0.8,3.1-1.2,4.7c-0.4,1.6-0.7,3.1-1,4.6c-0.3,1.5-0.4,2.8-0.4,4
			c0,1.2,0.1,2.1,0.4,2.8c0.3,0.7,0.8,1,1.6,1c0.9,0,2-0.3,3.1-1c1.1-0.6,2.3-1.4,3.4-2.3s2.3-1.9,3.4-2.8c1.1-1,2.1-1.8,2.9-2.5
			V60.9z M466.3,21.3c0-0.6,0.1-1.3,0.4-2c0.3-0.7,0.7-1.4,1.3-2.1c0.6-0.7,1.4-1.2,2.3-1.7c1-0.4,2.2-0.7,3.6-0.7
			c0.9,0,1.7,0.1,2.5,0.3c0.8,0.2,1.5,0.5,2.1,0.9c0.6,0.4,1.1,1,1.4,1.7c0.3,0.7,0.5,1.5,0.5,2.5c0,0.9-0.1,1.7-0.4,2.5
			c-0.3,0.8-0.7,1.6-1.3,2.2c-0.6,0.6-1.4,1.2-2.3,1.6c-0.9,0.4-2.1,0.6-3.4,0.6c-2.3,0-3.9-0.5-5-1.6
			C466.9,24.5,466.3,23,466.3,21.3z"/>
		<path class="st4" d="M496.6,62.3c2.6,0,5-0.3,7.1-0.8c2.1-0.5,4.1-1.2,5.8-2.1c1.7-0.9,3.3-1.9,4.7-3.1c1.4-1.2,2.7-2.4,3.8-3.8
			l0.4,8.8c-0.8,1-1.8,2-3,2.9c-1.2,0.9-2.4,1.8-3.8,2.5c-1.4,0.7-2.8,1.3-4.4,1.7c-1.5,0.4-3,0.6-4.5,0.6c-0.2,0-0.4,0-0.7-0.1
			c-0.3-0.1-0.7-0.1-1.4-0.3c-0.7-0.1-1.6-0.3-2.9-0.5c-1.2-0.2-2.9-0.5-5.1-0.8v0.7c0,4.7-0.4,8.9-1.2,12.7
			c-0.8,3.8-1.8,7.1-3.1,9.8c-1.3,2.7-2.8,4.8-4.5,6.2c-1.7,1.5-3.5,2.2-5.3,2.2c-1.5,0-2.7-0.4-3.7-1.1c-1-0.7-1.8-1.7-2.3-2.9
			c-0.6-1.2-1-2.6-1.2-4.3s-0.4-3.4-0.4-5.2c0-1.1,0.2-2.2,0.5-3.6c0.3-1.3,0.8-2.7,1.3-4.2c0.6-1.5,1.2-2.9,1.9-4.4
			c0.7-1.5,1.4-3,2.2-4.4c1.7-3.3,3.7-6.7,6-10.2c0.3-2,0.6-4.1,0.9-6.2c0.3-2.1,0.7-4.2,1.1-6.1s1-3.9,1.7-5.6
			c0.7-1.8,1.6-3.3,2.6-4.6c1.1-1.3,2.3-2.4,3.8-3.1s3.3-1.2,5.4-1.2c1.6,0,3,0.2,4.4,0.6c1.4,0.4,2.6,1.1,3.6,2.1
			c1,1,1.8,2.2,2.4,3.7c0.6,1.5,0.9,3.4,0.9,5.5c0,1.7-0.3,3.4-0.8,5.1c-0.5,1.6-1.3,3.2-2.4,4.7c-1.1,1.5-2.5,2.9-4.2,4.2
			s-3.7,2.5-6,3.5L496.6,62.3z M478.3,86.1c0,0.2,0,0.5,0.1,1s0.2,0.9,0.4,1.4c0.2,0.5,0.5,0.9,0.8,1.2c0.3,0.4,0.7,0.5,1.2,0.5
			c0.4,0,0.8-0.2,1.1-0.7c0.3-0.5,0.5-1.1,0.7-1.9c0.2-0.8,0.3-1.7,0.4-2.7c0.1-1,0.1-2,0.2-3.1s0.1-2.1,0.1-3.1c0-1,0-1.9,0.1-2.7
			c0.1-1.4,0.1-2.6,0.2-3.5c0-1,0.1-1.8,0.1-2.4c0-0.7,0.1-1.3,0.1-1.8c-0.5,0.8-1,1.8-1.4,3c-0.5,1.1-0.9,2.3-1.3,3.5
			c-0.4,1.2-0.8,2.4-1.1,3.6c-0.3,1.2-0.6,2.3-0.9,3.4c-0.2,1-0.4,1.9-0.6,2.7C478.4,85.3,478.3,85.8,478.3,86.1z M491.7,58.4
			c1.5-0.8,2.9-1.6,4-2.6c1.1-1,2.1-2,2.9-3c0.8-1.1,1.5-2.2,2-3.4c0.5-1.2,0.9-2.3,1.2-3.5c0.1-0.6,0.2-1.2,0.3-2
			c0-0.8,0-1.5-0.2-2.1c-0.2-0.7-0.5-1.2-1-1.7c-0.5-0.5-1.1-0.7-2-0.7c-1,0-1.8,0.3-2.5,0.8c-0.7,0.5-1.3,1.2-1.9,2.1
			c-0.5,0.9-1,2-1.3,3.2c-0.3,1.2-0.6,2.6-0.8,4c-0.2,1.4-0.4,2.9-0.5,4.4S491.7,56.8,491.7,58.4z"/>
		<path class="st4" d="M554.1,59.7c-0.6,0.8-1.4,1.8-2.4,2.9c-1,1.1-2.1,2.2-3.3,3.2s-2.6,1.9-4,2.5s-2.8,1-4.2,1
			c-1.7,0-3.1-0.5-4.2-1.6s-2.1-2.7-2.9-4.8c-0.6,0.7-1.4,1.5-2.3,2.2c-0.9,0.7-1.9,1.4-3,2s-2.2,1.1-3.3,1.5
			c-1.2,0.4-2.3,0.6-3.5,0.6c-1.2,0-2.4-0.3-3.6-0.8c-1.2-0.5-2.2-1.2-3.1-2.2c-0.9-0.9-1.6-2.1-2.2-3.4c-0.5-1.3-0.8-2.9-0.8-4.6
			c0-1.9,0.3-3.9,0.8-5.9c0.5-2,1.3-4,2.2-6s2.1-3.8,3.4-5.5c1.3-1.7,2.7-3.2,4.3-4.5c1.5-1.3,3.2-2.3,4.9-3.1
			c1.7-0.8,3.5-1.1,5.2-1.1c0.6,0,1.1,0.1,1.4,0.3c0.3,0.2,0.6,0.5,0.8,0.8c0.2,0.3,0.4,0.6,0.6,0.9c0.2,0.3,0.5,0.5,0.8,0.6
			c0.3,0.1,0.6,0.2,0.9,0.3c0.3,0,0.6,0.1,1,0.1c0.3,0,0.6,0,0.9,0c0.3,0,0.6,0,0.9,0c0.4,0,0.7,0,1.1,0.1c0.3,0.1,0.6,0.2,0.9,0.5
			s0.5,0.6,0.6,1.1c0.1,0.5,0.2,1.1,0.2,1.9c0,1.2-0.1,2.6-0.4,4.1c-0.3,1.5-0.5,3-0.8,4.6c-0.3,1.6-0.6,3.2-0.8,4.7
			c-0.3,1.6-0.4,3.1-0.4,4.5c0,1.2,0.1,2.2,0.3,2.8c0.2,0.7,0.7,1,1.4,1c0.5,0,1.1-0.1,1.7-0.4c0.6-0.3,1.2-0.6,1.8-1.1
			c0.6-0.4,1.2-0.9,1.8-1.5c0.6-0.6,1.2-1.1,1.7-1.7c1.3-1.4,2.5-3,3.8-4.7L554.1,59.7z M521.2,56.6c0,0.6,0,1.3,0.1,1.9
			s0.3,1.1,0.5,1.6s0.5,0.9,0.9,1.2s0.9,0.4,1.5,0.4c1,0,1.8-0.4,2.6-1.2c0.8-0.8,1.4-1.8,2-3c0.6-1.2,1-2.4,1.4-3.6
			c0.3-1.2,0.6-2.3,0.7-3.1l2.4-11.3c-1.1,0-2.1,0.3-3.1,0.8c-1,0.5-1.9,1.2-2.8,2.1c-0.9,0.9-1.7,1.9-2.4,3.1
			c-0.7,1.2-1.4,2.4-1.9,3.6c-0.5,1.3-1,2.6-1.3,3.8C521.3,54.3,521.2,55.5,521.2,56.6z"/>
		<path class="st4" d="M549.6,61.1c0-1.1,0.1-2.4,0.2-4c0.1-1.5,0.3-3.1,0.5-4.8c0.2-1.7,0.5-3.4,0.8-5.1c0.3-1.7,0.6-3.4,0.9-5
			c0.3-1.6,0.7-3,1-4.3c0.3-1.3,0.7-2.4,1-3.2c0.2-0.6,0.4-1,0.6-1.3s0.4-0.6,0.7-0.8c0.3-0.2,0.6-0.3,1-0.4s0.9-0.1,1.5-0.1
			c0.7,0,1.2,0,1.6,0.1c0.4,0.1,0.6,0.2,0.8,0.5c0.2,0.2,0.3,0.6,0.3,1.1c0,0.5,0.1,1.1,0.1,1.9c0,1,0,2.1,0,3.5c0,1.3,0,2.7,0.1,4
			h0.4c0.5-1,1.1-2.2,1.7-3.5c0.6-1.3,1.4-2.5,2.2-3.6c0.8-1.1,1.8-2,2.9-2.8c1.1-0.8,2.3-1.1,3.7-1.1c0.5,0,1,0.1,1.4,0.3
			s0.9,0.4,1.2,0.7c0.3,0.3,0.6,0.7,0.8,1.1c0.2,0.5,0.3,1,0.3,1.5c0,0.4-0.1,1-0.2,1.8c-0.1,0.8-0.3,1.6-0.4,2.5
			c-0.2,0.9-0.3,1.7-0.4,2.5c-0.1,0.8-0.2,1.5-0.2,2c0,0.9,0.1,1.7,0.3,2.3s0.4,1.1,0.7,1.5c0.3,0.4,0.6,0.6,1,0.8s0.8,0.2,1.2,0.2
			c1.2,0,2.4-0.3,3.6-0.8c1.2-0.5,2.4-1.1,3.4-1.7c1.2-0.7,2.4-1.6,3.5-2.5l-0.6,9c-0.7,0.4-1.4,0.9-2.3,1.5c-0.8,0.5-1.8,1-2.7,1.5
			c-1,0.5-2,0.9-3,1.2c-1,0.3-2.1,0.5-3.2,0.5c-1.9,0-3.5-0.4-4.7-1.2c-1.2-0.8-2.1-1.8-2.8-3.1c-0.7-1.3-1.2-2.7-1.5-4.3
			c-0.3-1.6-0.6-3.2-0.8-4.8h-0.6l-6.9,19.2c-0.4,1-0.7,1.8-1,2.5c-0.3,0.7-0.6,1.2-1,1.6c-0.3,0.4-0.7,0.7-1.1,0.9
			c-0.4,0.2-0.8,0.3-1.3,0.3c-1.1,0-1.9-0.2-2.5-0.7c-0.6-0.5-1.1-1.1-1.5-1.8c-0.3-0.8-0.6-1.6-0.7-2.6
			C549.6,63.1,549.6,62.1,549.6,61.1z"/>
		<path class="st4" d="M606.8,61.8c0,0.1,0,0.4,0,0.8c0,0.4-0.1,0.9-0.3,1.4c-0.1,0.5-0.4,1.1-0.7,1.7s-0.7,1.2-1.3,1.7
			c-0.5,0.5-1.2,0.9-2,1.3c-0.8,0.3-1.8,0.5-3,0.5c-1,0-1.8-0.1-2.6-0.4s-1.4-0.6-2-1.1c-0.6-0.5-1-1.1-1.3-1.9
			c-0.3-0.8-0.5-1.7-0.5-2.8c0-0.9,0.1-1.8,0.4-2.7c0.3-0.9,0.7-1.7,1.3-2.4c0.6-0.7,1.3-1.2,2.2-1.7c0.9-0.4,2-0.6,3.2-0.6
			c2.1,0,3.8,0.5,4.9,1.6S606.8,59.8,606.8,61.8z M605.4,46.6c-0.4,1.2-0.9,2.2-1.6,2.8c-0.7,0.6-1.5,1-2.3,1
			c-0.9,0-1.7-0.2-2.4-0.6c-0.7-0.4-1-1-1-1.9c0-2.3,0.4-4.3,1.1-6c0.8-1.7,1.7-3.2,2.8-4.6c1.1-1.4,2.4-2.6,3.7-3.7
			c1.3-1.1,2.6-2.3,3.7-3.5c1.1-1.2,2.1-2.5,2.8-4c0.8-1.4,1.1-3.1,1.1-5c0-1.1-0.2-2-0.6-2.7c-0.4-0.7-0.9-1.4-1.5-1.8
			s-1.3-0.8-2.1-1c-0.8-0.2-1.5-0.3-2.3-0.3c-0.6,0-1.2,0.2-1.9,0.5c-0.6,0.4-1.2,0.8-1.8,1.3c-0.6,0.5-1.1,1-1.5,1.5
			c-0.4,0.5-0.7,0.9-0.8,1.3c-0.4,0.5-0.9,0.9-1.5,1.2s-1.1,0.4-1.7,0.4c-0.5,0-1-0.1-1.4-0.4c-0.5-0.3-0.9-0.6-1.3-1.1
			c-0.4-0.5-0.7-1-0.9-1.6c-0.2-0.6-0.3-1.3-0.3-2c0-0.6,0.2-1.2,0.6-1.8c0.8-1.2,1.7-2.2,2.7-3.1c1.1-0.9,2.2-1.7,3.4-2.3
			c1.2-0.6,2.5-1.1,3.8-1.4s2.6-0.5,3.9-0.5c1.6,0,3.2,0.3,4.9,0.8c1.7,0.5,3.3,1.3,4.7,2.4c1.4,1.1,2.6,2.4,3.5,4.1
			c0.9,1.6,1.4,3.6,1.4,5.9c0,2.7-0.3,5.1-1,7c-0.6,1.9-1.5,3.6-2.5,5.1c-1,1.4-2.2,2.7-3.5,3.8c-1.3,1.1-2.6,2.2-3.9,3.2
			c-1.3,1-2.5,2.1-3.7,3.3C607.1,43.8,606.2,45.1,605.4,46.6z"/>
	</g>
</g>
</svg>
