<?xml version="1.0" encoding="utf-8"?>
<!-- Generator: Adobe Illustrator 19.1.0, SVG Export Plug-In . SVG Version: 6.00 Build 0)  -->
<svg version="1.1" id="Capa_1" xmlns="http://www.w3.org/2000/svg" xmlns:xlink="http://www.w3.org/1999/xlink" x="0px" y="0px"
	 viewBox="0 0 1369.5 422.3" style="enable-background:new 0 0 1369.5 422.3;" xml:space="preserve">
<style type="text/css">
	.st0{fill:none;stroke:#FFFFFF;stroke-width:19;stroke-linecap:round;stroke-linejoin:round;stroke-miterlimit:10;}
	.st1{fill:none;stroke:#1558B9;stroke-miterlimit:10;}
	.st2{fill:none;stroke:#1558B9;stroke-miterlimit:10;stroke-dasharray:2.0005,4.0009;}
	.st3{fill:url(#SVGID_1_);}
	.st4{fill:#424242;}
	.st5{fill:#FFFFFF;}
	.st6{fill:none;stroke:#1C75F7;stroke-width:3.171;stroke-miterlimit:10;}
	.st7{fill:#1C75F7;}
	.st8{fill:#77ACFA;}
	.st9{fill:#1558B9;}
	.st10{fill:#4991F9;}
	.st11{fill:#FF4A0F;}
	.st12{fill:#BF380B;}
	.st13{fill:url(#SVGID_2_);}
	.st14{fill:#D74D55;}
	.st15{fill:#FFB80F;stroke:#F07A1A;stroke-width:1.5855;stroke-miterlimit:10;}
	.st16{fill:#F07A1A;}
	.st17{fill:#FAC4A1;stroke:#FAC4A1;stroke-width:0.9942;stroke-miterlimit:10;}
	.st18{fill:#3A555C;stroke:#3A555C;stroke-width:0.9942;stroke-miterlimit:10;}
	.st19{fill:none;stroke:#737373;stroke-width:3.171;stroke-linecap:round;stroke-miterlimit:10;}
	.st20{fill:none;stroke:#4D4D4D;stroke-width:3.171;stroke-linecap:round;stroke-miterlimit:10;}
	.st21{fill:#8B8D95;}
	.st22{fill:#E5E5E5;}
	.st23{fill:#DDDDDD;}
	.st24{fill:#C7C7C7;}
	.st25{fill:none;stroke:#424242;stroke-width:3.171;stroke-miterlimit:10;}
	.st26{fill:url(#SVGID_3_);}
	.st27{fill:#FF961C;}
	.st28{fill:#FFE13B;}
	.st29{opacity:0.2;fill:#FFFFFF;}
	.st30{fill:#0E3B7C;}
	.st31{fill:#2A2A2A;}
	.st32{fill:#450043;}
	.st33{fill:#DB5215;}
</style>
<path class="st0" d="M3.5,121.6h40.8c26.4,0,47.7-21.4,47.7-47.7V57.2c0-26.4,21.4-47.7,47.7-47.7h7.8c26.4,0,47.7,21.4,47.7,47.7
	v168.2c0,26.4,21.4,47.7,47.7,47.7h121.2c26.4,0,47.7,21.4,47.7,47.7V365c0,26.4,21.4,47.7,47.7,47.7h0c26.4,0,47.7-21.4,47.7-47.7
	v-44.1c0-26.4,21.4-47.7,47.7-47.7h138.1c26.4,0,47.7-21.4,47.7-47.7v-41.9c0-26.4,21.4-47.7,47.7-47.7h16
	c26.4,0,47.7,21.4,47.7,47.7V365c0,26.4,21.4,47.7,47.7,47.7h104.5c26.4,0,47.7-21.4,47.7-47.7V57.2c0-26.4,21.4-47.7,47.7-47.7h4.1
	c26.4,0,47.7,21.4,47.7,47.7v10.7c0,26.4,21.4,47.7,47.7,47.7h169.8"/>
<g>
	<g>
		<line class="st1" x1="3.5" y1="121.6" x2="4.5" y2="121.6"/>
		<path class="st2" d="M8.5,121.6h35.8c26.4,0,47.7-21.4,47.7-47.7V57.2c0-26.4,21.4-47.7,47.7-47.7h7.8c26.4,0,47.7,21.4,47.7,47.7
			v168.2c0,26.4,21.4,47.7,47.7,47.7h121.2c26.4,0,47.7,21.4,47.7,47.7V365c0,26.4,21.4,47.7,47.7,47.7h0
			c26.4,0,47.7-21.4,47.7-47.7v-44.1c0-26.4,21.4-47.7,47.7-47.7h138.1c26.4,0,47.7-21.4,47.7-47.7v-41.9
			c0-26.4,21.4-47.7,47.7-47.7h16c26.4,0,47.7,21.4,47.7,47.7V365c0,26.4,21.4,47.7,47.7,47.7h104.5c26.4,0,47.7-21.4,47.7-47.7
			V57.2c0-26.4,21.4-47.7,47.7-47.7h4.1c26.4,0,47.7,21.4,47.7,47.7v10.7c0,26.4,21.4,47.7,47.7,47.7h166.8"/>
		<line class="st1" x1="1368.5" y1="115.6" x2="1369.5" y2="115.6"/>
	</g>
</g>
<linearGradient id="SVGID_1_" gradientUnits="userSpaceOnUse" x1="486.0046" y1="303.6296" x2="617.9713" y2="303.6296">
	<stop  offset="0" style="stop-color:#517E89;stop-opacity:0"/>
	<stop  offset="1" style="stop-color:#517E89;stop-opacity:0.7"/>
</linearGradient>
<polygon class="st3" points="552,369.6 486,303.6 552,237.6 618,303.6 "/>
<g>
	<g>
		<g id="XMLID_70_">
			<path id="XMLID_71_" class="st4" d="M538.7,262l72.2,0.1c3.9,0,7,3.2,7,7.1v96.3c0,3.9-3.2,7.1-7.1,7.1h-72.2
				c-3.9,0-7.1-3.2-7.1-7.1V269C531.7,265.1,534.8,262,538.7,262z"/>
		</g>
		<g>
			<rect x="538.8" y="268.5" class="st5" width="72.3" height="92.2"/>
			<line class="st6" x1="563.4" y1="283.1" x2="599.4" y2="283.1"/>
			<line class="st6" x1="563.4" y1="291.3" x2="599.4" y2="291.3"/>
			<line class="st6" x1="550.2" y1="299.6" x2="599.4" y2="299.6"/>
			<line class="st6" x1="550.2" y1="307.8" x2="599.4" y2="307.8"/>
			<line class="st6" x1="550.2" y1="323.5" x2="599.4" y2="323.5"/>
			<line class="st6" x1="550.3" y1="331.8" x2="584.6" y2="331.8"/>
			<g>
				<path class="st7" d="M555,280.9h2.1l4.7,12.4h-2.5l-1.2-3.1h-4.3l-1.1,3.1h-2.5L555,280.9z M557.8,288.5l-1.7-4.9l-1.8,4.9
					H557.8z"/>
			</g>
		</g>
	</g>
	<path id="XMLID_69_" class="st8" d="M582.5,259.1c0-4.3-3.5-7.7-7.7-7.7c-4.3,0-7.7,3.5-7.7,7.7l-7.3,0c-2,0-3.7,1.7-3.7,3.7v4.3
		c0,2,1.7,3.7,3.7,3.7h30c2,0,3.7-1.7,3.7-3.7v-4.3c0-2-1.7-3.7-3.7-3.7L582.5,259.1z"/>
	<circle class="st7" cx="574.9" cy="257.2" r="2"/>
</g>
<polygon class="st9" points="517.5,239.6 707.6,239.6 691.8,218.9 707.6,198.2 517.5,198.2 "/>
<polygon class="st9" points="1052,175.3 1293.2,175.3 1277.4,154.6 1293.2,133.9 1052,133.9 "/>
<g>
	<path class="st5" d="M531.3,223.9v-13.5h5.8c0.6,0,1.1,0.1,1.6,0.4c0.5,0.2,0.9,0.6,1.3,1c0.4,0.4,0.6,0.9,0.8,1.4
		c0.2,0.5,0.3,1,0.3,1.6c0,0.5-0.1,0.9-0.2,1.4c-0.1,0.4-0.3,0.8-0.6,1.2s-0.5,0.7-0.9,0.9c-0.3,0.3-0.7,0.4-1.2,0.6l3.3,5.2h-1.9
		l-3.1-4.8H533v4.8H531.3z M533,217.6h4.1c0.4,0,0.7-0.1,1-0.2c0.3-0.2,0.5-0.4,0.7-0.6c0.2-0.3,0.4-0.6,0.5-0.9
		c0.1-0.3,0.2-0.7,0.2-1.1c0-0.4-0.1-0.7-0.2-1.1c-0.1-0.3-0.3-0.6-0.5-0.9c-0.2-0.3-0.5-0.5-0.8-0.6c-0.3-0.1-0.6-0.2-0.9-0.2h-4
		V217.6z"/>
	<path class="st5" d="M547.7,224.1c-0.7,0-1.4-0.1-2.1-0.4s-1.2-0.6-1.6-1.1s-0.8-1-1-1.6c-0.2-0.6-0.4-1.3-0.4-2s0.1-1.4,0.4-2
		c0.2-0.6,0.6-1.2,1-1.6c0.4-0.5,1-0.8,1.6-1.1s1.3-0.4,2.1-0.4s1.4,0.1,2,0.4s1.1,0.6,1.6,1.1c0.4,0.5,0.8,1,1,1.6s0.4,1.3,0.4,1.9
		c0,0.1,0,0.3,0,0.4c0,0.1,0,0.2,0,0.3h-8.2c0,0.5,0.2,0.9,0.3,1.3s0.4,0.8,0.7,1c0.3,0.3,0.6,0.5,1,0.7c0.4,0.2,0.8,0.2,1.2,0.2
		c0.3,0,0.6,0,0.9-0.1c0.3-0.1,0.6-0.2,0.8-0.3c0.3-0.1,0.5-0.3,0.7-0.5c0.2-0.2,0.3-0.4,0.4-0.7l1.4,0.4c-0.2,0.4-0.4,0.7-0.7,1
		c-0.3,0.3-0.6,0.6-1,0.8c-0.4,0.2-0.8,0.4-1.2,0.5S548.2,224.1,547.7,224.1z M551.1,218.3c0-0.5-0.2-0.9-0.4-1.3
		c-0.2-0.4-0.4-0.7-0.7-1c-0.3-0.3-0.6-0.5-1-0.7c-0.4-0.2-0.8-0.2-1.3-0.2s-0.9,0.1-1.3,0.2s-0.7,0.4-1,0.7c-0.3,0.3-0.5,0.6-0.7,1
		c-0.2,0.4-0.3,0.8-0.3,1.3H551.1z"/>
	<path class="st5" d="M558.5,224.1c-0.7,0-1.3-0.1-1.9-0.4c-0.6-0.3-1-0.7-1.5-1.1c-0.4-0.5-0.7-1-0.9-1.6c-0.2-0.6-0.3-1.2-0.3-1.9
		c0-0.7,0.1-1.4,0.3-2c0.2-0.6,0.5-1.2,0.9-1.6c0.4-0.5,0.9-0.8,1.5-1.1c0.6-0.3,1.2-0.4,1.9-0.4c0.8,0,1.6,0.2,2.2,0.6
		c0.6,0.4,1.1,0.9,1.5,1.5v-2h1.5v9.8c0,0.7-0.1,1.3-0.4,1.9c-0.3,0.5-0.6,1-1.1,1.4c-0.5,0.4-1,0.6-1.6,0.8c-0.6,0.2-1.3,0.3-2,0.3
		c-1.1,0-2-0.2-2.7-0.6s-1.3-0.9-1.8-1.6l1-0.9c0.4,0.6,0.9,1,1.5,1.3s1.3,0.4,2,0.4c0.5,0,0.9-0.1,1.3-0.2s0.8-0.3,1.1-0.6
		c0.3-0.3,0.5-0.6,0.7-0.9s0.3-0.8,0.3-1.3v-1.7c-0.2,0.3-0.4,0.6-0.7,0.8c-0.3,0.2-0.5,0.5-0.8,0.6c-0.3,0.2-0.6,0.3-1,0.4
		C559.2,224,558.9,224.1,558.5,224.1z M559,222.7c0.4,0,0.7-0.1,1-0.2c0.3-0.1,0.6-0.3,0.9-0.5c0.3-0.2,0.5-0.4,0.7-0.7
		c0.2-0.3,0.3-0.5,0.4-0.8v-2.9c-0.1-0.3-0.3-0.7-0.5-0.9s-0.5-0.5-0.8-0.7c-0.3-0.2-0.6-0.4-0.9-0.5c-0.3-0.1-0.6-0.2-1-0.2
		c-0.5,0-1,0.1-1.4,0.3c-0.4,0.2-0.7,0.5-1,0.9c-0.3,0.4-0.5,0.8-0.6,1.2c-0.2,0.5-0.2,0.9-0.2,1.4c0,0.5,0.1,1,0.3,1.4
		c0.2,0.4,0.4,0.8,0.7,1.2c0.3,0.3,0.7,0.6,1.1,0.8C558.1,222.6,558.5,222.7,559,222.7z"/>
	<path class="st5" d="M566.3,212.2v-2.1h1.7v2.1H566.3z M566.3,223.9V214h1.7v9.9H566.3z"/>
	<path class="st5" d="M574,224.1c-0.8,0-1.6-0.1-2.4-0.4c-0.8-0.2-1.4-0.6-2-1.1l0.7-1.1c0.6,0.4,1.2,0.8,1.7,1
		c0.6,0.2,1.2,0.3,1.8,0.3c0.7,0,1.3-0.1,1.7-0.4s0.6-0.7,0.6-1.2c0-0.2-0.1-0.4-0.2-0.6c-0.1-0.2-0.3-0.3-0.5-0.4
		c-0.2-0.1-0.5-0.2-0.9-0.3s-0.8-0.2-1.2-0.3c-0.6-0.2-1.1-0.3-1.5-0.4s-0.8-0.3-1.1-0.5c-0.3-0.2-0.5-0.4-0.6-0.7
		c-0.1-0.3-0.2-0.6-0.2-1c0-0.5,0.1-0.9,0.3-1.3c0.2-0.4,0.5-0.7,0.8-1c0.3-0.3,0.7-0.5,1.2-0.6s1-0.2,1.5-0.2
		c0.7,0,1.4,0.1,2.1,0.4c0.6,0.2,1.2,0.6,1.6,0.9l-0.8,1c-0.4-0.4-0.9-0.6-1.4-0.8c-0.5-0.2-1.1-0.3-1.6-0.3c-0.6,0-1.1,0.1-1.5,0.4
		c-0.4,0.3-0.6,0.7-0.6,1.2c0,0.2,0,0.4,0.1,0.6s0.2,0.3,0.4,0.4c0.2,0.1,0.4,0.2,0.7,0.3c0.3,0.1,0.7,0.2,1.1,0.3
		c0.7,0.2,1.2,0.3,1.7,0.5c0.5,0.2,0.9,0.3,1.2,0.6c0.3,0.2,0.6,0.5,0.7,0.8c0.2,0.3,0.2,0.6,0.2,1.1c0,0.9-0.4,1.7-1.1,2.2
		S575.2,224.1,574,224.1z"/>
	<path class="st5" d="M585,223.4c-0.1,0.1-0.2,0.1-0.4,0.2c-0.2,0.1-0.4,0.1-0.6,0.2s-0.4,0.1-0.7,0.2c-0.2,0-0.5,0.1-0.8,0.1
		c-0.6,0-1.1-0.2-1.6-0.5c-0.4-0.3-0.7-0.9-0.7-1.6v-6.7H579V214h1.3v-3.3h1.7v3.3h2.2v1.3H582v6.2c0,0.4,0.1,0.6,0.4,0.8
		c0.2,0.2,0.5,0.2,0.8,0.2c0.3,0,0.6-0.1,0.9-0.2c0.3-0.1,0.5-0.2,0.6-0.3L585,223.4z"/>
	<path class="st5" d="M591.7,215.5c-0.8,0-1.6,0.2-2.2,0.6s-1.1,1-1.4,1.7v6.1h-1.7V214h1.6v2.3c0.3-0.7,0.8-1.2,1.3-1.7
		c0.6-0.4,1.2-0.7,1.8-0.7c0.1,0,0.2,0,0.3,0c0.1,0,0.2,0,0.2,0V215.5z"/>
	<path class="st5" d="M595.8,224.1c-0.5,0-0.9-0.1-1.3-0.2s-0.8-0.4-1.1-0.7c-0.3-0.3-0.5-0.6-0.7-1c-0.2-0.4-0.3-0.8-0.3-1.2
		c0-0.5,0.1-0.9,0.3-1.2s0.5-0.7,0.9-1c0.4-0.3,0.8-0.5,1.3-0.6c0.5-0.2,1.1-0.2,1.7-0.2c0.5,0,1,0,1.5,0.1c0.5,0.1,0.9,0.2,1.3,0.4
		v-0.8c0-0.8-0.2-1.4-0.7-1.9c-0.5-0.5-1.1-0.7-1.9-0.7c-1,0-2.1,0.4-3.2,1.2l-0.6-1.1c1.3-0.9,2.6-1.3,3.9-1.3c1.3,0,2.3,0.3,3,1
		c0.7,0.7,1.1,1.7,1.1,2.9v4c0,0.4,0.2,0.6,0.5,0.6v1.4c-0.2,0-0.3,0-0.4,0.1c-0.1,0-0.2,0-0.4,0c-0.3,0-0.6-0.1-0.8-0.3
		c-0.2-0.2-0.3-0.4-0.4-0.7l0-0.7c-0.4,0.6-1,1-1.7,1.4S596.5,224.1,595.8,224.1z M596.2,222.9c0.6,0,1.1-0.1,1.7-0.3
		c0.5-0.2,0.9-0.5,1.2-0.9c0.2-0.2,0.4-0.5,0.4-0.7v-1.5c-0.8-0.3-1.7-0.5-2.5-0.5c-0.8,0-1.5,0.2-2,0.5c-0.5,0.4-0.8,0.8-0.8,1.4
		c0,0.3,0.1,0.5,0.2,0.8c0.1,0.2,0.3,0.4,0.5,0.6c0.2,0.2,0.4,0.3,0.7,0.4S595.9,222.9,596.2,222.9z"/>
	<path class="st5" d="M608.9,215.5c-0.8,0-1.6,0.2-2.2,0.6s-1.1,1-1.4,1.7v6.1h-1.7V214h1.6v2.3c0.3-0.7,0.8-1.2,1.3-1.7
		c0.6-0.4,1.2-0.7,1.8-0.7c0.1,0,0.2,0,0.3,0c0.1,0,0.2,0,0.2,0V215.5z"/>
	<path class="st5" d="M620.6,215.5c-0.8,0-1.6,0.2-2.2,0.6s-1.1,1-1.4,1.7v6.1h-1.7V214h1.6v2.3c0.3-0.7,0.8-1.2,1.3-1.7
		c0.6-0.4,1.2-0.7,1.8-0.7c0.1,0,0.2,0,0.3,0c0.1,0,0.2,0,0.2,0V215.5z"/>
	<path class="st5" d="M626.2,224.1c-0.7,0-1.4-0.1-2.1-0.4s-1.2-0.6-1.6-1.1s-0.8-1-1-1.6c-0.2-0.6-0.4-1.3-0.4-2s0.1-1.4,0.4-2
		c0.2-0.6,0.6-1.2,1-1.6c0.4-0.5,1-0.8,1.6-1.1s1.3-0.4,2.1-0.4s1.4,0.1,2,0.4s1.1,0.6,1.6,1.1c0.4,0.5,0.8,1,1,1.6s0.4,1.3,0.4,1.9
		c0,0.1,0,0.3,0,0.4c0,0.1,0,0.2,0,0.3h-8.2c0,0.5,0.2,0.9,0.3,1.3s0.4,0.8,0.7,1c0.3,0.3,0.6,0.5,1,0.7c0.4,0.2,0.8,0.2,1.2,0.2
		c0.3,0,0.6,0,0.9-0.1c0.3-0.1,0.6-0.2,0.8-0.3c0.3-0.1,0.5-0.3,0.7-0.5c0.2-0.2,0.3-0.4,0.4-0.7l1.4,0.4c-0.2,0.4-0.4,0.7-0.7,1
		c-0.3,0.3-0.6,0.6-1,0.8c-0.4,0.2-0.8,0.4-1.2,0.5S626.7,224.1,626.2,224.1z M629.6,218.3c0-0.5-0.2-0.9-0.4-1.3
		c-0.2-0.4-0.4-0.7-0.7-1c-0.3-0.3-0.6-0.5-1-0.7c-0.4-0.2-0.8-0.2-1.3-0.2s-0.9,0.1-1.3,0.2s-0.7,0.4-1,0.7c-0.3,0.3-0.5,0.6-0.7,1
		c-0.2,0.4-0.3,0.8-0.3,1.3H629.6z"/>
	<path class="st5" d="M636,224.1c-1,0-1.8-0.3-2.4-1c-0.5-0.7-0.8-1.7-0.8-3.1V214h1.7v5.6c0,2,0.7,3,2.1,3c0.7,0,1.3-0.2,1.9-0.7
		c0.6-0.4,1-1,1.3-1.8V214h1.7v7.9c0,0.4,0.2,0.6,0.5,0.6v1.4c-0.2,0-0.3,0-0.4,0c-0.1,0-0.2,0-0.3,0c-0.3,0-0.6-0.1-0.8-0.3
		s-0.3-0.4-0.4-0.7l0-1.2c-0.4,0.7-1,1.3-1.7,1.7C637.7,223.9,636.9,224.1,636,224.1z"/>
	<path class="st5" d="M652.9,223.9h-1.7v-5.5c0-1.1-0.2-1.8-0.5-2.3c-0.3-0.5-0.8-0.7-1.5-0.7c-0.3,0-0.7,0.1-1,0.2
		c-0.3,0.1-0.7,0.3-1,0.5c-0.3,0.2-0.6,0.5-0.8,0.8c-0.2,0.3-0.4,0.7-0.5,1v6h-1.7V214h1.5v2.1c0.4-0.7,1-1.3,1.7-1.7
		c0.7-0.4,1.5-0.6,2.4-0.6c0.6,0,1,0.1,1.4,0.3s0.7,0.5,0.9,0.9s0.4,0.8,0.5,1.3s0.1,1.1,0.1,1.7V223.9z"/>
	<path class="st5" d="M655.4,212.2v-2.1h1.7v2.1H655.4z M655.4,223.9V214h1.7v9.9H655.4z"/>
	<path class="st5" d="M664.1,224.1c-0.7,0-1.4-0.1-2-0.4c-0.6-0.3-1.1-0.7-1.6-1.1s-0.8-1-1-1.6c-0.2-0.6-0.4-1.3-0.4-2
		c0-0.7,0.1-1.4,0.4-2c0.2-0.6,0.6-1.2,1-1.6s1-0.8,1.6-1.1c0.6-0.3,1.3-0.4,2-0.4c0.7,0,1.4,0.1,2,0.4s1.1,0.7,1.6,1.1s0.8,1,1,1.6
		c0.2,0.6,0.4,1.3,0.4,2c0,0.7-0.1,1.3-0.4,2c-0.2,0.6-0.6,1.2-1,1.6s-1,0.8-1.6,1.1C665.5,224,664.8,224.1,664.1,224.1z M660.8,219
		c0,0.5,0.1,1,0.3,1.4s0.4,0.8,0.7,1.2c0.3,0.3,0.6,0.6,1,0.8c0.4,0.2,0.8,0.3,1.3,0.3s0.9-0.1,1.3-0.3c0.4-0.2,0.8-0.5,1.1-0.8
		c0.3-0.3,0.5-0.7,0.7-1.2c0.2-0.4,0.3-0.9,0.3-1.5c0-0.5-0.1-1-0.3-1.4c-0.2-0.4-0.4-0.8-0.7-1.2c-0.3-0.3-0.7-0.6-1.1-0.8
		c-0.4-0.2-0.8-0.3-1.3-0.3s-0.9,0.1-1.3,0.3s-0.7,0.5-1,0.8c-0.3,0.3-0.5,0.7-0.7,1.2C660.8,218,660.8,218.5,660.8,219z
		 M664.3,212.4l-1.1-0.4l1.1-1.9h1.7L664.3,212.4z"/>
	<path class="st5" d="M679.6,223.9h-1.7v-5.5c0-1.1-0.2-1.8-0.5-2.3c-0.3-0.5-0.8-0.7-1.5-0.7c-0.3,0-0.7,0.1-1,0.2
		c-0.3,0.1-0.7,0.3-1,0.5c-0.3,0.2-0.6,0.5-0.8,0.8c-0.2,0.3-0.4,0.7-0.5,1v6H671V214h1.5v2.1c0.4-0.7,1-1.3,1.7-1.7
		c0.7-0.4,1.5-0.6,2.4-0.6c0.6,0,1,0.1,1.4,0.3s0.7,0.5,0.9,0.9s0.4,0.8,0.5,1.3s0.1,1.1,0.1,1.7V223.9z"/>
</g>
<g>
	<path class="st10" d="M879.6,142.5h7.4L887,143h-6.9l-1.1,5.1h6l-0.1,0.5h-6l-1.1,5.4h7l-0.1,0.5h-7.6L879.6,142.5z"/>
	<path class="st10" d="M888.2,145.7h0.5l-0.5,2.2c0.2-0.4,0.5-0.7,0.8-1c0.3-0.3,0.7-0.5,1-0.7s0.7-0.4,1.1-0.5
		c0.4-0.1,0.8-0.2,1.1-0.2c0.6,0,1.1,0.2,1.4,0.5c0.3,0.4,0.5,0.9,0.5,1.6c0,0.3,0,0.5-0.1,0.8c0,0.3-0.1,0.6-0.2,1l-1.1,5h-0.6
		l1-4.9c0.1-0.7,0.2-1.2,0.2-1.7c0-1.2-0.5-1.8-1.5-1.8c-0.4,0-0.8,0.1-1.2,0.2c-0.4,0.1-0.8,0.4-1.2,0.6s-0.7,0.6-1,0.9
		c-0.3,0.4-0.6,0.7-0.8,1.2l-1.2,5.5h-0.6L888.2,145.7z"/>
	<path class="st10" d="M899.1,154.7c-0.5,0-0.9-0.1-1.3-0.3s-0.7-0.5-1-0.8s-0.5-0.7-0.7-1.2c-0.2-0.5-0.2-0.9-0.2-1.5
		c0-0.7,0.1-1.4,0.4-2.1s0.7-1.2,1.1-1.7c0.5-0.5,1-0.9,1.6-1.2c0.6-0.3,1.3-0.4,2-0.4c0.7,0,1.4,0.2,1.9,0.5c0.5,0.4,0.8,0.8,1,1.5
		l-0.6,0.2c-0.2-0.5-0.4-0.9-0.9-1.2c-0.4-0.3-0.9-0.4-1.5-0.4c-0.6,0-1.1,0.1-1.6,0.4c-0.5,0.3-1,0.6-1.4,1c-0.4,0.4-0.7,0.9-1,1.5
		c-0.2,0.6-0.4,1.2-0.4,1.8c0,0.5,0.1,0.9,0.2,1.3c0.1,0.4,0.3,0.7,0.6,1c0.2,0.3,0.5,0.5,0.9,0.7s0.7,0.3,1.1,0.3
		c0.3,0,0.6,0,1-0.1c0.3-0.1,0.6-0.2,0.9-0.4c0.3-0.2,0.5-0.3,0.8-0.6c0.2-0.2,0.4-0.4,0.5-0.7l0.5,0.2c-0.2,0.3-0.4,0.6-0.7,0.8
		c-0.3,0.3-0.6,0.5-0.9,0.7c-0.3,0.2-0.7,0.3-1.1,0.4C899.8,154.6,899.4,154.7,899.1,154.7z"/>
	<path class="st10" d="M907.5,154.7c-0.5,0-0.9-0.1-1.3-0.3c-0.4-0.2-0.7-0.5-1-0.8c-0.3-0.3-0.5-0.7-0.6-1.2
		c-0.1-0.4-0.2-0.9-0.2-1.4c0-0.7,0.1-1.4,0.4-2s0.6-1.2,1.1-1.7c0.5-0.5,1-0.9,1.6-1.2c0.6-0.3,1.2-0.5,1.8-0.5
		c0.4,0,0.7,0.1,1,0.2c0.3,0.1,0.6,0.3,0.8,0.5c0.2,0.2,0.5,0.4,0.6,0.7c0.2,0.3,0.3,0.5,0.4,0.8l0.4-2h0.6l-1.7,7.9
		c0,0.1,0,0.1,0,0.2c0,0.1,0.1,0.2,0.2,0.2l-0.1,0.5c0,0-0.1,0-0.1,0c0,0-0.1,0-0.1,0c-0.2,0-0.3-0.1-0.4-0.2
		c-0.1-0.1-0.1-0.2-0.1-0.4c0,0,0-0.1,0-0.1c0,0,0-0.1,0-0.2c0-0.1,0-0.2,0.1-0.4c0-0.2,0.1-0.4,0.1-0.6c-0.5,0.6-1,1.1-1.7,1.4
		C908.8,154.5,908.2,154.7,907.5,154.7z M907.7,154.2c0.3,0,0.7-0.1,1.1-0.2s0.8-0.3,1.1-0.6c0.4-0.2,0.7-0.5,0.9-0.8s0.5-0.6,0.6-1
		l0.6-3c0-0.3-0.1-0.6-0.3-0.9c-0.2-0.3-0.4-0.6-0.6-0.8c-0.2-0.2-0.5-0.4-0.9-0.5c-0.3-0.1-0.7-0.2-1-0.2c-0.6,0-1.1,0.1-1.6,0.4
		c-0.5,0.3-1,0.7-1.4,1.1s-0.7,1-0.9,1.5c-0.2,0.6-0.3,1.1-0.3,1.7c0,0.4,0.1,0.8,0.2,1.2c0.1,0.4,0.3,0.7,0.6,1s0.5,0.5,0.9,0.7
		S907.3,154.2,907.7,154.2z"/>
	<path class="st10" d="M915.9,145.7h0.5l-0.5,2.2c0.2-0.4,0.5-0.7,0.8-0.9c0.3-0.3,0.6-0.5,0.9-0.7c0.3-0.2,0.6-0.3,0.9-0.4
		c0.3-0.1,0.6-0.2,0.9-0.2c0.1,0,0.1,0,0.2,0l-0.1,0.5c-0.8,0-1.5,0.3-2.2,0.8s-1.2,1.1-1.6,2l-1.2,5.6H914L915.9,145.7z"/>
	<path class="st10" d="M921.5,158.3c-0.5,0-0.9-0.1-1.3-0.2c-0.4-0.1-0.7-0.2-0.9-0.4s-0.5-0.4-0.6-0.7s-0.3-0.5-0.4-0.8l0.5-0.2
		c0.2,0.6,0.6,1.1,1.1,1.4c0.5,0.3,1.1,0.4,1.8,0.4c0.4,0,0.9-0.1,1.3-0.2s0.8-0.3,1.1-0.6s0.6-0.6,0.9-0.9c0.3-0.4,0.4-0.8,0.5-1.3
		l0.5-2.1c-0.5,0.6-1,1-1.7,1.4c-0.7,0.4-1.3,0.5-1.9,0.5c-0.5,0-0.9-0.1-1.3-0.3s-0.7-0.5-1-0.8s-0.5-0.7-0.6-1.2
		c-0.1-0.4-0.2-0.9-0.2-1.4c0-0.7,0.1-1.3,0.4-2c0.3-0.6,0.6-1.2,1.1-1.7c0.5-0.5,1-0.9,1.6-1.2c0.6-0.3,1.2-0.5,1.9-0.5
		c0.4,0,0.7,0.1,1,0.2s0.6,0.3,0.8,0.5c0.2,0.2,0.4,0.4,0.6,0.7c0.2,0.3,0.3,0.5,0.5,0.8l0.4-2h0.5l-1.9,9.1
		c-0.1,0.6-0.3,1.1-0.6,1.6s-0.7,0.8-1.1,1.1c-0.4,0.3-0.9,0.5-1.4,0.6S922,158.3,921.5,158.3z M922.5,154.2c0.4,0,0.8-0.1,1.1-0.2
		c0.4-0.2,0.8-0.4,1.1-0.6c0.3-0.2,0.6-0.5,0.9-0.8c0.2-0.3,0.4-0.6,0.5-0.9l0.6-3c-0.1-0.4-0.2-0.7-0.3-1s-0.4-0.6-0.6-0.8
		c-0.2-0.2-0.5-0.4-0.8-0.5c-0.3-0.1-0.6-0.2-1-0.2c-0.6,0-1.2,0.1-1.7,0.4c-0.5,0.3-1,0.7-1.4,1.1c-0.4,0.5-0.7,1-0.9,1.5
		c-0.2,0.6-0.3,1.1-0.3,1.6c0,0.4,0.1,0.9,0.2,1.3c0.1,0.4,0.3,0.7,0.6,1c0.2,0.3,0.5,0.5,0.9,0.7
		C921.7,154.1,922.1,154.2,922.5,154.2z"/>
	<path class="st10" d="M932.1,154.7c-0.5,0-0.9-0.1-1.3-0.3c-0.4-0.2-0.7-0.5-1-0.8c-0.3-0.3-0.5-0.7-0.6-1.2
		c-0.1-0.4-0.2-0.9-0.2-1.4c0-0.7,0.1-1.4,0.4-2s0.6-1.2,1.1-1.7c0.5-0.5,1-0.9,1.6-1.2c0.6-0.3,1.2-0.5,1.8-0.5
		c0.4,0,0.7,0.1,1,0.2c0.3,0.1,0.6,0.3,0.8,0.5c0.2,0.2,0.5,0.4,0.6,0.7c0.2,0.3,0.3,0.5,0.4,0.8l0.4-2h0.6l-1.7,7.9
		c0,0.1,0,0.1,0,0.2c0,0.1,0.1,0.2,0.2,0.2l-0.1,0.5c0,0-0.1,0-0.1,0c0,0-0.1,0-0.1,0c-0.2,0-0.3-0.1-0.4-0.2
		c-0.1-0.1-0.1-0.2-0.1-0.4c0,0,0-0.1,0-0.1c0,0,0-0.1,0-0.2c0-0.1,0-0.2,0.1-0.4c0-0.2,0.1-0.4,0.1-0.6c-0.5,0.6-1,1.1-1.7,1.4
		C933.4,154.5,932.8,154.7,932.1,154.7z M932.3,154.2c0.3,0,0.7-0.1,1.1-0.2s0.8-0.3,1.1-0.6c0.4-0.2,0.7-0.5,0.9-0.8s0.5-0.6,0.6-1
		l0.6-3c0-0.3-0.1-0.6-0.3-0.9c-0.2-0.3-0.4-0.6-0.6-0.8c-0.2-0.2-0.5-0.4-0.9-0.5c-0.3-0.1-0.7-0.2-1-0.2c-0.6,0-1.1,0.1-1.6,0.4
		c-0.5,0.3-1,0.7-1.4,1.1s-0.7,1-0.9,1.5c-0.2,0.6-0.3,1.1-0.3,1.7c0,0.4,0.1,0.8,0.2,1.2c0.1,0.4,0.3,0.7,0.6,1s0.5,0.5,0.9,0.7
		S931.9,154.2,932.3,154.2z"/>
	<path class="st10" d="M942,154.7c-0.5,0-0.9-0.1-1.3-0.3c-0.4-0.2-0.7-0.5-1-0.8c-0.3-0.3-0.5-0.7-0.6-1.2
		c-0.1-0.5-0.2-0.9-0.2-1.4c0-0.7,0.1-1.3,0.4-2s0.6-1.2,1.1-1.7c0.5-0.5,1-0.9,1.6-1.2c0.6-0.3,1.2-0.5,1.9-0.5
		c0.4,0,0.7,0.1,1,0.2s0.6,0.3,0.8,0.5c0.2,0.2,0.5,0.4,0.6,0.7c0.2,0.3,0.3,0.5,0.4,0.8l1.2-5.6h0.6l-2.4,11.5c0,0,0,0.1,0,0.1
		s0,0.1,0,0.1c0,0.2,0.1,0.2,0.2,0.2l-0.1,0.5c-0.1,0-0.2,0-0.3,0c-0.1,0-0.3-0.1-0.3-0.2c-0.1-0.1-0.1-0.2-0.1-0.3c0,0,0-0.1,0-0.1
		c0,0,0-0.1,0-0.2c0-0.1,0-0.2,0.1-0.4c0-0.2,0.1-0.4,0.1-0.6c-0.5,0.6-1,1.1-1.7,1.4C943.3,154.5,942.6,154.7,942,154.7z
		 M942.2,154.2c0.3,0,0.7-0.1,1-0.2s0.8-0.3,1.1-0.6c0.4-0.2,0.7-0.5,0.9-0.8s0.5-0.6,0.6-1l0.6-3c0-0.3-0.2-0.7-0.3-1
		c-0.2-0.3-0.4-0.6-0.6-0.8c-0.2-0.2-0.5-0.4-0.8-0.5s-0.6-0.2-1-0.2c-0.6,0-1.1,0.1-1.7,0.4s-1,0.7-1.4,1.1s-0.7,1-0.9,1.5
		c-0.2,0.6-0.3,1.1-0.3,1.7c0,0.4,0.1,0.9,0.2,1.3c0.1,0.4,0.3,0.8,0.6,1c0.2,0.3,0.5,0.5,0.9,0.7
		C941.4,154.1,941.8,154.2,942.2,154.2z"/>
	<path class="st10" d="M951.8,154.7c-0.5,0-0.9-0.1-1.3-0.3c-0.4-0.2-0.7-0.5-1-0.8c-0.3-0.3-0.5-0.7-0.6-1.2
		c-0.1-0.4-0.2-0.9-0.2-1.4c0-0.7,0.1-1.4,0.4-2.1c0.3-0.7,0.7-1.2,1.2-1.7c0.5-0.5,1-0.9,1.6-1.2c0.6-0.3,1.2-0.5,1.9-0.5
		c0.5,0,0.9,0.1,1.3,0.3c0.4,0.2,0.7,0.5,1,0.8c0.3,0.3,0.5,0.7,0.6,1.2c0.2,0.5,0.2,0.9,0.2,1.4c0,0.7-0.1,1.4-0.4,2
		s-0.7,1.2-1.1,1.7c-0.5,0.5-1,0.9-1.6,1.2C953.1,154.5,952.5,154.7,951.8,154.7z M951.9,154.2c0.5,0,1.1-0.1,1.6-0.4
		c0.5-0.3,1-0.6,1.4-1.1c0.4-0.4,0.8-1,1-1.5c0.3-0.6,0.4-1.2,0.4-1.8c0-0.5-0.1-0.9-0.2-1.3c-0.1-0.4-0.3-0.7-0.6-1
		c-0.2-0.3-0.5-0.5-0.9-0.7c-0.3-0.2-0.7-0.3-1.1-0.3c-0.5,0-1.1,0.1-1.6,0.4c-0.5,0.3-1,0.6-1.4,1.1c-0.4,0.4-0.8,1-1,1.5
		c-0.3,0.6-0.4,1.2-0.4,1.8c0,0.4,0.1,0.9,0.2,1.2c0.1,0.4,0.3,0.7,0.6,1c0.2,0.3,0.5,0.5,0.9,0.7S951.5,154.2,951.9,154.2z"/>
	<path class="st10" d="M879.3,178.7c-0.6,0-1.2-0.1-1.7-0.3s-0.9-0.6-1.3-1.1l0.4-0.4c0.4,0.4,0.8,0.8,1.2,1
		c0.4,0.2,0.9,0.3,1.5,0.3c0.4,0,0.8-0.1,1.2-0.2s0.7-0.3,1-0.5s0.5-0.4,0.6-0.7s0.2-0.6,0.2-1c0-0.2-0.1-0.4-0.2-0.6
		c-0.1-0.2-0.3-0.3-0.5-0.4c-0.2-0.1-0.5-0.2-0.8-0.3s-0.6-0.2-1-0.3c-0.4-0.1-0.7-0.2-1-0.3c-0.3-0.1-0.5-0.2-0.7-0.3
		c-0.2-0.1-0.3-0.3-0.4-0.5c-0.1-0.2-0.2-0.4-0.2-0.7c0-0.5,0.1-0.9,0.3-1.3s0.5-0.7,0.8-0.9c0.3-0.2,0.7-0.4,1.2-0.6
		c0.4-0.1,0.9-0.2,1.4-0.2c0.7,0,1.2,0.1,1.7,0.4c0.4,0.2,0.7,0.5,0.9,0.9l-0.4,0.3c-0.2-0.3-0.5-0.6-0.9-0.8s-0.9-0.3-1.4-0.3
		c-0.4,0-0.7,0-1.1,0.1s-0.7,0.2-0.9,0.4c-0.3,0.2-0.5,0.4-0.6,0.7s-0.2,0.6-0.2,1c0,0.4,0.2,0.7,0.5,0.9c0.3,0.2,0.8,0.3,1.5,0.5
		c0.4,0.1,0.8,0.2,1.2,0.3s0.6,0.2,0.9,0.4c0.2,0.1,0.4,0.3,0.6,0.5s0.2,0.5,0.2,0.7c0,0.4-0.1,0.8-0.3,1.2
		c-0.2,0.4-0.4,0.7-0.8,0.9s-0.7,0.5-1.2,0.6C880.4,178.6,879.9,178.7,879.3,178.7z"/>
	<path class="st10" d="M886.8,178.7c-1.4,0-2.1-0.8-2.1-2.3c0-0.5,0.1-1,0.2-1.6l1.1-5h0.6l-1.1,5c-0.1,0.6-0.2,1.1-0.2,1.6
		c0,1.3,0.6,1.9,1.7,1.9c0.4,0,0.8-0.1,1.1-0.2c0.4-0.1,0.8-0.3,1.1-0.6s0.7-0.5,1-0.9c0.3-0.4,0.6-0.7,0.8-1.2l1.2-5.6h0.6
		l-1.6,7.6c0,0.1,0,0.2-0.1,0.3c0,0.1,0,0.1,0,0.2c0,0.2,0.1,0.3,0.3,0.3l-0.1,0.5c-0.1,0-0.2,0-0.3,0c-0.3,0-0.4-0.2-0.4-0.5
		c0,0,0-0.1,0-0.1c0,0,0-0.1,0-0.2c0-0.1,0-0.3,0.1-0.5c0-0.2,0.1-0.5,0.2-0.8c-0.3,0.4-0.5,0.7-0.9,1s-0.7,0.5-1,0.7
		s-0.7,0.4-1.1,0.5C887.6,178.6,887.2,178.7,886.8,178.7z"/>
	<path class="st10" d="M897.5,178.7c-0.4,0-0.7-0.1-1-0.2c-0.3-0.1-0.6-0.3-0.8-0.4c-0.2-0.2-0.4-0.4-0.6-0.6
		c-0.2-0.2-0.3-0.5-0.4-0.7l-0.4,1.8h-0.5l2.6-12.4h0.6l-1.2,5.6c0.5-0.6,1.1-1.2,1.8-1.5s1.3-0.6,2-0.6c0.5,0,1,0.1,1.3,0.3
		s0.7,0.5,0.9,0.8c0.2,0.3,0.4,0.7,0.6,1.2c0.1,0.4,0.2,0.9,0.2,1.3c0,0.7-0.1,1.4-0.4,2.1s-0.7,1.2-1.1,1.8c-0.5,0.5-1,0.9-1.6,1.2
		C898.7,178.5,898.1,178.7,897.5,178.7z M897.5,178.2c0.6,0,1.1-0.1,1.6-0.4c0.5-0.3,1-0.6,1.4-1.1s0.7-1,1-1.6
		c0.2-0.6,0.4-1.2,0.4-1.8c0-0.4-0.1-0.8-0.2-1.2c-0.1-0.4-0.3-0.7-0.5-1c-0.2-0.3-0.5-0.5-0.8-0.7c-0.3-0.2-0.7-0.3-1.1-0.3
		c-0.4,0-0.7,0.1-1,0.2c-0.3,0.1-0.7,0.3-1,0.5c-0.3,0.2-0.6,0.5-0.9,0.7c-0.3,0.3-0.6,0.6-0.8,0.9l-0.7,3.6c0,0.3,0.1,0.6,0.3,0.9
		c0.2,0.3,0.4,0.5,0.6,0.7c0.2,0.2,0.5,0.3,0.8,0.4C896.8,178.1,897.1,178.2,897.5,178.2z"/>
	<path class="st10" d="M907.1,178.7c-0.5,0-1-0.1-1.4-0.3c-0.4-0.2-0.8-0.5-1-0.8c-0.3-0.3-0.5-0.7-0.6-1.2s-0.2-0.9-0.2-1.4
		c0-0.7,0.1-1.3,0.4-2c0.3-0.6,0.6-1.2,1.1-1.7s1-0.9,1.6-1.2c0.6-0.3,1.3-0.5,2.1-0.5c0.3,0,0.6,0.1,1,0.2c0.3,0.1,0.6,0.2,0.9,0.4
		c0.3,0.2,0.5,0.4,0.6,0.7c0.2,0.3,0.2,0.6,0.2,1c0,1.7-1.5,2.5-4.5,2.5c-0.4,0-0.8,0-1.2,0c-0.4,0-0.9,0-1.4-0.1
		c0,0.2-0.1,0.4-0.1,0.6c0,0.4,0.1,0.9,0.2,1.3s0.3,0.7,0.5,1c0.2,0.3,0.5,0.5,0.9,0.7c0.4,0.2,0.8,0.3,1.2,0.3c0.3,0,0.6,0,0.9-0.1
		c0.3-0.1,0.6-0.2,0.9-0.4c0.3-0.2,0.6-0.4,0.8-0.6c0.2-0.2,0.5-0.5,0.6-0.8l0.5,0.2c-0.2,0.3-0.4,0.6-0.7,0.9
		c-0.3,0.3-0.6,0.5-0.9,0.7s-0.7,0.4-1.1,0.5S907.5,178.7,907.1,178.7z M908.9,170.1c-0.5,0-1.1,0.1-1.5,0.3s-0.9,0.5-1.3,0.8
		s-0.7,0.7-1,1.2c-0.3,0.5-0.5,0.9-0.6,1.4c0.5,0,1,0.1,1.4,0.1c0.4,0,0.8,0,1.2,0c0.7,0,1.3,0,1.8-0.1c0.5-0.1,0.9-0.2,1.2-0.4
		c0.3-0.2,0.5-0.4,0.7-0.6c0.1-0.2,0.2-0.5,0.2-0.8c0-0.3-0.1-0.6-0.2-0.8c-0.1-0.2-0.3-0.4-0.5-0.6c-0.2-0.1-0.4-0.3-0.7-0.3
		C909.4,170.1,909.2,170.1,908.9,170.1z"/>
	<path class="st10" d="M920.3,178.7c-0.5,0-1-0.1-1.4-0.3c-0.4-0.2-0.8-0.5-1-0.8c-0.3-0.3-0.5-0.7-0.6-1.2s-0.2-0.9-0.2-1.4
		c0-0.7,0.1-1.3,0.4-2c0.3-0.6,0.6-1.2,1.1-1.7s1-0.9,1.6-1.2c0.6-0.3,1.3-0.5,2.1-0.5c0.3,0,0.6,0.1,1,0.2c0.3,0.1,0.6,0.2,0.9,0.4
		c0.3,0.2,0.5,0.4,0.6,0.7c0.2,0.3,0.2,0.6,0.2,1c0,1.7-1.5,2.5-4.5,2.5c-0.4,0-0.8,0-1.2,0c-0.4,0-0.9,0-1.4-0.1
		c0,0.2-0.1,0.4-0.1,0.6c0,0.4,0.1,0.9,0.2,1.3s0.3,0.7,0.5,1c0.2,0.3,0.5,0.5,0.9,0.7c0.4,0.2,0.8,0.3,1.2,0.3c0.3,0,0.6,0,0.9-0.1
		c0.3-0.1,0.6-0.2,0.9-0.4c0.3-0.2,0.6-0.4,0.8-0.6c0.2-0.2,0.5-0.5,0.6-0.8l0.5,0.2c-0.2,0.3-0.4,0.6-0.7,0.9
		c-0.3,0.3-0.6,0.5-0.9,0.7s-0.7,0.4-1.1,0.5S920.7,178.7,920.3,178.7z M922.1,170.1c-0.5,0-1.1,0.1-1.5,0.3s-0.9,0.5-1.3,0.8
		s-0.7,0.7-1,1.2c-0.3,0.5-0.5,0.9-0.6,1.4c0.5,0,1,0.1,1.4,0.1c0.4,0,0.8,0,1.2,0c0.7,0,1.3,0,1.8-0.1c0.5-0.1,0.9-0.2,1.2-0.4
		c0.3-0.2,0.5-0.4,0.7-0.6c0.1-0.2,0.2-0.5,0.2-0.8c0-0.3-0.1-0.6-0.2-0.8c-0.1-0.2-0.3-0.4-0.5-0.6c-0.2-0.1-0.4-0.3-0.7-0.3
		C922.6,170.1,922.4,170.1,922.1,170.1z"/>
	<path class="st10" d="M927.1,178.6c-0.3,0-0.6-0.1-0.8-0.3c-0.2-0.2-0.3-0.5-0.3-0.8c0-0.1,0-0.1,0-0.2c0-0.1,0-0.1,0-0.2l2.3-11
		h0.6l-2.3,10.9c0,0.1,0,0.1,0,0.1c0,0,0,0.1,0,0.1c0,0.2,0.1,0.4,0.2,0.6c0.2,0.1,0.4,0.2,0.6,0.2c0.1,0,0.3,0,0.4,0
		s0.3-0.1,0.5-0.1l0,0.5c-0.2,0.1-0.4,0.1-0.7,0.2C927.5,178.6,927.3,178.6,927.1,178.6z"/>
	<path class="st10" d="M937.3,178.7c-0.5,0-0.9-0.1-1.3-0.3c-0.4-0.2-0.7-0.5-1-0.8c-0.3-0.3-0.5-0.7-0.6-1.2
		c-0.1-0.4-0.2-0.9-0.2-1.4c0-0.7,0.1-1.4,0.4-2s0.6-1.2,1.1-1.7c0.5-0.5,1-0.9,1.6-1.2c0.6-0.3,1.2-0.5,1.8-0.5
		c0.4,0,0.7,0.1,1,0.2c0.3,0.1,0.6,0.3,0.8,0.5c0.2,0.2,0.5,0.4,0.6,0.7c0.2,0.3,0.3,0.5,0.4,0.8l0.4-2h0.6l-1.7,7.9
		c0,0.1,0,0.1,0,0.2c0,0.1,0.1,0.2,0.2,0.2l-0.1,0.5c0,0-0.1,0-0.1,0c0,0-0.1,0-0.1,0c-0.2,0-0.3-0.1-0.4-0.2
		c-0.1-0.1-0.1-0.2-0.1-0.4c0,0,0-0.1,0-0.1c0,0,0-0.1,0-0.2c0-0.1,0-0.2,0.1-0.4c0-0.2,0.1-0.4,0.1-0.6c-0.5,0.6-1,1.1-1.7,1.4
		C938.7,178.5,938,178.7,937.3,178.7z M937.5,178.2c0.3,0,0.7-0.1,1.1-0.2s0.8-0.3,1.1-0.6c0.4-0.2,0.7-0.5,0.9-0.8s0.5-0.6,0.6-1
		l0.6-3c0-0.3-0.1-0.6-0.3-0.9c-0.2-0.3-0.4-0.6-0.6-0.8c-0.2-0.2-0.5-0.4-0.9-0.5c-0.3-0.1-0.7-0.2-1-0.2c-0.6,0-1.1,0.1-1.6,0.4
		c-0.5,0.3-1,0.7-1.4,1.1s-0.7,1-0.9,1.5c-0.2,0.6-0.3,1.1-0.3,1.7c0,0.4,0.1,0.8,0.2,1.2c0.1,0.4,0.3,0.7,0.6,1s0.5,0.5,0.9,0.7
		S937.1,178.2,937.5,178.2z"/>
	<path class="st10" d="M947.3,178.7c-0.5,0-0.9-0.1-1.3-0.3s-0.7-0.5-1-0.8s-0.5-0.7-0.7-1.2c-0.2-0.5-0.2-0.9-0.2-1.5
		c0-0.7,0.1-1.4,0.4-2.1s0.7-1.2,1.1-1.7c0.5-0.5,1-0.9,1.6-1.2c0.6-0.3,1.3-0.4,2-0.4c0.7,0,1.4,0.2,1.9,0.5c0.5,0.4,0.8,0.8,1,1.5
		l-0.6,0.2c-0.2-0.5-0.4-0.9-0.9-1.2c-0.4-0.3-0.9-0.4-1.5-0.4c-0.6,0-1.1,0.1-1.6,0.4c-0.5,0.3-1,0.6-1.4,1c-0.4,0.4-0.7,0.9-1,1.5
		c-0.2,0.6-0.4,1.2-0.4,1.8c0,0.5,0.1,0.9,0.2,1.3c0.1,0.4,0.3,0.7,0.6,1c0.2,0.3,0.5,0.5,0.9,0.7s0.7,0.3,1.1,0.3
		c0.3,0,0.6,0,1-0.1c0.3-0.1,0.6-0.2,0.9-0.4c0.3-0.2,0.5-0.3,0.8-0.6c0.2-0.2,0.4-0.4,0.5-0.7l0.5,0.2c-0.2,0.3-0.4,0.6-0.7,0.8
		c-0.3,0.3-0.6,0.5-0.9,0.7c-0.3,0.2-0.7,0.3-1.1,0.4C948.1,178.6,947.7,178.7,947.3,178.7z"/>
	<path class="st10" d="M954.2,178.6c-0.4,0-0.7-0.1-0.9-0.3c-0.2-0.2-0.4-0.5-0.4-0.8c0-0.1,0-0.1,0-0.2c0-0.1,0-0.1,0-0.2l1.5-7
		h-1.2l0.1-0.5h1.2l0.6-3h0.6l-0.6,3h2l-0.1,0.5h-2l-1.3,6.2c-0.1,0.3-0.1,0.5-0.1,0.6c0,0.1,0,0.2,0,0.3c0,0.3,0.1,0.5,0.3,0.6
		c0.2,0.1,0.4,0.2,0.6,0.2c0.2,0,0.3,0,0.5-0.1c0.2,0,0.3-0.1,0.4-0.1s0.2-0.1,0.3-0.1s0.1-0.1,0.2-0.1l0.1,0.5c0,0-0.1,0.1-0.2,0.1
		c-0.1,0.1-0.2,0.1-0.4,0.2s-0.3,0.1-0.5,0.2C954.6,178.6,954.4,178.6,954.2,178.6z"/>
	<path class="st10" d="M960.1,178.7c-0.5,0-0.9-0.1-1.3-0.3c-0.4-0.2-0.7-0.5-1-0.8c-0.3-0.3-0.5-0.7-0.6-1.2
		c-0.1-0.4-0.2-0.9-0.2-1.4c0-0.7,0.1-1.4,0.4-2s0.6-1.2,1.1-1.7c0.5-0.5,1-0.9,1.6-1.2c0.6-0.3,1.2-0.5,1.8-0.5
		c0.4,0,0.7,0.1,1,0.2c0.3,0.1,0.6,0.3,0.8,0.5c0.2,0.2,0.5,0.4,0.6,0.7c0.2,0.3,0.3,0.5,0.4,0.8l0.4-2h0.6l-1.7,7.9
		c0,0.1,0,0.1,0,0.2c0,0.1,0.1,0.2,0.2,0.2l-0.1,0.5c0,0-0.1,0-0.1,0c0,0-0.1,0-0.1,0c-0.2,0-0.3-0.1-0.4-0.2
		c-0.1-0.1-0.1-0.2-0.1-0.4c0,0,0-0.1,0-0.1c0,0,0-0.1,0-0.2c0-0.1,0-0.2,0.1-0.4c0-0.2,0.1-0.4,0.1-0.6c-0.5,0.6-1,1.1-1.7,1.4
		C961.4,178.5,960.8,178.7,960.1,178.7z M960.3,178.2c0.3,0,0.7-0.1,1.1-0.2s0.8-0.3,1.1-0.6c0.4-0.2,0.7-0.5,0.9-0.8s0.5-0.6,0.6-1
		l0.6-3c0-0.3-0.1-0.6-0.3-0.9c-0.2-0.3-0.4-0.6-0.6-0.8c-0.2-0.2-0.5-0.4-0.9-0.5c-0.3-0.1-0.7-0.2-1-0.2c-0.6,0-1.1,0.1-1.6,0.4
		c-0.5,0.3-1,0.7-1.4,1.1s-0.7,1-0.9,1.5c-0.2,0.6-0.3,1.1-0.3,1.7c0,0.4,0.1,0.8,0.2,1.2c0.1,0.4,0.3,0.7,0.6,1s0.5,0.5,0.9,0.7
		S959.9,178.2,960.3,178.2z"/>
	<path class="st10" d="M974.4,178.7c-0.5,0-0.9-0.1-1.3-0.3c-0.4-0.2-0.7-0.5-1-0.8c-0.3-0.3-0.5-0.7-0.6-1.2
		c-0.1-0.4-0.2-0.9-0.2-1.4c0-0.7,0.1-1.4,0.4-2s0.6-1.2,1.1-1.7c0.5-0.5,1-0.9,1.6-1.2c0.6-0.3,1.2-0.5,1.8-0.5
		c0.4,0,0.7,0.1,1,0.2c0.3,0.1,0.6,0.3,0.8,0.5c0.2,0.2,0.5,0.4,0.6,0.7c0.2,0.3,0.3,0.5,0.4,0.8l0.4-2h0.6l-1.7,7.9
		c0,0.1,0,0.1,0,0.2c0,0.1,0.1,0.2,0.2,0.2l-0.1,0.5c0,0-0.1,0-0.1,0c0,0-0.1,0-0.1,0c-0.2,0-0.3-0.1-0.4-0.2
		c-0.1-0.1-0.1-0.2-0.1-0.4c0,0,0-0.1,0-0.1c0,0,0-0.1,0-0.2c0-0.1,0-0.2,0.1-0.4c0-0.2,0.1-0.4,0.1-0.6c-0.5,0.6-1,1.1-1.7,1.4
		C975.7,178.5,975,178.7,974.4,178.7z M974.6,178.2c0.3,0,0.7-0.1,1.1-0.2s0.8-0.3,1.1-0.6c0.4-0.2,0.7-0.5,0.9-0.8s0.5-0.6,0.6-1
		l0.6-3c0-0.3-0.1-0.6-0.3-0.9c-0.2-0.3-0.4-0.6-0.6-0.8c-0.2-0.2-0.5-0.4-0.9-0.5c-0.3-0.1-0.7-0.2-1-0.2c-0.6,0-1.1,0.1-1.6,0.4
		c-0.5,0.3-1,0.7-1.4,1.1s-0.7,1-0.9,1.5c-0.2,0.6-0.3,1.1-0.3,1.7c0,0.4,0.1,0.8,0.2,1.2c0.1,0.4,0.3,0.7,0.6,1s0.5,0.5,0.9,0.7
		S974.2,178.2,974.6,178.2z"/>
	<path class="st10" d="M878.2,202.6c-0.3,0-0.6-0.1-0.8-0.3c-0.2-0.2-0.3-0.5-0.3-0.8c0-0.1,0-0.1,0-0.2c0-0.1,0-0.1,0-0.2l2.3-11
		h0.6l-2.3,10.9c0,0.1,0,0.1,0,0.1c0,0,0,0.1,0,0.1c0,0.2,0.1,0.4,0.2,0.6c0.2,0.1,0.4,0.2,0.6,0.2c0.1,0,0.3,0,0.4,0
		s0.3-0.1,0.5-0.1l0,0.5c-0.2,0.1-0.4,0.1-0.7,0.2C878.6,202.6,878.4,202.6,878.2,202.6z"/>
	<path class="st10" d="M883.8,202.7c-0.5,0-0.9-0.1-1.3-0.3c-0.4-0.2-0.7-0.5-1-0.8c-0.3-0.3-0.5-0.7-0.6-1.2
		c-0.1-0.4-0.2-0.9-0.2-1.4c0-0.7,0.1-1.4,0.4-2s0.6-1.2,1.1-1.7c0.5-0.5,1-0.9,1.6-1.2c0.6-0.3,1.2-0.5,1.8-0.5
		c0.4,0,0.7,0.1,1,0.2c0.3,0.1,0.6,0.3,0.8,0.5c0.2,0.2,0.5,0.4,0.6,0.7c0.2,0.3,0.3,0.5,0.4,0.8l0.4-2h0.6l-1.7,7.9
		c0,0.1,0,0.1,0,0.2c0,0.1,0.1,0.2,0.2,0.2l-0.1,0.5c0,0-0.1,0-0.1,0c0,0-0.1,0-0.1,0c-0.2,0-0.3-0.1-0.4-0.2
		c-0.1-0.1-0.1-0.2-0.1-0.4c0,0,0-0.1,0-0.1c0,0,0-0.1,0-0.2c0-0.1,0-0.2,0.1-0.4c0-0.2,0.1-0.4,0.1-0.6c-0.5,0.6-1,1.1-1.7,1.4
		C885.2,202.5,884.5,202.7,883.8,202.7z M884,202.2c0.3,0,0.7-0.1,1.1-0.2s0.8-0.3,1.1-0.6c0.4-0.2,0.7-0.5,0.9-0.8s0.5-0.6,0.6-1
		l0.6-3c0-0.3-0.1-0.6-0.3-0.9c-0.2-0.3-0.4-0.6-0.6-0.8c-0.2-0.2-0.5-0.4-0.9-0.5c-0.3-0.1-0.7-0.2-1-0.2c-0.6,0-1.1,0.1-1.6,0.4
		c-0.5,0.3-1,0.7-1.4,1.1s-0.7,1-0.9,1.5c-0.2,0.6-0.3,1.1-0.3,1.7c0,0.4,0.1,0.8,0.2,1.2c0.1,0.4,0.3,0.7,0.6,1s0.5,0.5,0.9,0.7
		S883.6,202.2,884,202.2z"/>
	<path class="st10" d="M896.6,193.7h0.5l-0.4,1.8c0.5-0.6,1-1.1,1.7-1.4c0.7-0.4,1.3-0.6,2-0.6c0.5,0,0.9,0.1,1.3,0.3s0.7,0.5,1,0.8
		c0.3,0.4,0.5,0.8,0.6,1.2c0.1,0.4,0.2,0.9,0.2,1.4c0,0.7-0.1,1.3-0.4,2c-0.3,0.6-0.6,1.2-1.1,1.7c-0.4,0.5-1,0.9-1.6,1.2
		s-1.2,0.5-1.9,0.5c-0.4,0-0.7-0.1-1-0.2s-0.6-0.3-0.8-0.5s-0.5-0.4-0.6-0.7s-0.3-0.5-0.4-0.8l-1.2,5.6h-0.6L896.6,193.7z
		 M898.6,202.2c0.6,0,1.1-0.1,1.7-0.4c0.5-0.3,1-0.7,1.4-1.1c0.4-0.5,0.7-1,0.9-1.5c0.2-0.6,0.3-1.1,0.3-1.7c0-0.4-0.1-0.9-0.2-1.3
		c-0.1-0.4-0.3-0.7-0.6-1c-0.2-0.3-0.5-0.5-0.9-0.7c-0.3-0.2-0.7-0.3-1.1-0.3c-0.3,0-0.7,0.1-1,0.2s-0.8,0.3-1.1,0.6
		c-0.4,0.2-0.7,0.5-0.9,0.8c-0.3,0.3-0.5,0.6-0.6,1l-0.6,3c0.1,0.3,0.2,0.7,0.3,1c0.2,0.3,0.4,0.6,0.6,0.8c0.2,0.2,0.5,0.4,0.8,0.5
		S898.3,202.2,898.6,202.2z"/>
	<path class="st10" d="M905.9,202.6c-0.3,0-0.6-0.1-0.8-0.3c-0.2-0.2-0.3-0.5-0.3-0.8c0-0.1,0-0.1,0-0.2c0-0.1,0-0.1,0-0.2l2.3-11
		h0.6l-2.3,10.9c0,0.1,0,0.1,0,0.1c0,0,0,0.1,0,0.1c0,0.2,0.1,0.4,0.2,0.6c0.2,0.1,0.4,0.2,0.6,0.2c0.1,0,0.3,0,0.4,0
		s0.3-0.1,0.5-0.1l0,0.5c-0.2,0.1-0.4,0.1-0.7,0.2C906.3,202.6,906.1,202.6,905.9,202.6z"/>
	<path class="st10" d="M911.5,202.7c-0.5,0-0.9-0.1-1.3-0.3c-0.4-0.2-0.7-0.5-1-0.8c-0.3-0.3-0.5-0.7-0.6-1.2
		c-0.1-0.4-0.2-0.9-0.2-1.4c0-0.7,0.1-1.4,0.4-2s0.6-1.2,1.1-1.7c0.5-0.5,1-0.9,1.6-1.2c0.6-0.3,1.2-0.5,1.8-0.5
		c0.4,0,0.7,0.1,1,0.2c0.3,0.1,0.6,0.3,0.8,0.5c0.2,0.2,0.5,0.4,0.6,0.7c0.2,0.3,0.3,0.5,0.4,0.8l0.4-2h0.6l-1.7,7.9
		c0,0.1,0,0.1,0,0.2c0,0.1,0.1,0.2,0.2,0.2l-0.1,0.5c0,0-0.1,0-0.1,0c0,0-0.1,0-0.1,0c-0.2,0-0.3-0.1-0.4-0.2
		c-0.1-0.1-0.1-0.2-0.1-0.4c0,0,0-0.1,0-0.1c0,0,0-0.1,0-0.2c0-0.1,0-0.2,0.1-0.4c0-0.2,0.1-0.4,0.1-0.6c-0.5,0.6-1,1.1-1.7,1.4
		C912.8,202.5,912.2,202.7,911.5,202.7z M911.7,202.2c0.3,0,0.7-0.1,1.1-0.2s0.8-0.3,1.1-0.6c0.4-0.2,0.7-0.5,0.9-0.8s0.5-0.6,0.6-1
		l0.6-3c0-0.3-0.1-0.6-0.3-0.9c-0.2-0.3-0.4-0.6-0.6-0.8c-0.2-0.2-0.5-0.4-0.9-0.5c-0.3-0.1-0.7-0.2-1-0.2c-0.6,0-1.1,0.1-1.6,0.4
		c-0.5,0.3-1,0.7-1.4,1.1s-0.7,1-0.9,1.5c-0.2,0.6-0.3,1.1-0.3,1.7c0,0.4,0.1,0.8,0.2,1.2c0.1,0.4,0.3,0.7,0.6,1s0.5,0.5,0.9,0.7
		S911.3,202.2,911.7,202.2z"/>
	<path class="st10" d="M919.7,202.6c-0.4,0-0.7-0.1-0.9-0.3c-0.2-0.2-0.4-0.5-0.4-0.8c0-0.1,0-0.1,0-0.2c0-0.1,0-0.1,0-0.2l1.5-7
		h-1.2l0.1-0.5h1.2l0.6-3h0.6l-0.6,3h2l-0.1,0.5h-2l-1.3,6.2c-0.1,0.3-0.1,0.5-0.1,0.6c0,0.1,0,0.2,0,0.3c0,0.3,0.1,0.5,0.3,0.6
		c0.2,0.1,0.4,0.2,0.6,0.2c0.2,0,0.3,0,0.5-0.1c0.2,0,0.3-0.1,0.4-0.1s0.2-0.1,0.3-0.1s0.1-0.1,0.2-0.1l0.1,0.5c0,0-0.1,0.1-0.2,0.1
		c-0.1,0.1-0.2,0.1-0.4,0.2s-0.3,0.1-0.5,0.2C920.1,202.6,919.9,202.6,919.7,202.6z"/>
	<path class="st10" d="M925.7,202.7c-0.5,0-0.9-0.1-1.3-0.3c-0.4-0.2-0.7-0.5-1-0.8c-0.3-0.3-0.5-0.7-0.6-1.2
		c-0.1-0.4-0.2-0.9-0.2-1.4c0-0.7,0.1-1.4,0.4-2s0.6-1.2,1.1-1.7c0.5-0.5,1-0.9,1.6-1.2c0.6-0.3,1.2-0.5,1.8-0.5
		c0.4,0,0.7,0.1,1,0.2c0.3,0.1,0.6,0.3,0.8,0.5c0.2,0.2,0.5,0.4,0.6,0.7c0.2,0.3,0.3,0.5,0.4,0.8l0.4-2h0.6l-1.7,7.9
		c0,0.1,0,0.1,0,0.2c0,0.1,0.1,0.2,0.2,0.2l-0.1,0.5c0,0-0.1,0-0.1,0c0,0-0.1,0-0.1,0c-0.2,0-0.3-0.1-0.4-0.2
		c-0.1-0.1-0.1-0.2-0.1-0.4c0,0,0-0.1,0-0.1c0,0,0-0.1,0-0.2c0-0.1,0-0.2,0.1-0.4c0-0.2,0.1-0.4,0.1-0.6c-0.5,0.6-1,1.1-1.7,1.4
		C927,202.5,926.3,202.7,925.7,202.7z M925.8,202.2c0.3,0,0.7-0.1,1.1-0.2s0.8-0.3,1.1-0.6c0.4-0.2,0.7-0.5,0.9-0.8s0.5-0.6,0.6-1
		l0.6-3c0-0.3-0.1-0.6-0.3-0.9c-0.2-0.3-0.4-0.6-0.6-0.8c-0.2-0.2-0.5-0.4-0.9-0.5c-0.3-0.1-0.7-0.2-1-0.2c-0.6,0-1.1,0.1-1.6,0.4
		c-0.5,0.3-1,0.7-1.4,1.1s-0.7,1-0.9,1.5c-0.2,0.6-0.3,1.1-0.3,1.7c0,0.4,0.1,0.8,0.2,1.2c0.1,0.4,0.3,0.7,0.6,1s0.5,0.5,0.9,0.7
		S925.4,202.2,925.8,202.2z"/>
	<path class="st10" d="M934.1,194.2h-1.2l0.1-0.5h1.2l0.1-0.3c0.2-1.1,0.6-1.9,1.1-2.5s1.2-0.9,1.9-0.9c0.3,0,0.6,0.1,0.9,0.2
		c0.3,0.1,0.5,0.2,0.6,0.4l-0.4,0.4c-0.1-0.1-0.3-0.2-0.5-0.3c-0.2-0.1-0.4-0.1-0.7-0.1c-0.6,0-1.1,0.2-1.5,0.7
		c-0.4,0.5-0.7,1.2-0.9,2.2l-0.1,0.3h2.4l-0.1,0.5h-2.4l-2.5,12h-0.6L934.1,194.2z"/>
	<path class="st10" d="M939.8,202.7c-0.5,0-0.9-0.1-1.3-0.3c-0.4-0.2-0.7-0.5-1-0.8c-0.3-0.3-0.5-0.7-0.6-1.2
		c-0.1-0.4-0.2-0.9-0.2-1.4c0-0.7,0.1-1.4,0.4-2.1c0.3-0.7,0.7-1.2,1.2-1.7c0.5-0.5,1-0.9,1.6-1.2c0.6-0.3,1.2-0.5,1.9-0.5
		c0.5,0,0.9,0.1,1.3,0.3c0.4,0.2,0.7,0.5,1,0.8c0.3,0.3,0.5,0.7,0.6,1.2c0.2,0.5,0.2,0.9,0.2,1.4c0,0.7-0.1,1.4-0.4,2
		s-0.7,1.2-1.1,1.7c-0.5,0.5-1,0.9-1.6,1.2C941.1,202.5,940.5,202.7,939.8,202.7z M939.9,202.2c0.5,0,1.1-0.1,1.6-0.4
		c0.5-0.3,1-0.6,1.4-1.1c0.4-0.4,0.8-1,1-1.5c0.3-0.6,0.4-1.2,0.4-1.8c0-0.5-0.1-0.9-0.2-1.3c-0.1-0.4-0.3-0.7-0.6-1
		c-0.2-0.3-0.5-0.5-0.9-0.7c-0.3-0.2-0.7-0.3-1.1-0.3c-0.5,0-1.1,0.1-1.6,0.4c-0.5,0.3-1,0.6-1.4,1.1c-0.4,0.4-0.8,1-1,1.5
		c-0.3,0.6-0.4,1.2-0.4,1.8c0,0.4,0.1,0.9,0.2,1.2c0.1,0.4,0.3,0.7,0.6,1c0.2,0.3,0.5,0.5,0.9,0.7S939.5,202.2,939.9,202.2z"/>
	<path class="st10" d="M947.8,193.7h0.5l-0.5,2.2c0.2-0.4,0.5-0.7,0.8-0.9c0.3-0.3,0.6-0.5,0.9-0.7c0.3-0.2,0.6-0.3,0.9-0.4
		c0.3-0.1,0.6-0.2,0.9-0.2c0.1,0,0.1,0,0.2,0l-0.1,0.5c-0.8,0-1.5,0.3-2.2,0.8s-1.2,1.1-1.6,2l-1.2,5.6h-0.6L947.8,193.7z"/>
	<path class="st10" d="M953.1,193.7h0.5l-0.5,2.2c0.5-0.7,1.1-1.3,1.7-1.7c0.7-0.4,1.3-0.6,2-0.6c0.6,0,1.1,0.2,1.5,0.6
		c0.4,0.4,0.5,0.9,0.5,1.7c0,0.1,0,0.1,0,0.2c0,0.1,0,0.1,0,0.2c0.2-0.4,0.5-0.8,0.8-1.1c0.3-0.3,0.6-0.6,1-0.8
		c0.3-0.2,0.7-0.4,1.1-0.5s0.7-0.2,1.1-0.2c0.7,0,1.2,0.2,1.5,0.6c0.3,0.4,0.5,0.9,0.5,1.6c0,0.2,0,0.5-0.1,0.8c0,0.3-0.1,0.6-0.2,1
		l-1.1,5h-0.6l1-4.9c0.1-0.3,0.1-0.6,0.1-0.9c0-0.3,0.1-0.5,0.1-0.7c0-1.3-0.5-1.9-1.6-1.9c-0.4,0-0.7,0.1-1.1,0.2
		c-0.4,0.1-0.7,0.3-1,0.6c-0.3,0.3-0.6,0.6-0.9,0.9c-0.3,0.4-0.5,0.8-0.7,1.2l-1.2,5.5H957l1-4.9c0.1-0.6,0.2-1.2,0.2-1.6
		c0-1.2-0.5-1.9-1.6-1.9c-0.4,0-0.7,0.1-1.1,0.2s-0.7,0.3-1,0.6c-0.3,0.3-0.6,0.6-0.9,0.9c-0.3,0.4-0.5,0.8-0.7,1.2l-1.2,5.5h-0.6
		L953.1,193.7z"/>
	<path class="st10" d="M969.3,202.7c-0.5,0-0.9-0.1-1.3-0.3c-0.4-0.2-0.7-0.5-1-0.8c-0.3-0.3-0.5-0.7-0.6-1.2
		c-0.1-0.4-0.2-0.9-0.2-1.4c0-0.7,0.1-1.4,0.4-2s0.6-1.2,1.1-1.7c0.5-0.5,1-0.9,1.6-1.2c0.6-0.3,1.2-0.5,1.8-0.5
		c0.4,0,0.7,0.1,1,0.2c0.3,0.1,0.6,0.3,0.8,0.5c0.2,0.2,0.5,0.4,0.6,0.7c0.2,0.3,0.3,0.5,0.4,0.8l0.4-2h0.6l-1.7,7.9
		c0,0.1,0,0.1,0,0.2c0,0.1,0.1,0.2,0.2,0.2l-0.1,0.5c0,0-0.1,0-0.1,0c0,0-0.1,0-0.1,0c-0.2,0-0.3-0.1-0.4-0.2
		c-0.1-0.1-0.1-0.2-0.1-0.4c0,0,0-0.1,0-0.1c0,0,0-0.1,0-0.2c0-0.1,0-0.2,0.1-0.4c0-0.2,0.1-0.4,0.1-0.6c-0.5,0.6-1,1.1-1.7,1.4
		C970.6,202.5,970,202.7,969.3,202.7z M969.5,202.2c0.3,0,0.7-0.1,1.1-0.2s0.8-0.3,1.1-0.6c0.4-0.2,0.7-0.5,0.9-0.8s0.5-0.6,0.6-1
		l0.6-3c0-0.3-0.1-0.6-0.3-0.9c-0.2-0.3-0.4-0.6-0.6-0.8c-0.2-0.2-0.5-0.4-0.9-0.5c-0.3-0.1-0.7-0.2-1-0.2c-0.6,0-1.1,0.1-1.6,0.4
		c-0.5,0.3-1,0.7-1.4,1.1s-0.7,1-0.9,1.5c-0.2,0.6-0.3,1.1-0.3,1.7c0,0.4,0.1,0.8,0.2,1.2c0.1,0.4,0.3,0.7,0.6,1s0.5,0.5,0.9,0.7
		S969.1,202.2,969.5,202.2z"/>
</g>
<g>
	<path class="st11" d="M533.7,257.2l32.3,32.3c5.3-16.2,1.5-34.7-11.3-47.5c-18.2-18.2-47.8-18.2-66,0c-18.2,18.2-18.2,47.8,0,66
		c11.2,11.2,26.8,15.5,41.3,12.9l-25.3-25.3l27-26.5L533.7,257.2z"/>
	<path class="st12" d="M565.9,289.5l-32.3-32.3l-2,11.8l-27,26.5l25.3,25.3c9-1.6,17.7-5.9,24.7-12.9
		C560,302.5,563.7,296.2,565.9,289.5z"/>
</g>
<g>
	<path class="st5" d="M504.7,295.6c0-2,0.2-3.9,0.5-5.6c0.3-1.7,0.9-3.4,1.8-4.9c0.9-1.5,2-3,3.5-4.3c1.5-1.4,3.4-2.7,5.8-4
		c1.7-0.9,3.3-1.8,4.8-2.5c1.5-0.8,2.8-1.5,3.9-2.3c1.1-0.7,2-1.5,2.7-2.4c0.7-0.8,1-1.8,1-2.9c0-1.5-0.7-2.9-2-4.1
		c-1.3-1.2-3.2-1.8-5.7-1.8c-1.3,0-2.5,0.2-3.6,0.5c-1.1,0.4-2.1,0.8-3,1.4c-0.9,0.6-1.7,1.2-2.3,1.8c-0.7,0.7-1.3,1.3-1.8,1.9
		l-5-5.8c0.5-0.5,1.2-1.2,2.3-2c1-0.8,2.3-1.6,3.8-2.3c1.5-0.7,3.1-1.3,5-1.8s3.9-0.8,6.1-0.8c2.3,0,4.4,0.3,6.2,0.9
		c1.9,0.6,3.4,1.4,4.7,2.5c1.3,1.1,2.2,2.3,2.9,3.8c0.7,1.5,1,3,1,4.7c0,1.8-0.4,3.4-1.1,4.8c-0.7,1.4-1.6,2.6-2.7,3.7
		c-1.1,1.1-2.2,2-3.5,2.7c-1.3,0.7-2.4,1.4-3.5,1.9c-1,0.5-2.2,1-3.4,1.7c-1.3,0.6-2.5,1.4-3.7,2.2c-1.2,0.8-2.3,1.7-3.2,2.7
		c-1,1-1.6,2-2,3.2h23.9v7.1H504.7z"/>
</g>
<linearGradient id="SVGID_2_" gradientUnits="userSpaceOnUse" x1="-333.7849" y1="987.5452" x2="-427.0995" y2="987.5452" gradientTransform="matrix(0.7071 0.7071 -0.7071 0.7071 1847.9546 -95.5888)">
	<stop  offset="0" style="stop-color:#517E89;stop-opacity:0"/>
	<stop  offset="1" style="stop-color:#517E89;stop-opacity:0.7"/>
</linearGradient>
<polygon class="st13" points="880.6,399.7 814.7,333.7 880.6,267.7 946.6,333.7 "/>
<g id="XMLID_60_">
	<ellipse id="XMLID_68_" class="st14" cx="647.2" cy="273.6" rx="7.9" ry="7.8"/>
	<polygon id="XMLID_67_" class="st15" points="590.2,320.9 641.4,269.7 651.5,279.8 600.3,331 	"/>
	<polygon id="XMLID_66_" class="st16" points="644.2,273.6 647,276.4 596.4,327.1 593.4,324.5 	"/>
	<path id="XMLID_65_" class="st17" d="M586.8,333.9l3-12.6c0,0,3.5-0.1,6.6,3c3.1,3.1,3.5,7.2,3.5,7.2L586.8,333.9z"/>
	<polygon id="XMLID_64_" class="st18" points="586.8,333.9 587.7,330.2 590.5,333 	"/>
	<line id="XMLID_63_" class="st19" x1="640.9" y1="269.1" x2="651.5" y2="279.8"/>
	<line id="XMLID_62_" class="st20" x1="639.2" y1="270.8" x2="649.8" y2="281.5"/>
	<line id="XMLID_61_" class="st19" x1="636.9" y1="273" x2="647.6" y2="283.7"/>
</g>
<g>
	<path class="st21" d="M978.7,302.1H866.6c-3.5,0-6.3-2.8-6.3-6.3v-68.3c0-3.5,2.8-6.3,6.3-6.3h112.1c3.5,0,6.3,2.8,6.3,6.3v68.3
		C985,299.3,982.2,302.1,978.7,302.1z"/>
	<rect x="867.6" y="227.6" class="st22" width="111.4" height="58.7"/>
	<g>
		<path class="st4" d="M937,291.5c-0.3,3.3-3,3.9-6.3,3.9h-15.9c-3.3,0-6.1-0.6-6.3-3.9h-55.8v3.1c0,5.3,4.3,9.6,9.6,9.6h121.1
			c5.3,0,9.6-4.3,9.6-9.6v-3.1H937z"/>
	</g>
	<polygon class="st5" points="979,227.6 867.6,286.3 979,286.3 	"/>
	<path class="st9" d="M913.1,279.2h-13c-7.5,0-13.5-6-13.5-13.5s6-13.5,13.5-13.5c0-11.4,9.2-20.6,20.6-20.6
		c8.3,0,15.6,5.1,18.8,12.2c0.8-0.1,1.7-0.2,2.6-0.2c9.8,0,17.8,8,17.8,17.8s-8,17.8-17.8,17.8h-9.1"/>
	<path class="st8" d="M932.1,267.9l-8.8-7.9l-8.8,7.9c-0.3,0.2-0.4,0.6-0.5,1c0,0.4,0.1,0.7,0.4,1c0.2,0.3,0.6,0.4,1,0.5
		c0.4,0,0.7-0.1,1-0.4l5.6-5v18.4c0,0.8,0.6,1.4,1.4,1.4s1.4-0.6,1.4-1.4v-18.4l5.6,5c0.3,0.2,0.6,0.4,0.9,0.4c0.4,0,0.8-0.2,1-0.5
		C932.7,269.2,932.7,268.4,932.1,267.9z"/>
</g>
<g>
	<path class="st11" d="M850,324.2l9.1-5.6l-2.9-16.4l5.4-17.5l33,33c4.9-16,1-34-11.6-46.6c-18.2-18.2-47.8-18.2-66,0
		c-18.2,18.2-18.2,47.8,0,66c11.9,11.9,28.5,16,43.7,12.4L833.4,322L850,324.2z"/>
	<path class="st12" d="M894.6,317.6l-33-33l-5.4,17.5l2.9,16.4l-9.1,5.6l-16.7-2.2l27.4,27.4c8.2-1.9,15.9-6.1,22.3-12.4
		C888.6,331.3,892.5,324.6,894.6,317.6z"/>
</g>
<g>
	<path class="st5" d="M856.4,302.7c1.4,0.3,2.7,0.7,3.8,1.4c1.2,0.7,2.1,1.6,2.9,2.6c0.8,1,1.4,2.2,1.9,3.6c0.4,1.3,0.7,2.8,0.7,4.4
		c0,2.1-0.4,4-1.2,5.7c-0.8,1.7-1.9,3.1-3.3,4.3c-1.5,1.2-3.2,2.1-5.3,2.8c-2.1,0.6-4.4,1-6.9,1c-3.4,0-6.4-0.6-9-1.8
		c-2.6-1.2-4.7-2.9-6.2-5.1l4.5-5.1c1.1,1.7,2.5,2.9,4.2,3.9c1.7,0.9,3.8,1.4,6.4,1.4c2.9,0,5.2-0.6,6.8-1.9
		c1.6-1.3,2.4-3.1,2.4-5.6c0-2.6-0.9-4.6-2.7-6.1c-1.8-1.5-4.4-2.2-7.9-2.2h-1.8v-5.8h2c3,0,5.3-0.7,6.9-2.1
		c1.6-1.4,2.4-3.2,2.4-5.3c0-2.1-0.7-3.7-2.1-4.7c-1.4-1-3.3-1.5-5.6-1.5c-2.3,0-4.3,0.5-6,1.5c-1.7,1-3.1,2.4-4.2,4.2l-4.6-5
		c0.6-1.1,1.5-2,2.5-2.9c1.1-0.9,2.3-1.6,3.7-2.3c1.4-0.6,2.8-1.1,4.4-1.5c1.6-0.3,3.2-0.5,4.9-0.5c2.2,0,4.2,0.3,6,0.9
		c1.8,0.6,3.4,1.4,4.7,2.4c1.3,1,2.3,2.3,3,3.8c0.7,1.5,1.1,3.1,1.1,4.9c0,1.3-0.2,2.6-0.6,3.8s-1,2.3-1.7,3.3
		c-0.7,1-1.6,1.8-2.6,2.4C858.8,302.1,857.7,302.5,856.4,302.7z"/>
</g>
<g>
	<path class="st11" d="M192,119l1.9-29.6l37.1,37.1c5.9-16.4,2.2-35.5-11-48.7c-18.2-18.2-47.8-18.2-66,0c-18.2,18.2-18.2,47.8,0,66
		c13.3,13.3,32.7,16.9,49.3,10.7l-26.7-26.7L192,119z"/>
	<path class="st12" d="M231.1,126.5l-37.1-37.1L192,119l-15.3,8.9l26.7,26.7c6.1-2.3,11.8-5.8,16.7-10.7
		C225.2,138.8,228.8,132.9,231.1,126.5z"/>
</g>
<g>
	<path class="st5" d="M202.3,120.9v6.6h-25.6v-6.6h9.5V97.5c-0.4,0.5-1,1.1-1.9,1.7c-0.8,0.6-1.8,1.1-2.8,1.6
		c-1,0.5-2.1,0.9-3.2,1.2c-1.1,0.3-2.1,0.5-2.9,0.5v-6.9c0.9,0,1.9-0.3,3.1-0.8c1.2-0.5,2.3-1.2,3.4-1.9c1.1-0.7,2.1-1.4,2.9-2.1
		c0.8-0.7,1.3-1.2,1.4-1.5h7.6v31.6H202.3z"/>
</g>
<polygon class="st9" points="737.5,373.2 981.5,373.2 965.7,352.5 981.5,331.8 737.5,331.8 753.4,352.5 "/>
<g>
	<path class="st5" d="M772.8,347.4c-0.2-0.2-0.4-0.3-0.6-0.5c-0.3-0.2-0.5-0.3-0.9-0.4c-0.3-0.1-0.7-0.2-1-0.3
		c-0.4-0.1-0.8-0.1-1.2-0.1c-1.1,0-1.8,0.2-2.3,0.6c-0.5,0.4-0.7,0.9-0.7,1.6c0,0.4,0.1,0.7,0.2,0.9c0.1,0.2,0.4,0.4,0.7,0.6
		c0.3,0.2,0.7,0.3,1.1,0.4c0.4,0.1,1,0.3,1.6,0.4c0.7,0.2,1.3,0.3,1.9,0.5c0.6,0.2,1,0.4,1.4,0.7c0.4,0.3,0.7,0.6,0.9,1.1
		s0.3,0.9,0.3,1.5c0,0.6-0.1,1.2-0.4,1.7c-0.3,0.5-0.6,0.9-1,1.2s-1,0.5-1.5,0.7c-0.6,0.1-1.2,0.2-1.9,0.2c-1,0-2-0.2-3-0.5
		c-0.9-0.3-1.8-0.8-2.5-1.4l0.8-1.4c0.2,0.2,0.5,0.4,0.8,0.6c0.3,0.2,0.7,0.4,1.1,0.6s0.9,0.3,1.3,0.4s1,0.2,1.5,0.2
		c1,0,1.7-0.2,2.2-0.5c0.5-0.3,0.8-0.9,0.8-1.5c0-0.4-0.1-0.7-0.3-1c-0.2-0.3-0.4-0.5-0.8-0.7c-0.3-0.2-0.7-0.4-1.2-0.5
		c-0.5-0.1-1-0.3-1.7-0.4c-0.7-0.2-1.3-0.3-1.8-0.5c-0.5-0.2-1-0.4-1.3-0.7c-0.3-0.3-0.6-0.6-0.8-1c-0.2-0.4-0.3-0.8-0.3-1.4
		c0-0.6,0.1-1.2,0.4-1.7s0.6-0.9,1-1.3c0.4-0.3,0.9-0.6,1.5-0.8c0.6-0.2,1.2-0.3,1.9-0.3c0.9,0,1.7,0.1,2.5,0.4
		c0.7,0.3,1.4,0.7,2,1.1L772.8,347.4z"/>
	<path class="st5" d="M779.1,358.3c-1,0-1.8-0.3-2.4-1c-0.5-0.7-0.8-1.7-0.8-3.1v-5.9h1.7v5.6c0,2,0.7,3,2.1,3
		c0.7,0,1.3-0.2,1.9-0.7c0.6-0.4,1-1,1.3-1.8v-6.2h1.7v7.9c0,0.4,0.2,0.6,0.5,0.6v1.4c-0.2,0-0.3,0-0.4,0c-0.1,0-0.2,0-0.3,0
		c-0.3,0-0.6-0.1-0.8-0.3s-0.3-0.4-0.4-0.7l0-1.2c-0.4,0.7-1,1.3-1.7,1.7C780.8,358.1,780,358.3,779.1,358.3z"/>
	<path class="st5" d="M792.5,358.3c-0.8,0-1.5-0.2-2.1-0.6c-0.6-0.4-1.1-0.9-1.5-1.5v1.9h-1.5v-13.9h1.7v5.9
		c0.4-0.6,0.9-1.2,1.5-1.6s1.3-0.6,2.1-0.6c0.7,0,1.3,0.1,1.8,0.4c0.5,0.3,1,0.7,1.4,1.1c0.4,0.5,0.7,1,0.9,1.7s0.3,1.3,0.3,1.9
		c0,0.7-0.1,1.4-0.4,2c-0.2,0.6-0.6,1.2-1,1.6c-0.4,0.5-0.9,0.8-1.5,1.1C793.8,358.2,793.1,358.3,792.5,358.3z M792.1,356.8
		c0.5,0,1-0.1,1.4-0.3c0.4-0.2,0.8-0.5,1.1-0.8c0.3-0.3,0.5-0.7,0.7-1.2c0.2-0.4,0.2-0.9,0.2-1.4s-0.1-0.9-0.2-1.4
		c-0.2-0.4-0.4-0.8-0.7-1.2s-0.6-0.6-1-0.8s-0.8-0.3-1.3-0.3c-0.4,0-0.7,0.1-1,0.2c-0.3,0.1-0.6,0.3-0.9,0.5
		c-0.3,0.2-0.5,0.5-0.7,0.7s-0.4,0.6-0.5,0.9v2.9c0.1,0.3,0.2,0.6,0.4,0.9s0.5,0.5,0.7,0.7c0.3,0.2,0.6,0.4,0.9,0.5
		C791.4,356.8,791.8,356.8,792.1,356.8z"/>
	<path class="st5" d="M799.1,346.3v-2.1h1.7v2.1H799.1z M799.1,358.1v-9.9h1.7v9.9H799.1z"/>
	<path class="st5" d="M808.6,349.6c-0.8,0-1.6,0.2-2.2,0.6s-1.1,1-1.4,1.7v6.1h-1.7v-9.9h1.6v2.3c0.3-0.7,0.8-1.2,1.3-1.7
		c0.6-0.4,1.2-0.7,1.8-0.7c0.1,0,0.2,0,0.3,0c0.1,0,0.2,0,0.2,0V349.6z"/>
	<path class="st5" d="M820.4,358.3c-0.8,0-1.5-0.2-2.2-0.6s-1.1-0.9-1.5-1.5v6h-1.7v-14h1.5v1.9c0.4-0.6,0.9-1.1,1.5-1.5
		s1.3-0.6,2.1-0.6c0.7,0,1.3,0.1,1.9,0.4c0.6,0.3,1.1,0.7,1.5,1.1c0.4,0.5,0.7,1,1,1.6c0.2,0.6,0.4,1.3,0.4,1.9c0,0.7-0.1,1.4-0.3,2
		s-0.5,1.2-0.9,1.6c-0.4,0.5-0.9,0.8-1.4,1.1C821.7,358.2,821.1,358.3,820.4,358.3z M819.9,356.8c0.5,0,0.9-0.1,1.3-0.3
		s0.7-0.5,1-0.8s0.5-0.7,0.7-1.2c0.2-0.4,0.2-0.9,0.2-1.4c0-0.5-0.1-1-0.3-1.4c-0.2-0.5-0.4-0.8-0.7-1.2c-0.3-0.3-0.7-0.6-1.1-0.8
		s-0.9-0.3-1.3-0.3c-0.3,0-0.6,0.1-0.9,0.2c-0.3,0.1-0.6,0.3-0.9,0.5c-0.3,0.2-0.5,0.4-0.7,0.7s-0.3,0.6-0.4,0.9v2.8
		c0.1,0.3,0.3,0.6,0.5,0.9c0.2,0.3,0.5,0.5,0.7,0.7c0.3,0.2,0.6,0.4,0.9,0.5C819.2,356.8,819.5,356.8,819.9,356.8z"/>
	<path class="st5" d="M832.1,349.6c-0.8,0-1.6,0.2-2.2,0.6s-1.1,1-1.4,1.7v6.1h-1.7v-9.9h1.6v2.3c0.3-0.7,0.8-1.2,1.3-1.7
		c0.6-0.4,1.2-0.7,1.8-0.7c0.1,0,0.2,0,0.3,0c0.1,0,0.2,0,0.2,0V349.6z"/>
	<path class="st5" d="M837.7,358.3c-0.7,0-1.4-0.1-2-0.4c-0.6-0.3-1.1-0.7-1.6-1.1s-0.8-1-1-1.6c-0.2-0.6-0.4-1.3-0.4-2
		c0-0.7,0.1-1.4,0.4-2c0.2-0.6,0.6-1.2,1-1.6s1-0.8,1.6-1.1c0.6-0.3,1.3-0.4,2-0.4c0.7,0,1.4,0.1,2,0.4s1.1,0.7,1.6,1.1s0.8,1,1,1.6
		c0.2,0.6,0.4,1.3,0.4,2c0,0.7-0.1,1.3-0.4,2c-0.2,0.6-0.6,1.2-1,1.6s-1,0.8-1.6,1.1C839.1,358.1,838.4,358.3,837.7,358.3z
		 M834.4,353.2c0,0.5,0.1,1,0.3,1.4s0.4,0.8,0.7,1.2c0.3,0.3,0.6,0.6,1,0.8c0.4,0.2,0.8,0.3,1.3,0.3s0.9-0.1,1.3-0.3
		c0.4-0.2,0.8-0.5,1.1-0.8c0.3-0.3,0.5-0.7,0.7-1.2c0.2-0.4,0.3-0.9,0.3-1.5c0-0.5-0.1-1-0.3-1.4c-0.2-0.4-0.4-0.8-0.7-1.2
		c-0.3-0.3-0.7-0.6-1.1-0.8c-0.4-0.2-0.8-0.3-1.3-0.3s-0.9,0.1-1.3,0.3s-0.7,0.5-1,0.8c-0.3,0.3-0.5,0.7-0.7,1.2
		C834.5,352.2,834.4,352.7,834.4,353.2z"/>
	<path class="st5" d="M849.9,358.3c-0.8,0-1.5-0.2-2.2-0.6s-1.1-0.9-1.5-1.5v6h-1.7v-14h1.5v1.9c0.4-0.6,0.9-1.1,1.5-1.5
		s1.3-0.6,2.1-0.6c0.7,0,1.3,0.1,1.9,0.4c0.6,0.3,1.1,0.7,1.5,1.1c0.4,0.5,0.7,1,1,1.6c0.2,0.6,0.4,1.3,0.4,1.9c0,0.7-0.1,1.4-0.3,2
		s-0.5,1.2-0.9,1.6c-0.4,0.5-0.9,0.8-1.4,1.1C851.2,358.2,850.6,358.3,849.9,358.3z M849.4,356.8c0.5,0,0.9-0.1,1.3-0.3
		s0.7-0.5,1-0.8s0.5-0.7,0.7-1.2c0.2-0.4,0.2-0.9,0.2-1.4c0-0.5-0.1-1-0.3-1.4c-0.2-0.5-0.4-0.8-0.7-1.2c-0.3-0.3-0.7-0.6-1.1-0.8
		s-0.9-0.3-1.3-0.3c-0.3,0-0.6,0.1-0.9,0.2c-0.3,0.1-0.6,0.3-0.9,0.5c-0.3,0.2-0.5,0.4-0.7,0.7s-0.3,0.6-0.4,0.9v2.8
		c0.1,0.3,0.3,0.6,0.5,0.9c0.2,0.3,0.5,0.5,0.7,0.7c0.3,0.2,0.6,0.4,0.9,0.5C848.8,356.8,849.1,356.8,849.4,356.8z"/>
	<path class="st5" d="M859.4,358.3c-1,0-1.8-0.3-2.4-1c-0.5-0.7-0.8-1.7-0.8-3.1v-5.9h1.7v5.6c0,2,0.7,3,2.1,3
		c0.7,0,1.3-0.2,1.9-0.7c0.6-0.4,1-1,1.3-1.8v-6.2h1.7v7.9c0,0.4,0.2,0.6,0.5,0.6v1.4c-0.2,0-0.3,0-0.4,0c-0.1,0-0.2,0-0.3,0
		c-0.3,0-0.6-0.1-0.8-0.3s-0.3-0.4-0.4-0.7l0-1.2c-0.4,0.7-1,1.3-1.7,1.7C861.1,358.1,860.3,358.3,859.4,358.3z"/>
	<path class="st5" d="M872,358.3c-0.7,0-1.4-0.1-2.1-0.4s-1.2-0.6-1.6-1.1s-0.8-1-1-1.6c-0.2-0.6-0.4-1.3-0.4-2s0.1-1.4,0.4-2
		c0.2-0.6,0.6-1.2,1-1.6c0.4-0.5,1-0.8,1.6-1.1s1.3-0.4,2.1-0.4s1.4,0.1,2,0.4s1.1,0.6,1.6,1.1c0.4,0.5,0.8,1,1,1.6s0.4,1.3,0.4,1.9
		c0,0.1,0,0.3,0,0.4c0,0.1,0,0.2,0,0.3h-8.2c0,0.5,0.2,0.9,0.3,1.3s0.4,0.8,0.7,1c0.3,0.3,0.6,0.5,1,0.7c0.4,0.2,0.8,0.2,1.2,0.2
		c0.3,0,0.6,0,0.9-0.1c0.3-0.1,0.6-0.2,0.8-0.3c0.3-0.1,0.5-0.3,0.7-0.5c0.2-0.2,0.3-0.4,0.4-0.7l1.4,0.4c-0.2,0.4-0.4,0.7-0.7,1
		c-0.3,0.3-0.6,0.6-1,0.8c-0.4,0.2-0.8,0.4-1.2,0.5S872.5,358.3,872,358.3z M875.4,352.5c0-0.5-0.2-0.9-0.4-1.3
		c-0.2-0.4-0.4-0.7-0.7-1c-0.3-0.3-0.6-0.5-1-0.7c-0.4-0.2-0.8-0.2-1.3-0.2s-0.9,0.1-1.3,0.2s-0.7,0.4-1,0.7c-0.3,0.3-0.5,0.6-0.7,1
		c-0.2,0.4-0.3,0.8-0.3,1.3H875.4z"/>
	<path class="st5" d="M882.2,358.3c-0.8,0-1.6-0.1-2.4-0.4c-0.8-0.2-1.4-0.6-2-1.1l0.7-1.1c0.6,0.4,1.2,0.8,1.7,1
		c0.6,0.2,1.2,0.3,1.8,0.3c0.7,0,1.3-0.1,1.7-0.4s0.6-0.7,0.6-1.2c0-0.2-0.1-0.4-0.2-0.6c-0.1-0.2-0.3-0.3-0.5-0.4
		c-0.2-0.1-0.5-0.2-0.9-0.3s-0.8-0.2-1.2-0.3c-0.6-0.2-1.1-0.3-1.5-0.4s-0.8-0.3-1.1-0.5c-0.3-0.2-0.5-0.4-0.6-0.7
		c-0.1-0.3-0.2-0.6-0.2-1c0-0.5,0.1-0.9,0.3-1.3c0.2-0.4,0.5-0.7,0.8-1c0.3-0.3,0.7-0.5,1.2-0.6s1-0.2,1.5-0.2
		c0.7,0,1.4,0.1,2.1,0.4c0.6,0.2,1.2,0.6,1.6,0.9l-0.8,1c-0.4-0.4-0.9-0.6-1.4-0.8c-0.5-0.2-1.1-0.3-1.6-0.3c-0.6,0-1.1,0.1-1.5,0.4
		c-0.4,0.3-0.6,0.7-0.6,1.2c0,0.2,0,0.4,0.1,0.6s0.2,0.3,0.4,0.4c0.2,0.1,0.4,0.2,0.7,0.3c0.3,0.1,0.7,0.2,1.1,0.3
		c0.7,0.2,1.2,0.3,1.7,0.5c0.5,0.2,0.9,0.3,1.2,0.6c0.3,0.2,0.6,0.5,0.7,0.8c0.2,0.3,0.2,0.6,0.2,1.1c0,0.9-0.4,1.7-1.1,2.2
		S883.4,358.3,882.2,358.3z"/>
	<path class="st5" d="M893.2,357.6c-0.1,0.1-0.2,0.1-0.4,0.2c-0.2,0.1-0.4,0.1-0.6,0.2s-0.4,0.1-0.7,0.2c-0.2,0-0.5,0.1-0.8,0.1
		c-0.6,0-1.1-0.2-1.6-0.5c-0.4-0.3-0.7-0.9-0.7-1.6v-6.7h-1.3v-1.3h1.3v-3.3h1.7v3.3h2.2v1.3h-2.2v6.2c0,0.4,0.1,0.6,0.4,0.8
		c0.2,0.2,0.5,0.2,0.8,0.2c0.3,0,0.6-0.1,0.9-0.2c0.3-0.1,0.5-0.2,0.6-0.3L893.2,357.6z"/>
	<path class="st5" d="M897.3,358.3c-0.5,0-0.9-0.1-1.3-0.2s-0.8-0.4-1.1-0.7c-0.3-0.3-0.5-0.6-0.7-1c-0.2-0.4-0.3-0.8-0.3-1.2
		c0-0.5,0.1-0.9,0.3-1.2s0.5-0.7,0.9-1c0.4-0.3,0.8-0.5,1.3-0.6c0.5-0.2,1.1-0.2,1.7-0.2c0.5,0,1,0,1.5,0.1c0.5,0.1,0.9,0.2,1.3,0.4
		v-0.8c0-0.8-0.2-1.4-0.7-1.9c-0.5-0.5-1.1-0.7-1.9-0.7c-1,0-2.1,0.4-3.2,1.2l-0.6-1.1c1.3-0.9,2.6-1.3,3.9-1.3c1.3,0,2.3,0.3,3,1
		c0.7,0.7,1.1,1.7,1.1,2.9v4c0,0.4,0.2,0.6,0.5,0.6v1.4c-0.2,0-0.3,0-0.4,0.1c-0.1,0-0.2,0-0.4,0c-0.3,0-0.6-0.1-0.8-0.3
		c-0.2-0.2-0.3-0.4-0.4-0.7l0-0.7c-0.4,0.6-1,1-1.7,1.4S898.1,358.3,897.3,358.3z M897.7,357c0.6,0,1.1-0.1,1.7-0.3
		c0.5-0.2,0.9-0.5,1.2-0.9c0.2-0.2,0.4-0.5,0.4-0.7v-1.5c-0.8-0.3-1.7-0.5-2.5-0.5c-0.8,0-1.5,0.2-2,0.5c-0.5,0.4-0.8,0.8-0.8,1.4
		c0,0.3,0.1,0.5,0.2,0.8c0.1,0.2,0.3,0.4,0.5,0.6c0.2,0.2,0.4,0.3,0.7,0.4S897.4,357,897.7,357z"/>
	<path class="st5" d="M912.6,358.3c-0.5,0-0.9-0.1-1.3-0.2s-0.8-0.4-1.1-0.7c-0.3-0.3-0.5-0.6-0.7-1c-0.2-0.4-0.3-0.8-0.3-1.2
		c0-0.5,0.1-0.9,0.3-1.2s0.5-0.7,0.9-1c0.4-0.3,0.8-0.5,1.3-0.6c0.5-0.2,1.1-0.2,1.7-0.2c0.5,0,1,0,1.5,0.1c0.5,0.1,0.9,0.2,1.3,0.4
		v-0.8c0-0.8-0.2-1.4-0.7-1.9c-0.5-0.5-1.1-0.7-1.9-0.7c-1,0-2.1,0.4-3.2,1.2l-0.6-1.1c1.3-0.9,2.6-1.3,3.9-1.3c1.3,0,2.3,0.3,3,1
		c0.7,0.7,1.1,1.7,1.1,2.9v4c0,0.4,0.2,0.6,0.5,0.6v1.4c-0.2,0-0.3,0-0.4,0.1c-0.1,0-0.2,0-0.4,0c-0.3,0-0.6-0.1-0.8-0.3
		c-0.2-0.2-0.3-0.4-0.4-0.7l0-0.7c-0.4,0.6-1,1-1.7,1.4S913.4,358.3,912.6,358.3z M913.1,357c0.6,0,1.1-0.1,1.7-0.3
		c0.5-0.2,0.9-0.5,1.2-0.9c0.2-0.2,0.4-0.5,0.4-0.7v-1.5c-0.8-0.3-1.7-0.5-2.5-0.5c-0.8,0-1.5,0.2-2,0.5c-0.5,0.4-0.8,0.8-0.8,1.4
		c0,0.3,0.1,0.5,0.2,0.8c0.1,0.2,0.3,0.4,0.5,0.6c0.2,0.2,0.4,0.3,0.7,0.4S912.8,357,913.1,357z"/>
	<path class="st5" d="M928.9,358.3c-0.8,0-1.6-0.1-2.4-0.4c-0.8-0.2-1.4-0.6-2-1.1l0.7-1.1c0.6,0.4,1.2,0.8,1.7,1
		c0.6,0.2,1.2,0.3,1.8,0.3c0.7,0,1.3-0.1,1.7-0.4s0.6-0.7,0.6-1.2c0-0.2-0.1-0.4-0.2-0.6c-0.1-0.2-0.3-0.3-0.5-0.4
		c-0.2-0.1-0.5-0.2-0.9-0.3s-0.8-0.2-1.2-0.3c-0.6-0.2-1.1-0.3-1.5-0.4s-0.8-0.3-1.1-0.5c-0.3-0.2-0.5-0.4-0.6-0.7
		c-0.1-0.3-0.2-0.6-0.2-1c0-0.5,0.1-0.9,0.3-1.3c0.2-0.4,0.5-0.7,0.8-1c0.3-0.3,0.7-0.5,1.2-0.6s1-0.2,1.5-0.2
		c0.7,0,1.4,0.1,2.1,0.4c0.6,0.2,1.2,0.6,1.6,0.9l-0.8,1c-0.4-0.4-0.9-0.6-1.4-0.8c-0.5-0.2-1.1-0.3-1.6-0.3c-0.6,0-1.1,0.1-1.5,0.4
		c-0.4,0.3-0.6,0.7-0.6,1.2c0,0.2,0,0.4,0.1,0.6s0.2,0.3,0.4,0.4c0.2,0.1,0.4,0.2,0.7,0.3c0.3,0.1,0.7,0.2,1.1,0.3
		c0.7,0.2,1.2,0.3,1.7,0.5c0.5,0.2,0.9,0.3,1.2,0.6c0.3,0.2,0.6,0.5,0.7,0.8c0.2,0.3,0.2,0.6,0.2,1.1c0,0.9-0.4,1.7-1.1,2.2
		S930.1,358.3,928.9,358.3z"/>
	<path class="st5" d="M934.7,346.3v-2.1h1.7v2.1H934.7z M934.7,358.1v-9.9h1.7v9.9H934.7z"/>
	<path class="st5" d="M944,357.6c-0.1,0.1-0.2,0.1-0.4,0.2c-0.2,0.1-0.4,0.1-0.6,0.2s-0.4,0.1-0.7,0.2c-0.2,0-0.5,0.1-0.8,0.1
		c-0.6,0-1.1-0.2-1.6-0.5c-0.4-0.3-0.7-0.9-0.7-1.6v-6.7H938v-1.3h1.3v-3.3h1.7v3.3h2.2v1.3H941v6.2c0,0.4,0.1,0.6,0.4,0.8
		c0.2,0.2,0.5,0.2,0.8,0.2c0.3,0,0.6-0.1,0.9-0.2c0.3-0.1,0.5-0.2,0.6-0.3L944,357.6z"/>
	<path class="st5" d="M945.4,346.3v-2.1h1.7v2.1H945.4z M945.4,358.1v-9.9h1.7v9.9H945.4z"/>
	<path class="st5" d="M954,358.3c-0.7,0-1.4-0.1-2-0.4c-0.6-0.3-1.1-0.7-1.6-1.1s-0.8-1-1-1.6c-0.2-0.6-0.4-1.3-0.4-2
		c0-0.7,0.1-1.4,0.4-2c0.2-0.6,0.6-1.2,1-1.6s1-0.8,1.6-1.1c0.6-0.3,1.3-0.4,2-0.4c0.7,0,1.4,0.1,2,0.4s1.1,0.7,1.6,1.1s0.8,1,1,1.6
		c0.2,0.6,0.4,1.3,0.4,2c0,0.7-0.1,1.3-0.4,2c-0.2,0.6-0.6,1.2-1,1.6s-1,0.8-1.6,1.1C955.5,358.1,954.8,358.3,954,358.3z
		 M950.8,353.2c0,0.5,0.1,1,0.3,1.4s0.4,0.8,0.7,1.2c0.3,0.3,0.6,0.6,1,0.8c0.4,0.2,0.8,0.3,1.3,0.3s0.9-0.1,1.3-0.3
		c0.4-0.2,0.8-0.5,1.1-0.8c0.3-0.3,0.5-0.7,0.7-1.2c0.2-0.4,0.3-0.9,0.3-1.5c0-0.5-0.1-1-0.3-1.4c-0.2-0.4-0.4-0.8-0.7-1.2
		c-0.3-0.3-0.7-0.6-1.1-0.8c-0.4-0.2-0.8-0.3-1.3-0.3s-0.9,0.1-1.3,0.3s-0.7,0.5-1,0.8c-0.3,0.3-0.5,0.7-0.7,1.2
		C950.8,352.2,950.8,352.7,950.8,353.2z"/>
</g>
<g>
	<line class="st6" x1="982.5" y1="29.1" x2="1018.5" y2="29.1"/>
	<g>
		<rect x="962.9" y="9.5" class="st23" width="72.3" height="92.2"/>
		<line class="st6" x1="982.5" y1="37.3" x2="1018.5" y2="37.3"/>
		<line class="st6" x1="969.3" y1="45.5" x2="1018.5" y2="45.5"/>
		<line class="st6" x1="969.3" y1="53.8" x2="1018.5" y2="53.8"/>
		<line class="st6" x1="969.3" y1="69.5" x2="1018.5" y2="69.5"/>
		<line class="st6" x1="969.4" y1="77.8" x2="1003.7" y2="77.8"/>
		<path class="st7" d="M974.1,26.9h2.1l4.7,12.4h-2.5l-1.2-3.1H973l-1.1,3.1h-2.5L974.1,26.9z M976.9,34.5l-1.7-4.9l-1.8,4.9H976.9z
			"/>
		<rect x="957.9" y="14.5" class="st24" width="72.3" height="92.2"/>
		<g>
			<rect x="952.9" y="20.5" class="st23" width="72.3" height="92.2"/>
			<line class="st6" x1="977.5" y1="35.1" x2="1013.5" y2="35.1"/>
			<line class="st6" x1="977.5" y1="43.3" x2="1013.5" y2="43.3"/>
			<line class="st6" x1="964.3" y1="51.5" x2="1013.5" y2="51.5"/>
			<line class="st6" x1="964.3" y1="59.8" x2="1013.5" y2="59.8"/>
			<line class="st6" x1="964.3" y1="75.5" x2="1013.5" y2="75.5"/>
			<line class="st6" x1="964.4" y1="83.8" x2="998.7" y2="83.8"/>
			<g>
				<path class="st7" d="M969.1,32.9h2.1l4.7,12.4h-2.5l-1.2-3.1H968l-1.1,3.1h-2.5L969.1,32.9z M971.9,40.5l-1.7-4.9l-1.8,4.9
					H971.9z"/>
			</g>
		</g>
		<g>
			<rect x="946.8" y="26.5" class="st5" width="72.3" height="92.2"/>
			<line class="st25" x1="971.5" y1="41.1" x2="1007.5" y2="41.1"/>
			<line class="st25" x1="971.5" y1="49.3" x2="1007.5" y2="49.3"/>
			<line class="st25" x1="958.3" y1="57.5" x2="1007.5" y2="57.5"/>
			<line class="st25" x1="958.3" y1="65.8" x2="1007.5" y2="65.8"/>
			<line class="st25" x1="958.3" y1="81.5" x2="1007.5" y2="81.5"/>
			<line class="st25" x1="958.4" y1="89.8" x2="992.7" y2="89.8"/>
			<g>
				<path class="st4" d="M963.1,38.9h2.1l4.7,12.4h-2.5l-1.2-3.1H962l-1.1,3.1h-2.5L963.1,38.9z M965.9,46.5l-1.7-4.9l-1.8,4.9
					H965.9z"/>
			</g>
		</g>
	</g>
</g>
<linearGradient id="SVGID_3_" gradientUnits="userSpaceOnUse" x1="-334.6097" y1="713.737" x2="-427.9242" y2="713.737" gradientTransform="matrix(0.7071 0.7071 -0.7071 0.7071 1847.9546 -95.5888)">
	<stop  offset="0" style="stop-color:#517E89;stop-opacity:0"/>
	<stop  offset="1" style="stop-color:#517E89;stop-opacity:0.7"/>
</linearGradient>
<polygon class="st26" points="1073.7,205.5 1007.7,139.5 1073.7,73.5 1139.7,139.5 "/>
<g>
	<path class="st5" d="M1085.3,159.9v-13.5h5.6c0.6,0,1.1,0.1,1.6,0.4s0.9,0.6,1.3,1c0.4,0.4,0.6,0.9,0.8,1.4c0.2,0.5,0.3,1,0.3,1.6
		c0,0.6-0.1,1.1-0.3,1.6s-0.5,1-0.8,1.4c-0.3,0.4-0.8,0.7-1.3,1c-0.5,0.2-1,0.4-1.6,0.4h-4v4.8H1085.3z M1087,153.5h3.9
		c0.4,0,0.7-0.1,1-0.2c0.3-0.1,0.5-0.3,0.7-0.6c0.2-0.3,0.4-0.6,0.5-0.9c0.1-0.3,0.2-0.7,0.2-1.1c0-0.4-0.1-0.8-0.2-1.1
		c-0.1-0.3-0.3-0.6-0.5-0.9s-0.5-0.4-0.8-0.6c-0.3-0.1-0.6-0.2-0.9-0.2h-3.8V153.5z"/>
	<path class="st5" d="M1101.8,151.4c-0.8,0-1.6,0.2-2.2,0.6s-1.1,1-1.4,1.7v6.1h-1.7V150h1.6v2.3c0.3-0.7,0.8-1.2,1.3-1.7
		c0.6-0.4,1.2-0.7,1.8-0.7c0.1,0,0.2,0,0.3,0c0.1,0,0.2,0,0.2,0V151.4z"/>
	<path class="st5" d="M1107.4,160.1c-0.7,0-1.4-0.1-2-0.4c-0.6-0.3-1.1-0.7-1.6-1.1s-0.8-1-1-1.6c-0.2-0.6-0.4-1.3-0.4-2
		c0-0.7,0.1-1.4,0.4-2c0.2-0.6,0.6-1.2,1-1.6s1-0.8,1.6-1.1c0.6-0.3,1.3-0.4,2-0.4c0.7,0,1.4,0.1,2,0.4s1.1,0.7,1.6,1.1s0.8,1,1,1.6
		c0.2,0.6,0.4,1.3,0.4,2c0,0.7-0.1,1.3-0.4,2c-0.2,0.6-0.6,1.2-1,1.6s-1,0.8-1.6,1.1C1108.9,159.9,1108.2,160.1,1107.4,160.1z
		 M1104.1,155c0,0.5,0.1,1,0.3,1.4s0.4,0.8,0.7,1.2c0.3,0.3,0.6,0.6,1,0.8c0.4,0.2,0.8,0.3,1.3,0.3s0.9-0.1,1.3-0.3
		c0.4-0.2,0.8-0.5,1.1-0.8c0.3-0.3,0.5-0.7,0.7-1.2c0.2-0.4,0.3-0.9,0.3-1.5c0-0.5-0.1-1-0.3-1.4c-0.2-0.4-0.4-0.8-0.7-1.2
		c-0.3-0.3-0.7-0.6-1.1-0.8c-0.4-0.2-0.8-0.3-1.3-0.3s-0.9,0.1-1.3,0.3s-0.7,0.5-1,0.8c-0.3,0.3-0.5,0.7-0.7,1.2
		C1104.2,154,1104.1,154.5,1104.1,155z"/>
	<path class="st5" d="M1119.7,160.1c-0.8,0-1.5-0.2-2.2-0.6s-1.1-0.9-1.5-1.5v6h-1.7v-14h1.5v1.9c0.4-0.6,0.9-1.1,1.5-1.5
		s1.3-0.6,2.1-0.6c0.7,0,1.3,0.1,1.9,0.4c0.6,0.3,1.1,0.7,1.5,1.1c0.4,0.5,0.7,1,1,1.6c0.2,0.6,0.4,1.3,0.4,1.9c0,0.7-0.1,1.4-0.3,2
		s-0.5,1.2-0.9,1.6c-0.4,0.5-0.9,0.8-1.4,1.1C1121,160,1120.4,160.1,1119.7,160.1z M1119.2,158.6c0.5,0,0.9-0.1,1.3-0.3
		s0.7-0.5,1-0.8s0.5-0.7,0.7-1.2c0.2-0.4,0.2-0.9,0.2-1.4c0-0.5-0.1-1-0.3-1.4c-0.2-0.5-0.4-0.8-0.7-1.2c-0.3-0.3-0.7-0.6-1.1-0.8
		s-0.9-0.3-1.3-0.3c-0.3,0-0.6,0.1-0.9,0.2c-0.3,0.1-0.6,0.3-0.9,0.5c-0.3,0.2-0.5,0.4-0.7,0.7s-0.3,0.6-0.4,0.9v2.8
		c0.1,0.3,0.3,0.6,0.5,0.9c0.2,0.3,0.5,0.5,0.7,0.7c0.3,0.2,0.6,0.4,0.9,0.5C1118.5,158.6,1118.9,158.6,1119.2,158.6z"/>
	<path class="st5" d="M1129.2,160.1c-1,0-1.8-0.3-2.4-1c-0.5-0.7-0.8-1.7-0.8-3.1V150h1.7v5.6c0,2,0.7,3,2.1,3
		c0.7,0,1.3-0.2,1.9-0.7c0.6-0.4,1-1,1.3-1.8V150h1.7v7.9c0,0.4,0.2,0.6,0.5,0.6v1.4c-0.2,0-0.3,0-0.4,0c-0.1,0-0.2,0-0.3,0
		c-0.3,0-0.6-0.1-0.8-0.3s-0.3-0.4-0.4-0.7l0-1.2c-0.4,0.7-1,1.3-1.7,1.7C1130.8,159.9,1130,160.1,1129.2,160.1z"/>
	<path class="st5" d="M1141.8,160.1c-0.7,0-1.4-0.1-2.1-0.4s-1.2-0.6-1.6-1.1s-0.8-1-1-1.6c-0.2-0.6-0.4-1.3-0.4-2s0.1-1.4,0.4-2
		c0.2-0.6,0.6-1.2,1-1.6c0.4-0.5,1-0.8,1.6-1.1s1.3-0.4,2.1-0.4s1.4,0.1,2,0.4s1.1,0.6,1.6,1.1c0.4,0.5,0.8,1,1,1.6s0.4,1.3,0.4,1.9
		c0,0.1,0,0.3,0,0.4c0,0.1,0,0.2,0,0.3h-8.2c0,0.5,0.2,0.9,0.3,1.3s0.4,0.8,0.7,1c0.3,0.3,0.6,0.5,1,0.7c0.4,0.2,0.8,0.2,1.2,0.2
		c0.3,0,0.6,0,0.9-0.1c0.3-0.1,0.6-0.2,0.8-0.3c0.3-0.1,0.5-0.3,0.7-0.5c0.2-0.2,0.3-0.4,0.4-0.7l1.4,0.4c-0.2,0.4-0.4,0.7-0.7,1
		c-0.3,0.3-0.6,0.6-1,0.8c-0.4,0.2-0.8,0.4-1.2,0.5S1142.3,160.1,1141.8,160.1z M1145.2,154.3c0-0.5-0.2-0.9-0.4-1.3
		c-0.2-0.4-0.4-0.7-0.7-1c-0.3-0.3-0.6-0.5-1-0.7c-0.4-0.2-0.8-0.2-1.3-0.2s-0.9,0.1-1.3,0.2s-0.7,0.4-1,0.7c-0.3,0.3-0.5,0.6-0.7,1
		c-0.2,0.4-0.3,0.8-0.3,1.3H1145.2z"/>
	<path class="st5" d="M1151.9,160.1c-0.8,0-1.6-0.1-2.4-0.4c-0.8-0.2-1.4-0.6-2-1.1l0.7-1.1c0.6,0.4,1.2,0.8,1.7,1
		c0.6,0.2,1.2,0.3,1.8,0.3c0.7,0,1.3-0.1,1.7-0.4s0.6-0.7,0.6-1.2c0-0.2-0.1-0.4-0.2-0.6c-0.1-0.2-0.3-0.3-0.5-0.4
		c-0.2-0.1-0.5-0.2-0.9-0.3s-0.8-0.2-1.2-0.3c-0.6-0.2-1.1-0.3-1.5-0.4s-0.8-0.3-1.1-0.5c-0.3-0.2-0.5-0.4-0.6-0.7
		c-0.1-0.3-0.2-0.6-0.2-1c0-0.5,0.1-0.9,0.3-1.3c0.2-0.4,0.5-0.7,0.8-1c0.3-0.3,0.7-0.5,1.2-0.6s1-0.2,1.5-0.2
		c0.7,0,1.4,0.1,2.1,0.4c0.6,0.2,1.2,0.6,1.6,0.9l-0.8,1c-0.4-0.4-0.9-0.6-1.4-0.8c-0.5-0.2-1.1-0.3-1.6-0.3c-0.6,0-1.1,0.1-1.5,0.4
		c-0.4,0.3-0.6,0.7-0.6,1.2c0,0.2,0,0.4,0.1,0.6s0.2,0.3,0.4,0.4c0.2,0.1,0.4,0.2,0.7,0.3c0.3,0.1,0.7,0.2,1.1,0.3
		c0.7,0.2,1.2,0.3,1.7,0.5c0.5,0.2,0.9,0.3,1.2,0.6c0.3,0.2,0.6,0.5,0.7,0.8c0.2,0.3,0.2,0.6,0.2,1.1c0,0.9-0.4,1.7-1.1,2.2
		S1153.1,160.1,1151.9,160.1z"/>
	<path class="st5" d="M1162.9,159.4c-0.1,0.1-0.2,0.1-0.4,0.2c-0.2,0.1-0.4,0.1-0.6,0.2s-0.4,0.1-0.7,0.2c-0.2,0-0.5,0.1-0.8,0.1
		c-0.6,0-1.1-0.2-1.6-0.5c-0.4-0.3-0.7-0.9-0.7-1.6v-6.7h-1.3V150h1.3v-3.3h1.7v3.3h2.2v1.3h-2.2v6.2c0,0.4,0.1,0.6,0.4,0.8
		c0.2,0.2,0.5,0.2,0.8,0.2c0.3,0,0.6-0.1,0.9-0.2c0.3-0.1,0.5-0.2,0.6-0.3L1162.9,159.4z"/>
	<path class="st5" d="M1167.1,160.1c-0.5,0-0.9-0.1-1.3-0.2s-0.8-0.4-1.1-0.7c-0.3-0.3-0.5-0.6-0.7-1c-0.2-0.4-0.3-0.8-0.3-1.2
		c0-0.5,0.1-0.9,0.3-1.2s0.5-0.7,0.9-1c0.4-0.3,0.8-0.5,1.3-0.6c0.5-0.2,1.1-0.2,1.7-0.2c0.5,0,1,0,1.5,0.1c0.5,0.1,0.9,0.2,1.3,0.4
		v-0.8c0-0.8-0.2-1.4-0.7-1.9c-0.5-0.5-1.1-0.7-1.9-0.7c-1,0-2.1,0.4-3.2,1.2l-0.6-1.1c1.3-0.9,2.6-1.3,3.9-1.3c1.3,0,2.3,0.3,3,1
		c0.7,0.7,1.1,1.7,1.1,2.9v4c0,0.4,0.2,0.6,0.5,0.6v1.4c-0.2,0-0.3,0-0.4,0.1c-0.1,0-0.2,0-0.4,0c-0.3,0-0.6-0.1-0.8-0.3
		c-0.2-0.2-0.3-0.4-0.4-0.7l0-0.7c-0.4,0.6-1,1-1.7,1.4S1167.8,160.1,1167.1,160.1z M1167.5,158.8c0.6,0,1.1-0.1,1.7-0.3
		c0.5-0.2,0.9-0.5,1.2-0.9c0.2-0.2,0.4-0.5,0.4-0.7v-1.5c-0.8-0.3-1.7-0.5-2.5-0.5c-0.8,0-1.5,0.2-2,0.5c-0.5,0.4-0.8,0.8-0.8,1.4
		c0,0.3,0.1,0.5,0.2,0.8c0.1,0.2,0.3,0.4,0.5,0.6c0.2,0.2,0.4,0.3,0.7,0.4S1167.2,158.8,1167.5,158.8z"/>
	<path class="st5" d="M1183.9,160.1c-0.7,0-1.3-0.1-1.9-0.4c-0.6-0.3-1.1-0.7-1.5-1.1s-0.7-1-1-1.6c-0.2-0.6-0.4-1.3-0.4-2
		c0-0.7,0.1-1.4,0.3-2c0.2-0.6,0.5-1.2,0.9-1.6c0.4-0.5,0.9-0.8,1.4-1.1c0.6-0.3,1.2-0.4,1.8-0.4c0.8,0,1.5,0.2,2.1,0.6
		c0.6,0.4,1.1,0.9,1.5,1.5V146h1.7v11.8c0,0.4,0.2,0.6,0.5,0.6v1.4c-0.2,0-0.3,0-0.4,0.1s-0.2,0-0.3,0c-0.3,0-0.6-0.1-0.9-0.3
		c-0.2-0.2-0.4-0.5-0.4-0.8V158c-0.4,0.6-0.9,1.1-1.6,1.5C1185.3,159.9,1184.7,160.1,1183.9,160.1z M1184.3,158.6
		c0.3,0,0.6-0.1,0.9-0.2c0.3-0.1,0.6-0.3,0.9-0.5c0.3-0.2,0.5-0.4,0.7-0.7c0.2-0.3,0.3-0.6,0.4-0.9v-2.9c-0.1-0.3-0.3-0.6-0.5-0.9
		c-0.2-0.3-0.5-0.5-0.8-0.7c-0.3-0.2-0.6-0.4-0.9-0.5c-0.3-0.1-0.6-0.2-1-0.2c-0.5,0-0.9,0.1-1.3,0.3c-0.4,0.2-0.7,0.5-1,0.8
		s-0.5,0.7-0.7,1.2c-0.2,0.5-0.2,0.9-0.2,1.4c0,0.5,0.1,1,0.3,1.4c0.2,0.5,0.4,0.8,0.7,1.2c0.3,0.3,0.7,0.6,1.1,0.8
		C1183.4,158.5,1183.9,158.6,1184.3,158.6z"/>
	<path class="st5" d="M1191.7,148.1V146h1.7v2.1H1191.7z M1191.7,159.9V150h1.7v9.9H1191.7z"/>
	<path class="st5" d="M1199.5,160.1c-0.8,0-1.6-0.1-2.4-0.4c-0.8-0.2-1.4-0.6-2-1.1l0.7-1.1c0.6,0.4,1.2,0.8,1.7,1
		c0.6,0.2,1.2,0.3,1.8,0.3c0.7,0,1.3-0.1,1.7-0.4s0.6-0.7,0.6-1.2c0-0.2-0.1-0.4-0.2-0.6c-0.1-0.2-0.3-0.3-0.5-0.4
		c-0.2-0.1-0.5-0.2-0.9-0.3s-0.8-0.2-1.2-0.3c-0.6-0.2-1.1-0.3-1.5-0.4s-0.8-0.3-1.1-0.5c-0.3-0.2-0.5-0.4-0.6-0.7
		c-0.1-0.3-0.2-0.6-0.2-1c0-0.5,0.1-0.9,0.3-1.3c0.2-0.4,0.5-0.7,0.8-1c0.3-0.3,0.7-0.5,1.2-0.6s1-0.2,1.5-0.2
		c0.7,0,1.4,0.1,2.1,0.4c0.6,0.2,1.2,0.6,1.6,0.9l-0.8,1c-0.4-0.4-0.9-0.6-1.4-0.8c-0.5-0.2-1.1-0.3-1.6-0.3c-0.6,0-1.1,0.1-1.5,0.4
		c-0.4,0.3-0.6,0.7-0.6,1.2c0,0.2,0,0.4,0.1,0.6s0.2,0.3,0.4,0.4c0.2,0.1,0.4,0.2,0.7,0.3c0.3,0.1,0.7,0.2,1.1,0.3
		c0.7,0.2,1.2,0.3,1.7,0.5c0.5,0.2,0.9,0.3,1.2,0.6c0.3,0.2,0.6,0.5,0.7,0.8c0.2,0.3,0.2,0.6,0.2,1.1c0,0.9-0.4,1.7-1.1,2.2
		S1200.7,160.1,1199.5,160.1z"/>
	<path class="st5" d="M1210.6,160.1c-0.8,0-1.5-0.2-2.2-0.6s-1.1-0.9-1.5-1.5v6h-1.7v-14h1.5v1.9c0.4-0.6,0.9-1.1,1.5-1.5
		s1.3-0.6,2.1-0.6c0.7,0,1.3,0.1,1.9,0.4c0.6,0.3,1.1,0.7,1.5,1.1c0.4,0.5,0.7,1,1,1.6c0.2,0.6,0.4,1.3,0.4,1.9c0,0.7-0.1,1.4-0.3,2
		s-0.5,1.2-0.9,1.6c-0.4,0.5-0.9,0.8-1.4,1.1C1211.8,160,1211.2,160.1,1210.6,160.1z M1210.1,158.6c0.5,0,0.9-0.1,1.3-0.3
		s0.7-0.5,1-0.8s0.5-0.7,0.7-1.2c0.2-0.4,0.2-0.9,0.2-1.4c0-0.5-0.1-1-0.3-1.4c-0.2-0.5-0.4-0.8-0.7-1.2c-0.3-0.3-0.7-0.6-1.1-0.8
		s-0.9-0.3-1.3-0.3c-0.3,0-0.6,0.1-0.9,0.2c-0.3,0.1-0.6,0.3-0.9,0.5c-0.3,0.2-0.5,0.4-0.7,0.7s-0.3,0.6-0.4,0.9v2.8
		c0.1,0.3,0.3,0.6,0.5,0.9c0.2,0.3,0.5,0.5,0.7,0.7c0.3,0.2,0.6,0.4,0.9,0.5C1209.4,158.6,1209.7,158.6,1210.1,158.6z"/>
	<path class="st5" d="M1221.4,160.1c-0.7,0-1.4-0.1-2-0.4c-0.6-0.3-1.1-0.7-1.6-1.1c-0.4-0.5-0.8-1-1-1.6c-0.2-0.6-0.4-1.3-0.4-2
		c0-0.7,0.1-1.4,0.4-2c0.2-0.6,0.6-1.2,1-1.6s1-0.8,1.6-1.1c0.6-0.3,1.3-0.4,2-0.4s1.4,0.1,2,0.4c0.6,0.3,1.1,0.7,1.6,1.1
		s0.8,1,1,1.6c0.2,0.6,0.4,1.3,0.4,2c0,0.7-0.1,1.3-0.4,2c-0.2,0.6-0.6,1.2-1,1.6s-1,0.8-1.6,1.1
		C1222.8,159.9,1222.1,160.1,1221.4,160.1z M1218.1,155c0,0.5,0.1,1,0.3,1.4c0.2,0.4,0.4,0.8,0.7,1.2c0.3,0.3,0.6,0.6,1,0.8
		c0.4,0.2,0.8,0.3,1.3,0.3s0.9-0.1,1.3-0.3c0.4-0.2,0.8-0.5,1.1-0.8c0.3-0.3,0.5-0.7,0.7-1.2c0.2-0.4,0.3-0.9,0.3-1.5
		c0-0.5-0.1-1-0.3-1.4c-0.2-0.4-0.4-0.8-0.7-1.2s-0.7-0.6-1.1-0.8c-0.4-0.2-0.8-0.3-1.3-0.3s-0.9,0.1-1.3,0.3
		c-0.4,0.2-0.7,0.5-1,0.8c-0.3,0.3-0.5,0.7-0.7,1.2C1218.2,154,1218.1,154.5,1218.1,155z"/>
	<path class="st5" d="M1236.9,159.9h-1.7v-5.5c0-1.1-0.2-1.8-0.5-2.3c-0.3-0.5-0.8-0.7-1.5-0.7c-0.3,0-0.7,0.1-1,0.2s-0.7,0.3-1,0.5
		c-0.3,0.2-0.6,0.5-0.8,0.8c-0.2,0.3-0.4,0.7-0.5,1v6h-1.7V150h1.5v2.1c0.4-0.7,1-1.3,1.7-1.7c0.7-0.4,1.5-0.6,2.4-0.6
		c0.6,0,1,0.1,1.4,0.3c0.4,0.2,0.7,0.5,0.9,0.9c0.2,0.4,0.4,0.8,0.5,1.3c0.1,0.5,0.1,1.1,0.1,1.7V159.9z"/>
	<path class="st5" d="M1239.4,148.1V146h1.7v2.1H1239.4z M1239.4,159.9V150h1.7v9.9H1239.4z"/>
	<path class="st5" d="M1248.7,160.1c-0.8,0-1.5-0.2-2.1-0.6s-1.1-0.9-1.5-1.5v1.9h-1.5V146h1.7v5.9c0.4-0.6,0.9-1.2,1.5-1.6
		c0.6-0.4,1.3-0.6,2.1-0.6c0.7,0,1.3,0.1,1.8,0.4c0.5,0.3,1,0.7,1.4,1.1c0.4,0.5,0.7,1,0.9,1.7s0.3,1.3,0.3,1.9c0,0.7-0.1,1.4-0.4,2
		c-0.2,0.6-0.6,1.2-1,1.6c-0.4,0.5-0.9,0.8-1.5,1.1C1250,160,1249.4,160.1,1248.7,160.1z M1248.3,158.6c0.5,0,1-0.1,1.4-0.3
		c0.4-0.2,0.8-0.5,1.1-0.8c0.3-0.3,0.5-0.7,0.7-1.2c0.2-0.4,0.2-0.9,0.2-1.4s-0.1-0.9-0.2-1.4s-0.4-0.8-0.7-1.2s-0.6-0.6-1-0.8
		c-0.4-0.2-0.8-0.3-1.3-0.3c-0.4,0-0.7,0.1-1,0.2c-0.3,0.1-0.6,0.3-0.9,0.5c-0.3,0.2-0.5,0.5-0.7,0.7s-0.4,0.6-0.5,0.9v2.9
		c0.1,0.3,0.2,0.6,0.4,0.9s0.5,0.5,0.7,0.7s0.6,0.4,0.9,0.5C1247.7,158.6,1248,158.6,1248.3,158.6z"/>
	<path class="st5" d="M1255.4,146h1.7v11.3c0,0.4,0.1,0.7,0.3,0.9c0.2,0.2,0.5,0.3,0.8,0.3c0.1,0,0.3,0,0.5-0.1
		c0.2,0,0.4-0.1,0.5-0.2l0.3,1.3c-0.3,0.1-0.6,0.2-1,0.3c-0.4,0.1-0.7,0.1-1,0.1c-0.6,0-1.2-0.2-1.5-0.6c-0.4-0.4-0.6-0.9-0.6-1.5
		V146z"/>
	<path class="st5" d="M1264.9,160.1c-0.7,0-1.4-0.1-2.1-0.4s-1.2-0.6-1.6-1.1s-0.8-1-1-1.6c-0.2-0.6-0.4-1.3-0.4-2s0.1-1.4,0.4-2
		c0.2-0.6,0.6-1.2,1-1.6c0.4-0.5,1-0.8,1.6-1.1c0.6-0.3,1.3-0.4,2.1-0.4c0.7,0,1.4,0.1,2,0.4s1.1,0.6,1.6,1.1c0.4,0.5,0.8,1,1,1.6
		s0.4,1.3,0.4,1.9c0,0.1,0,0.3,0,0.4c0,0.1,0,0.2,0,0.3h-8.2c0,0.5,0.2,0.9,0.3,1.3c0.2,0.4,0.4,0.8,0.7,1c0.3,0.3,0.6,0.5,1,0.7
		c0.4,0.2,0.8,0.2,1.2,0.2c0.3,0,0.6,0,0.9-0.1c0.3-0.1,0.6-0.2,0.8-0.3c0.3-0.1,0.5-0.3,0.7-0.5c0.2-0.2,0.3-0.4,0.4-0.7l1.4,0.4
		c-0.2,0.4-0.4,0.7-0.7,1c-0.3,0.3-0.6,0.6-1,0.8c-0.4,0.2-0.8,0.4-1.2,0.5C1265.9,160,1265.4,160.1,1264.9,160.1z M1268.3,154.3
		c0-0.5-0.2-0.9-0.4-1.3c-0.2-0.4-0.4-0.7-0.7-1c-0.3-0.3-0.6-0.5-1-0.7c-0.4-0.2-0.8-0.2-1.3-0.2s-0.9,0.1-1.3,0.2s-0.7,0.4-1,0.7
		c-0.3,0.3-0.5,0.6-0.7,1c-0.2,0.4-0.3,0.8-0.3,1.3H1268.3z"/>
</g>
<g>
	<path class="st11" d="M1056.9,89.6l35.4,35.4c4-15.5,0-32.6-12.2-44.7c-18.2-18.2-47.8-18.2-66,0c-18.2,18.2-18.2,47.8,0,66
		c12.7,12.7,30.9,16.5,46.9,11.5l-32.2-32.2L1056.9,89.6z"/>
	<path class="st12" d="M1092.3,125l-35.4-35.4l-28.1,36l32.2,32.2c7-2.2,13.6-6,19.1-11.5C1086.2,140.1,1090.3,132.8,1092.3,125z"/>
</g>
<g>
	<path class="st5" d="M1049.3,136.4v-10.7h-20.6v-6.6l22.9-29.5h5V119h5.9v6.7h-5.9v10.7H1049.3z M1036.2,119h13.9v-18.2L1036.2,119
		z"/>
</g>
<g>
	<g>
		<path class="st27" d="M337,91.8c0,0,9.2-12.9,10.2-15.1s-0.4-1.3-0.8-4.8c-0.4-3.5,0.3-3.6,0.6-6.6c0.3-3-0.1-6.7,1.9-5.5
			c2.1,1.3-0.5,7,1.6,8.3c0,0,2.3-5.4,3.2-7.7s1.5-5.8,3.2-7.1c0.4-0.3,1.3,0.1,1,1.3c-0.9,3.6-2.7,9.8-2.1,10
			c0.9,0.4,4.3-6.9,6.1-9.5c0.6-0.9,2-0.5,1.6,0.9c-1.5,4.4-4.7,9.6-4,9.9c0.4,0.2,4.6-5.3,6.9-7.2c0.4-0.4,1.5,0.5,1.1,1.2
			c-1.2,2.3-5.6,7.2-6,9.7c-0.5,2.8,5.5-5.8,6.5-4.4s-3.1,4.8-5.5,8.1c-2.3,3.3-3.1,4.2-5.4,5.4c-2.3,1.2-1.9,0.3-3.6,2.6
			c-1.7,2.3-10.1,20.8-10.1,20.8S339,94.1,337,91.8z"/>
	</g>
	<g>
		<path class="st28" d="M212.4,125.2c0,0,13.8-13.3,32.8-13.3c13.6,0,26.9,9.6,26.9,9.6v34.6h-59.7V125.2z"/>
		<path class="st12" d="M272,121.5c0,0,9.5-2.6,34-11.4c0,0,2.4,4.7,7.3,2.8c10.2-4.1,17.9-23.6,26.3-24.7l10.2,6.7l-8.7,13.2
			l-12.2,19.8v26.8l-57,0.3L272,121.5z"/>
		<g>
			
				<ellipse transform="matrix(-0.9995 -3.218469e-02 3.218469e-02 -0.9995 481.3854 196.2382)" class="st27" cx="242.3" cy="94.2" rx="19.8" ry="23.4"/>
			<path class="st29" d="M222.5,93.6c0.4-12.9,9.6-23.1,20.5-22.7l-1.5,46.8C230.6,117.3,222.1,106.5,222.5,93.6z"/>
			<path class="st30" d="M233,73.7c0,0,1.1,11.1,15.8,11.6l0.2-5.5c0,0,1.3,5.6,8.9,5.8l3.6,13.9c0,0,7.4-26.1-12.1-32.5
				s-31,11.3-27,31.2L233,73.7z"/>
			<path id="XMLID_59_" class="st5" d="M310,44.2c-6.8-13.4-24-18.3-38.6-11c-3.6,1.8-6.7,4.2-9.3,7c-0.6,0.3-1.3,1.2-2.1,2.7
				c0,0,0,0,0,0c-2.1,2.9-3.6,6.1-4.5,9.5c-0.6,1.8-0.8,3.2-0.8,4.4c-0.2,2.3-0.1,4.6,0.3,6.9c0,0.5-0.1,1-0.2,1.5
				c-1.5,7.7-7,7.3-7,7.3c5.4,5.2,13.9,4.3,13.9,4.3c8.3,8.6,22.2,11,34.2,4.9C310.5,74.5,316.8,57.7,310,44.2z"/>
		</g>
		<g>
			
				<ellipse transform="matrix(-0.9995 -3.218469e-02 3.218469e-02 -0.9995 597.0743 200.8651)" class="st27" cx="300.2" cy="95.6" rx="19.8" ry="23.4"/>
			<path class="st29" d="M280.4,95c0.4-12.9,9.6-23.1,20.5-22.7l-1.5,46.8C288.5,118.7,280,107.9,280.4,95z"/>
		</g>
	</g>
	<g id="XMLID_57_">
		<path id="XMLID_58_" class="st31" d="M253.5,102.3c-1.3,0-1.5,0.9-1.5,0.9s0.3-0.4,1-0.3c1.1,0.1,1.6,2.4-0.3,2.5
			c-2.5,0.2-5.6-5.6-10.5-2.3c-4.8-3.3-7.9,2.5-10.5,2.3c-1.9-0.1-1.3-2.4-0.3-2.5c0.7-0.1,1,0.3,1,0.3s-0.2-0.9-1.5-0.9
			c-1.6,0-2.1,1.7-2,2.6c0.2,1.6,1.6,3.8,5.2,3.8c5.4,0,8-2.7,8-2.7s2.6,2.7,8,2.7c3.7,0,5.1-2.1,5.2-3.8
			C255.6,104,255.1,102.3,253.5,102.3z"/>
	</g>
	<path id="XMLID_56_" class="st32" d="M291.2,118.3c-2.5-4.8-3.1-10.4-3.1-10.4c-0.9-5.5,1.4-9.3,3.9-11.8c1.9-1.9,4.2-3.2,6.7-4
		c9-3,10.8-9.3,10.8-9.3c12.2,13.6,0.7,35.4,0.7,35.4c16.3-11.6,16.6-27.2,14.2-35.3c-1.7-5.8-5.9-10.6-11.6-12.8
		c-5.9-2.2-12.8-2.7-17.1-2.7c-3.7,0-7.3,0.7-10.7,2.2c-11.5,5.3-13.3,16.3-12.5,25.1c0.8,9.6,6.7,18,15.5,21.9
		C288.8,116.9,291,118.3,291.2,118.3z"/>
	<path class="st33" d="M306.1,110.1c0,0,0.6-0.4,1.1-0.8c-0.2,0-0.4,0-0.6,0c-1.1,0-2-0.3-2.7-0.8c-0.4-0.2-0.6-0.3-0.6-0.3
		c-0.7-0.4-1.6-0.4-2.3-0.1l-1.1,0.7l-1.1-0.7c-0.7-0.4-1.6-0.3-2.3,0.1c0,0-0.2,0.1-0.4,0.2c-0.5,0.3-1.1,0.6-1.7,0.7
		c-0.1,0-0.2,0-0.3,0c-0.3,0-0.6,0.1-0.9,0.1c-0.3,0-0.5,0-0.8-0.1c0.5,0.3,0.9,0.6,0.9,0.6l0,0c0,0,0,0,0,0c1.1,0.9,4.1,3,6.3,3
		C301.8,112.9,304.8,111.1,306.1,110.1C306.1,110.1,306.1,110.1,306.1,110.1L306.1,110.1z"/>
</g>
<polygon class="st9" points="64.4,182.1 318.8,182.1 303,161.4 318.8,140.7 64.4,140.7 80.2,161.4 "/>
<g>
	<path class="st5" d="M88.6,166.6v-13.5h5.6c0.6,0,1.1,0.1,1.6,0.4c0.5,0.2,0.9,0.6,1.3,1c0.4,0.4,0.6,0.9,0.8,1.4
		c0.2,0.5,0.3,1,0.3,1.6c0,0.6-0.1,1.1-0.3,1.6c-0.2,0.5-0.5,1-0.8,1.4s-0.8,0.7-1.3,1c-0.5,0.2-1,0.4-1.6,0.4h-4v4.8H88.6z
		 M90.3,160.2h3.9c0.4,0,0.7-0.1,1-0.2c0.3-0.1,0.5-0.3,0.7-0.6c0.2-0.3,0.4-0.6,0.5-0.9c0.1-0.3,0.2-0.7,0.2-1.1
		c0-0.4-0.1-0.8-0.2-1.1c-0.1-0.3-0.3-0.6-0.5-0.9s-0.5-0.4-0.8-0.6c-0.3-0.1-0.6-0.2-0.9-0.2h-3.8V160.2z"/>
	<path class="st5" d="M102.6,166.8c-0.5,0-0.9-0.1-1.3-0.2s-0.8-0.4-1.1-0.7c-0.3-0.3-0.5-0.6-0.7-1c-0.2-0.4-0.3-0.8-0.3-1.2
		c0-0.5,0.1-0.9,0.3-1.2c0.2-0.4,0.5-0.7,0.9-1c0.4-0.3,0.8-0.5,1.3-0.6c0.5-0.2,1.1-0.2,1.7-0.2c0.5,0,1,0,1.5,0.1
		c0.5,0.1,0.9,0.2,1.3,0.4v-0.8c0-0.8-0.2-1.4-0.7-1.9c-0.5-0.5-1.1-0.7-1.9-0.7c-1,0-2.1,0.4-3.2,1.2l-0.6-1.1
		c1.3-0.9,2.6-1.3,3.9-1.3c1.3,0,2.3,0.3,3,1s1.1,1.7,1.1,2.9v4c0,0.4,0.2,0.6,0.5,0.6v1.4c-0.2,0-0.3,0-0.4,0.1s-0.2,0-0.4,0
		c-0.3,0-0.6-0.1-0.8-0.3c-0.2-0.2-0.3-0.4-0.4-0.7l0-0.7c-0.4,0.6-1,1-1.7,1.4S103.3,166.8,102.6,166.8z M103,165.5
		c0.6,0,1.1-0.1,1.7-0.3c0.5-0.2,0.9-0.5,1.2-0.9c0.2-0.2,0.4-0.5,0.4-0.7v-1.5c-0.8-0.3-1.7-0.5-2.5-0.5c-0.8,0-1.5,0.2-2,0.5
		c-0.5,0.4-0.8,0.8-0.8,1.4c0,0.3,0.1,0.5,0.2,0.8c0.1,0.2,0.3,0.4,0.5,0.6c0.2,0.2,0.4,0.3,0.7,0.4
		C102.4,165.5,102.7,165.5,103,165.5z"/>
	<path class="st5" d="M115.7,158.1c-0.8,0-1.6,0.2-2.2,0.6s-1.1,1-1.4,1.7v6.1h-1.7v-9.9h1.6v2.3c0.3-0.7,0.8-1.2,1.3-1.7
		c0.6-0.4,1.2-0.7,1.8-0.7c0.1,0,0.2,0,0.3,0s0.2,0,0.2,0V158.1z"/>
	<path class="st5" d="M122.7,166.1c-0.1,0.1-0.2,0.1-0.4,0.2s-0.4,0.1-0.6,0.2s-0.4,0.1-0.7,0.2c-0.2,0-0.5,0.1-0.8,0.1
		c-0.6,0-1.1-0.2-1.6-0.5c-0.4-0.3-0.7-0.9-0.7-1.6V158h-1.3v-1.3h1.3v-3.3h1.7v3.3h2.2v1.3h-2.2v6.2c0,0.4,0.1,0.6,0.4,0.8
		c0.2,0.2,0.5,0.2,0.8,0.2c0.3,0,0.6-0.1,0.9-0.2s0.5-0.2,0.6-0.3L122.7,166.1z"/>
	<path class="st5" d="M124.1,154.8v-2.1h1.7v2.1H124.1z M124.1,166.6v-9.9h1.7v9.9H124.1z"/>
	<path class="st5" d="M127.8,161.6c0-0.7,0.1-1.4,0.4-2c0.2-0.6,0.6-1.2,1-1.6c0.4-0.5,1-0.8,1.6-1.1s1.3-0.4,2.1-0.4
		c1,0,1.8,0.2,2.6,0.7c0.7,0.4,1.3,1,1.6,1.8l-1.6,0.5c-0.3-0.5-0.6-0.8-1.1-1.1c-0.5-0.3-1-0.4-1.5-0.4c-0.5,0-0.9,0.1-1.3,0.3
		s-0.8,0.4-1,0.8c-0.3,0.3-0.5,0.7-0.7,1.2c-0.2,0.4-0.3,0.9-0.3,1.5c0,0.5,0.1,1,0.3,1.5c0.2,0.5,0.4,0.9,0.7,1.2
		c0.3,0.3,0.6,0.6,1,0.8c0.4,0.2,0.8,0.3,1.3,0.3c0.3,0,0.6,0,0.9-0.1c0.3-0.1,0.5-0.2,0.8-0.3s0.4-0.3,0.6-0.5
		c0.2-0.2,0.3-0.4,0.4-0.6l1.6,0.5c-0.2,0.4-0.4,0.7-0.6,1s-0.6,0.6-1,0.8c-0.4,0.2-0.8,0.4-1.2,0.5c-0.5,0.1-0.9,0.2-1.4,0.2
		c-0.7,0-1.4-0.1-2.1-0.4c-0.6-0.3-1.2-0.7-1.6-1.1s-0.8-1-1-1.6C127.9,163,127.8,162.3,127.8,161.6z"/>
	<path class="st5" d="M138.8,154.8v-2.1h1.7v2.1H138.8z M138.8,166.6v-9.9h1.7v9.9H138.8z"/>
	<path class="st5" d="M148.3,166.8c-0.8,0-1.5-0.2-2.2-0.6s-1.1-0.9-1.5-1.5v6H143v-14h1.5v1.9c0.4-0.6,0.9-1.1,1.5-1.5
		s1.3-0.6,2.1-0.6c0.7,0,1.3,0.1,1.9,0.4s1.1,0.7,1.5,1.1c0.4,0.5,0.7,1,1,1.6c0.2,0.6,0.4,1.3,0.4,1.9c0,0.7-0.1,1.4-0.3,2
		c-0.2,0.6-0.5,1.2-0.9,1.6c-0.4,0.5-0.9,0.8-1.4,1.1S149,166.8,148.3,166.8z M147.8,165.4c0.5,0,0.9-0.1,1.3-0.3
		c0.4-0.2,0.7-0.5,1-0.8s0.5-0.7,0.7-1.2s0.2-0.9,0.2-1.4c0-0.5-0.1-1-0.3-1.4c-0.2-0.5-0.4-0.8-0.7-1.2c-0.3-0.3-0.7-0.6-1.1-0.8
		c-0.4-0.2-0.9-0.3-1.3-0.3c-0.3,0-0.6,0.1-0.9,0.2c-0.3,0.1-0.6,0.3-0.9,0.5s-0.5,0.4-0.7,0.7s-0.3,0.6-0.4,0.9v2.8
		c0.1,0.3,0.3,0.6,0.5,0.9c0.2,0.3,0.5,0.5,0.7,0.7s0.6,0.4,0.9,0.5C147.2,165.3,147.5,165.4,147.8,165.4z"/>
	<path class="st5" d="M157.3,166.8c-0.5,0-0.9-0.1-1.3-0.2s-0.8-0.4-1.1-0.7c-0.3-0.3-0.5-0.6-0.7-1c-0.2-0.4-0.3-0.8-0.3-1.2
		c0-0.5,0.1-0.9,0.3-1.2c0.2-0.4,0.5-0.7,0.9-1c0.4-0.3,0.8-0.5,1.3-0.6c0.5-0.2,1.1-0.2,1.7-0.2c0.5,0,1,0,1.5,0.1s0.9,0.2,1.3,0.4
		v-0.8c0-0.8-0.2-1.4-0.7-1.9c-0.5-0.5-1.1-0.7-1.9-0.7c-1,0-2.1,0.4-3.2,1.2l-0.6-1.1c1.3-0.9,2.6-1.3,3.9-1.3c1.3,0,2.3,0.3,3,1
		c0.7,0.7,1.1,1.7,1.1,2.9v4c0,0.4,0.2,0.6,0.5,0.6v1.4c-0.2,0-0.3,0-0.4,0.1c-0.1,0-0.2,0-0.4,0c-0.3,0-0.6-0.1-0.8-0.3
		c-0.2-0.2-0.3-0.4-0.4-0.7l0-0.7c-0.4,0.6-1,1-1.7,1.4S158.1,166.8,157.3,166.8z M157.8,165.5c0.6,0,1.1-0.1,1.7-0.3
		s0.9-0.5,1.2-0.9c0.2-0.2,0.4-0.5,0.4-0.7v-1.5c-0.8-0.3-1.7-0.5-2.5-0.5c-0.8,0-1.5,0.2-2,0.5s-0.8,0.8-0.8,1.4
		c0,0.3,0.1,0.5,0.2,0.8c0.1,0.2,0.3,0.4,0.5,0.6s0.4,0.3,0.7,0.4C157.2,165.5,157.5,165.5,157.8,165.5z"/>
	<path class="st5" d="M170.4,158.1c-0.8,0-1.6,0.2-2.2,0.6s-1.1,1-1.4,1.7v6.1h-1.7v-9.9h1.6v2.3c0.3-0.7,0.8-1.2,1.3-1.7
		c0.6-0.4,1.2-0.7,1.8-0.7c0.1,0,0.2,0,0.3,0c0.1,0,0.2,0,0.2,0V158.1z"/>
	<path class="st5" d="M181.3,166.8c-0.7,0-1.4-0.1-2.1-0.4c-0.6-0.3-1.2-0.6-1.6-1.1s-0.8-1-1-1.6s-0.4-1.3-0.4-2s0.1-1.4,0.4-2
		c0.2-0.6,0.6-1.2,1-1.6c0.4-0.5,1-0.8,1.6-1.1c0.6-0.3,1.3-0.4,2.1-0.4c0.7,0,1.4,0.1,2,0.4s1.1,0.6,1.6,1.1c0.4,0.5,0.8,1,1,1.6
		s0.4,1.3,0.4,1.9c0,0.1,0,0.3,0,0.4c0,0.1,0,0.2,0,0.3H178c0,0.5,0.2,0.9,0.3,1.3c0.2,0.4,0.4,0.8,0.7,1c0.3,0.3,0.6,0.5,1,0.7
		c0.4,0.2,0.8,0.2,1.2,0.2c0.3,0,0.6,0,0.9-0.1c0.3-0.1,0.6-0.2,0.8-0.3c0.3-0.1,0.5-0.3,0.7-0.5c0.2-0.2,0.3-0.4,0.4-0.7l1.4,0.4
		c-0.2,0.4-0.4,0.7-0.7,1c-0.3,0.3-0.6,0.6-1,0.8c-0.4,0.2-0.8,0.4-1.2,0.5S181.8,166.8,181.3,166.8z M184.7,161
		c0-0.5-0.2-0.9-0.4-1.3c-0.2-0.4-0.4-0.7-0.7-1c-0.3-0.3-0.6-0.5-1-0.7c-0.4-0.2-0.8-0.2-1.3-0.2s-0.9,0.1-1.3,0.2s-0.7,0.4-1,0.7
		s-0.5,0.6-0.7,1c-0.2,0.4-0.3,0.8-0.3,1.3H184.7z"/>
	<path class="st5" d="M196.7,166.6H195v-5.5c0-1.1-0.2-1.8-0.5-2.3s-0.8-0.7-1.5-0.7c-0.3,0-0.7,0.1-1,0.2c-0.3,0.1-0.7,0.3-1,0.5
		c-0.3,0.2-0.6,0.5-0.8,0.8c-0.2,0.3-0.4,0.7-0.5,1v6h-1.7v-9.9h1.5v2.1c0.4-0.7,1-1.3,1.7-1.7c0.7-0.4,1.5-0.6,2.4-0.6
		c0.6,0,1,0.1,1.4,0.3s0.7,0.5,0.9,0.9c0.2,0.4,0.4,0.8,0.5,1.3c0.1,0.5,0.1,1.1,0.1,1.7V166.6z"/>
	<path class="st5" d="M208.5,166.8c-0.7,0-1.4-0.1-2.1-0.4c-0.6-0.3-1.2-0.6-1.6-1.1s-0.8-1-1-1.6s-0.4-1.3-0.4-2s0.1-1.4,0.4-2
		c0.2-0.6,0.6-1.2,1-1.6c0.4-0.5,1-0.8,1.6-1.1c0.6-0.3,1.3-0.4,2.1-0.4c0.7,0,1.4,0.1,2,0.4s1.1,0.6,1.6,1.1c0.4,0.5,0.8,1,1,1.6
		s0.4,1.3,0.4,1.9c0,0.1,0,0.3,0,0.4c0,0.1,0,0.2,0,0.3h-8.2c0,0.5,0.2,0.9,0.3,1.3c0.2,0.4,0.4,0.8,0.7,1c0.3,0.3,0.6,0.5,1,0.7
		c0.4,0.2,0.8,0.2,1.2,0.2c0.3,0,0.6,0,0.9-0.1c0.3-0.1,0.6-0.2,0.8-0.3c0.3-0.1,0.5-0.3,0.7-0.5c0.2-0.2,0.3-0.4,0.4-0.7l1.4,0.4
		c-0.2,0.4-0.4,0.7-0.7,1c-0.3,0.3-0.6,0.6-1,0.8c-0.4,0.2-0.8,0.4-1.2,0.5S209,166.8,208.5,166.8z M211.9,161
		c0-0.5-0.2-0.9-0.4-1.3c-0.2-0.4-0.4-0.7-0.7-1c-0.3-0.3-0.6-0.5-1-0.7c-0.4-0.2-0.8-0.2-1.3-0.2s-0.9,0.1-1.3,0.2s-0.7,0.4-1,0.7
		s-0.5,0.6-0.7,1c-0.2,0.4-0.3,0.8-0.3,1.3H211.9z"/>
	<path class="st5" d="M223.9,166.6h-1.7v-5.5c0-1.1-0.2-1.8-0.5-2.3c-0.3-0.5-0.8-0.7-1.5-0.7c-0.3,0-0.7,0.1-1,0.2s-0.7,0.3-1,0.5
		c-0.3,0.2-0.6,0.5-0.8,0.8c-0.2,0.3-0.4,0.7-0.5,1v6h-1.7v-9.9h1.5v2.1c0.4-0.7,1-1.3,1.7-1.7s1.5-0.6,2.4-0.6c0.6,0,1,0.1,1.4,0.3
		s0.7,0.5,0.9,0.9c0.2,0.4,0.4,0.8,0.5,1.3c0.1,0.5,0.1,1.1,0.1,1.7V166.6z"/>
	<path class="st5" d="M225.7,161.6c0-0.7,0.1-1.4,0.4-2c0.2-0.6,0.6-1.2,1-1.6c0.4-0.5,1-0.8,1.6-1.1s1.3-0.4,2.1-0.4
		c1,0,1.8,0.2,2.6,0.7c0.7,0.4,1.3,1,1.6,1.8l-1.6,0.5c-0.3-0.5-0.6-0.8-1.1-1.1c-0.5-0.3-1-0.4-1.5-0.4c-0.5,0-0.9,0.1-1.3,0.3
		s-0.8,0.4-1,0.8c-0.3,0.3-0.5,0.7-0.7,1.2c-0.2,0.4-0.3,0.9-0.3,1.5c0,0.5,0.1,1,0.3,1.5c0.2,0.5,0.4,0.9,0.7,1.2
		c0.3,0.3,0.6,0.6,1,0.8c0.4,0.2,0.8,0.3,1.3,0.3c0.3,0,0.6,0,0.9-0.1c0.3-0.1,0.5-0.2,0.8-0.3s0.4-0.3,0.6-0.5
		c0.2-0.2,0.3-0.4,0.4-0.6l1.6,0.5c-0.2,0.4-0.4,0.7-0.6,1s-0.6,0.6-1,0.8c-0.4,0.2-0.8,0.4-1.2,0.5c-0.5,0.1-0.9,0.2-1.4,0.2
		c-0.7,0-1.4-0.1-2.1-0.4c-0.6-0.3-1.2-0.7-1.6-1.1s-0.8-1-1-1.6C225.9,163,225.7,162.3,225.7,161.6z"/>
	<path class="st5" d="M239.8,166.8c-1,0-1.8-0.3-2.4-1c-0.5-0.7-0.8-1.7-0.8-3.1v-5.9h1.7v5.6c0,2,0.7,3,2.1,3
		c0.7,0,1.3-0.2,1.9-0.7c0.6-0.4,1-1,1.3-1.8v-6.2h1.7v7.9c0,0.4,0.2,0.6,0.5,0.6v1.4c-0.2,0-0.3,0-0.4,0c-0.1,0-0.2,0-0.3,0
		c-0.3,0-0.6-0.1-0.8-0.3s-0.3-0.4-0.4-0.7l0-1.2c-0.4,0.7-1,1.3-1.7,1.7C241.4,166.6,240.6,166.8,239.8,166.8z"/>
	<path class="st5" d="M252.4,166.8c-0.7,0-1.4-0.1-2.1-0.4c-0.6-0.3-1.2-0.6-1.6-1.1s-0.8-1-1-1.6s-0.4-1.3-0.4-2s0.1-1.4,0.4-2
		c0.2-0.6,0.6-1.2,1-1.6c0.4-0.5,1-0.8,1.6-1.1c0.6-0.3,1.3-0.4,2.1-0.4c0.7,0,1.4,0.1,2,0.4s1.1,0.6,1.6,1.1c0.4,0.5,0.8,1,1,1.6
		s0.4,1.3,0.4,1.9c0,0.1,0,0.3,0,0.4c0,0.1,0,0.2,0,0.3h-8.2c0,0.5,0.2,0.9,0.3,1.3c0.2,0.4,0.4,0.8,0.7,1c0.3,0.3,0.6,0.5,1,0.7
		c0.4,0.2,0.8,0.2,1.2,0.2c0.3,0,0.6,0,0.9-0.1c0.3-0.1,0.6-0.2,0.8-0.3c0.3-0.1,0.5-0.3,0.7-0.5c0.2-0.2,0.3-0.4,0.4-0.7l1.4,0.4
		c-0.2,0.4-0.4,0.7-0.7,1c-0.3,0.3-0.6,0.6-1,0.8c-0.4,0.2-0.8,0.4-1.2,0.5S252.9,166.8,252.4,166.8z M255.8,161
		c0-0.5-0.2-0.9-0.4-1.3c-0.2-0.4-0.4-0.7-0.7-1c-0.3-0.3-0.6-0.5-1-0.7c-0.4-0.2-0.8-0.2-1.3-0.2s-0.9,0.1-1.3,0.2s-0.7,0.4-1,0.7
		s-0.5,0.6-0.7,1c-0.2,0.4-0.3,0.8-0.3,1.3H255.8z"/>
	<path class="st5" d="M267.8,166.6h-1.7v-5.5c0-1.1-0.2-1.8-0.5-2.3c-0.3-0.5-0.8-0.7-1.5-0.7c-0.3,0-0.7,0.1-1,0.2s-0.7,0.3-1,0.5
		c-0.3,0.2-0.6,0.5-0.8,0.8c-0.2,0.3-0.4,0.7-0.5,1v6h-1.7v-9.9h1.5v2.1c0.4-0.7,1-1.3,1.7-1.7s1.5-0.6,2.4-0.6c0.6,0,1,0.1,1.4,0.3
		s0.7,0.5,0.9,0.9c0.2,0.4,0.4,0.8,0.5,1.3c0.1,0.5,0.1,1.1,0.1,1.7V166.6z"/>
	<path class="st5" d="M275.2,166.1c-0.1,0.1-0.2,0.1-0.4,0.2c-0.2,0.1-0.4,0.1-0.6,0.2s-0.4,0.1-0.7,0.2c-0.2,0-0.5,0.1-0.8,0.1
		c-0.6,0-1.1-0.2-1.6-0.5c-0.4-0.3-0.7-0.9-0.7-1.6V158h-1.3v-1.3h1.3v-3.3h1.7v3.3h2.2v1.3h-2.2v6.2c0,0.4,0.1,0.6,0.4,0.8
		c0.2,0.2,0.5,0.2,0.8,0.2c0.3,0,0.6-0.1,0.9-0.2c0.3-0.1,0.5-0.2,0.6-0.3L275.2,166.1z"/>
	<path class="st5" d="M281.9,158.1c-0.8,0-1.6,0.2-2.2,0.6s-1.1,1-1.4,1.7v6.1h-1.7v-9.9h1.6v2.3c0.3-0.7,0.8-1.2,1.3-1.7
		c0.6-0.4,1.2-0.7,1.8-0.7c0.1,0,0.2,0,0.3,0c0.1,0,0.2,0,0.2,0V158.1z"/>
	<path class="st5" d="M287.5,166.8c-0.7,0-1.4-0.1-2-0.4c-0.6-0.3-1.1-0.7-1.6-1.1c-0.4-0.5-0.8-1-1-1.6c-0.2-0.6-0.4-1.3-0.4-2
		c0-0.7,0.1-1.4,0.4-2c0.2-0.6,0.6-1.2,1-1.6c0.4-0.5,1-0.8,1.6-1.1c0.6-0.3,1.3-0.4,2-0.4c0.7,0,1.4,0.1,2,0.4
		c0.6,0.3,1.1,0.7,1.6,1.1c0.4,0.5,0.8,1,1,1.6c0.2,0.6,0.4,1.3,0.4,2c0,0.7-0.1,1.3-0.4,2c-0.2,0.6-0.6,1.2-1,1.6s-1,0.8-1.6,1.1
		C288.9,166.7,288.2,166.8,287.5,166.8z M284.2,161.7c0,0.5,0.1,1,0.3,1.4s0.4,0.8,0.7,1.2c0.3,0.3,0.6,0.6,1,0.8
		c0.4,0.2,0.8,0.3,1.3,0.3s0.9-0.1,1.3-0.3c0.4-0.2,0.8-0.5,1.1-0.8c0.3-0.3,0.5-0.7,0.7-1.2c0.2-0.4,0.3-0.9,0.3-1.5
		c0-0.5-0.1-1-0.3-1.4c-0.2-0.4-0.4-0.8-0.7-1.2c-0.3-0.3-0.7-0.6-1.1-0.8c-0.4-0.2-0.8-0.3-1.3-0.3s-0.9,0.1-1.3,0.3
		c-0.4,0.2-0.7,0.5-1,0.8c-0.3,0.3-0.5,0.7-0.7,1.2C284.3,160.7,284.2,161.2,284.2,161.7z"/>
</g>
</svg>
