<?xml version="1.0" encoding="UTF-8" standalone="no"?>
<!-- Generator: Adobe Illustrator 16.0.0, SVG Export Plug-In . SVG Version: 6.00 Build 0)  -->

<svg
   xmlns:ns="&amp;ns_sfw;"
   xmlns:dc="http://purl.org/dc/elements/1.1/"
   xmlns:cc="http://creativecommons.org/ns#"
   xmlns:rdf="http://www.w3.org/1999/02/22-rdf-syntax-ns#"
   xmlns:svg="http://www.w3.org/2000/svg"
   xmlns="http://www.w3.org/2000/svg"
   xmlns:sodipodi="http://sodipodi.sourceforge.net/DTD/sodipodi-0.dtd"
   xmlns:inkscape="http://www.inkscape.org/namespaces/inkscape"
   version="1.1"
   id="Layer_1"
   x="0px"
   y="0px"
   width="792px"
   height="612px"
   viewBox="0 0 792 612"
   enable-background="new 0 0 792 612"
   xml:space="preserve"
   inkscape:version="0.48.4 r9939"
   sodipodi:docname="escudo__uchile_sintexto_negro.svg"><defs
     id="defs23" /><sodipodi:namedview
     pagecolor="#ffffff"
     bordercolor="#666666"
     borderopacity="1"
     objecttolerance="10"
     gridtolerance="10"
     guidetolerance="10"
     inkscape:pageopacity="0"
     inkscape:pageshadow="2"
     inkscape:window-width="1301"
     inkscape:window-height="744"
     id="namedview21"
     showgrid="false"
     inkscape:zoom="1.028519"
     inkscape:cx="464.34102"
     inkscape:cy="327.01089"
     inkscape:window-x="65"
     inkscape:window-y="24"
     inkscape:window-maximized="1"
     inkscape:current-layer="Layer_1" /><metadata
     id="metadata3"><ns:sfw><ns:slices /><ns:sliceSourceBounds
         width="701.344"
         height="558.318"
         x="44.385"
         y="-585.159"
         bottomLeftOrigin="true" /></ns:sfw><rdf:RDF><cc:Work
         rdf:about=""><dc:format>image/svg+xml</dc:format><dc:type
           rdf:resource="http://purl.org/dc/dcmitype/StillImage" /><dc:title></dc:title></cc:Work></rdf:RDF></metadata><path
     d="m 401.396,142.062 -2.795,-13.699 10.314,-9.441 -13.895,-1.574 -5.789,-12.727 -5.793,12.727 -13.893,1.574 10.314,9.441 -2.797,13.699 12.168,-6.895 12.166,6.895 z m 3.442,4.863 -15.605,-8.844 -15.607,8.844 3.586,-17.576 -13.23,-12.111 17.822,-2.018 7.43,-16.326 7.428,16.326 17.822,2.018 -13.23,12.111 3.584,17.576 z m 7.986,10.994 -23.766,-13.465 -23.766,13.465 5.461,-26.764 -20.15,-18.441 27.143,-3.076 11.313,-24.861 11.314,24.861 27.141,3.076 -20.15,18.441 5.46,26.764 z m -4.353,-6.059 -4.424,-21.664 16.313,-14.93 -21.969,-2.49 -9.158,-20.125 -9.158,20.125 -21.971,2.49 16.311,14.93 -4.422,21.664 19.24,-10.898 19.238,10.898 z m 29.898,7.27 c 1.625,1.221 -0.205,3.658 -1.832,2.438 L 422.68,151.162 c 0.617,-0.807 1.205,-1.635 1.768,-2.486 l 13.921,10.454 z m 43.627,-4.359 c 1.922,0.666 0.924,3.547 -0.998,2.881 l -52.021,-18.014 c 0.344,-0.951 0.656,-1.92 0.932,-2.904 l 52.087,18.037 z M 405.521,68.272 c 0.607,-1.941 3.518,-1.027 2.908,0.912 l -4.898,15.611 c -0.951,-0.352 -1.916,-0.672 -2.895,-0.959 l 4.885,-15.564 z m 30.221,19.481 c 1.633,-1.207 3.445,1.246 1.813,2.453 l -13.82,10.209 c -0.582,-0.834 -1.195,-1.646 -1.836,-2.434 l 13.843,-10.228 z m 11.647,-41.227 c 1.232,-1.613 3.656,0.232 2.424,1.85 l -33.484,43.922 c -0.773,-0.656 -1.572,-1.287 -2.393,-1.889 l 33.453,-43.883 z m -45.787,119.477 c 0.973,-0.311 1.93,-0.654 2.871,-1.029 l 5.182,15.521 c 0.643,1.928 -2.25,2.893 -2.893,0.965 l -5.16,-15.457 z m 46.572,-43.266 c 2.031,0 2.031,3.049 0,3.049 h -16.666 l 0.004,-0.721 c 0,-0.779 -0.02,-1.555 -0.061,-2.328 h 16.723 z m -35.069,37.578 c 0.836,-0.58 1.648,-1.189 2.436,-1.83 l 32.363,43.35 c 1.217,1.629 -1.227,3.453 -2.443,1.824 L 413.105,160.315 z M 481.336,91.3 c 1.924,-0.648 2.9,2.238 0.975,2.891 L 429.5,112.038 c -0.309,-0.973 -0.65,-1.93 -1.025,-2.871 L 481.336,91.3 z M 387.57,28.366 c 0,-2.033 3.049,-2.033 3.049,0 v 53.801 c -0.682,-0.033 -1.369,-0.051 -2.059,-0.051 -0.33,0 -0.66,0.004 -0.99,0.012 V 28.366 z m -47.82,130.764 13.922,-10.455 c 0.559,0.852 1.148,1.68 1.766,2.486 l -13.857,10.406 c -1.626,1.221 -3.458,-1.216 -1.831,-2.437 z m -43.629,-4.359 52.088,-18.037 c 0.277,0.984 0.588,1.953 0.932,2.904 l -52.021,18.014 c -1.923,0.665 -2.919,-2.215 -0.999,-2.881 z m 76.475,-86.499 4.885,15.564 c -0.98,0.287 -1.945,0.607 -2.895,0.959 l -4.898,-15.611 c -0.61,-1.939 2.3,-2.853 2.908,-0.912 z m -30.221,19.481 13.846,10.229 c -0.643,0.787 -1.254,1.6 -1.84,2.434 L 340.565,90.207 c -1.635,-1.208 0.175,-3.661 1.81,-2.454 z m -11.646,-41.227 33.453,43.883 c -0.822,0.602 -1.619,1.232 -2.395,1.889 l -33.48,-43.922 c -1.235,-1.617 1.191,-3.463 2.422,-1.85 z m 45.789,119.477 -5.162,15.457 c -0.645,1.928 -3.535,0.963 -2.893,-0.965 l 5.184,-15.521 c 0.939,0.375 1.898,0.718 2.871,1.029 z m -46.575,-43.266 h 16.725 c -0.043,0.773 -0.063,1.549 -0.063,2.328 l 0.006,0.721 h -16.668 c -2.031,0 -2.031,-3.049 0,-3.049 z m 35.069,37.578 -32.357,43.344 c -1.215,1.629 -3.656,-0.195 -2.441,-1.824 l 32.361,-43.35 c 0.788,0.641 1.603,1.25 2.437,1.83 z M 296.783,91.3 l 52.861,17.867 c -0.375,0.941 -0.719,1.898 -1.027,2.871 L 295.807,94.19 c -1.924,-0.652 -0.95,-3.539 0.976,-2.89 z m 90.715,76.703 c 0.354,0.01 0.707,0.016 1.063,0.016 0.666,0 1.328,-0.018 1.986,-0.047 v 38.477 h -3.049 v -38.446 z m -27.803,96.51 -9.311,28.398 h 9.311 v -28.398 z m -11.654,28.398 11.654,-34.158 v -3.965 h -21.229 c 0.412,4.32 0.777,8.557 1.031,12.26 1.037,15.172 0.521,45.268 0.4,51.465 h 8.016 c 1.354,0 1.744,1.252 0.631,2.02 l -8.805,6.076 c 0.047,2.289 0.238,10.67 0.67,15.445 1.371,0.709 2.217,1.137 2.195,3.025 -0.029,2.471 -2.285,3.361 -4.303,3.191 h -4.807 l -3.178,-0.002 c 0,0 -0.254,-0.004 -0.609,-0.063 -3.631,-0.592 -4.713,-5.098 -1.105,-6.125 0.295,-4.639 0.348,-13.186 0.355,-15.477 l -8.66,-6.076 c -1.104,-0.775 -0.713,-2.016 0.637,-2.016 h 7.566 c -0.133,-6.342 -0.725,-37.639 0.244,-51.412 0.26,-3.686 0.643,-7.996 1.078,-12.416 h -21.168 v 4.098 l 11.646,34.135 h 2.566 c 0,0 -0.748,2.09 -1.275,2.988 -3.053,5.197 -8.592,7.664 -14.602,7.664 -7.342,0 -12.131,-4.531 -14.879,-10.652 h 2.676 l 11.65,-34.143 v -4.09 h -6.697 c -2.025,0 -0.594,-4.4 -0.451,-5.115 0.721,-3.631 4.471,0.498 5.391,1.174 1.678,0.279 7.416,-0.561 8.93,-0.76 4.799,-0.629 10.121,-1.422 12.863,-1.617 0.479,-0.033 3.271,-0.285 4.094,-0.971 1.221,-11.506 2.502,-21.855 2.502,-21.855 0.186,-1.498 2.018,-1.494 2.201,0.002 0,0 1.268,10.359 2.471,21.98 0.857,0.666 3.594,0.914 4.066,0.947 6.42,0.455 12.764,1.832 19.184,2.332 0.82,0.063 1.785,0.182 2.609,0.045 1.035,-0.76 2.34,-2.414 3.635,-2.57 2.221,-0.264 2.197,3.83 2.402,5.244 0.102,0.701 -0.387,1.268 -1.098,1.268 h -6.629 v 3.959 l 11.658,34.164 h 2.695 c 0,0 -0.967,2.15 -1.523,3.023 -2.943,4.613 -7.68,7.627 -13.355,7.627 -7.77,0 -13.379,-3.67 -15.877,-10.65 h 2.534 z m 23.186,0 -9.314,-28.408 v 28.408 h 9.314 z m -74.096,0.006 h 9.309 V 264.53 l -9.309,28.387 z m 11.525,0 h 9.303 l -9.303,-28.377 v 28.377 z m 10.811,2.217 H 295.76 c 2.551,3.762 6.484,6.217 11.232,6.217 5.069,0 9.748,-1.924 12.475,-6.217 z m 47.494,-44.27 c -1.006,0.811 -2.129,1.355 -2.605,1.707 h 2.895 c -0.083,-0.511 -0.185,-1.119 -0.29,-1.707 z m -8.734,1.707 c -4.973,-0.623 -11.584,-1.537 -16.576,-1.889 -1.602,-0.113 -2.779,-0.346 -3.648,-0.629 l 0.25,2.518 h 19.974 z m -22.075,1.301 c -0.328,-3.574 -0.805,-13.748 -0.873,-14.904 -0.068,-1.152 -0.215,-1.879 -0.215,-1.879 l 0.223,81.424 2.395,-0.002 c 0.119,-6.076 0.641,-36.162 -0.396,-51.311 -0.274,-4.008 -0.681,-8.64 -1.134,-13.328 z m -34.83,-3.111 c -0.107,0.59 -0.207,1.195 -0.289,1.707 h 2.895 c -0.477,-0.352 -1.6,-0.895 -2.606,-1.707 z m 8.733,1.707 h 19.988 l 0.258,-2.527 c -0.879,0.289 -2.064,0.523 -3.67,0.639 -4.992,0.351 -11.602,1.265 -16.576,1.888 z m 20.789,89.287 h 7.314 c -0.371,-4.49 -0.557,-11.588 -0.621,-14.447 h -6.363 c -0.018,2.902 -0.08,10.086 -0.33,14.447 z m 8.508,2.217 h -9.568 c -0.33,0.148 -0.701,0.254 -1.066,0.477 -0.363,1.141 0.75,1.563 1.652,1.605 h 3.129 4.857 l 0.123,0.01 c 0,0 0.137,0.012 0.342,0.01 1.305,-0.027 2.258,-1.252 1.209,-1.77 -0.239,-0.121 -0.467,-0.221 -0.678,-0.332 z m -8.692,-18.881 h 7.375 l 6.32,-4.361 h -19.91 l 6.215,4.361 z m 2.41,-6.578 0.225,-81.381 c 0,0 -0.096,0.873 -0.232,2.25 -0.137,1.379 -0.898,14.361 -0.918,14.354 -0.479,4.805 -0.906,9.529 -1.188,13.521 -0.967,13.75 -0.369,45.045 -0.238,51.254 l 2.351,0.002 z m 15.842,-23.385 c 2.729,4.293 7.404,6.217 12.475,6.217 4.438,0 8.863,-2.498 11.289,-6.217 h -23.764 z m 66.783,-60.281 c 0.961,-0.051 3.02,0.605 2.645,1.922 -0.473,1.652 -4.316,0.551 -3.844,-1.102 0.098,-0.348 0.471,-0.781 1.199,-0.82 z m 53.963,97.049 c -0.154,1.268 -0.111,2.443 0.33,3.293 0.973,1.861 1.951,3.713 2.957,5.553 l 2.006,2.955 c 0,0 0.738,0.486 1.377,0.199 0.643,-0.289 0.555,-1.193 0.555,-1.193 l -7.225,-10.807 z m -2.806,-8.276 -0.004,0.168 c -0.029,1.801 -0.527,3.813 -0.779,5.301 -0.047,0.473 -0.1,1.02 -0.148,1.57 -0.139,2.529 0.037,4.758 1.336,7.188 1.424,2.66 2.844,3.613 3.734,3.965 l -0.365,-0.684 c -1.299,-2.152 -2.584,-4.189 -3.063,-6.484 -0.207,-0.785 -0.258,-1.473 -0.191,-2.244 0.01,-0.195 0.023,-0.395 0.043,-0.594 0.051,-0.473 0.125,-0.906 0.191,-1.307 0.129,-0.75 0.924,-3.604 1.045,-4.043 0.092,-0.398 0.184,-0.82 0.277,-1.27 1.205,-5.689 -0.568,-7.848 -6.287,-7.994 l 1.533,2.344 c 2.099,0.436 2.68,2.119 2.678,4.084 z m -49.598,-61.629 c 1.629,0.77 4.484,5.387 5.471,6.863 l 2.064,-5.434 c -1.143,-1.797 -4.729,-7.975 -7.086,-8.682 -0.17,0.016 -0.344,0.123 -0.379,0.141 -0.213,0.236 -0.357,0.557 -0.545,0.818 -0.619,0.859 -3.783,4.354 -3.107,5.756 0.641,1.341 1.973,-0.224 3.582,0.538 z m 15.836,25.49 c -5.342,-0.387 -7.381,-5.186 -5.924,-10.088 l 1.242,-3.527 c 0.572,-1.633 1.232,-3.27 1.912,-4.912 l 0.258,-0.662 c 2.236,-5.352 4.543,-10.816 4.375,-16.631 -0.184,-6.408 -3.76,-12.625 -14.402,-16.205 -1.891,-0.635 -9.832,-2.279 -11.777,-0.211 0.482,1 5.086,3.824 6.305,4.676 1.719,1.203 3.777,1.367 5.828,1.387 0,0 0.719,0.229 1.549,0.633 12.271,5.973 5.725,18.355 2.469,27.563 0,0 -2.604,6.992 -3.189,8.766 -3.188,9.639 2.479,13.941 11.502,14.264 1.379,0.051 2.494,0.053 3.338,0.041 l -2.746,-4.043 -0.74,-1.051 z m 20.996,30.11 c -2.443,-0.309 -3.789,-2.436 -3.533,-4.863 0.574,-5.465 4.229,-9.961 4.932,-15.408 0.449,-3.48 -0.439,-7.77 -7.492,-9.129 -1.518,-0.234 -3.037,-0.377 -4.574,-0.422 l 3.23,4.895 c 6.107,1.508 5.25,6.854 3.309,11.393 -2.33,4.969 -8.588,16.205 2.25,16.672 1.289,-0.068 2.582,-0.162 3.857,-0.371 l -1.979,-2.767 z m -6.613,-13.445 0.453,-0.979 c 0.41,-0.961 0.781,-1.939 1.02,-2.883 l -7.463,-11.359 -2.283,-3.434 -8.113,-12.389 -0.516,1.346 -0.344,0.92 -0.951,2.707 -0.029,0.111 4.961,7.066 2.273,3.238 10.992,15.656 z m 10.004,18.189 c -0.684,0.137 -1.375,0.266 -1.857,0.328 -1.328,0.178 -3.402,0.281 -3.402,0.281 -8.854,-0.352 -8.611,-7.021 -8.262,-9.563 0.211,-1.527 1.381,-4.43 2.473,-6.918 l -8.273,-11.773 c -1.389,0.07 -3.201,0.121 -4.998,0.059 -3.568,-0.129 -8.625,-0.684 -12.148,-4.598 -4.416,-4.898 -1.51,-12.836 0.777,-18.689 -1.309,-1.967 -3.154,-4.717 -4.113,-5.996 -0.809,-1.082 -1.18,-1.385 -1.367,-1.471 -0.529,-0.254 -3.17,1.467 -4.633,-1.58 -1.428,-2.973 2.211,-6.242 3.582,-8.434 2.895,-4.639 7.994,2.625 10.549,6.762 2.271,-6.846 3.174,-14.086 -5.273,-17.225 -6.328,-0.18 -5.926,-1.918 -10.436,-4.293 -1.906,-1.006 -2.996,-2.025 -3.422,-2.973 -0.25,-0.078 -0.477,-0.168 -0.637,-0.219 -1.807,-0.594 -3.014,-1.313 -4.453,-2.523 -0.412,-0.346 -0.371,-0.648 -0.168,-0.967 0.234,-0.363 0.693,-0.703 1.189,-0.342 1.951,1.41 2.316,1.609 4.576,1.607 1.93,-1.906 7.578,-2.637 14.076,-0.453 15.164,5.098 18.455,15.434 14.041,28.908 -0.922,2.813 -2.111,5.533 -3.234,8.277 l 9.879,14.984 c 1.125,0.021 2.311,0.047 2.939,0.082 1.451,0.08 3.51,0.402 3.51,0.402 10.695,2.063 10.59,10.07 7.574,17.691 -0.176,0.445 -0.51,1.141 -0.896,1.979 l 6.125,9.326 c 0.6,-0.023 1.182,-0.035 1.594,-0.027 7.104,0.18 9.785,3.688 8.311,10.668 -0.184,0.859 -0.512,1.98 -0.816,3.176 l 8.412,12.646 c 1.555,1.992 -1.287,6.619 -5.256,3.773 l -0.766,-1.092 c -2.637,1.082 -6.355,-3.361 -7.371,-5.26 -1.469,-2.748 -1.703,-5.1 -1.605,-7.852 l -6.221,-8.701 z m -2.079,-6.965 0.461,0.66 8.16,11.578 0.105,-0.613 c 0.096,-0.65 0.186,-1.252 0.236,-1.523 l 0.094,-0.521 c 0.031,-0.205 0.055,-0.369 0.064,-0.467 l 0.037,-0.32 -10.549,-16.063 -0.057,0.125 c -0.441,1.102 -0.84,2.25 -1.051,3.295 l -0.047,0.248 2.547,3.601 z m -10.855,100.438 c 5.785,-1.504 8.34,2.219 13.629,2.516 1.475,0.082 1.352,2.295 -0.125,2.213 -5.221,-0.293 -8.281,-3.795 -12.943,-2.58 -1.432,0.368 -1.991,-1.776 -0.561,-2.149 z m 0.084,-8.256 c 6.197,-1.447 8.166,2.334 13.557,2.623 1.477,0.076 1.359,2.291 -0.117,2.211 -5.184,-0.275 -7.959,-3.836 -12.936,-2.676 -1.44,0.336 -1.943,-1.824 -0.504,-2.158 z m -0.037,16.416 c 6.057,-1.684 8.297,2.393 13.502,2.504 1.479,0.033 1.43,2.25 -0.049,2.219 -4.922,-0.109 -8.166,-3.891 -12.863,-2.588 -1.422,0.396 -2.016,-1.741 -0.59,-2.135 z m -7.356,2.135 c -4.691,-1.303 -7.938,2.479 -12.861,2.588 -1.477,0.031 -1.523,-2.186 -0.047,-2.219 5.203,-0.111 7.447,-4.188 13.504,-2.504 1.426,0.394 0.83,2.531 -0.596,2.135 z m 0.08,-8.147 c -3.807,-0.992 -5.545,0.674 -8.799,1.775 -1.168,0.396 -2.508,0.713 -4.145,0.805 -1.475,0.082 -1.602,-2.131 -0.125,-2.213 5.289,-0.297 7.844,-4.02 13.627,-2.516 1.433,0.374 0.872,2.518 -0.558,2.149 z m -0.027,-8.246 c -4.977,-1.16 -7.748,2.4 -12.936,2.676 -1.475,0.08 -1.594,-2.135 -0.117,-2.211 5.391,-0.289 7.361,-4.07 13.557,-2.623 1.441,0.334 0.936,2.494 -0.504,2.158 z m 17.842,41.334 -44.393,-9.713 v 5.6 l 44.393,11.643 v -7.53 z M 442.256,401.69 v 32.252 c 2.863,-0.861 5.92,-1.361 8.883,-1.361 3.205,0 6.443,0.576 9.529,1.41 v -28.668 c -6.281,0.664 -9.359,-4.832 -13.744,-4.832 -1.666,0 -3.221,0.463 -4.668,1.199 z m -2.217,32.172 v -32.188 c -0.309,-0.164 -0.639,-0.328 -0.943,-0.449 -0.932,-0.371 -2.203,-0.734 -3.611,-0.734 -4.381,0 -7.826,5.52 -13.779,4.848 l -0.018,28.393 c 2.699,-1.006 5.703,-1.311 8.555,-1.311 3.093,0 6.708,0.42 9.796,1.441 z m -0.121,-34.695 c 0.51,0.203 0.926,0.406 1.236,0.57 1.277,-0.656 2.674,-1.127 4.104,-1.338 0.303,-0.064 0.607,-0.102 0.916,-0.102 0.291,-0.715 0.361,-1.563 0.057,-2.52 -1.102,2.199 -4.191,0.689 -2.586,-2.043 0.945,-1.607 1.762,-2.549 1.59,-4.643 -0.168,-2.051 -1.914,-3.496 -3.584,-4.4 0,0 0.688,1.52 0.83,2.459 0.828,5.473 -5.447,4.299 -4.227,1.219 -1.328,1.262 -3.123,3.004 -3.123,6.553 0,1.266 0.365,2.426 1.012,3.381 l 0.385,0.029 c 1.339,0.128 2.507,0.483 3.39,0.835 z m 33.1,41.307 c 0.109,-0.867 0.238,-2.018 0.217,-2.498 -0.023,-0.623 -0.037,-1.262 -0.123,-1.885 l -15.764,14.645 v 6.563 c 4.375,-4.49 14.861,-15.258 15.203,-15.676 0.271,-0.332 0.445,-1.105 0.455,-1.148 h 0.012 z m -11.362,34.138 c 5.283,-6.758 18.971,-24.271 19.281,-24.734 0.664,-1.002 0.764,-4.006 0.482,-5.893 l -19.764,22.986 v 7.641 z m -58.818,-23.09 v 4.781 1.465 l 56.602,18.643 v -9.01 l -56.602,-15.879 z m 1.115,-4.019 -2.428,1.34 0.359,0.109 58.283,16.352 19.424,-22.592 c -1.43,-0.248 -3.314,-0.568 -4.723,-0.809 -1.213,2.426 -9.033,9.854 -9.424,10.254 -4.23,4.35 -8.854,9.092 -8.854,9.092 l -47.252,-12.395 -5.385,-1.351 z m 10.74,-11.895 -5.209,3.18 46.51,10.178 11.283,-10.482 c -1.426,-0.25 -10.539,-1.846 -14.816,-2.129 -4.098,-0.275 -9.844,0.119 -11.072,0.207 l -0.197,0.074 -0.098,-0.029 -0.234,-0.047 c -1.32,-0.086 -6.859,-0.424 -10.814,-0.205 -4.535,0.25 -15.352,2.16 -15.352,2.16 v -2.907 z m 56.157,-0.443 -3.385,-0.355 v 3.502 l 3.385,-3.147 z m -7.965,0.139 c 0.793,0.143 1.576,0.283 2.352,0.42 v -3.377 l 0.012,-23.572 h -2.363 v 26.529 z m -45.975,-3.649 0.105,-0.064 -0.02,4.168 c 0.645,-0.107 1.494,-0.248 2.477,-0.4 v -26.584 h -2.563 v 22.88 z m -13.326,8.139 11.109,-6.785 v -26.451 h 4.779 v -4.164 c 0,0 1.867,0.674 2.48,0.742 4.438,0.5 7.656,-3.625 11.762,-4.639 -0.525,-1.088 -0.813,-2.32 -0.813,-3.637 0,-4.236 2.082,-6.943 5.045,-9.516 0.947,-0.693 1.561,-0.914 1.555,-0.934 0.029,-0.014 0.063,-0.041 0.063,-0.039 -0.012,-0.018 -0.023,-0.031 -0.037,-0.047 -0.633,-0.809 -1.34,-1.564 -1.762,-2.486 -0.113,-0.238 -0.568,-1.92 -0.568,-1.92 0,0 1.98,0.729 2.75,1.078 4.91,2.236 9.545,5.908 6.459,11.641 1.887,1.221 2.586,3.6 2.023,5.799 4.223,0.891 7.313,5.18 11.959,4.688 0.639,-0.068 2.496,-0.703 2.496,-0.703 v 4.137 h 4.58 v 26.023 l 5.297,0.557 c 2.039,0.213 2.359,0.994 2.568,2.912 0.137,1.244 0.146,2.439 0.018,3.684 1.926,0.328 5.92,1.008 6.668,1.158 2.719,0.543 1.668,8.859 0.766,10.213 -0.387,0.582 -21.912,28.111 -21.912,28.111 l -64.705,-21.311 4.457,-2.82 v -4.195 l -4.785,-1.438 12.68,-6.998 v -1.568 l -4.932,-1.092 z M 390.459,327.03 c 1.982,-0.031 2.02,2.279 0.039,2.311 -1.98,0.029 -2.021,-2.281 -0.039,-2.311 z m -1.617,30.449 c 1.611,0 2.92,1.303 2.92,2.916 0,1.611 -1.311,2.916 -2.92,2.916 -1.611,0 -2.92,-1.305 -2.92,-2.916 0,-1.613 1.308,-2.916 2.92,-2.916 z m -65.582,67.17 -11.512,-30.361 c 0.729,-0.168 1.436,-0.396 2.115,-0.676 l 11.469,30.25 c 0.525,1.383 -1.549,2.168 -2.072,0.787 z m -18.625,25.565 c 0.043,1.641 2.324,2.441 3.297,3.686 0.268,0.342 1.357,2.063 1.801,2.063 h 49.852 l 0.014,13.574 c 0.557,0.902 3.91,1.314 4.555,3.389 0.379,1.227 1.715,2.061 2.814,2.564 v -25.318 l -62.333,0.042 z m 13.746,-2.227 -0.6,-2.877 -2.43,-3.064 -3.186,-8.475 -3.744,9.178 -2.369,2.291 -0.701,2.957 13.03,-0.01 z m -11.201,-8.064 5.072,-12.428 4.467,11.887 -2.898,-14.883 c -0.287,-1.643 -0.885,-1.996 -1.512,-1.941 -1.033,0.1 -1.344,0.732 -1.701,2.307 l -3.428,15.058 z m 55.369,-24.662 c 8.047,7.246 8.697,19.645 1.451,27.693 -2.027,2.252 -4.459,3.924 -7.086,5.006 l 12.27,-0.01 v 30.551 c 0,0 -1.682,-0.428 -2.139,-0.59 -5.137,-1.834 -3.408,-3.779 -6.123,-5.1 -1.408,-0.686 -3.553,-1.383 -3.553,-3.305 v -11.328 h -47.637 c -2.414,0 -2.713,-2.645 -4.107,-3.48 -2.611,-1.568 -4.09,-3.824 -2.613,-6.457 l 5.436,-23.863 c 0.326,-1.445 0.906,-3.768 3.654,-4.025 2.49,-0.234 3.568,1.85 3.9,3.756 l 4.65,23.879 21.313,-0.016 c -2.021,-0.832 -3.939,-2.02 -5.658,-3.566 -8.047,-7.248 -8.697,-19.646 -1.451,-27.695 7.246,-8.048 19.644,-8.698 27.693,-1.45 z m -11.36,27.74 c -3.453,1.82 -6.746,2.416 -9.225,2.545 3.807,1.813 8.115,2.146 12.092,1.055 -0.484,-0.652 -1.309,-1.73 -2.402,-3.047 l -0.465,-0.553 z m 11.073,-11.387 c -0.861,1.588 -1.979,3.266 -3.416,5.018 -1.832,2.23 -3.76,3.92 -5.678,5.191 1.08,1.299 2.109,2.637 3.08,4.014 2.26,-0.961 4.352,-2.422 6.104,-4.367 1.969,-2.186 3.281,-4.734 3.947,-7.4 -0.643,-0.361 -2.051,-1.17 -3.867,-2.342 l -0.17,-0.114 z m 2.646,-9.718 c 0.021,2.066 -0.359,4.703 -1.689,7.76 1.143,0.74 2.309,1.445 3.494,2.111 0.373,-3.366 -0.236,-6.811 -1.805,-9.871 z m -16.554,-5.309 c 2.662,-1.408 5.576,-2.396 8.502,-2.486 -3.615,-1.709 -7.676,-2.092 -11.475,-1.184 0.494,0.65 1.203,1.561 2.092,2.629 0.289,0.35 0.584,0.695 0.881,1.041 z m -11.379,10.969 c 1.434,-2.764 3.459,-5.264 6.029,-7.373 1.029,-0.844 2.156,-1.672 3.354,-2.434 -1.133,-1.334 -2.213,-2.715 -3.23,-4.135 -2.459,0.955 -4.738,2.484 -6.623,4.58 -1.816,2.016 -3.072,4.338 -3.781,6.781 0.588,0.324 2.051,1.16 3.971,2.398 l 0.28,0.183 z m -2.514,11.144 c -0.094,-3.197 0.455,-6.291 1.6,-9.152 -1.25,-0.818 -2.527,-1.592 -3.832,-2.318 -0.588,3.921 0.167,7.99 2.232,11.47 z m 10.453,-2.24 -6.156,6.775 c 0.277,0.035 0.635,0.072 1.063,0.096 3.512,0.199 6.852,-0.555 9.855,-2.061 -1.508,-1.669 -3.098,-3.281 -4.762,-4.81 z m 9.615,-10.58 -8.115,8.932 c 1.854,1.674 3.621,3.445 5.281,5.307 2.018,-1.303 3.85,-2.959 5.436,-4.893 1.041,-1.268 2.203,-2.98 3.203,-4.902 -1.998,-1.386 -3.939,-2.868 -5.805,-4.444 z m 7.399,-8.143 -5.912,6.508 c 1.684,1.447 3.438,2.816 5.254,4.09 1.467,-3.477 2.174,-7.33 0.684,-10.359 l 0.135,-0.07 -0.161,-0.169 z m -7.571,5.037 5.578,-6.141 c -3.348,-0.852 -6.893,0.068 -10.061,1.662 1.427,1.554 2.921,3.05 4.483,4.479 z m -9.611,10.575 8.111,-8.928 c -1.754,-1.576 -3.432,-3.24 -5.018,-4.984 -1.244,0.771 -2.402,1.617 -3.43,2.459 -2.24,1.84 -4.154,4.252 -5.525,6.947 2.02,1.4 3.979,2.906 5.862,4.506 z m -7.805,8.589 0.102,-0.045 6.217,-6.908 c -1.691,-1.463 -3.453,-2.846 -5.277,-4.135 -1.375,3.52 -1.828,7.371 -0.953,10.99 l -0.104,0.084 0.015,0.014 z m -24.73,-65.882 7,0.725 -5.656,4.973 1.801,7.088 -6.502,-3.496 -6.279,3.504 1.287,-7.025 -5.252,-5.193 6.877,-0.576 3.357,-6.459 3.367,6.459 z m -1.416,2.084 -1.947,-3.742 -1.957,3.764 -3.301,0.275 2.664,2.635 -0.65,3.549 3.229,-1.803 3.133,1.684 -0.893,-3.516 2.867,-2.521 -3.145,-0.325 z m 9.285,10.464 14.199,11.348 c 1.154,0.922 -0.229,2.654 -1.383,1.732 l -14.215,-11.361 c 0.51,-0.535 0.979,-1.109 1.399,-1.719 z m 2.166,20.956 -7.955,-16.129 c 0.68,-0.305 1.33,-0.662 1.945,-1.068 l 7.998,16.219 c 0.655,1.325 -1.334,2.304 -1.988,0.978 z m 10.086,1.707 -15.732,-19.15 c 0.607,-0.428 1.178,-0.9 1.707,-1.416 l 15.736,19.158 c 0.939,1.14 -0.773,2.548 -1.711,1.408 z m 16.016,-5.721 -27.939,-17.441 c 0.395,-0.625 0.738,-1.283 1.031,-1.969 l 28.082,17.527 c 1.253,0.783 0.08,2.664 -1.174,1.883 z m 34.24,-71.928 c -1.307,0.322 -2.553,0.717 -3.734,1.176 -9.359,3.803 -15.643,13.248 -15.643,25.197 0,4.223 1.113,8.096 2.977,11.477 l 22.119,-36.695 c -0.896,-0.043 -1.791,-0.25 -2.695,-0.746 -0.385,-0.211 -0.695,-0.484 -0.979,-0.785 -0.692,0.097 -1.375,0.224 -2.045,0.376 z m 1.076,-7.59 0.029,-103.457 H 289.6 V 352.46 h 65.932 c 2.408,-14.156 12.094,-22.18 26.676,-25.791 0.481,-0.232 0.968,-0.443 1.456,-0.641 z m 38.815,26.432 h 65.967 V 222.571 h -94.002 v 102.045 c 2.729,0.322 5.479,1.143 8.203,2.439 9.539,4.538 17.648,13.337 19.832,25.405 z m -109.916,141.219 0.094,-0.002 h 58.564 c 4.293,0 7.977,0.389 11.988,2.01 l 0.484,0.201 V 393.212 C 367.607,390.819 356.605,377.894 355.115,363.21 H 289.6 v 103.051 l -0.004,6.428 c 0,15.568 7.004,20.99 16.781,20.99 h 6.186 z m 178.246,-27.082 -0.002,6.092 c 0,16.625 -7.826,23.346 -19.137,23.346 h -2.893 -8.063 -54.301 c -5.877,0 -9.281,0.582 -14.328,3.383 V 393.493 c -0.975,0.076 -1.965,0.115 -2.971,0.115 -1.037,0 -2.061,-0.043 -3.064,-0.125 l 0.002,105.879 c 0,0 -1.953,-1.039 -2.967,-1.449 -3.791,-1.531 -7.809,-1.879 -11.865,-1.879 h -58.564 c -0.787,0 -1.574,0.006 -2.359,0 h -3.92 c -11.309,0 -19.137,-6.721 -19.137,-23.346 v -6.377 -105.458 h 67.721 c -0.012,-0.352 -0.018,-0.703 -0.018,-1.057 0,-1.732 0.088,-3.393 0.26,-4.979 H 287.24 V 220.21 h 98.813 l -0.002,105.02 c 1.984,-0.543 4,-0.797 6.035,-0.771 V 220.21 h 98.723 v 134.607 h -67.982 c 0.15,1.357 0.229,2.754 0.229,4.186 0,0.625 -0.014,1.246 -0.043,1.863 h 67.797 v 105.731 z m -21.536,27.082 h 2.396 c 9.777,0 16.781,-5.422 16.781,-20.99 v -5.771 l -0.002,-0.314 -0.004,-103.377 H 422.82 c -1.701,15.123 -12.482,27.695 -28.377,30.004 v 102.664 c 4.119,-1.811 7.969,-2.217 12.426,-2.217 h 61.908 l 0.496,10e-4 z m -91.871,-136.52 c 3.586,-1.857 7.605,-2.936 11.648,-2.936 4,0 8.004,1.074 11.578,2.9 l -11.604,-19.25 -11.622,19.286 z m 26.59,5.545 -3.961,1.945 c -2.959,2.619 -7.25,4.277 -11.172,4.277 -3.74,0 -7.834,-1.463 -10.553,-4.107 l -4.246,-2.117 -5.305,8.801 h 40.539 l -5.302,-8.799 z m 7.924,8.85 c 1.732,-3.422 2.76,-7.496 2.76,-12.242 0,-11.514 -6.152,-20.449 -16.168,-24.551 -3.352,-1.367 -6.127,-0.295 -8.789,-0.031 l 22.197,36.824 z m -44.326,2.166 c 4.996,7.172 13.475,11.611 21.188,11.611 7.852,0 16.84,-3.783 21.898,-11.611 H 367.59 z m 18.463,-46.248 0.654,0.672 0.152,0.16 0.178,0.191 c 0.463,0.492 0.955,1 1.188,1.57 0.076,0.129 0.15,0.26 0.221,0.393 0,0 -0.076,0.623 -0.236,0.98 -0.098,0.217 -0.217,0.42 -0.355,0.609 -0.092,0.127 -0.193,0.248 -0.301,0.365 1.994,0.436 5.063,-0.412 6.623,-0.625 3.338,-0.455 6.977,1.717 9.783,3.254 2.963,1.623 12.936,9.094 12.936,24.27 0,19.168 -15.537,28.236 -28.117,28.236 -12.902,0 -27.783,-11.33 -27.783,-27.557 0,-13.787 6.314,-21.146 12.707,-25.004 5.389,-3.254 10.768,-3.98 12.27,-4.129 L 386,330.705 c -0.615,-0.781 -1.324,-1.482 -2.027,-2.188 l -1.74,0.336 c -16.879,3.254 -25.07,15.762 -25.07,30.941 0,16.525 12.939,31.596 31.955,31.596 18.992,0 31.723,-14.855 31.723,-32.389 0,-14.459 -8.605,-24.934 -19.143,-29.945 -4.823,-2.291 -10.491,-3.084 -15.645,-1.584 z m -3.903,37.451 c -0.797,-1.256 -1.258,-2.744 -1.258,-4.342 0,-0.961 0.168,-1.885 0.477,-2.742 -2.014,0.73 -3.932,1.725 -5.674,2.922 l -0.232,0.162 4.168,2.08 c 0,0 0.338,0.355 0.711,0.664 0.564,0.471 1.172,0.891 1.808,1.256 z m 14.553,-7.094 c 0.309,0.859 0.477,1.785 0.477,2.752 0,1.531 -0.426,2.967 -1.164,4.189 1.02,-0.561 1.957,-1.225 2.752,-1.973 l 3.881,-1.881 -0.178,-0.123 c -1.77,-1.216 -3.723,-2.224 -5.768,-2.964 z m -12.414,-0.791 c -0.74,0.988 -1.18,2.213 -1.18,3.543 0,3.262 2.652,5.91 5.928,5.91 3.273,0 5.926,-2.648 5.926,-5.91 0,-1.348 -0.459,-2.551 -1.219,-3.545 -1.523,-0.354 -3.117,-0.541 -4.676,-0.541 -1.601,0 -3.216,0.184 -4.779,0.543 z m 4.957,156.691 c -0.557,-0.686 -5.508,-6.934 -16.516,-6.523 0,0 -69.789,0.041 -72.844,-0.01 -22.879,-1.154 -23.852,-27.291 -23.852,-32.568 l 0.033,-265.869 h 225.896 c 0,0 0.238,267.443 0.035,269.357 -1.762,28.715 -24.246,29.09 -24.246,29.09 h -71.316 c -13.28,0 -16.635,5.838 -17.19,6.523 z m -0.037,-4.824 c 3.928,-4.715 11.201,-5.871 16.904,-5.871 h 69.943 c 0,0 1.248,0.037 3.123,-0.314 12.775,-2.389 17.902,-14.063 18.656,-26.299 0.191,-1.813 -0.023,-246.455 -0.039,-263.207 H 280.24 l -0.033,259.857 c 0,13.865 4.08,29.078 21.434,29.953 2.994,0.051 39.33,0.027 62.502,0.014 l 8.887,-0.008 c 6.074,-0.224 12.159,1.504 16.179,5.875 z"
     id="path19"
     style="fill:#000000"
     inkscape:connector-curvature="0" /></svg>