<?xml version="1.0" encoding="utf-8"?>
<!-- Generator: Adobe Illustrator 19.1.0, SVG Export Plug-In . SVG Version: 6.00 Build 0)  -->
<svg version="1.1" id="Capa_1" xmlns="http://www.w3.org/2000/svg" xmlns:xlink="http://www.w3.org/1999/xlink" x="0px" y="0px"
	 viewBox="-255.4 236.3 200.5 140.8" style="enable-background:new -255.4 236.3 200.5 140.8;" xml:space="preserve">
<style type="text/css">
	.st0{fill:none;stroke:#999999;stroke-width:0.6506;stroke-linejoin:round;stroke-miterlimit:10;}
	.st1{fill:none;stroke:#999999;stroke-width:0.6506;stroke-linecap:round;stroke-linejoin:round;stroke-miterlimit:10;}
	.st2{fill:#FFFFFF;stroke:#999999;stroke-width:0.6506;stroke-linejoin:round;stroke-miterlimit:10;}
	.st3{fill:#FFFFFF;stroke:#999999;stroke-width:0.6506;stroke-linecap:round;stroke-linejoin:round;stroke-miterlimit:10;}
	.st4{fill:none;stroke:#999999;stroke-miterlimit:10;}
	.st5{fill:none;stroke:#999999;stroke-width:0.6506;stroke-miterlimit:10;}
	.st6{fill:none;stroke:#999999;stroke-width:0.5;stroke-miterlimit:10;}
	.st7{fill:#FFFFFF;stroke:#999999;stroke-width:0.6506;stroke-miterlimit:10;}
	.st8{fill:none;stroke:#999999;stroke-width:0.6506;stroke-linecap:round;stroke-linejoin:bevel;stroke-miterlimit:10;}
	.st9{fill:#FF4A0F;stroke:#999999;stroke-miterlimit:10;}
	.st10{fill:#FFFFFF;stroke:#999999;stroke-width:0.6506;stroke-linejoin:bevel;stroke-miterlimit:10;}
	.st11{fill:#999999;}
</style>
<g>
	<polygon class="st0" points="-198.5,355.4 -196.3,355.9 -202.2,363 -220,358 -216.9,356.1 	"/>
	<polygon class="st1" points="-196.3,355.9 -196.3,358.5 -202.2,366.3 -202.2,363 	"/>
	<polygon class="st1" points="-219.3,358.3 -219.3,360.7 -202.2,366.3 -202.2,363 	"/>
	<polygon class="st2" points="-203.5,358.3 -217.7,355.2 -212.8,352.1 -198.8,353.8 	"/>
	<polygon class="st3" points="-198.5,353.8 -198.5,355.9 -203.5,361 -203.5,358.3 	"/>
	<polygon class="st3" points="-216.9,355.4 -216.9,357.6 -203.5,361 -203.5,358.3 	"/>
	<path class="st2" d="M-209.5,343.7c0,0-0.3-0.9-0.3-1.7s1.1-2.2,1.1-2.2s-0.1,1.1,0.5,1.1c0.7,0,0.7-0.7,0.5-1.1
		c-0.3-0.4-1-1.4-1-1.4s2.5,0.5,2.5,2s-0.9,1.4-0.7,1.9s0.7-0.4,1-0.1s0,1.5,0,1.5l-1.9,0.6L-209.5,343.7z"/>
	<path class="st4" d="M-198.8,374.3c0,0-17.7,0-20.1,0s-4,2-4,2s-1.6-2-4-2c-1.9,0-20.1,0-20.1,0c-4.4,0-7.9-3.5-7.9-7.9v-76.9h63.9
		v76.8C-190.9,370.7-194.4,374.3-198.8,374.3z"/>
	<polygon class="st4" points="-222.8,254 -219.8,260.2 -212.9,261.2 -217.9,266 -216.7,272.8 -222.8,269.6 -228.9,272.8 -227.8,266 
		-232.7,261.2 -225.9,260.2 	"/>
	<polygon class="st5" points="-222.8,257.6 -220.8,261.6 -216.4,262.2 -219.6,265.4 -218.8,269.8 -222.8,267.7 -226.8,269.8 
		-226,265.4 -229.3,262.2 -224.8,261.6 	"/>
	<line class="st5" x1="-222.8" y1="276.9" x2="-222.8" y2="287.9"/>
	<line class="st5" x1="-222.8" y1="236.3" x2="-222.8" y2="252"/>
	<line class="st5" x1="-210.6" y1="264.2" x2="-205.5" y2="264.2"/>
	<line class="st5" x1="-240.2" y1="264.2" x2="-235.1" y2="264.2"/>
	<line class="st5" x1="-213" y1="256.9" x2="-208.9" y2="253.8"/>
	<line class="st5" x1="-236.8" y1="274.6" x2="-232.7" y2="271.5"/>
	<line class="st5" x1="-219" y1="252.6" x2="-217.3" y2="247.7"/>
	<line class="st5" x1="-228.4" y1="280.7" x2="-226.8" y2="275.8"/>
	<line class="st5" x1="-226.6" y1="252.5" x2="-228.2" y2="247.7"/>
	<line class="st5" x1="-217.5" y1="280.7" x2="-219.1" y2="275.8"/>
	<line class="st5" x1="-232.7" y1="256.8" x2="-236.8" y2="253.8"/>
	<line class="st5" x1="-209" y1="274.6" x2="-213.1" y2="271.6"/>
	<line class="st5" x1="-240.2" y1="241.9" x2="-230.5" y2="254.7"/>
	<line class="st5" x1="-215.5" y1="274.6" x2="-205.8" y2="287.4"/>
	<line class="st5" x1="-250" y1="255.4" x2="-234.8" y2="260.6"/>
	<line class="st5" x1="-211.2" y1="268.8" x2="-196" y2="274"/>
	<line class="st5" x1="-249.9" y1="274.1" x2="-234.8" y2="268.8"/>
	<line class="st5" x1="-211.2" y1="260.6" x2="-196.1" y2="255.2"/>
	<line class="st5" x1="-239.9" y1="287.7" x2="-230.4" y2="274.7"/>
	<line class="st5" x1="-215.6" y1="254.6" x2="-206.1" y2="241.7"/>
	<rect x="-251.9" y="292.1" class="st5" width="27.7" height="38.3"/>
	<rect x="-221.6" y="292.1" class="st5" width="27.7" height="38.3"/>
	<path class="st5" d="M-224.2,372.2c0,0-0.8-1-4-1c-2.4,0-18.8,0-18.8,0c-2.7,0-5-2.2-5-5v-33.3h27.7L-224.2,372.2L-224.2,372.2z"/>
	<path class="st5" d="M-198.9,371.2c0,0-15.6,0-18.8,0c-3.1,0-4,1-4,1v-39.3h27.7v33.3C-193.9,368.9-196.1,371.2-198.9,371.2z"/>
	<polygon class="st6" points="-246.2,335.3 -245.6,337.1 -243.7,337.1 -245.2,338.2 -244.6,340.1 -246.2,338.9 -247.7,340.1 
		-247.1,338.2 -248.6,337.1 -246.7,337.1 	"/>
	<line class="st6" x1="-244.8" y1="342.2" x2="-241.6" y2="350.9"/>
	<line class="st6" x1="-244.2" y1="341.9" x2="-241.8" y2="346.5"/>
	<line class="st6" x1="-243.5" y1="341.4" x2="-238.9" y2="347"/>
	<line class="st6" x1="-243" y1="340.8" x2="-238.7" y2="344.2"/>
	<line class="st6" x1="-242.5" y1="340.1" x2="-234.3" y2="345.2"/>
	<circle class="st6" cx="-234.3" cy="352.4" r="5.4"/>
	<path class="st6" d="M-235.9,347.2c0,0,1.4,2.1,2.8,3.5c1.4,1.4,4.1,2.7,4.1,2.7"/>
	<path class="st6" d="M-232.7,357.6c0,0-1.4-2.1-2.8-3.5c-1.4-1.4-4.1-2.7-4.1-2.7"/>
	<line class="st6" x1="-238.1" y1="356.5" x2="-230.6" y2="348.4"/>
	<path class="st6" d="M-238.3,356c0,0-0.5-3.4,1.8-5.7c2.3-2.3,5.6-2.2,5.6-2.2"/>
	<path class="st6" d="M-230.3,348.9c0,0,0.5,3.4-1.8,5.7s-5.6,2.2-5.6,2.2"/>
	<path class="st6" d="M-247.6,357.9l1.6-7.2c0.1-0.4,0.5-0.8,1-0.8l0,0c0.5,0,0.9,0.3,1,0.8l1.6,7.4"/>
	<polyline class="st6" points="-247.3,356.5 -246.5,355.5 -245.1,352.3 -244,355.4 -242.9,356.5 	"/>
	<path class="st6" d="M-247.6,358.1h18.7v8.2c-0.7,0-1.3-0.5-1.3-1.1c0-1.5-1.5-1.4-1.5-1.4c0-0.5,0-3.5,0-3.5h-13.9
		c0,0-0.1-0.8-1.2-0.8C-247.6,359.4-247.6,358.4-247.6,358.1z"/>
	<polygon class="st1" points="-242.8,320.5 -234.8,320.5 -237.4,322.5 -240,322.5 	"/>
	<path class="st5" d="M-237.2,328.6h-3.1c-0.4,0-0.7-0.3-0.7-0.7l0,0c0-0.4,0.3-0.7,0.7-0.7h3.1c0.4,0,0.7,0.3,0.7,0.7l0,0
		C-236.6,328.3-236.9,328.6-237.2,328.6z"/>
	<polygon class="st5" points="-240.3,327.3 -240,322.5 -237.4,322.5 -237.2,327.3 	"/>
	<path class="st5" d="M-226.9,313.2c-0.8,1.5-2.3,2.5-4.1,2.5c-1.8,0-3.3-1-4.1-2.4L-226.9,313.2z"/>
	<path class="st5" d="M-242.3,313.2c-0.8,1.5-2.3,2.5-4.1,2.5s-3.3-1-4.1-2.4L-242.3,313.2z"/>
	<polygon class="st1" points="-240.3,320.5 -240.3,306.7 -238.8,293.6 -237.4,306.5 -237.4,320.5 	"/>
	<line class="st1" x1="-238.8" y1="320.5" x2="-238.8" y2="295.8"/>
	<polygon class="st5" points="-250,313.2 -246.3,303.3 -243,313.2 	"/>
	<polygon class="st5" points="-234.8,313.2 -231.1,303.3 -227.7,313.2 	"/>
	<line class="st5" x1="-246.3" y1="301.4" x2="-246.3" y2="313.2"/>
	<line class="st5" x1="-231" y1="301.4" x2="-231" y2="313.2"/>
	<path class="st5" d="M-237.9,301.7h9.2c0,0,0-1.4-0.4-1.4c-0.4,0-1.3,1.1-1.3,1.1l-8.3-1.4"/>
	<path class="st5" d="M-239.6,301.7h-9.2c0,0,0-1.4,0.4-1.4s1.3,1.1,1.3,1.1l8.3-1.4"/>
	<path class="st7" d="M-224.8,322.9c-5.6,1.3-7.6,5.1-7.6,9.1c0,4.2,2.5,8,6.4,9.2c6.7,2.1,12.8-2.8,12.8-9.1
		c0-5.3-4.2-10.2-9.6-10.2C-223.8,321.9-224.8,322.1-224.8,322.9c0,0,1.3-0.1,1.3,0.8c0,0.6-0.7,0.9-1,1c-0.1,0,0,0.1,0,0.1
		c0.1,0.4,1.3,0.4,3.2,0c0.4-0.1,1.3,0.2,1.6,0.3"/>
	<path class="st5" d="M-219.8,325c2.7,1.2,4.6,3.9,4.6,7c0,4.2-3.4,7.7-7.7,7.7s-7.7-3.4-7.7-7.7c0-3.6,2.5-6.7,5.9-7.5"/>
	<polygon class="st1" points="-229.4,335.9 -222.8,325 -216.2,335.9 	"/>
	<path class="st8" d="M-227.5,332.6c0,0,1.9-1.8,4.7-1.8c2.8,0,4.6,1.8,4.6,1.8s-2.1,1.9-4.7,1.9
		C-225.4,334.5-227.5,332.6-227.5,332.6z"/>
	<circle class="st1" cx="-222.8" cy="332.7" r="1.8"/>
	<circle class="st1" cx="-222.9" cy="332.7" r="0.6"/>
	<circle class="st9" cx="-222.5" cy="322.9" r="0.3"/>
	<path class="st5" d="M-211.8,309.5c0,2,1.9,1.7,1.9,1.7s2.9,0,3.8,0c0.8,0,1.5,0.2,2.3,0.9c0.8,0.7,0.5,1.9,0.4,2.5
		c-0.1,0.6-1.8,3.7-1.2,4.4c0.5,0.7,3.5-0.3,4.8,1c1.4,1.4-0.4,3.4-0.2,4.5c0.2,1.1,1.4,2.7,1.4,2.7s-0.9,0.5-2.1-1.4
		c-1.2-1.9,0.7-3.3,0.3-4.3c-0.4-0.9-1.9-0.6-3.5-0.4c-1.6,0.2-3.3-0.7-2.8-2.5c0.5-1.8,1.8-3.1,1.6-4.1s-0.6-1.7-2-1.7
		c-1.5,0-4.2,0.8-6-1c-0.7-0.7-0.7-1.8-0.4-3.1"/>
	<path class="st10" d="M-199.8,323.2c0,0,1.9,2.8,1.9,2.9c0.2,0.3,1.1,1.4,0.4,1.8c-0.3,0.3-0.9,0-1.2-0.4c-0.1-0.1,0.8,1-0.8-1.4
		C-199.5,326-200.4,324.3-199.8,323.2z"/>
	<path class="st10" d="M-200.7,321.9c-1-1.4-2.1-3.2-3.5-5.2l-0.5,1.6c-0.1,0.2,0,0.5,0.1,0.7c1.2,1.8,2.6,3.6,3.5,4.8L-200.7,321.9
		z"/>
	<path class="st7" d="M-205.6,315.7c0.2-0.5,0.1-1.2-0.2-1.6c-4-6-7.9-11.7-7.9-11.7c-0.3-0.5-1-0.5-1.4,0l-0.9,1.2
		c-0.2,0.3-0.1,0.7,0.3,0.8l0.5,0.2c0.4,0.1,0.8,0.4,1,0.8c0,0,3.9,5.7,7.8,11.3c0.1,0.2,0.4,0.1,0.4-0.1L-205.6,315.7z"/>
	<path class="st7" d="M-213.7,309.2c0.5-1.8,1.6-4.1,1.8-5.6c0.4-2.5,0.4-3.8-0.5-4.6s-2.1-0.6-2.1-0.6l-0.5,0.2l-2-1.8
		c-0.3-0.2-0.2-0.6,0.1-0.8c0.7-0.3,2.1-0.7,4.3,0.4c3.4,1.6,3.3,3.7,3.3,5c0,1.3-2.5,6.2-2.5,8.2"/>
	<path class="st7" d="M-219.2,295.3c0,0,0.4,1,2,1.1"/>
	<circle class="st9" cx="-215.3" cy="296.5" r="0.3"/>
	<path class="st7" d="M-200.5,354.4c0,0-4.2-0.4-7.2-0.4c-3.1,0-7.4,0.4-7.4,0.4v-8.5h14.6V354.4z"/>
	<path class="st7" d="M-207.8,344.1c0,0,0.5-0.4,1.7-0.4c1.2,0,2.1,1.3,2.9,1.3s1.3-0.1,1.3-0.1v9.1c0,0-1.1-0.6-2.5-0.6
		s-3.4,0.4-3.4,0.4V344.1z"/>
	<path class="st7" d="M-208,344.1c0,0-0.5-0.4-1.7-0.4c-1.1,0-2.1,1.3-2.9,1.3s-1.3-0.1-1.3-0.1v9.1c0,0,1.1-0.6,2.5-0.6
		c1.4,0,3.4,0.4,3.4,0.4S-208,344.1-208,344.1z"/>
	<path class="st5" d="M-207,348.7c2.2,0,1.8,0.8,4,0.8"/>
	<path class="st5" d="M-207,346.1c2.2,0,1.8,0.8,4,0.8"/>
	<path class="st5" d="M-207,350.8c2.2,0,1.8,0.8,4,0.8"/>
	<path class="st5" d="M-208.8,348.7c-2.2,0-1.8,0.8-4,0.8"/>
	<path class="st5" d="M-208.8,346.1c-2.2,0-1.8,0.8-4,0.8"/>
	<path class="st5" d="M-208.8,350.8c-2.2,0-1.8,0.8-4,0.8"/>
	<polygon class="st1" points="-219.3,360.7 -220.5,360.3 -219.3,359.4 	"/>
</g>
<g>
	<path class="st11" d="M-180.1,319.3c0-2.7,0-3.2,0-3.7c0-0.6-0.2-0.9-0.7-1c-0.1,0-0.4-0.1-0.6-0.1c-0.1,0-0.1,0-0.1-0.1
		c0-0.1,0.1-0.1,0.3-0.1c0.8,0,1.8,0.1,2,0.1s1.2-0.1,1.7-0.1c0.2,0,0.3,0,0.3,0.1c0,0.1-0.1,0.1-0.1,0.1c-0.1,0-0.2,0-0.4,0.1
		c-0.5,0.1-0.6,0.4-0.6,1s0,1,0,3.7v2.4c0,2.5,0.6,3.6,1.3,4.3c0.8,0.8,1.6,0.9,2.6,0.9c1.1,0,2.1-0.5,2.7-1.2c0.8-1,1-2.5,1-4.2
		v-2.2c0-2.7,0-3.2,0-3.7c0-0.6-0.2-0.9-0.7-1c-0.1,0-0.4-0.1-0.6-0.1c-0.1,0-0.1,0-0.1-0.1c0-0.1,0.1-0.1,0.3-0.1
		c0.8,0,1.7,0.1,1.8,0.1s0.9-0.1,1.5-0.1c0.2,0,0.3,0,0.3,0.1c0,0.1-0.1,0.1-0.1,0.1c-0.1,0-0.2,0-0.4,0.1c-0.5,0.1-0.6,0.4-0.6,1
		s0,1,0,3.7v1.8c0,1.9-0.2,3.9-1.6,5.2c-1.2,1.1-2.5,1.3-3.6,1.3c-0.6,0-2.3-0.1-3.6-1.2c-0.8-0.8-1.5-2-1.5-4.5v-2.6H-180.1z"/>
	<path class="st11" d="M-164.4,325.3c0,1.2,0.2,1.6,0.6,1.7c0.3,0.1,0.6,0.1,0.8,0.1c0.1,0,0.1,0.1,0.1,0.1c0,0.1-0.1,0.1-0.3,0.1
		c-0.9,0-1.5-0.1-1.6-0.1c-0.1,0-0.8,0.1-1.5,0.1c-0.2,0-0.2,0-0.2-0.1c0-0.1,0.1-0.1,0.1-0.1c0.1,0,0.4,0,0.6-0.1
		c0.4-0.1,0.4-0.5,0.4-1.8v-8.4c0-0.6,0.1-0.7,0.2-0.7c0.2,0,0.4,0.3,0.6,0.4c0.2,0.2,2.5,2.6,4.8,5c1.5,1.6,3.1,3.3,3.6,3.8
		l-0.2-7.4c0-0.9-0.1-1.3-0.6-1.4c-0.3-0.1-0.6-0.1-0.7-0.1c-0.1,0-0.1-0.1-0.1-0.1c0-0.1,0.1-0.1,0.3-0.1c0.7,0,1.4,0,1.6,0
		c0.2,0,0.7,0,1.3,0c0.2,0,0.3,0,0.3,0.1c0,0.1-0.1,0.1-0.2,0.1c-0.1,0-0.2,0-0.4,0c-0.5,0.1-0.5,0.4-0.5,1.3v8.6c0,1,0,1.1-0.1,1.1
		c-0.2,0-0.3-0.1-1.2-0.9c-0.2-0.1-2.3-2.3-4-4c-1.8-1.8-3.5-3.6-3.9-4.2L-164.4,325.3z"/>
	<path class="st11" d="M-148.9,323.1c0,1.4,0,2.6,0.1,3.2c0.1,0.4,0.1,0.7,0.6,0.8c0.2,0,0.6,0.1,0.7,0.1s0.1,0.1,0.1,0.1
		c0,0.1-0.1,0.1-0.2,0.1c-0.8,0-1.8-0.1-1.9-0.1s-1,0.1-1.5,0.1c-0.2,0-0.2,0-0.2-0.1c0-0.1,0-0.1,0.1-0.1c0.1,0,0.3,0,0.5-0.1
		c0.3-0.1,0.3-0.3,0.4-0.8c0.1-0.6,0.1-1.8,0.1-3.2v-2.6c0-2.3,0-2.7,0-3.2s-0.2-0.7-0.5-0.8c-0.2,0-0.4-0.1-0.5-0.1
		c-0.1,0-0.1-0.1-0.1-0.1c0-0.1,0.1-0.1,0.2-0.1c0.5,0,1.5,0,1.5,0c0.1,0,1.1,0,1.5,0c0.2,0,0.2,0,0.2,0.1s-0.1,0.1-0.1,0.1
		c-0.1,0-0.2,0-0.4,0c-0.4,0.1-0.5,0.3-0.5,0.8s0,0.9,0,3.2v2.7H-148.9z"/>
	<path class="st11" d="M-139.2,325.4c0.9-2,2.9-7,3.2-8c0.1-0.2,0.1-0.4,0.1-0.6c0-0.2-0.1-0.3-0.2-0.3c-0.2-0.1-0.3-0.1-0.5-0.1
		c-0.1,0-0.2-0.1-0.2-0.1c0-0.1,0.1-0.1,0.3-0.1c0.6,0,1.3,0,1.5,0c0.1,0,0.7,0,1.2,0c0.2,0,0.2,0,0.2,0.1c0,0.1-0.1,0.1-0.2,0.1
		s-0.4,0-0.7,0.2c-0.2,0.1-0.4,0.3-0.8,1.3c-0.2,0.4-0.9,2.2-1.7,4c-0.9,2.1-1.6,3.7-2,4.5c-0.4,0.9-0.5,1.1-0.7,1.1
		c-0.2,0-0.3-0.2-0.6-0.9l-3.7-9c-0.3-0.8-0.6-1-1.1-1.1c-0.2-0.1-0.5-0.1-0.6-0.1s-0.1-0.1-0.1-0.1c0-0.1,0.2-0.1,0.4-0.1
		c0.7,0,1.6,0,1.8,0c0.2,0,0.8,0,1.4,0c0.3,0,0.4,0,0.4,0.1c0,0.1-0.1,0.1-0.2,0.1c-0.2,0-0.4,0-0.6,0.1s-0.2,0.2-0.2,0.3
		c0,0.2,0.2,0.6,0.4,1.2L-139.2,325.4z"/>
	<path class="st11" d="M-130.1,320.5c0-2.3,0-2.7,0-3.2s-0.1-0.7-0.6-0.8c-0.1,0-0.4,0-0.5,0s-0.1-0.1-0.1-0.1
		c0-0.1,0.1-0.1,0.2-0.1c0.7,0,1.7,0,1.8,0s3.3,0,3.6,0s0.6-0.1,0.7-0.1c0.1,0,0.1-0.1,0.2-0.1c0.1,0,0.1,0.1,0.1,0.1
		c0,0.1-0.1,0.3-0.1,0.7c0,0.1-0.1,0.8-0.1,1c0,0.1-0.1,0.2-0.1,0.2c-0.1,0-0.1-0.1-0.1-0.2s0-0.3-0.1-0.5c-0.1-0.2-0.3-0.3-1.1-0.4
		c-0.3,0-2-0.1-2.2-0.1c-0.1,0-0.1,0.1-0.1,0.2v4c0,0.1,0,0.2,0.1,0.2c0.2,0,2.2,0,2.5,0c0.4,0,0.6-0.1,0.7-0.2
		c0.1-0.1,0.2-0.2,0.2-0.2s0.1,0,0.1,0.1s-0.1,0.3-0.1,0.8c0,0.3-0.1,0.8-0.1,0.9c0,0.1,0,0.3-0.1,0.3s-0.1-0.1-0.1-0.1
		c0-0.1,0-0.3-0.1-0.5c-0.1-0.2-0.2-0.4-0.8-0.4c-0.4-0.1-2-0.1-2.3-0.1c-0.1,0-0.1,0.1-0.1,0.1v1.2c0,0.5,0,2.2,0,2.5
		c0,1,0.3,1.2,1.8,1.2c0.4,0,1.1,0,1.5-0.2c0.4-0.2,0.6-0.4,0.7-1c0-0.2,0.1-0.2,0.2-0.2s0.1,0.1,0.1,0.2c0,0.1-0.1,1.1-0.2,1.4
		c-0.1,0.4-0.3,0.4-0.8,0.4c-1.1,0-2,0-2.6-0.1c-0.6,0-1,0-1.3,0c0,0-0.3,0-0.7,0c-0.3,0-0.6,0-0.9,0c-0.2,0-0.2,0-0.2-0.1
		s0-0.1,0.1-0.1s0.3-0.1,0.5-0.1c0.3-0.1,0.3-0.3,0.4-0.8c0.1-0.6,0.1-1.8,0.1-3.2L-130.1,320.5L-130.1,320.5z"/>
	<path class="st11" d="M-120.4,320.5c0-2.3,0-2.7,0-3.2s-0.1-0.7-0.6-0.8c-0.1,0-0.4,0-0.5,0s-0.1-0.1-0.1-0.1
		c0-0.1,0.1-0.1,0.2-0.1c0.7,0,1.7,0,1.8,0c0.2,0,1.4,0,1.9,0c1,0,2,0.1,2.8,0.6c0.4,0.3,1.1,1,1.1,2c0,1.1-0.4,2.1-1.9,3.4
		c1.2,1.6,2.3,2.9,3.2,3.8c0.8,0.8,1.3,1,1.7,1c0.3,0.1,0.4,0.1,0.5,0.1s0.1,0.1,0.1,0.1c0,0.1-0.1,0.1-0.4,0.1h-1
		c-0.9,0-1.2-0.1-1.6-0.3c-0.7-0.3-1.2-1.1-2.1-2.2c-0.6-0.8-1.3-1.7-1.6-2.1c-0.1-0.1-0.1-0.1-0.2-0.1h-1.9c-0.1,0-0.1,0-0.1,0.1
		v0.3c0,1.4,0,2.6,0.1,3.2c0.1,0.4,0.1,0.7,0.6,0.8c0.2,0,0.5,0.1,0.7,0.1c0.1,0,0.1,0.1,0.1,0.1c0,0.1-0.1,0.1-0.2,0.1
		c-0.8,0-1.8-0.1-1.9-0.1c0,0-1,0.1-1.5,0.1c-0.2,0-0.2,0-0.2-0.1c0-0.1,0-0.1,0.1-0.1s0.3,0,0.5-0.1c0.3-0.1,0.3-0.3,0.4-0.8
		c0.1-0.6,0.1-1.8,0.1-3.2v-2.6H-120.4z M-119.1,321.7c0,0.1,0,0.1,0.1,0.2c0.2,0.1,1,0.2,1.7,0.2c0.4,0,0.8,0,1.1-0.3
		c0.5-0.3,0.9-1.1,0.9-2.2c0-1.8-1-2.9-2.6-2.9c-0.4,0-0.9,0.1-1.1,0.1c-0.1,0-0.1,0.1-0.1,0.2L-119.1,321.7L-119.1,321.7z"/>
	<path class="st11" d="M-108.4,327.1c-0.2-0.1-0.2-0.2-0.2-0.6c0-0.7,0.1-1.3,0.1-1.6c0-0.2,0-0.2,0.1-0.2s0.1,0.1,0.1,0.2
		c0,0.1,0,0.3,0.1,0.5c0.2,1.1,1.4,1.5,2.4,1.5c1.5,0,2.3-0.8,2.3-2c0-1.1-0.6-1.6-1.9-2.6l-0.7-0.5c-1.6-1.2-2.2-2.1-2.2-3.1
		c0-1.7,1.4-2.8,3.4-2.8c0.6,0,1.2,0.1,1.6,0.2c0.3,0.1,0.4,0.1,0.5,0.1s0.2,0,0.2,0.1c0,0.1-0.1,0.6-0.1,1.6c0,0.2,0,0.3-0.1,0.3
		s-0.1-0.1-0.1-0.2c0-0.2-0.1-0.6-0.2-0.7c-0.1-0.2-0.6-0.7-2-0.7c-1.1,0-2,0.6-2,1.6c0,0.9,0.5,1.5,2,2.5l0.4,0.3
		c1.8,1.3,2.5,2.3,2.5,3.5c0,0.9-0.3,1.8-1.4,2.5c-0.6,0.4-1.6,0.5-2.4,0.5C-106.9,327.5-107.8,327.4-108.4,327.1z"/>
	<path class="st11" d="M-96.8,323.1c0,1.4,0,2.6,0.1,3.2c0.1,0.4,0.1,0.7,0.6,0.8c0.2,0,0.6,0.1,0.7,0.1c0.1,0,0.1,0.1,0.1,0.1
		c0,0.1-0.1,0.1-0.2,0.1c-0.8,0-1.8-0.1-1.9-0.1c-0.1,0-1,0.1-1.5,0.1c-0.2,0-0.2,0-0.2-0.1c0-0.1,0-0.1,0.1-0.1s0.3,0,0.5-0.1
		c0.3-0.1,0.3-0.3,0.4-0.8c0.1-0.6,0.1-1.8,0.1-3.2v-2.6c0-2.3,0-2.7,0-3.2s-0.2-0.7-0.5-0.8c-0.2,0-0.4-0.1-0.5-0.1
		s-0.1-0.1-0.1-0.1c0-0.1,0.1-0.1,0.2-0.1c0.5,0,1.5,0,1.5,0c0.1,0,1.1,0,1.5,0c0.2,0,0.2,0,0.2,0.1s-0.1,0.1-0.1,0.1
		c-0.1,0-0.2,0-0.4,0c-0.4,0.1-0.5,0.3-0.5,0.8s0,0.9,0,3.2v2.7H-96.8z"/>
	<path class="st11" d="M-91.3,320.5c0-2.3,0-2.7,0-3.2s-0.1-0.7-0.6-0.8c-0.1,0-0.4,0-0.5,0s-0.1-0.1-0.1-0.1c0-0.1,0.1-0.1,0.2-0.1
		c0.7,0,1.7,0,1.8,0c0.2,0,1.1,0,2,0c1.5,0,4.3-0.1,6.1,1.7c0.8,0.8,1.5,2,1.5,3.7c0,1.8-0.8,3.3-1.6,4.1c-0.7,0.7-2,1.7-4.6,1.7
		c-0.7,0-1.5-0.1-2.1-0.1c-0.7-0.1-1.2-0.1-1.2-0.1s-0.3,0-0.6,0s-0.7,0-0.9,0s-0.2,0-0.2-0.1c0-0.1,0-0.1,0.1-0.1s0.3,0,0.5-0.1
		c0.3-0.1,0.3-0.3,0.4-0.8c0.1-0.6,0.1-1.8,0.1-3.2v-2.5H-91.3z M-89.9,322.1c0,1.6,0,2.9,0,3.2c0,0.4,0.1,0.9,0.2,1.1
		c0.2,0.3,0.7,0.6,2.5,0.6c1.4,0,2.6-0.5,3.6-1.3c0.8-0.7,1.2-2.1,1.2-3.5c0-1.9-0.8-3.1-1.4-3.7c-1.4-1.5-3.1-1.6-4.9-1.6
		c-0.3,0-0.8,0.1-0.9,0.1s-0.2,0.1-0.2,0.3v4.8H-89.9z"/>
	<path class="st11" d="M-74.9,316.5c0.2-0.5,0.3-0.6,0.4-0.6c0.2,0,0.2,0.2,0.4,0.5c0.3,0.6,2.7,6.7,3.6,8.9c0.6,1.3,1,1.5,1.3,1.6
		c0.2,0.1,0.4,0.1,0.6,0.1c0.1,0,0.2,0,0.2,0.1s-0.2,0.1-0.3,0.1c-0.2,0-1.3,0-2.4,0c-0.3,0-0.5,0-0.5-0.1s0-0.1,0.1-0.1
		s0.2-0.2,0.1-0.4l-1.4-3.4c0-0.1-0.1-0.1-0.1-0.1h-3.5c-0.1,0-0.1,0-0.2,0.1l-0.9,2.3c-0.1,0.4-0.2,0.7-0.2,1s0.3,0.4,0.5,0.4h0.1
		c0.1,0,0.2,0.1,0.2,0.1c0,0.1-0.1,0.1-0.2,0.1c-0.4,0-1.2-0.1-1.4-0.1s-0.9,0.1-1.5,0.1c-0.2,0-0.3,0-0.3-0.1s0.1-0.1,0.1-0.1
		c0.1,0,0.3,0,0.4,0c0.7-0.1,1-0.6,1.3-1.3L-74.9,316.5z M-73.2,322.6c0.1,0,0.1,0,0.1-0.1l-1.5-4c-0.1-0.2-0.2-0.2-0.3,0l-1.4,4
		c0,0.1,0,0.1,0.1,0.1H-73.2z"/>
	<path class="st11" d="M-65.3,320.5c0-2.3,0-2.7,0-3.2s-0.1-0.7-0.6-0.8c-0.1,0-0.4,0-0.5,0s-0.1-0.1-0.1-0.1c0-0.1,0.1-0.1,0.2-0.1
		c0.7,0,1.7,0,1.8,0c0.2,0,1.1,0,2,0c1.5,0,4.3-0.1,6.1,1.7c0.8,0.8,1.5,2,1.5,3.7c0,1.8-0.8,3.3-1.6,4.1c-0.7,0.7-2,1.7-4.6,1.7
		c-0.7,0-1.5-0.1-2.1-0.1c-0.7-0.1-1.2-0.1-1.2-0.1s-0.3,0-0.6,0s-0.7,0-0.9,0s-0.2,0-0.2-0.1c0-0.1,0-0.1,0.1-0.1s0.3,0,0.5-0.1
		c0.3-0.1,0.3-0.3,0.4-0.8c0.1-0.6,0.1-1.8,0.1-3.2v-2.5H-65.3z M-63.9,322.1c0,1.6,0,2.9,0,3.2c0,0.4,0.1,0.9,0.2,1.1
		c0.2,0.3,0.7,0.6,2.5,0.6c1.4,0,2.6-0.5,3.6-1.3c0.8-0.7,1.2-2.1,1.2-3.5c0-1.9-0.8-3.1-1.4-3.7c-1.4-1.5-3.1-1.6-4.9-1.6
		c-0.3,0-0.8,0.1-0.9,0.1s-0.2,0.1-0.2,0.3v4.8H-63.9z"/>
	<path class="st11" d="M-178.3,341.4c0-3.3,0-3.9,0-4.6c-0.1-0.7-0.2-1.1-0.9-1.2c-0.2,0-0.5,0-0.8,0c-0.1,0-0.2-0.1-0.2-0.2
		c0-0.1,0.1-0.2,0.4-0.2c1,0,2.4,0,2.5,0c0.2,0,1.6,0,2.9,0c2.2,0,6.2-0.2,8.8,2.4c1.1,1.1,2.1,2.9,2.1,5.4c0,2.7-1.1,4.7-2.4,6
		c-0.9,1-2.9,2.4-6.7,2.4c-0.9,0-2.1-0.1-3.1-0.1c-0.9-0.1-1.7-0.1-1.8-0.1c-0.1,0-0.5,0-0.9,0s-1,0.1-1.3,0.1
		c-0.2,0-0.4-0.1-0.4-0.2c0-0.1,0.1-0.2,0.2-0.2c0.2,0,0.5,0,0.7-0.1c0.4-0.1,0.5-0.5,0.6-1.1c0.1-0.9,0.1-2.5,0.1-4.6v-3.7H-178.3z
		 M-176.3,343.7c0,2.2,0,4.2,0,4.6c0,0.5,0.1,1.3,0.2,1.5c0.3,0.4,1,0.8,3.6,0.8c2,0,3.8-0.7,5.1-1.9c1.1-1.1,1.7-3.1,1.7-5
		c0-2.7-1.2-4.4-2.1-5.3c-2.1-2.1-4.5-2.4-7.1-2.4c-0.4,0-1.1,0.1-1.3,0.1c-0.2,0.1-0.3,0.2-0.3,0.4v7.2H-176.3z"/>
	<path class="st11" d="M-157.3,341.4c0-3.3,0-3.9,0-4.6c-0.1-0.7-0.2-1.1-0.9-1.2c-0.2,0-0.5,0-0.8,0c-0.1,0-0.2-0.1-0.2-0.2
		c0-0.1,0.1-0.2,0.4-0.2c1,0,2.4,0,2.5,0c0.1,0,4.7,0,5.2,0c0.4,0,0.8-0.1,1-0.1c0.1,0,0.2-0.1,0.3-0.1c0.1,0,0.1,0.1,0.1,0.2
		s-0.1,0.4-0.2,1c0,0.2-0.1,1.1-0.1,1.4c0,0.1-0.1,0.2-0.2,0.2c-0.1,0-0.2-0.1-0.2-0.3c0-0.1,0-0.5-0.1-0.8
		c-0.1-0.3-0.4-0.5-1.6-0.6c-0.4,0-2.9-0.1-3.2-0.1c-0.1,0-0.1,0.1-0.1,0.2v5.8c0,0.1,0,0.2,0.1,0.2c0.3,0,3.2,0,3.7,0
		s0.8-0.1,1.1-0.3c0.1-0.1,0.2-0.3,0.3-0.3s0.1,0,0.1,0.2c0,0.2-0.1,0.5-0.2,1.2c-0.1,0.4-0.1,1.2-0.1,1.4c0,0.2,0,0.4-0.2,0.4
		c-0.1,0-0.1-0.1-0.1-0.2c0-0.2,0-0.4-0.1-0.7c-0.1-0.3-0.3-0.5-1.1-0.6c-0.6-0.1-2.9-0.1-3.3-0.1c-0.1,0-0.1,0.1-0.1,0.1v1.8
		c0,0.7,0,3.2,0,3.6c0,1.4,0.4,1.7,2.6,1.7c0.6,0,1.6,0,2.2-0.2c0.6-0.2,0.9-0.6,1-1.5c0-0.2,0.1-0.3,0.2-0.3c0.1,0,0.2,0.2,0.2,0.3
		c0,0.2-0.2,1.6-0.3,2c-0.1,0.5-0.4,0.5-1.2,0.5c-1.6,0-2.9,0-3.8-0.1c-0.9,0-1.5,0-1.8,0c-0.1,0-0.5,0-0.9,0s-0.9,0.1-1.3,0.1
		c-0.2,0-0.4-0.1-0.4-0.2c0-0.1,0.1-0.2,0.2-0.2c0.2,0,0.5-0.1,0.7-0.1c0.4-0.1,0.5-0.5,0.6-1.1c0.1-0.9,0.1-2.5,0.1-4.6
		L-157.3,341.4L-157.3,341.4z"/>
	<path class="st11" d="M-131.4,349c-2.4-2.2-3-5-3-7.4c0-1.7,0.6-4.6,2.8-6.8c1.5-1.5,3.8-2.7,7.6-2.7c1,0,2.4,0.1,3.6,0.3
		c0.9,0.2,1.7,0.3,2.5,0.4c0.3,0,0.3,0.1,0.3,0.3c0,0.2-0.1,0.5-0.1,1.4c0,0.8,0,2.2-0.1,2.6c0,0.4-0.1,0.5-0.2,0.5
		c-0.2,0-0.2-0.2-0.2-0.5c0-1-0.4-2-1-2.5c-0.9-0.8-2.8-1.4-5-1.4c-3.3,0-4.9,1-5.7,1.8c-1.8,1.7-2.2,4-2.2,6.5c0,4.8,3.7,9.1,9,9.1
		c1.9,0,3.3-0.2,4.3-1.2c0.5-0.5,0.9-1.6,0.9-2.1c0-0.3,0.1-0.4,0.2-0.4c0.1,0,0.2,0.2,0.2,0.4c0,0.2-0.3,2.3-0.5,3.2
		c-0.1,0.5-0.2,0.5-0.6,0.7c-1,0.4-2.9,0.6-4.5,0.6C-126.9,351.7-129.4,350.8-131.4,349z"/>
	<path class="st11" d="M-97.5,345.2c0,2,0,3.7,0.1,4.6c0.1,0.6,0.1,1,0.8,1.1c0.3,0.1,0.8,0.1,1,0.1c0.1,0,0.2,0.1,0.2,0.2
		c0,0.1-0.1,0.2-0.4,0.2c-1.2,0-2.6-0.1-2.7-0.1c-0.1,0-1.5,0.1-2.2,0.1c-0.2,0-0.4-0.1-0.4-0.2c0-0.1,0.1-0.2,0.2-0.2
		c0.2,0,0.4,0,0.6-0.1c0.4-0.1,0.5-0.5,0.6-1.1c0.1-0.9,0.1-2.5,0.1-4.5v-2.1c0-0.1-0.1-0.1-0.1-0.1h-9.2c-0.1,0-0.1,0-0.1,0.1v2.1
		c0,2,0,3.7,0.1,4.5c0.1,0.6,0.1,1,0.8,1.1c0.3,0.1,0.8,0.1,1,0.1c0.1,0,0.2,0.1,0.2,0.2c0,0.1-0.1,0.2-0.4,0.2
		c-1.2,0-2.6-0.1-2.7-0.1c-0.1,0-1.5,0.1-2.2,0.1c-0.2,0-0.4-0.1-0.4-0.2c0-0.1,0.1-0.2,0.2-0.2c0.2,0,0.5,0,0.7-0.1
		c0.4-0.1,0.5-0.5,0.6-1.1c0.1-0.9,0.1-2.5,0.1-4.6v-3.7c0-3.3,0-3.9,0-4.6c-0.1-0.7-0.2-1.1-0.9-1.2c-0.2,0-0.5,0-0.8,0
		c-0.1,0-0.2-0.1-0.2-0.2c0-0.1,0.1-0.2,0.4-0.2c1,0,2.4,0,2.5,0s1.5,0,2.2,0c0.2,0,0.4,0,0.4,0.2c0,0.1-0.1,0.2-0.2,0.2
		c-0.1,0-0.3,0-0.5,0c-0.6,0.1-0.7,0.4-0.8,1.2c0,0.7,0,1.3,0,4.6v0.5c0,0.1,0,0.1,0.1,0.1h9.2c0.1,0,0.1,0,0.1-0.1v-0.5
		c0-3.3,0-3.9-0.1-4.6c0-0.7-0.1-1.1-0.9-1.2c-0.2,0-0.5,0-0.8,0c-0.1,0-0.2-0.1-0.2-0.2c0-0.1,0.1-0.2,0.4-0.2c1,0,2.4,0,2.5,0
		s1.5,0,2.2,0c0.2,0,0.4,0,0.4,0.2c0,0.1-0.1,0.2-0.2,0.2c-0.1,0-0.3,0-0.5,0c-0.6,0.1-0.7,0.4-0.8,1.2c0,0.7,0,1.3,0,4.6
		L-97.5,345.2L-97.5,345.2z"/>
	<path class="st11" d="M-86.8,345.2c0,2,0,3.7,0.1,4.6c0.1,0.6,0.1,1,0.8,1.1c0.3,0.1,0.8,0.1,1,0.1c0.1,0,0.2,0.1,0.2,0.2
		c0,0.1-0.1,0.2-0.4,0.2c-1.2,0-2.6-0.1-2.7-0.1c-0.1,0-1.5,0.1-2.2,0.1c-0.2,0-0.4-0.1-0.4-0.2c0-0.1,0.1-0.2,0.2-0.2
		c0.2,0,0.5,0,0.7-0.1c0.4-0.1,0.5-0.5,0.6-1.1c0.1-0.9,0.1-2.5,0.1-4.6v-3.7c0-3.3,0-3.9,0-4.6c-0.1-0.7-0.2-1-0.7-1.1
		c-0.2,0-0.5-0.1-0.7-0.1c-0.1,0-0.2-0.1-0.2-0.2c0-0.1,0.1-0.2,0.4-0.2c0.7,0,2.1,0,2.2,0c0.1,0,1.5,0,2.2,0c0.2,0,0.4,0,0.4,0.2
		c0,0.1-0.1,0.2-0.2,0.2c-0.1,0-0.3,0-0.5,0c-0.6,0.1-0.7,0.4-0.8,1.2c0,0.7,0,1.3,0,4.6v3.7H-86.8z"/>
	<path class="st11" d="M-76.3,345.2c0,3.1,0,4.4,0.4,4.8c0.4,0.4,1.2,0.5,2.9,0.5c1.1,0,2.1,0,2.6-0.6c0.3-0.3,0.5-0.8,0.5-1.2
		c0-0.1,0.1-0.3,0.2-0.3c0.1,0,0.1,0.1,0.1,0.3s-0.1,1.5-0.3,2.1c-0.2,0.5-0.2,0.6-1.4,0.6c-1.6,0-2.8,0-3.8-0.1c-1,0-1.7,0-2.4,0
		c-0.1,0-0.5,0-0.9,0c-0.5,0-0.9,0.1-1.3,0.1c-0.2,0-0.4-0.1-0.4-0.2s0.1-0.2,0.2-0.2c0.2,0,0.5,0,0.7-0.1c0.4-0.1,0.5-0.5,0.6-1.1
		c0.1-0.9,0.1-2.5,0.1-4.6v-3.7c0-3.3,0-3.9,0-4.6c-0.1-0.7-0.2-1.1-0.9-1.2c-0.2,0-0.5,0-0.8,0c-0.1,0-0.2-0.1-0.2-0.2
		s0.1-0.2,0.4-0.2c1,0,2.4,0,2.5,0s1.7,0,2.4,0c0.2,0,0.3,0,0.3,0.2c0,0.1-0.1,0.1-0.2,0.1c-0.1,0-0.5,0-0.7,0.1
		c-0.6,0.1-0.8,0.4-0.8,1.2c0,0.7,0,1.3,0,4.6v3.7H-76.3z"/>
	<path class="st11" d="M-63.6,341.4c0-3.3,0-3.9,0-4.6c-0.1-0.7-0.2-1.1-0.9-1.2c-0.2,0-0.5,0-0.8,0c-0.1,0-0.2-0.1-0.2-0.2
		c0-0.1,0.1-0.2,0.4-0.2c1,0,2.4,0,2.5,0s4.7,0,5.2,0c0.4,0,0.8-0.1,1-0.1c0.1,0,0.2-0.1,0.3-0.1s0.1,0.1,0.1,0.2s-0.1,0.4-0.2,1
		c0,0.2-0.1,1.1-0.1,1.4c0,0.1-0.1,0.2-0.2,0.2c-0.1,0-0.2-0.1-0.2-0.3c0-0.1,0-0.5-0.1-0.8c-0.1-0.3-0.4-0.5-1.6-0.6
		c-0.4,0-2.9-0.1-3.2-0.1c-0.1,0-0.1,0.1-0.1,0.2v5.8c0,0.1,0,0.2,0.1,0.2c0.3,0,3.2,0,3.7,0s0.8-0.1,1.1-0.3
		c0.1-0.1,0.2-0.3,0.3-0.3s0.1,0,0.1,0.2c0,0.2-0.1,0.5-0.2,1.2c-0.1,0.4-0.1,1.2-0.1,1.4c0,0.2,0,0.4-0.2,0.4
		c-0.1,0-0.1-0.1-0.1-0.2c0-0.2,0-0.4-0.1-0.7c-0.1-0.3-0.3-0.5-1.1-0.6c-0.6-0.1-2.9-0.1-3.3-0.1c-0.1,0-0.1,0.1-0.1,0.1v1.8
		c0,0.7,0,3.2,0,3.6c0,1.4,0.4,1.7,2.6,1.7c0.6,0,1.6,0,2.2-0.2c0.6-0.2,0.9-0.6,1-1.5c0-0.2,0.1-0.3,0.2-0.3s0.2,0.2,0.2,0.3
		c0,0.2-0.2,1.6-0.3,2c-0.1,0.5-0.4,0.5-1.2,0.5c-1.6,0-2.9,0-3.8-0.1c-0.9,0-1.5,0-1.8,0c-0.1,0-0.5,0-0.9,0s-0.9,0.1-1.3,0.1
		c-0.2,0-0.4-0.1-0.4-0.2c0-0.1,0.1-0.2,0.2-0.2c0.2,0,0.5-0.1,0.7-0.1c0.4-0.1,0.5-0.5,0.6-1.1c0.1-0.9,0.1-2.5,0.1-4.6
		L-63.6,341.4L-63.6,341.4z"/>
</g>
</svg>
