<?xml version="1.0" encoding="utf-8"?>
<!-- Generator: Adobe Illustrator 19.1.0, SVG Export Plug-In . SVG Version: 6.00 Build 0)  -->
<svg version="1.1" id="Capa_1" xmlns="http://www.w3.org/2000/svg" xmlns:xlink="http://www.w3.org/1999/xlink" x="0px" y="0px"
	 viewBox="0 0 64.9 140.8" style="enable-background:new 0 0 64.9 140.8;" xml:space="preserve">
<style type="text/css">
	.st0{fill:none;stroke:#999999;stroke-width:0.6506;stroke-linejoin:round;stroke-miterlimit:10;}
	.st1{fill:none;stroke:#999999;stroke-width:0.6506;stroke-linecap:round;stroke-linejoin:round;stroke-miterlimit:10;}
	.st2{fill:#FFFFFF;stroke:#999999;stroke-width:0.6506;stroke-linejoin:round;stroke-miterlimit:10;}
	.st3{fill:#FFFFFF;stroke:#999999;stroke-width:0.6506;stroke-linecap:round;stroke-linejoin:round;stroke-miterlimit:10;}
	.st4{fill:none;stroke:#999999;stroke-miterlimit:10;}
	.st5{fill:none;stroke:#999999;stroke-width:0.6506;stroke-miterlimit:10;}
	.st6{fill:none;stroke:#999999;stroke-width:0.5;stroke-miterlimit:10;}
	.st7{fill:#FFFFFF;stroke:#999999;stroke-width:0.6506;stroke-miterlimit:10;}
	.st8{fill:none;stroke:#999999;stroke-width:0.6506;stroke-linecap:round;stroke-linejoin:bevel;stroke-miterlimit:10;}
	.st9{fill:#FF4A0F;stroke:#999999;stroke-miterlimit:10;}
	.st10{fill:#FFFFFF;stroke:#999999;stroke-width:0.6506;stroke-linejoin:bevel;stroke-miterlimit:10;}
</style>
<g>
	<polygon class="st0" points="56.8,119.1 59,119.6 53.1,126.7 35.3,121.7 38.4,119.8 	"/>
	<polygon class="st1" points="59,119.6 59,122.3 53.1,130 53.1,126.7 	"/>
	<polygon class="st1" points="36,122 36,124.4 53.1,130 53.1,126.7 	"/>
	<polygon class="st2" points="51.8,122 37.6,118.9 42.5,115.8 56.5,117.5 	"/>
	<polygon class="st3" points="56.8,117.5 56.8,119.6 51.8,124.7 51.8,122 	"/>
	<polygon class="st3" points="38.4,119.1 38.4,121.3 51.8,124.7 51.8,122 	"/>
	<path class="st2" d="M45.8,107.4c0,0-0.3-0.9-0.3-1.7s1.1-2.2,1.1-2.2s-0.1,1.1,0.5,1.1s0.7-0.7,0.5-1.1c-0.3-0.4-1-1.4-1-1.4
		s2.5,0.5,2.5,2s-0.9,1.4-0.7,1.9s0.7-0.4,1-0.1c0.3,0.3,0,1.5,0,1.5l-1.9,0.6L45.8,107.4z"/>
	<path class="st4" d="M56.5,138c0,0-17.7,0-20.1,0c-2.4,0-4,2-4,2s-1.6-2-4-2c-1.9,0-20.1,0-20.1,0c-4.4,0-7.9-3.5-7.9-7.9V53.2
		h63.9V130C64.4,134.4,60.9,138,56.5,138z"/>
	<polygon class="st4" points="32.5,17.7 35.5,23.9 42.4,24.9 37.4,29.7 38.6,36.5 32.5,33.3 26.4,36.5 27.5,29.7 22.6,24.9 
		29.4,23.9 	"/>
	<polygon class="st5" points="32.5,21.3 34.5,25.3 38.9,26 35.7,29.1 36.4,33.5 32.5,31.4 28.5,33.5 29.2,29.1 26,26 30.5,25.3 	"/>
	<line class="st5" x1="32.5" y1="40.6" x2="32.5" y2="51.6"/>
	<line class="st5" x1="32.5" y1="0" x2="32.5" y2="15.7"/>
	<line class="st5" x1="44.7" y1="27.9" x2="49.8" y2="27.9"/>
	<line class="st5" x1="15.1" y1="27.9" x2="20.2" y2="27.9"/>
	<line class="st5" x1="42.2" y1="20.6" x2="46.4" y2="17.5"/>
	<line class="st5" x1="18.5" y1="38.3" x2="22.6" y2="35.2"/>
	<line class="st5" x1="36.3" y1="16.3" x2="38" y2="11.4"/>
	<line class="st5" x1="26.9" y1="44.4" x2="28.5" y2="39.5"/>
	<line class="st5" x1="28.7" y1="16.2" x2="27.1" y2="11.4"/>
	<line class="st5" x1="37.8" y1="44.4" x2="36.2" y2="39.6"/>
	<line class="st5" x1="22.6" y1="20.5" x2="18.5" y2="17.5"/>
	<line class="st5" x1="46.3" y1="38.3" x2="42.2" y2="35.3"/>
	<line class="st5" x1="15.1" y1="5.6" x2="24.8" y2="18.4"/>
	<line class="st5" x1="39.8" y1="38.3" x2="49.5" y2="51.1"/>
	<line class="st5" x1="5.3" y1="19.1" x2="20.5" y2="24.3"/>
	<line class="st5" x1="44.1" y1="32.5" x2="59.3" y2="37.7"/>
	<line class="st5" x1="5.3" y1="37.8" x2="20.5" y2="32.5"/>
	<line class="st5" x1="44.1" y1="24.3" x2="59.2" y2="18.9"/>
	<line class="st5" x1="15.4" y1="51.4" x2="24.9" y2="38.4"/>
	<line class="st5" x1="39.7" y1="18.3" x2="49.2" y2="5.4"/>
	<rect x="3.4" y="55.8" class="st5" width="27.7" height="38.3"/>
	<rect x="33.7" y="55.8" class="st5" width="27.7" height="38.3"/>
	<path class="st5" d="M31.1,135.9c0,0-0.8-1-4-1c-2.4,0-18.8,0-18.8,0c-2.7,0-5-2.2-5-5V96.6h27.7V135.9z"/>
	<path class="st5" d="M56.4,134.9c0,0-15.6,0-18.8,0c-3.1,0-4,1-4,1V96.6h27.7v33.3C61.4,132.6,59.2,134.9,56.4,134.9z"/>
	<polygon class="st6" points="9.1,99 9.7,100.8 11.6,100.8 10.1,101.9 10.7,103.8 9.1,102.6 7.6,103.8 8.2,101.9 6.6,100.8 
		8.6,100.8 	"/>
	<line class="st6" x1="10.5" y1="105.9" x2="13.7" y2="114.6"/>
	<line class="st6" x1="11.1" y1="105.6" x2="13.5" y2="110.3"/>
	<line class="st6" x1="11.8" y1="105.1" x2="16.4" y2="110.7"/>
	<line class="st6" x1="12.3" y1="104.5" x2="16.6" y2="107.9"/>
	<line class="st6" x1="12.8" y1="103.8" x2="21" y2="108.9"/>
	<circle class="st6" cx="21" cy="116.1" r="5.4"/>
	<path class="st6" d="M19.4,110.9c0,0,1.4,2.1,2.8,3.5c1.4,1.4,4.1,2.7,4.1,2.7"/>
	<path class="st6" d="M22.6,121.3c0,0-1.4-2.1-2.8-3.5c-1.4-1.4-4.1-2.7-4.1-2.7"/>
	<line class="st6" x1="17.2" y1="120.2" x2="24.7" y2="112.1"/>
	<path class="st6" d="M17,119.7c0,0-0.5-3.4,1.8-5.7s5.6-2.2,5.6-2.2"/>
	<path class="st6" d="M25,112.6c0,0,0.5,3.4-1.8,5.7s-5.6,2.2-5.6,2.2"/>
	<path class="st6" d="M7.7,121.6l1.6-7.2c0.1-0.4,0.5-0.8,1-0.8h0c0.5,0,0.9,0.3,1,0.8l1.6,7.4"/>
	<polyline class="st6" points="8,120.2 8.8,119.2 10.2,116 11.3,119.1 12.4,120.2 	"/>
	<path class="st6" d="M7.7,121.8h18.7v8.2c-0.7,0-1.3-0.5-1.3-1.1c0-1.5-1.5-1.4-1.5-1.4c0-0.5,0-3.5,0-3.5H9.7c0,0-0.1-0.8-1.2-0.8
		C7.7,123.1,7.7,122.1,7.7,121.8z"/>
	<polygon class="st1" points="12.5,84.2 20.5,84.2 17.9,86.2 15.3,86.2 	"/>
	<path class="st5" d="M18.1,92.3H15c-0.4,0-0.7-0.3-0.7-0.7l0,0c0-0.4,0.3-0.7,0.7-0.7h3.1c0.4,0,0.7,0.3,0.7,0.7l0,0
		C18.7,92,18.4,92.3,18.1,92.3z"/>
	<polygon class="st5" points="15,91 15.3,86.2 17.9,86.2 18.1,91 	"/>
	<path class="st5" d="M28.4,76.9c-0.8,1.5-2.3,2.5-4.1,2.5c-1.8,0-3.3-1-4.1-2.4L28.4,76.9z"/>
	<path class="st5" d="M13,76.9c-0.8,1.5-2.3,2.5-4.1,2.5c-1.8,0-3.3-1-4.1-2.4L13,76.9z"/>
	<polygon class="st1" points="15,84.2 15,70.4 16.5,57.3 17.9,70.2 17.9,84.2 	"/>
	<line class="st1" x1="16.5" y1="84.2" x2="16.5" y2="59.5"/>
	<polygon class="st5" points="5.2,76.9 9,67 12.3,76.9 	"/>
	<polygon class="st5" points="20.5,76.9 24.2,67 27.6,76.9 	"/>
	<line class="st5" x1="9" y1="65.1" x2="9" y2="76.9"/>
	<line class="st5" x1="24.2" y1="65.1" x2="24.2" y2="76.9"/>
	<path class="st5" d="M17.4,65.4h9.2c0,0,0-1.4-0.4-1.4c-0.4,0-1.3,1.1-1.3,1.1l-8.3-1.4"/>
	<path class="st5" d="M15.7,65.4H6.5c0,0,0-1.4,0.4-1.4s1.3,1.1,1.3,1.1l8.3-1.4"/>
	<path class="st7" d="M30.5,86.6c-5.6,1.3-7.6,5.1-7.6,9.1c0,4.2,2.5,8,6.4,9.2c6.7,2.1,12.8-2.8,12.8-9.1c0-5.3-4.2-10.2-9.6-10.2
		C31.5,85.6,30.5,85.8,30.5,86.6c0,0,1.3-0.1,1.3,0.8c0,0.6-0.7,0.9-1,1c-0.1,0,0,0.1,0,0.1c0.1,0.4,1.3,0.4,3.2,0
		c0.4-0.1,1.3,0.2,1.6,0.3"/>
	<path class="st5" d="M35.5,88.8c2.7,1.2,4.6,3.9,4.6,7c0,4.2-3.4,7.7-7.7,7.7s-7.7-3.4-7.7-7.7c0-3.6,2.5-6.7,5.9-7.5"/>
	<polygon class="st1" points="25.9,99.6 32.5,88.7 39.1,99.6 	"/>
	<path class="st8" d="M27.8,96.3c0,0,1.9-1.8,4.7-1.8s4.6,1.8,4.6,1.8s-2.1,1.9-4.7,1.9S27.8,96.3,27.8,96.3z"/>
	<circle class="st1" cx="32.5" cy="96.4" r="1.8"/>
	<circle class="st1" cx="32.4" cy="96.4" r="0.6"/>
	<circle class="st9" cx="32.8" cy="86.6" r="0.3"/>
	<path class="st5" d="M43.5,73.3c0,2,1.9,1.7,1.9,1.7s2.9,0,3.8,0s1.5,0.2,2.3,0.9s0.5,1.9,0.4,2.5c-0.1,0.5-1.8,3.7-1.2,4.4
		s3.5-0.3,4.8,1c1.4,1.4-0.4,3.4-0.2,4.5c0.2,1.1,1.4,2.7,1.4,2.7s-0.9,0.5-2.1-1.4c-1.2-1.9,0.7-3.3,0.3-4.3
		c-0.4-0.9-1.9-0.6-3.5-0.4s-3.3-0.7-2.8-2.5c0.5-1.7,1.8-3.1,1.6-4.1c-0.2-1-0.6-1.7-2-1.7c-1.5,0-4.2,0.8-6-1
		c-0.7-0.7-0.7-1.8-0.4-3.1"/>
	<path class="st10" d="M55.5,86.9c0,0,1.9,2.8,1.9,2.9c0.2,0.3,1.1,1.4,0.4,1.8c-0.3,0.3-0.9,0-1.2-0.4c-0.1-0.1,0.8,1-0.8-1.4
		C55.8,89.8,54.9,88,55.5,86.9z"/>
	<path class="st10" d="M54.6,85.6c-1-1.4-2.1-3.2-3.5-5.2l-0.5,1.6c-0.1,0.2,0,0.5,0.1,0.7c1.2,1.8,2.6,3.6,3.5,4.8L54.6,85.6z"/>
	<path class="st7" d="M49.7,79.4c0.2-0.5,0.1-1.2-0.2-1.6c-4-6-7.9-11.7-7.9-11.7c-0.3-0.5-1-0.5-1.4,0l-0.9,1.2
		c-0.2,0.3-0.1,0.7,0.3,0.8l0.5,0.2c0.4,0.1,0.8,0.4,1,0.8c0,0,3.9,5.7,7.8,11.3c0.1,0.2,0.4,0.1,0.4-0.1L49.7,79.4z"/>
	<path class="st7" d="M41.6,72.9c0.5-1.8,1.6-4.1,1.8-5.6c0.4-2.5,0.4-3.8-0.5-4.6c-0.9-0.8-2.1-0.6-2.1-0.6l-0.5,0.2l-2.1-1.7
		c-0.3-0.2-0.2-0.6,0.1-0.8c0.7-0.3,2.1-0.7,4.3,0.4c3.4,1.6,3.3,3.7,3.3,5c0,1.2-2.5,6.2-2.5,8.2"/>
	<path class="st7" d="M36.1,59c0,0,0.4,1,2,1.1"/>
	<circle class="st9" cx="40" cy="60.2" r="0.3"/>
	<path class="st7" d="M54.8,118.1c0,0-4.2-0.4-7.2-0.4s-7.4,0.4-7.4,0.4v-8.5h14.6V118.1z"/>
	<path class="st7" d="M47.5,107.8c0,0,0.5-0.4,1.7-0.4c1.1,0,2.1,1.3,2.9,1.3s1.3-0.1,1.3-0.1v9.1c0,0-1.1-0.6-2.5-0.6
		s-3.4,0.4-3.4,0.4V107.8z"/>
	<path class="st7" d="M47.3,107.8c0,0-0.5-0.4-1.7-0.4c-1.1,0-2.1,1.3-2.9,1.3s-1.3-0.1-1.3-0.1v9.1c0,0,1.1-0.6,2.5-0.6
		s3.4,0.4,3.4,0.4V107.8z"/>
	<path class="st5" d="M48.3,112.4c2.2,0,1.8,0.8,4,0.8"/>
	<path class="st5" d="M48.3,109.8c2.2,0,1.8,0.8,4,0.8"/>
	<path class="st5" d="M48.3,114.5c2.2,0,1.8,0.8,4,0.8"/>
	<path class="st5" d="M46.5,112.4c-2.2,0-1.8,0.8-4,0.8"/>
	<path class="st5" d="M46.5,109.8c-2.2,0-1.8,0.8-4,0.8"/>
	<path class="st5" d="M46.5,114.5c-2.2,0-1.8,0.8-4,0.8"/>
	<polygon class="st1" points="36,124.4 34.8,124 36,123.1 	"/>
</g>
</svg>
