<?xml version="1.0" encoding="utf-8"?>
<!-- Generator: Adobe Illustrator 19.1.0, SVG Export Plug-In . SVG Version: 6.00 Build 0)  -->
<svg version="1.1" id="Capa_1" xmlns="http://www.w3.org/2000/svg" xmlns:xlink="http://www.w3.org/1999/xlink" x="0px" y="0px"
	 viewBox="0 0 1364.3 767" style="enable-background:new 0 0 1364.3 767;" xml:space="preserve">
<style type="text/css">
	.st0{fill:none;stroke:#666666;stroke-miterlimit:10;stroke-dasharray:2,4;}
	.st1{fill:none;stroke:#666666;stroke-miterlimit:10;}
	.st2{fill:none;stroke:#666666;stroke-miterlimit:10;stroke-dasharray:1.9888,3.9775;}
	.st3{fill:#FF961C;}
	.st4{fill:#F07A1A;}
	.st5{fill:#1C75F7;}
	.st6{fill:#FF961C;stroke:#F07A1A;stroke-width:2;stroke-miterlimit:10;}
	.st7{fill:#F07A1A;stroke:#F07A1A;stroke-miterlimit:10;}
</style>
<path class="st0" d="M543.2,0L543.2,0c0,51.2,41.5,92.8,92.8,92.8h271.3c51.2,0,92.8,41.5,92.8,92.8v133.1
	c0,51.2,41.5,92.8,92.8,92.8h272.3"/>
<g>
	<g>
		<line class="st1" x1="223.6" y1="768" x2="223.6" y2="767"/>
		<path class="st2" d="M223.6,763V509.7c0-41.7-33.8-75.5-75.5-75.5H3"/>
		<line class="st1" x1="1" y1="434.2" x2="0" y2="434.2"/>
	</g>
</g>
<path class="st3" d="M166.8,768c0,0,2.3-11.2,8.7-23.2s7-2.7,23.3-13.4s14.6-14.2,26.5-25.7s29.2-23.2,16.9-27.6
	c-12.8-4.5-28.5,27.1-41.5,22c0,0,15.2-29.2,21.8-40.9c6.6-11.6,19.8-26.9,19.3-38.7c-0.1-2.5-5.1-5.1-9.2,0.5
	c-12.3,16.8-32.6,46.1-35.9,44.5c-4.9-2.4,14.4-42.9,19.7-59.7c1.9-6-5-10.3-9.1-3.7c-13.9,21.8-24.9,53.7-28.6,52.1
	c-2-0.9,6.8-38.5,7.1-55.1c0.1-3-7.3-4.8-9.1-0.6c-5.9,13.2-11.6,49.4-20.7,60.2c-10.3,12.3,5.8-44.5-4-43.5
	c-9.8,1-9.5,30.3-15.6,52c-6,21.8-7.2,28.1-4,42.3c3.2,14.2,5.7,9.3,1.7,24.8c-3.9,15.5-15.9,33.6-15.9,33.6H166.8z"/>
<g>
	<path class="st4" d="M133.7,205.1c0,0,5.5-4.2,15.5-3.4c9.7,0.7,29.8,2.2,35.2,2.2c4.5,0,21,12.7,23,16c3,5,9.7,20.1,8.4,26
		c-1.2,5.3-9,1.3-11.5-3.2c-2.8-4.9-4.8-12.9-4.8-12.9l-18.2-12.9l-22.5,1.2L133.7,205.1"/>
	<path class="st4" d="M159.7,201.6c3.2-3.1,36.2-3.9,39.9-2.9c5.6,1.5,21,4.6,24.1,9.7c2.8,4.6-5.5,7.2-10.5,5.7
		c-5.4-1.6-12.4-2.8-12.4-2.8l-22,0.1l-42.5,24.5L159.7,201.6z"/>
	<path class="st5" d="M126.2,228.9l76.4,62.4l15.5,2.1l-5.4-14.5l-76.4-62.4C136.3,216.5,126.4,217.5,126.2,228.9z"/>
	<path class="st3" d="M0,274.9c0,0,70.4-10.3,85.8-25.7s31-34.9,36.5-41c6.2-6.9,14.6-3.8,21-2.4s29.5,5.2,36.7,7.8
		s12.2,19.7,12.7,26.2c0,0-9.6,33-13.6,25.9s-2.7-25.9-2.7-25.9l-6-9.5c0,0-20.4-7.2-26.1,4.7c-5.8,11.9-12.5,17.8-4,27.7
		c8.4,9.9,18.2,10.6,34.2,11c9.3,0.2,19.1,6.3,23.8,15.2c5.1,9.6-15.9,4.4-28.8,1s-29.8,4.6-47.1-2.9c-17.2-7.4-61.6,17.9-88.5,36.1
		C7,341.1,0,342.8,0,342.8V274.9z"/>
	<path class="st5" d="M126.2,228.9l31.8,24.8l10.1-11.4l-31.8-25.8C136.3,216.5,126.4,217.5,126.2,228.9z"/>
</g>
<g>
	<path class="st3" d="M1366,476.2c0,0-74-31.9-85-39.9s-1.7-7.3-10-24.9c-8.2-17.7-12-16.5-21.8-29.9c-9.8-13.4-18.9-32.2-24.9-20.6
		c-6.2,12,22.8,32,16,44.2c0,0-26.8-19.1-37.4-27.4c-10.6-8.2-23.9-23.4-35.6-24.6c-2.5-0.3-5.7,4.3-0.7,9.2
		c14.9,14.6,41,38.8,39,41.7c-3.1,4.5-40.4-20.3-56.3-27.9c-5.7-2.7-10.9,3.5-5,8.5c19.6,16.9,49.7,32.2,47.5,35.6
		c-1.2,1.9-37.1-12.1-53.5-14.8c-3-0.5-5.8,6.5-1.9,8.9c12.3,7.7,47.3,18.4,56.7,28.9c10.7,11.9-43.2-12-43.6-2.1
		s28.6,13.7,49.3,22.7c20.7,9,26.8,11.1,41.3,9.9c14.5-1.1,10-4.3,24.8,1.8c14.8,6.1,101.1,65.3,101.1,65.3V476.2z"/>
	<path class="st5" d="M1275.6,481.5l11.4,7c0,0,10-3.4,17.8-17s1.7-22.1,1.7-22.1l-8.9-4.2c0,0,3.2,10.2-5.4,23.8
		C1283.5,482.6,1275.6,481.5,1275.6,481.5z"/>
</g>
<g>
	<path class="st3" d="M1220.1,767c0,0-25.1-99.1-28.2-115.8c-4.1-21.6,13.4-38.1,15-53.1c1.6-15,2-30.2-8-40.1s-17.5-1.5-17.5-1.5
		s-10.2-16.2-21.1-4.7c0,0-17.9-19-23.8-0.5c0,0-18.1-15.3-25,0.4c-3.6,8.1-9.2,40.3-5.3,58.5c3.8,17.6,5.6,25,23.3,36.6
		c13.2,8.6,28.2,108.7,27.7,120.3H1220.1z"/>
	<path class="st3" d="M1163.2,556.5c0,0-8.5,37.7,0.5,39s12.2-15,14-33.6L1163.2,556.5z"/>
	<path class="st4" d="M1115.2,568.2c0,0-6.5,20.9-2.3,31.9c0,0,12.5-6.8,30.9,4.7c13.1,8.1,15.7,20.9,15.7,20.9s-1.8-7.5,16.3-17.2
		c12.4-6.6,26.7-12.6,18.6-31.3C1184.4,553.7,1122.9,556.6,1115.2,568.2z"/>
	<path class="st3" d="M1180.4,558.5c0.3-2.7-6.6,17.8-4.8,28.4c0.6,3.6,9.7,6,11.1,3.6c4.4-7.2,4.3-10,6.2-28.6L1180.4,558.5z"/>
	<path class="st3" d="M1159,554.8c-0.8-2.3-2.2,27.3,0.5,34c1.3,3.3,8.8,3.6,10.5,1c3.7-5.8,3.4-17.3,7.5-31.3L1159,554.8z"/>
	<path class="st3" d="M1137.8,553.8c0,0,0,36.5,9,36.6c11.3,0.1,8.5-16,10.4-34.6L1137.8,553.8z"/>
	<path class="st3" d="M1117.1,553.8c0,0,0,39.5,9,39.6c11.3,0.1,8.5-19,10.4-37.6L1117.1,553.8z"/>
	<path class="st6" d="M1112.9,600.1l21.6-27.5c0,0,15.3-7.4,28-7.4c9.8,0,9.5,8.1,1.5,13c-9.5,5.8-17.5,7.6-17.5,7.6l-2.6,18.9"/>
</g>
<g>
	<path class="st3" d="M1366.2,255.4c0,0-53.8-3.3-69-12.3c-15.2-9-10.5-8.1-22.1-18.3c-16.2-14.3-51.7-20.5-51.7-20.5
		c-11.8,2.9-19.3,14.1-14.7,20.1c0,0-18.6,7.1-12.3,17.9c0,0-15.2,16.9-4.2,21.9c5.3,2.5-64.7-7.8-69.9-0.7c-5.2,7.1-0.1,8.7,5.8,11
		c9,3.4,55.4,8.8,62.3,9.3s26.9,9.5,41.3,10.6c14.4,1.1,32.8,2.7,44.5-2.8c11.7-5.5,89.9,18.1,89.9,18.1V255.4z"/>
	<path class="st7" d="M1207.1,277.2c5.4,3.3,19.9,4.5,19.9,4.5l15.2-15.9c0,0,12.9-10.3,28.6-8.1c0,0-7.8-28.5-22.5-37.4
		c-14.7-8.8-23.7-5.3-23.7-5.3s-15.1,16-16.5,26.6C1207.2,249.2,1193.9,269.2,1207.1,277.2z"/>
	<path class="st3" d="M1213.7,226.9c-2.5-1,15.5,10.8,26.3,11.8c3.6,0.3,8.2-7.9,6.2-9.9c-5.8-6-8.6-6.7-26.1-13.2L1213.7,226.9z"/>
	<path class="st3" d="M1201.8,245.9c-0.8,1.7,27.6,10.5,34.7,9.6c3.5-0.4,5.7-7.6,3.6-9.9c-4.7-5-16.1-6.6-30.4-15.6L1201.8,245.9z"
		/>
	<path class="st3" d="M1194,263.5c-2.4,0.1,26,8.7,33,8.1c3.4-0.3,5.4-6.6,3.2-8.6c-4.8-4.6-16-7.2-28.7-14.2L1194,263.5z"/>
	<path class="st6" d="M1227.5,283l-14-18.4c0,0-3.3-16.7-0.1-28.9c2.5-9.5,10.2-7.2,12.9,1.8c3.2,10.7,3,18.8,3,18.8l17.7,7.3"/>
</g>
<g>
	<path class="st3" d="M0,577.9c0,0,50.7-39.4,68-42.8c17.3-3.4,13.5,1.4,28.7-1.1s44.8-9.9,51.6-19.9c6.9-10,5.6-22.6-1.8-24
		c0,0,10.5-17.4-1.3-21.2c0,0,53.1-22.4,58.9-28.6s2.9-12.2-4.6-12.9c-7.6-0.7-62.2,25.4-67.1,22.1c-4.9-3.3,40.3-47.2,39.4-56
		c-0.9-8.8-6.6-8.1-11.7-4.3c-5.1,3.8-38.5,39.7-44,43.9c-5.5,4.2-21.9,11.4-33.4,20.2s-26.3,19.8-31.4,31.7S0,518.2,0,518.2
		L0,577.9z"/>
	<path class="st7" d="M109.4,448c-6.2,1.2-19.5,14.3-19.5,14.3l1.4,23.1c0,0,1.2,15.5-13.3,21.4c0,0,24.8,16.1,41.7,12.9
		s16.7-11.8,16.7-11.8s0.2-25.2-2.3-33.5C131.8,467,124.5,445.2,109.4,448z"/>
	<path class="st3" d="M142.2,491.8c0,0-27.6,2.3-27.7,12.6c-0.2,10.2,35.7,1.2,35.7,1.2L142.2,491.8z"/>
	<path class="st3" d="M137.1,471.7c0,0-32.6,6.4-33.6,17.1c-1,10.7,40.3-1.4,40.3-1.4L137.1,471.7z"/>
	<path class="st6" d="M89,463l20.5,1.8c0,0,13.7,10,19.8,21.1c4.7,8.7-2.6,12.2-10.7,7.5c-9.6-5.6-15-11.8-15-11.8l-13,5.2"/>
</g>
</svg>
