<?xml version="1.0" encoding="utf-8"?>
<!-- Generator: Adobe Illustrator 19.1.0, SVG Export Plug-In . SVG Version: 6.00 Build 0)  -->
<svg version="1.1" id="Capa_1" xmlns="http://www.w3.org/2000/svg" xmlns:xlink="http://www.w3.org/1999/xlink" x="0px" y="0px"
	 viewBox="0 0 503.2 301.5" style="enable-background:new 0 0 503.2 301.5;" xml:space="preserve">
<style type="text/css">
	.st0{fill:#FF4A0F;}
	.st1{fill:#FFFFFF;}
	.st2{fill:#F07A1A;}
	.st3{fill:#1C75F7;}
	.st4{fill:#FF961C;}
	.st5{fill:#404040;}
</style>
<g>
	<path id="XMLID_181_" class="st0" d="M221.6,95.9c-1.4-43.8-41-77.3-88.5-76.4c-11.3,0.2-25,2-37.5,8.2
		c-13.1,6.5-26.2,17.7-35.6,33.8c-3.4,5.8-6,12.1-7.8,18.7c-0.7,1.2-1.5,2.5-2.5,3.8c-8.9,11.8-24.5,9.5-24.5,9.5
		c0,25.4,28.6,29.5,28.6,29.5c11.3,32.9,45.2,56.2,84.5,54.9C185.7,176.4,223.1,139.6,221.6,95.9z"/>
	<path id="XMLID_180_" class="st1" d="M72.7,119.9c5.1-31.7,35.3-52.9,69.7-47.4c8.6,1.4,16.5,4.3,23.4,8.4
		c6.5,3.9,17.4,14.3,21.4,20.5c2.3,3.3,3.6,6,4.5,8.5c1.9,4.6,3.3,9.4,3.9,14.3c0.4,1,0.9,1.9,1.5,3c8,14.8,19,5,19,5
		c-4.3,23-25.5,30.1-25.5,30.1c-11.3,22.9-38.1,29.6-66.6,25C89.5,181.7,67.6,151.6,72.7,119.9z"/>
	<path id="XMLID_179_" class="st2" d="M130.9,192c0,0,11.5,24.8,19.1,20.1c7.6-4.7-10.1-24.6-10.1-24.6L130.9,192z"/>
	<path id="XMLID_178_" class="st2" d="M139.2,185.1c0,0,14.3,21.3,19.6,17.2c7.1-5.5-9-21-9-21L139.2,185.1z"/>
	<path id="XMLID_177_" class="st2" d="M121.9,199.9c0,0,11.2,19,17.3,15.4c5.9-3.4-10.5-23.3-10.5-23.3L121.9,199.9z"/>
	<path id="XMLID_176_" class="st3" d="M80.7,124.8c4.5-28.1,32.9-46.9,63.4-42c7.6,1.2,14.5,3.9,20.8,7.4c6.3,3.6,15.5,12.6,19,18.2
		c2.1,2.9,3.2,5.4,4,7.6c1.7,4,2.9,8.3,3.5,12.7c0.4,0.8,0.8,1.7,1.3,2.7c7.1,13.1,16.8,9.2,16.8,9.2c-6.7,12.5-22.6,15.6-22.6,15.6
		c-10,20.3-33.8,32.5-59,28.4C97.2,179.7,76.2,152.9,80.7,124.8z"/>
	<path id="XMLID_175_" class="st4" d="M78,252.1c0,0,3.5,3.7,12.4,7.2c12.4,4.9,19,4.4,19,4.4s1.9-12.8,5-17.9
		c3.1-5.1,8.6-6.6,11.6-14.6c5.2-13.6,1-18.1,6.2-30.7c3.8-9.3,11.6-14.9,13.8-23.9c1.9-7.8-5.5-11.6-10.6-7.8
		c-6.6,4.9-11,15.1-11,15.1c-17.7-3.8-27.9-14.4-27.9-14.4s-13.3,13.5-15.6,18.1s3.9,29.2,4.2,39.2C85.4,235.8,80.5,246.1,78,252.1z
		"/>
	<path id="XMLID_174_" class="st2" d="M124.4,183.8c0,0-3,5.9-8.5,12.7c0,0-6.9-4.1-4.3-11c0.7-2,1.8-5.3,1.8-5.3
		C119.5,183,123.9,183.6,124.4,183.8z"/>
	<g id="XMLID_54_">
		<g>
			<path id="XMLID_378_" class="st5" d="M230.4,153.3v25.3h11c10.3,0,17-7.7,17-17.6c0-9.9-6.6-17.7-16.9-17.7h-11v0h-3v-2.8h14.1
				c12.2,0,19.8,9.2,19.8,20.4c0,11.4-7.6,20.4-19.8,20.4h-14.1v-28H230.4z"/>
			<path id="XMLID_375_" class="st5" d="M270.3,141.3c0.9,0,1.9,0.7,1.9,2c0,1.2-0.9,1.9-1.9,2c-1,0.1-2-0.6-2-2
				C268.4,141.9,269.4,141.3,270.3,141.3z M271.7,181.3h-2.7v-28h2.7V181.3z"/>
			<path id="XMLID_373_" class="st5" d="M281.2,173.6c0.5,4.1,5.1,6,9.6,6c4.6,0,9.3-1.9,9.3-5.9c0-4.8-5.5-5.2-9.3-5.7
				c-5.6-0.6-11.6-1.6-11.6-7.4c0-5.8,5.6-8,11.4-8c5.8,0,11.4,2.4,11.4,7.4h-2.6c0-3.5-4.4-5.1-8.8-5.1c-4.3,0-9.2,1.6-8.9,5.6
				c0,4.3,6.1,4.7,9.4,5c5.8,0.8,11.8,1.8,11.6,8.1c0,5.6-5.7,8.2-12.1,8.2c-6,0-11.7-2.3-12.3-8.3H281.2z"/>
			<path id="XMLID_371_" class="st5" d="M332.7,160.9c-1.8-4-5.7-5.9-9.8-5.9c-6,0-12.2,4.1-12.2,12.1c0,8,6.1,12.1,12,12.1
				c4.3,0,8.5-2.2,10.3-6.7h2.8c-1.9,6.2-7.6,9.2-13.2,9.2c-7.2,0-14.6-5-14.6-14.6c0-9.7,7.6-14.6,14.9-14.6
				c5.4,0.1,10.7,2.8,12.6,8.4H332.7z"/>
			<path id="XMLID_369_" class="st5" d="M344.5,153.2v17.1c0,5.6,3.7,9,9.2,9c5.6,0.1,8.9-3.7,8.9-9.5v-16.6h2.8v21
				c0,4.5,0.5,5.4,3.6,5l0.1,2.3c-4.3,0.6-6.1-0.1-6.1-4.6c-2.6,3.9-5.4,5.1-9.9,5.1c-7.1,0-11.3-4.9-11.3-11.7v-17.1H344.5z"/>
			<path id="XMLID_367_" class="st5" d="M375.5,173.6c0.5,4.1,5.1,6,9.6,6c4.6,0,9.3-1.9,9.3-5.9c0-4.8-5.5-5.2-9.3-5.7
				c-5.6-0.6-11.6-1.6-11.6-7.4c0-5.8,5.6-8,11.4-8c5.8,0,11.4,2.4,11.4,7.4h-2.6c0-3.5-4.4-5.1-8.8-5.1c-4.3,0-9.2,1.6-8.9,5.6
				c0,4.3,6.1,4.7,9.4,5c5.8,0.8,11.8,1.8,11.6,8.1c0,5.6-5.7,8.2-12.1,8.2c-6,0-11.7-2.3-12.3-8.3H375.5z"/>
			<path id="XMLID_364_" class="st5" d="M405.6,141.3c0.9,0,1.9,0.7,1.9,2c0,1.2-0.9,1.9-1.9,2c-1,0.1-2-0.6-2-2
				C403.6,141.9,404.6,141.3,405.6,141.3z M406.9,181.3h-2.7v-28h2.7V181.3z"/>
			<path id="XMLID_360_" class="st5" d="M413.8,167.2c0-19.4,29.5-19.4,29.5,0C443.3,186.5,413.8,186.5,413.8,167.2z M440.5,167.2
				c0-16.1-23.9-16.1-23.9,0C416.6,183.1,440.5,183.2,440.5,167.2z M427,146.6l4.6-7.1l2.3,1.1v0.3l-4.6,5.9H427V146.6z"/>
			<path id="XMLID_358_" class="st5" d="M446.8,153c4.2-1,6.4,1.1,6.4,4v1.3c2-4.2,5.9-5.7,10.4-5.7c7.1,0,11.4,5.1,11.4,11.8v10.8
				c0,3,0.5,4.6,3.8,4v2.2c-5,0.9-6.6-0.9-6.6-5.9v-11.1c0-5.6-3.9-9.4-9.2-9.4c-5.5,0-9.5,3.9-9.5,9.6v16.7h-2.8V161
				c0-4.7,0.2-6.4-3.7-5.9L446.8,153z"/>
			<path id="XMLID_355_" class="st5" d="M231.2,224.6l-5.5,11.8h-3.1V236l19.1-40.6h1.3l19,40.6v0.4h-3l-5.5-11.8H231.2z M232.2,222
				h20.3l-10.1-21.8L232.2,222z"/>
			<path id="XMLID_352_" class="st5" d="M267.2,194.1h2.6v20.4c1.6-3.6,5.3-6.7,10.7-6.7c6.8,0,13.1,4.8,12.8,14.9
				c-0.3,9.6-6.7,14.5-15.4,14.5c-3.9,0-7.4-1.1-10.9-2.6V194.1z M269.9,232.7c2.8,1.2,5.6,1.9,8.3,1.9c7.2,0,12.1-4.4,12.3-12
				c0.2-8.4-4.3-12.4-10.4-12.4c-6.9,0-10.2,6.6-10.2,12.4V232.7z"/>
			<path id="XMLID_349_" class="st5" d="M301.9,196.4c0.9,0,1.9,0.7,1.9,2c0,1.2-0.9,1.9-1.9,2c-1,0.1-2-0.6-2-2
				C300,197.1,300.9,196.4,301.9,196.4z M303.3,236.4h-2.7v-28h2.7V236.4z"/>
			<path id="XMLID_346_" class="st5" d="M335,234.9c-3.1,1.3-6.4,1.9-9.6,1.9c-10.3,0-16.2-6.4-15.1-16.6
				c0.9-7.9,6.5-12.5,14.4-12.6c5.5,0,12.2,2.8,11.6,9.2c-0.5,5.8-6.4,7.8-11.3,7.8c-4,0-9-0.9-12.1-3.4c-0.8,8.1,4.3,13,12.7,13
				c3.1,0,6.5-0.6,9.5-2V234.9z M324.6,222.1c3.7,0,8.5-1.1,8.8-5.4c0.5-4.7-4.7-6.5-8.8-6.5c-5.9-0.1-10.3,2.8-11.4,8.6
				C315.8,221.2,320.9,222.1,324.6,222.1z"/>
			<path id="XMLID_344_" class="st5" d="M355.2,207.7c2.7,0.1,5.3,0.9,7.2,2.2l-1,2.5c-1.8-1.3-4.1-1.9-6.4-1.9
				c-4.2,0-8.2,3-8.2,7.8v18.2h-2.8v-21.7c0-2.7-0.1-4.5-3.6-4l-0.1-2.4c4.5-0.8,6.4,0.4,6.4,3.7
				C348.4,208.7,351.9,207.5,355.2,207.7z"/>
			<path id="XMLID_342_" class="st5" d="M375.1,208.3H386v2.3h-10.9v15.2c0,8.6,4.1,10.2,11.9,7.4l0.4,2.5
				c-9.6,3.3-15.1,0.5-15.1-9.7v-15.2l-6.4-0.2v-2.2h6.4l0.2-8.6h2.6V208.3z"/>
			<path id="XMLID_339_" class="st5" d="M416.1,229.6c0,3-0.1,4.8,3.6,4.3l0.1,2.5c-4.6,0.7-6.1-1.1-6.1-5.2v-1.4
				c-2.1,4.7-6.2,6.9-11.1,6.9c-8.5,0-12.8-6.8-12.8-14.7c0.2-9,6.4-14.3,15.4-14.3c3.8,0,7.4,1,10.9,2.6V229.6z M413.5,212.1
				c-2.7-1.3-5.7-2-8.3-2c-7.2,0-12.3,4.4-12.5,12c0,6.5,3.6,12.1,10.4,12.1c6.5,0,10.3-4.9,10.3-11.9V212.1z"/>
		</g>
	</g>
</g>
</svg>
