<?xml version="1.0" encoding="utf-8"?>
<!-- Generator: Adobe Illustrator 19.1.0, SVG Export Plug-In . SVG Version: 6.00 Build 0)  -->
<svg version="1.1" id="Capa_1" xmlns="http://www.w3.org/2000/svg" xmlns:xlink="http://www.w3.org/1999/xlink" x="0px" y="0px"
	 viewBox="0 0 193.8 143" style="enable-background:new 0 0 193.8 143;" xml:space="preserve">
<style type="text/css">
	.st0{fill:#FFFFFF;}
	.st1{opacity:0.41;fill:#3E6296;}
	.st2{fill:#666666;}
	.st3{fill:#333333;}
	.st4{fill:#A8CAFC;}
	.st5{fill:none;stroke:#3E6296;stroke-width:2.8693;stroke-miterlimit:10;}
	.st6{fill:#FFE13B;}
	.st7{fill:none;}
	.st8{fill-rule:evenodd;clip-rule:evenodd;fill:#FFFFFF;}
</style>
<g>
	<circle class="st0" cx="108.8" cy="71.5" r="59.5"/>
	<circle class="st1" cx="108.8" cy="71.5" r="71.5"/>
	<g>
		<path class="st2" d="M126.2,120.8H14.1c-3.5,0-6.3-2.8-6.3-6.3V41.1c0-3.5,2.8-6.3,6.3-6.3h112.1c3.5,0,6.3,2.8,6.3,6.3v73.3
			C132.5,118,129.7,120.8,126.2,120.8z"/>
		<rect x="15" y="41.2" class="st0" width="111.4" height="58.7"/>
		<g>
			<path class="st3" d="M84.4,105.2c-0.3,3.3-3,5.9-6.3,5.9H62.2c-3.3,0-6.1-2.6-6.3-5.9H0v6.1c0,5.3,4.3,9.6,9.6,9.6h121.1
				c5.3,0,9.6-4.3,9.6-9.6v-6.1H84.4z"/>
		</g>
		<rect x="25.7" y="52.1" class="st4" width="41.5" height="38.3"/>
		<line class="st5" x1="76.4" y1="55.7" x2="115.9" y2="55.7"/>
		<line class="st5" x1="76.4" y1="61.6" x2="115.9" y2="61.6"/>
		<line class="st5" x1="76.4" y1="67.5" x2="115.9" y2="67.5"/>
		<line class="st5" x1="76.4" y1="73.4" x2="104.9" y2="73.4"/>
	</g>
	<path id="XMLID_55_" class="st6" d="M193.4,50.1C190.3,31,171,18.2,150.3,21.5c-5.2,0.8-9.9,2.6-14.1,5.1c-0.8,0.2-2,0.9-3.7,2.4
		c0,0,0,0,0,0c-3.7,2.8-6.8,6.1-9.2,9.9c-1.4,2-2.2,3.6-2.7,5.1c-1.2,2.8-2,5.7-2.4,8.6c-0.2,0.6-0.5,1.2-0.9,1.8
		c-4.8,8.9-11.4,6.2-11.4,6.2c4.6,8.5,15.4,10.6,15.4,10.6c6.8,13.8,23,22.1,40.2,19.3C182.2,87.4,196.5,69.2,193.4,50.1z"/>
	<g>
		<g>
			<rect x="136" y="55.7" class="st7" width="10.4" height="10.1"/>
			<ellipse class="st8" cx="143.2" cy="57.8" rx="5.2" ry="5.1"/>
		</g>
		<g>
			<rect x="150.8" y="55.7" class="st7" width="10.4" height="10.1"/>
			<ellipse class="st8" cx="158" cy="57.8" rx="5.2" ry="5.1"/>
		</g>
		<g>
			<rect x="165.7" y="55.7" class="st7" width="10.4" height="10.1"/>
			<ellipse class="st8" cx="172.9" cy="57.8" rx="5.2" ry="5.1"/>
		</g>
	</g>
</g>
</svg>
