<?xml version="1.0" encoding="utf-8"?>
<!-- Generator: Adobe Illustrator 19.1.0, SVG Export Plug-In . SVG Version: 6.00 Build 0)  -->
<svg version="1.1" id="Capa_1" xmlns="http://www.w3.org/2000/svg" xmlns:xlink="http://www.w3.org/1999/xlink" x="0px" y="0px"
	 viewBox="-204 244.7 381.1 124.3" style="enable-background:new -204 244.7 381.1 124.3;" xml:space="preserve">
<style type="text/css">
	.st0{fill:#1558B9;}
	.st1{fill:#1C75F7;}
	.st2{fill:#071D3E;}
	.st3{enable-background:new    ;}
	.st4{fill:#10428B;}
	.st5{fill:#FFFFFF;}
</style>
<g>
	<polygon class="st0" points="-124.9,357.6 -204,357.6 -179,324.9 -204,292.2 -124.9,292.2 	"/>
	<polygon class="st0" points="177.1,357.6 98,357.6 98,292.2 177.1,292.2 152.1,324.9 	"/>
	<rect x="-163.7" y="260.9" class="st1" width="303.3" height="78.9"/>
	<polygon class="st2" points="98,357.6 139.6,339.8 98,339.8 	"/>
	<polygon class="st2" points="-163.7,339.8 -124.9,339.8 -124.9,357.6 	"/>
</g>
<g class="st3">
	<path class="st4" d="M-154.7,284.9c0.4-1.4,1-2.4,1.8-3.2c0.8-0.7,1.7-1.1,2.6-1.1c1,0,1.9,0.2,2.7,0.6c0.8,0.4,1.1,1.1,1.1,2.1
		c0,2-0.2,3.7-0.7,5.2c-0.5,1.5-1.1,3-1.9,4.2c-0.8,1.3-1.7,2.5-2.7,3.5c-1,1.1-2.1,2.1-3.2,3.1c-1.1,1-2.1,2-3.2,2.9
		c-1,1-1.9,2-2.7,3.1c-0.8,1.1-1.5,2.3-1.9,3.6c-0.5,1.3-0.7,2.7-0.7,4.3c0,1.4,0.1,2.5,0.4,3.4c0.3,0.9,0.7,1.6,1.2,2.2
		s1.1,0.9,1.8,1.2c0.7,0.2,1.5,0.3,2.3,0.3c0.8,0,1.6-0.2,2.5-0.5s1.7-0.7,2.5-1.2c0.8-0.5,1.6-1,2.3-1.7c0.7-0.6,1.3-1.2,1.8-1.9
		c0.4-0.5,0.9-0.9,1.4-1.2s1-0.3,1.5-0.3c0.5,0,1.1,0.1,1.6,0.4c0.5,0.3,1,0.6,1.4,1.1c0.4,0.5,0.7,1,0.9,1.6
		c0.2,0.6,0.3,1.2,0.3,1.9c0,0.3-0.1,0.6-0.2,1c-0.1,0.3-0.3,0.7-0.5,1c-0.9,1.3-1.9,2.4-3.1,3.5c-1.2,1-2.5,1.9-3.8,2.5
		c-1.4,0.7-2.8,1.2-4.3,1.5c-1.5,0.3-2.9,0.5-4.3,0.5c-1.8,0-3.6-0.3-5.5-0.8c-1.9-0.6-3.7-1.4-5.3-2.6c-1.6-1.2-2.9-2.7-4-4.5
		c-1-1.8-1.6-4-1.6-6.6c0-3.1,0.4-5.7,1.1-7.8c0.7-2.2,1.7-4,2.8-5.7c1.2-1.6,2.5-3,3.9-4.3c1.4-1.2,2.9-2.4,4.3-3.6
		c1.4-1.2,2.8-2.4,4.1-3.6S-155.6,286.6-154.7,284.9z M-156.2,267.9c0-0.1,0-0.4,0-0.9c0-0.5,0.1-1,0.3-1.6c0.2-0.6,0.4-1.2,0.7-1.9
		c0.3-0.7,0.8-1.3,1.4-1.9c0.6-0.6,1.4-1.1,2.3-1.4c0.9-0.4,2-0.6,3.4-0.6c1.1,0,2,0.1,2.9,0.4c0.9,0.3,1.6,0.7,2.2,1.3
		c0.6,0.6,1.1,1.3,1.4,2.2s0.5,1.9,0.5,3.2c0,1-0.2,2.1-0.5,3c-0.3,1-0.8,1.9-1.4,2.7c-0.6,0.8-1.5,1.4-2.5,1.9
		c-1,0.5-2.2,0.7-3.6,0.7c-2.4,0-4.2-0.6-5.4-1.8C-155.6,271.9-156.2,270.2-156.2,267.9z"/>
	<path class="st4" d="M-64.8,282.9c0,3.4-0.3,6.9-0.9,10.7c-0.6,3.8-1.5,7.5-2.7,11.2c-1.2,3.7-2.7,7.3-4.6,10.8
		c-1.8,3.5-4,6.6-6.5,9.3s-5.4,5-8.5,6.9c-3.2,1.8-6.7,3-10.6,3.5c1.4,1.4,2.6,2.7,3.6,3.9c1.1,1.3,2.1,2.4,3.1,3.4
		c1,1,2.1,1.8,3.2,2.4c1.1,0.6,2.3,0.9,3.8,0.9c1.4,0,2.7-0.4,4-1.1c1.3-0.7,2.5-1.5,3.6-2.4c1.2-1,2.4-2.2,3.5-3.5
		c0.3-0.2,0.6-0.4,0.9-0.4c0.3,0,0.5,0,0.7,0c0.7,0.1,1.4,0.4,1.9,0.9c0.5,0.4,0.9,1,1.2,1.6c0.3,0.6,0.5,1.2,0.6,1.9
		c0.1,0.7,0.2,1.3,0.2,1.9c0,0.7-0.1,1.3-0.2,1.6s-0.3,0.5-0.5,0.7c0,0-0.3,0.3-0.8,0.8c-0.5,0.5-1.2,1.1-2.1,1.9
		c-0.9,0.7-1.9,1.6-3.2,2.4c-1.2,0.9-2.6,1.7-4.1,2.4c-1.5,0.7-3.1,1.3-4.8,1.8c-1.7,0.5-3.4,0.7-5.2,0.7c-2.2,0-4-0.4-5.6-1.3
		c-1.5-0.8-2.8-1.9-3.9-3.2c-1.1-1.3-2-2.8-2.7-4.4c-0.7-1.6-1.3-3.2-1.9-4.7c-0.6-1.5-1.1-2.9-1.6-4.2c-0.5-1.3-1.1-2.3-1.8-2.9
		c-4.4-0.8-8.1-2.2-11.2-4.4c-3.1-2.1-5.7-4.7-7.6-7.8c-2-3.1-3.4-6.6-4.4-10.4s-1.4-7.9-1.4-12.1c0-3.9,0.4-8,1.1-12.1
		c0.7-4.1,1.8-8.2,3.3-12.1c1.5-3.9,3.3-7.6,5.4-11.1c2.2-3.5,4.7-6.5,7.6-9.2c2.9-2.6,6.1-4.7,9.7-6.2c3.6-1.5,7.5-2.3,11.8-2.3
		c4.3,0,8.1,0.8,11.5,2.5c3.4,1.6,6.3,4,8.6,6.9c2.4,3,4.2,6.6,5.4,10.8C-65.5,273.1-64.8,277.8-64.8,282.9z M-102.2,326.1
		c2.2,0,4.2-0.5,6.1-1.4c1.9-0.9,3.6-2.1,5.2-3.7c1.6-1.6,3-3.4,4.3-5.5c1.3-2.1,2.4-4.4,3.4-6.8c1-2.4,1.9-4.9,2.6-7.5
		s1.4-5.1,1.9-7.6c0.5-2.5,0.8-5,1.1-7.3c0.2-2.3,0.3-4.5,0.3-6.4c0-3.3-0.3-6.3-0.9-9.1c-0.6-2.8-1.5-5.2-2.6-7.3
		c-1.2-2.1-2.7-3.7-4.5-4.8c-1.8-1.2-3.9-1.7-6.3-1.7c-2.4,0-4.8,0.7-7.1,2c-2.3,1.4-4.5,3.2-6.5,5.5c-2,2.3-3.9,5-5.5,8
		c-1.7,3-3.1,6.2-4.3,9.6c-1.2,3.4-2.1,6.8-2.8,10.3c-0.7,3.5-1,6.8-1,10c0,3.4,0.4,6.5,1.1,9.4c0.7,2.9,1.8,5.4,3.2,7.5
		c1.4,2.1,3.1,3.8,5.2,5C-107.2,325.5-104.8,326.1-102.2,326.1z"/>
	<path class="st4" d="M-32.2,290.2c0,0.8-0.1,1.8-0.3,3.2c-0.2,1.3-0.4,2.8-0.7,4.4s-0.6,3.2-0.9,4.9c-0.3,1.7-0.6,3.3-0.9,4.8
		c-0.3,1.5-0.5,2.8-0.7,3.9c-0.2,1.1-0.3,1.9-0.3,2.3c0,0.8,0,1.5,0,2.2c0,0.7,0.1,1.3,0.3,1.8c0.1,0.5,0.4,0.9,0.7,1.2
		c0.3,0.3,0.7,0.4,1.3,0.4c0.6,0,1.4-0.2,2.3-0.5c0.9-0.3,1.9-0.7,2.9-1.3s2.1-1.1,3.1-1.8c1.1-0.7,2.1-1.4,3-2.1
		c1-0.7,1.8-1.5,2.6-2.2c0.8-0.7,1.4-1.4,1.9-2.1c0,1,0,1.8,0,2.6c0,0.8,0,1.5,0,2.2c0,0.7,0,1.4,0,2.2c0,0.7,0,1.6,0,2.5
		c-0.6,0.6-1.4,1.3-2.4,2c-0.9,0.7-2,1.4-3.1,2.2c-1.1,0.7-2.3,1.4-3.6,2.1c-1.3,0.7-2.6,1.2-3.9,1.8s-2.6,0.9-3.8,1.2
		c-1.3,0.3-2.4,0.5-3.5,0.5c-1.1,0-2-0.2-2.8-0.6c-0.8-0.4-1.4-1-2-1.8c-0.6-0.8-1-1.7-1.4-2.8c-0.4-1.1-0.7-2.3-1-3.6
		c-1,1.4-2.1,2.6-3.3,3.7c-1.2,1.1-2.3,2.1-3.5,3c-1.2,0.8-2.4,1.5-3.6,2c-1.2,0.5-2.4,0.7-3.6,0.7c-1,0-1.8-0.2-2.7-0.5
		c-0.8-0.3-1.6-0.8-2.2-1.6c-0.6-0.7-1.2-1.7-1.5-3c-0.4-1.2-0.6-2.7-0.6-4.6c0-2.2,0.3-5,0.8-8.5c0.5-3.4,1.2-7.3,2-11.8
		c0.1-0.4,0.2-1,0.3-1.8c0.2-0.7,0.4-1.5,0.6-2.4c0.3-0.9,0.6-1.7,1-2.6c0.4-0.9,0.9-1.7,1.4-2.4c0.5-0.7,1.2-1.3,1.9-1.8
		s1.6-0.7,2.5-0.7c1.5,0.1,2.6,0.3,3.3,0.6c0.7,0.3,1,0.7,1,1.2c-0.3,1.5-0.5,3.2-0.8,5.1c-0.3,1.9-0.6,3.8-0.9,5.7
		c-0.3,1.9-0.6,3.8-0.9,5.6c-0.3,1.8-0.5,3.4-0.8,4.8c-0.2,1.4-0.4,2.5-0.5,3.4c-0.1,0.9-0.2,1.3-0.2,1.3c0,0.5,0,1,0.2,1.5
		c0.1,0.5,0.3,0.9,0.5,1.3c0.2,0.4,0.5,0.7,0.8,0.9c0.3,0.2,0.7,0.3,1.1,0.3c0.6,0,1.3-0.2,1.9-0.5c0.7-0.3,1.3-0.8,1.9-1.4
		c0.6-0.6,1.1-1.4,1.6-2.3c0.5-0.9,0.8-1.9,1-3.1l4.3-22c0.1-0.7,0.7-1.3,1.8-1.8c1-0.5,2.2-0.7,3.5-0.7c1.5,0,2.6,0.3,3.5,0.8
		S-32.2,289.4-32.2,290.2z"/>
	<path class="st4" d="M-8.3,328.9c-2.7,0-5.1-0.5-7.1-1.5c-2-1-3.7-2.3-5.1-4c-1.4-1.7-2.4-3.6-3-5.7c-0.7-2.2-1-4.5-1-6.8
		c0-1.6,0.2-3.3,0.5-5.1c0.3-1.8,0.8-3.6,1.4-5.3c0.6-1.7,1.5-3.4,2.4-4.9c1-1.6,2.1-3,3.4-4.1c1.3-1.2,2.8-2.1,4.4-2.9
		c1.6-0.7,3.4-1.1,5.4-1.1c1.6,0,3.1,0.3,4.5,0.8s2.6,1.2,3.6,2.2c1,0.9,1.8,2.1,2.4,3.4s0.9,2.8,0.9,4.5c0,1.8-0.4,3.6-1.3,5.4
		c-0.9,1.8-2.1,3.5-3.7,5.1c-1.6,1.6-3.4,3-5.6,4.2c-2.1,1.2-4.5,2.2-7,2.9c0.4,0.8,0.9,1.4,1.3,1.9c0.4,0.5,0.8,0.9,1.3,1.2
		c0.4,0.3,0.9,0.5,1.4,0.6c0.5,0.1,1,0.2,1.5,0.2c1.7,0,3.5-0.3,5.5-1c1.9-0.7,3.8-1.6,5.6-2.6c1.8-1,3.5-2.2,5.1-3.4
		c1.6-1.2,3-2.4,4.1-3.5l5.6,5.8c-2.5,2.6-5.2,4.9-8.1,7c-1.2,0.9-2.6,1.7-4,2.5c-1.4,0.8-2.9,1.6-4.5,2.2c-1.6,0.6-3.2,1.2-4.9,1.6
		C-4.9,328.7-6.6,328.9-8.3,328.9z M-14.1,308.6c1,0,2.2-0.3,3.4-0.8c1.2-0.5,2.4-1.2,3.4-2.1c1.1-0.8,1.9-1.7,2.7-2.7
		c0.7-1,1.1-1.9,1.1-2.9c0-1.3-0.2-2.4-0.7-3.2c-0.5-0.8-1.1-1.3-1.8-1.3c-1.2,0-2.3,0.2-3.2,0.7s-1.6,1.1-2.2,1.8
		c-0.6,0.7-1.1,1.6-1.4,2.5c-0.4,0.9-0.6,1.9-0.8,2.8c-0.2,1-0.3,1.9-0.4,2.8C-14,307.2-14.1,308-14.1,308.6z M-8,275.5
		c0.2-0.4,0.4-0.9,0.7-1.7c0.3-0.8,0.7-1.6,1.1-2.6c0.4-1,0.9-2,1.3-3.1c0.5-1.1,1-2.2,1.4-3.3c1.1-2.6,2.3-5.4,3.7-8.4
		c0.4-1,0.9-1.7,1.7-2.1c0.8-0.4,1.6-0.6,2.4-0.6c0.7,0,1.5,0.1,2.2,0.4c0.7,0.3,1.4,0.7,2,1.2c0.6,0.5,1.1,1.1,1.4,1.9
		c0.4,0.7,0.6,1.5,0.6,2.4c0,1.4-0.5,2.8-1.6,4.2c-0.5,0.7-1.2,1.6-1.9,2.5C6.4,267,5.7,268,4.9,269c-0.8,1-1.5,2-2.3,3
		c-0.8,1-1.5,1.9-2.3,2.8c-0.7,0.9-1.4,1.7-2,2.4c-0.6,0.7-1.1,1.3-1.4,1.7c-0.5,0.6-1,1-1.5,1.2c-0.5,0.2-1,0.4-1.5,0.4
		c-0.7,0-1.3-0.3-1.8-0.8c-0.5-0.5-0.7-1.2-0.7-2.1c0-0.3,0-0.6,0.1-1C-8.3,276.2-8.2,275.9-8,275.5z"/>
	<path class="st4" d="M49.2,328.9c-2.7,0-5.1-0.5-7.1-1.5s-3.7-2.3-5.1-4c-1.4-1.7-2.4-3.6-3-5.7c-0.7-2.2-1-4.5-1-6.8
		c0-1.6,0.2-3.3,0.5-5.1c0.3-1.8,0.8-3.6,1.4-5.3c0.6-1.7,1.5-3.4,2.4-4.9c1-1.6,2.1-3,3.4-4.1s2.8-2.1,4.4-2.9
		c1.6-0.7,3.4-1.1,5.4-1.1c1.6,0,3.1,0.3,4.5,0.8s2.6,1.2,3.6,2.2c1,0.9,1.8,2.1,2.4,3.4c0.6,1.3,0.9,2.8,0.9,4.5
		c0,1.8-0.4,3.6-1.3,5.4s-2.1,3.5-3.7,5.1c-1.6,1.6-3.4,3-5.6,4.2c-2.1,1.2-4.5,2.2-7,2.9c0.4,0.8,0.9,1.4,1.3,1.9
		c0.4,0.5,0.8,0.9,1.3,1.2c0.4,0.3,0.9,0.5,1.4,0.6c0.5,0.1,1,0.2,1.5,0.2c1.7,0,3.5-0.3,5.5-1c1.9-0.7,3.8-1.6,5.6-2.6
		c1.8-1,3.5-2.2,5.1-3.4c1.6-1.2,3-2.4,4.1-3.5l5.6,5.8c-2.5,2.6-5.2,4.9-8.1,7c-1.2,0.9-2.6,1.7-4,2.5c-1.4,0.8-2.9,1.6-4.5,2.2
		c-1.6,0.6-3.2,1.2-4.9,1.6C52.7,328.7,51,328.9,49.2,328.9z M43.5,308.6c1,0,2.2-0.3,3.4-0.8c1.2-0.5,2.4-1.2,3.4-2.1
		c1.1-0.8,1.9-1.7,2.7-2.7c0.7-1,1.1-1.9,1.1-2.9c0-1.3-0.2-2.4-0.7-3.2c-0.5-0.8-1.1-1.3-1.8-1.3c-1.2,0-2.3,0.2-3.2,0.7
		c-0.9,0.5-1.6,1.1-2.2,1.8s-1.1,1.6-1.4,2.5c-0.4,0.9-0.6,1.9-0.8,2.8c-0.2,1-0.3,1.9-0.4,2.8C43.5,307.2,43.5,308,43.5,308.6z"/>
	<path class="st4" d="M67.3,312.3c1.6-1.4,2.9-2.5,3.9-3.5c1-0.9,1.9-1.8,2.6-2.5c0.7-0.8,1.4-1.5,2-2.3c0.6-0.8,1.3-1.7,2.1-2.8
		c0.8-1.1,1.8-2.4,2.9-3.9c1.2-1.5,2.6-3.5,4.5-5.8c0.4-0.5,0.8-1,1.3-1.5c0.5-0.5,1-0.9,1.5-1.3c0.6-0.4,1.2-0.7,1.9-1
		c0.7-0.2,1.4-0.4,2.3-0.4c1.4,0,2.4,0.2,3.2,0.5c0.7,0.3,1.3,0.7,1.6,1.1c0.3,0.4,0.5,0.9,0.6,1.4s0.1,0.9,0.1,1.2
		c0,0.7-0.3,1.5-0.8,2.3c-0.5,0.8-1.2,1.6-1.8,2.4c-0.7,0.8-1.3,1.5-1.9,2.1c-0.6,0.6-0.9,1.1-1,1.4c0,0.9,0.1,1.7,0.2,2.4
		c0.1,0.7,0.3,1.5,0.5,2.2s0.4,1.5,0.7,2.2c0.2,0.8,0.5,1.7,0.7,2.7c0.2,1,0.4,2.2,0.5,3.6c0.1,1.4,0.2,3,0.2,4.8
		c1-0.7,2.2-1.3,3.3-1.9s2.4-1.1,3.7-1.8c1.3-0.6,2.6-1.3,4-2s2.7-1.6,4.1-2.7l0,9.7c-1.8,1.4-3.9,2.7-6.2,3.9
		c-2.3,1.2-4.8,2.3-7.4,3.2c-2.6,0.9-5.2,1.6-7.8,2.2c-2.6,0.5-5.1,0.8-7.5,0.8c-1.7,0-3.3-0.2-4.8-0.5c-1.5-0.3-2.8-0.8-3.9-1.5
		c-1.1-0.7-2-1.6-2.7-2.7s-1.1-2.4-1.3-4c-0.4,0.1-0.8,0.1-1.2,0.2c-0.4,0-0.8,0-1.1,0c-0.5,0-0.9,0-1.3,0c-0.4,0-0.8-0.1-1-0.3
		c-0.3-0.2-0.5-0.5-0.7-0.9c-0.2-0.4-0.3-1-0.3-1.8c0-0.7,0.2-1.3,0.5-1.9c0.3-0.6,0.7-1.1,1.2-1.6c0.5-0.5,0.9-0.9,1.4-1.2
		S67,312.5,67.3,312.3z M72.8,317.8c0.3,0,0.7,0.2,1.1,0.6c0.4,0.4,0.9,0.9,1.4,1.4c0.5,0.5,1.2,1,1.9,1.4c0.7,0.4,1.5,0.6,2.5,0.6
		c1.1,0,2.1-0.2,2.8-0.6c0.7-0.4,1.3-0.9,1.8-1.5c0.4-0.6,0.7-1.3,0.9-2.2s0.3-1.7,0.3-2.6c0-0.8,0-1.6-0.2-2.4
		c-0.1-0.8-0.2-1.6-0.4-2.3c-0.2-0.7-0.3-1.4-0.5-2.1c-0.2-0.6-0.4-1.2-0.5-1.7L72.8,317.8z"/>
	<path class="st4" d="M132.7,320.6c0,0.1,0,0.4,0,0.9c0,0.5-0.1,1-0.3,1.6c-0.2,0.6-0.4,1.2-0.7,1.9s-0.8,1.3-1.4,1.9
		s-1.4,1.1-2.3,1.4c-0.9,0.4-2,0.6-3.4,0.6c-1.1,0-2-0.1-2.9-0.4s-1.6-0.7-2.2-1.3c-0.6-0.6-1.1-1.3-1.4-2.2
		c-0.3-0.9-0.5-1.9-0.5-3.2c0-1,0.2-2.1,0.5-3c0.3-1,0.8-1.9,1.4-2.7c0.6-0.8,1.5-1.4,2.5-1.9c1-0.5,2.2-0.7,3.6-0.7
		c2.4,0,4.2,0.6,5.4,1.8S132.7,318.4,132.7,320.6z M131.2,303.7c-0.4,1.4-1,2.4-1.8,3.2c-0.8,0.7-1.7,1.1-2.6,1.1
		c-1,0-1.9-0.2-2.7-0.6c-0.8-0.4-1.1-1.1-1.1-2.1c0-2.6,0.4-4.8,1.3-6.8c0.8-1.9,1.9-3.6,3.2-5.1c1.3-1.5,2.6-2.9,4.1-4.2
		s2.9-2.6,4.1-3.9c1.3-1.4,2.3-2.8,3.2-4.4c0.8-1.6,1.3-3.5,1.3-5.6c0-1.2-0.2-2.2-0.7-3.1c-0.4-0.8-1-1.5-1.7-2.1
		c-0.7-0.5-1.5-0.9-2.4-1.2c-0.9-0.2-1.7-0.4-2.6-0.4c-0.7,0-1.4,0.2-2.1,0.6s-1.4,0.9-2,1.4c-0.6,0.5-1.2,1.1-1.6,1.7
		c-0.5,0.6-0.7,1.1-0.9,1.4c-0.5,0.6-1,1-1.7,1.3c-0.6,0.3-1.3,0.4-1.9,0.4c-0.5,0-1.1-0.1-1.6-0.4c-0.5-0.3-1-0.7-1.4-1.2
		c-0.4-0.5-0.7-1.1-1-1.8c-0.3-0.7-0.4-1.4-0.4-2.2c0-0.6,0.2-1.3,0.6-2c0.9-1.3,1.9-2.4,3.1-3.5c1.2-1,2.5-1.9,3.8-2.5
		c1.4-0.7,2.8-1.2,4.3-1.5c1.5-0.3,2.9-0.5,4.4-0.5c1.8,0,3.6,0.3,5.5,0.8c1.9,0.6,3.7,1.4,5.3,2.6c1.6,1.2,2.9,2.7,4,4.6
		c1,1.8,1.6,4,1.6,6.6c0,3.1-0.4,5.7-1.1,7.8c-0.7,2.2-1.7,4-2.8,5.7c-1.2,1.6-2.5,3-3.9,4.3s-2.9,2.4-4.3,3.6s-2.8,2.4-4.1,3.7
		C133.1,300.5,132.1,302,131.2,303.7z"/>
</g>
<g>
	<path class="st5" d="M-150.7,280.9c0.4-1.4,1-2.4,1.8-3.2c0.8-0.7,1.7-1.1,2.6-1.1c1,0,1.9,0.2,2.7,0.6c0.8,0.4,1.1,1.1,1.1,2.1
		c0,2-0.2,3.7-0.7,5.2s-1.1,3-1.9,4.2c-0.8,1.3-1.7,2.5-2.7,3.5c-1,1.1-2.1,2.1-3.2,3.1c-1.1,1-2.1,2-3.2,2.9c-1,1-1.9,2-2.7,3.1
		c-0.8,1.1-1.5,2.3-1.9,3.6c-0.5,1.3-0.7,2.7-0.7,4.3c0,1.4,0.1,2.5,0.4,3.4c0.3,0.9,0.7,1.6,1.2,2.2c0.5,0.6,1.1,0.9,1.8,1.2
		c0.7,0.2,1.5,0.3,2.3,0.3c0.8,0,1.6-0.2,2.5-0.5c0.9-0.3,1.7-0.7,2.5-1.2c0.8-0.5,1.6-1,2.3-1.7c0.7-0.6,1.3-1.2,1.8-1.9
		c0.4-0.5,0.9-0.9,1.4-1.2c0.5-0.3,1-0.3,1.5-0.3s1.1,0.1,1.6,0.4c0.5,0.3,1,0.6,1.4,1.1c0.4,0.5,0.7,1,0.9,1.6s0.3,1.2,0.3,1.9
		c0,0.3-0.1,0.6-0.2,1c-0.1,0.3-0.3,0.7-0.5,1c-0.9,1.3-1.9,2.4-3.1,3.5c-1.2,1-2.5,1.9-3.8,2.5c-1.4,0.7-2.8,1.2-4.3,1.5
		s-2.9,0.5-4.3,0.5c-1.8,0-3.6-0.3-5.5-0.8c-1.9-0.6-3.7-1.4-5.3-2.6c-1.6-1.2-2.9-2.7-4-4.5c-1-1.8-1.6-4-1.6-6.6
		c0-3.1,0.4-5.7,1.1-7.8c0.7-2.2,1.7-4,2.8-5.7c1.1-1.7,2.5-3,3.9-4.3c1.4-1.2,2.9-2.4,4.3-3.6c1.4-1.2,2.8-2.4,4.1-3.6
		C-152.7,283.8-151.6,282.6-150.7,280.9z M-152.2,263.9c0-0.1,0-0.4,0-0.9s0.1-1,0.3-1.6c0.2-0.6,0.4-1.2,0.7-1.9s0.8-1.3,1.4-1.9
		c0.6-0.6,1.4-1.1,2.3-1.4c0.9-0.4,2-0.6,3.4-0.6c1.1,0,2,0.1,2.9,0.4c0.9,0.3,1.6,0.7,2.2,1.3c0.6,0.6,1.1,1.3,1.4,2.2
		c0.3,0.9,0.5,1.9,0.5,3.2c0,1-0.2,2.1-0.5,3c-0.3,1-0.8,1.9-1.4,2.7c-0.6,0.8-1.5,1.4-2.5,1.9s-2.2,0.7-3.6,0.7
		c-2.4,0-4.2-0.6-5.4-1.8C-151.6,267.9-152.2,266.2-152.2,263.9z"/>
	<path class="st5" d="M-60.8,278.9c0,3.4-0.3,6.9-0.9,10.7c-0.6,3.8-1.5,7.5-2.7,11.2c-1.2,3.7-2.7,7.3-4.6,10.8
		c-1.8,3.5-4,6.6-6.5,9.3c-2.5,2.8-5.4,5-8.5,6.9c-3.2,1.8-6.7,3-10.6,3.5c1.4,1.4,2.6,2.7,3.6,3.9c1.1,1.3,2.1,2.4,3.1,3.4
		s2.1,1.8,3.2,2.4c1.1,0.6,2.3,0.9,3.8,0.9c1.4,0,2.7-0.4,4-1.1c1.3-0.7,2.5-1.5,3.6-2.4c1.2-1,2.4-2.2,3.5-3.5
		c0.3-0.2,0.6-0.4,0.9-0.4c0.3,0,0.5,0,0.7,0c0.7,0.1,1.4,0.4,1.9,0.9c0.5,0.4,0.9,1,1.2,1.6c0.3,0.6,0.5,1.2,0.6,1.9
		c0.1,0.7,0.2,1.3,0.2,1.9c0,0.7-0.1,1.3-0.2,1.6c-0.2,0.3-0.3,0.5-0.5,0.7c0,0-0.3,0.3-0.8,0.8s-1.2,1.1-2.1,1.9
		c-0.9,0.7-1.9,1.6-3.2,2.4c-1.2,0.9-2.6,1.7-4.1,2.4c-1.5,0.7-3.1,1.3-4.8,1.8c-1.7,0.5-3.4,0.7-5.2,0.7c-2.2,0-4-0.4-5.6-1.3
		c-1.5-0.8-2.8-1.9-3.9-3.2c-1.1-1.3-2-2.8-2.7-4.4s-1.3-3.2-1.9-4.7s-1.1-2.9-1.6-4.2c-0.5-1.3-1.1-2.3-1.8-2.9
		c-4.4-0.8-8.1-2.2-11.2-4.4c-3.1-2.1-5.7-4.7-7.6-7.8c-2-3.1-3.4-6.6-4.4-10.4c-1-3.8-1.4-7.9-1.4-12.1c0-3.9,0.4-8,1.1-12.1
		s1.8-8.2,3.3-12.1c1.5-3.9,3.3-7.6,5.4-11.1c2.2-3.5,4.7-6.5,7.6-9.2c2.9-2.6,6.1-4.7,9.7-6.2s7.5-2.3,11.8-2.3s8.1,0.8,11.5,2.5
		c3.4,1.6,6.3,4,8.6,6.9c2.4,3,4.2,6.6,5.4,10.8C-61.5,269.1-60.8,273.8-60.8,278.9z M-98.2,322.1c2.2,0,4.2-0.5,6.1-1.4
		c1.9-0.9,3.6-2.1,5.2-3.7s3-3.4,4.3-5.5s2.4-4.4,3.4-6.8c1-2.4,1.9-4.9,2.6-7.5c0.7-2.6,1.4-5.1,1.9-7.6s0.8-5,1.1-7.3
		c0.2-2.3,0.3-4.5,0.3-6.4c0-3.3-0.3-6.3-0.9-9.1c-0.6-2.8-1.5-5.2-2.6-7.3c-1.2-2.1-2.7-3.7-4.5-4.8c-1.8-1.2-3.9-1.7-6.3-1.7
		s-4.8,0.7-7.1,2c-2.3,1.4-4.5,3.2-6.5,5.5s-3.9,5-5.5,8c-1.7,3-3.1,6.2-4.3,9.6c-1.2,3.4-2.1,6.8-2.8,10.3c-0.7,3.5-1,6.8-1,10
		c0,3.4,0.4,6.5,1.1,9.4c0.7,2.9,1.8,5.4,3.2,7.5c1.4,2.1,3.1,3.8,5.2,5C-103.2,321.5-100.8,322.1-98.2,322.1z"/>
	<path class="st5" d="M-28.2,286.2c0,0.8-0.1,1.8-0.3,3.2c-0.2,1.3-0.4,2.8-0.7,4.4c-0.3,1.6-0.6,3.2-0.9,4.9
		c-0.3,1.7-0.6,3.3-0.9,4.8c-0.3,1.5-0.5,2.8-0.7,3.9s-0.3,1.9-0.3,2.3c0,0.8,0,1.5,0,2.2c0,0.7,0.1,1.3,0.3,1.8
		c0.1,0.5,0.4,0.9,0.7,1.2c0.3,0.3,0.7,0.4,1.3,0.4s1.4-0.2,2.3-0.5c0.9-0.3,1.9-0.7,2.9-1.3s2.1-1.1,3.1-1.8c1.1-0.7,2.1-1.4,3-2.1
		c1-0.7,1.8-1.5,2.6-2.2c0.8-0.7,1.4-1.4,1.9-2.1c0,1,0,1.8,0,2.6c0,0.8,0,1.5,0,2.2c0,0.7,0,1.4,0,2.2c0,0.7,0,1.6,0,2.5
		c-0.6,0.6-1.4,1.3-2.4,2c-0.9,0.7-2,1.4-3.1,2.2c-1.1,0.7-2.3,1.4-3.6,2.1c-1.3,0.7-2.6,1.2-3.9,1.8s-2.6,0.9-3.8,1.2
		c-1.3,0.3-2.4,0.5-3.5,0.5s-2-0.2-2.8-0.6c-0.8-0.4-1.4-1-2-1.8c-0.6-0.8-1-1.7-1.4-2.8s-0.7-2.3-1-3.6c-1,1.4-2.1,2.6-3.3,3.7
		c-1.2,1.1-2.3,2.1-3.5,3c-1.2,0.8-2.4,1.5-3.6,2c-1.2,0.5-2.4,0.7-3.6,0.7c-1,0-1.8-0.2-2.7-0.5c-0.8-0.3-1.6-0.8-2.2-1.6
		c-0.6-0.7-1.2-1.7-1.5-3c-0.4-1.2-0.6-2.7-0.6-4.6c0-2.2,0.3-5,0.8-8.5c0.5-3.4,1.2-7.3,2-11.8c0.1-0.4,0.2-1,0.3-1.8
		c0.2-0.7,0.4-1.5,0.6-2.4c0.3-0.9,0.6-1.7,1-2.6s0.9-1.7,1.4-2.4c0.5-0.7,1.2-1.3,1.9-1.8s1.6-0.7,2.5-0.7c1.5,0.1,2.6,0.3,3.3,0.6
		c0.7,0.3,1,0.7,1,1.2c-0.3,1.5-0.5,3.2-0.8,5.1s-0.6,3.8-0.9,5.7c-0.3,1.9-0.6,3.8-0.9,5.6c-0.3,1.8-0.5,3.4-0.8,4.8
		c-0.2,1.4-0.4,2.5-0.5,3.4c-0.1,0.9-0.2,1.3-0.2,1.3c0,0.5,0.1,1,0.2,1.5c0.1,0.5,0.3,0.9,0.5,1.3c0.2,0.4,0.5,0.7,0.8,0.9
		c0.3,0.2,0.7,0.3,1.1,0.3c0.6,0,1.3-0.2,1.9-0.5c0.7-0.3,1.3-0.8,1.9-1.4c0.6-0.6,1.1-1.4,1.6-2.3c0.5-0.9,0.8-1.9,1-3.1l4.3-22
		c0.1-0.7,0.7-1.3,1.8-1.8c1-0.5,2.2-0.7,3.5-0.7c1.5,0,2.6,0.3,3.5,0.8S-28.2,285.4-28.2,286.2z"/>
	<path class="st5" d="M-4.3,324.9c-2.7,0-5.1-0.5-7.1-1.5s-3.7-2.3-5.1-4c-1.4-1.7-2.4-3.6-3-5.7c-0.7-2.2-1-4.5-1-6.8
		c0-1.6,0.2-3.3,0.5-5.1c0.3-1.8,0.8-3.6,1.4-5.3c0.6-1.7,1.5-3.4,2.4-4.9c1-1.6,2.1-3,3.4-4.1c1.3-1.2,2.8-2.1,4.4-2.9
		c1.6-0.7,3.4-1.1,5.4-1.1c1.6,0,3.1,0.3,4.5,0.8s2.6,1.2,3.6,2.2c1,0.9,1.8,2.1,2.4,3.4c0.6,1.3,0.9,2.8,0.9,4.5
		c0,1.8-0.4,3.6-1.3,5.4c-0.9,1.8-2.1,3.5-3.7,5.1c-1.6,1.6-3.4,3-5.6,4.2c-2.1,1.2-4.5,2.2-7,2.9c0.4,0.8,0.9,1.4,1.3,1.9
		c0.4,0.5,0.8,0.9,1.3,1.2c0.5,0.3,0.9,0.5,1.4,0.6c0.5,0.1,1,0.2,1.5,0.2c1.7,0,3.5-0.3,5.5-1c1.9-0.7,3.8-1.6,5.6-2.6
		s3.5-2.2,5.1-3.4s3-2.4,4.1-3.5l5.6,5.8c-2.5,2.6-5.2,4.9-8.1,7c-1.2,0.9-2.6,1.7-4,2.5c-1.4,0.8-2.9,1.6-4.5,2.2s-3.2,1.2-4.9,1.6
		C-0.9,324.7-2.6,324.9-4.3,324.9z M-10.1,304.6c1,0,2.2-0.3,3.4-0.8s2.4-1.2,3.4-2.1c1.1-0.8,1.9-1.7,2.7-2.7
		c0.7-1,1.1-1.9,1.1-2.9c0-1.3-0.2-2.4-0.7-3.2c-0.5-0.8-1.1-1.3-1.8-1.3c-1.2,0-2.3,0.2-3.2,0.7s-1.6,1.1-2.2,1.8
		c-0.6,0.7-1.1,1.6-1.4,2.5c-0.4,0.9-0.6,1.9-0.8,2.8c-0.2,1-0.3,1.9-0.4,2.8C-10,303.2-10.1,304-10.1,304.6z M-4,271.5
		c0.2-0.4,0.4-0.9,0.7-1.7c0.3-0.8,0.7-1.6,1.1-2.6c0.4-1,0.9-2,1.3-3.1c0.5-1.1,1-2.2,1.4-3.3c1.1-2.6,2.3-5.4,3.7-8.4
		c0.4-1,0.9-1.7,1.7-2.1c0.8-0.4,1.6-0.6,2.4-0.6c0.7,0,1.5,0.1,2.2,0.4c0.7,0.3,1.4,0.7,2,1.2s1.1,1.1,1.4,1.9
		c0.4,0.7,0.6,1.5,0.6,2.4c0,1.4-0.5,2.8-1.6,4.2c-0.5,0.7-1.2,1.6-1.9,2.5s-1.4,1.9-2.2,2.9s-1.5,2-2.3,3S5,270.1,4.2,271
		c-0.7,0.9-1.4,1.7-2,2.4s-1.1,1.3-1.4,1.7c-0.5,0.6-1,1-1.5,1.2c-0.5,0.2-1,0.4-1.5,0.4c-0.7,0-1.3-0.3-1.8-0.8s-0.7-1.2-0.7-2.1
		c0-0.3,0-0.6,0.1-1C-4.3,272.2-4.2,271.9-4,271.5z"/>
	<path class="st5" d="M53.2,324.9c-2.7,0-5.1-0.5-7.1-1.5s-3.7-2.3-5.1-4c-1.4-1.7-2.4-3.6-3-5.7c-0.7-2.2-1-4.5-1-6.8
		c0-1.6,0.2-3.3,0.5-5.1c0.3-1.8,0.8-3.6,1.4-5.3c0.6-1.7,1.5-3.4,2.4-4.9c1-1.6,2.1-3,3.4-4.1c1.3-1.2,2.8-2.1,4.4-2.9
		c1.6-0.7,3.4-1.1,5.4-1.1c1.6,0,3.1,0.3,4.5,0.8s2.6,1.2,3.6,2.2c1,0.9,1.8,2.1,2.4,3.4c0.6,1.3,0.9,2.8,0.9,4.5
		c0,1.8-0.4,3.6-1.3,5.4c-0.9,1.8-2.1,3.5-3.7,5.1s-3.4,3-5.6,4.2c-2.1,1.2-4.5,2.2-7,2.9c0.4,0.8,0.9,1.4,1.3,1.9
		c0.4,0.5,0.8,0.9,1.3,1.2c0.5,0.3,0.9,0.5,1.4,0.6c0.5,0.1,1,0.2,1.5,0.2c1.7,0,3.5-0.3,5.5-1c1.9-0.7,3.8-1.6,5.6-2.6
		s3.5-2.2,5.1-3.4s3-2.4,4.1-3.5l5.6,5.8c-2.5,2.6-5.2,4.9-8.1,7c-1.2,0.9-2.6,1.7-4,2.5c-1.4,0.8-2.9,1.6-4.5,2.2s-3.2,1.2-4.9,1.6
		C56.7,324.7,55,324.9,53.2,324.9z M47.5,304.6c1,0,2.2-0.3,3.4-0.8c1.2-0.5,2.4-1.2,3.4-2.1c1.1-0.8,1.9-1.7,2.7-2.7
		c0.7-1,1.1-1.9,1.1-2.9c0-1.3-0.2-2.4-0.7-3.2c-0.5-0.8-1.1-1.3-1.8-1.3c-1.2,0-2.3,0.2-3.2,0.7c-0.9,0.5-1.6,1.1-2.2,1.8
		c-0.6,0.7-1.1,1.6-1.4,2.5c-0.4,0.9-0.6,1.9-0.8,2.8c-0.2,1-0.3,1.9-0.4,2.8C47.5,303.2,47.5,304,47.5,304.6z"/>
	<path class="st5" d="M71.3,308.3c1.6-1.4,2.9-2.5,3.9-3.5c1-0.9,1.9-1.8,2.6-2.5c0.7-0.8,1.4-1.5,2-2.3s1.3-1.7,2.1-2.8
		c0.8-1.1,1.8-2.4,2.9-3.9c1.2-1.5,2.6-3.5,4.5-5.8c0.4-0.5,0.8-1,1.3-1.5s1-0.9,1.5-1.3c0.6-0.4,1.2-0.7,1.9-1
		c0.7-0.2,1.4-0.4,2.3-0.4c1.4,0,2.4,0.2,3.2,0.5c0.7,0.3,1.3,0.7,1.6,1.1c0.3,0.4,0.5,0.9,0.6,1.4s0.1,0.9,0.1,1.2
		c0,0.7-0.3,1.5-0.8,2.3c-0.5,0.8-1.2,1.6-1.8,2.4c-0.7,0.8-1.3,1.5-1.9,2.1c-0.6,0.6-0.9,1.1-1,1.4c0,0.9,0.1,1.7,0.2,2.4
		c0.1,0.7,0.3,1.5,0.5,2.2c0.2,0.7,0.4,1.5,0.7,2.2c0.2,0.8,0.5,1.7,0.7,2.7s0.4,2.2,0.5,3.6c0.1,1.4,0.2,3,0.2,4.8
		c1-0.7,2.2-1.3,3.3-1.9c1.2-0.6,2.4-1.1,3.7-1.8c1.3-0.6,2.6-1.3,4-2c1.4-0.7,2.7-1.6,4.1-2.7v9.7c-1.8,1.4-3.9,2.7-6.2,3.9
		c-2.3,1.2-4.8,2.3-7.4,3.2s-5.2,1.6-7.8,2.2c-2.6,0.5-5.1,0.8-7.5,0.8c-1.7,0-3.3-0.2-4.8-0.5s-2.8-0.8-3.9-1.5s-2-1.6-2.7-2.7
		c-0.7-1.1-1.1-2.4-1.3-4c-0.4,0.1-0.8,0.1-1.2,0.2c-0.4,0-0.8,0-1.1,0c-0.5,0-0.9,0-1.3,0s-0.7-0.1-1-0.3c-0.3-0.2-0.5-0.5-0.7-0.9
		c-0.2-0.4-0.3-1-0.3-1.8c0-0.7,0.2-1.3,0.5-1.9c0.3-0.6,0.7-1.1,1.2-1.6s0.9-0.9,1.4-1.2C70.7,308.8,71,308.5,71.3,308.3z
		 M76.8,313.8c0.3,0,0.7,0.2,1.1,0.6s0.9,0.9,1.4,1.4s1.2,1,1.9,1.4c0.7,0.4,1.5,0.6,2.5,0.6c1.1,0,2.1-0.2,2.8-0.6
		c0.7-0.4,1.3-0.9,1.8-1.5c0.5-0.6,0.7-1.3,0.9-2.2s0.3-1.7,0.3-2.6c0-0.8-0.1-1.6-0.2-2.4s-0.2-1.6-0.4-2.3
		c-0.2-0.7-0.3-1.4-0.5-2.1c-0.2-0.6-0.4-1.2-0.5-1.7L76.8,313.8z"/>
	<path class="st5" d="M136.7,316.6c0,0.1,0,0.4,0,0.9s-0.1,1-0.3,1.6c-0.2,0.6-0.4,1.2-0.7,1.9c-0.3,0.7-0.8,1.3-1.4,1.9
		s-1.4,1.1-2.3,1.4c-0.9,0.4-2,0.6-3.4,0.6c-1.1,0-2-0.1-2.9-0.4s-1.6-0.7-2.2-1.3c-0.6-0.6-1.1-1.3-1.4-2.2s-0.5-1.9-0.5-3.2
		c0-1,0.2-2.1,0.5-3c0.3-1,0.8-1.9,1.4-2.7c0.6-0.8,1.5-1.4,2.5-1.9s2.2-0.7,3.6-0.7c2.4,0,4.2,0.6,5.4,1.8
		C136.1,312.7,136.7,314.4,136.7,316.6z M135.2,299.7c-0.4,1.4-1,2.4-1.8,3.2c-0.8,0.7-1.7,1.1-2.6,1.1c-1,0-1.9-0.2-2.7-0.6
		c-0.8-0.4-1.1-1.1-1.1-2.1c0-2.6,0.4-4.8,1.3-6.8c0.8-1.9,1.9-3.6,3.2-5.1c1.3-1.5,2.6-2.9,4.1-4.2c1.5-1.3,2.9-2.6,4.1-3.9
		c1.3-1.4,2.3-2.8,3.2-4.4c0.8-1.6,1.3-3.5,1.3-5.6c0-1.2-0.2-2.2-0.7-3.1c-0.4-0.8-1-1.5-1.7-2.1c-0.7-0.5-1.5-0.9-2.4-1.2
		c-0.9-0.2-1.7-0.4-2.6-0.4c-0.7,0-1.4,0.2-2.1,0.6s-1.4,0.9-2,1.4s-1.2,1.1-1.6,1.7c-0.5,0.6-0.7,1.1-0.9,1.4c-0.5,0.6-1,1-1.7,1.3
		c-0.6,0.3-1.3,0.4-1.9,0.4c-0.5,0-1.1-0.1-1.6-0.4s-1-0.7-1.4-1.2s-0.7-1.1-1-1.8s-0.4-1.4-0.4-2.2c0-0.6,0.2-1.3,0.6-2
		c0.9-1.3,1.9-2.4,3.1-3.5c1.2-1,2.5-1.9,3.8-2.5c1.4-0.7,2.8-1.2,4.3-1.5c1.5-0.3,2.9-0.5,4.4-0.5c1.8,0,3.6,0.3,5.5,0.8
		c1.9,0.6,3.7,1.4,5.3,2.6c1.6,1.2,2.9,2.7,4,4.6c1,1.8,1.6,4,1.6,6.6c0,3.1-0.4,5.7-1.1,7.8c-0.7,2.2-1.7,4-2.8,5.7
		c-1.2,1.6-2.5,3-3.9,4.3c-1.4,1.2-2.9,2.4-4.3,3.6c-1.4,1.2-2.8,2.4-4.1,3.7S136.1,298,135.2,299.7z"/>
</g>
</svg>
