<?xml version="1.0" encoding="utf-8"?>
<!-- Generator: Adobe Illustrator 19.1.0, SVG Export Plug-In . SVG Version: 6.00 Build 0)  -->
<svg version="1.1" id="Capa_1" xmlns="http://www.w3.org/2000/svg" xmlns:xlink="http://www.w3.org/1999/xlink" x="0px" y="0px"
	 viewBox="0 0 283.2 68.1" style="enable-background:new 0 0 283.2 68.1;" xml:space="preserve">
<style type="text/css">
	.st0{fill:#CCCDCD;}
	.st1{fill:#BFC1C0;}
	.st2{fill:#999999;}
	.st3{fill:#FFFFFF;}
</style>
<polygon class="st0" points="59.4,57.8 283.2,57.8 267.3,37.1 283.2,16.4 59.4,16.4 "/>
<g>
	<path class="st1" d="M34,48.8l6.7-4.1l-2.1-12l4-12.8L66.6,44c3.6-11.6,0.7-24.8-8.5-34C44.8-3.3,23.3-3.3,10,10
		C-3.3,23.3-3.3,44.8,10,58.1c8.6,8.6,20.8,11.7,31.9,9.1l-20-20L34,48.8z"/>
	<path class="st2" d="M66.6,44L42.6,20l-4,12.8l2.1,12L34,48.8l-12.2-1.6l20,20c6-1.4,11.6-4.4,16.3-9.1C62.2,54,65,49.2,66.6,44z"
		/>
</g>
<g>
	<path class="st3" d="M38.7,33.2c1,0.2,1.9,0.5,2.8,1.1c0.8,0.5,1.6,1.1,2.2,1.9c0.6,0.8,1,1.6,1.4,2.6c0.3,1,0.5,2,0.5,3.2
		c0,1.5-0.3,2.9-0.9,4.1c-0.6,1.2-1.4,2.3-2.4,3.2c-1.1,0.9-2.3,1.6-3.8,2c-1.5,0.5-3.2,0.7-5,0.7c-2.5,0-4.7-0.4-6.6-1.3
		c-1.9-0.9-3.4-2.1-4.5-3.7l3.3-3.7c0.8,1.2,1.8,2.2,3,2.8c1.2,0.7,2.8,1,4.7,1c2.2,0,3.8-0.5,5-1.4c1.2-0.9,1.7-2.3,1.7-4.1
		c0-1.9-0.7-3.4-2-4.4s-3.2-1.6-5.8-1.6h-1.3v-4.2h1.5c2.2,0,3.9-0.5,5-1.5c1.2-1,1.8-2.3,1.8-3.9c0-1.6-0.5-2.7-1.6-3.4
		c-1-0.7-2.4-1.1-4.1-1.1s-3.1,0.4-4.4,1.1c-1.3,0.7-2.3,1.7-3,3.1l-3.4-3.7c0.5-0.8,1.1-1.5,1.9-2.1c0.8-0.6,1.7-1.2,2.7-1.7
		c1-0.5,2.1-0.8,3.2-1.1c1.2-0.2,2.4-0.4,3.6-0.4c1.6,0,3.1,0.2,4.4,0.6c1.3,0.4,2.5,1,3.4,1.8c1,0.8,1.7,1.7,2.2,2.7
		c0.5,1.1,0.8,2.3,0.8,3.6c0,1-0.1,1.9-0.4,2.8c-0.3,0.9-0.7,1.7-1.2,2.4c-0.5,0.7-1.2,1.3-1.9,1.8C40.5,32.7,39.6,33,38.7,33.2z"/>
</g>
</svg>
