<?xml version="1.0" encoding="utf-8"?>
<!-- Generator: Adobe Illustrator 19.1.0, SVG Export Plug-In . SVG Version: 6.00 Build 0)  -->
<svg version="1.1" id="Capa_1" xmlns="http://www.w3.org/2000/svg" xmlns:xlink="http://www.w3.org/1999/xlink" x="0px" y="0px"
	 viewBox="-243 272.9 304.3 68.1" style="enable-background:new -243 272.9 304.3 68.1;" xml:space="preserve">
<style type="text/css">
	.st0{fill:#CCCDCD;}
	.st1{fill:#89AA35;}
	.st2{fill:#678028;}
	.st3{fill:#FFFFFF;}
</style>
<polygon class="st0" points="-182.4,327.6 61.3,327.6 45.5,306.9 61.3,286.3 -182.4,286.3 "/>
<g>
	<path class="st1" d="M-205.4,312.9l1.4-21.6l27.1,27.1c4.3-12,1.6-25.9-8-35.5c-13.3-13.3-34.8-13.3-48.1,0s-13.3,34.8,0,48.1
		c9.7,9.7,23.9,12.3,35.9,7.8l-19.4-19.4L-205.4,312.9z"/>
	<path class="st2" d="M-176.9,318.4l-27.1-27.1l-1.4,21.6l-11.1,6.5l19.5,19.5c4.4-1.7,8.6-4.3,12.2-7.8
		C-181.2,327.3-178.6,323-176.9,318.4z"/>
</g>
<g>
	<path class="st3" d="M-197.9,314.2v4.8h-18.7v-4.8h6.9v-17c-0.3,0.4-0.8,0.8-1.4,1.2c-0.6,0.4-1.3,0.8-2.1,1.2
		c-0.7,0.4-1.5,0.7-2.3,0.9c-0.8,0.2-1.5,0.4-2.1,0.4v-5c0.7,0,1.4-0.2,2.3-0.6c0.9-0.4,1.7-0.8,2.5-1.4c0.8-0.5,1.5-1,2.1-1.6
		c0.6-0.5,1-0.9,1.1-1.1h5.5v23.1h6.2V314.2z"/>
</g>
<g>
	<path class="st3" d="M-162.5,300.7v-2.1h1.7v2.1H-162.5z M-162.5,312.5v-9.9h1.7v9.9H-162.5z"/>
	<path class="st3" d="M-149.6,312.5h-1.7V307c0-1.1-0.2-1.8-0.5-2.3c-0.3-0.5-0.8-0.7-1.5-0.7c-0.3,0-0.7,0.1-1,0.2
		c-0.3,0.1-0.7,0.3-1,0.5c-0.3,0.2-0.6,0.5-0.8,0.8c-0.2,0.3-0.4,0.7-0.5,1v6h-1.7v-9.9h1.5v2.1c0.4-0.7,1-1.3,1.7-1.7
		c0.7-0.4,1.5-0.6,2.4-0.6c0.6,0,1,0.1,1.4,0.3s0.7,0.5,0.9,0.9s0.4,0.8,0.5,1.3s0.1,1.1,0.1,1.7V312.5z"/>
	<path class="st3" d="M-146.8,312.5v-8.6h-1.3v-1.3h1.3v-0.2c0-1.2,0.3-2.2,0.8-2.9c0.5-0.7,1.3-1,2.2-1c0.4,0,0.8,0.1,1.2,0.2
		s0.7,0.3,1,0.4l-0.4,1.2c-0.2-0.1-0.4-0.2-0.7-0.3c-0.3-0.1-0.5-0.1-0.8-0.1c-0.6,0-1,0.2-1.3,0.6c-0.3,0.4-0.4,1-0.4,1.8v0.3h2.6
		v1.3h-2.6v8.6H-146.8z"/>
	<path class="st3" d="M-137,312.7c-0.7,0-1.4-0.1-2-0.4c-0.6-0.3-1.1-0.7-1.6-1.1s-0.8-1-1-1.6c-0.2-0.6-0.4-1.3-0.4-2
		c0-0.7,0.1-1.4,0.4-2c0.2-0.6,0.6-1.2,1-1.6s1-0.8,1.6-1.1c0.6-0.3,1.3-0.4,2-0.4c0.7,0,1.4,0.1,2,0.4s1.1,0.7,1.6,1.1s0.8,1,1,1.6
		c0.2,0.6,0.4,1.3,0.4,2c0,0.7-0.1,1.3-0.4,2c-0.2,0.6-0.6,1.2-1,1.6s-1,0.8-1.6,1.1C-135.6,312.6-136.3,312.7-137,312.7z
		 M-140.3,307.6c0,0.5,0.1,1,0.3,1.4s0.4,0.8,0.7,1.2c0.3,0.3,0.6,0.6,1,0.8c0.4,0.2,0.8,0.3,1.3,0.3s0.9-0.1,1.3-0.3
		c0.4-0.2,0.8-0.5,1.1-0.8c0.3-0.3,0.5-0.7,0.7-1.2c0.2-0.4,0.3-0.9,0.3-1.5c0-0.5-0.1-1-0.3-1.4c-0.2-0.4-0.4-0.8-0.7-1.2
		c-0.3-0.3-0.7-0.6-1.1-0.8c-0.4-0.2-0.8-0.3-1.3-0.3s-0.9,0.1-1.3,0.3s-0.7,0.5-1,0.8c-0.3,0.3-0.5,0.7-0.7,1.2
		C-140.2,306.6-140.3,307.1-140.3,307.6z"/>
	<path class="st3" d="M-124.8,304.1c-0.8,0-1.6,0.2-2.2,0.6s-1.1,1-1.4,1.7v6.1h-1.7v-9.9h1.6v2.3c0.3-0.7,0.8-1.2,1.3-1.7
		c0.6-0.4,1.2-0.7,1.8-0.7c0.1,0,0.2,0,0.3,0c0.1,0,0.2,0,0.2,0V304.1z"/>
	<path class="st3" d="M-108.4,312.5h-1.7V307c0-1-0.2-1.8-0.5-2.3c-0.3-0.5-0.8-0.7-1.5-0.7c-0.7,0-1.3,0.2-1.8,0.7
		c-0.5,0.5-0.9,1.1-1.1,1.9v6h-1.7V307c0-1.1-0.2-1.8-0.5-2.3s-0.8-0.7-1.5-0.7c-0.7,0-1.3,0.2-1.8,0.7c-0.5,0.5-0.9,1.1-1.2,1.9v6
		h-1.7v-9.9h1.5v2.1c0.4-0.7,0.9-1.3,1.6-1.7c0.6-0.4,1.4-0.6,2.2-0.6c0.8,0,1.5,0.2,2,0.7c0.5,0.4,0.8,1,0.9,1.7
		c0.9-1.6,2.1-2.4,3.8-2.4c0.6,0,1,0.1,1.4,0.3s0.7,0.5,0.9,0.9c0.2,0.4,0.4,0.8,0.5,1.3s0.2,1.1,0.2,1.7V312.5z"/>
	<path class="st3" d="M-103.3,312.7c-0.5,0-0.9-0.1-1.3-0.2s-0.8-0.4-1.1-0.7c-0.3-0.3-0.5-0.6-0.7-1c-0.2-0.4-0.3-0.8-0.3-1.2
		c0-0.5,0.1-0.9,0.3-1.2s0.5-0.7,0.9-1c0.4-0.3,0.8-0.5,1.3-0.6c0.5-0.2,1.1-0.2,1.7-0.2c0.5,0,1,0,1.5,0.1c0.5,0.1,0.9,0.2,1.3,0.4
		v-0.8c0-0.8-0.2-1.4-0.7-1.9c-0.5-0.5-1.1-0.7-1.9-0.7c-1,0-2.1,0.4-3.2,1.2l-0.6-1.1c1.3-0.9,2.6-1.3,3.9-1.3c1.3,0,2.3,0.3,3,1
		c0.7,0.7,1.1,1.7,1.1,2.9v4c0,0.4,0.2,0.6,0.5,0.6v1.4c-0.2,0-0.3,0-0.4,0.1c-0.1,0-0.2,0-0.4,0c-0.3,0-0.6-0.1-0.8-0.3
		c-0.2-0.2-0.3-0.4-0.4-0.7l0-0.7c-0.4,0.6-1,1-1.7,1.4S-102.6,312.7-103.3,312.7z M-102.9,311.4c0.6,0,1.1-0.1,1.7-0.3
		c0.5-0.2,0.9-0.5,1.2-0.9c0.2-0.2,0.4-0.5,0.4-0.7V308c-0.8-0.3-1.7-0.5-2.5-0.5c-0.8,0-1.5,0.2-2,0.5c-0.5,0.4-0.8,0.8-0.8,1.4
		c0,0.3,0.1,0.5,0.2,0.8c0.1,0.2,0.3,0.4,0.5,0.6c0.2,0.2,0.4,0.3,0.7,0.4S-103.2,311.4-102.9,311.4z"/>
	<path class="st3" d="M-96.2,307.5c0-0.7,0.1-1.4,0.4-2c0.2-0.6,0.6-1.2,1-1.6c0.4-0.5,1-0.8,1.6-1.1c0.6-0.3,1.3-0.4,2.1-0.4
		c1,0,1.8,0.2,2.6,0.7c0.7,0.4,1.3,1,1.6,1.8l-1.6,0.5c-0.3-0.5-0.6-0.8-1.1-1.1c-0.5-0.3-1-0.4-1.5-0.4c-0.5,0-0.9,0.1-1.3,0.3
		c-0.4,0.2-0.8,0.4-1,0.8c-0.3,0.3-0.5,0.7-0.7,1.2c-0.2,0.4-0.3,0.9-0.3,1.5c0,0.5,0.1,1,0.3,1.5c0.2,0.5,0.4,0.9,0.7,1.2
		c0.3,0.3,0.6,0.6,1,0.8c0.4,0.2,0.8,0.3,1.3,0.3c0.3,0,0.6,0,0.9-0.1c0.3-0.1,0.5-0.2,0.8-0.3s0.4-0.3,0.6-0.5s0.3-0.4,0.4-0.6
		l1.6,0.5c-0.2,0.4-0.4,0.7-0.6,1s-0.6,0.6-1,0.8c-0.4,0.2-0.8,0.4-1.2,0.5s-0.9,0.2-1.4,0.2c-0.7,0-1.4-0.1-2.1-0.4
		c-0.6-0.3-1.2-0.7-1.6-1.1s-0.8-1-1-1.6C-96.1,308.9-96.2,308.2-96.2,307.5z"/>
	<path class="st3" d="M-85.2,300.7v-2.1h1.7v2.1H-85.2z M-85.2,312.5v-9.9h1.7v9.9H-85.2z"/>
	<path class="st3" d="M-76.6,312.7c-0.7,0-1.4-0.1-2-0.4c-0.6-0.3-1.1-0.7-1.6-1.1c-0.4-0.5-0.8-1-1-1.6c-0.2-0.6-0.4-1.3-0.4-2
		c0-0.7,0.1-1.4,0.4-2c0.2-0.6,0.6-1.2,1-1.6c0.4-0.5,1-0.8,1.6-1.1s1.3-0.4,2-0.4s1.4,0.1,2,0.4c0.6,0.3,1.1,0.7,1.6,1.1
		c0.4,0.5,0.8,1,1,1.6c0.2,0.6,0.4,1.3,0.4,2c0,0.7-0.1,1.3-0.4,2c-0.2,0.6-0.6,1.2-1,1.6s-1,0.8-1.6,1.1
		C-75.1,312.6-75.8,312.7-76.6,312.7z M-79.9,307.6c0,0.5,0.1,1,0.3,1.4s0.4,0.8,0.7,1.2c0.3,0.3,0.6,0.6,1,0.8
		c0.4,0.2,0.8,0.3,1.3,0.3s0.9-0.1,1.3-0.3c0.4-0.2,0.8-0.5,1.1-0.8c0.3-0.3,0.5-0.7,0.7-1.2c0.2-0.4,0.3-0.9,0.3-1.5
		c0-0.5-0.1-1-0.3-1.4c-0.2-0.4-0.4-0.8-0.7-1.2s-0.7-0.6-1.1-0.8c-0.4-0.2-0.8-0.3-1.3-0.3s-0.9,0.1-1.3,0.3
		c-0.4,0.2-0.7,0.5-1,0.8c-0.3,0.3-0.5,0.7-0.7,1.2C-79.8,306.6-79.9,307.1-79.9,307.6z M-76.3,300.9l-1.1-0.4l1.1-1.9h1.7
		L-76.3,300.9z"/>
	<path class="st3" d="M-61,312.5h-1.7V307c0-1.1-0.2-1.8-0.5-2.3c-0.3-0.5-0.8-0.7-1.5-0.7c-0.3,0-0.7,0.1-1,0.2s-0.7,0.3-1,0.5
		c-0.3,0.2-0.6,0.5-0.8,0.8c-0.2,0.3-0.4,0.7-0.5,1v6h-1.7v-9.9h1.5v2.1c0.4-0.7,1-1.3,1.7-1.7s1.5-0.6,2.4-0.6c0.6,0,1,0.1,1.4,0.3
		s0.7,0.5,0.9,0.9c0.2,0.4,0.4,0.8,0.5,1.3c0.1,0.5,0.1,1.1,0.1,1.7V312.5z"/>
	<path class="st3" d="M-49.2,312.7c-0.7,0-1.4-0.1-2.1-0.4c-0.6-0.3-1.2-0.6-1.6-1.1s-0.8-1-1-1.6c-0.2-0.6-0.4-1.3-0.4-2
		s0.1-1.4,0.4-2c0.2-0.6,0.6-1.2,1-1.6c0.4-0.5,1-0.8,1.6-1.1c0.6-0.3,1.3-0.4,2.1-0.4c0.7,0,1.4,0.1,2,0.4s1.1,0.6,1.6,1.1
		c0.4,0.5,0.8,1,1,1.6s0.4,1.3,0.4,1.9c0,0.1,0,0.3,0,0.4c0,0.1,0,0.2,0,0.3h-8.2c0,0.5,0.2,0.9,0.3,1.3c0.2,0.4,0.4,0.8,0.7,1
		c0.3,0.3,0.6,0.5,1,0.7c0.4,0.2,0.8,0.2,1.2,0.2c0.3,0,0.6,0,0.9-0.1c0.3-0.1,0.6-0.2,0.8-0.3c0.3-0.1,0.5-0.3,0.7-0.5
		c0.2-0.2,0.3-0.4,0.4-0.7l1.4,0.4c-0.2,0.4-0.4,0.7-0.7,1c-0.3,0.3-0.6,0.6-1,0.8c-0.4,0.2-0.8,0.4-1.2,0.5S-48.7,312.7-49.2,312.7
		z M-45.8,306.9c0-0.5-0.2-0.9-0.4-1.3c-0.2-0.4-0.4-0.7-0.7-1c-0.3-0.3-0.6-0.5-1-0.7s-0.8-0.2-1.3-0.2s-0.9,0.1-1.3,0.2
		s-0.7,0.4-1,0.7c-0.3,0.3-0.5,0.6-0.7,1s-0.3,0.8-0.3,1.3H-45.8z"/>
	<path class="st3" d="M-33.8,312.5h-1.7V307c0-1.1-0.2-1.8-0.5-2.3c-0.3-0.5-0.8-0.7-1.5-0.7c-0.3,0-0.7,0.1-1,0.2s-0.7,0.3-1,0.5
		c-0.3,0.2-0.6,0.5-0.8,0.8c-0.2,0.3-0.4,0.7-0.5,1v6h-1.7v-9.9h1.5v2.1c0.4-0.7,1-1.3,1.7-1.7s1.5-0.6,2.4-0.6c0.6,0,1,0.1,1.4,0.3
		s0.7,0.5,0.9,0.9c0.2,0.4,0.4,0.8,0.5,1.3c0.1,0.5,0.1,1.1,0.1,1.7V312.5z"/>
	<path class="st3" d="M-32,307.5c0-0.7,0.1-1.4,0.4-2c0.2-0.6,0.6-1.2,1-1.6c0.4-0.5,1-0.8,1.6-1.1s1.3-0.4,2.1-0.4
		c1,0,1.8,0.2,2.6,0.7c0.7,0.4,1.3,1,1.6,1.8l-1.6,0.5c-0.3-0.5-0.6-0.8-1.1-1.1c-0.5-0.3-1-0.4-1.5-0.4c-0.5,0-0.9,0.1-1.3,0.3
		s-0.8,0.4-1,0.8c-0.3,0.3-0.5,0.7-0.7,1.2c-0.2,0.4-0.3,0.9-0.3,1.5c0,0.5,0.1,1,0.3,1.5c0.2,0.5,0.4,0.9,0.7,1.2
		c0.3,0.3,0.6,0.6,1,0.8c0.4,0.2,0.8,0.3,1.3,0.3c0.3,0,0.6,0,0.9-0.1c0.3-0.1,0.5-0.2,0.8-0.3s0.4-0.3,0.6-0.5
		c0.2-0.2,0.3-0.4,0.4-0.6l1.6,0.5c-0.2,0.4-0.4,0.7-0.6,1s-0.6,0.6-1,0.8c-0.4,0.2-0.8,0.4-1.2,0.5c-0.5,0.1-0.9,0.2-1.4,0.2
		c-0.7,0-1.4-0.1-2.1-0.4c-0.6-0.3-1.2-0.7-1.6-1.1s-0.8-1-1-1.6C-31.8,308.9-32,308.2-32,307.5z"/>
	<path class="st3" d="M-17.9,312.7c-1,0-1.8-0.3-2.4-1c-0.5-0.7-0.8-1.7-0.8-3.1v-5.9h1.7v5.6c0,2,0.7,3,2.1,3
		c0.7,0,1.3-0.2,1.9-0.7c0.6-0.4,1-1,1.3-1.8v-6.2h1.7v7.9c0,0.4,0.2,0.6,0.5,0.6v1.4c-0.2,0-0.3,0-0.4,0c-0.1,0-0.2,0-0.3,0
		c-0.3,0-0.6-0.1-0.8-0.3s-0.3-0.4-0.4-0.7l0-1.2c-0.4,0.7-1,1.3-1.7,1.7C-16.3,312.5-17,312.7-17.9,312.7z"/>
	<path class="st3" d="M-5.3,312.7c-0.7,0-1.4-0.1-2.1-0.4c-0.6-0.3-1.2-0.6-1.6-1.1s-0.8-1-1-1.6s-0.4-1.3-0.4-2s0.1-1.4,0.4-2
		c0.2-0.6,0.6-1.2,1-1.6c0.4-0.5,1-0.8,1.6-1.1c0.6-0.3,1.3-0.4,2.1-0.4c0.7,0,1.4,0.1,2,0.4s1.1,0.6,1.6,1.1c0.4,0.5,0.8,1,1,1.6
		s0.4,1.3,0.4,1.9c0,0.1,0,0.3,0,0.4c0,0.1,0,0.2,0,0.3h-8.2c0,0.5,0.2,0.9,0.3,1.3c0.2,0.4,0.4,0.8,0.7,1c0.3,0.3,0.6,0.5,1,0.7
		c0.4,0.2,0.8,0.2,1.2,0.2c0.3,0,0.6,0,0.9-0.1c0.3-0.1,0.6-0.2,0.8-0.3c0.3-0.1,0.5-0.3,0.7-0.5c0.2-0.2,0.3-0.4,0.4-0.7l1.4,0.4
		c-0.2,0.4-0.4,0.7-0.7,1c-0.3,0.3-0.6,0.6-1,0.8c-0.4,0.2-0.8,0.4-1.2,0.5S-4.8,312.7-5.3,312.7z M-1.9,306.9
		c0-0.5-0.2-0.9-0.4-1.3c-0.2-0.4-0.4-0.7-0.7-1c-0.3-0.3-0.6-0.5-1-0.7c-0.4-0.2-0.8-0.2-1.3-0.2s-0.9,0.1-1.3,0.2s-0.7,0.4-1,0.7
		s-0.5,0.6-0.7,1c-0.2,0.4-0.3,0.8-0.3,1.3H-1.9z"/>
	<path class="st3" d="M10.1,312.5H8.4V307c0-1.1-0.2-1.8-0.5-2.3s-0.8-0.7-1.5-0.7c-0.3,0-0.7,0.1-1,0.2c-0.3,0.1-0.7,0.3-1,0.5
		c-0.3,0.2-0.6,0.5-0.8,0.8c-0.2,0.3-0.4,0.7-0.5,1v6H1.5v-9.9H3v2.1c0.4-0.7,1-1.3,1.7-1.7c0.7-0.4,1.5-0.6,2.4-0.6
		c0.6,0,1,0.1,1.4,0.3s0.7,0.5,0.9,0.9c0.2,0.4,0.4,0.8,0.5,1.3c0.1,0.5,0.1,1.1,0.1,1.7V312.5z"/>
	<path class="st3" d="M17.5,312c-0.1,0.1-0.2,0.1-0.4,0.2c-0.2,0.1-0.4,0.1-0.6,0.2s-0.4,0.1-0.7,0.2c-0.2,0-0.5,0.1-0.8,0.1
		c-0.6,0-1.1-0.2-1.6-0.5c-0.4-0.3-0.7-0.9-0.7-1.6v-6.7h-1.3v-1.3h1.3v-3.3h1.7v3.3h2.2v1.3h-2.2v6.2c0,0.4,0.1,0.6,0.4,0.8
		c0.2,0.2,0.5,0.2,0.8,0.2c0.3,0,0.6-0.1,0.9-0.2c0.3-0.1,0.5-0.2,0.6-0.3L17.5,312z"/>
	<path class="st3" d="M24.2,304.1c-0.8,0-1.6,0.2-2.2,0.6s-1.1,1-1.4,1.7v6.1H19v-9.9h1.6v2.3c0.3-0.7,0.8-1.2,1.3-1.7
		c0.6-0.4,1.2-0.7,1.8-0.7c0.1,0,0.2,0,0.3,0s0.2,0,0.2,0V304.1z"/>
	<path class="st3" d="M29.8,312.7c-0.7,0-1.4-0.1-2-0.4c-0.6-0.3-1.1-0.7-1.6-1.1c-0.4-0.5-0.8-1-1-1.6c-0.2-0.6-0.4-1.3-0.4-2
		c0-0.7,0.1-1.4,0.4-2c0.2-0.6,0.6-1.2,1-1.6c0.4-0.5,1-0.8,1.6-1.1s1.3-0.4,2-0.4s1.4,0.1,2,0.4c0.6,0.3,1.1,0.7,1.6,1.1
		c0.4,0.5,0.8,1,1,1.6c0.2,0.6,0.4,1.3,0.4,2c0,0.7-0.1,1.3-0.4,2c-0.2,0.6-0.6,1.2-1,1.6s-1,0.8-1.6,1.1
		C31.2,312.6,30.5,312.7,29.8,312.7z M26.5,307.6c0,0.5,0.1,1,0.3,1.4s0.4,0.8,0.7,1.2c0.3,0.3,0.6,0.6,1,0.8
		c0.4,0.2,0.8,0.3,1.3,0.3s0.9-0.1,1.3-0.3c0.4-0.2,0.8-0.5,1.1-0.8c0.3-0.3,0.5-0.7,0.7-1.2c0.2-0.4,0.3-0.9,0.3-1.5
		c0-0.5-0.1-1-0.3-1.4c-0.2-0.4-0.4-0.8-0.7-1.2s-0.7-0.6-1.1-0.8c-0.4-0.2-0.8-0.3-1.3-0.3s-0.9,0.1-1.3,0.3
		c-0.4,0.2-0.7,0.5-1,0.8c-0.3,0.3-0.5,0.7-0.7,1.2C26.6,306.6,26.5,307.1,26.5,307.6z"/>
</g>
</svg>
