<?xml version="1.0" encoding="utf-8"?>
<!-- Generator: Adobe Illustrator 19.1.0, SVG Export Plug-In . SVG Version: 6.00 Build 0)  -->
<svg version="1.1" id="Capa_1" xmlns="http://www.w3.org/2000/svg" xmlns:xlink="http://www.w3.org/1999/xlink" x="0px" y="0px"
	 viewBox="-252 272.9 285.7 68.1" style="enable-background:new -252 272.9 285.7 68.1;" xml:space="preserve">
<style type="text/css">
	.st0{fill:#CCCDCD;}
	.st1{fill:#89AA35;}
	.st2{fill:#678028;}
	.st3{fill:#FFFFFF;}
</style>
<polygon class="st0" points="-193.2,328.2 33.7,328.2 17.9,307.6 33.7,286.9 -193.2,286.9 "/>
<g>
	<path class="st1" d="M-209.2,294l23.5,23.5c3.9-11.8,1.1-25.3-8.3-34.7c-13.2-13.2-34.7-13.2-48,0.1s-13.3,34.8,0,48.1
		c8.2,8.2,19.5,11.3,30.1,9.4l-18.4-18.4l19.7-19.3L-209.2,294z"/>
	<path class="st2" d="M-185.6,317.5l-23.6-23.5l-1.5,8.6l-19.6,19.4l18.4,18.4c6.6-1.2,12.9-4.3,18-9.4
		C-190,327.1-187.2,322.5-185.6,317.5z"/>
</g>
<g>
	<path class="st3" d="M-230.3,322c0-1.5,0.1-2.8,0.4-4.1c0.2-1.3,0.7-2.4,1.3-3.6c0.6-1.1,1.5-2.2,2.6-3.2s2.5-2,4.2-2.9
		c1.2-0.7,2.4-1.3,3.5-1.8c1.1-0.6,2-1.1,2.9-1.7c0.8-0.5,1.5-1.1,2-1.7s0.7-1.3,0.7-2.1c0-1.1-0.5-2.1-1.4-3
		c-1-0.9-2.4-1.3-4.2-1.3c-0.9,0-1.8,0.1-2.6,0.4c-0.8,0.3-1.5,0.6-2.2,1c-0.6,0.4-1.2,0.9-1.7,1.3c-0.5,0.5-0.9,1-1.3,1.4l-3.7-4.3
		c0.4-0.4,0.9-0.9,1.7-1.4c0.8-0.6,1.7-1.1,2.7-1.7c1.1-0.5,2.3-1,3.7-1.3c1.4-0.4,2.9-0.6,4.5-0.6c1.7,0,3.2,0.2,4.5,0.7
		c1.3,0.4,2.5,1,3.4,1.8c0.9,0.8,1.6,1.7,2.1,2.8s0.7,2.2,0.7,3.4c0,1.3-0.3,2.5-0.8,3.5s-1.2,1.9-1.9,2.7c-0.8,0.8-1.6,1.4-2.5,2
		c-0.9,0.5-1.8,1-2.5,1.4s-1.6,0.8-2.5,1.2c-0.9,0.5-1.8,1-2.7,1.6c-0.9,0.6-1.7,1.3-2.4,2c-0.7,0.7-1.2,1.5-1.5,2.3h17.3v5.2
		C-206,322-230.3,322-230.3,322z"/>
</g>
<g>
	<path class="st3" d="M-167.5,312.8c-0.7,0-1.4-0.2-2-0.5c-0.6-0.3-1.1-0.8-1.5-1.3c-0.4-0.5-0.7-1.1-0.9-1.8
		c-0.2-0.7-0.3-1.4-0.3-2.1c0-0.9,0.2-1.9,0.6-2.8c0.4-0.9,0.9-1.8,1.6-2.6c0.7-0.8,1.5-1.4,2.4-1.9c0.9-0.5,2-0.7,3.1-0.7
		c0.6,0,1.1,0.1,1.5,0.2c0.5,0.1,0.9,0.3,1.2,0.6s0.6,0.6,0.9,0.9c0.2,0.4,0.4,0.8,0.5,1.2l-1.5,0.9c-0.1-0.4-0.3-0.8-0.5-1.1
		c-0.2-0.3-0.4-0.5-0.7-0.7c-0.3-0.2-0.6-0.3-0.9-0.4c-0.3-0.1-0.6-0.1-1-0.1c-0.8,0-1.6,0.2-2.3,0.6c-0.7,0.4-1.3,0.9-1.8,1.5
		c-0.5,0.6-0.9,1.3-1.1,2s-0.4,1.5-0.4,2.2c0,0.6,0.1,1.1,0.2,1.6c0.2,0.5,0.4,1,0.7,1.4s0.6,0.7,1.1,0.9c0.4,0.2,0.9,0.3,1.4,0.3
		c0.3,0,0.7,0,1.1-0.1c0.4-0.1,0.7-0.2,1.1-0.4c0.4-0.2,0.7-0.4,1.1-0.7s0.6-0.7,0.9-1.1l1.3,0.8c-0.3,0.5-0.7,1-1.1,1.3
		c-0.5,0.4-0.9,0.7-1.5,1c-0.5,0.3-1.1,0.5-1.6,0.6C-166.5,312.7-167,312.8-167.5,312.8z"/>
	<path class="st3" d="M-156.6,312.8c-0.6,0-1.1-0.1-1.6-0.3c-0.5-0.2-0.9-0.5-1.2-0.9c-0.3-0.4-0.6-0.8-0.7-1.3
		c-0.2-0.5-0.2-1-0.2-1.6c0-0.8,0.2-1.6,0.5-2.3s0.7-1.4,1.3-2s1.2-1,1.9-1.4c0.7-0.3,1.5-0.5,2.3-0.5c0.6,0,1.2,0.1,1.6,0.3
		c0.5,0.2,0.9,0.5,1.2,0.9c0.3,0.4,0.6,0.8,0.8,1.3s0.3,1,0.3,1.6c0,0.8-0.2,1.5-0.5,2.3c-0.3,0.7-0.8,1.4-1.3,2
		c-0.6,0.6-1.2,1-1.9,1.4S-155.8,312.8-156.6,312.8z M-156.3,311.4c0.5,0,1-0.1,1.4-0.4c0.5-0.2,0.9-0.6,1.3-1s0.7-0.9,0.9-1.4
		c0.2-0.5,0.3-1.1,0.3-1.7c0-0.4-0.1-0.8-0.2-1.2c-0.1-0.4-0.3-0.7-0.5-0.9c-0.2-0.3-0.5-0.5-0.8-0.6s-0.6-0.2-1-0.2
		c-0.5,0-1,0.1-1.4,0.4c-0.5,0.2-0.9,0.6-1.3,1c-0.4,0.4-0.7,0.9-0.9,1.4c-0.2,0.5-0.3,1.1-0.3,1.7c0,0.4,0.1,0.8,0.2,1.2
		c0.1,0.4,0.3,0.7,0.5,0.9c0.2,0.3,0.5,0.5,0.8,0.6C-157,311.3-156.7,311.4-156.3,311.4z"/>
	<path class="st3" d="M-147.7,302.7h1.5l-0.5,2.1c0.5-0.7,1.1-1.3,1.8-1.7c0.7-0.4,1.4-0.6,2.2-0.6c0.7,0,1.3,0.2,1.7,0.6
		s0.6,1,0.6,1.8c0.6-0.8,1.2-1.4,1.9-1.8c0.7-0.4,1.4-0.6,2.2-0.6c0.8,0,1.4,0.2,1.7,0.7s0.5,1,0.5,1.7c0,0.5-0.1,1.1-0.2,1.7
		l-1.3,5.9h-1.7l1.2-5.5c0.1-0.5,0.2-1,0.2-1.4c0-1.1-0.5-1.7-1.4-1.7c-0.3,0-0.6,0.1-1,0.2c-0.3,0.1-0.6,0.3-0.9,0.5
		s-0.6,0.5-0.8,0.8c-0.3,0.3-0.5,0.7-0.7,1.1l-1.3,6h-1.7l1.2-5.5c0.1-0.5,0.2-1,0.2-1.4c0-1.1-0.5-1.6-1.3-1.6
		c-0.6,0-1.3,0.2-1.9,0.7c-0.6,0.5-1.1,1.1-1.5,1.9l-1.3,6h-1.7L-147.7,302.7z"/>
	<path class="st3" d="M-130.9,302.7h1.5l-0.4,1.9c0.5-0.6,1.1-1.1,1.8-1.5c0.7-0.4,1.4-0.6,2.1-0.6c0.5,0,1,0.1,1.5,0.3
		c0.4,0.2,0.8,0.5,1.1,0.9c0.3,0.4,0.5,0.8,0.7,1.3c0.2,0.5,0.2,1,0.2,1.6c0,0.8-0.1,1.5-0.4,2.3s-0.7,1.4-1.2,2
		c-0.5,0.6-1.1,1-1.7,1.4c-0.7,0.3-1.4,0.5-2.1,0.5c-0.8,0-1.4-0.2-1.9-0.6c-0.5-0.4-0.9-0.9-1.1-1.5l-1.3,6h-1.7L-130.9,302.7z
		 M-128.1,311.4c0.5,0,1-0.1,1.5-0.4c0.5-0.3,0.9-0.6,1.2-1c0.4-0.4,0.6-0.9,0.9-1.4c0.2-0.5,0.3-1.1,0.3-1.6c0-0.4-0.1-0.8-0.2-1.1
		c-0.1-0.4-0.3-0.7-0.5-0.9c-0.2-0.3-0.5-0.5-0.8-0.6c-0.3-0.2-0.6-0.2-1-0.2c-0.3,0-0.6,0.1-0.9,0.2c-0.3,0.1-0.6,0.3-1,0.5
		c-0.3,0.2-0.6,0.4-0.8,0.7s-0.4,0.6-0.6,0.9l-0.6,2.8c0.1,0.7,0.4,1.2,0.8,1.7C-129.3,311.2-128.8,311.4-128.1,311.4z"/>
	<path class="st3" d="M-119.7,312.8c-0.5,0-0.9-0.1-1.2-0.4c-0.3-0.3-0.4-0.6-0.4-1.1c0-0.1,0-0.2,0-0.3c0-0.1,0-0.2,0.1-0.3
		l2.5-11.9h1.7l-2.4,11.3c0,0.1,0,0.1,0,0.2c0,0.1,0,0.1,0,0.2c0,0.5,0.3,0.8,0.9,0.8c0.1,0,0.3,0,0.5-0.1c0.2,0,0.4-0.1,0.6-0.2
		l-0.1,1.3c-0.3,0.1-0.6,0.2-1,0.3C-119.1,312.7-119.4,312.8-119.7,312.8z"/>
	<path class="st3" d="M-112.5,312.8c-0.6,0-1.2-0.1-1.7-0.3c-0.5-0.2-0.9-0.5-1.2-0.9s-0.6-0.8-0.8-1.3c-0.2-0.5-0.3-1.1-0.3-1.6
		c0-0.8,0.2-1.6,0.5-2.3s0.7-1.4,1.3-1.9c0.5-0.6,1.2-1,1.9-1.3c0.7-0.3,1.5-0.5,2.4-0.5c1,0,1.8,0.2,2.4,0.7c0.6,0.4,0.9,1.1,0.9,2
		c0,1-0.4,1.8-1.3,2.3c-0.9,0.5-2.2,0.8-4.1,0.8c-0.3,0-0.6,0-1,0c-0.4,0-0.8,0-1.2-0.1c0,0.1,0,0.2,0,0.2s0,0.1,0,0.2
		c0,0.4,0.1,0.8,0.2,1.1c0.1,0.4,0.3,0.7,0.5,0.9c0.2,0.3,0.5,0.5,0.8,0.6c0.3,0.2,0.7,0.2,1.1,0.2c0.6,0,1.2-0.1,1.7-0.4
		c0.6-0.3,1-0.7,1.3-1.2l1.3,0.4c-0.2,0.4-0.5,0.7-0.9,1c-0.3,0.3-0.7,0.6-1.1,0.8c-0.4,0.2-0.8,0.4-1.3,0.5
		C-111.6,312.8-112.1,312.8-112.5,312.8z M-110.5,303.8c-0.5,0-1,0.1-1.5,0.3c-0.4,0.2-0.8,0.4-1.1,0.7c-0.3,0.3-0.6,0.6-0.8,1
		c-0.2,0.4-0.4,0.8-0.5,1.2c0.4,0,0.7,0.1,1.1,0.1c0.3,0,0.6,0,0.9,0c0.7,0,1.3,0,1.8-0.1s0.9-0.2,1.2-0.4s0.5-0.4,0.7-0.6
		c0.1-0.2,0.2-0.5,0.2-0.8c0-0.5-0.2-0.8-0.5-1.1C-109.5,303.9-110,303.8-110.5,303.8z"/>
	<path class="st3" d="M-104.1,312.8c-0.5,0-0.9-0.1-1.3-0.4c-0.3-0.2-0.5-0.6-0.5-1.2c0-0.2,0-0.4,0.1-0.6l1.4-6.7h-1.3l0.3-1.3h1.3
		l0.7-3.3h1.7l-0.7,3.3h2.1l-0.3,1.3h-2.1l-1.3,6.2c0,0.1,0,0.2,0,0.3c0,0.3,0.1,0.5,0.2,0.6c0.2,0.1,0.4,0.2,0.6,0.2
		c0.3,0,0.6-0.1,0.9-0.2c0.3-0.1,0.5-0.2,0.6-0.3l0.1,1.3c-0.2,0.2-0.6,0.3-1,0.4C-103.1,312.7-103.6,312.8-104.1,312.8z"/>
	<path class="st3" d="M-96.9,312.8c-0.6,0-1.1-0.1-1.5-0.3c-0.4-0.2-0.8-0.5-1.1-0.9c-0.3-0.4-0.5-0.8-0.7-1.3
		c-0.2-0.5-0.2-1-0.2-1.6c0-0.8,0.2-1.6,0.5-2.3c0.3-0.7,0.7-1.4,1.2-2c0.5-0.6,1.1-1,1.7-1.4s1.4-0.5,2.1-0.5
		c0.8,0,1.4,0.2,1.9,0.6c0.5,0.4,0.9,0.9,1.1,1.5l0.4-2h1.7l-1.7,7.9c0,0.1,0,0.1,0,0.1c0,0,0,0.1,0,0.1c0,0.2,0.1,0.3,0.4,0.4
		l-0.3,1.4c-0.1,0-0.3,0-0.4,0.1s-0.2,0-0.3,0c-0.4,0-0.6-0.1-0.8-0.2c-0.2-0.2-0.3-0.4-0.3-0.6c0-0.2,0.1-0.6,0.2-1.1
		c-0.5,0.6-1.1,1.1-1.8,1.5C-95.5,312.6-96.2,312.8-96.9,312.8z M-96.2,311.4c0.3,0,0.6-0.1,0.9-0.2c0.3-0.1,0.6-0.3,0.9-0.5
		c0.3-0.2,0.6-0.4,0.8-0.7s0.4-0.6,0.6-0.9l0.6-2.9c0-0.3-0.1-0.6-0.3-0.9c-0.2-0.3-0.3-0.5-0.6-0.7s-0.5-0.4-0.7-0.5
		c-0.3-0.1-0.6-0.2-0.8-0.2c-0.5,0-1,0.1-1.5,0.4c-0.5,0.3-0.9,0.6-1.2,1c-0.4,0.4-0.6,0.9-0.9,1.4s-0.3,1.1-0.3,1.6
		c0,0.4,0.1,0.8,0.2,1.1c0.1,0.4,0.3,0.7,0.5,0.9c0.2,0.3,0.5,0.5,0.8,0.6C-96.9,311.3-96.6,311.4-96.2,311.4z"/>
	<path class="st3" d="M-87.2,302.7h1.6l-0.5,2.3c0.5-0.7,1-1.2,1.6-1.7c0.6-0.4,1.2-0.6,1.8-0.6c0.1,0,0.2,0,0.3,0
		c0.1,0,0.1,0,0.2,0l-0.3,1.4c-0.8,0-1.5,0.2-2.2,0.6c-0.7,0.4-1.2,1-1.6,1.7l-1.3,6.1h-1.7L-87.2,302.7z"/>
	<path class="st3" d="M-75.8,302.7h1.5l-0.4,1.9c0.5-0.6,1.1-1.1,1.8-1.5c0.7-0.4,1.4-0.6,2.1-0.6c0.5,0,1,0.1,1.5,0.3
		c0.4,0.2,0.8,0.5,1.1,0.9c0.3,0.4,0.5,0.8,0.7,1.3c0.2,0.5,0.2,1,0.2,1.6c0,0.8-0.1,1.5-0.4,2.3c-0.3,0.7-0.7,1.4-1.2,2
		c-0.5,0.6-1.1,1-1.7,1.4c-0.7,0.3-1.4,0.5-2.1,0.5c-0.8,0-1.4-0.2-1.9-0.6s-0.9-0.9-1.1-1.5l-1.3,6h-1.7L-75.8,302.7z M-73,311.4
		c0.5,0,1-0.1,1.5-0.4s0.9-0.6,1.2-1c0.4-0.4,0.6-0.9,0.9-1.4c0.2-0.5,0.3-1.1,0.3-1.6c0-0.4-0.1-0.8-0.2-1.1
		c-0.1-0.4-0.3-0.7-0.5-0.9c-0.2-0.3-0.5-0.5-0.8-0.6s-0.6-0.2-1-0.2c-0.3,0-0.6,0.1-0.9,0.2c-0.3,0.1-0.6,0.3-1,0.5
		c-0.3,0.2-0.6,0.4-0.8,0.7c-0.3,0.3-0.4,0.6-0.6,0.9l-0.6,2.8c0.1,0.7,0.4,1.2,0.8,1.7C-74.2,311.2-73.7,311.4-73,311.4z"/>
	<path class="st3" d="M-64.5,302.7h1.6l-0.5,2.3c0.5-0.7,1-1.2,1.6-1.7c0.6-0.4,1.2-0.6,1.8-0.6c0.1,0,0.2,0,0.3,0
		c0.1,0,0.1,0,0.2,0l-0.3,1.4c-0.8,0-1.5,0.2-2.2,0.6c-0.7,0.4-1.2,1-1.6,1.7l-1.3,6.1h-1.7L-64.5,302.7z"/>
	<path class="st3" d="M-56.1,312.8c-0.6,0-1.1-0.1-1.6-0.3s-0.9-0.5-1.2-0.9c-0.3-0.4-0.6-0.8-0.7-1.3c-0.2-0.5-0.2-1-0.2-1.6
		c0-0.8,0.2-1.6,0.5-2.3c0.3-0.7,0.7-1.4,1.3-2c0.5-0.6,1.2-1,1.9-1.4s1.5-0.5,2.3-0.5c0.6,0,1.1,0.1,1.6,0.3
		c0.5,0.2,0.9,0.5,1.2,0.9c0.3,0.4,0.6,0.8,0.8,1.3s0.3,1,0.3,1.6c0,0.8-0.2,1.5-0.5,2.3c-0.3,0.7-0.8,1.4-1.3,2
		c-0.6,0.6-1.2,1-1.9,1.4S-55.3,312.8-56.1,312.8z M-55.8,311.4c0.5,0,1-0.1,1.4-0.4c0.5-0.2,0.9-0.6,1.3-1c0.4-0.4,0.7-0.9,0.9-1.4
		c0.2-0.5,0.3-1.1,0.3-1.7c0-0.4-0.1-0.8-0.2-1.2s-0.3-0.7-0.5-0.9c-0.2-0.3-0.5-0.5-0.8-0.6c-0.3-0.2-0.6-0.2-1-0.2
		c-0.5,0-1,0.1-1.4,0.4c-0.5,0.2-0.9,0.6-1.3,1c-0.4,0.4-0.7,0.9-0.9,1.4c-0.2,0.5-0.3,1.1-0.3,1.7c0,0.4,0.1,0.8,0.2,1.2
		s0.3,0.7,0.5,0.9s0.5,0.5,0.8,0.6C-56.5,311.3-56.2,311.4-55.8,311.4z"/>
	<path class="st3" d="M-47.2,302.7h1.5l-0.4,1.9c0.5-0.6,1.1-1.1,1.8-1.5c0.7-0.4,1.4-0.6,2.1-0.6c0.5,0,1,0.1,1.5,0.3
		c0.4,0.2,0.8,0.5,1.1,0.9c0.3,0.4,0.5,0.8,0.7,1.3c0.2,0.5,0.2,1,0.2,1.6c0,0.8-0.1,1.5-0.4,2.3s-0.7,1.4-1.2,2
		c-0.5,0.6-1.1,1-1.7,1.4c-0.7,0.3-1.4,0.5-2.1,0.5c-0.8,0-1.4-0.2-1.9-0.6c-0.5-0.4-0.9-0.9-1.1-1.5l-1.3,6h-1.7L-47.2,302.7z
		 M-44.4,311.4c0.5,0,1-0.1,1.5-0.4c0.5-0.3,0.9-0.6,1.2-1c0.4-0.4,0.6-0.9,0.9-1.4c0.2-0.5,0.3-1.1,0.3-1.6c0-0.4-0.1-0.8-0.2-1.1
		c-0.1-0.4-0.3-0.7-0.5-0.9c-0.2-0.3-0.5-0.5-0.8-0.6c-0.3-0.2-0.6-0.2-1-0.2c-0.3,0-0.6,0.1-0.9,0.2c-0.3,0.1-0.6,0.3-1,0.5
		c-0.3,0.2-0.6,0.4-0.8,0.7s-0.4,0.6-0.6,0.9l-0.6,2.8c0.1,0.7,0.4,1.2,0.8,1.7C-45.6,311.2-45.1,311.4-44.4,311.4z"/>
	<path class="st3" d="M-35.1,312.8c-1.5,0-2.3-0.8-2.3-2.5c0-0.4,0.1-1,0.2-1.7l1.3-5.9h1.7l-1.2,5.6c-0.1,0.5-0.2,1-0.2,1.3
		c0,1.2,0.5,1.7,1.5,1.7c0.6,0,1.3-0.2,1.9-0.7c0.7-0.4,1.2-1,1.6-1.8l1.3-6.2h1.7l-1.7,7.9c0,0.1,0,0.1,0,0.1c0,0,0,0.1,0,0.1
		c0,0.2,0.1,0.3,0.4,0.4l-0.3,1.4c-0.1,0-0.3,0-0.4,0.1s-0.2,0-0.3,0c-0.3,0-0.6-0.1-0.8-0.2c-0.2-0.2-0.3-0.4-0.3-0.6
		c0-0.1,0-0.3,0-0.5s0.1-0.5,0.2-0.9c-0.6,0.7-1.2,1.3-2,1.7C-33.5,312.6-34.3,312.8-35.1,312.8z"/>
	<path class="st3" d="M-22.9,312.8c-0.6,0-1.2-0.1-1.7-0.3c-0.5-0.2-0.9-0.5-1.2-0.9s-0.6-0.8-0.8-1.3c-0.2-0.5-0.3-1.1-0.3-1.6
		c0-0.8,0.2-1.6,0.5-2.3s0.7-1.4,1.3-1.9c0.5-0.6,1.2-1,1.9-1.3c0.7-0.3,1.5-0.5,2.4-0.5c1,0,1.8,0.2,2.4,0.7c0.6,0.4,0.9,1.1,0.9,2
		c0,1-0.4,1.8-1.3,2.3c-0.9,0.5-2.2,0.8-4.1,0.8c-0.3,0-0.6,0-1,0c-0.4,0-0.8,0-1.2-0.1c0,0.1,0,0.2,0,0.2s0,0.1,0,0.2
		c0,0.4,0.1,0.8,0.2,1.1c0.1,0.4,0.3,0.7,0.5,0.9c0.2,0.3,0.5,0.5,0.8,0.6c0.3,0.2,0.7,0.2,1.1,0.2c0.6,0,1.2-0.1,1.7-0.4
		c0.6-0.3,1-0.7,1.3-1.2l1.3,0.4c-0.2,0.4-0.5,0.7-0.9,1c-0.3,0.3-0.7,0.6-1.1,0.8c-0.4,0.2-0.8,0.4-1.3,0.5
		C-22,312.8-22.4,312.8-22.9,312.8z M-20.9,303.8c-0.5,0-1,0.1-1.5,0.3c-0.4,0.2-0.8,0.4-1.1,0.7c-0.3,0.3-0.6,0.6-0.8,1
		c-0.2,0.4-0.4,0.8-0.5,1.2c0.4,0,0.7,0.1,1.1,0.1c0.3,0,0.6,0,0.9,0c0.7,0,1.3,0,1.8-0.1s0.9-0.2,1.2-0.4s0.5-0.4,0.7-0.6
		c0.1-0.2,0.2-0.5,0.2-0.8c0-0.5-0.2-0.8-0.5-1.1C-19.9,303.9-20.3,303.8-20.9,303.8z"/>
	<path class="st3" d="M-13.6,312.8c-0.8,0-1.5-0.1-2.2-0.4s-1.2-0.6-1.7-1.1l1-1.1c0.5,0.4,0.9,0.8,1.4,1c0.5,0.2,1.1,0.3,1.7,0.3
		c0.8,0,1.4-0.2,1.8-0.5c0.5-0.3,0.7-0.8,0.7-1.4c0-0.4-0.2-0.7-0.6-0.9c-0.4-0.2-0.9-0.4-1.7-0.6c-0.5-0.1-0.9-0.3-1.2-0.4
		c-0.3-0.1-0.6-0.3-0.9-0.4c-0.2-0.2-0.4-0.4-0.5-0.6s-0.2-0.5-0.2-0.8c0-0.6,0.1-1.1,0.4-1.5c0.2-0.4,0.6-0.8,1-1.1
		c0.4-0.3,0.9-0.5,1.4-0.7c0.5-0.2,1.1-0.2,1.6-0.2c0.7,0,1.3,0.1,1.9,0.4c0.6,0.2,1,0.6,1.4,0.9l-1,1c-0.3-0.4-0.7-0.6-1.2-0.8
		s-0.9-0.3-1.4-0.3c-0.3,0-0.6,0-0.9,0.1c-0.3,0.1-0.5,0.2-0.8,0.4s-0.4,0.4-0.5,0.6c-0.1,0.2-0.2,0.5-0.2,0.8
		c0,0.4,0.1,0.6,0.4,0.8c0.3,0.2,0.8,0.3,1.4,0.5c0.5,0.1,1,0.3,1.4,0.4c0.4,0.1,0.7,0.3,1,0.5c0.3,0.2,0.5,0.4,0.6,0.6
		s0.2,0.5,0.2,0.8c0,0.5-0.1,1-0.3,1.4c-0.2,0.4-0.5,0.8-0.9,1.1s-0.9,0.6-1.4,0.7C-12.4,312.7-13,312.8-13.6,312.8z"/>
	<path class="st3" d="M-5.4,312.8c-0.5,0-0.9-0.1-1.3-0.4c-0.3-0.2-0.5-0.6-0.5-1.2c0-0.2,0-0.4,0.1-0.6l1.4-6.7H-7l0.3-1.3h1.3
		l0.7-3.3h1.7l-0.7,3.3h2.1L-2,304h-2.1l-1.3,6.2c0,0.1,0,0.2,0,0.3c0,0.3,0.1,0.5,0.2,0.6c0.2,0.1,0.4,0.2,0.6,0.2
		c0.3,0,0.6-0.1,0.9-0.2c0.3-0.1,0.5-0.2,0.6-0.3l0.1,1.3c-0.2,0.2-0.6,0.3-1,0.4C-4.5,312.7-4.9,312.8-5.4,312.8z"/>
	<path class="st3" d="M1.7,312.8c-0.6,0-1.1-0.1-1.5-0.3c-0.4-0.2-0.8-0.5-1.1-0.9c-0.3-0.4-0.5-0.8-0.7-1.3c-0.2-0.5-0.2-1-0.2-1.6
		c0-0.8,0.2-1.6,0.5-2.3c0.3-0.7,0.7-1.4,1.2-2s1.1-1,1.7-1.4s1.4-0.5,2.1-0.5c0.8,0,1.4,0.2,1.9,0.6c0.5,0.4,0.9,0.9,1.1,1.5l0.4-2
		h1.7l-1.7,7.9c0,0.1,0,0.1,0,0.1c0,0,0,0.1,0,0.1c0,0.2,0.1,0.3,0.4,0.4l-0.3,1.4c-0.1,0-0.3,0-0.4,0.1c-0.1,0-0.2,0-0.3,0
		c-0.4,0-0.6-0.1-0.8-0.2s-0.3-0.4-0.3-0.6c0-0.2,0.1-0.6,0.2-1.1c-0.5,0.6-1.1,1.1-1.8,1.5S2.4,312.8,1.7,312.8z M2.5,311.4
		c0.3,0,0.6-0.1,0.9-0.2s0.6-0.3,1-0.5c0.3-0.2,0.6-0.4,0.8-0.7c0.3-0.3,0.4-0.6,0.6-0.9l0.6-2.9c0-0.3-0.1-0.6-0.3-0.9
		c-0.2-0.3-0.3-0.5-0.6-0.7c-0.2-0.2-0.5-0.4-0.7-0.5c-0.3-0.1-0.6-0.2-0.8-0.2c-0.5,0-1,0.1-1.5,0.4c-0.5,0.3-0.9,0.6-1.2,1
		c-0.4,0.4-0.6,0.9-0.9,1.4S0,307.9,0,308.4c0,0.4,0.1,0.8,0.2,1.1c0.1,0.4,0.3,0.7,0.5,0.9c0.2,0.3,0.5,0.5,0.8,0.6
		C1.7,311.3,2.1,311.4,2.5,311.4z"/>
</g>
</svg>
