<?xml version="1.0" encoding="utf-8"?>
<!-- Generator: Adobe Illustrator 19.1.0, SVG Export Plug-In . SVG Version: 6.00 Build 0)  -->
<svg version="1.1" id="Capa_1" xmlns="http://www.w3.org/2000/svg" xmlns:xlink="http://www.w3.org/1999/xlink" x="0px" y="0px"
	 viewBox="0 0 285.7 68.1" style="enable-background:new 0 0 285.7 68.1;" xml:space="preserve">
<style type="text/css">
	.st0{fill:#1558B9;}
	.st1{fill:#FF4A0F;}
	.st2{fill:#BF380B;}
	.st3{fill:#FFFFFF;}
</style>
<polygon class="st0" points="58.8,55.3 285.7,55.3 269.9,34.7 285.7,14 58.8,14 "/>
<g>
	<path class="st1" d="M42.8,21.1l23.5,23.5c3.9-11.8,1.1-25.3-8.3-34.7C44.8-3.3,23.3-3.3,10,10C-3.3,23.3-3.3,44.8,10,58.1
		c8.2,8.2,19.5,11.3,30.1,9.4L21.7,49.1l19.7-19.3L42.8,21.1z"/>
	<path class="st2" d="M66.4,44.6L42.8,21.1l-1.5,8.6L21.7,49.1l18.4,18.4c6.6-1.2,12.9-4.3,18-9.4C62,54.2,64.8,49.6,66.4,44.6z"/>
</g>
<g>
	<path class="st3" d="M21.7,49.1c0-1.5,0.1-2.8,0.4-4.1c0.2-1.3,0.7-2.4,1.3-3.6c0.6-1.1,1.5-2.2,2.6-3.2c1.1-1,2.5-2,4.2-2.9
		c1.2-0.7,2.4-1.3,3.5-1.8c1.1-0.6,2-1.1,2.9-1.7c0.8-0.5,1.5-1.1,2-1.7c0.5-0.6,0.7-1.3,0.7-2.1c0-1.1-0.5-2.1-1.4-3
		c-1-0.9-2.4-1.3-4.2-1.3c-0.9,0-1.8,0.1-2.6,0.4c-0.8,0.3-1.5,0.6-2.2,1c-0.6,0.4-1.2,0.9-1.7,1.3c-0.5,0.5-0.9,1-1.3,1.4l-3.7-4.3
		c0.4-0.4,0.9-0.9,1.7-1.4c0.8-0.6,1.7-1.1,2.7-1.7c1.1-0.5,2.3-1,3.7-1.3c1.4-0.4,2.9-0.6,4.5-0.6c1.7,0,3.2,0.2,4.5,0.7
		c1.3,0.4,2.5,1,3.4,1.8c0.9,0.8,1.6,1.7,2.1,2.8c0.5,1.1,0.7,2.2,0.7,3.4c0,1.3-0.3,2.5-0.8,3.5c-0.5,1-1.2,1.9-1.9,2.7
		c-0.8,0.8-1.6,1.4-2.5,2c-0.9,0.5-1.8,1-2.5,1.4c-0.7,0.4-1.6,0.8-2.5,1.2c-0.9,0.5-1.8,1-2.7,1.6c-0.9,0.6-1.7,1.3-2.4,2
		c-0.7,0.7-1.2,1.5-1.5,2.3H46v5.2H21.7z"/>
</g>
</svg>
