<?xml version="1.0" encoding="utf-8"?>
<!-- Generator: Adobe Illustrator 19.1.0, SVG Export Plug-In . SVG Version: 6.00 Build 0)  -->
<svg version="1.1" id="Capa_1" xmlns="http://www.w3.org/2000/svg" xmlns:xlink="http://www.w3.org/1999/xlink" x="0px" y="0px"
	 viewBox="-253 272.9 283.2 68.1" style="enable-background:new -253 272.9 283.2 68.1;" xml:space="preserve">
<style type="text/css">
	.st0{fill:#CCCDCD;}
	.st1{fill:#BFC1C0;}
	.st2{fill:#999999;}
	.st3{fill:#FFFFFF;}
</style>
<polygon class="st0" points="-193.6,330.7 30.2,330.7 14.3,310 30.2,289.3 -193.6,289.3 "/>
<g>
	<path class="st1" d="M-219,321.7l6.7-4.1l-2.1-12l4-12.8l24,24.1c3.6-11.6,0.7-24.8-8.5-34c-13.3-13.3-34.8-13.3-48.1,0
		c-13.3,13.3-13.3,34.8,0,48.1c8.6,8.6,20.8,11.7,31.9,9.1l-20-20L-219,321.7z"/>
	<path class="st2" d="M-186.4,316.9l-24-24l-4,12.8l2.1,12l-6.7,4l-12.2-1.6l20,20c6-1.4,11.6-4.4,16.3-9.1
		C-190.8,326.9-188,322.1-186.4,316.9z"/>
</g>
<g>
	<path class="st3" d="M-214.3,306.1c1,0.2,1.9,0.5,2.8,1.1c0.8,0.5,1.6,1.1,2.2,1.9c0.6,0.8,1,1.6,1.4,2.6c0.3,1,0.5,2,0.5,3.2
		c0,1.5-0.3,2.9-0.9,4.1c-0.6,1.2-1.4,2.3-2.4,3.2c-1.1,0.9-2.3,1.6-3.8,2c-1.5,0.5-3.2,0.7-5,0.7c-2.5,0-4.7-0.4-6.6-1.3
		c-1.9-0.9-3.4-2.1-4.5-3.7l3.3-3.7c0.8,1.2,1.8,2.2,3,2.8c1.2,0.7,2.8,1,4.7,1c2.2,0,3.8-0.5,5-1.4c1.2-0.9,1.7-2.3,1.7-4.1
		c0-1.9-0.7-3.4-2-4.4c-1.3-1-3.2-1.6-5.8-1.6h-1.3v-4.2h1.5c2.2,0,3.9-0.5,5-1.5c1.2-1,1.8-2.3,1.8-3.9s-0.5-2.7-1.6-3.4
		c-1-0.7-2.4-1.1-4.1-1.1s-3.1,0.4-4.4,1.1c-1.3,0.7-2.3,1.7-3,3.1l-3.4-3.7c0.5-0.8,1.1-1.5,1.9-2.1c0.8-0.6,1.7-1.2,2.7-1.7
		s2.1-0.8,3.2-1.1c1.2-0.2,2.4-0.4,3.6-0.4c1.6,0,3.1,0.2,4.4,0.6s2.5,1,3.4,1.8c1,0.8,1.7,1.7,2.2,2.7c0.5,1.1,0.8,2.3,0.8,3.6
		c0,1-0.1,1.9-0.4,2.8c-0.3,0.9-0.7,1.7-1.2,2.4c-0.5,0.7-1.2,1.3-1.9,1.8C-212.5,305.6-213.4,305.9-214.3,306.1z"/>
</g>
<g>
	<path class="st3" d="M-173.9,314.7v-13.5h5.8c0.6,0,1.1,0.1,1.6,0.4c0.5,0.2,0.9,0.6,1.3,1c0.4,0.4,0.6,0.9,0.8,1.4
		c0.2,0.5,0.3,1,0.3,1.6c0,0.5-0.1,0.9-0.2,1.4c-0.1,0.4-0.3,0.8-0.6,1.2s-0.5,0.7-0.9,0.9c-0.3,0.3-0.7,0.4-1.2,0.6l3.3,5.2h-1.9
		l-3.1-4.8h-3.6v4.8H-173.9z M-172.2,308.4h4.1c0.4,0,0.7-0.1,1-0.2c0.3-0.2,0.5-0.4,0.7-0.6c0.2-0.3,0.4-0.6,0.5-0.9
		c0.1-0.3,0.2-0.7,0.2-1.1c0-0.4-0.1-0.7-0.2-1.1c-0.1-0.3-0.3-0.6-0.5-0.9c-0.2-0.3-0.5-0.5-0.8-0.6c-0.3-0.1-0.6-0.2-0.9-0.2h-4
		V308.4z"/>
	<path class="st3" d="M-157.6,314.9c-0.7,0-1.4-0.1-2.1-0.4s-1.2-0.6-1.6-1.1s-0.8-1-1-1.6c-0.2-0.6-0.4-1.3-0.4-2s0.1-1.4,0.4-2
		c0.2-0.6,0.6-1.2,1-1.6c0.4-0.5,1-0.8,1.6-1.1s1.3-0.4,2.1-0.4s1.4,0.1,2,0.4s1.1,0.6,1.6,1.1c0.4,0.5,0.8,1,1,1.6s0.4,1.3,0.4,1.9
		c0,0.1,0,0.3,0,0.4c0,0.1,0,0.2,0,0.3h-8.2c0,0.5,0.2,0.9,0.3,1.3s0.4,0.8,0.7,1c0.3,0.3,0.6,0.5,1,0.7c0.4,0.2,0.8,0.2,1.2,0.2
		c0.3,0,0.6,0,0.9-0.1c0.3-0.1,0.6-0.2,0.8-0.3c0.3-0.1,0.5-0.3,0.7-0.5c0.2-0.2,0.3-0.4,0.4-0.7l1.4,0.4c-0.2,0.4-0.4,0.7-0.7,1
		c-0.3,0.3-0.6,0.6-1,0.8c-0.4,0.2-0.8,0.4-1.2,0.5S-157.1,314.9-157.6,314.9z M-154.2,309.1c0-0.5-0.2-0.9-0.4-1.3
		c-0.2-0.4-0.4-0.7-0.7-1c-0.3-0.3-0.6-0.5-1-0.7c-0.4-0.2-0.8-0.2-1.3-0.2s-0.9,0.1-1.3,0.2s-0.7,0.4-1,0.7c-0.3,0.3-0.5,0.6-0.7,1
		c-0.2,0.4-0.3,0.8-0.3,1.3H-154.2z"/>
	<path class="st3" d="M-147.4,314.9c-0.8,0-1.6-0.1-2.4-0.4c-0.8-0.2-1.4-0.6-2-1.1l0.7-1.1c0.6,0.4,1.2,0.8,1.7,1
		c0.6,0.2,1.2,0.3,1.8,0.3c0.7,0,1.3-0.1,1.7-0.4s0.6-0.7,0.6-1.2c0-0.2-0.1-0.4-0.2-0.6c-0.1-0.2-0.3-0.3-0.5-0.4
		c-0.2-0.1-0.5-0.2-0.9-0.3s-0.8-0.2-1.2-0.3c-0.6-0.2-1.1-0.3-1.5-0.4s-0.8-0.3-1.1-0.5c-0.3-0.2-0.5-0.4-0.6-0.7
		c-0.1-0.3-0.2-0.6-0.2-1c0-0.5,0.1-0.9,0.3-1.3c0.2-0.4,0.5-0.7,0.8-1c0.3-0.3,0.7-0.5,1.2-0.6s1-0.2,1.5-0.2
		c0.7,0,1.4,0.1,2.1,0.4c0.6,0.2,1.2,0.6,1.6,0.9l-0.8,1c-0.4-0.4-0.9-0.6-1.4-0.8c-0.5-0.2-1.1-0.3-1.6-0.3c-0.6,0-1.1,0.1-1.5,0.4
		c-0.4,0.3-0.6,0.7-0.6,1.2c0,0.2,0,0.4,0.1,0.6s0.2,0.3,0.4,0.4c0.2,0.1,0.4,0.2,0.7,0.3c0.3,0.1,0.7,0.2,1.1,0.3
		c0.7,0.2,1.2,0.3,1.7,0.5c0.5,0.2,0.9,0.3,1.2,0.6c0.3,0.2,0.6,0.5,0.7,0.8c0.2,0.3,0.2,0.6,0.2,1.1c0,0.9-0.4,1.7-1.1,2.2
		S-146.2,314.9-147.4,314.9z"/>
	<path class="st3" d="M-138.6,314.9c-1,0-1.8-0.3-2.4-1c-0.5-0.7-0.8-1.7-0.8-3.1v-5.9h1.7v5.6c0,2,0.7,3,2.1,3
		c0.7,0,1.3-0.2,1.9-0.7c0.6-0.4,1-1,1.3-1.8v-6.2h1.7v7.9c0,0.4,0.2,0.6,0.5,0.6v1.4c-0.2,0-0.3,0-0.4,0c-0.1,0-0.2,0-0.3,0
		c-0.3,0-0.6-0.1-0.8-0.3s-0.3-0.4-0.4-0.7l0-1.2c-0.4,0.7-1,1.3-1.7,1.7C-136.9,314.7-137.7,314.9-138.6,314.9z"/>
	<path class="st3" d="M-115.4,314.7h-1.7v-5.5c0-1-0.2-1.8-0.5-2.3c-0.3-0.5-0.8-0.7-1.5-0.7c-0.7,0-1.3,0.2-1.8,0.7
		c-0.5,0.5-0.9,1.1-1.1,1.9v6h-1.7v-5.5c0-1.1-0.2-1.8-0.5-2.3s-0.8-0.7-1.5-0.7c-0.7,0-1.3,0.2-1.8,0.7c-0.5,0.5-0.9,1.1-1.2,1.9v6
		h-1.7v-9.9h1.5v2.1c0.4-0.7,0.9-1.3,1.6-1.7c0.6-0.4,1.4-0.6,2.2-0.6c0.8,0,1.5,0.2,2,0.7c0.5,0.4,0.8,1,0.9,1.7
		c0.9-1.6,2.1-2.4,3.8-2.4c0.6,0,1,0.1,1.4,0.3s0.7,0.5,0.9,0.9c0.2,0.4,0.4,0.8,0.5,1.3s0.2,1.1,0.2,1.7V314.7z"/>
	<path class="st3" d="M-108.5,314.9c-0.7,0-1.4-0.1-2.1-0.4s-1.2-0.6-1.6-1.1s-0.8-1-1-1.6c-0.2-0.6-0.4-1.3-0.4-2s0.1-1.4,0.4-2
		c0.2-0.6,0.6-1.2,1-1.6c0.4-0.5,1-0.8,1.6-1.1s1.3-0.4,2.1-0.4s1.4,0.1,2,0.4s1.1,0.6,1.6,1.1c0.4,0.5,0.8,1,1,1.6s0.4,1.3,0.4,1.9
		c0,0.1,0,0.3,0,0.4c0,0.1,0,0.2,0,0.3h-8.2c0,0.5,0.2,0.9,0.3,1.3s0.4,0.8,0.7,1c0.3,0.3,0.6,0.5,1,0.7c0.4,0.2,0.8,0.2,1.2,0.2
		c0.3,0,0.6,0,0.9-0.1c0.3-0.1,0.6-0.2,0.8-0.3c0.3-0.1,0.5-0.3,0.7-0.5c0.2-0.2,0.3-0.4,0.4-0.7l1.4,0.4c-0.2,0.4-0.4,0.7-0.7,1
		c-0.3,0.3-0.6,0.6-1,0.8c-0.4,0.2-0.8,0.4-1.2,0.5S-108,314.9-108.5,314.9z M-105.1,309.1c0-0.5-0.2-0.9-0.4-1.3
		c-0.2-0.4-0.4-0.7-0.7-1c-0.3-0.3-0.6-0.5-1-0.7c-0.4-0.2-0.8-0.2-1.3-0.2s-0.9,0.1-1.3,0.2s-0.7,0.4-1,0.7c-0.3,0.3-0.5,0.6-0.7,1
		c-0.2,0.4-0.3,0.8-0.3,1.3H-105.1z"/>
	<path class="st3" d="M-93.1,314.7h-1.7v-5.5c0-1.1-0.2-1.8-0.5-2.3c-0.3-0.5-0.8-0.7-1.5-0.7c-0.3,0-0.7,0.1-1,0.2
		c-0.3,0.1-0.7,0.3-1,0.5c-0.3,0.2-0.6,0.5-0.8,0.8c-0.2,0.3-0.4,0.7-0.5,1v6h-1.7v-9.9h1.5v2.1c0.4-0.7,1-1.3,1.7-1.7
		c0.7-0.4,1.5-0.6,2.4-0.6c0.6,0,1,0.1,1.4,0.3s0.7,0.5,0.9,0.9s0.4,0.8,0.5,1.3s0.1,1.1,0.1,1.7V314.7z"/>
	<path class="st3" d="M-85.4,314.7v-13.5h5.6c0.6,0,1.1,0.1,1.6,0.4s0.9,0.6,1.3,1c0.4,0.4,0.6,0.9,0.8,1.4c0.2,0.5,0.3,1,0.3,1.6
		c0,0.6-0.1,1.1-0.3,1.6s-0.5,1-0.8,1.4c-0.3,0.4-0.8,0.7-1.3,1c-0.5,0.2-1,0.4-1.6,0.4h-4v4.8H-85.4z M-83.7,308.4h3.9
		c0.4,0,0.7-0.1,1-0.2c0.3-0.1,0.5-0.3,0.7-0.6c0.2-0.3,0.4-0.6,0.5-0.9c0.1-0.3,0.2-0.7,0.2-1.1c0-0.4-0.1-0.8-0.2-1.1
		c-0.1-0.3-0.3-0.6-0.5-0.9s-0.5-0.4-0.8-0.6c-0.3-0.1-0.6-0.2-0.9-0.2h-3.8V308.4z"/>
	<path class="st3" d="M-68.8,306.3c-0.8,0-1.6,0.2-2.2,0.6s-1.1,1-1.4,1.7v6.1h-1.7v-9.9h1.6v2.3c0.3-0.7,0.8-1.2,1.3-1.7
		c0.6-0.4,1.2-0.7,1.8-0.7c0.1,0,0.2,0,0.3,0c0.1,0,0.2,0,0.2,0V306.3z"/>
	<path class="st3" d="M-63.2,314.9c-0.7,0-1.4-0.1-2-0.4c-0.6-0.3-1.1-0.7-1.6-1.1s-0.8-1-1-1.6c-0.2-0.6-0.4-1.3-0.4-2
		c0-0.7,0.1-1.4,0.4-2c0.2-0.6,0.6-1.2,1-1.6s1-0.8,1.6-1.1c0.6-0.3,1.3-0.4,2-0.4c0.7,0,1.4,0.1,2,0.4s1.1,0.7,1.6,1.1s0.8,1,1,1.6
		c0.2,0.6,0.4,1.3,0.4,2c0,0.7-0.1,1.3-0.4,2c-0.2,0.6-0.6,1.2-1,1.6s-1,0.8-1.6,1.1C-61.8,314.8-62.5,314.9-63.2,314.9z
		 M-66.5,309.8c0,0.5,0.1,1,0.3,1.4s0.4,0.8,0.7,1.2c0.3,0.3,0.6,0.6,1,0.8c0.4,0.2,0.8,0.3,1.3,0.3s0.9-0.1,1.3-0.3
		c0.4-0.2,0.8-0.5,1.1-0.8c0.3-0.3,0.5-0.7,0.7-1.2c0.2-0.4,0.3-0.9,0.3-1.5c0-0.5-0.1-1-0.3-1.4c-0.2-0.4-0.4-0.8-0.7-1.2
		c-0.3-0.3-0.7-0.6-1.1-0.8c-0.4-0.2-0.8-0.3-1.3-0.3s-0.9,0.1-1.3,0.3s-0.7,0.5-1,0.8c-0.3,0.3-0.5,0.7-0.7,1.2
		C-66.4,308.8-66.5,309.3-66.5,309.8z"/>
	<path class="st3" d="M-50.9,314.9c-0.8,0-1.5-0.2-2.2-0.6s-1.1-0.9-1.5-1.5v6h-1.7v-14h1.5v1.9c0.4-0.6,0.9-1.1,1.5-1.5
		s1.3-0.6,2.1-0.6c0.7,0,1.3,0.1,1.9,0.4c0.6,0.3,1.1,0.7,1.5,1.1c0.4,0.5,0.7,1,1,1.6c0.2,0.6,0.4,1.3,0.4,1.9c0,0.7-0.1,1.4-0.3,2
		s-0.5,1.2-0.9,1.6c-0.4,0.5-0.9,0.8-1.4,1.1C-49.7,314.8-50.3,314.9-50.9,314.9z M-51.5,313.5c0.5,0,0.9-0.1,1.3-0.3s0.7-0.5,1-0.8
		s0.5-0.7,0.7-1.2c0.2-0.4,0.2-0.9,0.2-1.4c0-0.5-0.1-1-0.3-1.4c-0.2-0.5-0.4-0.8-0.7-1.2c-0.3-0.3-0.7-0.6-1.1-0.8
		s-0.9-0.3-1.3-0.3c-0.3,0-0.6,0.1-0.9,0.2c-0.3,0.1-0.6,0.3-0.9,0.5c-0.3,0.2-0.5,0.4-0.7,0.7s-0.3,0.6-0.4,0.9v2.8
		c0.1,0.3,0.3,0.6,0.5,0.9c0.2,0.3,0.5,0.5,0.7,0.7c0.3,0.2,0.6,0.4,0.9,0.5C-52.1,313.4-51.8,313.5-51.5,313.5z"/>
	<path class="st3" d="M-41.5,314.9c-1,0-1.8-0.3-2.4-1c-0.5-0.7-0.8-1.7-0.8-3.1v-5.9h1.7v5.6c0,2,0.7,3,2.1,3
		c0.7,0,1.3-0.2,1.9-0.7c0.6-0.4,1-1,1.3-1.8v-6.2h1.7v7.9c0,0.4,0.2,0.6,0.5,0.6v1.4c-0.2,0-0.3,0-0.4,0c-0.1,0-0.2,0-0.3,0
		c-0.3,0-0.6-0.1-0.8-0.3s-0.3-0.4-0.4-0.7l0-1.2c-0.4,0.7-1,1.3-1.7,1.7C-39.8,314.7-40.6,314.9-41.5,314.9z"/>
	<path class="st3" d="M-28.9,314.9c-0.7,0-1.4-0.1-2.1-0.4s-1.2-0.6-1.6-1.1s-0.8-1-1-1.6c-0.2-0.6-0.4-1.3-0.4-2s0.1-1.4,0.4-2
		c0.2-0.6,0.6-1.2,1-1.6c0.4-0.5,1-0.8,1.6-1.1s1.3-0.4,2.1-0.4s1.4,0.1,2,0.4s1.1,0.6,1.6,1.1c0.4,0.5,0.8,1,1,1.6s0.4,1.3,0.4,1.9
		c0,0.1,0,0.3,0,0.4c0,0.1,0,0.2,0,0.3h-8.2c0,0.5,0.2,0.9,0.3,1.3s0.4,0.8,0.7,1c0.3,0.3,0.6,0.5,1,0.7c0.4,0.2,0.8,0.2,1.2,0.2
		c0.3,0,0.6,0,0.9-0.1c0.3-0.1,0.6-0.2,0.8-0.3c0.3-0.1,0.5-0.3,0.7-0.5c0.2-0.2,0.3-0.4,0.4-0.7l1.4,0.4c-0.2,0.4-0.4,0.7-0.7,1
		c-0.3,0.3-0.6,0.6-1,0.8c-0.4,0.2-0.8,0.4-1.2,0.5S-28.4,314.9-28.9,314.9z M-25.5,309.1c0-0.5-0.2-0.9-0.4-1.3
		c-0.2-0.4-0.4-0.7-0.7-1c-0.3-0.3-0.6-0.5-1-0.7c-0.4-0.2-0.8-0.2-1.3-0.2s-0.9,0.1-1.3,0.2s-0.7,0.4-1,0.7c-0.3,0.3-0.5,0.6-0.7,1
		c-0.2,0.4-0.3,0.8-0.3,1.3H-25.5z"/>
	<path class="st3" d="M-18.7,314.9c-0.8,0-1.6-0.1-2.4-0.4c-0.8-0.2-1.4-0.6-2-1.1l0.7-1.1c0.6,0.4,1.2,0.8,1.7,1
		c0.6,0.2,1.2,0.3,1.8,0.3c0.7,0,1.3-0.1,1.7-0.4s0.6-0.7,0.6-1.2c0-0.2-0.1-0.4-0.2-0.6c-0.1-0.2-0.3-0.3-0.5-0.4
		c-0.2-0.1-0.5-0.2-0.9-0.3s-0.8-0.2-1.2-0.3c-0.6-0.2-1.1-0.3-1.5-0.4s-0.8-0.3-1.1-0.5c-0.3-0.2-0.5-0.4-0.6-0.7
		c-0.1-0.3-0.2-0.6-0.2-1c0-0.5,0.1-0.9,0.3-1.3c0.2-0.4,0.5-0.7,0.8-1c0.3-0.3,0.7-0.5,1.2-0.6s1-0.2,1.5-0.2
		c0.7,0,1.4,0.1,2.1,0.4c0.6,0.2,1.2,0.6,1.6,0.9l-0.8,1c-0.4-0.4-0.9-0.6-1.4-0.8c-0.5-0.2-1.1-0.3-1.6-0.3c-0.6,0-1.1,0.1-1.5,0.4
		c-0.4,0.3-0.6,0.7-0.6,1.2c0,0.2,0,0.4,0.1,0.6s0.2,0.3,0.4,0.4c0.2,0.1,0.4,0.2,0.7,0.3c0.3,0.1,0.7,0.2,1.1,0.3
		c0.7,0.2,1.2,0.3,1.7,0.5c0.5,0.2,0.9,0.3,1.2,0.6c0.3,0.2,0.6,0.5,0.7,0.8c0.2,0.3,0.2,0.6,0.2,1.1c0,0.9-0.4,1.7-1.1,2.2
		S-17.5,314.9-18.7,314.9z"/>
	<path class="st3" d="M-7.7,314.2c-0.1,0.1-0.2,0.1-0.4,0.2s-0.4,0.1-0.6,0.2s-0.4,0.1-0.7,0.2c-0.2,0-0.5,0.1-0.8,0.1
		c-0.6,0-1.1-0.2-1.6-0.5c-0.4-0.3-0.7-0.9-0.7-1.6v-6.7h-1.3v-1.3h1.3v-3.3h1.7v3.3h2.2v1.3h-2.2v6.2c0,0.4,0.1,0.6,0.4,0.8
		c0.2,0.2,0.5,0.2,0.8,0.2c0.3,0,0.6-0.1,0.9-0.2s0.5-0.2,0.6-0.3L-7.7,314.2z"/>
	<path class="st3" d="M-3.6,314.9c-0.5,0-0.9-0.1-1.3-0.2s-0.8-0.4-1.1-0.7c-0.3-0.3-0.5-0.6-0.7-1c-0.2-0.4-0.3-0.8-0.3-1.2
		c0-0.5,0.1-0.9,0.3-1.2c0.2-0.4,0.5-0.7,0.9-1c0.4-0.3,0.8-0.5,1.3-0.6c0.5-0.2,1.1-0.2,1.7-0.2c0.5,0,1,0,1.5,0.1s0.9,0.2,1.3,0.4
		v-0.8c0-0.8-0.2-1.4-0.7-1.9c-0.5-0.5-1.1-0.7-1.9-0.7c-1,0-2.1,0.4-3.2,1.2l-0.6-1.1c1.3-0.9,2.6-1.3,3.9-1.3c1.3,0,2.3,0.3,3,1
		c0.7,0.7,1.1,1.7,1.1,2.9v4c0,0.4,0.2,0.6,0.5,0.6v1.4c-0.2,0-0.3,0-0.4,0.1c-0.1,0-0.2,0-0.4,0c-0.3,0-0.6-0.1-0.8-0.3
		c-0.2-0.2-0.3-0.4-0.4-0.7l0-0.7c-0.4,0.6-1,1-1.7,1.4S-2.8,314.9-3.6,314.9z M-3.1,313.7c0.6,0,1.1-0.1,1.7-0.3s0.9-0.5,1.2-0.9
		c0.2-0.2,0.4-0.5,0.4-0.7v-1.5c-0.8-0.3-1.7-0.5-2.5-0.5c-0.8,0-1.5,0.2-2,0.5s-0.8,0.8-0.8,1.4c0,0.3,0.1,0.5,0.2,0.8
		c0.1,0.2,0.3,0.4,0.5,0.6s0.4,0.3,0.7,0.4C-3.7,313.6-3.5,313.7-3.1,313.7z"/>
</g>
</svg>
