<?xml version="1.0" encoding="UTF-8" standalone="no"?>
<!-- Generator: Adobe Illustrator 19.1.0, SVG Export Plug-In . SVG Version: 6.00 Build 0)  -->

<svg
   xmlns:dc="http://purl.org/dc/elements/1.1/"
   xmlns:cc="http://creativecommons.org/ns#"
   xmlns:rdf="http://www.w3.org/1999/02/22-rdf-syntax-ns#"
   xmlns:svg="http://www.w3.org/2000/svg"
   xmlns="http://www.w3.org/2000/svg"
   xmlns:sodipodi="http://sodipodi.sourceforge.net/DTD/sodipodi-0.dtd"
   xmlns:inkscape="http://www.inkscape.org/namespaces/inkscape"
   version="1.1"
   id="Capa_1"
   x="0px"
   y="0px"
   viewBox="-765 818.7 280.5 68.1"
   style="enable-background:new -765 818.7 280.5 68.1;"
   xml:space="preserve"
   inkscape:version="0.48.4 r9939"
   width="100%"
   height="100%"
   sodipodi:docname="etiqueta_resumen_propuesta3.svg"><metadata
     id="metadata55"><rdf:RDF><cc:Work
         rdf:about=""><dc:format>image/svg+xml</dc:format><dc:type
           rdf:resource="http://purl.org/dc/dcmitype/StillImage" /></cc:Work></rdf:RDF></metadata><defs
     id="defs53" /><sodipodi:namedview
     pagecolor="#ffffff"
     bordercolor="#666666"
     borderopacity="1"
     objecttolerance="10"
     gridtolerance="10"
     guidetolerance="10"
     inkscape:pageopacity="0"
     inkscape:pageshadow="2"
     inkscape:window-width="640"
     inkscape:window-height="480"
     id="namedview51"
     showgrid="false"
     inkscape:zoom="1.026738"
     inkscape:cx="140.25"
     inkscape:cy="34.05"
     inkscape:window-x="75"
     inkscape:window-y="34"
     inkscape:window-maximized="0"
     inkscape:current-layer="Capa_1" /><style
     type="text/css"
     id="style3">
	.st0{fill:#CCCDCD;}
	.st1{fill:#89AA35;}
	.st2{fill:#678028;}
	.st3{fill:#FFFFFF;}
	.st4{font-family:'Raleway-SemiBold';}
	.st5{font-size:48.8948px;}
</style><polygon
     class="st0"
     points="-705.6,876.5 -484.5,876.5 -500.3,855.8 -484.5,835.1 -705.6,835.1 "
     id="polygon5" /><g
     id="g7"><path
       class="st1"
       d="M-731,867.5l6.7-4.1l-2.1-12l4-12.8l24,24.1c3.6-11.6,0.7-24.8-8.5-34c-13.3-13.3-34.8-13.3-48.1,0   c-13.3,13.3-13.3,34.8,0,48.1c8.6,8.6,20.8,11.7,31.9,9.1l-20-20L-731,867.5z"
       id="path9" /><path
       class="st2"
       d="M-698.4,862.7l-24-24l-4,12.8l2.1,12l-6.7,4l-12.2-1.6l20,20c6-1.4,11.6-4.4,16.3-9.1   C-702.8,872.7-700,867.9-698.4,862.7z"
       id="path11" /></g><g
     id="g15"><g
       id="g17"><path
         class="st3"
         d="M-682.6,859.7l2.9-13.5h5.5c0.5,0,0.9,0.1,1.3,0.3c0.4,0.2,0.7,0.5,1,0.8s0.5,0.7,0.6,1.1    c0.1,0.4,0.2,0.9,0.2,1.3c0,0.5-0.1,1.1-0.3,1.6s-0.4,1-0.8,1.4c-0.3,0.4-0.7,0.8-1.1,1.1c-0.4,0.3-0.9,0.5-1.4,0.7l2,5.2h-1.9    l-1.9-4.8h-3.3l-1,4.8L-682.6,859.7L-682.6,859.7z M-675.7,853.4c0.4,0,0.7-0.1,1.1-0.3c0.3-0.2,0.6-0.5,0.9-0.8s0.5-0.7,0.6-1.1    c0.2-0.4,0.2-0.8,0.2-1.2c0-0.3,0-0.6-0.1-0.9c-0.1-0.3-0.2-0.5-0.4-0.7s-0.3-0.4-0.5-0.5s-0.4-0.2-0.7-0.2h-3.7l-1.2,5.6h3.8    V853.4z"
         id="path19" /><path
         class="st3"
         d="M-666.7,859.9c-0.6,0-1.2-0.1-1.7-0.3s-0.9-0.5-1.2-0.9s-0.6-0.8-0.8-1.3c-0.2-0.5-0.3-1.1-0.3-1.6    c0-0.8,0.2-1.6,0.5-2.3s0.7-1.4,1.3-1.9c0.5-0.6,1.2-1,1.9-1.3c0.7-0.3,1.5-0.5,2.4-0.5c1,0,1.8,0.2,2.4,0.7    c0.6,0.4,0.9,1.1,0.9,2c0,1-0.4,1.8-1.3,2.3c-0.9,0.5-2.2,0.8-4.1,0.8c-0.3,0-0.6,0-1,0c-0.4,0-0.8,0-1.2-0.1c0,0.1,0,0.2,0,0.2    s0,0.1,0,0.2c0,0.4,0.1,0.8,0.2,1.1c0.1,0.4,0.3,0.7,0.5,0.9s0.5,0.5,0.8,0.6c0.3,0.2,0.7,0.2,1.1,0.2c0.6,0,1.2-0.1,1.7-0.4    c0.6-0.3,1-0.7,1.3-1.2l1.3,0.4c-0.2,0.4-0.5,0.7-0.9,1c-0.3,0.3-0.7,0.6-1.1,0.8c-0.4,0.2-0.8,0.4-1.3,0.5    S-666.3,859.9-666.7,859.9z M-664.7,850.9c-0.5,0-1,0.1-1.5,0.3s-0.8,0.4-1.1,0.7c-0.3,0.3-0.6,0.6-0.8,1s-0.4,0.8-0.5,1.2    c0.4,0,0.7,0.1,1.1,0.1c0.3,0,0.6,0,0.9,0c0.7,0,1.3,0,1.8-0.1s0.9-0.2,1.2-0.4s0.5-0.4,0.7-0.6c0.1-0.2,0.2-0.5,0.2-0.8    c0-0.5-0.2-0.8-0.5-1.1C-663.7,851-664.2,850.9-664.7,850.9z"
         id="path21" /><path
         class="st3"
         d="M-657.5,859.9c-0.8,0-1.5-0.1-2.2-0.4c-0.7-0.2-1.2-0.6-1.7-1.1l1-1.1c0.5,0.4,0.9,0.8,1.4,1s1.1,0.3,1.7,0.3    c0.8,0,1.4-0.2,1.8-0.5c0.5-0.3,0.7-0.8,0.7-1.4c0-0.4-0.2-0.7-0.6-0.9c-0.4-0.2-0.9-0.4-1.7-0.6c-0.5-0.1-0.9-0.3-1.2-0.4    c-0.3-0.1-0.6-0.3-0.9-0.4c-0.2-0.2-0.4-0.4-0.5-0.6c-0.1-0.2-0.2-0.5-0.2-0.8c0-0.6,0.1-1.1,0.4-1.5c0.2-0.4,0.6-0.8,1-1.1    c0.4-0.3,0.9-0.5,1.4-0.7s1.1-0.2,1.6-0.2c0.7,0,1.3,0.1,1.9,0.4c0.6,0.2,1,0.6,1.4,0.9l-1,1c-0.3-0.4-0.7-0.6-1.2-0.8    c-0.4-0.2-0.9-0.3-1.4-0.3c-0.3,0-0.6,0-0.9,0.1s-0.5,0.2-0.8,0.4s-0.4,0.4-0.5,0.6c-0.1,0.2-0.2,0.5-0.2,0.8    c0,0.4,0.1,0.6,0.4,0.8s0.8,0.3,1.4,0.5c0.5,0.1,1,0.3,1.4,0.4c0.4,0.1,0.7,0.3,1,0.5s0.5,0.4,0.6,0.6c0.1,0.2,0.2,0.5,0.2,0.8    c0,0.5-0.1,1-0.3,1.4c-0.2,0.4-0.5,0.8-0.9,1.1c-0.4,0.3-0.9,0.6-1.4,0.7C-656.2,859.8-656.8,859.9-657.5,859.9z"
         id="path23" /><path
         class="st3"
         d="M-649,859.9c-1.5,0-2.3-0.8-2.3-2.5c0-0.4,0.1-1,0.2-1.7l1.3-5.9h1.7l-1.2,5.6c-0.1,0.5-0.2,1-0.2,1.3    c0,1.2,0.5,1.7,1.5,1.7c0.6,0,1.3-0.2,1.9-0.7c0.7-0.4,1.2-1,1.6-1.8l1.3-6.2h1.7l-1.7,7.9c0,0.1,0,0.1,0,0.1v0.1    c0,0.2,0.1,0.3,0.4,0.4l-0.3,1.4c-0.1,0-0.3,0-0.4,0.1c-0.1,0.1-0.2,0-0.3,0c-0.3,0-0.6-0.1-0.8-0.2c-0.2-0.2-0.3-0.4-0.3-0.6    c0-0.1,0-0.3,0-0.5s0.1-0.5,0.2-0.9c-0.6,0.7-1.2,1.3-2,1.7C-647.4,859.7-648.2,859.9-649,859.9z"
         id="path25" /><path
         class="st3"
         d="M-638.8,849.8h1.5l-0.5,2.1c0.5-0.7,1.1-1.3,1.8-1.7s1.4-0.6,2.2-0.6c0.7,0,1.3,0.2,1.7,0.6    c0.4,0.4,0.6,1,0.6,1.8c0.6-0.8,1.2-1.4,1.9-1.8c0.7-0.4,1.4-0.6,2.2-0.6c0.8,0,1.4,0.2,1.7,0.7c0.3,0.4,0.5,1,0.5,1.7    c0,0.5-0.1,1.1-0.2,1.7l-1.3,5.9h-1.7l1.2-5.5c0.1-0.5,0.2-1,0.2-1.4c0-1.1-0.5-1.7-1.4-1.7c-0.3,0-0.6,0.1-0.9,0.2    c-0.3,0.1-0.6,0.3-0.9,0.5s-0.6,0.5-0.8,0.8c-0.3,0.3-0.5,0.7-0.7,1.1l-1.3,6h-1.7l1.2-5.5c0.1-0.5,0.2-1,0.2-1.4    c0-1.1-0.4-1.6-1.3-1.6c-0.6,0-1.3,0.2-1.9,0.7c-0.6,0.5-1.1,1.1-1.5,1.9l-1.3,6h-1.7L-638.8,849.8z"
         id="path27" /><path
         class="st3"
         d="M-620,859.9c-0.6,0-1.2-0.1-1.7-0.3s-0.9-0.5-1.2-0.9s-0.6-0.8-0.8-1.3c-0.2-0.5-0.3-1.1-0.3-1.6    c0-0.8,0.2-1.6,0.5-2.3s0.7-1.4,1.3-1.9c0.5-0.6,1.2-1,1.9-1.3c0.7-0.3,1.5-0.5,2.4-0.5c1,0,1.8,0.2,2.4,0.7    c0.6,0.4,0.9,1.1,0.9,2c0,1-0.4,1.8-1.3,2.3c-0.9,0.5-2.2,0.8-4.1,0.8c-0.3,0-0.6,0-1,0c-0.4,0-0.8,0-1.2-0.1c0,0.1,0,0.2,0,0.2    s0,0.1,0,0.2c0,0.4,0.1,0.8,0.2,1.1c0.1,0.4,0.3,0.7,0.5,0.9s0.5,0.5,0.8,0.6c0.3,0.2,0.7,0.2,1.1,0.2c0.6,0,1.2-0.1,1.7-0.4    c0.6-0.3,1-0.7,1.3-1.2l1.3,0.4c-0.2,0.4-0.5,0.7-0.9,1c-0.3,0.3-0.7,0.6-1.1,0.8c-0.4,0.2-0.8,0.4-1.3,0.5    S-619.6,859.9-620,859.9z M-618.1,850.9c-0.5,0-1,0.1-1.5,0.3s-0.8,0.4-1.1,0.7s-0.6,0.6-0.8,1c-0.2,0.4-0.4,0.8-0.5,1.2    c0.4,0,0.7,0.1,1.1,0.1c0.3,0,0.6,0,0.9,0c0.7,0,1.3,0,1.8-0.1s0.9-0.2,1.2-0.4c0.3-0.2,0.5-0.4,0.7-0.6c0.1-0.2,0.2-0.5,0.2-0.8    c0-0.5-0.2-0.8-0.5-1.1C-617,851-617.5,850.9-618.1,850.9z"
         id="path29" /><path
         class="st3"
         d="M-611.9,849.8h1.5l-0.5,2.1c0.5-0.7,1.2-1.3,2-1.7s1.6-0.6,2.4-0.6s1.4,0.2,1.7,0.6c0.3,0.4,0.5,1,0.5,1.7    c0,0.3,0,0.6-0.1,0.9c-0.1,0.3-0.1,0.6-0.2,1l-1.3,5.9h-1.7l1.2-5.5c0.1-0.5,0.2-1,0.2-1.4c0-1.1-0.4-1.6-1.3-1.6    c-0.3,0-0.6,0.1-1,0.2c-0.3,0.1-0.7,0.3-1,0.5s-0.6,0.5-0.9,0.8s-0.5,0.7-0.7,1l-1.3,6h-1.7L-611.9,849.8z"
         id="path31" /><path
         class="st3"
         d="M-596.5,849.8h1.5l-0.4,1.9c0.5-0.6,1.1-1.1,1.8-1.5c0.7-0.4,1.4-0.6,2.1-0.6c0.5,0,1,0.1,1.5,0.3    c0.4,0.2,0.8,0.5,1.1,0.9s0.5,0.8,0.7,1.3s0.2,1,0.2,1.6c0,0.8-0.1,1.5-0.4,2.3c-0.3,0.7-0.7,1.4-1.2,2s-1.1,1-1.7,1.4    c-0.6,0.4-1.4,0.5-2.1,0.5c-0.8,0-1.4-0.2-1.9-0.6c-0.5-0.4-0.9-0.9-1.1-1.5l-1.3,6h-1.7L-596.5,849.8z M-593.7,858.5    c0.5,0,1-0.1,1.5-0.4c0.5-0.3,0.9-0.6,1.2-1c0.4-0.4,0.6-0.9,0.9-1.4c0.2-0.5,0.3-1.1,0.3-1.6c0-0.4-0.1-0.8-0.2-1.1    c-0.1-0.4-0.3-0.7-0.5-0.9c-0.2-0.3-0.5-0.5-0.8-0.6c-0.3-0.2-0.6-0.2-1-0.2c-0.3,0-0.6,0.1-0.9,0.2c-0.3,0.1-0.6,0.3-1,0.5    c-0.4,0.2-0.6,0.4-0.8,0.7c-0.3,0.3-0.4,0.6-0.6,0.9l-0.6,2.8c0.1,0.7,0.4,1.2,0.8,1.7C-594.8,858.2-594.3,858.5-593.7,858.5z"
         id="path33" /><path
         class="st3"
         d="M-585.1,849.8h1.6l-0.5,2.3c0.5-0.7,1-1.2,1.6-1.7c0.6-0.4,1.2-0.6,1.8-0.6c0.1,0,0.2,0,0.3,0    c0.1,0,0.1,0,0.2,0l-0.3,1.4c-0.8,0-1.5,0.2-2.2,0.6c-0.7,0.4-1.2,1-1.6,1.7l-1.3,6.1h-1.7L-585.1,849.8z"
         id="path35" /><path
         class="st3"
         d="M-576.8,859.9c-0.6,0-1.1-0.1-1.6-0.3s-0.9-0.5-1.2-0.9c-0.3-0.4-0.6-0.8-0.7-1.3c-0.2-0.5-0.2-1-0.2-1.6    c0-0.8,0.2-1.6,0.5-2.3s0.7-1.4,1.3-2c0.5-0.6,1.2-1,1.9-1.4c0.7-0.3,1.5-0.5,2.3-0.5c0.6,0,1.1,0.1,1.6,0.3s0.9,0.5,1.2,0.9    c0.3,0.4,0.6,0.8,0.8,1.3c0.2,0.5,0.3,1,0.3,1.6c0,0.8-0.2,1.5-0.5,2.3c-0.3,0.7-0.8,1.4-1.3,2c-0.6,0.6-1.2,1-1.9,1.4    C-575,859.8-576,859.9-576.8,859.9z M-576.5,858.5c0.5,0,1-0.1,1.4-0.4c0.5-0.2,0.9-0.6,1.3-1c0.4-0.4,0.7-0.9,0.9-1.4    s0.3-1.1,0.3-1.7c0-0.4-0.1-0.8-0.2-1.2c-0.1-0.4-0.3-0.7-0.5-0.9c-0.2-0.3-0.5-0.5-0.8-0.6c-0.3-0.2-0.6-0.2-1-0.2    c-0.5,0-1,0.1-1.4,0.4c-0.5,0.2-0.9,0.6-1.3,1c-0.4,0.4-0.7,0.9-0.9,1.4c-0.2,0.5-0.3,1.1-0.3,1.7c0,0.4,0.1,0.8,0.2,1.2    c0.1,0.4,0.3,0.7,0.5,0.9c0.2,0.3,0.5,0.5,0.8,0.6C-577.2,858.4-576.8,858.5-576.5,858.5z"
         id="path37" /><path
         class="st3"
         d="M-567.9,849.8h1.5l-0.4,1.9c0.5-0.6,1.1-1.1,1.8-1.5s1.4-0.6,2.1-0.6c0.5,0,1,0.1,1.5,0.3    c0.4,0.2,0.8,0.5,1.1,0.9c0.3,0.4,0.5,0.8,0.7,1.3s0.2,1,0.2,1.6c0,0.8-0.1,1.5-0.4,2.3c-0.3,0.7-0.7,1.4-1.2,2s-1.1,1-1.7,1.4    c-0.6,0.4-1.4,0.5-2.1,0.5c-0.8,0-1.4-0.2-1.9-0.6c-0.5-0.4-0.9-0.9-1.1-1.5l-1.3,6h-1.7L-567.9,849.8z M-565.1,858.5    c0.5,0,1-0.1,1.5-0.4c0.5-0.3,0.9-0.6,1.2-1c0.4-0.4,0.6-0.9,0.9-1.4c0.2-0.5,0.3-1.1,0.3-1.6c0-0.4-0.1-0.8-0.2-1.1    c-0.1-0.4-0.3-0.7-0.5-0.9c-0.2-0.3-0.5-0.5-0.8-0.6c-0.3-0.2-0.6-0.2-1-0.2c-0.3,0-0.6,0.1-0.9,0.2c-0.3,0.1-0.6,0.3-1,0.5    c-0.4,0.2-0.6,0.4-0.8,0.7c-0.3,0.3-0.4,0.6-0.6,0.9l-0.6,2.8c0.1,0.7,0.4,1.2,0.8,1.7C-566.3,858.2-565.7,858.5-565.1,858.5z"
         id="path39" /><path
         class="st3"
         d="M-555.8,859.9c-1.5,0-2.3-0.8-2.3-2.5c0-0.4,0.1-1,0.2-1.7l1.3-5.9h1.7l-1.2,5.6c-0.1,0.5-0.2,1-0.2,1.3    c0,1.2,0.5,1.7,1.5,1.7c0.6,0,1.3-0.2,1.9-0.7c0.7-0.4,1.2-1,1.6-1.8l1.3-6.2h1.7l-1.7,7.9c0,0.1,0,0.1,0,0.1v0.1    c0,0.2,0.1,0.3,0.4,0.4l-0.3,1.4c-0.1,0-0.3,0-0.4,0.1c-0.1,0.1-0.2,0-0.3,0c-0.3,0-0.6-0.1-0.8-0.2c-0.2-0.2-0.3-0.4-0.3-0.6    c0-0.1,0-0.3,0-0.5s0.1-0.5,0.2-0.9c-0.6,0.7-1.2,1.3-2,1.7C-554.2,859.7-555,859.9-555.8,859.9z"
         id="path41" /><path
         class="st3"
         d="M-543.6,859.9c-0.6,0-1.2-0.1-1.7-0.3s-0.9-0.5-1.2-0.9c-0.3-0.4-0.6-0.8-0.8-1.3s-0.3-1.1-0.3-1.6    c0-0.8,0.2-1.6,0.5-2.3s0.7-1.4,1.3-1.9c0.5-0.6,1.2-1,1.9-1.3s1.5-0.5,2.4-0.5c1,0,1.8,0.2,2.4,0.7c0.6,0.4,0.9,1.1,0.9,2    c0,1-0.4,1.8-1.3,2.3c-0.9,0.5-2.2,0.8-4.1,0.8c-0.3,0-0.6,0-1,0c-0.4,0-0.8,0-1.2-0.1c0,0.1,0,0.2,0,0.2s0,0.1,0,0.2    c0,0.4,0.1,0.8,0.2,1.1c0.1,0.4,0.3,0.7,0.5,0.9s0.5,0.5,0.8,0.6c0.3,0.2,0.7,0.2,1.1,0.2c0.6,0,1.2-0.1,1.7-0.4    c0.6-0.3,1-0.7,1.3-1.2l1.3,0.4c-0.2,0.4-0.5,0.7-0.9,1c-0.3,0.3-0.7,0.6-1.1,0.8c-0.4,0.2-0.8,0.4-1.3,0.5    S-543.1,859.9-543.6,859.9z M-541.6,850.9c-0.5,0-1,0.1-1.5,0.3s-0.8,0.4-1.1,0.7s-0.6,0.6-0.8,1c-0.2,0.4-0.4,0.8-0.5,1.2    c0.4,0,0.7,0.1,1.1,0.1c0.3,0,0.6,0,0.9,0c0.7,0,1.3,0,1.8-0.1s0.9-0.2,1.2-0.4c0.3-0.2,0.5-0.4,0.7-0.6c0.1-0.2,0.2-0.5,0.2-0.8    c0-0.5-0.2-0.8-0.5-1.1C-540.5,851-541,850.9-541.6,850.9z"
         id="path43" /><path
         class="st3"
         d="M-534.3,859.9c-0.8,0-1.5-0.1-2.2-0.4c-0.7-0.2-1.2-0.6-1.7-1.1l1-1.1c0.5,0.4,0.9,0.8,1.4,1s1.1,0.3,1.7,0.3    c0.8,0,1.4-0.2,1.8-0.5c0.5-0.3,0.7-0.8,0.7-1.4c0-0.4-0.2-0.7-0.6-0.9c-0.4-0.2-0.9-0.4-1.7-0.6c-0.5-0.1-0.9-0.3-1.2-0.4    c-0.3-0.1-0.6-0.3-0.9-0.4c-0.2-0.2-0.4-0.4-0.5-0.6c-0.1-0.2-0.2-0.5-0.2-0.8c0-0.6,0.1-1.1,0.4-1.5c0.2-0.4,0.6-0.8,1-1.1    c0.4-0.3,0.9-0.5,1.4-0.7s1.1-0.2,1.6-0.2c0.7,0,1.3,0.1,1.9,0.4c0.6,0.2,1,0.6,1.4,0.9l-1,1c-0.3-0.4-0.7-0.6-1.2-0.8    c-0.4-0.2-0.9-0.3-1.4-0.3c-0.3,0-0.6,0-0.9,0.1s-0.5,0.2-0.8,0.4s-0.4,0.4-0.5,0.6c-0.1,0.2-0.2,0.5-0.2,0.8    c0,0.4,0.1,0.6,0.4,0.8s0.8,0.3,1.4,0.5c0.5,0.1,1,0.3,1.4,0.4c0.4,0.1,0.7,0.3,1,0.5s0.5,0.4,0.6,0.6c0.1,0.2,0.2,0.5,0.2,0.8    c0,0.5-0.1,1-0.3,1.4c-0.2,0.4-0.5,0.8-0.9,1.1c-0.4,0.3-0.9,0.6-1.4,0.7C-533.1,859.8-533.6,859.9-534.3,859.9z"
         id="path45" /><path
         class="st3"
         d="M-526.1,859.9c-0.5,0-0.9-0.1-1.3-0.4c-0.3-0.2-0.5-0.6-0.5-1.2c0-0.2,0-0.4,0.1-0.6l1.4-6.7h-1.3l0.3-1.3    h1.3l0.7-3.3h1.7l-0.7,3.3h2.1l-0.3,1.3h-2.1l-1.3,6.2c0,0.1,0,0.2,0,0.3c0,0.3,0.1,0.5,0.2,0.6c0.2,0.1,0.4,0.2,0.6,0.2    c0.3,0,0.6-0.1,0.9-0.2s0.5-0.2,0.6-0.3l0.1,1.3c-0.2,0.2-0.6,0.3-1,0.4C-525.1,859.8-525.6,859.9-526.1,859.9z"
         id="path47" /><path
         class="st3"
         d="M-518.9,859.9c-0.6,0-1.1-0.1-1.5-0.3c-0.4-0.2-0.8-0.5-1.1-0.9s-0.5-0.8-0.7-1.3s-0.2-1-0.2-1.6    c0-0.8,0.2-1.6,0.5-2.3s0.7-1.4,1.2-2s1.1-1,1.7-1.4c0.6-0.4,1.4-0.5,2.1-0.5c0.8,0,1.4,0.2,1.9,0.6c0.5,0.4,0.9,0.9,1.1,1.5    l0.4-2h1.7l-1.7,7.9c0,0.1,0,0.1,0,0.1v0.1c0,0.2,0.1,0.3,0.4,0.4l-0.3,1.4c-0.1,0-0.3,0-0.4,0.1c-0.1,0-0.2,0-0.3,0    c-0.4,0-0.6-0.1-0.8-0.2c-0.2-0.2-0.3-0.4-0.3-0.6c0-0.2,0.1-0.6,0.2-1.1c-0.5,0.6-1.1,1.1-1.8,1.5    C-517.5,859.7-518.2,859.9-518.9,859.9z M-518.2,858.5c0.3,0,0.6-0.1,0.9-0.2c0.3-0.1,0.6-0.3,0.9-0.5s0.6-0.4,0.8-0.7    c0.3-0.3,0.4-0.6,0.6-0.9l0.6-2.9c0-0.3-0.1-0.6-0.3-0.9c-0.2-0.3-0.3-0.5-0.6-0.7c-0.2-0.2-0.5-0.4-0.7-0.5    c-0.3-0.1-0.6-0.2-0.8-0.2c-0.5,0-1,0.1-1.5,0.4c-0.5,0.3-0.9,0.6-1.2,1c-0.4,0.4-0.6,0.9-0.9,1.4s-0.3,1.1-0.3,1.6    c0,0.4,0.1,0.8,0.2,1.1c0.1,0.4,0.3,0.7,0.5,0.9c0.2,0.3,0.5,0.5,0.8,0.6C-518.9,858.4-518.6,858.5-518.2,858.5z"
         id="path49" /></g></g><g
     transform="translate(-512.72917,545.6177)"
     id="g13"><path
       inkscape:connector-curvature="0"
       class="st3"
       d="m -214.3,306.1 c 1,0.2 1.9,0.5 2.8,1.1 0.8,0.5 1.6,1.1 2.2,1.9 0.6,0.8 1,1.6 1.4,2.6 0.3,1 0.5,2 0.5,3.2 0,1.5 -0.3,2.9 -0.9,4.1 -0.6,1.2 -1.4,2.3 -2.4,3.2 -1.1,0.9 -2.3,1.6 -3.8,2 -1.5,0.5 -3.2,0.7 -5,0.7 -2.5,0 -4.7,-0.4 -6.6,-1.3 -1.9,-0.9 -3.4,-2.1 -4.5,-3.7 l 3.3,-3.7 c 0.8,1.2 1.8,2.2 3,2.8 1.2,0.7 2.8,1 4.7,1 2.2,0 3.8,-0.5 5,-1.4 1.2,-0.9 1.7,-2.3 1.7,-4.1 0,-1.9 -0.7,-3.4 -2,-4.4 -1.3,-1 -3.2,-1.6 -5.8,-1.6 h -1.3 v -4.2 h 1.5 c 2.2,0 3.9,-0.5 5,-1.5 1.2,-1 1.8,-2.3 1.8,-3.9 0,-1.6 -0.5,-2.7 -1.6,-3.4 -1,-0.7 -2.4,-1.1 -4.1,-1.1 -1.7,0 -3.1,0.4 -4.4,1.1 -1.3,0.7 -2.3,1.7 -3,3.1 l -3.4,-3.7 c 0.5,-0.8 1.1,-1.5 1.9,-2.1 0.8,-0.6 1.7,-1.2 2.7,-1.7 1,-0.5 2.1,-0.8 3.2,-1.1 1.2,-0.2 2.4,-0.4 3.6,-0.4 1.6,0 3.1,0.2 4.4,0.6 1.3,0.4 2.5,1 3.4,1.8 1,0.8 1.7,1.7 2.2,2.7 0.5,1.1 0.8,2.3 0.8,3.6 0,1 -0.1,1.9 -0.4,2.8 -0.3,0.9 -0.7,1.7 -1.2,2.4 -0.5,0.7 -1.2,1.3 -1.9,1.8 -1,0.3 -1.9,0.6 -2.8,0.8 z"
       id="path15"
       style="fill:#ffffff" /></g></svg>