<?xml version="1.0" encoding="UTF-8" standalone="no"?>
<!-- Generator: Adobe Illustrator 16.0.0, SVG Export Plug-In . SVG Version: 6.00 Build 0)  -->

<svg
   xmlns:dc="http://purl.org/dc/elements/1.1/"
   xmlns:cc="http://creativecommons.org/ns#"
   xmlns:rdf="http://www.w3.org/1999/02/22-rdf-syntax-ns#"
   xmlns:svg="http://www.w3.org/2000/svg"
   xmlns="http://www.w3.org/2000/svg"
   xmlns:sodipodi="http://sodipodi.sourceforge.net/DTD/sodipodi-0.dtd"
   xmlns:inkscape="http://www.inkscape.org/namespaces/inkscape"
   version="1.1"
   x="0px"
   y="0px"
   width="611.86047"
   height="137.10025"
   viewBox="0 0 611.86047 137.10025"
   enable-background="new 0 0 612 792"
   xml:space="preserve"
   id="svg2"
   inkscape:version="0.48.4 r9939"
   sodipodi:docname="etiqueta3_vacia.svg"><metadata
     id="metadata61"><rdf:RDF><cc:Work
         rdf:about=""><dc:format>image/svg+xml</dc:format><dc:type
           rdf:resource="http://purl.org/dc/dcmitype/StillImage" /></cc:Work></rdf:RDF></metadata><defs
     id="defs59" /><sodipodi:namedview
     pagecolor="#ffffff"
     bordercolor="#666666"
     borderopacity="1"
     objecttolerance="10"
     gridtolerance="10"
     guidetolerance="10"
     inkscape:pageopacity="0"
     inkscape:pageshadow="2"
     inkscape:window-width="640"
     inkscape:window-height="480"
     id="namedview57"
     showgrid="false"
     fit-margin-top="0"
     fit-margin-left="0"
     fit-margin-right="0"
     fit-margin-bottom="0"
     inkscape:zoom="0.2979798"
     inkscape:cx="307.9515"
     inkscape:cy="92.470495"
     inkscape:window-x="75"
     inkscape:window-y="34"
     inkscape:window-maximized="0"
     inkscape:current-layer="svg2" /><g
     id="Capa_1"
     transform="translate(1.9515,-351.37025)"><polygon
       points="609.909,379.084 119.787,379.084 119.787,462.146 609.909,462.146 578.134,420.514 "
       id="polygon5"
       style="fill:#cccdcd" /></g><g
     id="texto"
     display="none"
     style="display:none"
     transform="translate(1.9515,-351.37025)"><text
       transform="translate(153.4937,435.1592)"
       display="inline"
       font-size="41.7958"
       id="text8"
       style="font-size:41.79579926px;fill:#ffffff;display:inline;font-family:Raleway-SemiBoldItalic">Completar propuesta</text>
</g><g
     id="texto_trazado"
     transform="translate(1.9515,-351.37025)"><g
       id="g11"><g
         id="g13"><path
           d="m 66.482,449.614 13.496,-8.259 -4.231,-24.17 8.057,-25.782 48.342,48.543 c 7.25,-23.366 1.41,-49.954 -17.122,-68.484 -26.789,-26.789 -70.094,-26.789 -96.883,0 -26.79,26.789 -26.79,70.095 0,96.884 17.322,17.321 41.896,23.564 64.253,18.329 l -40.284,-40.283 24.372,3.222 z"
           id="path15"
           inkscape:connector-curvature="0"
           style="fill:#bfc1c0" /><path
           d="m 132.146,439.947 -48.342,-48.341 -8.057,25.782 4.231,24.171 -13.496,8.056 -24.574,-3.223 40.284,40.285 c 12.086,-2.82 23.365,-8.862 32.832,-18.33 8.259,-8.258 13.9,-17.926 17.122,-28.4 z"
           id="path17"
           inkscape:connector-curvature="0"
           style="fill:#999999" /></g><g
         id="g19"><path
           d="m 75.949,418.192 c 2.015,0.402 3.827,1.009 5.64,2.216 1.611,1.007 3.222,2.217 4.432,3.828 1.208,1.611 2.013,3.223 2.819,5.235 0.604,2.015 1.007,4.029 1.007,6.446 0,3.021 -0.604,5.842 -1.813,8.26 -1.208,2.416 -2.819,4.63 -4.834,6.444 -2.216,1.814 -4.631,3.224 -7.654,4.028 -3.021,1.008 -6.445,1.411 -10.071,1.411 -5.036,0 -9.466,-0.807 -13.293,-2.62 -3.827,-1.812 -6.849,-4.23 -9.065,-7.451 l 6.648,-7.453 c 1.611,2.416 3.625,4.431 6.043,5.641 2.417,1.409 5.639,2.013 9.466,2.013 4.431,0 7.653,-1.006 10.071,-2.82 2.417,-1.812 3.425,-4.632 3.425,-8.258 0,-3.826 -1.411,-6.848 -4.029,-8.862 -2.618,-2.014 -6.446,-3.223 -11.682,-3.223 H 60.44 v -8.46 h 3.021 c 4.431,0 7.855,-1.007 10.071,-3.021 2.417,-2.015 3.625,-4.631 3.625,-7.855 0,-3.223 -1.007,-5.438 -3.222,-6.848 -2.015,-1.411 -4.834,-2.216 -8.258,-2.216 -3.424,0 -6.244,0.806 -8.863,2.216 -2.619,1.409 -4.632,3.424 -6.042,6.244 l -6.848,-7.453 c 1.007,-1.612 2.216,-3.021 3.827,-4.23 1.611,-1.208 3.424,-2.417 5.438,-3.424 2.015,-1.008 4.23,-1.612 6.445,-2.216 2.417,-0.402 4.834,-0.806 7.251,-0.806 3.223,0 6.245,0.403 8.863,1.209 2.619,0.805 5.036,2.015 6.849,3.626 2.013,1.611 3.425,3.424 4.432,5.438 1.006,2.215 1.61,4.632 1.61,7.251 0,2.014 -0.201,3.827 -0.805,5.64 -0.605,1.812 -1.41,3.424 -2.417,4.835 -1.008,1.409 -2.417,2.617 -3.827,3.624 -2.015,0.605 -3.828,1.209 -5.641,1.611 z"
           id="path21"
           inkscape:connector-curvature="0"
           style="fill:#ffffff" /></g></g><g
       id="g23"><path
         d="m 174.601,431.522 c -2.898,2.564 -5.866,3.846 -8.902,3.846 -1.588,0 -3.03,-0.327 -4.326,-0.982 -1.295,-0.654 -2.403,-1.539 -3.323,-2.654 -0.919,-1.113 -1.624,-2.424 -2.111,-3.929 -0.488,-1.504 -0.731,-3.093 -0.731,-4.765 0,-2.312 0.473,-4.541 1.421,-6.687 0.947,-2.146 2.215,-4.04 3.803,-5.685 1.588,-1.644 3.406,-2.953 5.455,-3.929 2.048,-0.976 4.172,-1.463 6.374,-1.463 2.703,0 4.841,0.592 6.416,1.776 1.574,1.185 2.64,2.752 3.197,4.702 l -4.096,2.591 c -0.446,-1.615 -1.247,-2.827 -2.403,-3.636 -1.156,-0.809 -2.543,-1.213 -4.159,-1.213 -1.504,0 -2.94,0.377 -4.305,1.129 -1.366,0.752 -2.557,1.749 -3.574,2.988 -1.017,1.24 -1.825,2.647 -2.424,4.222 -0.6,1.574 -0.899,3.184 -0.899,4.827 0,1.171 0.16,2.271 0.481,3.302 0.32,1.031 0.78,1.93 1.379,2.696 0.599,0.766 1.331,1.372 2.194,1.818 0.863,0.445 1.825,0.668 2.884,0.668 2.898,0 5.795,-1.463 8.694,-4.389 l 0.668,-3.134 h -5.851 l 0.752,-3.47 h 9.739 l -3.177,15.005 h -3.929 l 0.753,-3.634 z"
         id="path25"
         inkscape:connector-curvature="0"
         style="fill:#ffffff" /><path
         d="m 191.946,435.577 c -1.394,0 -2.626,-0.237 -3.699,-0.711 -1.073,-0.473 -1.985,-1.121 -2.737,-1.943 -0.752,-0.821 -1.324,-1.797 -1.714,-2.926 -0.39,-1.128 -0.585,-2.347 -0.585,-3.657 0,-1.782 0.341,-3.482 1.024,-5.099 0.683,-1.615 1.63,-3.037 2.842,-4.264 1.212,-1.226 2.646,-2.207 4.305,-2.946 1.658,-0.737 3.448,-1.107 5.371,-1.107 2.257,0 4.061,0.509 5.413,1.525 1.351,1.018 2.027,2.515 2.027,4.493 0,4.57 -4.082,6.854 -12.246,6.854 -1.198,0 -2.55,-0.042 -4.054,-0.125 v 0.752 c 0,0.809 0.097,1.561 0.292,2.257 0.195,0.697 0.487,1.311 0.878,1.839 0.39,0.53 0.891,0.94 1.504,1.233 0.613,0.292 1.337,0.438 2.173,0.438 1.198,0 2.354,-0.299 3.469,-0.898 1.114,-0.599 1.992,-1.414 2.633,-2.445 l 3.636,1.129 c -0.53,0.836 -1.178,1.596 -1.944,2.277 -0.767,0.684 -1.609,1.269 -2.528,1.756 -0.92,0.488 -1.896,0.871 -2.926,1.149 -1.031,0.28 -2.076,0.419 -3.134,0.419 z m 4.221,-19.267 c -1.003,0 -1.922,0.174 -2.758,0.522 -0.836,0.348 -1.575,0.814 -2.215,1.399 -0.641,0.586 -1.185,1.262 -1.63,2.027 -0.446,0.767 -0.809,1.567 -1.087,2.403 1.281,0.084 2.466,0.126 3.553,0.126 1.477,0 2.717,-0.091 3.72,-0.272 1.003,-0.181 1.818,-0.432 2.445,-0.752 0.627,-0.32 1.072,-0.711 1.337,-1.17 0.265,-0.46 0.397,-0.968 0.397,-1.526 0,-0.946 -0.334,-1.644 -1.003,-2.09 -0.669,-0.445 -1.589,-0.667 -2.759,-0.667 z"
         id="path27"
         inkscape:connector-curvature="0"
         style="fill:#ffffff" /><path
         d="m 209.834,413.3 h 4.138 l -0.919,4.389 c 1.087,-1.477 2.466,-2.64 4.138,-3.49 1.672,-0.85 3.427,-1.274 5.266,-1.274 0.92,0 1.686,0.125 2.299,0.376 0.613,0.251 1.108,0.606 1.484,1.066 0.376,0.459 0.648,0.996 0.815,1.608 0.167,0.613 0.251,1.296 0.251,2.048 0,0.586 -0.049,1.199 -0.146,1.84 -0.098,0.641 -0.216,1.295 -0.355,1.964 l -2.8,13.333 h -4.598 l 2.591,-12.246 c 0.111,-0.529 0.194,-1.01 0.25,-1.442 0.056,-0.432 0.084,-0.842 0.084,-1.232 0,-2.146 -0.892,-3.219 -2.675,-3.219 -0.613,0 -1.254,0.126 -1.922,0.376 -0.669,0.251 -1.324,0.606 -1.964,1.066 -0.642,0.46 -1.248,1.003 -1.818,1.63 -0.571,0.627 -1.038,1.316 -1.4,2.069 l -2.8,12.998 h -4.598 l 4.679,-21.86 z"
         id="path29"
         inkscape:connector-curvature="0"
         style="fill:#ffffff" /><path
         d="m 238.714,435.577 c -1.394,0 -2.626,-0.237 -3.699,-0.711 -1.073,-0.473 -1.985,-1.121 -2.737,-1.943 -0.752,-0.821 -1.324,-1.797 -1.714,-2.926 -0.39,-1.128 -0.585,-2.347 -0.585,-3.657 0,-1.782 0.341,-3.482 1.024,-5.099 0.683,-1.615 1.63,-3.037 2.842,-4.264 1.212,-1.226 2.646,-2.207 4.305,-2.946 1.658,-0.737 3.448,-1.107 5.371,-1.107 2.257,0 4.061,0.509 5.413,1.525 1.351,1.018 2.027,2.515 2.027,4.493 0,4.57 -4.082,6.854 -12.246,6.854 -1.198,0 -2.55,-0.042 -4.054,-0.125 v 0.752 c 0,0.809 0.097,1.561 0.292,2.257 0.195,0.697 0.487,1.311 0.878,1.839 0.39,0.53 0.891,0.94 1.504,1.233 0.613,0.292 1.337,0.438 2.173,0.438 1.198,0 2.354,-0.299 3.469,-0.898 1.114,-0.599 1.992,-1.414 2.633,-2.445 l 3.636,1.129 c -0.53,0.836 -1.178,1.596 -1.944,2.277 -0.767,0.684 -1.609,1.269 -2.528,1.756 -0.92,0.488 -1.896,0.871 -2.926,1.149 -1.03,0.28 -2.075,0.419 -3.134,0.419 z m 4.222,-19.267 c -1.003,0 -1.922,0.174 -2.758,0.522 -0.836,0.348 -1.575,0.814 -2.215,1.399 -0.641,0.586 -1.185,1.262 -1.63,2.027 -0.446,0.767 -0.809,1.567 -1.087,2.403 1.281,0.084 2.466,0.126 3.553,0.126 1.477,0 2.717,-0.091 3.72,-0.272 1.003,-0.181 1.818,-0.432 2.445,-0.752 0.627,-0.32 1.072,-0.711 1.337,-1.17 0.265,-0.46 0.397,-0.968 0.397,-1.526 0,-0.946 -0.334,-1.644 -1.003,-2.09 -0.67,-0.445 -1.589,-0.667 -2.759,-0.667 z"
         id="path31"
         inkscape:connector-curvature="0"
         style="fill:#ffffff" /><path
         d="m 256.603,413.3 h 4.263 l -1.087,4.891 c 1.059,-1.505 2.257,-2.717 3.595,-3.637 1.337,-0.919 2.661,-1.379 3.971,-1.379 0.278,0 0.494,0.007 0.647,0.021 0.153,0.015 0.299,0.035 0.439,0.062 l -0.877,4.013 c -1.672,0.057 -3.233,0.467 -4.681,1.233 -1.449,0.767 -2.62,1.859 -3.511,3.28 l -2.842,13.375 h -4.598 l 4.681,-21.859 z"
         id="path33"
         inkscape:connector-curvature="0"
         style="fill:#ffffff" /><path
         d="m 274.785,435.577 c -1.227,0 -2.32,-0.237 -3.281,-0.711 -0.961,-0.473 -1.776,-1.113 -2.445,-1.922 -0.669,-0.809 -1.178,-1.763 -1.526,-2.863 -0.349,-1.101 -0.522,-2.278 -0.522,-3.532 0,-1.782 0.327,-3.496 0.982,-5.141 0.654,-1.644 1.539,-3.093 2.654,-4.347 1.114,-1.254 2.396,-2.257 3.845,-3.009 1.449,-0.753 2.968,-1.129 4.556,-1.129 1.588,0 2.918,0.425 3.991,1.274 1.072,0.851 1.832,1.93 2.278,3.239 l 0.878,-4.096 h 4.639 l -3.511,16.384 c -0.028,0.14 -0.049,0.258 -0.063,0.355 -0.014,0.097 -0.021,0.188 -0.021,0.271 0,0.558 0.32,0.851 0.961,0.878 l -0.836,3.929 c -0.39,0.056 -0.746,0.104 -1.065,0.146 -0.321,0.042 -0.592,0.062 -0.815,0.062 -1.812,0 -2.717,-0.725 -2.717,-2.174 0,-0.445 0.097,-1.113 0.292,-2.006 -1.059,1.421 -2.341,2.508 -3.845,3.26 -1.504,0.756 -2.981,1.132 -4.429,1.132 z m 2.006,-3.929 c 0.557,0 1.149,-0.111 1.776,-0.334 0.627,-0.224 1.24,-0.529 1.839,-0.92 0.599,-0.39 1.149,-0.85 1.651,-1.379 0.501,-0.529 0.905,-1.101 1.212,-1.714 l 1.17,-5.727 c -0.084,-0.668 -0.272,-1.288 -0.564,-1.859 -0.292,-0.571 -0.662,-1.072 -1.107,-1.505 -0.446,-0.432 -0.934,-0.766 -1.463,-1.003 -0.53,-0.236 -1.087,-0.355 -1.672,-0.355 -1.059,0 -2.055,0.266 -2.988,0.794 -0.934,0.53 -1.755,1.212 -2.466,2.048 -0.71,0.836 -1.274,1.791 -1.692,2.863 -0.418,1.073 -0.627,2.152 -0.627,3.239 0,0.836 0.111,1.609 0.334,2.319 0.223,0.711 0.55,1.324 0.982,1.84 0.432,0.516 0.954,0.926 1.567,1.232 0.612,0.308 1.295,0.461 2.048,0.461 z"
         id="path35"
         inkscape:connector-curvature="0"
         style="fill:#ffffff" /><path
         d="m 296.601,413.3 h 4.264 l -1.087,4.891 c 1.059,-1.505 2.257,-2.717 3.595,-3.637 1.337,-0.919 2.66,-1.379 3.971,-1.379 0.277,0 0.494,0.007 0.646,0.021 0.154,0.015 0.299,0.035 0.439,0.062 l -0.877,4.013 c -1.672,0.057 -3.233,0.467 -4.682,1.233 -1.449,0.766 -2.619,1.859 -3.511,3.28 l -2.842,13.375 h -4.598 l 4.682,-21.859 z"
         id="path37"
         inkscape:connector-curvature="0"
         style="fill:#ffffff" /><path
         d="m 323.518,405.484 h 11.869 c 1.088,0 2.062,0.224 2.926,0.669 0.864,0.445 1.596,1.045 2.195,1.797 0.599,0.752 1.059,1.609 1.379,2.57 0.32,0.961 0.48,1.958 0.48,2.988 0,1.365 -0.293,2.724 -0.877,4.075 -0.586,1.352 -1.373,2.564 -2.361,3.637 -0.99,1.072 -2.146,1.943 -3.469,2.612 -1.324,0.668 -2.725,1.003 -4.201,1.003 h -7.355 l -2.174,10.323 h -4.723 l 6.311,-29.674 z m 8.568,15.214 c 0.725,0 1.414,-0.182 2.068,-0.544 0.654,-0.361 1.232,-0.856 1.734,-1.483 0.502,-0.627 0.898,-1.352 1.191,-2.174 0.293,-0.821 0.439,-1.692 0.439,-2.612 0,-1.281 -0.314,-2.312 -0.941,-3.093 -0.627,-0.779 -1.428,-1.17 -2.402,-1.17 h -6.812 l -2.383,11.076 h 7.106 z"
         id="path39"
         inkscape:connector-curvature="0"
         style="fill:#ffffff" /><path
         d="m 346.379,413.3 h 4.264 l -1.086,4.891 c 1.059,-1.505 2.256,-2.717 3.594,-3.637 1.338,-0.919 2.66,-1.379 3.971,-1.379 0.279,0 0.494,0.007 0.648,0.021 0.152,0.015 0.299,0.035 0.439,0.062 l -0.879,4.013 c -1.672,0.057 -3.232,0.467 -4.682,1.233 -1.45,0.766 -2.619,1.859 -3.51,3.28 l -2.842,13.375 h -4.598 l 4.681,-21.859 z"
         id="path41"
         inkscape:connector-curvature="0"
         style="fill:#ffffff" /><path
         d="m 365.271,435.577 c -1.393,0 -2.619,-0.244 -3.678,-0.731 -1.059,-0.487 -1.951,-1.143 -2.674,-1.965 -0.727,-0.821 -1.275,-1.782 -1.652,-2.884 -0.375,-1.1 -0.564,-2.277 -0.564,-3.531 0,-1.756 0.35,-3.448 1.045,-5.078 0.697,-1.63 1.645,-3.072 2.842,-4.326 1.199,-1.254 2.613,-2.257 4.244,-3.009 1.629,-0.753 3.377,-1.129 5.244,-1.129 1.393,0 2.627,0.244 3.699,0.731 1.072,0.488 1.979,1.143 2.717,1.965 0.738,0.821 1.295,1.79 1.672,2.904 0.377,1.115 0.564,2.299 0.564,3.553 0,1.728 -0.35,3.399 -1.045,5.016 -0.697,1.616 -1.65,3.051 -2.863,4.305 -1.213,1.254 -2.633,2.265 -4.264,3.03 -1.628,0.765 -3.392,1.149 -5.287,1.149 z m 0.879,-3.929 c 0.975,0 1.928,-0.236 2.861,-0.711 0.934,-0.474 1.764,-1.121 2.488,-1.943 0.725,-0.821 1.309,-1.776 1.756,-2.863 0.445,-1.086 0.668,-2.242 0.668,-3.469 0,-1.672 -0.426,-3.058 -1.275,-4.158 -0.849,-1.1 -1.984,-1.651 -3.406,-1.651 -0.975,0 -1.922,0.244 -2.842,0.731 -0.92,0.488 -1.748,1.143 -2.486,1.965 -0.738,0.822 -1.332,1.776 -1.777,2.862 -0.445,1.087 -0.668,2.243 -0.668,3.47 0,1.672 0.424,3.051 1.275,4.138 0.85,1.086 1.985,1.629 3.406,1.629 z"
         id="path43"
         inkscape:connector-curvature="0"
         style="fill:#ffffff" /><path
         d="m 384.875,413.3 h 4.053 l -0.836,3.929 c 1.088,-1.31 2.342,-2.354 3.762,-3.135 1.422,-0.779 2.926,-1.17 4.514,-1.17 1.199,0 2.271,0.237 3.219,0.711 0.948,0.474 1.748,1.121 2.404,1.943 0.654,0.822 1.154,1.783 1.504,2.884 0.348,1.101 0.523,2.277 0.523,3.531 0,1.756 -0.322,3.456 -0.963,5.1 -0.641,1.645 -1.512,3.093 -2.611,4.347 -1.102,1.254 -2.369,2.257 -3.803,3.009 -1.436,0.753 -2.947,1.129 -4.535,1.129 -1.672,0 -3.045,-0.418 -4.117,-1.254 -1.074,-0.836 -1.832,-1.923 -2.277,-3.26 l -2.76,12.998 h -4.598 l 6.521,-30.762 z m 6.561,18.348 c 1.031,0 2.02,-0.265 2.969,-0.794 0.945,-0.529 1.775,-1.212 2.486,-2.048 0.711,-0.836 1.275,-1.79 1.693,-2.863 0.418,-1.072 0.627,-2.152 0.627,-3.239 0,-0.808 -0.113,-1.567 -0.336,-2.278 -0.223,-0.71 -0.549,-1.33 -0.98,-1.859 -0.434,-0.529 -0.955,-0.947 -1.568,-1.254 -0.613,-0.307 -1.295,-0.46 -2.049,-0.46 -0.557,0 -1.148,0.111 -1.775,0.334 -0.627,0.224 -1.24,0.53 -1.84,0.92 -0.6,0.391 -1.148,0.843 -1.65,1.358 -0.502,0.515 -0.893,1.08 -1.17,1.692 l -1.254,5.727 c 0.25,1.337 0.809,2.466 1.672,3.386 0.862,0.918 1.921,1.378 3.175,1.378 z"
         id="path45"
         inkscape:connector-curvature="0"
         style="fill:#ffffff" /><path
         d="m 411.832,435.577 c -3.4,0 -5.1,-1.811 -5.1,-5.434 0,-1.03 0.139,-2.187 0.418,-3.469 l 2.883,-13.375 h 4.557 l -2.676,12.455 c -0.195,0.893 -0.291,1.729 -0.291,2.508 0,2.257 0.961,3.386 2.883,3.386 1.227,0 2.459,-0.403 3.699,-1.212 1.24,-0.808 2.334,-1.979 3.281,-3.511 l 2.883,-13.626 h 4.598 l -3.469,16.426 c -0.084,0.251 -0.125,0.46 -0.125,0.627 0,0.529 0.32,0.822 0.961,0.878 l -0.793,3.929 c -0.418,0.056 -0.781,0.104 -1.088,0.146 -0.307,0.042 -0.584,0.062 -0.836,0.062 -0.836,0 -1.49,-0.175 -1.963,-0.522 -0.475,-0.348 -0.711,-0.87 -0.711,-1.567 0,-0.223 0.027,-0.516 0.084,-0.878 0.055,-0.361 0.152,-0.919 0.291,-1.672 -1.254,1.589 -2.703,2.794 -4.346,3.615 -1.644,0.823 -3.359,1.234 -5.14,1.234 z"
         id="path47"
         inkscape:connector-curvature="0"
         style="fill:#ffffff" /><path
         d="m 439.625,435.577 c -1.393,0 -2.627,-0.237 -3.699,-0.711 -1.072,-0.473 -1.984,-1.121 -2.736,-1.943 -0.752,-0.821 -1.324,-1.797 -1.715,-2.926 -0.391,-1.128 -0.584,-2.347 -0.584,-3.657 0,-1.782 0.34,-3.482 1.023,-5.099 0.682,-1.615 1.631,-3.037 2.842,-4.264 1.213,-1.226 2.646,-2.207 4.305,-2.946 1.658,-0.737 3.449,-1.107 5.371,-1.107 2.258,0 4.061,0.509 5.412,1.525 1.352,1.018 2.027,2.515 2.027,4.493 0,4.57 -4.082,6.854 -12.246,6.854 -1.197,0 -2.549,-0.042 -4.055,-0.125 v 0.752 c 0,0.809 0.098,1.561 0.293,2.257 0.195,0.697 0.488,1.311 0.879,1.839 0.389,0.53 0.891,0.94 1.504,1.233 0.613,0.292 1.338,0.438 2.174,0.438 1.197,0 2.354,-0.299 3.469,-0.898 1.113,-0.599 1.992,-1.414 2.633,-2.445 l 3.637,1.129 c -0.529,0.836 -1.178,1.596 -1.943,2.277 -0.768,0.684 -1.609,1.269 -2.529,1.756 -0.92,0.488 -1.895,0.871 -2.926,1.149 -1.031,0.278 -2.077,0.419 -3.136,0.419 z m 4.223,-19.267 c -1.004,0 -1.924,0.174 -2.76,0.522 -0.836,0.348 -1.574,0.814 -2.215,1.399 -0.641,0.586 -1.186,1.262 -1.631,2.027 -0.445,0.767 -0.807,1.567 -1.086,2.403 1.281,0.084 2.467,0.126 3.553,0.126 1.477,0 2.717,-0.091 3.721,-0.272 1.002,-0.181 1.816,-0.432 2.443,-0.752 0.627,-0.32 1.072,-0.711 1.338,-1.17 0.266,-0.46 0.398,-0.968 0.398,-1.526 0,-0.946 -0.336,-1.644 -1.004,-2.09 -0.667,-0.445 -1.587,-0.667 -2.757,-0.667 z"
         id="path49"
         inkscape:connector-curvature="0"
         style="fill:#ffffff" /><path
         d="m 460.398,435.577 c -1.699,0 -3.316,-0.286 -4.848,-0.856 -1.533,-0.571 -2.787,-1.386 -3.762,-2.445 l 2.465,-2.926 c 2.09,1.923 4.334,2.884 6.73,2.884 1.42,0 2.562,-0.32 3.426,-0.961 0.864,-0.641 1.297,-1.49 1.297,-2.55 0,-0.752 -0.355,-1.323 -1.066,-1.714 -0.711,-0.39 -1.818,-0.794 -3.322,-1.212 -1.061,-0.307 -1.979,-0.606 -2.76,-0.898 -0.779,-0.293 -1.42,-0.627 -1.922,-1.003 -0.502,-0.376 -0.877,-0.801 -1.129,-1.275 -0.25,-0.473 -0.375,-1.03 -0.375,-1.672 0,-1.226 0.264,-2.333 0.793,-3.322 0.529,-0.989 1.24,-1.832 2.133,-2.528 0.891,-0.696 1.922,-1.233 3.092,-1.609 1.17,-0.376 2.41,-0.564 3.721,-0.564 1.561,0 2.953,0.251 4.18,0.752 1.225,0.502 2.283,1.227 3.176,2.174 l -2.549,2.759 c -0.809,-0.809 -1.688,-1.414 -2.633,-1.818 -0.949,-0.403 -1.938,-0.606 -2.969,-0.606 -1.227,0 -2.271,0.293 -3.135,0.878 -0.864,0.585 -1.295,1.478 -1.295,2.675 0,0.697 0.293,1.22 0.877,1.567 0.586,0.349 1.561,0.704 2.926,1.066 1.17,0.307 2.188,0.627 3.051,0.961 0.863,0.334 1.582,0.704 2.152,1.107 0.572,0.404 0.996,0.871 1.275,1.4 0.279,0.529 0.418,1.143 0.418,1.839 0,1.17 -0.244,2.236 -0.73,3.197 -0.488,0.961 -1.172,1.791 -2.049,2.487 -0.877,0.696 -1.93,1.24 -3.156,1.63 -1.226,0.39 -2.562,0.583 -4.012,0.583 z"
         id="path51"
         inkscape:connector-curvature="0"
         style="fill:#ffffff" /><path
         d="m 478.955,435.493 c -1.199,0 -2.201,-0.286 -3.01,-0.856 -0.809,-0.57 -1.211,-1.483 -1.211,-2.737 0,-0.474 0.055,-0.934 0.166,-1.38 l 2.926,-13.667 h -2.801 l 0.795,-3.553 h 2.717 l 1.547,-7.188 h 4.598 l -1.547,7.188 h 4.514 l -0.752,3.553 h -4.473 l -2.592,12.204 c -0.057,0.279 -0.084,0.488 -0.084,0.627 0,0.558 0.168,0.962 0.502,1.213 0.334,0.25 0.738,0.376 1.213,0.376 0.641,0 1.254,-0.111 1.838,-0.335 0.586,-0.223 1.031,-0.403 1.338,-0.543 l 0.168,3.636 c -0.643,0.391 -1.492,0.731 -2.551,1.024 -1.059,0.293 -2.158,0.438 -3.301,0.438 z"
         id="path53"
         inkscape:connector-curvature="0"
         style="fill:#ffffff" /><path
         d="m 495.633,435.577 c -1.227,0 -2.32,-0.237 -3.281,-0.711 -0.961,-0.473 -1.777,-1.113 -2.445,-1.922 -0.668,-0.809 -1.178,-1.763 -1.525,-2.863 -0.35,-1.101 -0.523,-2.278 -0.523,-3.532 0,-1.782 0.328,-3.496 0.982,-5.141 0.654,-1.644 1.539,-3.093 2.654,-4.347 1.115,-1.254 2.396,-2.257 3.846,-3.009 1.447,-0.753 2.967,-1.129 4.555,-1.129 1.59,0 2.92,0.425 3.992,1.274 1.072,0.851 1.832,1.93 2.277,3.239 l 0.879,-4.096 h 4.639 l -3.512,16.384 c -0.027,0.14 -0.049,0.258 -0.062,0.355 -0.013,0.097 -0.02,0.188 -0.02,0.271 0,0.558 0.32,0.851 0.961,0.878 l -0.836,3.929 c -0.391,0.056 -0.746,0.104 -1.066,0.146 -0.32,0.042 -0.592,0.062 -0.814,0.062 -1.812,0 -2.717,-0.725 -2.717,-2.174 0,-0.445 0.098,-1.113 0.293,-2.006 -1.061,1.421 -2.342,2.508 -3.846,3.26 -1.505,0.756 -2.984,1.132 -4.431,1.132 z m 2.006,-3.929 c 0.557,0 1.148,-0.111 1.775,-0.334 0.627,-0.224 1.24,-0.529 1.84,-0.92 0.598,-0.39 1.148,-0.85 1.65,-1.379 0.502,-0.529 0.906,-1.101 1.213,-1.714 l 1.17,-5.727 c -0.084,-0.668 -0.271,-1.288 -0.564,-1.859 -0.293,-0.571 -0.662,-1.072 -1.107,-1.505 -0.445,-0.432 -0.934,-0.766 -1.463,-1.003 -0.529,-0.236 -1.086,-0.355 -1.672,-0.355 -1.059,0 -2.055,0.266 -2.988,0.794 -0.934,0.53 -1.756,1.212 -2.467,2.048 -0.709,0.836 -1.273,1.791 -1.691,2.863 -0.418,1.073 -0.627,2.152 -0.627,3.239 0,0.836 0.111,1.609 0.334,2.319 0.223,0.711 0.549,1.324 0.982,1.84 0.432,0.516 0.953,0.926 1.566,1.232 0.613,0.306 1.297,0.461 2.049,0.461 z"
         id="path55"
         inkscape:connector-curvature="0"
         style="fill:#ffffff" /></g></g></svg>