<?xml version="1.0" encoding="utf-8"?>
<!-- Generator: Adobe Illustrator 19.1.0, SVG Export Plug-In . SVG Version: 6.00 Build 0)  -->
<svg version="1.1" id="Capa_1" xmlns="http://www.w3.org/2000/svg" xmlns:xlink="http://www.w3.org/1999/xlink" x="0px" y="0px"
	 viewBox="-504 545.8 285.7 68" style="enable-background:new -504 545.8 285.7 68;" xml:space="preserve">
<style type="text/css">
	.st0{fill:#CCCDCD;}
	.st1{fill:#BFC1C0;}
	.st2{fill:#999999;}
	.st3{fill:#FFFFFF;}
</style>
<polygon class="st0" points="-445.2,601.1 -218.3,601.1 -234.1,580.5 -218.3,559.8 -445.2,559.8 "/>
<g>
	<g>
		<g>
			<path class="st1" d="M-461.2,566.9l23.5,23.5c3.9-11.8,1.1-25.3-8.3-34.7c-13.2-13.2-34.7-13.2-48,0.1
				c-13.3,13.3-13.3,34.8,0,48.1c8.2,8.2,19.5,11.3,30.1,9.4l-18.4-18.4l19.7-19.3L-461.2,566.9z"/>
		</g>
		<path class="st2" d="M-437.6,590.4l-23.6-23.5l-1.5,8.6l-19.6,19.4l18.4,18.4c6.6-1.2,12.9-4.3,18-9.4
			C-442,600-439.2,595.4-437.6,590.4z"/>
	</g>
</g>
<g>
	<path class="st3" d="M-482.3,594.9c0-1.5,0.1-2.8,0.4-4.1c0.2-1.3,0.7-2.4,1.3-3.6c0.6-1.1,1.5-2.2,2.6-3.2s2.5-2,4.2-2.9
		c1.2-0.7,2.4-1.3,3.5-1.8c1.1-0.6,2-1.1,2.9-1.7c0.8-0.5,1.5-1.1,2-1.7c0.5-0.6,0.7-1.3,0.7-2.1c0-1.1-0.5-2.1-1.4-3
		c-1-0.9-2.4-1.3-4.2-1.3c-0.9,0-1.8,0.1-2.6,0.4c-0.8,0.3-1.5,0.6-2.2,1c-0.6,0.4-1.2,0.9-1.7,1.3c-0.5,0.5-0.9,1-1.3,1.4l-3.7-4.3
		c0.4-0.4,0.9-0.9,1.7-1.4c0.8-0.6,1.7-1.1,2.7-1.7c1.1-0.5,2.3-1,3.7-1.3s2.9-0.6,4.5-0.6c1.7,0,3.2,0.2,4.5,0.7
		c1.3,0.4,2.5,1,3.4,1.8s1.6,1.7,2.1,2.8s0.7,2.2,0.7,3.4c0,1.3-0.3,2.5-0.8,3.5s-1.2,1.9-1.9,2.7c-0.8,0.8-1.6,1.4-2.5,2
		c-0.9,0.5-1.8,1-2.5,1.4c-0.7,0.4-1.6,0.8-2.5,1.2c-0.9,0.5-1.8,1-2.7,1.6c-0.9,0.6-1.7,1.3-2.4,2c-0.7,0.7-1.2,1.5-1.5,2.3h17.3
		v5.2C-458,594.9-482.3,594.9-482.3,594.9z"/>
</g>
<g>
	<g>
		<path class="st3" d="M-427.1,577.7c0-0.8,0.1-1.6,0.4-2.4c0.3-0.8,0.7-1.5,1.3-2.2c0.6-0.6,1.2-1.2,2-1.5c0.8-0.4,1.7-0.6,2.7-0.6
			c1.2,0,2.2,0.3,3.1,0.8s1.5,1.3,1.9,2.1l-1.3,0.9c-0.2-0.4-0.4-0.8-0.7-1.1c-0.3-0.3-0.6-0.5-0.9-0.7c-0.3-0.2-0.7-0.3-1-0.4
			s-0.7-0.1-1-0.1c-0.7,0-1.4,0.2-2,0.5c-0.6,0.3-1.1,0.7-1.5,1.2c-0.4,0.5-0.7,1.1-0.9,1.7c-0.2,0.6-0.3,1.3-0.3,1.9
			c0,0.7,0.1,1.4,0.4,2s0.6,1.2,1,1.7s0.9,0.9,1.5,1.2c0.6,0.3,1.2,0.4,1.9,0.4c0.4,0,0.7,0,1.1-0.1s0.7-0.2,1.1-0.4
			c0.3-0.2,0.7-0.4,1-0.7c0.3-0.3,0.5-0.7,0.7-1.1l1.4,0.8c-0.2,0.5-0.5,1-0.9,1.3c-0.4,0.4-0.8,0.7-1.3,1c-0.5,0.3-1,0.5-1.5,0.6
			c-0.5,0.1-1.1,0.2-1.6,0.2c-0.9,0-1.8-0.2-2.5-0.6c-0.8-0.4-1.4-0.9-2-1.6c-0.6-0.7-1-1.4-1.3-2.2
			C-427,579.4-427.1,578.6-427.1,577.7z"/>
		<path class="st3" d="M-409.3,584.8c-0.7,0-1.4-0.1-2-0.4c-0.6-0.3-1.1-0.7-1.6-1.1s-0.8-1-1-1.6c-0.2-0.6-0.4-1.3-0.4-2
			c0-0.7,0.1-1.4,0.4-2c0.2-0.6,0.6-1.2,1-1.6s1-0.8,1.6-1.1c0.6-0.3,1.3-0.4,2-0.4c0.7,0,1.4,0.1,2,0.4s1.1,0.7,1.6,1.1
			s0.8,1,1,1.6c0.2,0.6,0.4,1.3,0.4,2c0,0.7-0.1,1.3-0.4,2c-0.2,0.6-0.6,1.2-1,1.6s-1,0.8-1.6,1.1
			C-407.8,584.6-408.5,584.8-409.3,584.8z M-412.5,579.7c0,0.5,0.1,1,0.3,1.4s0.4,0.8,0.7,1.2c0.3,0.3,0.6,0.6,1,0.8
			c0.4,0.2,0.8,0.3,1.3,0.3s0.9-0.1,1.3-0.3c0.4-0.2,0.8-0.5,1.1-0.8c0.3-0.3,0.5-0.7,0.7-1.2c0.2-0.4,0.3-0.9,0.3-1.5
			c0-0.5-0.1-1-0.3-1.4c-0.2-0.4-0.4-0.8-0.7-1.2c-0.3-0.3-0.7-0.6-1.1-0.8c-0.4-0.2-0.8-0.3-1.3-0.3s-0.9,0.1-1.3,0.3
			s-0.7,0.5-1,0.8c-0.3,0.3-0.5,0.7-0.7,1.2C-412.5,578.7-412.5,579.1-412.5,579.7z"/>
		<path class="st3" d="M-387.4,584.6h-1.7V579c0-1-0.2-1.8-0.5-2.3c-0.3-0.5-0.8-0.7-1.5-0.7c-0.7,0-1.3,0.2-1.8,0.7
			c-0.5,0.5-0.9,1.1-1.1,1.9v6h-1.7V579c0-1.1-0.2-1.8-0.5-2.3s-0.8-0.7-1.5-0.7c-0.7,0-1.3,0.2-1.8,0.7c-0.5,0.5-0.9,1.1-1.2,1.9v6
			h-1.7v-9.9h1.5v2.1c0.4-0.7,0.9-1.3,1.6-1.7c0.6-0.4,1.4-0.6,2.2-0.6c0.8,0,1.5,0.2,2,0.7c0.5,0.4,0.8,1,0.9,1.7
			c0.9-1.6,2.1-2.4,3.8-2.4c0.6,0,1,0.1,1.4,0.3s0.7,0.5,0.9,0.9c0.2,0.4,0.4,0.8,0.5,1.3s0.2,1.1,0.2,1.7V584.6z"/>
		<path class="st3" d="M-379.5,584.8c-0.8,0-1.5-0.2-2.2-0.6s-1.1-0.9-1.5-1.5v6h-1.7v-14h1.5v1.9c0.4-0.6,0.9-1.1,1.5-1.5
			s1.3-0.6,2.1-0.6c0.7,0,1.3,0.1,1.9,0.4c0.6,0.3,1.1,0.7,1.5,1.1c0.4,0.5,0.7,1,1,1.6c0.2,0.6,0.4,1.3,0.4,1.9
			c0,0.7-0.1,1.4-0.3,2s-0.5,1.2-0.9,1.6c-0.4,0.5-0.9,0.8-1.4,1.1C-378.3,584.6-378.9,584.8-379.5,584.8z M-380,583.3
			c0.5,0,0.9-0.1,1.3-0.3s0.7-0.5,1-0.8s0.5-0.7,0.7-1.2c0.2-0.4,0.2-0.9,0.2-1.4c0-0.5-0.1-1-0.3-1.4c-0.2-0.5-0.4-0.8-0.7-1.2
			c-0.3-0.3-0.7-0.6-1.1-0.8s-0.9-0.3-1.3-0.3c-0.3,0-0.6,0.1-0.9,0.2c-0.3,0.1-0.6,0.3-0.9,0.5c-0.3,0.2-0.5,0.4-0.7,0.7
			s-0.3,0.6-0.4,0.9v2.8c0.1,0.3,0.3,0.6,0.5,0.9c0.2,0.3,0.5,0.5,0.7,0.7c0.3,0.2,0.6,0.4,0.9,0.5
			C-380.7,583.3-380.4,583.3-380,583.3z"/>
		<path class="st3" d="M-373.1,570.7h1.7V582c0,0.4,0.1,0.7,0.3,0.9c0.2,0.2,0.5,0.3,0.8,0.3c0.1,0,0.3,0,0.5-0.1
			c0.2,0,0.4-0.1,0.5-0.2l0.3,1.3c-0.3,0.1-0.6,0.2-1,0.3c-0.4,0.1-0.7,0.1-1,0.1c-0.6,0-1.2-0.2-1.5-0.6s-0.6-0.9-0.6-1.5V570.7z"
			/>
		<path class="st3" d="M-363.6,584.8c-0.7,0-1.4-0.1-2.1-0.4s-1.2-0.6-1.6-1.1s-0.8-1-1-1.6c-0.2-0.6-0.4-1.3-0.4-2s0.1-1.4,0.4-2
			c0.2-0.6,0.6-1.2,1-1.6c0.4-0.5,1-0.8,1.6-1.1s1.3-0.4,2.1-0.4s1.4,0.1,2,0.4s1.1,0.6,1.6,1.1c0.4,0.5,0.8,1,1,1.6
			s0.4,1.3,0.4,1.9c0,0.1,0,0.3,0,0.4c0,0.1,0,0.2,0,0.3h-8.2c0,0.5,0.2,0.9,0.3,1.3s0.4,0.8,0.7,1c0.3,0.3,0.6,0.5,1,0.7
			c0.4,0.2,0.8,0.2,1.2,0.2c0.3,0,0.6,0,0.9-0.1c0.3-0.1,0.6-0.2,0.8-0.3c0.3-0.1,0.5-0.3,0.7-0.5c0.2-0.2,0.3-0.4,0.4-0.7l1.4,0.4
			c-0.2,0.4-0.4,0.7-0.7,1c-0.3,0.3-0.6,0.6-1,0.8c-0.4,0.2-0.8,0.4-1.2,0.5S-363.1,584.8-363.6,584.8z M-360.2,579
			c0-0.5-0.2-0.9-0.4-1.3c-0.2-0.4-0.4-0.7-0.7-1c-0.3-0.3-0.6-0.5-1-0.7c-0.4-0.2-0.8-0.2-1.3-0.2s-0.9,0.1-1.3,0.2s-0.7,0.4-1,0.7
			c-0.3,0.3-0.5,0.6-0.7,1c-0.2,0.4-0.3,0.8-0.3,1.3H-360.2z"/>
		<path class="st3" d="M-351.9,584.1c-0.1,0.1-0.2,0.1-0.4,0.2c-0.2,0.1-0.4,0.1-0.6,0.2s-0.4,0.1-0.7,0.2c-0.2,0-0.5,0.1-0.8,0.1
			c-0.6,0-1.1-0.2-1.6-0.5c-0.4-0.3-0.7-0.9-0.7-1.6V576h-1.3v-1.3h1.3v-3.3h1.7v3.3h2.2v1.3h-2.2v6.2c0,0.4,0.1,0.6,0.4,0.8
			c0.2,0.2,0.5,0.2,0.8,0.2c0.3,0,0.6-0.1,0.9-0.2c0.3-0.1,0.5-0.2,0.6-0.3L-351.9,584.1z"/>
		<path class="st3" d="M-347.8,584.8c-0.5,0-0.9-0.1-1.3-0.2s-0.8-0.4-1.1-0.7c-0.3-0.3-0.5-0.6-0.7-1c-0.2-0.4-0.3-0.8-0.3-1.2
			c0-0.5,0.1-0.9,0.3-1.2s0.5-0.7,0.9-1c0.4-0.3,0.8-0.5,1.3-0.6c0.5-0.2,1.1-0.2,1.7-0.2c0.5,0,1,0,1.5,0.1
			c0.5,0.1,0.9,0.2,1.3,0.4v-0.8c0-0.8-0.2-1.4-0.7-1.9c-0.5-0.5-1.1-0.7-1.9-0.7c-1,0-2.1,0.4-3.2,1.2l-0.6-1.1
			c1.3-0.9,2.6-1.3,3.9-1.3c1.3,0,2.3,0.3,3,1c0.7,0.7,1.1,1.7,1.1,2.9v4c0,0.4,0.2,0.6,0.5,0.6v1.4c-0.2,0-0.3,0-0.4,0.1
			c-0.1,0-0.2,0-0.4,0c-0.3,0-0.6-0.1-0.8-0.3c-0.2-0.2-0.3-0.4-0.4-0.7l0-0.7c-0.4,0.6-1,1-1.7,1.4S-347,584.8-347.8,584.8z
			 M-347.4,583.5c0.6,0,1.1-0.1,1.7-0.3c0.5-0.2,0.9-0.5,1.2-0.9c0.2-0.2,0.4-0.5,0.4-0.7v-1.5c-0.8-0.3-1.7-0.5-2.5-0.5
			c-0.8,0-1.5,0.2-2,0.5c-0.5,0.4-0.8,0.8-0.8,1.4c0,0.3,0.1,0.5,0.2,0.8c0.1,0.2,0.3,0.4,0.5,0.6c0.2,0.2,0.4,0.3,0.7,0.4
			S-347.7,583.5-347.4,583.5z"/>
		<path class="st3" d="M-334.7,576.1c-0.8,0-1.6,0.2-2.2,0.6s-1.1,1-1.4,1.7v6.1h-1.7v-9.9h1.6v2.3c0.3-0.7,0.8-1.2,1.3-1.7
			c0.6-0.4,1.2-0.7,1.8-0.7c0.1,0,0.2,0,0.3,0c0.1,0,0.2,0,0.2,0V576.1z"/>
		<path class="st3" d="M-322.9,584.8c-0.8,0-1.5-0.2-2.2-0.6s-1.1-0.9-1.5-1.5v6h-1.7v-14h1.5v1.9c0.4-0.6,0.9-1.1,1.5-1.5
			s1.3-0.6,2.1-0.6c0.7,0,1.3,0.1,1.9,0.4c0.6,0.3,1.1,0.7,1.5,1.1c0.4,0.5,0.7,1,1,1.6c0.2,0.6,0.4,1.3,0.4,1.9
			c0,0.7-0.1,1.4-0.3,2s-0.5,1.2-0.9,1.6c-0.4,0.5-0.9,0.8-1.4,1.1C-321.6,584.6-322.2,584.8-322.9,584.8z M-323.4,583.3
			c0.5,0,0.9-0.1,1.3-0.3s0.7-0.5,1-0.8s0.5-0.7,0.7-1.2c0.2-0.4,0.2-0.9,0.2-1.4c0-0.5-0.1-1-0.3-1.4c-0.2-0.5-0.4-0.8-0.7-1.2
			c-0.3-0.3-0.7-0.6-1.1-0.8s-0.9-0.3-1.3-0.3c-0.3,0-0.6,0.1-0.9,0.2c-0.3,0.1-0.6,0.3-0.9,0.5c-0.3,0.2-0.5,0.4-0.7,0.7
			s-0.3,0.6-0.4,0.9v2.8c0.1,0.3,0.3,0.6,0.5,0.9c0.2,0.3,0.5,0.5,0.7,0.7c0.3,0.2,0.6,0.4,0.9,0.5
			C-324.1,583.3-323.7,583.3-323.4,583.3z"/>
		<path class="st3" d="M-311.2,576.1c-0.8,0-1.6,0.2-2.2,0.6s-1.1,1-1.4,1.7v6.1h-1.7v-9.9h1.6v2.3c0.3-0.7,0.8-1.2,1.3-1.7
			c0.6-0.4,1.2-0.7,1.8-0.7c0.1,0,0.2,0,0.3,0c0.1,0,0.2,0,0.2,0V576.1z"/>
		<path class="st3" d="M-305.6,584.8c-0.7,0-1.4-0.1-2-0.4c-0.6-0.3-1.1-0.7-1.6-1.1s-0.8-1-1-1.6c-0.2-0.6-0.4-1.3-0.4-2
			c0-0.7,0.1-1.4,0.4-2c0.2-0.6,0.6-1.2,1-1.6s1-0.8,1.6-1.1c0.6-0.3,1.3-0.4,2-0.4c0.7,0,1.4,0.1,2,0.4s1.1,0.7,1.6,1.1
			s0.8,1,1,1.6c0.2,0.6,0.4,1.3,0.4,2c0,0.7-0.1,1.3-0.4,2c-0.2,0.6-0.6,1.2-1,1.6s-1,0.8-1.6,1.1
			C-304.2,584.6-304.9,584.8-305.6,584.8z M-308.9,579.7c0,0.5,0.1,1,0.3,1.4s0.4,0.8,0.7,1.2c0.3,0.3,0.6,0.6,1,0.8
			c0.4,0.2,0.8,0.3,1.3,0.3s0.9-0.1,1.3-0.3c0.4-0.2,0.8-0.5,1.1-0.8c0.3-0.3,0.5-0.7,0.7-1.2c0.2-0.4,0.3-0.9,0.3-1.5
			c0-0.5-0.1-1-0.3-1.4c-0.2-0.4-0.4-0.8-0.7-1.2c-0.3-0.3-0.7-0.6-1.1-0.8c-0.4-0.2-0.8-0.3-1.3-0.3s-0.9,0.1-1.3,0.3
			s-0.7,0.5-1,0.8c-0.3,0.3-0.5,0.7-0.7,1.2C-308.8,578.7-308.9,579.1-308.9,579.7z"/>
		<path class="st3" d="M-293.3,584.8c-0.8,0-1.5-0.2-2.2-0.6s-1.1-0.9-1.5-1.5v6h-1.7v-14h1.5v1.9c0.4-0.6,0.9-1.1,1.5-1.5
			s1.3-0.6,2.1-0.6c0.7,0,1.3,0.1,1.9,0.4c0.6,0.3,1.1,0.7,1.5,1.1c0.4,0.5,0.7,1,1,1.6c0.2,0.6,0.4,1.3,0.4,1.9
			c0,0.7-0.1,1.4-0.3,2s-0.5,1.2-0.9,1.6c-0.4,0.5-0.9,0.8-1.4,1.1C-292.1,584.6-292.7,584.8-293.3,584.8z M-293.9,583.3
			c0.5,0,0.9-0.1,1.3-0.3s0.7-0.5,1-0.8s0.5-0.7,0.7-1.2c0.2-0.4,0.2-0.9,0.2-1.4c0-0.5-0.1-1-0.3-1.4c-0.2-0.5-0.4-0.8-0.7-1.2
			c-0.3-0.3-0.7-0.6-1.1-0.8s-0.9-0.3-1.3-0.3c-0.3,0-0.6,0.1-0.9,0.2c-0.3,0.1-0.6,0.3-0.9,0.5c-0.3,0.2-0.5,0.4-0.7,0.7
			s-0.3,0.6-0.4,0.9v2.8c0.1,0.3,0.3,0.6,0.5,0.9c0.2,0.3,0.5,0.5,0.7,0.7c0.3,0.2,0.6,0.4,0.9,0.5
			C-294.5,583.3-294.2,583.3-293.9,583.3z"/>
		<path class="st3" d="M-283.9,584.8c-1,0-1.8-0.3-2.4-1c-0.5-0.7-0.8-1.7-0.8-3.1v-5.9h1.7v5.6c0,2,0.7,3,2.1,3
			c0.7,0,1.3-0.2,1.9-0.7c0.6-0.4,1-1,1.3-1.8v-6.2h1.7v7.9c0,0.4,0.2,0.6,0.5,0.6v1.4c-0.2,0-0.3,0-0.4,0c-0.1,0-0.2,0-0.3,0
			c-0.3,0-0.6-0.1-0.8-0.3s-0.3-0.4-0.4-0.7l0-1.2c-0.4,0.7-1,1.3-1.7,1.7C-282.2,584.6-283,584.8-283.9,584.8z"/>
		<path class="st3" d="M-271.3,584.8c-0.7,0-1.4-0.1-2.1-0.4s-1.2-0.6-1.6-1.1s-0.8-1-1-1.6c-0.2-0.6-0.4-1.3-0.4-2s0.1-1.4,0.4-2
			c0.2-0.6,0.6-1.2,1-1.6c0.4-0.5,1-0.8,1.6-1.1s1.3-0.4,2.1-0.4s1.4,0.1,2,0.4s1.1,0.6,1.6,1.1c0.4,0.5,0.8,1,1,1.6
			s0.4,1.3,0.4,1.9c0,0.1,0,0.3,0,0.4c0,0.1,0,0.2,0,0.3h-8.2c0,0.5,0.2,0.9,0.3,1.3s0.4,0.8,0.7,1c0.3,0.3,0.6,0.5,1,0.7
			c0.4,0.2,0.8,0.2,1.2,0.2c0.3,0,0.6,0,0.9-0.1c0.3-0.1,0.6-0.2,0.8-0.3c0.3-0.1,0.5-0.3,0.7-0.5c0.2-0.2,0.3-0.4,0.4-0.7l1.4,0.4
			c-0.2,0.4-0.4,0.7-0.7,1c-0.3,0.3-0.6,0.6-1,0.8c-0.4,0.2-0.8,0.4-1.2,0.5S-270.8,584.8-271.3,584.8z M-267.9,579
			c0-0.5-0.2-0.9-0.4-1.3c-0.2-0.4-0.4-0.7-0.7-1c-0.3-0.3-0.6-0.5-1-0.7c-0.4-0.2-0.8-0.2-1.3-0.2s-0.9,0.1-1.3,0.2s-0.7,0.4-1,0.7
			c-0.3,0.3-0.5,0.6-0.7,1c-0.2,0.4-0.3,0.8-0.3,1.3H-267.9z"/>
		<path class="st3" d="M-261.1,584.8c-0.8,0-1.6-0.1-2.4-0.4c-0.8-0.2-1.4-0.6-2-1.1l0.7-1.1c0.6,0.4,1.2,0.8,1.7,1
			c0.6,0.2,1.2,0.3,1.8,0.3c0.7,0,1.3-0.1,1.7-0.4s0.6-0.7,0.6-1.2c0-0.2-0.1-0.4-0.2-0.6c-0.1-0.2-0.3-0.3-0.5-0.4
			c-0.2-0.1-0.5-0.2-0.9-0.3s-0.8-0.2-1.2-0.3c-0.6-0.2-1.1-0.3-1.5-0.4s-0.8-0.3-1.1-0.5c-0.3-0.2-0.5-0.4-0.6-0.7
			c-0.1-0.3-0.2-0.6-0.2-1c0-0.5,0.1-0.9,0.3-1.3c0.2-0.4,0.5-0.7,0.8-1c0.3-0.3,0.7-0.5,1.2-0.6s1-0.2,1.5-0.2
			c0.7,0,1.4,0.1,2.1,0.4c0.6,0.2,1.2,0.6,1.6,0.9l-0.8,1c-0.4-0.4-0.9-0.6-1.4-0.8c-0.5-0.2-1.1-0.3-1.6-0.3
			c-0.6,0-1.1,0.1-1.5,0.4c-0.4,0.3-0.6,0.7-0.6,1.2c0,0.2,0,0.4,0.1,0.6s0.2,0.3,0.4,0.4c0.2,0.1,0.4,0.2,0.7,0.3
			c0.3,0.1,0.7,0.2,1.1,0.3c0.7,0.2,1.2,0.3,1.7,0.5c0.5,0.2,0.9,0.3,1.2,0.6c0.3,0.2,0.6,0.5,0.7,0.8c0.2,0.3,0.2,0.6,0.2,1.1
			c0,0.9-0.4,1.7-1.1,2.2S-259.9,584.8-261.1,584.8z"/>
		<path class="st3" d="M-250.1,584.1c-0.1,0.1-0.2,0.1-0.4,0.2c-0.2,0.1-0.4,0.1-0.6,0.2s-0.4,0.1-0.7,0.2c-0.2,0-0.5,0.1-0.8,0.1
			c-0.6,0-1.1-0.2-1.6-0.5c-0.4-0.3-0.7-0.9-0.7-1.6V576h-1.3v-1.3h1.3v-3.3h1.7v3.3h2.2v1.3h-2.2v6.2c0,0.4,0.1,0.6,0.4,0.8
			c0.2,0.2,0.5,0.2,0.8,0.2c0.3,0,0.6-0.1,0.9-0.2c0.3-0.1,0.5-0.2,0.6-0.3L-250.1,584.1z"/>
		<path class="st3" d="M-246,584.8c-0.5,0-0.9-0.1-1.3-0.2s-0.8-0.4-1.1-0.7c-0.3-0.3-0.5-0.6-0.7-1c-0.2-0.4-0.3-0.8-0.3-1.2
			c0-0.5,0.1-0.9,0.3-1.2s0.5-0.7,0.9-1c0.4-0.3,0.8-0.5,1.3-0.6c0.5-0.2,1.1-0.2,1.7-0.2c0.5,0,1,0,1.5,0.1
			c0.5,0.1,0.9,0.2,1.3,0.4v-0.8c0-0.8-0.2-1.4-0.7-1.9c-0.5-0.5-1.1-0.7-1.9-0.7c-1,0-2.1,0.4-3.2,1.2l-0.6-1.1
			c1.3-0.9,2.6-1.3,3.9-1.3c1.3,0,2.3,0.3,3,1c0.7,0.7,1.1,1.7,1.1,2.9v4c0,0.4,0.2,0.6,0.5,0.6v1.4c-0.2,0-0.3,0-0.4,0.1
			c-0.1,0-0.2,0-0.4,0c-0.3,0-0.6-0.1-0.8-0.3c-0.2-0.2-0.3-0.4-0.4-0.7l0-0.7c-0.4,0.6-1,1-1.7,1.4S-245.2,584.8-246,584.8z
			 M-245.6,583.5c0.6,0,1.1-0.1,1.7-0.3c0.5-0.2,0.9-0.5,1.2-0.9c0.2-0.2,0.4-0.5,0.4-0.7v-1.5c-0.8-0.3-1.7-0.5-2.5-0.5
			c-0.8,0-1.5,0.2-2,0.5c-0.5,0.4-0.8,0.8-0.8,1.4c0,0.3,0.1,0.5,0.2,0.8c0.1,0.2,0.3,0.4,0.5,0.6c0.2,0.2,0.4,0.3,0.7,0.4
			S-245.9,583.5-245.6,583.5z"/>
	</g>
</g>
</svg>
