<?xml version="1.0" encoding="utf-8"?>
<!-- Generator: Adobe Illustrator 19.1.0, SVG Export Plug-In . SVG Version: 6.00 Build 0)  -->
<svg version="1.1" id="Capa_1" xmlns="http://www.w3.org/2000/svg" xmlns:xlink="http://www.w3.org/1999/xlink" x="0px" y="0px"
	 viewBox="0 0 304.3 68.1" style="enable-background:new 0 0 304.3 68.1;" xml:space="preserve">
<style type="text/css">
	.st0{fill:#CCCDCD;}
	.st1{fill:#89AA35;}
	.st2{fill:#678028;}
	.st3{fill:#FFFFFF;}
</style>
<polygon class="st0" points="60.6,54.7 304.3,54.7 288.5,34 304.3,13.4 60.6,13.4 "/>
<g>
	<path class="st1" d="M37.6,40L39,18.4l27.1,27.1c4.3-12,1.6-25.9-8-35.5C44.8-3.3,23.3-3.3,10,10C-3.3,23.3-3.3,44.8,10,58.1
		c9.7,9.7,23.9,12.3,35.9,7.8L26.5,46.5L37.6,40z"/>
	<path class="st2" d="M66.1,45.5L39,18.4L37.6,40l-11.1,6.5l19.5,19.5c4.4-1.7,8.6-4.3,12.2-7.8C61.8,54.4,64.4,50.1,66.1,45.5z"/>
</g>
<g>
	<path class="st3" d="M45.1,41.3v4.8H26.4v-4.8h6.9V24.3c-0.3,0.4-0.8,0.8-1.4,1.2c-0.6,0.4-1.3,0.8-2.1,1.2
		c-0.7,0.4-1.5,0.7-2.3,0.9c-0.8,0.2-1.5,0.4-2.1,0.4v-5c0.7,0,1.4-0.2,2.3-0.6c0.9-0.4,1.7-0.8,2.5-1.4c0.8-0.5,1.5-1,2.1-1.6
		c0.6-0.5,1-0.9,1.1-1.1h5.5v23.1H45.1z"/>
</g>
</svg>
