<?xml version="1.0" encoding="utf-8"?>
<!-- Generator: Adobe Illustrator 19.1.0, SVG Export Plug-In . SVG Version: 6.00 Build 0)  -->
<svg version="1.1" id="Capa_1" xmlns="http://www.w3.org/2000/svg" xmlns:xlink="http://www.w3.org/1999/xlink" x="0px" y="0px"
	 viewBox="-504 545.8 285.7 68" style="enable-background:new -504 545.8 285.7 68;" xml:space="preserve">
<style type="text/css">
	.st0{fill:#CCCDCD;}
	.st1{fill:#89AA35;}
	.st2{fill:#678028;}
	.st3{fill:#FFFFFF;}
</style>
<polygon class="st0" points="-445.2,601.1 -218.3,601.1 -234.1,580.5 -218.3,559.8 -445.2,559.8 "/>
<g>
	<path class="st1" d="M-461.2,566.9l23.5,23.5c3.9-11.8,1.1-25.3-8.3-34.7c-13.2-13.2-34.7-13.2-48,0.1c-13.3,13.3-13.3,34.8,0,48.1
		c8.2,8.2,19.5,11.3,30.1,9.4l-18.4-18.4l19.7-19.3L-461.2,566.9z"/>
	<path class="st2" d="M-437.6,590.4l-23.6-23.5l-1.5,8.6l-19.6,19.4l18.4,18.4c6.6-1.2,12.9-4.3,18-9.4
		C-442,600-439.2,595.4-437.6,590.4z"/>
</g>
<g>
	<path class="st3" d="M-482.3,594.9c0-1.5,0.1-2.8,0.4-4.1c0.2-1.3,0.7-2.4,1.3-3.6c0.6-1.1,1.5-2.2,2.6-3.2s2.5-2,4.2-2.9
		c1.2-0.7,2.4-1.3,3.5-1.8c1.1-0.6,2-1.1,2.9-1.7c0.8-0.5,1.5-1.1,2-1.7c0.5-0.6,0.7-1.3,0.7-2.1c0-1.1-0.5-2.1-1.4-3
		c-1-0.9-2.4-1.3-4.2-1.3c-0.9,0-1.8,0.1-2.6,0.4c-0.8,0.3-1.5,0.6-2.2,1c-0.6,0.4-1.2,0.9-1.7,1.3c-0.5,0.5-0.9,1-1.3,1.4l-3.7-4.3
		c0.4-0.4,0.9-0.9,1.7-1.4c0.8-0.6,1.7-1.1,2.7-1.7c1.1-0.5,2.3-1,3.7-1.3c1.4-0.4,2.9-0.6,4.5-0.6c1.7,0,3.2,0.2,4.5,0.7
		c1.3,0.4,2.5,1,3.4,1.8s1.6,1.7,2.1,2.8s0.7,2.2,0.7,3.4c0,1.3-0.3,2.5-0.8,3.5s-1.2,1.9-1.9,2.7c-0.8,0.8-1.6,1.4-2.5,2
		c-0.9,0.5-1.8,1-2.5,1.4c-0.7,0.4-1.6,0.8-2.5,1.2c-0.9,0.5-1.8,1-2.7,1.6c-0.9,0.6-1.7,1.3-2.4,2c-0.7,0.7-1.2,1.5-1.5,2.3h17.3
		v5.2C-458,594.9-482.3,594.9-482.3,594.9z"/>
</g>
<g>
	<g>
		<path class="st3" d="M-419.3,586.5c-0.7,0-1.4-0.2-2-0.5c-0.6-0.3-1.1-0.8-1.5-1.3c-0.4-0.5-0.7-1.1-0.9-1.8
			c-0.2-0.7-0.3-1.4-0.3-2.1c0-0.9,0.2-1.9,0.6-2.8c0.4-0.9,0.9-1.8,1.6-2.6c0.7-0.8,1.5-1.4,2.4-1.9c0.9-0.5,2-0.7,3.1-0.7
			c0.6,0,1.1,0.1,1.5,0.2c0.5,0.1,0.9,0.3,1.2,0.6s0.6,0.6,0.9,0.9s0.4,0.8,0.5,1.2l-1.5,0.9c-0.1-0.4-0.3-0.8-0.5-1.1
			c-0.2-0.3-0.4-0.5-0.7-0.7c-0.3-0.2-0.6-0.3-0.9-0.4c-0.3-0.1-0.6-0.1-1-0.1c-0.8,0-1.6,0.2-2.3,0.6c-0.7,0.4-1.3,0.9-1.8,1.5
			c-0.5,0.6-0.9,1.3-1.1,2c-0.3,0.7-0.4,1.5-0.4,2.2c0,0.6,0.1,1.1,0.2,1.6s0.4,1,0.7,1.4c0.3,0.4,0.6,0.7,1.1,0.9
			c0.4,0.2,0.9,0.3,1.4,0.3c0.3,0,0.7,0,1.1-0.1s0.7-0.2,1.1-0.4s0.7-0.4,1.1-0.7c0.3-0.3,0.6-0.7,0.9-1.1l1.3,0.8
			c-0.3,0.5-0.7,1-1.1,1.3c-0.5,0.4-0.9,0.7-1.5,1c-0.5,0.3-1.1,0.5-1.6,0.6C-418.3,586.4-418.8,586.5-419.3,586.5z"/>
		<path class="st3" d="M-408.4,586.6c-0.6,0-1.1-0.1-1.6-0.3c-0.5-0.2-0.9-0.5-1.2-0.9c-0.3-0.4-0.6-0.8-0.7-1.3
			c-0.2-0.5-0.2-1-0.2-1.6c0-0.8,0.2-1.6,0.5-2.3c0.3-0.7,0.7-1.4,1.3-2c0.5-0.6,1.2-1,1.9-1.4c0.7-0.3,1.5-0.5,2.3-0.5
			c0.6,0,1.1,0.1,1.6,0.3c0.5,0.2,0.9,0.5,1.2,0.9s0.6,0.8,0.8,1.3s0.3,1,0.3,1.6c0,0.8-0.2,1.5-0.5,2.3c-0.3,0.7-0.8,1.4-1.3,2
			c-0.6,0.6-1.2,1-1.9,1.4S-407.6,586.6-408.4,586.6z M-408.1,585.1c0.5,0,1-0.1,1.4-0.4c0.5-0.2,0.9-0.6,1.3-1
			c0.4-0.4,0.7-0.9,0.9-1.4c0.2-0.5,0.3-1.1,0.3-1.7c0-0.4-0.1-0.8-0.2-1.2c-0.1-0.4-0.3-0.7-0.5-0.9c-0.2-0.3-0.5-0.5-0.8-0.6
			c-0.3-0.2-0.6-0.2-1-0.2c-0.5,0-1,0.1-1.4,0.4c-0.5,0.2-0.9,0.6-1.3,1c-0.4,0.4-0.7,0.9-0.9,1.4c-0.2,0.5-0.3,1.1-0.3,1.7
			c0,0.4,0.1,0.8,0.2,1.2c0.1,0.4,0.3,0.7,0.5,0.9c0.2,0.3,0.5,0.5,0.8,0.6C-408.8,585.1-408.5,585.1-408.1,585.1z"/>
		<path class="st3" d="M-399.5,576.5h1.5l-0.5,2.1c0.5-0.7,1.1-1.3,1.8-1.7c0.7-0.4,1.4-0.6,2.2-0.6c0.7,0,1.3,0.2,1.7,0.6
			c0.4,0.4,0.6,1,0.6,1.8c0.6-0.8,1.2-1.4,1.9-1.8c0.7-0.4,1.4-0.6,2.2-0.6c0.8,0,1.4,0.2,1.7,0.7c0.3,0.4,0.5,1,0.5,1.7
			c0,0.5-0.1,1.1-0.2,1.7l-1.3,5.9h-1.7l1.2-5.5c0.1-0.5,0.2-1,0.2-1.4c0-1.1-0.5-1.7-1.4-1.7c-0.3,0-0.6,0.1-0.9,0.2
			c-0.3,0.1-0.6,0.3-0.9,0.5c-0.3,0.2-0.6,0.5-0.8,0.8c-0.3,0.3-0.5,0.7-0.7,1.1l-1.3,6h-1.7l1.2-5.5c0.1-0.5,0.2-1,0.2-1.4
			c0-1.1-0.4-1.6-1.3-1.6c-0.6,0-1.3,0.2-1.9,0.7c-0.6,0.5-1.1,1.1-1.5,1.9l-1.3,6h-1.7L-399.5,576.5z"/>
		<path class="st3" d="M-382.7,576.5h1.5l-0.4,1.9c0.5-0.6,1.1-1.1,1.8-1.5c0.7-0.4,1.4-0.6,2.1-0.6c0.5,0,1,0.1,1.5,0.3
			c0.4,0.2,0.8,0.5,1.1,0.9c0.3,0.4,0.5,0.8,0.7,1.3c0.2,0.5,0.2,1,0.2,1.6c0,0.8-0.1,1.5-0.4,2.3c-0.3,0.7-0.7,1.4-1.2,2
			c-0.5,0.6-1.1,1-1.7,1.4s-1.4,0.5-2.1,0.5c-0.8,0-1.4-0.2-1.9-0.6c-0.5-0.4-0.9-0.9-1.1-1.5l-1.3,6h-1.7L-382.7,576.5z
			 M-380,585.1c0.5,0,1-0.1,1.5-0.4c0.5-0.3,0.9-0.6,1.2-1c0.4-0.4,0.6-0.9,0.9-1.4c0.2-0.5,0.3-1.1,0.3-1.6c0-0.4-0.1-0.8-0.2-1.1
			c-0.1-0.4-0.3-0.7-0.5-0.9c-0.2-0.3-0.5-0.5-0.8-0.6c-0.3-0.2-0.6-0.2-1-0.2c-0.3,0-0.6,0.1-0.9,0.2c-0.3,0.1-0.6,0.3-1,0.5
			s-0.6,0.4-0.8,0.7c-0.3,0.3-0.4,0.6-0.6,0.9l-0.6,2.8c0.1,0.7,0.4,1.2,0.8,1.7C-381.1,584.9-380.6,585.1-380,585.1z"/>
		<path class="st3" d="M-371.5,586.5c-0.5,0-0.9-0.1-1.2-0.4c-0.3-0.3-0.4-0.6-0.4-1.1c0-0.1,0-0.2,0-0.3c0-0.1,0-0.2,0.1-0.3
			l2.5-11.9h1.7l-2.4,11.3c0,0.1,0,0.1,0,0.2c0,0.1,0,0.1,0,0.2c0,0.5,0.3,0.8,0.9,0.8c0.1,0,0.3,0,0.5-0.1c0.2,0,0.4-0.1,0.6-0.2
			l-0.1,1.3c-0.3,0.1-0.6,0.2-1,0.3C-370.9,586.5-371.2,586.5-371.5,586.5z"/>
		<path class="st3" d="M-364.3,586.6c-0.6,0-1.2-0.1-1.7-0.3c-0.5-0.2-0.9-0.5-1.2-0.9c-0.3-0.4-0.6-0.8-0.8-1.3
			c-0.2-0.5-0.3-1.1-0.3-1.6c0-0.8,0.2-1.6,0.5-2.3c0.3-0.7,0.7-1.4,1.3-1.9c0.5-0.6,1.2-1,1.9-1.3c0.7-0.3,1.5-0.5,2.4-0.5
			c1,0,1.8,0.2,2.4,0.7c0.6,0.4,0.9,1.1,0.9,2c0,1-0.4,1.8-1.3,2.3c-0.9,0.5-2.2,0.8-4.1,0.8c-0.3,0-0.6,0-1,0s-0.8,0-1.2-0.1
			c0,0.1,0,0.2,0,0.2s0,0.1,0,0.2c0,0.4,0.1,0.8,0.2,1.1c0.1,0.4,0.3,0.7,0.5,0.9s0.5,0.5,0.8,0.6c0.3,0.2,0.7,0.2,1.1,0.2
			c0.6,0,1.2-0.1,1.7-0.4c0.6-0.3,1-0.7,1.3-1.2l1.3,0.4c-0.2,0.4-0.5,0.7-0.9,1c-0.3,0.3-0.7,0.6-1.1,0.8c-0.4,0.2-0.8,0.4-1.3,0.5
			S-363.9,586.6-364.3,586.6z M-362.4,577.5c-0.5,0-1,0.1-1.5,0.3s-0.8,0.4-1.1,0.7c-0.3,0.3-0.6,0.6-0.8,1
			c-0.2,0.4-0.4,0.8-0.5,1.2c0.4,0,0.7,0.1,1.1,0.1c0.3,0,0.6,0,0.9,0c0.7,0,1.3,0,1.8-0.1c0.5-0.1,0.9-0.2,1.2-0.4
			c0.3-0.2,0.5-0.4,0.7-0.6c0.1-0.2,0.2-0.5,0.2-0.8c0-0.5-0.2-0.8-0.5-1.1C-361.3,577.7-361.8,577.5-362.4,577.5z"/>
		<path class="st3" d="M-355.9,586.5c-0.5,0-0.9-0.1-1.3-0.4c-0.3-0.2-0.5-0.6-0.5-1.2c0-0.2,0-0.4,0.1-0.6l1.4-6.7h-1.3l0.3-1.3
			h1.3l0.7-3.3h1.7l-0.7,3.3h2.1l-0.3,1.3h-2.1l-1.3,6.2c0,0.1,0,0.2,0,0.3c0,0.3,0.1,0.5,0.2,0.6c0.2,0.1,0.4,0.2,0.6,0.2
			c0.3,0,0.6-0.1,0.9-0.2s0.5-0.2,0.6-0.3l0.1,1.3c-0.2,0.2-0.6,0.3-1,0.4C-354.9,586.4-355.4,586.5-355.9,586.5z"/>
		<path class="st3" d="M-348.7,586.6c-0.6,0-1.1-0.1-1.5-0.3s-0.8-0.5-1.1-0.9c-0.3-0.4-0.5-0.8-0.7-1.3c-0.2-0.5-0.2-1-0.2-1.6
			c0-0.8,0.2-1.6,0.5-2.3c0.3-0.7,0.7-1.4,1.2-2c0.5-0.6,1.1-1,1.7-1.4s1.4-0.5,2.1-0.5c0.8,0,1.4,0.2,1.9,0.6
			c0.5,0.4,0.9,0.9,1.1,1.5l0.4-2h1.7l-1.7,7.9c0,0.1,0,0.1,0,0.1c0,0,0,0.1,0,0.1c0,0.2,0.1,0.3,0.4,0.4l-0.3,1.4
			c-0.1,0-0.3,0-0.4,0.1c-0.1,0-0.2,0-0.3,0c-0.4,0-0.6-0.1-0.8-0.2c-0.2-0.2-0.3-0.4-0.3-0.6c0-0.2,0.1-0.6,0.2-1.1
			c-0.5,0.6-1.1,1.1-1.8,1.5C-347.4,586.4-348,586.6-348.7,586.6z M-348,585.1c0.3,0,0.6-0.1,0.9-0.2c0.3-0.1,0.6-0.3,0.9-0.5
			c0.3-0.2,0.6-0.4,0.8-0.7c0.3-0.3,0.4-0.6,0.6-0.9l0.6-2.9c0-0.3-0.1-0.6-0.3-0.9s-0.3-0.5-0.6-0.7c-0.2-0.2-0.5-0.4-0.7-0.5
			c-0.3-0.1-0.6-0.2-0.8-0.2c-0.5,0-1,0.1-1.5,0.4c-0.5,0.3-0.9,0.6-1.2,1c-0.4,0.4-0.6,0.9-0.9,1.4s-0.3,1.1-0.3,1.6
			c0,0.4,0.1,0.8,0.2,1.1c0.1,0.4,0.3,0.7,0.5,0.9c0.2,0.3,0.5,0.5,0.8,0.6C-348.7,585.1-348.4,585.1-348,585.1z"/>
		<path class="st3" d="M-339,576.5h1.6l-0.5,2.3c0.5-0.7,1-1.2,1.6-1.7c0.6-0.4,1.2-0.6,1.8-0.6c0.1,0,0.2,0,0.3,0
			c0.1,0,0.1,0,0.2,0l-0.3,1.4c-0.8,0-1.5,0.2-2.2,0.6c-0.7,0.4-1.2,1-1.6,1.7l-1.3,6.1h-1.7L-339,576.5z"/>
		<path class="st3" d="M-327.6,576.5h1.5l-0.4,1.9c0.5-0.6,1.1-1.1,1.8-1.5c0.7-0.4,1.4-0.6,2.1-0.6c0.5,0,1,0.1,1.5,0.3
			c0.4,0.2,0.8,0.5,1.1,0.9c0.3,0.4,0.5,0.8,0.7,1.3c0.2,0.5,0.2,1,0.2,1.6c0,0.8-0.1,1.5-0.4,2.3c-0.3,0.7-0.7,1.4-1.2,2
			c-0.5,0.6-1.1,1-1.7,1.4s-1.4,0.5-2.1,0.5c-0.8,0-1.4-0.2-1.9-0.6c-0.5-0.4-0.9-0.9-1.1-1.5l-1.3,6h-1.7L-327.6,576.5z
			 M-324.8,585.1c0.5,0,1-0.1,1.5-0.4c0.5-0.3,0.9-0.6,1.2-1c0.4-0.4,0.6-0.9,0.9-1.4c0.2-0.5,0.3-1.1,0.3-1.6
			c0-0.4-0.1-0.8-0.2-1.1c-0.1-0.4-0.3-0.7-0.5-0.9c-0.2-0.3-0.5-0.5-0.8-0.6c-0.3-0.2-0.6-0.2-1-0.2c-0.3,0-0.6,0.1-0.9,0.2
			c-0.3,0.1-0.6,0.3-1,0.5s-0.6,0.4-0.8,0.7c-0.3,0.3-0.4,0.6-0.6,0.9l-0.6,2.8c0.1,0.7,0.4,1.2,0.8,1.7
			C-326,584.9-325.5,585.1-324.8,585.1z"/>
		<path class="st3" d="M-316.3,576.5h1.6l-0.5,2.3c0.5-0.7,1-1.2,1.6-1.7c0.6-0.4,1.2-0.6,1.8-0.6c0.1,0,0.2,0,0.3,0
			c0.1,0,0.1,0,0.2,0l-0.3,1.4c-0.8,0-1.5,0.2-2.2,0.6c-0.7,0.4-1.2,1-1.6,1.7l-1.3,6.1h-1.7L-316.3,576.5z"/>
		<path class="st3" d="M-307.9,586.6c-0.6,0-1.1-0.1-1.6-0.3c-0.5-0.2-0.9-0.5-1.2-0.9c-0.3-0.4-0.6-0.8-0.7-1.3
			c-0.2-0.5-0.2-1-0.2-1.6c0-0.8,0.2-1.6,0.5-2.3c0.3-0.7,0.7-1.4,1.3-2c0.5-0.6,1.2-1,1.9-1.4c0.7-0.3,1.5-0.5,2.3-0.5
			c0.6,0,1.1,0.1,1.6,0.3c0.5,0.2,0.9,0.5,1.2,0.9s0.6,0.8,0.8,1.3s0.3,1,0.3,1.6c0,0.8-0.2,1.5-0.5,2.3c-0.3,0.7-0.8,1.4-1.3,2
			c-0.6,0.6-1.2,1-1.9,1.4S-307.1,586.6-307.9,586.6z M-307.6,585.1c0.5,0,1-0.1,1.4-0.4c0.5-0.2,0.9-0.6,1.3-1
			c0.4-0.4,0.7-0.9,0.9-1.4c0.2-0.5,0.3-1.1,0.3-1.7c0-0.4-0.1-0.8-0.2-1.2c-0.1-0.4-0.3-0.7-0.5-0.9c-0.2-0.3-0.5-0.5-0.8-0.6
			c-0.3-0.2-0.6-0.2-1-0.2c-0.5,0-1,0.1-1.4,0.4c-0.5,0.2-0.9,0.6-1.3,1c-0.4,0.4-0.7,0.9-0.9,1.4c-0.2,0.5-0.3,1.1-0.3,1.7
			c0,0.4,0.1,0.8,0.2,1.2c0.1,0.4,0.3,0.7,0.5,0.9c0.2,0.3,0.5,0.5,0.8,0.6C-308.3,585.1-308,585.1-307.6,585.1z"/>
		<path class="st3" d="M-299,576.5h1.5l-0.4,1.9c0.5-0.6,1.1-1.1,1.8-1.5c0.7-0.4,1.4-0.6,2.1-0.6c0.5,0,1,0.1,1.5,0.3
			c0.4,0.2,0.8,0.5,1.1,0.9c0.3,0.4,0.5,0.8,0.7,1.3c0.2,0.5,0.2,1,0.2,1.6c0,0.8-0.1,1.5-0.4,2.3c-0.3,0.7-0.7,1.4-1.2,2
			c-0.5,0.6-1.1,1-1.7,1.4s-1.4,0.5-2.1,0.5c-0.8,0-1.4-0.2-1.9-0.6c-0.5-0.4-0.9-0.9-1.1-1.5l-1.3,6h-1.7L-299,576.5z
			 M-296.3,585.1c0.5,0,1-0.1,1.5-0.4c0.5-0.3,0.9-0.6,1.2-1c0.4-0.4,0.6-0.9,0.9-1.4c0.2-0.5,0.3-1.1,0.3-1.6
			c0-0.4-0.1-0.8-0.2-1.1c-0.1-0.4-0.3-0.7-0.5-0.9c-0.2-0.3-0.5-0.5-0.8-0.6c-0.3-0.2-0.6-0.2-1-0.2c-0.3,0-0.6,0.1-0.9,0.2
			c-0.3,0.1-0.6,0.3-1,0.5s-0.6,0.4-0.8,0.7c-0.3,0.3-0.4,0.6-0.6,0.9l-0.6,2.8c0.1,0.7,0.4,1.2,0.8,1.7
			C-297.4,584.9-296.9,585.1-296.3,585.1z"/>
		<path class="st3" d="M-286.9,586.6c-1.5,0-2.3-0.8-2.3-2.5c0-0.4,0.1-1,0.2-1.7l1.3-5.9h1.7l-1.2,5.6c-0.1,0.5-0.2,1-0.2,1.3
			c0,1.2,0.5,1.7,1.5,1.7c0.6,0,1.3-0.2,1.9-0.7c0.7-0.4,1.2-1,1.6-1.8l1.3-6.2h1.7l-1.7,7.9c0,0.1,0,0.1,0,0.1s0,0.1,0,0.1
			c0,0.2,0.1,0.3,0.4,0.4l-0.3,1.4c-0.1,0-0.3,0-0.4,0.1s-0.2,0-0.3,0c-0.3,0-0.6-0.1-0.8-0.2c-0.2-0.2-0.3-0.4-0.3-0.6
			c0-0.1,0-0.3,0-0.5s0.1-0.5,0.2-0.9c-0.6,0.7-1.2,1.3-2,1.7C-285.3,586.4-286.1,586.6-286.9,586.6z"/>
		<path class="st3" d="M-274.7,586.6c-0.6,0-1.2-0.1-1.7-0.3c-0.5-0.2-0.9-0.5-1.2-0.9c-0.3-0.4-0.6-0.8-0.8-1.3
			c-0.2-0.5-0.3-1.1-0.3-1.6c0-0.8,0.2-1.6,0.5-2.3c0.3-0.7,0.7-1.4,1.3-1.9c0.5-0.6,1.2-1,1.9-1.3c0.7-0.3,1.5-0.5,2.4-0.5
			c1,0,1.8,0.2,2.4,0.7c0.6,0.4,0.9,1.1,0.9,2c0,1-0.4,1.8-1.3,2.3c-0.9,0.5-2.2,0.8-4.1,0.8c-0.3,0-0.6,0-1,0s-0.8,0-1.2-0.1
			c0,0.1,0,0.2,0,0.2s0,0.1,0,0.2c0,0.4,0.1,0.8,0.2,1.1c0.1,0.4,0.3,0.7,0.5,0.9s0.5,0.5,0.8,0.6c0.3,0.2,0.7,0.2,1.1,0.2
			c0.6,0,1.2-0.1,1.7-0.4c0.6-0.3,1-0.7,1.3-1.2l1.3,0.4c-0.2,0.4-0.5,0.7-0.9,1c-0.3,0.3-0.7,0.6-1.1,0.8c-0.4,0.2-0.8,0.4-1.3,0.5
			S-274.2,586.6-274.7,586.6z M-272.7,577.5c-0.5,0-1,0.1-1.5,0.3s-0.8,0.4-1.1,0.7c-0.3,0.3-0.6,0.6-0.8,1
			c-0.2,0.4-0.4,0.8-0.5,1.2c0.4,0,0.7,0.1,1.1,0.1c0.3,0,0.6,0,0.9,0c0.7,0,1.3,0,1.8-0.1c0.5-0.1,0.9-0.2,1.2-0.4
			c0.3-0.2,0.5-0.4,0.7-0.6c0.1-0.2,0.2-0.5,0.2-0.8c0-0.5-0.2-0.8-0.5-1.1C-271.7,577.7-272.1,577.5-272.7,577.5z"/>
		<path class="st3" d="M-265.5,586.6c-0.8,0-1.5-0.1-2.2-0.4c-0.7-0.2-1.2-0.6-1.7-1.1l1-1.1c0.5,0.4,0.9,0.8,1.4,1
			c0.5,0.2,1.1,0.3,1.7,0.3c0.8,0,1.4-0.2,1.8-0.5c0.5-0.3,0.7-0.8,0.7-1.4c0-0.4-0.2-0.7-0.6-0.9c-0.4-0.2-0.9-0.4-1.7-0.6
			c-0.5-0.1-0.9-0.3-1.2-0.4c-0.3-0.1-0.6-0.3-0.9-0.4c-0.2-0.2-0.4-0.4-0.5-0.6c-0.1-0.2-0.2-0.5-0.2-0.8c0-0.6,0.1-1.1,0.4-1.5
			c0.2-0.4,0.6-0.8,1-1.1c0.4-0.3,0.9-0.5,1.4-0.7c0.5-0.2,1.1-0.2,1.6-0.2c0.7,0,1.3,0.1,1.9,0.4c0.6,0.2,1,0.6,1.4,0.9l-1,1
			c-0.3-0.4-0.7-0.6-1.2-0.8c-0.4-0.2-0.9-0.3-1.4-0.3c-0.3,0-0.6,0-0.9,0.1c-0.3,0.1-0.5,0.2-0.8,0.4s-0.4,0.4-0.5,0.6
			c-0.1,0.2-0.2,0.5-0.2,0.8c0,0.4,0.1,0.6,0.4,0.8c0.3,0.2,0.8,0.3,1.4,0.5c0.5,0.1,1,0.3,1.4,0.4c0.4,0.1,0.7,0.3,1,0.5
			c0.3,0.2,0.5,0.4,0.6,0.6s0.2,0.5,0.2,0.8c0,0.5-0.1,1-0.3,1.4c-0.2,0.4-0.5,0.8-0.9,1.1s-0.9,0.6-1.4,0.7
			C-264.2,586.5-264.8,586.6-265.5,586.6z"/>
		<path class="st3" d="M-257.3,586.5c-0.5,0-0.9-0.1-1.3-0.4c-0.3-0.2-0.5-0.6-0.5-1.2c0-0.2,0-0.4,0.1-0.6l1.4-6.7h-1.3l0.3-1.3
			h1.3l0.7-3.3h1.7l-0.7,3.3h2.1l-0.3,1.3h-2.1l-1.3,6.2c0,0.1,0,0.2,0,0.3c0,0.3,0.1,0.5,0.2,0.6c0.2,0.1,0.4,0.2,0.6,0.2
			c0.3,0,0.6-0.1,0.9-0.2s0.5-0.2,0.6-0.3l0.1,1.3c-0.2,0.2-0.6,0.3-1,0.4C-256.3,586.4-256.7,586.5-257.3,586.5z"/>
		<path class="st3" d="M-250.1,586.6c-0.6,0-1.1-0.1-1.5-0.3s-0.8-0.5-1.1-0.9c-0.3-0.4-0.5-0.8-0.7-1.3c-0.2-0.5-0.2-1-0.2-1.6
			c0-0.8,0.2-1.6,0.5-2.3c0.3-0.7,0.7-1.4,1.2-2c0.5-0.6,1.1-1,1.7-1.4s1.4-0.5,2.1-0.5c0.8,0,1.4,0.2,1.9,0.6
			c0.5,0.4,0.9,0.9,1.1,1.5l0.4-2h1.7l-1.7,7.9c0,0.1,0,0.1,0,0.1c0,0,0,0.1,0,0.1c0,0.2,0.1,0.3,0.4,0.4l-0.3,1.4
			c-0.1,0-0.3,0-0.4,0.1c-0.1,0-0.2,0-0.3,0c-0.4,0-0.6-0.1-0.8-0.2c-0.2-0.2-0.3-0.4-0.3-0.6c0-0.2,0.1-0.6,0.2-1.1
			c-0.5,0.6-1.1,1.1-1.8,1.5C-248.7,586.4-249.4,586.6-250.1,586.6z M-249.3,585.1c0.3,0,0.6-0.1,0.9-0.2c0.3-0.1,0.6-0.3,0.9-0.5
			c0.3-0.2,0.6-0.4,0.8-0.7c0.3-0.3,0.4-0.6,0.6-0.9l0.6-2.9c0-0.3-0.1-0.6-0.3-0.9s-0.3-0.5-0.6-0.7c-0.2-0.2-0.5-0.4-0.7-0.5
			c-0.3-0.1-0.6-0.2-0.8-0.2c-0.5,0-1,0.1-1.5,0.4c-0.5,0.3-0.9,0.6-1.2,1c-0.4,0.4-0.6,0.9-0.9,1.4s-0.3,1.1-0.3,1.6
			c0,0.4,0.1,0.8,0.2,1.1c0.1,0.4,0.3,0.7,0.5,0.9c0.2,0.3,0.5,0.5,0.8,0.6C-250.1,585.1-249.7,585.1-249.3,585.1z"/>
	</g>
</g>
</svg>
