<?xml version="1.0" encoding="UTF-8" standalone="no"?>
<!-- Generator: Adobe Illustrator 16.0.0, SVG Export Plug-In . SVG Version: 6.00 Build 0)  -->

<svg
   xmlns:dc="http://purl.org/dc/elements/1.1/"
   xmlns:cc="http://creativecommons.org/ns#"
   xmlns:rdf="http://www.w3.org/1999/02/22-rdf-syntax-ns#"
   xmlns:svg="http://www.w3.org/2000/svg"
   xmlns="http://www.w3.org/2000/svg"
   xmlns:sodipodi="http://sodipodi.sourceforge.net/DTD/sodipodi-0.dtd"
   xmlns:inkscape="http://www.inkscape.org/namespaces/inkscape"
   version="1.1"
   x="0px"
   y="0px"
   width="611.83197"
   height="137.6949"
   viewBox="0 0 611.83197 137.6949"
   enable-background="new 0 0 612 792"
   xml:space="preserve"
   id="svg2"
   inkscape:version="0.48.4 r9939"
   sodipodi:docname="etiqueta2_llena.svg"><metadata
     id="metadata65"><rdf:RDF><cc:Work
         rdf:about=""><dc:format>image/svg+xml</dc:format><dc:type
           rdf:resource="http://purl.org/dc/dcmitype/StillImage" /></cc:Work></rdf:RDF></metadata><defs
     id="defs63" /><sodipodi:namedview
     pagecolor="#ffffff"
     bordercolor="#666666"
     borderopacity="1"
     objecttolerance="10"
     gridtolerance="10"
     guidetolerance="10"
     inkscape:pageopacity="0"
     inkscape:pageshadow="2"
     inkscape:window-width="640"
     inkscape:window-height="480"
     id="namedview61"
     showgrid="false"
     fit-margin-top="0"
     fit-margin-left="0"
     fit-margin-right="0"
     fit-margin-bottom="0"
     inkscape:zoom="0.2979798"
     inkscape:cx="307.923"
     inkscape:cy="93.683455"
     inkscape:window-x="75"
     inkscape:window-y="34"
     inkscape:window-maximized="0"
     inkscape:current-layer="svg2" /><g
     id="Capa_1"
     transform="translate(1.923,-351.98855)"><polygon
       points="609.909,379.084 119.787,379.084 119.787,462.146 609.909,462.146 578.134,420.514 "
       id="polygon5"
       style="fill:#1558b9" /><g
       id="g7"><g
         id="g9"><path
           d="m 84.657,394.671 47.566,47.566 c 7.895,-23.884 2.227,-51.209 -16.799,-70.236 -26.718,-26.717 -70.236,-26.717 -97.157,0.203 -26.92,26.919 -26.92,70.438 0,97.359 16.598,16.598 39.47,22.871 60.925,19.026 L 41.949,451.344 81.824,412.28 84.657,394.671 z"
           id="path11"
           inkscape:connector-curvature="0"
           style="fill:#ff4a0f" /><path
           d="M 132.425,442.237 84.656,394.671 81.619,412.078 41.947,451.345 79.19,488.59 c 13.359,-2.431 26.111,-8.704 36.434,-19.026 7.896,-7.895 13.563,-17.207 16.801,-27.327 z"
           id="path13"
           inkscape:connector-curvature="0"
           style="fill:#bf380b" /></g><g
         id="g15"><path
           d="m 41.948,451.345 c 0,-3.035 0.203,-5.666 0.809,-8.297 0.405,-2.633 1.417,-4.858 2.632,-7.287 1.214,-2.227 3.036,-4.454 5.263,-6.478 2.227,-2.023 5.06,-4.048 8.5,-5.871 2.429,-1.416 4.858,-2.63 7.085,-3.643 2.226,-1.215 4.048,-2.227 5.869,-3.441 1.62,-1.011 3.036,-2.227 4.049,-3.441 1.012,-1.213 1.416,-2.629 1.416,-4.25 0,-2.226 -1.011,-4.251 -2.833,-6.072 -2.024,-1.821 -4.858,-2.631 -8.501,-2.631 -1.822,0 -3.644,0.203 -5.263,0.81 -1.62,0.607 -3.037,1.214 -4.454,2.024 -1.214,0.81 -2.428,1.822 -3.44,2.631 -1.012,1.013 -1.822,2.024 -2.632,2.834 l -7.489,-8.704 c 0.81,-0.81 1.821,-1.821 3.441,-2.833 1.619,-1.215 3.441,-2.227 5.465,-3.441 2.227,-1.012 4.655,-2.024 7.489,-2.631 2.834,-0.809 5.87,-1.214 9.108,-1.214 3.441,0 6.477,0.405 9.108,1.417 2.632,0.81 5.061,2.024 6.882,3.643 1.822,1.62 3.239,3.441 4.251,5.668 1.012,2.226 1.417,4.453 1.417,6.882 0,2.63 -0.607,5.06 -1.619,7.083 -1.012,2.024 -2.429,3.847 -3.846,5.466 -1.619,1.618 -3.238,2.833 -5.06,4.049 -1.822,1.013 -3.644,2.023 -5.06,2.833 -1.417,0.811 -3.239,1.619 -5.061,2.429 -1.822,1.013 -3.643,2.023 -5.465,3.239 -1.821,1.215 -3.441,2.631 -4.858,4.048 -1.416,1.417 -2.429,3.037 -3.036,4.655 h 35.017 v 10.524 H 41.948 z"
           id="path17"
           inkscape:connector-curvature="0"
           style="fill:#ffffff" /></g></g></g><g
     id="texto"
     display="none"
     style="display:none"
     transform="translate(1.923,-351.98855)"><text
       transform="translate(144.4878,435.1592)"
       display="inline"
       font-size="41.7958"
       id="text20"
       style="font-size:41.79579926px;fill:#ffffff;display:inline;font-family:Raleway-SemiBoldItalic">Registrar Encuentro</text>
</g><g
     id="texto_trazado"
     transform="translate(1.923,-351.98855)"><g
       id="g23"><path
         d="m 145.115,435.159 6.311,-29.675 h 12.33 c 1.086,0 2.062,0.224 2.925,0.669 0.863,0.445 1.595,1.045 2.194,1.797 0.599,0.752 1.052,1.609 1.358,2.57 0.306,0.961 0.46,1.958 0.46,2.988 0,1.115 -0.195,2.216 -0.585,3.302 -0.39,1.087 -0.919,2.098 -1.588,3.03 -0.669,0.934 -1.457,1.756 -2.362,2.466 -0.906,0.711 -1.888,1.233 -2.946,1.567 l 4.18,11.285 h -5.308 l -3.845,-10.323 h -6.228 l -2.173,10.323 h -4.723 z m 15.339,-14.461 c 0.696,0 1.372,-0.188 2.027,-0.564 0.654,-0.376 1.233,-0.878 1.734,-1.505 0.501,-0.627 0.898,-1.344 1.191,-2.152 0.292,-0.808 0.438,-1.63 0.438,-2.466 0,-1.254 -0.307,-2.299 -0.919,-3.135 -0.613,-0.836 -1.394,-1.254 -2.34,-1.254 h -7.314 l -2.382,11.076 h 7.565 z"
         id="path25"
         inkscape:connector-curvature="0"
         style="fill:#ffffff" /><path
         d="m 179.638,435.577 c -1.394,0 -2.626,-0.237 -3.699,-0.711 -1.073,-0.473 -1.985,-1.121 -2.737,-1.943 -0.752,-0.821 -1.324,-1.797 -1.714,-2.926 -0.39,-1.128 -0.585,-2.347 -0.585,-3.657 0,-1.782 0.341,-3.482 1.024,-5.099 0.683,-1.615 1.63,-3.037 2.842,-4.264 1.212,-1.226 2.646,-2.207 4.305,-2.946 1.658,-0.737 3.448,-1.107 5.371,-1.107 2.257,0 4.061,0.509 5.413,1.525 1.351,1.018 2.027,2.515 2.027,4.493 0,4.57 -4.082,6.854 -12.246,6.854 -1.198,0 -2.55,-0.042 -4.054,-0.125 v 0.752 c 0,0.809 0.097,1.561 0.292,2.257 0.195,0.697 0.487,1.311 0.878,1.839 0.39,0.53 0.891,0.94 1.504,1.233 0.613,0.292 1.337,0.438 2.173,0.438 1.198,0 2.354,-0.299 3.469,-0.898 1.114,-0.599 1.992,-1.414 2.633,-2.445 l 3.636,1.129 c -0.53,0.836 -1.178,1.596 -1.944,2.277 -0.767,0.684 -1.609,1.269 -2.528,1.756 -0.92,0.488 -1.896,0.871 -2.926,1.149 -1.03,0.28 -2.075,0.419 -3.134,0.419 z m 4.221,-19.267 c -1.003,0 -1.922,0.174 -2.758,0.522 -0.836,0.348 -1.575,0.814 -2.215,1.399 -0.641,0.586 -1.185,1.262 -1.63,2.027 -0.446,0.767 -0.809,1.567 -1.087,2.403 1.281,0.084 2.466,0.126 3.553,0.126 1.477,0 2.717,-0.091 3.72,-0.272 1.003,-0.181 1.818,-0.432 2.445,-0.752 0.627,-0.32 1.072,-0.711 1.337,-1.17 0.265,-0.46 0.397,-0.968 0.397,-1.526 0,-0.946 -0.334,-1.644 -1.003,-2.09 -0.669,-0.445 -1.588,-0.667 -2.759,-0.667 z"
         id="path27"
         inkscape:connector-curvature="0"
         style="fill:#ffffff" /><path
         d="m 199.073,444.479 c -2.313,0 -4.145,-0.411 -5.496,-1.232 -1.351,-0.822 -2.403,-1.972 -3.155,-3.448 l 3.093,-2.425 c 0.557,1.171 1.386,2.062 2.487,2.675 1.101,0.613 2.361,0.92 3.783,0.92 0.891,0 1.762,-0.125 2.612,-0.376 0.85,-0.251 1.637,-0.642 2.362,-1.171 0.724,-0.529 1.344,-1.198 1.86,-2.006 0.515,-0.809 0.884,-1.77 1.107,-2.884 l 0.669,-3.344 c -0.976,1.338 -2.188,2.369 -3.636,3.093 -1.449,0.726 -2.884,1.087 -4.305,1.087 -1.17,0 -2.215,-0.236 -3.135,-0.711 -0.919,-0.473 -1.692,-1.113 -2.319,-1.922 -0.627,-0.809 -1.108,-1.741 -1.442,-2.801 -0.334,-1.059 -0.502,-2.187 -0.502,-3.386 0,-1.782 0.334,-3.496 1.003,-5.141 0.668,-1.644 1.567,-3.093 2.696,-4.347 1.129,-1.254 2.438,-2.257 3.929,-3.009 1.49,-0.753 3.072,-1.129 4.744,-1.129 1.672,0 3.03,0.418 4.075,1.254 1.045,0.836 1.846,1.923 2.403,3.26 l 0.877,-4.138 h 4.054 l -4.514,21.232 c -0.334,1.588 -0.919,2.995 -1.755,4.222 -0.836,1.226 -1.839,2.264 -3.009,3.113 -1.17,0.849 -2.48,1.498 -3.929,1.943 -1.45,0.448 -2.968,0.671 -4.557,0.671 z m 3.678,-12.831 c 0.641,0 1.281,-0.118 1.923,-0.355 0.641,-0.236 1.253,-0.557 1.839,-0.961 0.585,-0.404 1.114,-0.863 1.588,-1.38 0.473,-0.515 0.85,-1.065 1.128,-1.65 l 1.254,-5.727 c -0.224,-1.393 -0.794,-2.528 -1.714,-3.406 -0.92,-0.878 -1.979,-1.316 -3.176,-1.316 -1.06,0 -2.062,0.271 -3.009,0.815 -0.948,0.543 -1.776,1.24 -2.487,2.09 -0.711,0.85 -1.269,1.812 -1.672,2.884 -0.404,1.072 -0.606,2.125 -0.606,3.155 0,0.809 0.118,1.567 0.355,2.278 0.236,0.71 0.571,1.33 1.003,1.859 0.432,0.529 0.947,0.947 1.547,1.254 0.599,0.307 1.275,0.46 2.027,0.46 z"
         id="path29"
         inkscape:connector-curvature="0"
         style="fill:#ffffff" /><path
         d="m 221.643,413.3 h 4.598 l -4.681,21.859 h -4.598 l 4.681,-21.859 z m 1.797,-8.652 h 4.597 l -1.045,5.057 h -4.597 l 1.045,-5.057 z"
         id="path31"
         inkscape:connector-curvature="0"
         style="fill:#ffffff" /><path
         d="m 233.931,435.577 c -1.7,0 -3.316,-0.286 -4.848,-0.856 -1.533,-0.571 -2.786,-1.386 -3.762,-2.445 l 2.466,-2.926 c 2.09,1.923 4.333,2.884 6.729,2.884 1.421,0 2.563,-0.32 3.427,-0.961 0.863,-0.641 1.295,-1.49 1.295,-2.55 0,-0.752 -0.355,-1.323 -1.066,-1.714 -0.71,-0.39 -1.818,-0.794 -3.323,-1.212 -1.059,-0.307 -1.979,-0.606 -2.758,-0.898 -0.78,-0.293 -1.421,-0.627 -1.923,-1.003 -0.501,-0.376 -0.877,-0.801 -1.128,-1.275 -0.25,-0.473 -0.376,-1.03 -0.376,-1.672 0,-1.226 0.265,-2.333 0.794,-3.322 0.529,-0.989 1.24,-1.832 2.132,-2.528 0.891,-0.696 1.922,-1.233 3.093,-1.609 1.171,-0.376 2.41,-0.564 3.72,-0.564 1.56,0 2.953,0.251 4.18,0.752 1.226,0.502 2.284,1.227 3.176,2.174 l -2.549,2.759 c -0.809,-0.809 -1.686,-1.414 -2.633,-1.818 -0.947,-0.403 -1.937,-0.606 -2.967,-0.606 -1.227,0 -2.271,0.293 -3.135,0.878 -0.864,0.585 -1.296,1.478 -1.296,2.675 0,0.697 0.293,1.22 0.878,1.567 0.585,0.349 1.56,0.704 2.926,1.066 1.17,0.307 2.187,0.627 3.051,0.961 0.864,0.334 1.581,0.704 2.153,1.107 0.571,0.404 0.996,0.871 1.274,1.4 0.278,0.529 0.418,1.143 0.418,1.839 0,1.17 -0.244,2.236 -0.731,3.197 -0.488,0.961 -1.17,1.791 -2.048,2.487 -0.877,0.696 -1.93,1.24 -3.155,1.63 -1.228,0.388 -2.566,0.583 -4.014,0.583 z"
         id="path33"
         inkscape:connector-curvature="0"
         style="fill:#ffffff" /><path
         d="m 251.902,435.493 c -1.198,0 -2.201,-0.286 -3.009,-0.856 -0.808,-0.57 -1.212,-1.483 -1.212,-2.737 0,-0.474 0.056,-0.934 0.167,-1.38 l 2.926,-13.667 h -2.8 l 0.794,-3.553 h 2.716 l 1.547,-7.188 h 4.597 l -1.546,7.188 h 4.514 l -0.752,3.553 h -4.472 l -2.591,12.204 c -0.056,0.279 -0.083,0.488 -0.083,0.627 0,0.558 0.167,0.962 0.501,1.213 0.334,0.25 0.738,0.376 1.212,0.376 0.641,0 1.254,-0.111 1.839,-0.335 0.585,-0.223 1.03,-0.403 1.337,-0.543 l 0.167,3.636 c -0.641,0.391 -1.491,0.731 -2.549,1.024 -1.06,0.293 -2.16,0.438 -3.303,0.438 z"
         id="path35"
         inkscape:connector-curvature="0"
         style="fill:#ffffff" /><path
         d="m 264.65,413.3 h 4.263 l -1.087,4.891 c 1.059,-1.505 2.257,-2.717 3.595,-3.637 1.337,-0.919 2.661,-1.379 3.971,-1.379 0.278,0 0.494,0.007 0.647,0.021 0.153,0.015 0.299,0.035 0.439,0.062 l -0.877,4.013 c -1.672,0.057 -3.233,0.467 -4.681,1.233 -1.449,0.767 -2.62,1.859 -3.511,3.28 l -2.842,13.375 h -4.598 L 264.65,413.3 z"
         id="path37"
         inkscape:connector-curvature="0"
         style="fill:#ffffff" /><path
         d="m 282.247,435.577 c -1.227,0 -2.32,-0.237 -3.281,-0.711 -0.961,-0.473 -1.776,-1.113 -2.445,-1.922 -0.669,-0.809 -1.178,-1.763 -1.526,-2.863 -0.349,-1.101 -0.522,-2.278 -0.522,-3.532 0,-1.782 0.327,-3.496 0.982,-5.141 0.654,-1.644 1.539,-3.093 2.654,-4.347 1.114,-1.254 2.396,-2.257 3.845,-3.009 1.449,-0.753 2.968,-1.129 4.556,-1.129 1.589,0 2.919,0.425 3.992,1.274 1.072,0.851 1.831,1.93 2.277,3.239 l 0.878,-4.096 h 4.64 l -3.512,16.384 c -0.027,0.14 -0.049,0.258 -0.062,0.355 -0.013,0.097 -0.021,0.188 -0.021,0.271 0,0.558 0.32,0.851 0.961,0.878 l -0.836,3.929 c -0.391,0.056 -0.745,0.104 -1.065,0.146 -0.32,0.042 -0.593,0.062 -0.815,0.062 -1.812,0 -2.717,-0.725 -2.717,-2.174 0,-0.445 0.098,-1.113 0.293,-2.006 -1.06,1.421 -2.341,2.508 -3.846,3.26 -1.505,0.756 -2.982,1.132 -4.43,1.132 z m 2.005,-3.929 c 0.558,0 1.149,-0.111 1.776,-0.334 0.627,-0.224 1.239,-0.529 1.839,-0.92 0.599,-0.39 1.149,-0.85 1.651,-1.379 0.501,-0.529 0.905,-1.101 1.212,-1.714 l 1.17,-5.727 c -0.083,-0.668 -0.271,-1.288 -0.563,-1.859 -0.293,-0.571 -0.663,-1.072 -1.108,-1.505 -0.445,-0.432 -0.934,-0.766 -1.463,-1.003 -0.529,-0.236 -1.086,-0.355 -1.672,-0.355 -1.059,0 -2.055,0.266 -2.988,0.794 -0.934,0.53 -1.755,1.212 -2.466,2.048 -0.71,0.836 -1.274,1.791 -1.692,2.863 -0.418,1.073 -0.627,2.152 -0.627,3.239 0,0.836 0.111,1.609 0.334,2.319 0.223,0.711 0.55,1.324 0.982,1.84 0.432,0.516 0.954,0.926 1.567,1.232 0.613,0.308 1.296,0.461 2.048,0.461 z"
         id="path39"
         inkscape:connector-curvature="0"
         style="fill:#ffffff" /><path
         d="m 303.478,413.3 h 4.264 l -1.088,4.891 c 1.059,-1.505 2.258,-2.717 3.596,-3.637 1.336,-0.919 2.66,-1.379 3.971,-1.379 0.277,0 0.494,0.007 0.646,0.021 0.154,0.015 0.299,0.035 0.439,0.062 l -0.877,4.013 c -1.672,0.057 -3.232,0.467 -4.682,1.233 -1.45,0.766 -2.619,1.859 -3.511,3.28 l -2.842,13.375 h -4.598 l 4.682,-21.859 z"
         id="path41"
         inkscape:connector-curvature="0"
         style="fill:#ffffff" /><path
         d="m 329.225,405.484 h 19.018 l -0.879,4.138 H 333.07 l -1.797,8.442 h 12.371 l -0.795,3.888 h -12.412 l -1.924,9.069 h 14.67 l -0.877,4.138 h -19.393 l 6.312,-29.675 z"
         id="path43"
         inkscape:connector-curvature="0"
         style="fill:#ffffff" /><path
         d="m 350.205,413.3 h 4.139 l -0.92,4.389 c 1.088,-1.477 2.467,-2.64 4.139,-3.49 1.672,-0.85 3.428,-1.274 5.266,-1.274 0.92,0 1.686,0.125 2.299,0.376 0.613,0.251 1.107,0.606 1.484,1.066 0.375,0.459 0.646,0.996 0.814,1.608 0.168,0.613 0.25,1.296 0.25,2.048 0,0.586 -0.049,1.199 -0.145,1.84 -0.1,0.641 -0.217,1.295 -0.355,1.964 l -2.801,13.333 h -4.598 l 2.592,-12.246 c 0.111,-0.529 0.193,-1.01 0.25,-1.442 0.057,-0.432 0.084,-0.842 0.084,-1.232 0,-2.146 -0.893,-3.219 -2.676,-3.219 -0.613,0 -1.254,0.126 -1.922,0.376 -0.668,0.251 -1.324,0.606 -1.965,1.066 -0.641,0.46 -1.246,1.003 -1.818,1.63 -0.57,0.627 -1.037,1.316 -1.4,2.069 l -2.799,12.998 h -4.598 l 4.68,-21.86 z"
         id="path45"
         inkscape:connector-curvature="0"
         style="fill:#ffffff" /><path
         d="m 378.418,435.577 c -1.395,0 -2.633,-0.244 -3.721,-0.731 -1.086,-0.487 -1.998,-1.149 -2.736,-1.985 -0.738,-0.836 -1.297,-1.811 -1.672,-2.926 -0.377,-1.114 -0.564,-2.299 -0.564,-3.553 0,-1.755 0.34,-3.44 1.023,-5.057 0.683,-1.617 1.631,-3.044 2.842,-4.284 1.213,-1.24 2.633,-2.236 4.264,-2.988 1.631,-0.753 3.406,-1.129 5.328,-1.129 2.174,0 3.93,0.495 5.268,1.483 1.338,0.989 2.229,2.307 2.674,3.95 l -4.764,1.421 c -0.307,-0.92 -0.814,-1.637 -1.525,-2.152 -0.711,-0.515 -1.568,-0.773 -2.57,-0.773 -1.004,0 -1.973,0.229 -2.906,0.689 -0.933,0.46 -1.762,1.102 -2.486,1.923 -0.725,0.822 -1.303,1.776 -1.734,2.863 -0.431,1.087 -0.648,2.257 -0.648,3.511 0,0.836 0.111,1.609 0.336,2.319 0.223,0.711 0.543,1.324 0.961,1.839 0.418,0.517 0.912,0.92 1.482,1.213 0.572,0.292 1.205,0.438 1.902,0.438 0.529,0 1.059,-0.076 1.588,-0.229 0.529,-0.153 1.039,-0.369 1.525,-0.648 0.488,-0.278 0.928,-0.599 1.316,-0.961 0.391,-0.362 0.711,-0.753 0.963,-1.171 l 4.221,1.338 c -0.502,0.809 -1.121,1.554 -1.859,2.236 -0.738,0.682 -1.555,1.274 -2.445,1.776 -0.893,0.501 -1.854,0.892 -2.885,1.17 -1.031,0.278 -2.092,0.418 -3.178,0.418 z"
         id="path47"
         inkscape:connector-curvature="0"
         style="fill:#ffffff" /><path
         d="m 397.018,435.577 c -3.4,0 -5.1,-1.811 -5.1,-5.434 0,-1.03 0.139,-2.187 0.418,-3.469 l 2.883,-13.375 h 4.557 l -2.676,12.455 c -0.195,0.893 -0.291,1.729 -0.291,2.508 0,2.257 0.961,3.386 2.883,3.386 1.227,0 2.459,-0.403 3.699,-1.212 1.24,-0.808 2.334,-1.979 3.281,-3.511 l 2.883,-13.626 h 4.598 l -3.469,16.426 c -0.084,0.251 -0.125,0.46 -0.125,0.627 0,0.529 0.32,0.822 0.961,0.878 l -0.793,3.929 c -0.418,0.056 -0.781,0.104 -1.088,0.146 -0.307,0.042 -0.584,0.062 -0.836,0.062 -0.836,0 -1.49,-0.175 -1.963,-0.522 -0.475,-0.348 -0.711,-0.87 -0.711,-1.567 0,-0.223 0.027,-0.516 0.084,-0.878 0.055,-0.361 0.152,-0.919 0.291,-1.672 -1.254,1.589 -2.703,2.794 -4.346,3.615 -1.644,0.823 -3.359,1.234 -5.14,1.234 z"
         id="path49"
         inkscape:connector-curvature="0"
         style="fill:#ffffff" /><path
         d="m 424.227,435.577 c -1.395,0 -2.627,-0.237 -3.699,-0.711 -1.072,-0.473 -1.986,-1.121 -2.738,-1.943 -0.752,-0.821 -1.324,-1.797 -1.713,-2.926 -0.391,-1.128 -0.586,-2.347 -0.586,-3.657 0,-1.782 0.342,-3.482 1.025,-5.099 0.682,-1.615 1.629,-3.037 2.842,-4.264 1.211,-1.226 2.646,-2.207 4.305,-2.946 1.656,-0.737 3.447,-1.107 5.371,-1.107 2.256,0 4.061,0.509 5.412,1.525 1.352,1.018 2.027,2.515 2.027,4.493 0,4.57 -4.082,6.854 -12.246,6.854 -1.199,0 -2.551,-0.042 -4.055,-0.125 v 0.752 c 0,0.809 0.098,1.561 0.293,2.257 0.193,0.697 0.486,1.311 0.877,1.839 0.391,0.53 0.893,0.94 1.506,1.233 0.611,0.292 1.336,0.438 2.172,0.438 1.199,0 2.355,-0.299 3.469,-0.898 1.115,-0.599 1.992,-1.414 2.635,-2.445 l 3.635,1.129 c -0.529,0.836 -1.176,1.596 -1.943,2.277 -0.766,0.684 -1.609,1.269 -2.527,1.756 -0.92,0.488 -1.896,0.871 -2.926,1.149 -1.033,0.28 -2.078,0.419 -3.136,0.419 z m 4.22,-19.267 c -1.004,0 -1.922,0.174 -2.758,0.522 -0.836,0.348 -1.574,0.814 -2.215,1.399 -0.643,0.586 -1.186,1.262 -1.631,2.027 -0.445,0.767 -0.809,1.567 -1.086,2.403 1.281,0.084 2.465,0.126 3.553,0.126 1.477,0 2.715,-0.091 3.719,-0.272 1.004,-0.181 1.818,-0.432 2.445,-0.752 0.627,-0.32 1.072,-0.711 1.338,-1.17 0.264,-0.46 0.396,-0.968 0.396,-1.526 0,-0.946 -0.334,-1.644 -1.004,-2.09 -0.667,-0.445 -1.587,-0.667 -2.757,-0.667 z"
         id="path51"
         inkscape:connector-curvature="0"
         style="fill:#ffffff" /><path
         d="m 441.529,413.3 h 4.139 l -0.92,4.389 c 1.086,-1.477 2.465,-2.64 4.137,-3.49 1.672,-0.85 3.428,-1.274 5.268,-1.274 0.918,0 1.686,0.125 2.299,0.376 0.611,0.251 1.107,0.606 1.482,1.066 0.377,0.459 0.648,0.996 0.816,1.608 0.166,0.613 0.25,1.296 0.25,2.048 0,0.586 -0.049,1.199 -0.146,1.84 -0.097,0.641 -0.217,1.295 -0.355,1.964 l -2.801,13.333 H 451.1 l 2.592,-12.246 c 0.111,-0.529 0.195,-1.01 0.252,-1.442 0.055,-0.432 0.082,-0.842 0.082,-1.232 0,-2.146 -0.891,-3.219 -2.674,-3.219 -0.613,0 -1.254,0.126 -1.924,0.376 -0.668,0.251 -1.322,0.606 -1.963,1.066 -0.643,0.46 -1.248,1.003 -1.818,1.63 -0.572,0.627 -1.039,1.316 -1.4,2.069 l -2.801,12.998 h -4.598 l 4.681,-21.86 z"
         id="path53"
         inkscape:connector-curvature="0"
         style="fill:#ffffff" /><path
         d="m 466.23,435.493 c -1.199,0 -2.201,-0.286 -3.01,-0.856 -0.809,-0.57 -1.211,-1.483 -1.211,-2.737 0,-0.474 0.055,-0.934 0.166,-1.38 l 2.926,-13.667 H 462.3 l 0.795,-3.553 h 2.717 l 1.547,-7.188 h 4.598 l -1.547,7.188 h 4.514 l -0.752,3.553 h -4.473 l -2.592,12.204 c -0.057,0.279 -0.084,0.488 -0.084,0.627 0,0.558 0.168,0.962 0.502,1.213 0.334,0.25 0.738,0.376 1.213,0.376 0.641,0 1.254,-0.111 1.838,-0.335 0.586,-0.223 1.031,-0.403 1.338,-0.543 l 0.168,3.636 c -0.643,0.391 -1.492,0.731 -2.551,1.024 -1.059,0.293 -2.158,0.438 -3.301,0.438 z"
         id="path55"
         inkscape:connector-curvature="0"
         style="fill:#ffffff" /><path
         d="m 478.979,413.3 h 4.264 l -1.088,4.891 c 1.059,-1.505 2.258,-2.717 3.596,-3.637 1.336,-0.919 2.66,-1.379 3.971,-1.379 0.277,0 0.494,0.007 0.646,0.021 0.154,0.015 0.299,0.035 0.439,0.062 l -0.877,4.013 c -1.672,0.057 -3.232,0.467 -4.682,1.233 -1.45,0.766 -2.619,1.859 -3.512,3.28 l -2.842,13.375 h -4.598 l 4.683,-21.859 z"
         id="path57"
         inkscape:connector-curvature="0"
         style="fill:#ffffff" /><path
         d="m 497.285,435.577 c -1.395,0 -2.619,-0.244 -3.678,-0.731 -1.061,-0.487 -1.951,-1.143 -2.676,-1.965 -0.725,-0.821 -1.275,-1.782 -1.65,-2.884 -0.377,-1.1 -0.564,-2.277 -0.564,-3.531 0,-1.756 0.348,-3.448 1.045,-5.078 0.695,-1.63 1.643,-3.072 2.842,-4.326 1.197,-1.254 2.611,-2.257 4.242,-3.009 1.631,-0.753 3.379,-1.129 5.246,-1.129 1.393,0 2.625,0.244 3.699,0.731 1.072,0.488 1.977,1.143 2.715,1.965 0.738,0.821 1.297,1.79 1.672,2.904 0.377,1.115 0.564,2.299 0.564,3.553 0,1.728 -0.348,3.399 -1.045,5.016 -0.695,1.616 -1.65,3.051 -2.863,4.305 -1.211,1.254 -2.633,2.265 -4.262,3.03 -1.631,0.765 -3.392,1.149 -5.287,1.149 z m 0.877,-3.929 c 0.975,0 1.93,-0.236 2.863,-0.711 0.934,-0.474 1.762,-1.121 2.486,-1.943 0.725,-0.821 1.311,-1.776 1.756,-2.863 0.445,-1.086 0.668,-2.242 0.668,-3.469 0,-1.672 -0.424,-3.058 -1.273,-4.158 -0.852,-1.101 -1.986,-1.651 -3.406,-1.651 -0.977,0 -1.924,0.244 -2.842,0.731 -0.92,0.488 -1.75,1.143 -2.488,1.965 -0.738,0.822 -1.33,1.776 -1.775,2.862 -0.447,1.087 -0.67,2.243 -0.67,3.47 0,1.672 0.426,3.051 1.275,4.138 0.849,1.087 1.986,1.629 3.406,1.629 z"
         id="path59"
         inkscape:connector-curvature="0"
         style="fill:#ffffff" /></g></g></svg>