<?xml version="1.0" encoding="utf-8"?>
<!-- Generator: Adobe Illustrator 19.1.0, SVG Export Plug-In . SVG Version: 6.00 Build 0)  -->
<svg version="1.1" id="Capa_1" xmlns="http://www.w3.org/2000/svg" xmlns:xlink="http://www.w3.org/1999/xlink" x="0px" y="0px"
	 viewBox="-255 272.9 280.5 68.1" style="enable-background:new -255 272.9 280.5 68.1;" xml:space="preserve">
<style type="text/css">
	.st0{fill:#1558B9;}
	.st1{fill:#FF4A0F;}
	.st2{fill:#BF380B;}
	.st3{fill:#FFFFFF;}
	.st4{font-family:'Raleway-SemiBold';}
	.st5{font-size:48.8948px;}
</style>
<polygon class="st0" points="-195.6,330.7 25.5,330.7 9.7,310 25.5,289.3 -195.6,289.3 "/>
<g>
	<path class="st1" d="M-221,321.7l6.7-4.1l-2.1-12l4-12.8l24,24.1c3.6-11.6,0.7-24.8-8.5-34c-13.3-13.3-34.8-13.3-48.1,0
		c-13.3,13.3-13.3,34.8,0,48.1c8.6,8.6,20.8,11.7,31.9,9.1l-20-20L-221,321.7z"/>
	<path class="st2" d="M-188.4,316.9l-24-24l-4,12.8l2.1,12l-6.7,4l-12.2-1.6l20,20c6-1.4,11.6-4.4,16.3-9.1
		C-192.8,326.9-190,322.1-188.4,316.9z"/>
</g>
<text transform="matrix(1 0 0 1 -234.3716 317.6386)" class="st3 st4 st5">3</text>
<g>
	<path class="st3" d="M-175.9,314.7v-13.5h5.8c0.6,0,1.1,0.1,1.6,0.4c0.5,0.2,0.9,0.6,1.3,1c0.4,0.4,0.6,0.9,0.8,1.4
		c0.2,0.5,0.3,1,0.3,1.6c0,0.5-0.1,0.9-0.2,1.4c-0.1,0.4-0.3,0.8-0.6,1.2s-0.5,0.7-0.9,0.9c-0.3,0.3-0.7,0.4-1.2,0.6l3.3,5.2h-1.9
		l-3.1-4.8h-3.6v4.8H-175.9z M-174.2,308.4h4.1c0.4,0,0.7-0.1,1-0.2c0.3-0.2,0.5-0.4,0.7-0.6c0.2-0.3,0.4-0.6,0.5-0.9
		c0.1-0.3,0.2-0.7,0.2-1.1c0-0.4-0.1-0.7-0.2-1.1c-0.1-0.3-0.3-0.6-0.5-0.9c-0.2-0.3-0.5-0.5-0.8-0.6c-0.3-0.1-0.6-0.2-0.9-0.2h-4
		V308.4z"/>
	<path class="st3" d="M-159.6,314.9c-0.7,0-1.4-0.1-2.1-0.4s-1.2-0.6-1.6-1.1s-0.8-1-1-1.6c-0.2-0.6-0.4-1.3-0.4-2s0.1-1.4,0.4-2
		c0.2-0.6,0.6-1.2,1-1.6c0.4-0.5,1-0.8,1.6-1.1s1.3-0.4,2.1-0.4s1.4,0.1,2,0.4s1.1,0.6,1.6,1.1c0.4,0.5,0.8,1,1,1.6s0.4,1.3,0.4,1.9
		c0,0.1,0,0.3,0,0.4c0,0.1,0,0.2,0,0.3h-8.2c0,0.5,0.2,0.9,0.3,1.3s0.4,0.8,0.7,1c0.3,0.3,0.6,0.5,1,0.7c0.4,0.2,0.8,0.2,1.2,0.2
		c0.3,0,0.6,0,0.9-0.1c0.3-0.1,0.6-0.2,0.8-0.3c0.3-0.1,0.5-0.3,0.7-0.5c0.2-0.2,0.3-0.4,0.4-0.7l1.4,0.4c-0.2,0.4-0.4,0.7-0.7,1
		c-0.3,0.3-0.6,0.6-1,0.8c-0.4,0.2-0.8,0.4-1.2,0.5S-159.1,314.9-159.6,314.9z M-156.2,309.1c0-0.5-0.2-0.9-0.4-1.3
		c-0.2-0.4-0.4-0.7-0.7-1c-0.3-0.3-0.6-0.5-1-0.7c-0.4-0.2-0.8-0.2-1.3-0.2s-0.9,0.1-1.3,0.2s-0.7,0.4-1,0.7c-0.3,0.3-0.5,0.6-0.7,1
		c-0.2,0.4-0.3,0.8-0.3,1.3H-156.2z"/>
	<path class="st3" d="M-149.4,314.9c-0.8,0-1.6-0.1-2.4-0.4c-0.8-0.2-1.4-0.6-2-1.1l0.7-1.1c0.6,0.4,1.2,0.8,1.7,1
		c0.6,0.2,1.2,0.3,1.8,0.3c0.7,0,1.3-0.1,1.7-0.4s0.6-0.7,0.6-1.2c0-0.2-0.1-0.4-0.2-0.6c-0.1-0.2-0.3-0.3-0.5-0.4
		c-0.2-0.1-0.5-0.2-0.9-0.3s-0.8-0.2-1.2-0.3c-0.6-0.2-1.1-0.3-1.5-0.4s-0.8-0.3-1.1-0.5c-0.3-0.2-0.5-0.4-0.6-0.7
		c-0.1-0.3-0.2-0.6-0.2-1c0-0.5,0.1-0.9,0.3-1.3c0.2-0.4,0.5-0.7,0.8-1c0.3-0.3,0.7-0.5,1.2-0.6s1-0.2,1.5-0.2
		c0.7,0,1.4,0.1,2.1,0.4c0.6,0.2,1.2,0.6,1.6,0.9l-0.8,1c-0.4-0.4-0.9-0.6-1.4-0.8c-0.5-0.2-1.1-0.3-1.6-0.3c-0.6,0-1.1,0.1-1.5,0.4
		c-0.4,0.3-0.6,0.7-0.6,1.2c0,0.2,0,0.4,0.1,0.6s0.2,0.3,0.4,0.4c0.2,0.1,0.4,0.2,0.7,0.3c0.3,0.1,0.7,0.2,1.1,0.3
		c0.7,0.2,1.2,0.3,1.7,0.5c0.5,0.2,0.9,0.3,1.2,0.6c0.3,0.2,0.6,0.5,0.7,0.8c0.2,0.3,0.2,0.6,0.2,1.1c0,0.9-0.4,1.7-1.1,2.2
		S-148.2,314.9-149.4,314.9z"/>
	<path class="st3" d="M-140.6,314.9c-1,0-1.8-0.3-2.4-1c-0.5-0.7-0.8-1.7-0.8-3.1v-5.9h1.7v5.6c0,2,0.7,3,2.1,3
		c0.7,0,1.3-0.2,1.9-0.7c0.6-0.4,1-1,1.3-1.8v-6.2h1.7v7.9c0,0.4,0.2,0.6,0.5,0.6v1.4c-0.2,0-0.3,0-0.4,0c-0.1,0-0.2,0-0.3,0
		c-0.3,0-0.6-0.1-0.8-0.3s-0.3-0.4-0.4-0.7l0-1.2c-0.4,0.7-1,1.3-1.7,1.7C-138.9,314.7-139.7,314.9-140.6,314.9z"/>
	<path class="st3" d="M-117.4,314.7h-1.7v-5.5c0-1-0.2-1.8-0.5-2.3c-0.3-0.5-0.8-0.7-1.5-0.7c-0.7,0-1.3,0.2-1.8,0.7
		c-0.5,0.5-0.9,1.1-1.1,1.9v6h-1.7v-5.5c0-1.1-0.2-1.8-0.5-2.3s-0.8-0.7-1.5-0.7c-0.7,0-1.3,0.2-1.8,0.7c-0.5,0.5-0.9,1.1-1.2,1.9v6
		h-1.7v-9.9h1.5v2.1c0.4-0.7,0.9-1.3,1.6-1.7c0.6-0.4,1.4-0.6,2.2-0.6c0.8,0,1.5,0.2,2,0.7c0.5,0.4,0.8,1,0.9,1.7
		c0.9-1.6,2.1-2.4,3.8-2.4c0.6,0,1,0.1,1.4,0.3s0.7,0.5,0.9,0.9c0.2,0.4,0.4,0.8,0.5,1.3s0.2,1.1,0.2,1.7V314.7z"/>
	<path class="st3" d="M-110.5,314.9c-0.7,0-1.4-0.1-2.1-0.4s-1.2-0.6-1.6-1.1s-0.8-1-1-1.6c-0.2-0.6-0.4-1.3-0.4-2s0.1-1.4,0.4-2
		c0.2-0.6,0.6-1.2,1-1.6c0.4-0.5,1-0.8,1.6-1.1s1.3-0.4,2.1-0.4s1.4,0.1,2,0.4s1.1,0.6,1.6,1.1c0.4,0.5,0.8,1,1,1.6s0.4,1.3,0.4,1.9
		c0,0.1,0,0.3,0,0.4c0,0.1,0,0.2,0,0.3h-8.2c0,0.5,0.2,0.9,0.3,1.3s0.4,0.8,0.7,1c0.3,0.3,0.6,0.5,1,0.7c0.4,0.2,0.8,0.2,1.2,0.2
		c0.3,0,0.6,0,0.9-0.1c0.3-0.1,0.6-0.2,0.8-0.3c0.3-0.1,0.5-0.3,0.7-0.5c0.2-0.2,0.3-0.4,0.4-0.7l1.4,0.4c-0.2,0.4-0.4,0.7-0.7,1
		c-0.3,0.3-0.6,0.6-1,0.8c-0.4,0.2-0.8,0.4-1.2,0.5S-110,314.9-110.5,314.9z M-107.1,309.1c0-0.5-0.2-0.9-0.4-1.3
		c-0.2-0.4-0.4-0.7-0.7-1c-0.3-0.3-0.6-0.5-1-0.7c-0.4-0.2-0.8-0.2-1.3-0.2s-0.9,0.1-1.3,0.2s-0.7,0.4-1,0.7c-0.3,0.3-0.5,0.6-0.7,1
		c-0.2,0.4-0.3,0.8-0.3,1.3H-107.1z"/>
	<path class="st3" d="M-95.1,314.7h-1.7v-5.5c0-1.1-0.2-1.8-0.5-2.3c-0.3-0.5-0.8-0.7-1.5-0.7c-0.3,0-0.7,0.1-1,0.2
		c-0.3,0.1-0.7,0.3-1,0.5c-0.3,0.2-0.6,0.5-0.8,0.8c-0.2,0.3-0.4,0.7-0.5,1v6h-1.7v-9.9h1.5v2.1c0.4-0.7,1-1.3,1.7-1.7
		c0.7-0.4,1.5-0.6,2.4-0.6c0.6,0,1,0.1,1.4,0.3s0.7,0.5,0.9,0.9s0.4,0.8,0.5,1.3s0.1,1.1,0.1,1.7V314.7z"/>
	<path class="st3" d="M-87.4,314.7v-13.5h5.6c0.6,0,1.1,0.1,1.6,0.4s0.9,0.6,1.3,1c0.4,0.4,0.6,0.9,0.8,1.4c0.2,0.5,0.3,1,0.3,1.6
		c0,0.6-0.1,1.1-0.3,1.6s-0.5,1-0.8,1.4c-0.3,0.4-0.8,0.7-1.3,1c-0.5,0.2-1,0.4-1.6,0.4h-4v4.8H-87.4z M-85.7,308.4h3.9
		c0.4,0,0.7-0.1,1-0.2c0.3-0.1,0.5-0.3,0.7-0.6c0.2-0.3,0.4-0.6,0.5-0.9c0.1-0.3,0.2-0.7,0.2-1.1c0-0.4-0.1-0.8-0.2-1.1
		c-0.1-0.3-0.3-0.6-0.5-0.9s-0.5-0.4-0.8-0.6c-0.3-0.1-0.6-0.2-0.9-0.2h-3.8V308.4z"/>
	<path class="st3" d="M-70.8,306.3c-0.8,0-1.6,0.2-2.2,0.6s-1.1,1-1.4,1.7v6.1h-1.7v-9.9h1.6v2.3c0.3-0.7,0.8-1.2,1.3-1.7
		c0.6-0.4,1.2-0.7,1.8-0.7c0.1,0,0.2,0,0.3,0c0.1,0,0.2,0,0.2,0V306.3z"/>
	<path class="st3" d="M-65.2,314.9c-0.7,0-1.4-0.1-2-0.4c-0.6-0.3-1.1-0.7-1.6-1.1s-0.8-1-1-1.6c-0.2-0.6-0.4-1.3-0.4-2
		c0-0.7,0.1-1.4,0.4-2c0.2-0.6,0.6-1.2,1-1.6s1-0.8,1.6-1.1c0.6-0.3,1.3-0.4,2-0.4c0.7,0,1.4,0.1,2,0.4s1.1,0.7,1.6,1.1s0.8,1,1,1.6
		c0.2,0.6,0.4,1.3,0.4,2c0,0.7-0.1,1.3-0.4,2c-0.2,0.6-0.6,1.2-1,1.6s-1,0.8-1.6,1.1C-63.8,314.8-64.5,314.9-65.2,314.9z
		 M-68.5,309.8c0,0.5,0.1,1,0.3,1.4s0.4,0.8,0.7,1.2c0.3,0.3,0.6,0.6,1,0.8c0.4,0.2,0.8,0.3,1.3,0.3s0.9-0.1,1.3-0.3
		c0.4-0.2,0.8-0.5,1.1-0.8c0.3-0.3,0.5-0.7,0.7-1.2c0.2-0.4,0.3-0.9,0.3-1.5c0-0.5-0.1-1-0.3-1.4c-0.2-0.4-0.4-0.8-0.7-1.2
		c-0.3-0.3-0.7-0.6-1.1-0.8c-0.4-0.2-0.8-0.3-1.3-0.3s-0.9,0.1-1.3,0.3s-0.7,0.5-1,0.8c-0.3,0.3-0.5,0.7-0.7,1.2
		C-68.4,308.8-68.5,309.3-68.5,309.8z"/>
	<path class="st3" d="M-52.9,314.9c-0.8,0-1.5-0.2-2.2-0.6s-1.1-0.9-1.5-1.5v6h-1.7v-14h1.5v1.9c0.4-0.6,0.9-1.1,1.5-1.5
		s1.3-0.6,2.1-0.6c0.7,0,1.3,0.1,1.9,0.4c0.6,0.3,1.1,0.7,1.5,1.1c0.4,0.5,0.7,1,1,1.6c0.2,0.6,0.4,1.3,0.4,1.9c0,0.7-0.1,1.4-0.3,2
		s-0.5,1.2-0.9,1.6c-0.4,0.5-0.9,0.8-1.4,1.1C-51.7,314.8-52.3,314.9-52.9,314.9z M-53.5,313.5c0.5,0,0.9-0.1,1.3-0.3s0.7-0.5,1-0.8
		s0.5-0.7,0.7-1.2c0.2-0.4,0.2-0.9,0.2-1.4c0-0.5-0.1-1-0.3-1.4c-0.2-0.5-0.4-0.8-0.7-1.2c-0.3-0.3-0.7-0.6-1.1-0.8
		s-0.9-0.3-1.3-0.3c-0.3,0-0.6,0.1-0.9,0.2c-0.3,0.1-0.6,0.3-0.9,0.5c-0.3,0.2-0.5,0.4-0.7,0.7s-0.3,0.6-0.4,0.9v2.8
		c0.1,0.3,0.3,0.6,0.5,0.9c0.2,0.3,0.5,0.5,0.7,0.7c0.3,0.2,0.6,0.4,0.9,0.5C-54.1,313.4-53.8,313.5-53.5,313.5z"/>
	<path class="st3" d="M-43.5,314.9c-1,0-1.8-0.3-2.4-1c-0.5-0.7-0.8-1.7-0.8-3.1v-5.9h1.7v5.6c0,2,0.7,3,2.1,3
		c0.7,0,1.3-0.2,1.9-0.7c0.6-0.4,1-1,1.3-1.8v-6.2h1.7v7.9c0,0.4,0.2,0.6,0.5,0.6v1.4c-0.2,0-0.3,0-0.4,0c-0.1,0-0.2,0-0.3,0
		c-0.3,0-0.6-0.1-0.8-0.3s-0.3-0.4-0.4-0.7l0-1.2c-0.4,0.7-1,1.3-1.7,1.7C-41.8,314.7-42.6,314.9-43.5,314.9z"/>
	<path class="st3" d="M-30.9,314.9c-0.7,0-1.4-0.1-2.1-0.4s-1.2-0.6-1.6-1.1s-0.8-1-1-1.6c-0.2-0.6-0.4-1.3-0.4-2s0.1-1.4,0.4-2
		c0.2-0.6,0.6-1.2,1-1.6c0.4-0.5,1-0.8,1.6-1.1s1.3-0.4,2.1-0.4s1.4,0.1,2,0.4s1.1,0.6,1.6,1.1c0.4,0.5,0.8,1,1,1.6s0.4,1.3,0.4,1.9
		c0,0.1,0,0.3,0,0.4c0,0.1,0,0.2,0,0.3h-8.2c0,0.5,0.2,0.9,0.3,1.3s0.4,0.8,0.7,1c0.3,0.3,0.6,0.5,1,0.7c0.4,0.2,0.8,0.2,1.2,0.2
		c0.3,0,0.6,0,0.9-0.1c0.3-0.1,0.6-0.2,0.8-0.3c0.3-0.1,0.5-0.3,0.7-0.5c0.2-0.2,0.3-0.4,0.4-0.7l1.4,0.4c-0.2,0.4-0.4,0.7-0.7,1
		c-0.3,0.3-0.6,0.6-1,0.8c-0.4,0.2-0.8,0.4-1.2,0.5S-30.4,314.9-30.9,314.9z M-27.5,309.1c0-0.5-0.2-0.9-0.4-1.3
		c-0.2-0.4-0.4-0.7-0.7-1c-0.3-0.3-0.6-0.5-1-0.7c-0.4-0.2-0.8-0.2-1.3-0.2s-0.9,0.1-1.3,0.2s-0.7,0.4-1,0.7c-0.3,0.3-0.5,0.6-0.7,1
		c-0.2,0.4-0.3,0.8-0.3,1.3H-27.5z"/>
	<path class="st3" d="M-20.7,314.9c-0.8,0-1.6-0.1-2.4-0.4c-0.8-0.2-1.4-0.6-2-1.1l0.7-1.1c0.6,0.4,1.2,0.8,1.7,1
		c0.6,0.2,1.2,0.3,1.8,0.3c0.7,0,1.3-0.1,1.7-0.4s0.6-0.7,0.6-1.2c0-0.2-0.1-0.4-0.2-0.6c-0.1-0.2-0.3-0.3-0.5-0.4
		c-0.2-0.1-0.5-0.2-0.9-0.3s-0.8-0.2-1.2-0.3c-0.6-0.2-1.1-0.3-1.5-0.4s-0.8-0.3-1.1-0.5c-0.3-0.2-0.5-0.4-0.6-0.7
		c-0.1-0.3-0.2-0.6-0.2-1c0-0.5,0.1-0.9,0.3-1.3c0.2-0.4,0.5-0.7,0.8-1c0.3-0.3,0.7-0.5,1.2-0.6s1-0.2,1.5-0.2
		c0.7,0,1.4,0.1,2.1,0.4c0.6,0.2,1.2,0.6,1.6,0.9l-0.8,1c-0.4-0.4-0.9-0.6-1.4-0.8c-0.5-0.2-1.1-0.3-1.6-0.3c-0.6,0-1.1,0.1-1.5,0.4
		c-0.4,0.3-0.6,0.7-0.6,1.2c0,0.2,0,0.4,0.1,0.6s0.2,0.3,0.4,0.4c0.2,0.1,0.4,0.2,0.7,0.3c0.3,0.1,0.7,0.2,1.1,0.3
		c0.7,0.2,1.2,0.3,1.7,0.5c0.5,0.2,0.9,0.3,1.2,0.6c0.3,0.2,0.6,0.5,0.7,0.8c0.2,0.3,0.2,0.6,0.2,1.1c0,0.9-0.4,1.7-1.1,2.2
		S-19.5,314.9-20.7,314.9z"/>
	<path class="st3" d="M-9.7,314.2c-0.1,0.1-0.2,0.1-0.4,0.2s-0.4,0.1-0.6,0.2s-0.4,0.1-0.7,0.2c-0.2,0-0.5,0.1-0.8,0.1
		c-0.6,0-1.1-0.2-1.6-0.5c-0.4-0.3-0.7-0.9-0.7-1.6v-6.7h-1.3v-1.3h1.3v-3.3h1.7v3.3h2.2v1.3h-2.2v6.2c0,0.4,0.1,0.6,0.4,0.8
		c0.2,0.2,0.5,0.2,0.8,0.2c0.3,0,0.6-0.1,0.9-0.2s0.5-0.2,0.6-0.3L-9.7,314.2z"/>
	<path class="st3" d="M-5.6,314.9c-0.5,0-0.9-0.1-1.3-0.2s-0.8-0.4-1.1-0.7c-0.3-0.3-0.5-0.6-0.7-1c-0.2-0.4-0.3-0.8-0.3-1.2
		c0-0.5,0.1-0.9,0.3-1.2c0.2-0.4,0.5-0.7,0.9-1c0.4-0.3,0.8-0.5,1.3-0.6c0.5-0.2,1.1-0.2,1.7-0.2c0.5,0,1,0,1.5,0.1s0.9,0.2,1.3,0.4
		v-0.8c0-0.8-0.2-1.4-0.7-1.9c-0.5-0.5-1.1-0.7-1.9-0.7c-1,0-2.1,0.4-3.2,1.2l-0.6-1.1c1.3-0.9,2.6-1.3,3.9-1.3c1.3,0,2.3,0.3,3,1
		c0.7,0.7,1.1,1.7,1.1,2.9v4c0,0.4,0.2,0.6,0.5,0.6v1.4c-0.2,0-0.3,0-0.4,0.1c-0.1,0-0.2,0-0.4,0c-0.3,0-0.6-0.1-0.8-0.3
		c-0.2-0.2-0.3-0.4-0.4-0.7l0-0.7c-0.4,0.6-1,1-1.7,1.4S-4.8,314.9-5.6,314.9z M-5.1,313.7c0.6,0,1.1-0.1,1.7-0.3s0.9-0.5,1.2-0.9
		c0.2-0.2,0.4-0.5,0.4-0.7v-1.5c-0.8-0.3-1.7-0.5-2.5-0.5c-0.8,0-1.5,0.2-2,0.5s-0.8,0.8-0.8,1.4c0,0.3,0.1,0.5,0.2,0.8
		c0.1,0.2,0.3,0.4,0.5,0.6s0.4,0.3,0.7,0.4C-5.7,313.6-5.5,313.7-5.1,313.7z"/>
</g>
</svg>
