<?xml version="1.0" encoding="utf-8"?>
<!-- Generator: Adobe Illustrator 19.1.0, SVG Export Plug-In . SVG Version: 6.00 Build 0)  -->
<svg version="1.1" id="Capa_1" xmlns="http://www.w3.org/2000/svg" xmlns:xlink="http://www.w3.org/1999/xlink" x="0px" y="0px"
	 viewBox="0 0 280.5 68.1" style="enable-background:new 0 0 280.5 68.1;" xml:space="preserve">
<style type="text/css">
	.st0{fill:#1558B9;}
	.st1{fill:#FF4A0F;}
	.st2{fill:#BF380B;}
	.st3{fill:#FFFFFF;}
	.st4{font-family:'Raleway-SemiBold';}
	.st5{font-size:48.8948px;}
</style>
<polygon class="st0" points="59.4,57.8 280.5,57.8 264.7,37.1 280.5,16.4 59.4,16.4 "/>
<g>
	<path class="st1" d="M34,48.8l6.7-4.1l-2.1-12l4-12.8L66.6,44c3.6-11.6,0.7-24.8-8.5-34C44.8-3.3,23.3-3.3,10,10
		C-3.3,23.3-3.3,44.8,10,58.1c8.6,8.6,20.8,11.7,31.9,9.1l-20-20L34,48.8z"/>
	<path class="st2" d="M66.6,44L42.6,20l-4,12.8l2.1,12L34,48.8l-12.2-1.6l20,20c6-1.4,11.6-4.4,16.3-9.1C62.2,54,65,49.2,66.6,44z"
		/>
</g>
<text transform="matrix(1 0 0 1 20.6284 44.7386)" class="st3 st4 st5">3</text>
</svg>
