<?xml version="1.0" encoding="utf-8"?>
<!-- Generator: Adobe Illustrator 19.1.0, SVG Export Plug-In . SVG Version: 6.00 Build 0)  -->
<svg version="1.1" id="Capa_1" xmlns="http://www.w3.org/2000/svg" xmlns:xlink="http://www.w3.org/1999/xlink" x="0px" y="0px"
	 viewBox="-486 545.8 304.3 68" style="enable-background:new -486 545.8 304.3 68;" xml:space="preserve">
<style type="text/css">
	.st0{fill:#1558B9;}
	.st1{fill:#FF4A0F;}
	.st2{fill:#BF380B;}
	.st3{fill:#FFFFFF;}
</style>
<polygon class="st0" points="-425.4,600.5 -181.7,600.5 -197.5,579.8 -181.7,559.2 -425.4,559.2 "/>
<g>
	<path class="st1" d="M-448.4,585.8l1.4-21.6l27.1,27.1c4.3-12,1.6-25.9-8-35.5c-13.3-13.3-34.8-13.3-48.1,0
		c-13.3,13.3-13.3,34.8,0,48.1c9.7,9.7,23.9,12.3,35.9,7.8l-19.4-19.4L-448.4,585.8z"/>
	<path class="st2" d="M-419.9,591.3l-27.1-27.1l-1.4,21.6l-11.1,6.5l19.5,19.5c4.4-1.7,8.6-4.3,12.2-7.8
		C-424.2,600.2-421.6,595.9-419.9,591.3z"/>
</g>
<g>
	<path class="st3" d="M-440.9,587.1v4.8h-18.7v-4.8h6.9v-17c-0.3,0.4-0.8,0.8-1.4,1.2c-0.6,0.4-1.3,0.8-2.1,1.2
		c-0.7,0.4-1.5,0.7-2.3,0.9c-0.8,0.2-1.5,0.4-2.1,0.4v-5c0.7,0,1.4-0.2,2.3-0.6c0.9-0.4,1.7-0.8,2.5-1.4c0.8-0.5,1.5-1,2.1-1.6
		c0.6-0.5,1-0.9,1.1-1.1h5.5v23.1L-440.9,587.1L-440.9,587.1z"/>
</g>
<g>
	<g>
		<path class="st3" d="M-404.5,571.4h1.7l-2.9,13.5h-1.7L-404.5,571.4z"/>
		<path class="st3" d="M-400.7,574.9h1.5l-0.5,2.1c0.5-0.7,1.2-1.3,2-1.7s1.6-0.6,2.4-0.6s1.4,0.2,1.7,0.6c0.3,0.4,0.5,1,0.5,1.7
			c0,0.3,0,0.6-0.1,0.9s-0.1,0.6-0.2,1l-1.3,5.9h-1.7l1.2-5.5c0.1-0.5,0.2-1,0.2-1.4c0-1.1-0.4-1.6-1.3-1.6c-0.3,0-0.6,0.1-1,0.2
			c-0.3,0.1-0.7,0.3-1,0.5s-0.6,0.5-0.9,0.8s-0.5,0.7-0.7,1l-1.3,6h-1.7L-400.7,574.9z"/>
		<path class="st3" d="M-389.9,576.2h-1.3l0.3-1.3h1.3v-0.2c0.2-1.2,0.7-2.2,1.4-2.9c0.7-0.7,1.5-1,2.4-1c0.4,0,0.7,0.1,1.1,0.2
			s0.6,0.3,0.9,0.4l-0.7,1.2c-0.1-0.1-0.3-0.2-0.6-0.3c-0.2-0.1-0.5-0.1-0.7-0.1c-0.5,0-1,0.2-1.3,0.6c-0.4,0.4-0.6,1-0.8,1.8
			l-0.1,0.3h2.5l-0.3,1.3h-2.5l-2.7,12.6h-1.7L-389.9,576.2z"/>
		<path class="st3" d="M-382.3,585c-0.6,0-1.1-0.1-1.6-0.3s-0.9-0.5-1.2-0.9c-0.3-0.4-0.6-0.8-0.7-1.3c-0.2-0.5-0.2-1-0.2-1.6
			c0-0.8,0.2-1.6,0.5-2.3s0.7-1.4,1.3-2c0.5-0.6,1.2-1,1.9-1.4c0.7-0.3,1.5-0.5,2.3-0.5c0.6,0,1.1,0.1,1.6,0.3s0.9,0.5,1.2,0.9
			s0.6,0.8,0.8,1.3s0.3,1,0.3,1.6c0,0.8-0.2,1.5-0.5,2.3c-0.3,0.7-0.8,1.4-1.3,2c-0.6,0.6-1.2,1-1.9,1.4S-381.4,585-382.3,585z
			 M-381.9,583.6c0.5,0,1-0.1,1.4-0.4c0.5-0.2,0.9-0.6,1.3-1s0.7-0.9,0.9-1.4c0.2-0.5,0.3-1.1,0.3-1.7c0-0.4-0.1-0.8-0.2-1.2
			s-0.3-0.7-0.5-0.9c-0.2-0.3-0.5-0.5-0.8-0.6c-0.3-0.2-0.6-0.2-1-0.2c-0.5,0-1,0.1-1.4,0.4c-0.5,0.2-0.9,0.6-1.3,1
			s-0.7,0.9-0.9,1.4c-0.2,0.5-0.3,1.1-0.3,1.7c0,0.4,0.1,0.8,0.2,1.2s0.3,0.7,0.5,0.9c0.2,0.3,0.5,0.5,0.8,0.6
			C-382.6,583.5-382.3,583.6-381.9,583.6z"/>
		<path class="st3" d="M-373.3,574.9h1.6l-0.5,2.3c0.5-0.7,1-1.2,1.6-1.7c0.6-0.4,1.2-0.6,1.8-0.6c0.1,0,0.2,0,0.3,0
			c0.1,0,0.1,0,0.2,0l-0.3,1.4c-0.8,0-1.5,0.2-2.2,0.6c-0.7,0.4-1.2,1-1.6,1.7l-1.3,6.1h-1.7L-373.3,574.9z"/>
		<path class="st3" d="M-366.9,574.9h1.5l-0.5,2.1c0.5-0.7,1.1-1.3,1.8-1.7c0.7-0.4,1.4-0.6,2.2-0.6c0.7,0,1.3,0.2,1.7,0.6
			c0.4,0.4,0.6,1,0.6,1.8c0.6-0.8,1.2-1.4,1.9-1.8c0.7-0.4,1.4-0.6,2.2-0.6c0.8,0,1.4,0.2,1.7,0.7c0.3,0.4,0.5,1,0.5,1.7
			c0,0.5-0.1,1.1-0.2,1.7l-1.3,5.9h-1.7l1.2-5.5c0.1-0.5,0.2-1,0.2-1.4c0-1.1-0.5-1.7-1.4-1.7c-0.3,0-0.6,0.1-0.9,0.2
			c-0.3,0.1-0.6,0.3-0.9,0.5s-0.6,0.5-0.8,0.8c-0.3,0.3-0.5,0.7-0.7,1.1l-1.3,6h-1.7l1.2-5.5c0.1-0.5,0.2-1,0.2-1.4
			c0-1.1-0.4-1.6-1.3-1.6c-0.6,0-1.3,0.2-1.9,0.7s-1.1,1.1-1.5,1.9l-1.3,6h-1.7L-366.9,574.9z"/>
		<path class="st3" d="M-348.4,585c-0.6,0-1.1-0.1-1.5-0.3s-0.8-0.5-1.1-0.9c-0.3-0.4-0.5-0.8-0.7-1.3s-0.2-1-0.2-1.6
			c0-0.8,0.2-1.6,0.5-2.3s0.7-1.4,1.2-2s1.1-1,1.7-1.4s1.4-0.5,2.1-0.5c0.8,0,1.4,0.2,1.9,0.6c0.5,0.4,0.9,0.9,1.1,1.5l0.4-2h1.7
			l-1.7,7.9c0,0.1,0,0.1,0,0.1v0.1c0,0.2,0.1,0.3,0.4,0.4l-0.3,1.4c-0.1,0-0.3,0-0.4,0.1c-0.1,0-0.2,0-0.3,0c-0.4,0-0.6-0.1-0.8-0.2
			c-0.2-0.2-0.3-0.4-0.3-0.6c0-0.2,0.1-0.6,0.2-1.1c-0.5,0.6-1.1,1.1-1.8,1.5C-347,584.9-347.7,585-348.4,585z M-347.7,583.6
			c0.3,0,0.6-0.1,0.9-0.2c0.3-0.1,0.6-0.3,0.9-0.5s0.6-0.4,0.8-0.7c0.3-0.3,0.4-0.6,0.6-0.9l0.6-2.9c0-0.3-0.1-0.6-0.3-0.9
			s-0.3-0.5-0.6-0.7c-0.2-0.2-0.5-0.4-0.7-0.5c-0.3-0.1-0.6-0.2-0.8-0.2c-0.5,0-1,0.1-1.5,0.4c-0.5,0.3-0.9,0.6-1.2,1
			c-0.4,0.4-0.6,0.9-0.9,1.4s-0.3,1.1-0.3,1.6c0,0.4,0.1,0.8,0.2,1.1c0.1,0.4,0.3,0.7,0.5,0.9c0.2,0.3,0.5,0.5,0.8,0.6
			C-348.4,583.5-348,583.6-347.7,583.6z"/>
		<path class="st3" d="M-336.7,585c-0.6,0-1.1-0.1-1.6-0.3s-0.9-0.5-1.2-0.9c-0.3-0.4-0.6-0.8-0.8-1.3c-0.2-0.5-0.3-1-0.3-1.6
			c0-0.8,0.2-1.6,0.5-2.3s0.7-1.4,1.3-1.9c0.5-0.6,1.2-1,1.9-1.3c0.7-0.3,1.5-0.5,2.4-0.5c1,0,1.7,0.2,2.3,0.7c0.6,0.4,1,1,1.2,1.8
			l-1.7,0.5c-0.1-0.5-0.4-0.8-0.8-1.1s-0.8-0.4-1.3-0.4s-1,0.1-1.5,0.4c-0.5,0.2-0.9,0.6-1.3,1s-0.7,0.9-0.9,1.4s-0.3,1.1-0.3,1.7
			c0,0.4,0.1,0.8,0.2,1.2s0.3,0.7,0.5,0.9c0.2,0.3,0.5,0.5,0.8,0.6c0.3,0.2,0.6,0.2,1,0.2c0.3,0,0.5,0,0.8-0.1s0.6-0.2,0.8-0.3
			s0.5-0.3,0.7-0.5s0.4-0.4,0.5-0.6l1.5,0.5c-0.2,0.4-0.5,0.7-0.8,1s-0.7,0.6-1.1,0.8s-0.8,0.4-1.3,0.5S-336.2,585-336.7,585z"/>
		<path class="st3" d="M-328.7,574.9h1.7l-2.1,9.9h-1.7L-328.7,574.9z M-327.9,571h1.7l-0.4,2.1h-1.7L-327.9,571z"/>
		<path class="st3" d="M-322.5,585c-0.6,0-1.1-0.1-1.6-0.3s-0.9-0.5-1.2-0.9c-0.3-0.4-0.6-0.8-0.7-1.3c-0.2-0.5-0.2-1-0.2-1.6
			c0-0.8,0.2-1.6,0.5-2.3s0.7-1.4,1.3-2c0.5-0.6,1.2-1,1.9-1.4c0.7-0.3,1.5-0.5,2.3-0.5c0.6,0,1.1,0.1,1.6,0.3s0.9,0.5,1.2,0.9
			s0.6,0.8,0.8,1.3s0.3,1,0.3,1.6c0,0.8-0.2,1.5-0.5,2.3c-0.3,0.7-0.8,1.4-1.3,2c-0.6,0.6-1.2,1-1.9,1.4S-321.6,585-322.5,585z
			 M-322.1,583.6c0.5,0,1-0.1,1.4-0.4c0.5-0.2,0.9-0.6,1.3-1s0.7-0.9,0.9-1.4c0.2-0.5,0.3-1.1,0.3-1.7c0-0.4-0.1-0.8-0.2-1.2
			s-0.3-0.7-0.5-0.9c-0.2-0.3-0.5-0.5-0.8-0.6c-0.3-0.2-0.6-0.2-1-0.2c-0.5,0-1,0.1-1.4,0.4c-0.5,0.2-0.9,0.6-1.3,1
			s-0.7,0.9-0.9,1.4c-0.2,0.5-0.3,1.1-0.3,1.7c0,0.4,0.1,0.8,0.2,1.2s0.3,0.7,0.5,0.9c0.2,0.3,0.5,0.5,0.8,0.6
			C-322.8,583.5-322.5,583.6-322.1,583.6z M-320.1,573.3l-1-0.4l1.4-1.9h1.7L-320.1,573.3z"/>
		<path class="st3" d="M-313.5,574.9h1.5l-0.5,2.1c0.5-0.7,1.2-1.3,2-1.7s1.6-0.6,2.4-0.6s1.4,0.2,1.7,0.6c0.3,0.4,0.5,1,0.5,1.7
			c0,0.3,0,0.6-0.1,0.9s-0.1,0.6-0.2,1l-1.3,5.9h-1.7l1.2-5.5c0.1-0.5,0.2-1,0.2-1.4c0-1.1-0.4-1.6-1.3-1.6c-0.3,0-0.6,0.1-1,0.2
			c-0.3,0.1-0.7,0.3-1,0.5s-0.6,0.5-0.9,0.8s-0.5,0.7-0.7,1l-1.3,6h-1.7L-313.5,574.9z"/>
		<path class="st3" d="M-295.9,585c-0.6,0-1.2-0.1-1.7-0.3s-0.9-0.5-1.2-0.9c-0.3-0.4-0.6-0.8-0.8-1.3c-0.2-0.5-0.3-1.1-0.3-1.6
			c0-0.8,0.2-1.6,0.5-2.3s0.7-1.4,1.3-1.9c0.5-0.6,1.2-1,1.9-1.3c0.7-0.3,1.5-0.5,2.4-0.5c1,0,1.8,0.2,2.4,0.7
			c0.6,0.4,0.9,1.1,0.9,2c0,1-0.4,1.8-1.3,2.3s-2.2,0.8-4.1,0.8c-0.3,0-0.6,0-1,0s-0.8,0-1.2-0.1c0,0.1,0,0.2,0,0.2s0,0.1,0,0.2
			c0,0.4,0.1,0.8,0.2,1.1c0.1,0.4,0.3,0.7,0.5,0.9s0.5,0.5,0.8,0.6c0.3,0.2,0.7,0.2,1.1,0.2c0.6,0,1.2-0.1,1.7-0.4
			c0.6-0.3,1-0.7,1.3-1.2l1.3,0.4c-0.2,0.4-0.5,0.7-0.9,1c-0.3,0.3-0.7,0.6-1.1,0.8s-0.8,0.4-1.3,0.5S-295.5,585-295.9,585z
			 M-294,576c-0.5,0-1,0.1-1.5,0.3s-0.8,0.4-1.1,0.7c-0.3,0.3-0.6,0.6-0.8,1c-0.2,0.4-0.4,0.8-0.5,1.2c0.4,0,0.7,0.1,1.1,0.1
			c0.3,0,0.6,0,0.9,0c0.7,0,1.3,0,1.8-0.1s0.9-0.2,1.2-0.4c0.3-0.2,0.5-0.4,0.7-0.6c0.1-0.2,0.2-0.5,0.2-0.8c0-0.5-0.2-0.8-0.5-1.1
			C-292.9,576.1-293.4,576-294,576z"/>
		<path class="st3" d="M-287.8,574.9h1.5l-0.5,2.1c0.5-0.7,1.2-1.3,2-1.7s1.6-0.6,2.4-0.6s1.4,0.2,1.7,0.6c0.3,0.4,0.5,1,0.5,1.7
			c0,0.3,0,0.6-0.1,0.9s-0.1,0.6-0.2,1l-1.3,5.9h-1.7l1.2-5.5c0.1-0.5,0.2-1,0.2-1.4c0-1.1-0.4-1.6-1.3-1.6c-0.3,0-0.6,0.1-1,0.2
			c-0.3,0.1-0.7,0.3-1,0.5s-0.6,0.5-0.9,0.8s-0.5,0.7-0.7,1l-1.3,6h-1.7L-287.8,574.9z"/>
		<path class="st3" d="M-275.1,585c-0.6,0-1.1-0.1-1.6-0.3s-0.9-0.5-1.2-0.9c-0.3-0.4-0.6-0.8-0.8-1.3c-0.2-0.5-0.3-1-0.3-1.6
			c0-0.8,0.2-1.6,0.5-2.3s0.7-1.4,1.3-1.9c0.5-0.6,1.2-1,1.9-1.3c0.7-0.3,1.5-0.5,2.4-0.5c1,0,1.7,0.2,2.3,0.7c0.6,0.4,1,1,1.2,1.8
			l-1.7,0.5c-0.1-0.5-0.4-0.8-0.8-1.1s-0.8-0.4-1.3-0.4s-1,0.1-1.5,0.4c-0.5,0.2-0.9,0.6-1.3,1s-0.7,0.9-0.9,1.4s-0.3,1.1-0.3,1.7
			c0,0.4,0.1,0.8,0.2,1.2s0.3,0.7,0.5,0.9c0.2,0.3,0.5,0.5,0.8,0.6c0.3,0.2,0.6,0.2,1,0.2c0.3,0,0.5,0,0.8-0.1s0.6-0.2,0.8-0.3
			s0.5-0.3,0.7-0.5s0.4-0.4,0.5-0.6l1.5,0.5c-0.2,0.4-0.5,0.7-0.8,1s-0.7,0.6-1.1,0.8s-0.8,0.4-1.3,0.5S-274.6,585-275.1,585z"/>
		<path class="st3" d="M-266.4,585c-1.5,0-2.3-0.8-2.3-2.5c0-0.4,0.1-1,0.2-1.7l1.3-5.9h1.7l-1.2,5.6c-0.1,0.5-0.2,1-0.2,1.3
			c0,1.2,0.5,1.7,1.5,1.7c0.6,0,1.3-0.2,1.9-0.7c0.7-0.4,1.2-1,1.6-1.8l1.3-6.2h1.7l-1.7,7.9c0,0.1,0,0.1,0,0.1v0.1
			c0,0.2,0.1,0.3,0.4,0.4l-0.3,1.4c-0.1,0-0.3,0-0.4,0.1s-0.2,0-0.3,0c-0.3,0-0.6-0.1-0.8-0.2c-0.2-0.2-0.3-0.4-0.3-0.6
			c0-0.1,0-0.3,0-0.5s0.1-0.5,0.2-0.9c-0.6,0.7-1.2,1.3-2,1.7C-264.8,584.8-265.6,585-266.4,585z"/>
		<path class="st3" d="M-254.2,585c-0.6,0-1.2-0.1-1.7-0.3c-0.5-0.2-0.9-0.5-1.2-0.9c-0.3-0.4-0.6-0.8-0.8-1.3
			c-0.2-0.5-0.3-1.1-0.3-1.6c0-0.8,0.2-1.6,0.5-2.3s0.7-1.4,1.3-1.9c0.5-0.6,1.2-1,1.9-1.3s1.5-0.5,2.4-0.5c1,0,1.8,0.2,2.4,0.7
			c0.6,0.4,0.9,1.1,0.9,2c0,1-0.4,1.8-1.3,2.3c-0.9,0.5-2.2,0.8-4.1,0.8c-0.3,0-0.6,0-1,0s-0.8,0-1.2-0.1c0,0.1,0,0.2,0,0.2
			s0,0.1,0,0.2c0,0.4,0.1,0.8,0.2,1.1c0.1,0.4,0.3,0.7,0.5,0.9s0.5,0.5,0.8,0.6c0.3,0.2,0.7,0.2,1.1,0.2c0.6,0,1.2-0.1,1.7-0.4
			c0.6-0.3,1-0.7,1.3-1.2l1.3,0.4c-0.2,0.4-0.5,0.7-0.9,1c-0.3,0.3-0.7,0.6-1.1,0.8c-0.4,0.2-0.8,0.4-1.3,0.5S-253.7,585-254.2,585z
			 M-252.2,576c-0.5,0-1,0.1-1.5,0.3s-0.8,0.4-1.1,0.7s-0.6,0.6-0.8,1s-0.4,0.8-0.5,1.2c0.4,0,0.7,0.1,1.1,0.1c0.3,0,0.6,0,0.9,0
			c0.7,0,1.3,0,1.8-0.1s0.9-0.2,1.2-0.4s0.5-0.4,0.7-0.6c0.1-0.2,0.2-0.5,0.2-0.8c0-0.5-0.2-0.8-0.5-1.1
			C-251.1,576.1-251.6,576-252.2,576z"/>
		<path class="st3" d="M-246,574.9h1.5l-0.5,2.1c0.5-0.7,1.2-1.3,2-1.7s1.6-0.6,2.4-0.6c0.8,0,1.4,0.2,1.7,0.6
			c0.3,0.4,0.5,1,0.5,1.7c0,0.3,0,0.6-0.1,0.9s-0.1,0.6-0.2,1l-1.3,5.9h-1.7l1.2-5.5c0.1-0.5,0.2-1,0.2-1.4c0-1.1-0.4-1.6-1.3-1.6
			c-0.3,0-0.6,0.1-1,0.2c-0.3,0.1-0.7,0.3-1,0.5s-0.6,0.5-0.9,0.8c-0.3,0.3-0.5,0.7-0.7,1l-1.3,6h-1.7L-246,574.9z"/>
		<path class="st3" d="M-235,585c-0.5,0-0.9-0.1-1.3-0.4c-0.3-0.2-0.5-0.6-0.5-1.2c0-0.2,0-0.4,0.1-0.6l1.4-6.7h-1.3l0.3-1.3h1.3
			l0.7-3.3h1.7l-0.7,3.3h2.1l-0.3,1.3h-2.1l-1.3,6.2c0,0.1,0,0.2,0,0.3c0,0.3,0.1,0.5,0.2,0.6c0.2,0.1,0.4,0.2,0.6,0.2
			c0.3,0,0.6-0.1,0.9-0.2s0.5-0.2,0.6-0.3l0.1,1.3c-0.2,0.2-0.6,0.3-1,0.4C-234,584.9-234.5,585-235,585z"/>
		<path class="st3" d="M-229.2,574.9h1.6l-0.5,2.3c0.5-0.7,1-1.2,1.6-1.7c0.6-0.4,1.2-0.6,1.8-0.6c0.1,0,0.2,0,0.3,0s0.1,0,0.2,0
			l-0.3,1.4c-0.8,0-1.5,0.2-2.2,0.6c-0.7,0.4-1.2,1-1.6,1.7l-1.3,6.1h-1.7L-229.2,574.9z"/>
		<path class="st3" d="M-220.9,585c-0.6,0-1.1-0.1-1.6-0.3s-0.9-0.5-1.2-0.9s-0.6-0.8-0.7-1.3c-0.2-0.5-0.2-1-0.2-1.6
			c0-0.8,0.2-1.6,0.5-2.3s0.7-1.4,1.3-2c0.5-0.6,1.2-1,1.9-1.4c0.7-0.3,1.5-0.5,2.3-0.5c0.6,0,1.1,0.1,1.6,0.3s0.9,0.5,1.2,0.9
			s0.6,0.8,0.8,1.3s0.3,1,0.3,1.6c0,0.8-0.2,1.5-0.5,2.3c-0.3,0.7-0.8,1.4-1.3,2c-0.6,0.6-1.2,1-1.9,1.4S-220.1,585-220.9,585z
			 M-220.6,583.6c0.5,0,1-0.1,1.4-0.4c0.5-0.2,0.9-0.6,1.3-1c0.4-0.4,0.7-0.9,0.9-1.4s0.3-1.1,0.3-1.7c0-0.4-0.1-0.8-0.2-1.2
			c-0.1-0.4-0.3-0.7-0.5-0.9c-0.2-0.3-0.5-0.5-0.8-0.6c-0.3-0.2-0.6-0.2-1-0.2c-0.5,0-1,0.1-1.4,0.4c-0.5,0.2-0.9,0.6-1.3,1
			c-0.4,0.4-0.7,0.9-0.9,1.4s-0.3,1.1-0.3,1.7c0,0.4,0.1,0.8,0.2,1.2c0.1,0.4,0.3,0.7,0.5,0.9c0.2,0.3,0.5,0.5,0.8,0.6
			C-221.3,583.5-220.9,583.6-220.6,583.6z"/>
	</g>
</g>
</svg>
