<?xml version="1.0" encoding="utf-8"?>
<!-- Generator: Adobe Illustrator 19.1.0, SVG Export Plug-In . SVG Version: 6.00 Build 0)  -->
<svg version="1.1" id="Capa_1" xmlns="http://www.w3.org/2000/svg" xmlns:xlink="http://www.w3.org/1999/xlink" x="0px" y="0px"
	 viewBox="-729 818.8 304.3 68" style="enable-background:new -729 818.8 304.3 68;" xml:space="preserve">
<style type="text/css">
	.st0{fill:#CCCDCD;}
	.st1{fill:#89AA35;}
	.st2{fill:#678028;}
	.st3{fill:#FFFFFF;}
</style>
<polygon class="st0" points="-668.4,873.5 -424.7,873.5 -440.5,852.8 -424.7,832.2 -668.4,832.2 "/>
<g>
	<path class="st1" d="M-691.4,858.8l1.4-21.6l27.1,27.1c4.3-12,1.6-25.9-8-35.5c-13.3-13.3-34.8-13.3-48.1,0
		c-13.3,13.3-13.3,34.8,0,48.1c9.7,9.7,23.9,12.3,35.9,7.8l-19.4-19.4L-691.4,858.8z"/>
	<path class="st2" d="M-662.9,864.3l-27.1-27.1l-1.4,21.6l-11.1,6.5l19.5,19.5c4.4-1.7,8.6-4.3,12.2-7.8
		C-667.2,873.2-664.6,868.9-662.9,864.3z"/>
</g>
<g>
	<path class="st3" d="M-683.9,860.1v4.8h-18.7v-4.8h6.9v-17c-0.3,0.4-0.8,0.8-1.4,1.2c-0.6,0.4-1.3,0.8-2.1,1.2
		c-0.7,0.4-1.5,0.7-2.3,0.9s-1.5,0.4-2.1,0.4v-5c0.7,0,1.4-0.2,2.3-0.6c0.9-0.4,1.7-0.8,2.5-1.4c0.8-0.5,1.5-1,2.1-1.6
		c0.6-0.5,1-0.9,1.1-1.1h5.5v23.1L-683.9,860.1L-683.9,860.1z"/>
</g>
<g>
	<g>
		<path class="st3" d="M-647.5,844.4h1.7l-2.9,13.5h-1.7L-647.5,844.4z"/>
		<path class="st3" d="M-643.7,847.9h1.5l-0.5,2.1c0.5-0.7,1.2-1.3,2-1.7s1.6-0.6,2.4-0.6s1.4,0.2,1.7,0.6c0.3,0.4,0.5,1,0.5,1.7
			c0,0.3,0,0.6-0.1,0.9c-0.1,0.3-0.1,0.6-0.2,1l-1.3,5.9h-1.7l1.2-5.5c0.1-0.5,0.2-1,0.2-1.4c0-1.1-0.4-1.6-1.3-1.6
			c-0.3,0-0.6,0.1-1,0.2c-0.3,0.1-0.7,0.3-1,0.5s-0.6,0.5-0.9,0.8s-0.5,0.7-0.7,1l-1.3,6h-1.7L-643.7,847.9z"/>
		<path class="st3" d="M-632.9,849.2h-1.3l0.3-1.3h1.3v-0.2c0.2-1.2,0.7-2.2,1.4-2.9c0.7-0.7,1.5-1,2.4-1c0.4,0,0.7,0.1,1.1,0.2
			c0.4,0.1,0.6,0.3,0.9,0.4l-0.7,1.2c-0.1-0.1-0.3-0.2-0.6-0.3c-0.2-0.1-0.5-0.1-0.7-0.1c-0.5,0-1,0.2-1.3,0.6
			c-0.4,0.4-0.6,1-0.8,1.8l-0.1,0.3h2.5l-0.3,1.3h-2.5l-2.7,12.6h-1.7L-632.9,849.2z"/>
		<path class="st3" d="M-625.3,858c-0.6,0-1.1-0.1-1.6-0.3s-0.9-0.5-1.2-0.9s-0.6-0.8-0.7-1.3c-0.2-0.5-0.2-1-0.2-1.6
			c0-0.8,0.2-1.6,0.5-2.3s0.7-1.4,1.3-2c0.5-0.6,1.2-1,1.9-1.4c0.7-0.3,1.5-0.5,2.3-0.5c0.6,0,1.1,0.1,1.6,0.3s0.9,0.5,1.2,0.9
			c0.3,0.4,0.6,0.8,0.8,1.3c0.2,0.5,0.3,1,0.3,1.6c0,0.8-0.2,1.5-0.5,2.3c-0.3,0.7-0.8,1.4-1.3,2c-0.6,0.6-1.2,1-1.9,1.4
			C-623.5,857.9-624.4,858-625.3,858z M-624.9,856.6c0.5,0,1-0.1,1.4-0.4c0.5-0.2,0.9-0.6,1.3-1c0.4-0.4,0.7-0.9,0.9-1.4
			s0.3-1.1,0.3-1.7c0-0.4-0.1-0.8-0.2-1.2c-0.1-0.4-0.3-0.7-0.5-0.9c-0.2-0.3-0.5-0.5-0.8-0.6c-0.3-0.2-0.6-0.2-1-0.2
			c-0.5,0-1,0.1-1.4,0.4c-0.5,0.2-0.9,0.6-1.3,1c-0.4,0.4-0.7,0.9-0.9,1.4c-0.2,0.5-0.3,1.1-0.3,1.7c0,0.4,0.1,0.8,0.2,1.2
			c0.1,0.4,0.3,0.7,0.5,0.9c0.2,0.3,0.5,0.5,0.8,0.6C-625.6,856.5-625.3,856.6-624.9,856.6z"/>
		<path class="st3" d="M-616.3,847.9h1.6l-0.5,2.3c0.5-0.7,1-1.2,1.6-1.7c0.6-0.4,1.2-0.6,1.8-0.6c0.1,0,0.2,0,0.3,0
			c0.1,0,0.1,0,0.2,0l-0.3,1.4c-0.8,0-1.5,0.2-2.2,0.6c-0.7,0.4-1.2,1-1.6,1.7l-1.3,6.1h-1.7L-616.3,847.9z"/>
		<path class="st3" d="M-609.9,847.9h1.5l-0.5,2.1c0.5-0.7,1.1-1.3,1.8-1.7s1.4-0.6,2.2-0.6c0.7,0,1.3,0.2,1.7,0.6
			c0.4,0.4,0.6,1,0.6,1.8c0.6-0.8,1.2-1.4,1.9-1.8c0.7-0.4,1.4-0.6,2.2-0.6c0.8,0,1.4,0.2,1.7,0.7c0.3,0.4,0.5,1,0.5,1.7
			c0,0.5-0.1,1.1-0.2,1.7l-1.3,5.9h-1.7l1.2-5.5c0.1-0.5,0.2-1,0.2-1.4c0-1.1-0.5-1.7-1.4-1.7c-0.3,0-0.6,0.1-0.9,0.2
			c-0.3,0.1-0.6,0.3-0.9,0.5s-0.6,0.5-0.8,0.8c-0.3,0.3-0.5,0.7-0.7,1.1l-1.3,6h-1.7l1.2-5.5c0.1-0.5,0.2-1,0.2-1.4
			c0-1.1-0.4-1.6-1.3-1.6c-0.6,0-1.3,0.2-1.9,0.7c-0.6,0.5-1.1,1.1-1.5,1.9l-1.3,6h-1.7L-609.9,847.9z"/>
		<path class="st3" d="M-591.4,858c-0.6,0-1.1-0.1-1.5-0.3c-0.4-0.2-0.8-0.5-1.1-0.9c-0.3-0.4-0.5-0.8-0.7-1.3s-0.2-1-0.2-1.6
			c0-0.8,0.2-1.6,0.5-2.3s0.7-1.4,1.2-2s1.1-1,1.7-1.4c0.6-0.4,1.4-0.5,2.1-0.5c0.8,0,1.4,0.2,1.9,0.6c0.5,0.4,0.9,0.9,1.1,1.5
			l0.4-2h1.7l-1.7,7.9c0,0.1,0,0.1,0,0.1v0.1c0,0.2,0.1,0.3,0.4,0.4l-0.3,1.4c-0.1,0-0.3,0-0.4,0.1c-0.1,0-0.2,0-0.3,0
			c-0.4,0-0.6-0.1-0.8-0.2c-0.2-0.2-0.3-0.4-0.3-0.6c0-0.2,0.1-0.6,0.2-1.1c-0.5,0.6-1.1,1.1-1.8,1.5
			C-590,857.9-590.7,858-591.4,858z M-590.7,856.6c0.3,0,0.6-0.1,0.9-0.2c0.3-0.1,0.6-0.3,0.9-0.5s0.6-0.4,0.8-0.7
			c0.3-0.3,0.4-0.6,0.6-0.9l0.6-2.9c0-0.3-0.1-0.6-0.3-0.9c-0.2-0.3-0.3-0.5-0.6-0.7c-0.2-0.2-0.5-0.4-0.7-0.5
			c-0.3-0.1-0.6-0.2-0.8-0.2c-0.5,0-1,0.1-1.5,0.4c-0.5,0.3-0.9,0.6-1.2,1c-0.4,0.4-0.6,0.9-0.9,1.4s-0.3,1.1-0.3,1.6
			c0,0.4,0.1,0.8,0.2,1.1c0.1,0.4,0.3,0.7,0.5,0.9c0.2,0.3,0.5,0.5,0.8,0.6C-591.4,856.5-591,856.6-590.7,856.6z"/>
		<path class="st3" d="M-579.7,858c-0.6,0-1.1-0.1-1.6-0.3s-0.9-0.5-1.2-0.9s-0.6-0.8-0.8-1.3c-0.2-0.5-0.3-1-0.3-1.6
			c0-0.8,0.2-1.6,0.5-2.3s0.7-1.4,1.3-1.9c0.5-0.6,1.2-1,1.9-1.3c0.7-0.3,1.5-0.5,2.4-0.5c1,0,1.7,0.2,2.3,0.7c0.6,0.4,1,1,1.2,1.8
			l-1.7,0.5c-0.1-0.5-0.4-0.8-0.8-1.1c-0.4-0.3-0.8-0.4-1.3-0.4s-1,0.1-1.5,0.4c-0.5,0.2-0.9,0.6-1.3,1c-0.4,0.4-0.7,0.9-0.9,1.4
			c-0.2,0.5-0.3,1.1-0.3,1.7c0,0.4,0.1,0.8,0.2,1.2c0.1,0.4,0.3,0.7,0.5,0.9c0.2,0.3,0.5,0.5,0.8,0.6c0.3,0.2,0.6,0.2,1,0.2
			c0.3,0,0.5,0,0.8-0.1s0.6-0.2,0.8-0.3c0.2-0.1,0.5-0.3,0.7-0.5s0.4-0.4,0.5-0.6l1.5,0.5c-0.2,0.4-0.5,0.7-0.8,1s-0.7,0.6-1.1,0.8
			c-0.4,0.2-0.8,0.4-1.3,0.5S-579.2,858-579.7,858z"/>
		<path class="st3" d="M-571.7,847.9h1.7l-2.1,9.9h-1.7L-571.7,847.9z M-570.9,844h1.7l-0.4,2.1h-1.7L-570.9,844z"/>
		<path class="st3" d="M-565.5,858c-0.6,0-1.1-0.1-1.6-0.3s-0.9-0.5-1.2-0.9s-0.6-0.8-0.7-1.3c-0.2-0.5-0.2-1-0.2-1.6
			c0-0.8,0.2-1.6,0.5-2.3s0.7-1.4,1.3-2c0.5-0.6,1.2-1,1.9-1.4c0.7-0.3,1.5-0.5,2.3-0.5c0.6,0,1.1,0.1,1.6,0.3s0.9,0.5,1.2,0.9
			c0.3,0.4,0.6,0.8,0.8,1.3c0.2,0.5,0.3,1,0.3,1.6c0,0.8-0.2,1.5-0.5,2.3c-0.3,0.7-0.8,1.4-1.3,2c-0.6,0.6-1.2,1-1.9,1.4
			C-563.7,857.9-564.6,858-565.5,858z M-565.1,856.6c0.5,0,1-0.1,1.4-0.4c0.5-0.2,0.9-0.6,1.3-1c0.4-0.4,0.7-0.9,0.9-1.4
			s0.3-1.1,0.3-1.7c0-0.4-0.1-0.8-0.2-1.2c-0.1-0.4-0.3-0.7-0.5-0.9c-0.2-0.3-0.5-0.5-0.8-0.6c-0.3-0.2-0.6-0.2-1-0.2
			c-0.5,0-1,0.1-1.4,0.4c-0.5,0.2-0.9,0.6-1.3,1c-0.4,0.4-0.7,0.9-0.9,1.4c-0.2,0.5-0.3,1.1-0.3,1.7c0,0.4,0.1,0.8,0.2,1.2
			c0.1,0.4,0.3,0.7,0.5,0.9c0.2,0.3,0.5,0.5,0.8,0.6C-565.8,856.5-565.5,856.6-565.1,856.6z M-563.1,846.3l-1-0.4l1.4-1.9h1.7
			L-563.1,846.3z"/>
		<path class="st3" d="M-556.5,847.9h1.5l-0.5,2.1c0.5-0.7,1.2-1.3,2-1.7s1.6-0.6,2.4-0.6s1.4,0.2,1.7,0.6c0.3,0.4,0.5,1,0.5,1.7
			c0,0.3,0,0.6-0.1,0.9c-0.1,0.3-0.1,0.6-0.2,1l-1.3,5.9h-1.7l1.2-5.5c0.1-0.5,0.2-1,0.2-1.4c0-1.1-0.4-1.6-1.3-1.6
			c-0.3,0-0.6,0.1-1,0.2c-0.3,0.1-0.7,0.3-1,0.5s-0.6,0.5-0.9,0.8s-0.5,0.7-0.7,1l-1.3,6h-1.7L-556.5,847.9z"/>
		<path class="st3" d="M-538.9,858c-0.6,0-1.2-0.1-1.7-0.3s-0.9-0.5-1.2-0.9s-0.6-0.8-0.8-1.3c-0.2-0.5-0.3-1.1-0.3-1.6
			c0-0.8,0.2-1.6,0.5-2.3s0.7-1.4,1.3-1.9c0.5-0.6,1.2-1,1.9-1.3c0.7-0.3,1.5-0.5,2.4-0.5c1,0,1.8,0.2,2.4,0.7
			c0.6,0.4,0.9,1.1,0.9,2c0,1-0.4,1.8-1.3,2.3c-0.9,0.5-2.2,0.8-4.1,0.8c-0.3,0-0.6,0-1,0c-0.4,0-0.8,0-1.2-0.1c0,0.1,0,0.2,0,0.2
			s0,0.1,0,0.2c0,0.4,0.1,0.8,0.2,1.1c0.1,0.4,0.3,0.7,0.5,0.9s0.5,0.5,0.8,0.6c0.3,0.2,0.7,0.2,1.1,0.2c0.6,0,1.2-0.1,1.7-0.4
			c0.6-0.3,1-0.7,1.3-1.2l1.3,0.4c-0.2,0.4-0.5,0.7-0.9,1c-0.3,0.3-0.7,0.6-1.1,0.8c-0.4,0.2-0.8,0.4-1.3,0.5S-538.5,858-538.9,858z
			 M-537,849c-0.5,0-1,0.1-1.5,0.3s-0.8,0.4-1.1,0.7s-0.6,0.6-0.8,1c-0.2,0.4-0.4,0.8-0.5,1.2c0.4,0,0.7,0.1,1.1,0.1
			c0.3,0,0.6,0,0.9,0c0.7,0,1.3,0,1.8-0.1s0.9-0.2,1.2-0.4c0.3-0.2,0.5-0.4,0.7-0.6c0.1-0.2,0.2-0.5,0.2-0.8c0-0.5-0.2-0.8-0.5-1.1
			C-535.9,849.1-536.4,849-537,849z"/>
		<path class="st3" d="M-530.8,847.9h1.5l-0.5,2.1c0.5-0.7,1.2-1.3,2-1.7s1.6-0.6,2.4-0.6s1.4,0.2,1.7,0.6c0.3,0.4,0.5,1,0.5,1.7
			c0,0.3,0,0.6-0.1,0.9c-0.1,0.3-0.1,0.6-0.2,1l-1.3,5.9h-1.7l1.2-5.5c0.1-0.5,0.2-1,0.2-1.4c0-1.1-0.4-1.6-1.3-1.6
			c-0.3,0-0.6,0.1-1,0.2c-0.3,0.1-0.7,0.3-1,0.5s-0.6,0.5-0.9,0.8s-0.5,0.7-0.7,1l-1.3,6h-1.7L-530.8,847.9z"/>
		<path class="st3" d="M-518.1,858c-0.6,0-1.1-0.1-1.6-0.3s-0.9-0.5-1.2-0.9c-0.3-0.4-0.6-0.8-0.8-1.3s-0.3-1-0.3-1.6
			c0-0.8,0.2-1.6,0.5-2.3s0.7-1.4,1.3-1.9c0.5-0.6,1.2-1,1.9-1.3s1.5-0.5,2.4-0.5c1,0,1.7,0.2,2.3,0.7c0.6,0.4,1,1,1.2,1.8l-1.7,0.5
			c-0.1-0.5-0.4-0.8-0.8-1.1c-0.4-0.3-0.8-0.4-1.3-0.4s-1,0.1-1.5,0.4c-0.5,0.2-0.9,0.6-1.3,1c-0.4,0.4-0.7,0.9-0.9,1.4
			c-0.2,0.5-0.3,1.1-0.3,1.7c0,0.4,0.1,0.8,0.2,1.2c0.1,0.4,0.3,0.7,0.5,0.9c0.2,0.3,0.5,0.5,0.8,0.6c0.3,0.2,0.6,0.2,1,0.2
			c0.3,0,0.5,0,0.8-0.1s0.6-0.2,0.8-0.3c0.2-0.1,0.5-0.3,0.7-0.5s0.4-0.4,0.5-0.6l1.5,0.5c-0.2,0.4-0.5,0.7-0.8,1s-0.7,0.6-1.1,0.8
			c-0.4,0.2-0.8,0.4-1.3,0.5S-517.6,858-518.1,858z"/>
		<path class="st3" d="M-509.4,858c-1.5,0-2.3-0.8-2.3-2.5c0-0.4,0.1-1,0.2-1.7l1.3-5.9h1.7l-1.2,5.6c-0.1,0.5-0.2,1-0.2,1.3
			c0,1.2,0.5,1.7,1.5,1.7c0.6,0,1.3-0.2,1.9-0.7c0.7-0.4,1.2-1,1.6-1.8l1.3-6.2h1.7l-1.7,7.9c0,0.1,0,0.1,0,0.1v0.1
			c0,0.2,0.1,0.3,0.4,0.4l-0.3,1.4c-0.1,0-0.3,0-0.4,0.1c-0.1,0.1-0.2,0-0.3,0c-0.3,0-0.6-0.1-0.8-0.2c-0.2-0.2-0.3-0.4-0.3-0.6
			c0-0.1,0-0.3,0-0.5s0.1-0.5,0.2-0.9c-0.6,0.7-1.2,1.3-2,1.7C-507.8,857.8-508.6,858-509.4,858z"/>
		<path class="st3" d="M-497.2,858c-0.6,0-1.2-0.1-1.7-0.3s-0.9-0.5-1.2-0.9s-0.6-0.8-0.8-1.3c-0.2-0.5-0.3-1.1-0.3-1.6
			c0-0.8,0.2-1.6,0.5-2.3s0.7-1.4,1.3-1.9c0.5-0.6,1.2-1,1.9-1.3c0.7-0.3,1.5-0.5,2.4-0.5c1,0,1.8,0.2,2.4,0.7
			c0.6,0.4,0.9,1.1,0.9,2c0,1-0.4,1.8-1.3,2.3s-2.2,0.8-4.1,0.8c-0.3,0-0.6,0-1,0s-0.8,0-1.2-0.1c0,0.1,0,0.2,0,0.2s0,0.1,0,0.2
			c0,0.4,0.1,0.8,0.2,1.1c0.1,0.4,0.3,0.7,0.5,0.9c0.2,0.2,0.5,0.5,0.8,0.6c0.3,0.2,0.7,0.2,1.1,0.2c0.6,0,1.2-0.1,1.7-0.4
			c0.6-0.3,1-0.7,1.3-1.2l1.3,0.4c-0.2,0.4-0.5,0.7-0.9,1c-0.3,0.3-0.7,0.6-1.1,0.8c-0.4,0.2-0.8,0.4-1.3,0.5S-496.7,858-497.2,858z
			 M-495.2,849c-0.5,0-1,0.1-1.5,0.3s-0.8,0.4-1.1,0.7s-0.6,0.6-0.8,1c-0.2,0.4-0.4,0.8-0.5,1.2c0.4,0,0.7,0.1,1.1,0.1
			c0.3,0,0.6,0,0.9,0c0.7,0,1.3,0,1.8-0.1s0.9-0.2,1.2-0.4c0.3-0.2,0.5-0.4,0.7-0.6c0.1-0.2,0.2-0.5,0.2-0.8c0-0.5-0.2-0.8-0.5-1.1
			C-494.1,849.1-494.6,849-495.2,849z"/>
		<path class="st3" d="M-489,847.9h1.5l-0.5,2.1c0.5-0.7,1.2-1.3,2-1.7c0.8-0.4,1.6-0.6,2.4-0.6s1.4,0.2,1.7,0.6
			c0.3,0.4,0.5,1,0.5,1.7c0,0.3,0,0.6-0.1,0.9s-0.1,0.6-0.2,1l-1.3,5.9h-1.7l1.2-5.5c0.1-0.5,0.2-1,0.2-1.4c0-1.1-0.4-1.6-1.3-1.6
			c-0.3,0-0.6,0.1-1,0.2c-0.3,0.1-0.7,0.3-1,0.5s-0.6,0.5-0.9,0.8s-0.5,0.7-0.7,1l-1.3,6h-1.7L-489,847.9z"/>
		<path class="st3" d="M-478,858c-0.5,0-0.9-0.1-1.3-0.4c-0.3-0.2-0.5-0.6-0.5-1.2c0-0.2,0-0.4,0.1-0.6l1.4-6.7h-1.3l0.3-1.3h1.3
			l0.7-3.3h1.7l-0.7,3.3h2.1l-0.3,1.3h-2.1l-1.3,6.2c0,0.1,0,0.2,0,0.3c0,0.3,0.1,0.5,0.2,0.6c0.2,0.1,0.4,0.2,0.6,0.2
			c0.3,0,0.6-0.1,0.9-0.2s0.5-0.2,0.6-0.3l0.1,1.3c-0.2,0.2-0.6,0.3-1,0.4C-477,857.9-477.5,858-478,858z"/>
		<path class="st3" d="M-472.2,847.9h1.6l-0.5,2.3c0.5-0.7,1-1.2,1.6-1.7c0.6-0.4,1.2-0.6,1.8-0.6c0.1,0,0.2,0,0.3,0s0.1,0,0.2,0
			l-0.3,1.4c-0.8,0-1.5,0.2-2.2,0.6c-0.7,0.4-1.2,1-1.6,1.7l-1.3,6.1h-1.7L-472.2,847.9z"/>
		<path class="st3" d="M-463.9,858c-0.6,0-1.1-0.1-1.6-0.3s-0.9-0.5-1.2-0.9s-0.6-0.8-0.7-1.3c-0.2-0.5-0.2-1-0.2-1.6
			c0-0.8,0.2-1.6,0.5-2.3s0.7-1.4,1.3-2c0.5-0.6,1.2-1,1.9-1.4c0.7-0.3,1.5-0.5,2.3-0.5c0.6,0,1.1,0.1,1.6,0.3s0.9,0.5,1.2,0.9
			c0.3,0.4,0.6,0.8,0.8,1.3s0.3,1,0.3,1.6c0,0.8-0.2,1.5-0.5,2.3c-0.3,0.7-0.8,1.4-1.3,2c-0.6,0.6-1.2,1-1.9,1.4
			S-463.1,858-463.9,858z M-463.6,856.6c0.5,0,1-0.1,1.4-0.4c0.5-0.2,0.9-0.6,1.3-1s0.7-0.9,0.9-1.4s0.3-1.1,0.3-1.7
			c0-0.4-0.1-0.8-0.2-1.2s-0.3-0.7-0.5-0.9c-0.2-0.3-0.5-0.5-0.8-0.6c-0.3-0.2-0.6-0.2-1-0.2c-0.5,0-1,0.1-1.4,0.4
			c-0.5,0.2-0.9,0.6-1.3,1s-0.7,0.9-0.9,1.4s-0.3,1.1-0.3,1.7c0,0.4,0.1,0.8,0.2,1.2s0.3,0.7,0.5,0.9c0.2,0.3,0.5,0.5,0.8,0.6
			C-464.3,856.5-463.9,856.6-463.6,856.6z"/>
	</g>
</g>
</svg>
