<?xml version="1.0" encoding="UTF-8" standalone="no"?>
<!-- Generator: Adobe Illustrator 16.0.0, SVG Export Plug-In . SVG Version: 6.00 Build 0)  -->

<svg
   xmlns:dc="http://purl.org/dc/elements/1.1/"
   xmlns:cc="http://creativecommons.org/ns#"
   xmlns:rdf="http://www.w3.org/1999/02/22-rdf-syntax-ns#"
   xmlns:svg="http://www.w3.org/2000/svg"
   xmlns="http://www.w3.org/2000/svg"
   xmlns:xlink="http://www.w3.org/1999/xlink"
   xmlns:sodipodi="http://sodipodi.sourceforge.net/DTD/sodipodi-0.dtd"
   xmlns:inkscape="http://www.inkscape.org/namespaces/inkscape"
   version="1.1"
   x="0px"
   y="0px"
   width="611.90997"
   height="137"
   viewBox="0 0 611.90997 137"
   enable-background="new 0 0 612 792"
   xml:space="preserve"
   id="svg2"
   inkscape:version="0.48.4 r9939"
   sodipodi:docname="etiqueta4_vacia.svg"><metadata
     id="metadata61"><rdf:RDF><cc:Work
         rdf:about=""><dc:format>image/svg+xml</dc:format><dc:type
           rdf:resource="http://purl.org/dc/dcmitype/StillImage" /></cc:Work></rdf:RDF></metadata><defs
     id="defs59" /><sodipodi:namedview
     pagecolor="#ffffff"
     bordercolor="#666666"
     borderopacity="1"
     objecttolerance="10"
     gridtolerance="10"
     guidetolerance="10"
     inkscape:pageopacity="0"
     inkscape:pageshadow="2"
     inkscape:window-width="640"
     inkscape:window-height="480"
     id="namedview57"
     showgrid="false"
     fit-margin-top="0"
     fit-margin-left="0"
     fit-margin-right="0"
     fit-margin-bottom="0"
     inkscape:zoom="0.2979798"
     inkscape:cx="308.001"
     inkscape:cy="93"
     inkscape:window-x="75"
     inkscape:window-y="34"
     inkscape:window-maximized="0"
     inkscape:current-layer="svg2" /><g
     id="Capa_1"
     transform="translate(2.0009979,-352)"><polygon
       points="609.909,462.146 578.134,420.514 609.909,379.084 119.787,379.084 119.787,462.146 "
       id="polygon5"
       style="fill:#cccdcd" /><g
       id="g7"><defs
         id="defs9"><circle
           id="SVGID_1_"
           cx="66.499001"
           cy="420.5"
           r="68.5"
           sodipodi:cx="66.499001"
           sodipodi:cy="420.5"
           sodipodi:rx="68.5"
           sodipodi:ry="68.5" /></defs><use
         xlink:href="#SVGID_1_"
         overflow="visible"
         id="use12"
         style="fill:#bfc1c0;overflow:visible"
         x="0"
         y="0"
         width="612"
         height="792" /><clipPath
         id="SVGID_2_"><use
           xlink:href="#SVGID_1_"
           overflow="visible"
           id="use15"
           style="overflow:visible"
           x="0"
           y="0"
           width="612"
           height="792" /></clipPath><path
         clip-path="url(#SVGID_2_)"
         d="M 138,441.5 78.667,385.833 75.748,417.388 77.5,438.666 67.5,435 66.166,453.833 99.5,484 c 12.086,-2.82 13.283,-4.532 22.75,-14 8.259,-8.258 12.528,-18.026 15.75,-28.5 z"
         id="path17"
         inkscape:connector-curvature="0"
         style="fill:#999999" /></g><g
       id="g19"><path
         d="M 65.67,453.793 V 439.197 H 37.066 V 427.54 l 32.816,-42.121 h 8.914 v 42.023 h 8.62 v 11.755 h -8.62 v 14.596 H 65.67 z M 50.192,427.442 h 16.947 v -22.139 l -16.947,22.139 z"
         id="path21"
         inkscape:connector-curvature="0"
         style="fill:#ffffff" /></g></g><g
     id="texto"
     display="none"
     style="display:none"
     transform="translate(2.0009979,-352)"><text
       transform="translate(153.4937,435.1592)"
       display="inline"
       font-size="41.7958"
       id="text24"
       style="font-size:41.79579926px;fill:#ffffff;display:inline;font-family:Raleway-SemiBoldItalic">Resumen propuesta</text>
</g><g
     id="trazado"
     transform="translate(2.0009979,-352)"><g
       id="g27"><path
         d="m 163.65,435.452 c -2.146,0 -4.159,-0.341 -6.04,-1.024 -1.881,-0.683 -3.49,-1.679 -4.827,-2.988 l 3.051,-4.013 c 0.223,0.362 0.606,0.767 1.149,1.212 0.543,0.446 1.198,0.857 1.965,1.233 0.766,0.376 1.63,0.696 2.591,0.961 0.961,0.266 1.985,0.397 3.072,0.397 2.006,0 3.538,-0.397 4.598,-1.191 1.059,-0.794 1.588,-1.901 1.588,-3.322 0,-0.613 -0.161,-1.136 -0.48,-1.567 -0.321,-0.432 -0.767,-0.815 -1.337,-1.149 -0.571,-0.335 -1.268,-0.634 -2.09,-0.898 -0.822,-0.265 -1.734,-0.551 -2.738,-0.857 -2.229,-0.641 -3.922,-1.428 -5.078,-2.361 -1.156,-0.933 -1.734,-2.264 -1.734,-3.991 0,-1.672 0.334,-3.162 1.003,-4.473 0.669,-1.31 1.567,-2.424 2.696,-3.344 1.129,-0.919 2.438,-1.615 3.929,-2.09 1.49,-0.473 3.072,-0.71 4.744,-0.71 1.922,0 3.636,0.32 5.141,0.961 1.505,0.642 2.759,1.436 3.762,2.383 l -2.926,3.845 c -0.167,-0.306 -0.474,-0.633 -0.919,-0.982 -0.446,-0.348 -0.976,-0.675 -1.588,-0.981 -0.613,-0.307 -1.303,-0.558 -2.069,-0.753 -0.767,-0.194 -1.567,-0.292 -2.403,-0.292 -2.118,0 -3.686,0.453 -4.702,1.358 -1.018,0.905 -1.525,2.068 -1.525,3.489 0,0.558 0.125,1.031 0.376,1.422 0.25,0.39 0.627,0.731 1.128,1.023 0.501,0.293 1.121,0.564 1.86,0.815 0.738,0.25 1.595,0.501 2.57,0.752 1.17,0.307 2.222,0.655 3.156,1.045 0.933,0.391 1.734,0.851 2.403,1.379 0.668,0.53 1.184,1.164 1.546,1.902 0.362,0.738 0.543,1.623 0.543,2.653 0,1.756 -0.342,3.274 -1.024,4.557 -0.683,1.281 -1.603,2.34 -2.759,3.176 -1.156,0.836 -2.48,1.449 -3.971,1.839 -1.492,0.389 -3.045,0.584 -4.661,0.584 z"
         id="path29"
         inkscape:connector-curvature="0"
         style="fill:#ffffff" /><path
         d="m 184.422,435.577 c -3.4,0 -5.099,-1.811 -5.099,-5.434 0,-1.03 0.139,-2.187 0.418,-3.469 l 2.884,-13.375 h 4.556 l -2.675,12.455 c -0.195,0.893 -0.292,1.729 -0.292,2.508 0,2.257 0.961,3.386 2.884,3.386 1.226,0 2.458,-0.403 3.699,-1.212 1.24,-0.808 2.333,-1.979 3.281,-3.511 l 2.884,-13.626 h 4.598 l -3.469,16.426 c -0.083,0.251 -0.125,0.46 -0.125,0.627 0,0.529 0.32,0.822 0.961,0.878 l -0.794,3.929 c -0.418,0.056 -0.781,0.104 -1.087,0.146 -0.307,0.042 -0.585,0.062 -0.836,0.062 -0.836,0 -1.491,-0.175 -1.964,-0.522 -0.474,-0.348 -0.71,-0.87 -0.71,-1.567 0,-0.223 0.027,-0.516 0.083,-0.878 0.056,-0.361 0.153,-0.919 0.292,-1.672 -1.254,1.589 -2.703,2.794 -4.347,3.615 -1.646,0.823 -3.359,1.234 -5.142,1.234 z"
         id="path31"
         inkscape:connector-curvature="0"
         style="fill:#ffffff" /><path
         d="m 214.014,435.577 c -1.672,0 -3.051,-0.397 -4.138,-1.191 -1.086,-0.794 -1.867,-1.859 -2.34,-3.197 l -0.836,3.971 h -4.054 l 6.479,-30.511 h 4.597 l -2.675,12.789 c 1.059,-1.364 2.292,-2.459 3.699,-3.28 1.406,-0.822 2.905,-1.233 4.493,-1.233 1.17,0 2.208,0.237 3.114,0.711 0.905,0.474 1.658,1.114 2.257,1.922 0.599,0.809 1.051,1.749 1.358,2.821 0.306,1.073 0.459,2.209 0.459,3.406 0,1.867 -0.349,3.637 -1.045,5.309 -0.697,1.672 -1.624,3.135 -2.779,4.389 -1.157,1.254 -2.48,2.25 -3.971,2.988 -1.491,0.736 -3.03,1.106 -4.618,1.106 z m -0.251,-3.929 c 1.003,0 1.971,-0.251 2.905,-0.752 0.933,-0.502 1.769,-1.163 2.508,-1.985 0.738,-0.822 1.323,-1.776 1.755,-2.863 0.432,-1.087 0.648,-2.215 0.648,-3.386 0,-0.779 -0.098,-1.519 -0.292,-2.215 -0.195,-0.696 -0.488,-1.31 -0.878,-1.839 -0.391,-0.529 -0.871,-0.954 -1.442,-1.275 -0.571,-0.319 -1.233,-0.48 -1.985,-0.48 -0.641,0 -1.282,0.125 -1.922,0.376 -0.642,0.251 -1.254,0.593 -1.839,1.024 -0.585,0.433 -1.136,0.934 -1.651,1.505 -0.516,0.571 -0.982,1.177 -1.4,1.817 l -1.254,5.769 c 0.083,1.226 0.578,2.25 1.483,3.071 0.904,0.822 2.026,1.233 3.364,1.233 z"
         id="path33"
         inkscape:connector-curvature="0"
         style="fill:#ffffff" /><path
         d="m 232.613,413.3 h 4.598 l -4.681,21.859 h -4.598 l 4.681,-21.859 z m 1.797,-8.652 h 4.597 l -1.045,5.057 h -4.597 l 1.045,-5.057 z"
         id="path35"
         inkscape:connector-curvature="0"
         style="fill:#ffffff" /><path
         d="m 242.602,413.3 h 4.263 l -1.087,4.891 c 1.059,-1.505 2.257,-2.717 3.595,-3.637 1.337,-0.919 2.661,-1.379 3.971,-1.379 0.278,0 0.494,0.007 0.647,0.021 0.153,0.015 0.299,0.035 0.439,0.062 l -0.877,4.013 c -1.672,0.057 -3.233,0.467 -4.681,1.233 -1.449,0.767 -2.62,1.859 -3.511,3.28 l -2.842,13.375 h -4.598 l 4.681,-21.859 z"
         id="path37"
         inkscape:connector-curvature="0"
         style="fill:#ffffff" /><path
         d="m 269.518,405.484 h 11.87 c 1.087,0 2.062,0.224 2.926,0.669 0.863,0.445 1.595,1.045 2.194,1.797 0.599,0.752 1.059,1.609 1.379,2.57 0.32,0.961 0.481,1.958 0.481,2.988 0,1.365 -0.292,2.724 -0.878,4.075 -0.585,1.352 -1.373,2.564 -2.361,3.637 -0.989,1.072 -2.146,1.943 -3.469,2.612 -1.324,0.668 -2.724,1.003 -4.2,1.003 h -7.356 l -2.173,10.323 h -4.723 l 6.31,-29.674 z m 8.568,15.214 c 0.724,0 1.414,-0.182 2.069,-0.544 0.654,-0.361 1.233,-0.856 1.734,-1.483 0.501,-0.627 0.899,-1.352 1.191,-2.174 0.292,-0.821 0.438,-1.692 0.438,-2.612 0,-1.281 -0.313,-2.312 -0.94,-3.093 -0.627,-0.779 -1.429,-1.17 -2.403,-1.17 h -6.813 l -2.382,11.076 h 7.106 z"
         id="path39"
         inkscape:connector-curvature="0"
         style="fill:#ffffff" /><path
         d="m 292.38,413.3 h 4.263 l -1.086,4.891 c 1.059,-1.505 2.256,-2.717 3.594,-3.637 1.338,-0.919 2.66,-1.379 3.971,-1.379 0.279,0 0.494,0.007 0.648,0.021 0.152,0.015 0.299,0.035 0.439,0.062 l -0.879,4.013 c -1.672,0.057 -3.232,0.467 -4.682,1.233 -1.45,0.766 -2.619,1.859 -3.51,3.28 l -2.842,13.375 h -4.598 L 292.38,413.3 z"
         id="path41"
         inkscape:connector-curvature="0"
         style="fill:#ffffff" /><path
         d="m 311.273,435.577 c -1.395,0 -2.619,-0.244 -3.678,-0.731 -1.061,-0.487 -1.952,-1.143 -2.675,-1.965 -0.726,-0.821 -1.275,-1.782 -1.651,-2.884 -0.376,-1.1 -0.564,-2.277 -0.564,-3.531 0,-1.756 0.349,-3.448 1.045,-5.078 0.696,-1.63 1.644,-3.072 2.842,-4.326 1.197,-1.254 2.611,-2.257 4.242,-3.009 1.631,-0.753 3.379,-1.129 5.246,-1.129 1.393,0 2.625,0.244 3.699,0.731 1.072,0.488 1.977,1.143 2.715,1.965 0.738,0.821 1.297,1.79 1.672,2.904 0.377,1.115 0.564,2.299 0.564,3.553 0,1.728 -0.348,3.399 -1.045,5.016 -0.695,1.616 -1.65,3.051 -2.863,4.305 -1.211,1.254 -2.633,2.265 -4.262,3.03 -1.63,0.765 -3.392,1.149 -5.287,1.149 z m 0.877,-3.929 c 0.975,0 1.93,-0.236 2.863,-0.711 0.934,-0.474 1.762,-1.121 2.486,-1.943 0.725,-0.821 1.311,-1.776 1.756,-2.863 0.445,-1.086 0.668,-2.242 0.668,-3.469 0,-1.672 -0.424,-3.058 -1.273,-4.158 -0.852,-1.101 -1.986,-1.651 -3.406,-1.651 -0.977,0 -1.924,0.244 -2.842,0.731 -0.92,0.488 -1.75,1.143 -2.488,1.965 -0.738,0.822 -1.33,1.776 -1.775,2.862 -0.447,1.087 -0.67,2.243 -0.67,3.47 0,1.672 0.426,3.051 1.275,4.138 0.849,1.087 1.986,1.629 3.406,1.629 z"
         id="path43"
         inkscape:connector-curvature="0"
         style="fill:#ffffff" /><path
         d="m 330.875,413.3 h 4.053 l -0.836,3.929 c 1.088,-1.31 2.342,-2.354 3.762,-3.135 1.422,-0.779 2.926,-1.17 4.514,-1.17 1.199,0 2.271,0.237 3.219,0.711 0.948,0.474 1.748,1.121 2.404,1.943 0.654,0.822 1.154,1.783 1.504,2.884 0.348,1.101 0.523,2.277 0.523,3.531 0,1.756 -0.322,3.456 -0.963,5.1 -0.641,1.645 -1.512,3.093 -2.611,4.347 -1.102,1.254 -2.369,2.257 -3.803,3.009 -1.436,0.753 -2.947,1.129 -4.535,1.129 -1.672,0 -3.045,-0.418 -4.117,-1.254 -1.074,-0.836 -1.832,-1.923 -2.277,-3.26 l -2.76,12.998 h -4.598 l 6.521,-30.762 z m 6.561,18.348 c 1.031,0 2.02,-0.265 2.969,-0.794 0.945,-0.529 1.775,-1.212 2.486,-2.048 0.711,-0.836 1.275,-1.79 1.693,-2.863 0.418,-1.072 0.627,-2.152 0.627,-3.239 0,-0.808 -0.113,-1.567 -0.336,-2.278 -0.223,-0.71 -0.549,-1.33 -0.98,-1.859 -0.434,-0.529 -0.955,-0.947 -1.568,-1.254 -0.613,-0.307 -1.295,-0.46 -2.049,-0.46 -0.557,0 -1.148,0.111 -1.775,0.334 -0.627,0.224 -1.24,0.53 -1.84,0.92 -0.6,0.391 -1.148,0.843 -1.65,1.358 -0.502,0.515 -0.893,1.08 -1.17,1.692 l -1.254,5.727 c 0.25,1.337 0.809,2.466 1.672,3.386 0.862,0.918 1.921,1.378 3.175,1.378 z"
         id="path45"
         inkscape:connector-curvature="0"
         style="fill:#ffffff" /><path
         d="m 357.832,435.577 c -3.4,0 -5.1,-1.811 -5.1,-5.434 0,-1.03 0.139,-2.187 0.418,-3.469 l 2.883,-13.375 h 4.557 l -2.676,12.455 c -0.195,0.893 -0.291,1.729 -0.291,2.508 0,2.257 0.961,3.386 2.883,3.386 1.227,0 2.459,-0.403 3.699,-1.212 1.24,-0.808 2.334,-1.979 3.281,-3.511 l 2.883,-13.626 h 4.598 l -3.469,16.426 c -0.084,0.251 -0.125,0.46 -0.125,0.627 0,0.529 0.32,0.822 0.961,0.878 l -0.793,3.929 c -0.418,0.056 -0.781,0.104 -1.088,0.146 -0.307,0.042 -0.584,0.062 -0.836,0.062 -0.836,0 -1.49,-0.175 -1.963,-0.522 -0.475,-0.348 -0.711,-0.87 -0.711,-1.567 0,-0.223 0.027,-0.516 0.084,-0.878 0.055,-0.361 0.152,-0.919 0.291,-1.672 -1.254,1.589 -2.703,2.794 -4.346,3.615 -1.644,0.823 -3.359,1.234 -5.14,1.234 z"
         id="path47"
         inkscape:connector-curvature="0"
         style="fill:#ffffff" /><path
         d="m 385.627,435.577 c -1.395,0 -2.627,-0.237 -3.699,-0.711 -1.072,-0.473 -1.986,-1.121 -2.738,-1.943 -0.752,-0.821 -1.324,-1.797 -1.713,-2.926 -0.391,-1.128 -0.586,-2.347 -0.586,-3.657 0,-1.782 0.342,-3.482 1.025,-5.099 0.682,-1.615 1.629,-3.037 2.842,-4.264 1.211,-1.226 2.646,-2.207 4.305,-2.946 1.656,-0.737 3.447,-1.107 5.371,-1.107 2.256,0 4.061,0.509 5.412,1.525 1.352,1.018 2.027,2.515 2.027,4.493 0,4.57 -4.082,6.854 -12.246,6.854 -1.199,0 -2.551,-0.042 -4.055,-0.125 v 0.752 c 0,0.809 0.098,1.561 0.293,2.257 0.193,0.697 0.486,1.311 0.877,1.839 0.391,0.53 0.893,0.94 1.506,1.233 0.611,0.292 1.336,0.438 2.172,0.438 1.199,0 2.355,-0.299 3.469,-0.898 1.115,-0.599 1.992,-1.414 2.635,-2.445 l 3.635,1.129 c -0.529,0.836 -1.176,1.596 -1.943,2.277 -0.766,0.684 -1.609,1.269 -2.527,1.756 -0.92,0.488 -1.896,0.871 -2.926,1.149 -1.033,0.28 -2.077,0.419 -3.136,0.419 z m 4.221,-19.267 c -1.004,0 -1.922,0.174 -2.758,0.522 -0.836,0.348 -1.574,0.814 -2.215,1.399 -0.643,0.586 -1.186,1.262 -1.631,2.027 -0.445,0.767 -0.809,1.567 -1.086,2.403 1.281,0.084 2.465,0.126 3.553,0.126 1.477,0 2.715,-0.091 3.719,-0.272 1.004,-0.181 1.818,-0.432 2.445,-0.752 0.627,-0.32 1.072,-0.711 1.338,-1.17 0.264,-0.46 0.396,-0.968 0.396,-1.526 0,-0.946 -0.334,-1.644 -1.004,-2.09 -0.667,-0.445 -1.587,-0.667 -2.757,-0.667 z"
         id="path49"
         inkscape:connector-curvature="0"
         style="fill:#ffffff" /><path
         d="m 406.398,435.577 c -1.699,0 -3.316,-0.286 -4.848,-0.856 -1.533,-0.571 -2.787,-1.386 -3.762,-2.445 l 2.465,-2.926 c 2.09,1.923 4.334,2.884 6.73,2.884 1.42,0 2.562,-0.32 3.426,-0.961 0.864,-0.641 1.297,-1.49 1.297,-2.55 0,-0.752 -0.355,-1.323 -1.066,-1.714 -0.711,-0.39 -1.818,-0.794 -3.322,-1.212 -1.061,-0.307 -1.979,-0.606 -2.76,-0.898 -0.779,-0.293 -1.42,-0.627 -1.922,-1.003 -0.502,-0.376 -0.877,-0.801 -1.129,-1.275 -0.25,-0.473 -0.375,-1.03 -0.375,-1.672 0,-1.226 0.264,-2.333 0.793,-3.322 0.529,-0.989 1.24,-1.832 2.133,-2.528 0.891,-0.696 1.922,-1.233 3.092,-1.609 1.17,-0.376 2.41,-0.564 3.721,-0.564 1.561,0 2.953,0.251 4.18,0.752 1.225,0.502 2.283,1.227 3.176,2.174 l -2.549,2.759 c -0.809,-0.809 -1.688,-1.414 -2.633,-1.818 -0.949,-0.403 -1.938,-0.606 -2.969,-0.606 -1.227,0 -2.271,0.293 -3.135,0.878 -0.864,0.585 -1.295,1.478 -1.295,2.675 0,0.697 0.293,1.22 0.877,1.567 0.586,0.349 1.561,0.704 2.926,1.066 1.17,0.307 2.188,0.627 3.051,0.961 0.863,0.334 1.582,0.704 2.152,1.107 0.572,0.404 0.996,0.871 1.275,1.4 0.279,0.529 0.418,1.143 0.418,1.839 0,1.17 -0.244,2.236 -0.73,3.197 -0.488,0.961 -1.172,1.791 -2.049,2.487 -0.877,0.696 -1.93,1.24 -3.156,1.63 -1.226,0.39 -2.562,0.583 -4.012,0.583 z"
         id="path51"
         inkscape:connector-curvature="0"
         style="fill:#ffffff" /><path
         d="m 424.955,435.493 c -1.199,0 -2.201,-0.286 -3.01,-0.856 -0.809,-0.57 -1.211,-1.483 -1.211,-2.737 0,-0.474 0.055,-0.934 0.166,-1.38 l 2.926,-13.667 h -2.801 l 0.795,-3.553 h 2.717 l 1.547,-7.188 h 4.598 l -1.547,7.188 h 4.514 l -0.752,3.553 h -4.473 l -2.592,12.204 c -0.057,0.279 -0.084,0.488 -0.084,0.627 0,0.558 0.168,0.962 0.502,1.213 0.334,0.25 0.738,0.376 1.213,0.376 0.641,0 1.254,-0.111 1.838,-0.335 0.586,-0.223 1.031,-0.403 1.338,-0.543 l 0.168,3.636 c -0.643,0.391 -1.492,0.731 -2.551,1.024 -1.059,0.293 -2.158,0.438 -3.301,0.438 z"
         id="path53"
         inkscape:connector-curvature="0"
         style="fill:#ffffff" /><path
         d="m 441.633,435.577 c -1.227,0 -2.32,-0.237 -3.281,-0.711 -0.961,-0.473 -1.777,-1.113 -2.445,-1.922 -0.668,-0.809 -1.178,-1.763 -1.525,-2.863 -0.35,-1.101 -0.523,-2.278 -0.523,-3.532 0,-1.782 0.328,-3.496 0.982,-5.141 0.654,-1.644 1.539,-3.093 2.654,-4.347 1.115,-1.254 2.396,-2.257 3.846,-3.009 1.447,-0.753 2.967,-1.129 4.555,-1.129 1.59,0 2.92,0.425 3.992,1.274 1.072,0.851 1.832,1.93 2.277,3.239 l 0.879,-4.096 h 4.639 l -3.512,16.384 c -0.027,0.14 -0.049,0.258 -0.062,0.355 -0.013,0.097 -0.02,0.188 -0.02,0.271 0,0.558 0.32,0.851 0.961,0.878 l -0.836,3.929 c -0.391,0.056 -0.746,0.104 -1.066,0.146 -0.32,0.042 -0.592,0.062 -0.814,0.062 -1.812,0 -2.717,-0.725 -2.717,-2.174 0,-0.445 0.098,-1.113 0.293,-2.006 -1.061,1.421 -2.342,2.508 -3.846,3.26 -1.505,0.756 -2.984,1.132 -4.431,1.132 z m 2.006,-3.929 c 0.557,0 1.148,-0.111 1.775,-0.334 0.627,-0.224 1.24,-0.529 1.84,-0.92 0.598,-0.39 1.148,-0.85 1.65,-1.379 0.502,-0.529 0.906,-1.101 1.213,-1.714 l 1.17,-5.727 c -0.084,-0.668 -0.271,-1.288 -0.564,-1.859 -0.293,-0.571 -0.662,-1.072 -1.107,-1.505 -0.445,-0.432 -0.934,-0.766 -1.463,-1.003 -0.529,-0.236 -1.086,-0.355 -1.672,-0.355 -1.059,0 -2.055,0.266 -2.988,0.794 -0.934,0.53 -1.756,1.212 -2.467,2.048 -0.709,0.836 -1.273,1.791 -1.691,2.863 -0.418,1.073 -0.627,2.152 -0.627,3.239 0,0.836 0.111,1.609 0.334,2.319 0.223,0.711 0.549,1.324 0.982,1.84 0.432,0.516 0.953,0.926 1.566,1.232 0.613,0.306 1.297,0.461 2.049,0.461 z"
         id="path55"
         inkscape:connector-curvature="0"
         style="fill:#ffffff" /></g></g></svg>