<?xml version="1.0" encoding="utf-8"?>
<!-- Generator: Adobe Illustrator 19.1.0, SVG Export Plug-In . SVG Version: 6.00 Build 0)  -->
<svg version="1.1" id="Capa_1" xmlns="http://www.w3.org/2000/svg" xmlns:xlink="http://www.w3.org/1999/xlink" x="0px" y="0px"
	 viewBox="0 0 467.7 97.3" style="enable-background:new 0 0 467.7 97.3;" xml:space="preserve">
<style type="text/css">
	.st0{fill:#1558B9;}
	.st1{font-family:'Raleway-ThinItalic';}
	.st2{font-size:14.3804px;}
	.st3{font-family:'Raleway-Light';}
	.st4{font-family:'Raleway-LightItalic';}
	.st5{font-size:12.8667px;}
	.st6{fill:none;stroke:#1558B9;stroke-width:0.5;stroke-miterlimit:10;}
	.st7{fill:#004B93;}
	.st8{fill:#E63329;}
	.st9{fill:#007E47;}
	.st10{fill:#FFCE44;}
</style>
<text transform="matrix(1 0 0 1 53.154 45.803)" class="st0 st1 st2">La comunidad de la U de Chile debate y propone</text>
<text transform="matrix(1 0 0 1 50.5818 64.6111)" class="st0 st3 st2">Construyamos juntos una educación superior pública para Chile</text>
<text transform="matrix(1 0 0 1 51.8269 80.8699)" class="st0 st4 st5">julio 2016 · enero 2017</text>
<g>
	<polyline class="st6" points="35,73.5 36.3,73.8 32.7,78.2 21.7,75.1 23.7,73.9 	"/>
	<polygon class="st6" points="36.3,73.8 36.3,75.4 32.7,80.2 32.7,78.2 	"/>
	<polygon class="st6" points="22.2,75.3 22.2,76.8 32.7,80.2 32.7,78.2 	"/>
	<polyline class="st6" points="33.7,72.4 34.8,72.5 31.9,75.3 23.1,73.4 24.6,72.5 	"/>
	<polygon class="st6" points="35,72.5 35,73.8 31.9,77 31.9,75.3 	"/>
	<polygon class="st6" points="23.7,73.5 23.7,74.9 31.9,77 31.9,75.3 	"/>
	<path class="st6" d="M28.2,66.3c0,0-0.2-0.5-0.2-1c0-0.5,0.7-1.4,0.7-1.4s-0.1,0.7,0.3,0.7c0.4,0,0.5-0.4,0.3-0.7
		c-0.2-0.2-0.6-0.9-0.6-0.9s1.5,0.3,1.5,1.2s-0.6,0.9-0.4,1.2s0.4-0.3,0.6-0.1c0.2,0.2,0,0.9,0,0.9l-1.2,0.4L28.2,66.3z"/>
	<path class="st6" d="M34.8,85.1c0,0-10.9,0-12.4,0c-1.5,0-2.5,1.2-2.5,1.2s-1-1.2-2.5-1.2c-1.2,0-12.4,0-12.4,0
		c-2.7,0-4.9-2.2-4.9-4.9V32.8h39.5v47.4C39.7,83,37.5,85.1,34.8,85.1z"/>
	<polygon class="st6" points="20,10.9 21.9,14.8 26.1,15.4 23,18.3 23.8,22.5 20,20.6 16.2,22.5 16.9,18.3 13.9,15.4 18.1,14.8 	"/>
	<polygon class="st6" points="20,13.1 21.2,15.6 24,16 22,18 22.4,20.7 20,19.4 17.5,20.7 18,18 16,16 18.8,15.6 	"/>
	<line class="st6" x1="20" y1="25.1" x2="20" y2="31.8"/>
	<line class="st6" x1="20" y1="0" x2="20" y2="9.7"/>
	<line class="st6" x1="27.5" y1="17.2" x2="30.7" y2="17.2"/>
	<line class="st6" x1="9.2" y1="17.2" x2="12.4" y2="17.2"/>
	<line class="st6" x1="26" y1="12.7" x2="28.6" y2="10.8"/>
	<line class="st6" x1="11.4" y1="23.6" x2="13.9" y2="21.7"/>
	<line class="st6" x1="22.4" y1="10.1" x2="23.4" y2="7.1"/>
	<line class="st6" x1="16.5" y1="27.4" x2="17.6" y2="24.4"/>
	<line class="st6" x1="17.6" y1="10" x2="16.7" y2="7"/>
	<line class="st6" x1="23.2" y1="27.4" x2="22.3" y2="24.4"/>
	<line class="st6" x1="13.9" y1="12.7" x2="11.4" y2="10.8"/>
	<line class="st6" x1="28.5" y1="23.7" x2="26" y2="21.8"/>
	<line class="st6" x1="9.2" y1="3.5" x2="15.2" y2="11.3"/>
	<line class="st6" x1="24.5" y1="23.7" x2="30.5" y2="31.5"/>
	<line class="st6" x1="3.2" y1="11.8" x2="12.6" y2="15"/>
	<line class="st6" x1="27.2" y1="20" x2="36.5" y2="23.2"/>
	<line class="st6" x1="3.2" y1="23.3" x2="12.6" y2="20"/>
	<line class="st6" x1="27.2" y1="15" x2="36.5" y2="11.7"/>
	<line class="st6" x1="9.4" y1="31.7" x2="15.3" y2="23.7"/>
	<line class="st6" x1="24.5" y1="11.3" x2="30.3" y2="3.3"/>
	<polyline class="st6" points="14.1,58.1 2,58.1 2,34.4 19.1,34.4 19.1,52.8 	"/>
	<polyline class="st6" points="20.7,52.8 20.7,34.4 37.8,34.4 37.8,58.1 25.8,58.1 	"/>
	<path class="st6" d="M19.1,65v18.9c0,0-0.5-0.6-2.5-0.6c-1.5,0-11.6,0-11.6,0c-1.7,0-3.1-1.4-3.1-3.1V59.6h12"/>
	<path class="st6" d="M25.9,59.6h11.9v20.6c0,1.7-1.4,3.1-3.1,3.1c0,0-9.6,0-11.6,0s-2.5,0.6-2.5,0.6V65"/>
	<polygon class="st6" points="5.6,61.1 5.9,62.2 7.1,62.2 6.2,62.9 6.5,64 5.6,63.3 4.6,64 5,62.9 4,62.2 5.2,62.2 	"/>
	<line class="st6" x1="6.4" y1="65.4" x2="8.4" y2="70.7"/>
	<line class="st6" x1="6.8" y1="65.2" x2="8.3" y2="68"/>
	<line class="st6" x1="7.2" y1="64.9" x2="10.1" y2="68.3"/>
	<line class="st6" x1="7.5" y1="64.5" x2="10.2" y2="66.6"/>
	<line class="st6" x1="7.8" y1="64" x2="12.9" y2="67.2"/>
	<circle class="st6" cx="12.9" cy="71.6" r="3.3"/>
	<path class="st6" d="M11.9,68.5c0,0,0.9,1.3,1.7,2.1c0.8,0.8,2.5,1.7,2.5,1.7"/>
	<path class="st6" d="M13.9,74.8c0,0-0.9-1.3-1.7-2.1C11.4,71.9,9.7,71,9.7,71"/>
	<line class="st6" x1="10.6" y1="74.2" x2="15.2" y2="69.2"/>
	<path class="st6" d="M10.4,73.9c0,0-0.3-2.1,1.1-3.5C12.9,69,15,69,15,69"/>
	<path class="st6" d="M15.4,69.5c0,0,0.3,2.1-1.1,3.5c-1.4,1.4-3.4,1.3-3.4,1.3"/>
	<path class="st6" d="M4.7,75.1l1-4.5c0.1-0.3,0.3-0.5,0.6-0.5h0c0.3,0,0.5,0.2,0.6,0.5l1,4.5"/>
	<polyline class="st6" points="4.9,74.2 5.4,73.6 6.3,71.6 6.9,73.5 7.6,74.2 	"/>
	<path class="st6" d="M4.7,75.2h11.6v5.1c-0.5,0-0.8-0.3-0.8-0.7c0-1-0.9-0.9-0.9-0.9c0-0.3,0-2.2,0-2.2H5.9c0,0,0-0.5-0.7-0.5
		C4.7,76,4.7,75.4,4.7,75.2z"/>
	<polygon class="st6" points="7.7,52 12.6,52 11,53.2 9.4,53.2 	"/>
	<path class="st6" d="M11.1,57H9.2c-0.2,0-0.4-0.2-0.4-0.4l0,0c0-0.2,0.2-0.4,0.4-0.4h1.9c0.2,0,0.4,0.2,0.4,0.4l0,0
		C11.5,56.8,11.3,57,11.1,57z"/>
	<polygon class="st6" points="9.2,56.2 9.4,53.2 11,53.2 11.1,56.2 	"/>
	<path class="st6" d="M17.5,47.4C17,48.3,16,49,14.9,49c-1.1,0-2-0.6-2.5-1.5L17.5,47.4z"/>
	<path class="st6" d="M8,47.4C7.5,48.3,6.6,49,5.5,49c-1.1,0-2-0.6-2.5-1.5L8,47.4z"/>
	<polygon class="st6" points="9.2,52 9.2,43.4 10.1,35.4 11,43.3 11,52 	"/>
	<line class="st6" x1="10.1" y1="52" x2="10.1" y2="36.7"/>
	<polygon class="st6" points="3.2,47.4 5.5,41.3 7.5,47.4 	"/>
	<polygon class="st6" points="12.6,47.4 14.9,41.3 17,47.4 	"/>
	<line class="st6" x1="5.5" y1="40.2" x2="5.5" y2="47.5"/>
	<line class="st6" x1="14.9" y1="40.2" x2="14.9" y2="47.5"/>
	<path class="st6" d="M10.7,40.4h5.7c0,0,0-0.9-0.2-0.9c-0.2,0-0.8,0.7-0.8,0.7l-5.1-0.8"/>
	<path class="st6" d="M9.6,40.4H4c0,0,0-0.9,0.2-0.9S5,40.2,5,40.2l5.1-0.8"/>
	<path class="st6" d="M18.8,53.4c-3.5,0.8-4.7,3.1-4.7,5.6c0,2.6,1.5,4.9,4,5.7c4.1,1.3,7.9-1.7,7.9-5.6c0-3.3-2.6-6.3-5.9-6.3
		C19.4,52.8,18.8,52.9,18.8,53.4c0,0,0.8,0,0.8,0.5c0,0.4-0.5,0.6-0.6,0.6c0,0,0,0,0,0.1c0.1,0.2,0.8,0.3,2,0c0.3-0.1,0.8,0.1,1,0.2
		"/>
	<path class="st6" d="M21.9,54.8c1.7,0.7,2.8,2.4,2.8,4.3c0,2.6-2.1,4.7-4.7,4.7s-4.7-2.1-4.7-4.7c0-2.2,1.6-4.1,3.7-4.6"/>
	<polygon class="st6" points="15.9,61.5 20,54.7 24.1,61.5 	"/>
	<path class="st6" d="M17.1,59.5c0,0,1.2-1.1,2.9-1.1s2.8,1.1,2.8,1.1s-1.3,1.2-2.9,1.2C18.4,60.6,17.1,59.5,17.1,59.5z"/>
	<circle class="st6" cx="20" cy="59.5" r="1.1"/>
	<circle class="st6" cx="19.9" cy="59.5" r="0.4"/>
	<circle class="st6" cx="20.2" cy="53.4" r="0.2"/>
	<path class="st6" d="M28.7,47.4c-0.9,0.1-2,0.1-2.8-0.7c-0.5-0.5-0.4-1.1-0.2-1.9"/>
	<path class="st6" d="M32.2,52.3c-0.2,0-0.4,0.1-0.6,0.1c-1,0.1-2-0.5-1.7-1.5c0.3-1.1,1.1-1.9,1-2.5c-0.1-0.5-0.3-0.9-0.8-1"/>
	<path class="st6" d="M32.6,51.3c0.6,0,1.2,0.1,1.6,0.5c0.8,0.8-0.3,2.1-0.1,2.8s0.8,1.7,0.8,1.7s-0.6,0.3-1.3-0.9
		c-0.8-1.2,0.4-2.1,0.2-2.6c-0.1-0.2-0.2-0.3-0.4-0.3"/>
	<path class="st6" d="M29.4,46.3c0.4,0,0.8,0,0.9,0c0.5,0,0.9,0.1,1.4,0.6c0.4,0.4,0.3,1.2,0.2,1.5c-0.1,0.3-1.1,2.3-0.8,2.7
		c0.1,0.1,0.2,0.1,0.3,0.2"/>
	<path class="st6" d="M26.8,45.2c0,1.2,1.2,1.1,1.2,1.1"/>
	<path class="st6" d="M34.2,53.6c0,0,1.2,1.7,1.2,1.8c0.1,0.2,0.7,0.9,0.3,1.1c-0.2,0.2-0.6,0-0.7-0.3c-0.1-0.1,0.5,0.6-0.5-0.9
		C34.4,55.4,33.8,54.3,34.2,53.6z"/>
	<path class="st6" d="M33.6,52.8c-0.6-0.9-1.3-2-2.1-3.2l-0.3,1c0,0.2,0,0.3,0.1,0.4c0.8,1.1,1.6,2.2,2.1,3L33.6,52.8z"/>
	<path class="st6" d="M26.8,44.7c0.9,1.3,2.1,3.1,3.4,4.8c0.1,0.1,0.2,0.1,0.3,0l0.2-0.5c0.1-0.3,0-0.7-0.1-1
		c-1.2-1.8-2.3-3.5-3.2-4.8"/>
	<path class="st6" d="M26.6,42.2c-0.6-0.9-1-1.4-1-1.4c-0.2-0.3-0.6-0.3-0.8,0l-0.5,0.8c-0.1,0.2,0,0.4,0.2,0.5l0.3,0.1
		c0.3,0.1,0.5,0.2,0.6,0.5c0,0,0.3,0.4,0.7,1"/>
	<path class="st6" d="M25.6,45c0.3-1.1,1-2.5,1.1-3.5c0.2-1.6,0.2-2.3-0.3-2.8c-0.6-0.5-1.3-0.4-1.3-0.4l-0.3,0.1l-1.3-1.1
		c-0.2-0.1-0.1-0.4,0-0.5c0.4-0.2,1.3-0.4,2.7,0.2c2.1,1,2,2.3,2,3.1c0,0.8-1.5,3.8-1.5,5.1"/>
	<path class="st6" d="M22.2,36.4c0,0,0.3,0.6,1.2,0.7"/>
	<circle class="st6" cx="24.6" cy="37.2" r="0.2"/>
	<path class="st6" d="M32.9,67.7h0.9v5.2c0,0-2.6-0.3-4.5-0.3s-4.6,0.3-4.6,0.3v-5.2h0.8"/>
	<path class="st6" d="M29.3,66.5c0,0,0.3-0.2,1-0.2c0.7,0,1.3,0.8,1.8,0.8c0.5,0,0.8-0.1,0.8-0.1v5.6c0,0-0.7-0.4-1.5-0.4
		s-2.1,0.2-2.1,0.2V66.5z"/>
	<path class="st6" d="M29.1,66.5c0,0-0.3-0.2-1-0.2c-0.7,0-1.3,0.8-1.8,0.8c-0.5,0-0.8-0.1-0.8-0.1v5.6c0,0,0.7-0.4,1.5-0.4
		c0.9,0,2.1,0.2,2.1,0.2V66.5z"/>
	<path class="st6" d="M29.8,69.4c1.3,0,1.1,0.5,2.5,0.5"/>
	<path class="st6" d="M29.8,67.8c1.3,0,1.1,0.5,2.5,0.5"/>
	<path class="st6" d="M29.8,70.7c1.3,0,1.1,0.5,2.5,0.5"/>
	<path class="st6" d="M28.7,69.4c-1.3,0-1.1,0.5-2.5,0.5"/>
	<path class="st6" d="M28.7,67.8c-1.3,0-1.1,0.5-2.5,0.5"/>
	<path class="st6" d="M28.7,70.7c-1.3,0-1.1,0.5-2.5,0.5"/>
	<polygon class="st6" points="22.2,76.8 21.4,76.5 22.2,76 	"/>
</g>
<g>
	<rect x="0.3" y="93.1" class="st7" width="116.3" height="4.3"/>
	<rect x="116.6" y="93.1" class="st8" width="116.3" height="4.3"/>
	<rect x="233" y="93.1" class="st9" width="116.3" height="4.3"/>
	<rect x="349.3" y="93.1" class="st10" width="116.3" height="4.3"/>
</g>
</svg>
