<?xml version="1.0" encoding="utf-8"?>
<!-- Generator: Adobe Illustrator 19.1.0, SVG Export Plug-In . SVG Version: 6.00 Build 0)  -->
<svg version="1.1" id="Capa_1" xmlns="http://www.w3.org/2000/svg" xmlns:xlink="http://www.w3.org/1999/xlink" x="0px" y="0px"
	 viewBox="0 0 476.8 262.6" style="enable-background:new 0 0 476.8 262.6;" xml:space="preserve">
<style type="text/css">
	.st0{fill:#4479C7;}
	.st1{fill:#424242;}
	.st2{fill:#FFFFFF;}
	.st3{fill:none;stroke:#1C75F7;stroke-width:6.8759;stroke-miterlimit:10;}
	.st4{fill:#1C75F7;}
	.st5{fill:#77ACFA;}
</style>
<polygon class="st0" points="187.1,110.5 476.8,110.5 457.7,85.5 476.8,60.5 187.1,60.5 "/>
<g>
	<g>
		<g id="XMLID_16_">
			<path id="XMLID_17_" class="st1" d="M17.8,23l151.5,0.2c9.8,0,17.8,8,17.8,17.8v203.8c0,9.8-8,17.8-17.8,17.8H17.8
				c-9.8,0-17.8-8-17.8-17.8v-204C0,30.9,8,23,17.8,23z"/>
		</g>
		<g>
			<path class="st2" d="M169.7,237H17.9c-1.4,0-2.5-1.1-2.5-2.5V39.7c0-1.4,1.1-2.5,2.5-2.5h151.9c1.4,0,2.5,1.1,2.5,2.5v194.8
				C172.2,235.9,171.1,237,169.7,237z"/>
			<line class="st3" x1="68.7" y1="68.9" x2="146.9" y2="68.9"/>
			<line class="st3" x1="68.7" y1="86.7" x2="146.9" y2="86.7"/>
			<line class="st3" x1="40.3" y1="104.5" x2="146.9" y2="104.5"/>
			<line class="st3" x1="40.3" y1="122.3" x2="146.9" y2="122.3"/>
			<line class="st3" x1="40.3" y1="156.4" x2="146.9" y2="156.4"/>
			<line class="st3" x1="40.5" y1="174.4" x2="114.8" y2="174.4"/>
			<g>
				<path class="st4" d="M52.4,64h1.2c1,0,2,0.6,2.3,1.6l8.3,21.9c0.6,1.6-0.6,3.4-2.3,3.4h0c-1,0-2-0.6-2.3-1.6l-1.3-3.4
					c-0.4-1-1.3-1.6-2.3-1.6H50c-1,0-2,0.7-2.3,1.6l-1.3,3.4c-0.4,1-1.3,1.6-2.3,1.6h0c-1.8,0-3-1.8-2.3-3.4l8.3-21.9
					C50.5,64.7,51.4,64,52.4,64z M55.6,77.2l-0.2-0.7c-0.8-2.2-3.9-2.2-4.7,0l-0.2,0.7c-0.6,1.6,0.6,3.4,2.3,3.4h0.5
					C54.9,80.5,56.1,78.8,55.6,77.2z"/>
			</g>
		</g>
	</g>
	<path id="XMLID_15_" class="st5" d="M112.7,16.7c-1.3,0-2.3-1-2.5-2.2C109.1,6.3,102.1,0,93.6,0C85.1,0,78.1,6.3,77,14.5
		c-0.2,1.3-1.2,2.2-2.5,2.2l-11,0c-5.8,0-10.5,4.7-10.5,10.5v4.3c0,5.8,4.7,10.5,10.5,10.5h60.1c5.8,0,10.5-4.7,10.5-10.5v-4.3
		c0-5.8-4.7-10.5-10.5-10.5L112.7,16.7z"/>
	<circle class="st4" cx="93.8" cy="12.6" r="4.4"/>
</g>
</svg>
