<?xml version="1.0" encoding="UTF-8" standalone="no"?>
<!-- Generator: Adobe Illustrator 19.1.0, SVG Export Plug-In . SVG Version: 6.00 Build 0)  -->

<svg
   xmlns:dc="http://purl.org/dc/elements/1.1/"
   xmlns:cc="http://creativecommons.org/ns#"
   xmlns:rdf="http://www.w3.org/1999/02/22-rdf-syntax-ns#"
   xmlns:svg="http://www.w3.org/2000/svg"
   xmlns="http://www.w3.org/2000/svg"
   xmlns:sodipodi="http://sodipodi.sourceforge.net/DTD/sodipodi-0.dtd"
   xmlns:inkscape="http://www.inkscape.org/namespaces/inkscape"
   version="1.1"
   id="Capa_1"
   x="0px"
   y="0px"
   viewBox="0 0 187.1 262.59999"
   xml:space="preserve"
   inkscape:version="0.48.4 r9939"
   width="100%"
   height="100%"
   sodipodi:docname="icono_propuesta.svg"><metadata
     id="metadata40"><rdf:RDF><cc:Work
         rdf:about=""><dc:format>image/svg+xml</dc:format><dc:type
           rdf:resource="http://purl.org/dc/dcmitype/StillImage" /><dc:title></dc:title></cc:Work></rdf:RDF></metadata><defs
     id="defs38" /><sodipodi:namedview
     pagecolor="#ffffff"
     bordercolor="#666666"
     borderopacity="1"
     objecttolerance="10"
     gridtolerance="10"
     guidetolerance="10"
     inkscape:pageopacity="0"
     inkscape:pageshadow="2"
     inkscape:window-width="1301"
     inkscape:window-height="744"
     id="namedview36"
     showgrid="false"
     inkscape:zoom="1.7084459"
     inkscape:cx="255.45718"
     inkscape:cy="122.30857"
     inkscape:window-x="65"
     inkscape:window-y="24"
     inkscape:window-maximized="1"
     inkscape:current-layer="Capa_1"
     fit-margin-top="0"
     fit-margin-left="0"
     fit-margin-right="0"
     fit-margin-bottom="0" /><style
     type="text/css"
     id="style3">
	.st0{fill:#4479C7;}
	.st1{fill:#424242;}
	.st2{fill:#FFFFFF;}
	.st3{fill:none;stroke:#1C75F7;stroke-width:6.8759;stroke-miterlimit:10;}
	.st4{fill:#1C75F7;}
	.st5{fill:#77ACFA;}
</style><g
     id="g7"
     transform="translate(0,-6.4132999e-6)"><g
       id="g9"><g
         id="XMLID_16_"><path
           id="XMLID_17_"
           class="st1"
           d="m 17.8,23 151.5,0.2 c 9.8,0 17.8,8 17.8,17.8 v 203.8 c 0,9.8 -8,17.8 -17.8,17.8 H 17.8 C 8,262.6 0,254.6 0,244.8 V 40.8 C 0,30.9 8,23 17.8,23 z"
           inkscape:connector-curvature="0"
           style="fill:#424242" /></g><g
         id="g13"><path
           class="st2"
           d="M 169.7,237 H 17.9 c -1.4,0 -2.5,-1.1 -2.5,-2.5 V 39.7 c 0,-1.4 1.1,-2.5 2.5,-2.5 h 151.9 c 1.4,0 2.5,1.1 2.5,2.5 v 194.8 c -0.1,1.4 -1.2,2.5 -2.6,2.5 z"
           id="path15"
           inkscape:connector-curvature="0"
           style="fill:#ffffff" /><line
           class="st3"
           x1="68.699997"
           y1="68.900002"
           x2="146.89999"
           y2="68.900002"
           id="line17"
           style="fill:none;stroke:#1c75f7;stroke-width:6.87589979;stroke-miterlimit:10" /><line
           class="st3"
           x1="68.699997"
           y1="86.699997"
           x2="146.89999"
           y2="86.699997"
           id="line19"
           style="fill:none;stroke:#1c75f7;stroke-width:6.87589979;stroke-miterlimit:10" /><line
           class="st3"
           x1="40.299999"
           y1="104.5"
           x2="146.89999"
           y2="104.5"
           id="line21"
           style="fill:none;stroke:#1c75f7;stroke-width:6.87589979;stroke-miterlimit:10" /><line
           class="st3"
           x1="40.299999"
           y1="122.3"
           x2="146.89999"
           y2="122.3"
           id="line23"
           style="fill:none;stroke:#1c75f7;stroke-width:6.87589979;stroke-miterlimit:10" /><line
           class="st3"
           x1="40.299999"
           y1="156.39999"
           x2="146.89999"
           y2="156.39999"
           id="line25"
           style="fill:none;stroke:#1c75f7;stroke-width:6.87589979;stroke-miterlimit:10" /><line
           class="st3"
           x1="40.5"
           y1="174.39999"
           x2="114.8"
           y2="174.39999"
           id="line27"
           style="fill:none;stroke:#1c75f7;stroke-width:6.87589979;stroke-miterlimit:10" /><g
           id="g29"><path
             class="st4"
             d="m 52.4,64 h 1.2 c 1,0 2,0.6 2.3,1.6 l 8.3,21.9 c 0.6,1.6 -0.6,3.4 -2.3,3.4 h 0 c -1,0 -2,-0.6 -2.3,-1.6 L 58.3,85.9 C 57.9,84.9 57,84.3 56,84.3 h -6 c -1,0 -2,0.7 -2.3,1.6 l -1.3,3.4 c -0.4,1 -1.3,1.6 -2.3,1.6 h 0 c -1.8,0 -3,-1.8 -2.3,-3.4 L 50.1,65.6 C 50.5,64.7 51.4,64 52.4,64 z m 3.2,13.2 -0.2,-0.7 c -0.8,-2.2 -3.9,-2.2 -4.7,0 l -0.2,0.7 c -0.6,1.6 0.6,3.4 2.3,3.4 h 0.5 c 1.6,-0.1 2.8,-1.8 2.3,-3.4 z"
             id="path31"
             inkscape:connector-curvature="0"
             style="fill:#1c75f7" /></g></g></g><path
       id="XMLID_15_"
       class="st5"
       d="m 112.7,16.7 c -1.3,0 -2.3,-1 -2.5,-2.2 C 109.1,6.3 102.1,0 93.6,0 85.1,0 78.1,6.3 77,14.5 c -0.2,1.3 -1.2,2.2 -2.5,2.2 l -11,0 C 57.7,16.7 53,21.4 53,27.2 v 4.3 C 53,37.3 57.7,42 63.5,42 h 60.1 c 5.8,0 10.5,-4.7 10.5,-10.5 v -4.3 c 0,-5.8 -4.7,-10.5 -10.5,-10.5 l -10.9,0 z"
       inkscape:connector-curvature="0"
       style="fill:#77acfa" /><circle
       class="st4"
       cx="93.800003"
       cy="12.6"
       r="4.4000001"
       id="circle34"
       sodipodi:cx="93.800003"
       sodipodi:cy="12.6"
       sodipodi:rx="4.4000001"
       sodipodi:ry="4.4000001"
       style="fill:#1c75f7"
       d="m 98.200003,12.6 c 0,2.430053 -1.969947,4.4 -4.4,4.4 -2.430053,0 -4.4,-1.969947 -4.4,-4.4 0,-2.430053 1.969947,-4.3999997 4.4,-4.3999997 2.430053,0 4.4,1.9699467 4.4,4.3999997 z" /></g></svg>